  0
SECTION
  2
HEADER
  9
$ACADVER
  1
AC1006
  9
$EXTMIN
 10
0.000000
 20
0.000000
 30
0.000000
  9
$EXTMAX
 10
1024.000000
 20
1024.000000
 30
0.000000
  0
ENDSEC
  0
SECTION
  2
ENTITIES
  0
POLYLINE
  8
0
 66
1
 70
1
  0
VERTEX
  8
0
 10
420.500526
 20
700.283913
 42
-0.011257
  0
VERTEX
  8
0
 10
418.625258
 20
696.462688
 42
-0.007203
  0
VERTEX
  8
0
 10
416.284272
 20
692.106770
 42
-0.007237
  0
VERTEX
  8
0
 10
413.866190
 20
687.903202
 42
-0.013403
  0
VERTEX
  8
0
 10
411.763604
 20
684.573963
 42
0.004452
  0
VERTEX
  8
0
 10
409.947243
 20
681.808836
 42
0.006654
  0
VERTEX
  8
0
 10
408.413940
 20
679.357664
 42
0.003151
  0
VERTEX
  8
0
 10
407.156046
 20
677.256214
 42
0.129629
  0
VERTEX
  8
0
 10
407.013078
 20
676.750000
 42
0.361219
  0
VERTEX
  8
0
 10
407.530612
 20
676.104528
 42
0.085391
  0
VERTEX
  8
0
 10
409.018939
 20
676.057889
 42
0.060721
  0
VERTEX
  8
0
 10
410.969020
 20
676.577353
 42
0.057409
  0
VERTEX
  8
0
 10
412.777494
 20
677.556704
 42
-0.455369
  0
VERTEX
  8
0
 10
414.193168
 20
677.204847
 42
-0.237490
  0
VERTEX
  8
0
 10
414.205989
 20
675.146136
 42
-0.038556
  0
VERTEX
  8
0
 10
410.601507
 20
669.094425
 42
-0.014110
  0
VERTEX
  8
0
 10
404.628171
 20
661.113028
 42
0.077071
  0
VERTEX
  8
0
 10
404.243447
 20
660.436175
 42
0.419840
  0
VERTEX
  8
0
 10
404.402105
 20
660.092011
 42
0.114728
  0
VERTEX
  8
0
 10
405.128699
 20
660.007792
 42
0.009643
  0
VERTEX
  8
0
 10
407.013879
 20
660.258761
 42
0.008982
  0
VERTEX
  8
0
 10
408.514399
 20
660.515713
 42
0.006927
  0
VERTEX
  8
0
 10
410.141255
 20
660.847889
 42
0.007011
  0
VERTEX
  8
0
 10
411.652952
 20
661.200710
 42
0.016603
  0
VERTEX
  8
0
 10
412.764862
 20
661.516250
 42
-0.018452
  0
VERTEX
  8
0
 10
414.012474
 20
661.865322
 42
-0.220381
  0
VERTEX
  8
0
 10
414.491026
 20
661.769355
 42
-0.302037
  0
VERTEX
  8
0
 10
414.636483
 20
661.373835
 42
-0.030878
  0
VERTEX
  8
0
 10
414.330540
 20
660.370518
 42
-0.045354
  0
VERTEX
  8
0
 10
413.766825
 20
659.198626
 42
-0.003424
  0
VERTEX
  8
0
 10
411.935049
 20
656.182906
 42
-0.004702
  0
VERTEX
  8
0
 10
409.688020
 20
652.615513
 42
-0.003559
  0
VERTEX
  8
0
 10
407.157508
 20
648.741503
 42
0.007433
  0
VERTEX
  8
0
 10
404.723920
 20
644.952078
 42
0.012050
  0
VERTEX
  8
0
 10
402.782254
 20
641.652664
 42
0.005782
  0
VERTEX
  8
0
 10
401.270859
 20
638.861242
 42
0.328640
  0
VERTEX
  8
0
 10
401.353962
 20
638.312705
 42
0.227626
  0
VERTEX
  8
0
 10
401.874974
 20
638.129709
 42
0.015626
  0
VERTEX
  8
0
 10
403.465235
 20
638.355599
 42
0.019824
  0
VERTEX
  8
0
 10
405.414985
 20
638.775238
 42
0.013433
  0
VERTEX
  8
0
 10
407.600000
 20
639.400000
 42
-0.010417
  0
VERTEX
  8
0
 10
409.774360
 20
640.035922
 42
-0.015824
  0
VERTEX
  8
0
 10
411.690458
 20
640.488709
 42
-0.010460
  0
VERTEX
  8
0
 10
413.271263
 20
640.775527
 42
-0.240472
  0
VERTEX
  8
0
 10
413.695205
 20
640.638129
 42
-0.333798
  0
VERTEX
  8
0
 10
413.844782
 20
639.584794
 42
-0.005972
  0
VERTEX
  8
0
 10
410.863924
 20
634.320437
 42
-0.013624
  0
VERTEX
  8
0
 10
407.327994
 20
628.609873
 42
-0.013232
  0
VERTEX
  8
0
 10
403.453097
 20
623.043487
 42
0.003665
  0
VERTEX
  8
0
 10
401.746374
 20
620.689114
 42
0.005644
  0
VERTEX
  8
0
 10
400.308097
 20
618.625257
 42
0.002114
  0
VERTEX
  8
0
 10
399.103360
 20
616.838022
 42
0.148295
  0
VERTEX
  8
0
 10
399.000000
 20
616.497191
 42
0.413894
  0
VERTEX
  8
0
 10
399.568200
 20
615.928372
 42
0.016202
  0
VERTEX
  8
0
 10
402.821816
 20
616.030275
 42
0.023735
  0
VERTEX
  8
0
 10
406.128617
 20
616.399419
 42
0.083384
  0
VERTEX
  8
0
 10
408.151388
 20
617.081020
 42
-0.037453
  0
VERTEX
  8
0
 10
408.973400
 20
617.444689
 42
-0.048460
  0
VERTEX
  8
0
 10
409.773100
 20
617.644473
 42
-0.057004
  0
VERTEX
  8
0
 10
410.439160
 20
617.667183
 42
-0.181429
  0
VERTEX
  8
0
 10
410.835646
 20
617.481128
 42
-0.411474
  0
VERTEX
  8
0
 10
410.828065
 20
616.487246
 42
-0.013013
  0
VERTEX
  8
0
 10
407.594412
 20
613.435736
 42
-0.016561
  0
VERTEX
  8
0
 10
404.199562
 20
610.592024
 42
-0.167584
  0
VERTEX
  8
0
 10
402.482822
 20
610.000000
 42
-0.212956
  0
VERTEX
  8
0
 10
401.180361
 20
610.581087
 42
-0.007840
  0
VERTEX
  8
0
 10
397.554113
 20
614.750553
 42
-0.014795
  0
VERTEX
  8
0
 10
393.850762
 20
619.419605
 42
-0.019135
  0
VERTEX
  8
0
 10
390.751035
 20
623.924233
 42
0.000000
  0
VERTEX
  8
0
 10
388.587628
 20
627.341101
 42
0.000000
  0
VERTEX
  8
0
 10
391.043814
 20
626.566283
 42
0.022620
  0
VERTEX
  8
0
 10
394.238763
 20
625.715186
 42
0.032181
  0
VERTEX
  8
0
 10
397.142795
 20
625.273999
 42
0.032902
  0
VERTEX
  8
0
 10
399.443747
 20
625.226480
 42
0.247923
  0
VERTEX
  8
0
 10
400.351559
 20
625.759817
 42
0.245743
  0
VERTEX
  8
0
 10
400.393877
 20
626.349521
 42
0.027180
  0
VERTEX
  8
0
 10
399.767919
 20
627.598326
 42
0.028172
  0
VERTEX
  8
0
 10
398.799203
 20
629.092110
 42
0.019077
  0
VERTEX
  8
0
 10
397.539302
 20
630.683050
 42
-0.028279
  0
VERTEX
  8
0
 10
394.274576
 20
634.965114
 42
-0.014195
  0
VERTEX
  8
0
 10
390.623151
 20
640.706358
 42
-0.005746
  0
VERTEX
  8
0
 10
387.220503
 20
646.559434
 42
-0.337085
  0
VERTEX
  8
0
 10
387.377003
 20
647.710336
 42
-0.246043
  0
VERTEX
  8
0
 10
387.748552
 20
647.826450
 42
-0.039657
  0
VERTEX
  8
0
 10
388.506120
 20
647.625830
 42
-0.036049
  0
VERTEX
  8
0
 10
389.436641
 20
647.221156
 42
-0.024444
  0
VERTEX
  8
0
 10
390.433608
 20
646.635458
 42
0.043433
  0
VERTEX
  8
0
 10
392.309463
 20
645.627107
 42
0.057939
  0
VERTEX
  8
0
 10
394.160882
 20
645.073272
 42
0.087517
  0
VERTEX
  8
0
 10
395.514102
 20
645.072826
 42
0.364048
  0
VERTEX
  8
0
 10
396.000000
 20
645.651736
 42
0.120118
  0
VERTEX
  8
0
 10
395.889035
 20
646.106971
 42
0.002154
  0
VERTEX
  8
0
 10
394.717320
 20
648.344014
 42
0.005241
  0
VERTEX
  8
0
 10
393.306850
 20
650.942639
 42
0.003458
  0
VERTEX
  8
0
 10
391.633431
 20
653.901736
 42
-0.005356
  0
VERTEX
  8
0
 10
389.910065
 20
656.976341
 42
-0.006267
  0
VERTEX
  8
0
 10
388.342985
 20
659.931128
 42
-0.005586
  0
VERTEX
  8
0
 10
387.078968
 20
662.457388
 42
-0.037715
  0
VERTEX
  8
0
 10
386.563687
 20
663.757425
 42
0.000000
  0
VERTEX
  8
0
 10
385.860512
 20
666.014849
 42
0.000000
  0
VERTEX
  8
0
 10
389.342274
 20
663.960559
 42
0.058925
  0
VERTEX
  8
0
 10
392.305820
 20
662.653684
 42
0.474256
  0
VERTEX
  8
0
 10
393.383583
 20
663.372291
 42
0.138323
  0
VERTEX
  8
0
 10
392.939871
 20
665.840781
 42
0.012909
  0
VERTEX
  8
0
 10
390.064843
 20
671.382534
 42
-0.006912
  0
VERTEX
  8
0
 10
387.095230
 20
676.942455
 42
-0.063851
  0
VERTEX
  8
0
 10
386.163033
 20
679.502499
 42
-0.512507
  0
VERTEX
  8
0
 10
386.710474
 20
680.119758
 42
-0.127961
  0
VERTEX
  8
0
 10
388.222506
 20
679.556704
 42
0.057780
  0
VERTEX
  8
0
 10
389.976613
 20
678.608470
 42
0.054513
  0
VERTEX
  8
0
 10
391.935759
 20
678.063658
 42
0.070580
  0
VERTEX
  8
0
 10
393.485410
 20
678.030506
 42
0.379620
  0
VERTEX
  8
0
 10
394.000000
 20
678.610601
 42
0.140478
  0
VERTEX
  8
0
 10
393.880776
 20
679.026580
 42
0.002636
  0
VERTEX
  8
0
 10
392.658905
 20
680.960293
 42
0.006224
  0
VERTEX
  8
0
 10
391.184214
 20
683.205023
 42
0.004098
  0
VERTEX
  8
0
 10
389.434570
 20
685.752110
 42
-0.012975
  0
VERTEX
  8
0
 10
385.702576
 20
691.397228
 42
-0.013041
  0
VERTEX
  8
0
 10
382.275064
 20
697.218853
 42
-0.009364
  0
VERTEX
  8
0
 10
379.513582
 20
702.429906
 42
-0.117683
  0
VERTEX
  8
0
 10
379.000000
 20
704.581751
 42
0.111518
  0
VERTEX
  8
0
 10
378.691173
 20
705.949186
 42
0.289472
  0
VERTEX
  8
0
 10
377.873487
 20
706.465279
 42
0.222686
  0
VERTEX
  8
0
 10
376.851249
 20
705.985596
 42
0.082815
  0
VERTEX
  8
0
 10
376.030492
 20
704.580200
 42
-0.032757
  0
VERTEX
  8
0
 10
375.337255
 20
703.063879
 42
-0.003877
  0
VERTEX
  8
0
 10
373.554266
 20
699.816027
 42
-0.004622
  0
VERTEX
  8
0
 10
371.366386
 20
695.986409
 42
-0.003775
  0
VERTEX
  8
0
 10
368.956966
 20
691.928758
 42
0.004754
  0
VERTEX
  8
0
 10
366.646713
 20
688.020685
 42
0.007768
  0
VERTEX
  8
0
 10
364.771642
 20
684.659373
 42
0.002474
  0
VERTEX
  8
0
 10
363.228889
 20
681.755534
 42
0.328287
  0
VERTEX
  8
0
 10
363.285913
 20
681.380754
 42
0.220154
  0
VERTEX
  8
0
 10
363.600706
 20
681.265130
 42
0.025200
  0
VERTEX
  8
0
 10
364.369454
 20
681.367025
 42
0.026654
  0
VERTEX
  8
0
 10
365.318723
 20
681.594766
 42
0.018643
  0
VERTEX
  8
0
 10
366.361312
 20
681.947271
 42
-0.104353
  0
VERTEX
  8
0
 10
368.259330
 20
682.244558
 42
-0.452284
  0
VERTEX
  8
0
 10
368.880662
 20
681.458213
 42
-0.092532
  0
VERTEX
  8
0
 10
368.037462
 20
679.253805
 42
-0.009349
  0
VERTEX
  8
0
 10
365.000000
 20
674.500000
 42
0.005960
  0
VERTEX
  8
0
 10
363.469647
 20
672.140305
 42
0.008619
  0
VERTEX
  8
0
 10
362.178561
 20
670.016368
 42
0.005043
  0
VERTEX
  8
0
 10
361.146540
 20
668.209159
 42
0.126921
  0
VERTEX
  8
0
 10
361.003183
 20
667.662102
 42
0.361272
  0
VERTEX
  8
0
 10
361.238690
 20
667.376502
 42
0.036883
  0
VERTEX
  8
0
 10
362.176671
 20
667.268976
 42
0.032764
  0
VERTEX
  8
0
 10
363.468058
 20
667.301396
 42
0.019194
  0
VERTEX
  8
0
 10
365.002507
 20
667.500424
 42
-0.008978
  0
VERTEX
  8
0
 10
367.367377
 20
667.856417
 42
-0.117045
  0
VERTEX
  8
0
 10
368.245319
 20
667.766933
 42
-0.335473
  0
VERTEX
  8
0
 10
368.545201
 20
667.317928
 42
-0.071671
  0
VERTEX
  8
0
 10
368.344986
 20
666.338321
 42
-0.034377
  0
VERTEX
  8
0
 10
367.252998
 20
663.849278
 42
-0.008148
  0
VERTEX
  8
0
 10
365.085070
 20
659.866295
 42
-0.007892
  0
VERTEX
  8
0
 10
362.797502
 20
655.966805
 42
-0.038688
  0
VERTEX
  8
0
 10
361.306692
 20
653.894618
 42
0.062818
  0
VERTEX
  8
0
 10
360.833034
 20
653.164545
 42
0.054031
  0
VERTEX
  8
0
 10
360.525871
 20
652.301945
 42
0.056633
  0
VERTEX
  8
0
 10
360.421456
 20
651.443139
 42
0.093836
  0
VERTEX
  8
0
 10
360.551220
 20
650.727119
 42
0.088650
  0
VERTEX
  8
0
 10
361.019578
 20
649.951497
 42
0.206488
  0
VERTEX
  8
0
 10
361.620391
 20
649.666100
 42
0.096236
  0
VERTEX
  8
0
 10
362.577515
 20
649.816311
 42
0.012057
  0
VERTEX
  8
0
 10
364.543211
 20
650.582502
 42
-0.006383
  0
VERTEX
  8
0
 10
367.680500
 20
651.846547
 42
-0.303451
  0
VERTEX
  8
0
 10
368.315520
 20
651.705216
 42
-0.298031
  0
VERTEX
  8
0
 10
368.435010
 20
651.060526
 42
-0.006229
  0
VERTEX
  8
0
 10
367.079143
 20
647.928035
 42
-0.019745
  0
VERTEX
  8
0
 10
365.056186
 20
643.849428
 42
-0.249690
  0
VERTEX
  8
0
 10
363.669766
 20
642.938115
 42
-0.220568
  0
VERTEX
  8
0
 10
362.024836
 20
643.523799
 42
-0.015563
  0
VERTEX
  8
0
 10
358.562915
 20
647.141248
 42
-0.023350
  0
VERTEX
  8
0
 10
355.269666
 20
651.167236
 42
-0.023170
  0
VERTEX
  8
0
 10
352.357098
 20
655.492891
 42
-0.015939
  0
VERTEX
  8
0
 10
350.144596
 20
659.407867
 42
-0.328039
  0
VERTEX
  8
0
 10
350.337308
 20
660.670642
 42
-0.252843
  0
VERTEX
  8
0
 10
350.684266
 20
660.774214
 42
-0.024221
  0
VERTEX
  8
0
 10
351.568031
 20
660.545118
 42
-0.026236
  0
VERTEX
  8
0
 10
352.656761
 20
660.142095
 42
-0.017565
  0
VERTEX
  8
0
 10
353.857410
 20
659.573736
 42
0.006826
  0
VERTEX
  8
0
 10
355.063155
 20
658.970938
 42
0.009278
  0
VERTEX
  8
0
 10
356.168182
 20
658.462285
 42
0.006634
  0
VERTEX
  8
0
 10
357.101190
 20
658.068290
 42
0.096876
  0
VERTEX
  8
0
 10
357.450340
 20
658.000000
 42
0.434934
  0
VERTEX
  8
0
 10
358.036235
 20
658.628553
 42
0.075378
  0
VERTEX
  8
0
 10
357.637010
 20
660.408040
 42
0.039133
  0
VERTEX
  8
0
 10
356.288018
 20
663.205010
 42
0.014673
  0
VERTEX
  8
0
 10
353.985326
 20
666.902781
 42
-0.007095
  0
VERTEX
  8
0
 10
352.380873
 20
669.394335
 42
-0.007524
  0
VERTEX
  8
0
 10
350.879632
 20
671.882527
 42
-0.007225
  0
VERTEX
  8
0
 10
349.651077
 20
674.061580
 42
-0.033915
  0
VERTEX
  8
0
 10
349.050378
 20
675.367497
 42
0.000000
  0
VERTEX
  8
0
 10
348.130102
 20
677.788004
 42
0.000000
  0
VERTEX
  8
0
 10
352.075804
 20
676.238088
 42
0.021691
  0
VERTEX
  8
0
 10
355.325028
 20
675.121813
 42
0.286110
  0
VERTEX
  8
0
 10
356.496065
 20
675.445639
 42
0.332616
  0
VERTEX
  8
0
 10
356.609884
 20
676.563518
 42
0.025680
  0
VERTEX
  8
0
 10
354.821293
 20
679.222782
 42
-0.021213
  0
VERTEX
  8
0
 10
351.290511
 20
684.372410
 42
-0.008335
  0
VERTEX
  8
0
 10
346.851169
 20
691.745978
 42
-0.005980
  0
VERTEX
  8
0
 10
342.717120
 20
699.079671
 42
-0.063947
  0
VERTEX
  8
0
 10
341.471906
 20
702.255913
 42
0.021625
  0
VERTEX
  8
0
 10
341.159167
 20
703.307187
 42
0.032021
  0
VERTEX
  8
0
 10
340.788006
 20
704.193925
 42
0.033157
  0
VERTEX
  8
0
 10
340.412590
 20
704.839499
 42
0.249434
  0
VERTEX
  8
0
 10
340.110877
 20
705.000000
 42
0.261286
  0
VERTEX
  8
0
 10
339.737525
 20
704.790601
 42
0.004899
  0
VERTEX
  8
0
 10
338.545925
 20
702.796875
 42
0.010619
  0
VERTEX
  8
0
 10
337.198518
 20
700.374824
 42
0.006737
  0
VERTEX
  8
0
 10
335.727472
 20
697.500000
 42
-0.011319
  0
VERTEX
  8
0
 10
334.223424
 20
694.625937
 42
-0.017123
  0
VERTEX
  8
0
 10
332.774385
 20
692.203125
 42
-0.011978
  0
VERTEX
  8
0
 10
331.486002
 20
690.308559
 42
-0.241972
  0
VERTEX
  8
0
 10
330.885742
 20
690.000000
 42
0.085814
  0
VERTEX
  8
0
 10
330.423403
 20
689.920061
 42
0.320157
  0
VERTEX
  8
0
 10
330.264007
 20
689.691363
 42
0.149172
  0
VERTEX
  8
0
 10
330.389961
 20
689.294285
 42
0.022354
  0
VERTEX
  8
0
 10
330.900931
 20
688.619370
 42
-0.179772
  0
VERTEX
  8
0
 10
331.236422
 20
687.661765
 42
-0.101882
  0
VERTEX
  8
0
 10
330.962587
 20
686.447621
 42
-0.050068
  0
VERTEX
  8
0
 10
329.967300
 20
684.729061
 42
-0.010976
  0
VERTEX
  8
0
 10
327.906336
 20
682.000722
 42
0.020812
  0
VERTEX
  8
0
 10
325.129818
 20
678.170783
 42
0.223303
  0
VERTEX
  8
0
 10
324.857571
 20
676.322721
 42
0.334291
  0
VERTEX
  8
0
 10
326.090525
 20
675.419146
 42
0.037039
  0
VERTEX
  8
0
 10
329.795502
 20
675.741666
 42
0.000000
  0
VERTEX
  8
0
 10
333.262643
 20
676.304306
 42
0.000000
  0
VERTEX
  8
0
 10
330.459126
 20
671.402153
 42
-0.001572
  0
VERTEX
  8
0
 10
329.335588
 20
669.451824
 42
-0.001957
  0
VERTEX
  8
0
 10
328.278401
 20
667.646257
 42
-0.001589
  0
VERTEX
  8
0
 10
327.380145
 20
666.136781
 42
-0.014878
  0
VERTEX
  8
0
 10
326.972236
 20
665.500000
 42
0.076315
  0
VERTEX
  8
0
 10
325.789565
 20
663.033730
 42
0.138682
  0
VERTEX
  8
0
 10
325.746958
 20
660.815472
 42
0.105113
  0
VERTEX
  8
0
 10
326.918194
 20
658.485883
 42
0.032873
  0
VERTEX
  8
0
 10
329.571344
 20
655.586233
 42
-0.012595
  0
VERTEX
  8
0
 10
331.267660
 20
653.876874
 42
-0.017278
  0
VERTEX
  8
0
 10
332.699082
 20
652.250825
 42
-0.014061
  0
VERTEX
  8
0
 10
333.784962
 20
650.849243
 42
-0.159081
  0
VERTEX
  8
0
 10
334.000000
 20
650.190469
 42
-0.294713
  0
VERTEX
  8
0
 10
333.278349
 20
649.072479
 42
-0.063248
  0
VERTEX
  8
0
 10
330.964069
 20
648.361474
 42
-0.044925
  0
VERTEX
  8
0
 10
327.511371
 20
648.077873
 42
-0.023037
  0
VERTEX
  8
0
 10
323.170564
 20
648.312069
 42
0.006472
  0
VERTEX
  8
0
 10
321.074808
 20
648.494907
 42
0.015975
  0
VERTEX
  8
0
 10
319.532916
 20
648.559904
 42
0.040530
  0
VERTEX
  8
0
 10
318.768286
 20
648.505653
 42
0.757435
  0
VERTEX
  8
0
 10
318.750000
 20
648.357081
 42
-0.158269
  0
VERTEX
  8
0
 10
319.230433
 20
647.943542
 42
-0.052414
  0
VERTEX
  8
0
 10
319.632812
 20
647.091978
 42
-0.046024
  0
VERTEX
  8
0
 10
319.907815
 20
645.990692
 42
-0.038199
  0
VERTEX
  8
0
 10
320.000000
 20
644.785824
 42
0.024354
  0
VERTEX
  8
0
 10
320.090037
 20
642.938434
 42
0.215330
  0
VERTEX
  8
0
 10
320.486963
 20
642.247722
 42
0.181748
  0
VERTEX
  8
0
 10
321.310420
 20
642.023842
 42
0.016693
  0
VERTEX
  8
0
 10
323.448147
 20
642.297872
 42
-0.009455
  0
VERTEX
  8
0
 10
325.691648
 20
642.618530
 42
-0.210544
  0
VERTEX
  8
0
 10
326.307242
 20
642.433508
 42
-0.297619
  0
VERTEX
  8
0
 10
326.464514
 20
641.897211
 42
-0.017511
  0
VERTEX
  8
0
 10
325.890307
 20
640.211485
 42
-0.015190
  0
VERTEX
  8
0
 10
325.433841
 20
639.112585
 42
-0.013503
  0
VERTEX
  8
0
 10
324.894326
 20
637.998777
 42
-0.013685
  0
VERTEX
  8
0
 10
324.354411
 20
637.023151
 42
-0.039997
  0
VERTEX
  8
0
 10
323.912395
 20
636.394442
 42
0.176053
  0
VERTEX
  8
0
 10
323.597048
 20
635.514711
 42
0.037130
  0
VERTEX
  8
0
 10
323.727233
 20
633.861188
 42
0.028907
  0
VERTEX
  8
0
 10
324.211852
 20
631.594103
 42
0.012201
  0
VERTEX
  8
0
 10
325.110894
 20
628.611772
 42
-0.014121
  0
VERTEX
  8
0
 10
326.194080
 20
624.968014
 42
-0.037785
  0
VERTEX
  8
0
 10
326.692438
 20
622.307595
 42
-0.044474
  0
VERTEX
  8
0
 10
326.743193
 20
619.862418
 42
-0.026926
  0
VERTEX
  8
0
 10
326.390660
 20
616.986502
 42
0.000000
  0
VERTEX
  8
0
 10
325.500000
 20
611.972803
 42
0.000000
  0
VERTEX
  8
0
 10
319.698760
 20
616.101828
 42
0.009677
  0
VERTEX
  8
0
 10
317.436835
 20
617.646689
 42
0.015608
  0
VERTEX
  8
0
 10
315.446786
 20
618.863104
 42
0.009434
  0
VERTEX
  8
0
 10
313.785389
 20
619.767643
 42
0.327260
  0
VERTEX
  8
0
 10
313.370377
 20
619.703710
 42
0.258576
  0
VERTEX
  8
0
 10
313.243655
 20
619.261909
 42
0.007666
  0
VERTEX
  8
0
 10
313.722471
 20
617.322669
 42
0.013495
  0
VERTEX
  8
0
 10
314.402193
 20
614.997331
 42
0.008682
  0
VERTEX
  8
0
 10
315.309240
 20
612.338283
 42
-0.025620
  0
VERTEX
  8
0
 10
317.194950
 20
606.129749
 42
-0.014586
  0
VERTEX
  8
0
 10
318.865172
 20
598.462031
 42
-0.006926
  0
VERTEX
  8
0
 10
320.165885
 20
590.950042
 42
-0.240216
  0
VERTEX
  8
0
 10
319.628735
 20
589.295401
 42
-0.294244
  0
VERTEX
  8
0
 10
318.541564
 20
589.060195
 42
-0.019932
  0
VERTEX
  8
0
 10
315.483387
 20
590.350038
 42
-0.019590
  0
VERTEX
  8
0
 10
311.271713
 20
592.532859
 42
-0.007148
  0
VERTEX
  8
0
 10
305.481460
 20
595.938195
 42
0.006736
  0
VERTEX
  8
0
 10
302.066461
 20
597.950396
 42
0.044343
  0
VERTEX
  8
0
 10
300.264509
 20
598.777592
 42
0.175072
  0
VERTEX
  8
0
 10
299.401227
 20
598.773362
 42
0.342413
  0
VERTEX
  8
0
 10
299.056810
 20
598.223354
 42
-0.018134
  0
VERTEX
  8
0
 10
299.116740
 20
597.289289
 42
-0.004510
  0
VERTEX
  8
0
 10
299.145517
 20
595.757798
 42
-0.004605
  0
VERTEX
  8
0
 10
299.146494
 20
594.003512
 42
-0.004609
  0
VERTEX
  8
0
 10
299.115154
 20
592.250000
 42
-0.014952
  0
VERTEX
  8
0
 10
298.964849
 20
589.615438
 42
-0.143367
  0
VERTEX
  8
0
 10
298.560817
 20
588.578935
 42
-0.191256
  0
VERTEX
  8
0
 10
297.711143
 20
588.073800
 42
-0.030571
  0
VERTEX
  8
0
 10
295.750000
 20
587.882381
 42
0.008665
  0
VERTEX
  8
0
 10
294.106553
 20
587.794367
 42
0.734773
  0
VERTEX
  8
0
 10
294.067733
 20
587.630490
 42
0.090260
  0
VERTEX
  8
0
 10
294.637165
 20
587.418757
 42
0.002376
  0
VERTEX
  8
0
 10
297.307756
 20
586.957018
 42
-0.056306
  0
VERTEX
  8
0
 10
301.183384
 20
585.846982
 42
-0.046722
  0
VERTEX
  8
0
 10
304.981550
 20
583.846310
 42
-0.049206
  0
VERTEX
  8
0
 10
308.018503
 20
581.407858
 42
-0.122764
  0
VERTEX
  8
0
 10
309.499787
 20
579.000670
 42
0.185538
  0
VERTEX
  8
0
 10
310.390306
 20
577.886367
 42
0.098147
  0
VERTEX
  8
0
 10
312.086031
 20
577.297968
 42
0.031771
  0
VERTEX
  8
0
 10
315.426287
 20
577.047641
 42
0.002821
  0
VERTEX
  8
0
 10
323.871221
 20
577.000000
 42
0.000000
  0
VERTEX
  8
0
 10
337.607666
 20
577.000000
 42
0.000000
  0
VERTEX
  8
0
 10
341.053833
 20
580.578165
 42
-0.043144
  0
VERTEX
  8
0
 10
344.713185
 20
583.774435
 42
-0.068156
  0
VERTEX
  8
0
 10
348.373097
 20
585.753073
 42
-0.068177
  0
VERTEX
  8
0
 10
352.429404
 20
586.674517
 42
-0.043198
  0
VERTEX
  8
0
 10
357.285504
 20
586.678826
 42
-0.051813
  0
VERTEX
  8
0
 10
361.527053
 20
585.867537
 42
-0.051260
  0
VERTEX
  8
0
 10
365.527449
 20
584.199944
 42
-0.052294
  0
VERTEX
  8
0
 10
369.031718
 20
581.792881
 42
-0.058869
  0
VERTEX
  8
0
 10
371.806704
 20
578.795111
 42
0.152073
  0
VERTEX
  8
0
 10
373.117797
 20
577.819473
 42
0.056719
  0
VERTEX
  8
0
 10
375.380648
 20
577.302540
 42
0.024606
  0
VERTEX
  8
0
 10
379.368194
 20
577.054716
 42
0.003217
  0
VERTEX
  8
0
 10
387.872705
 20
577.000000
 42
0.000000
  0
VERTEX
  8
0
 10
402.632002
 20
577.000000
 42
0.000000
  0
VERTEX
  8
0
 10
405.752266
 20
580.524396
 42
-0.051052
  0
VERTEX
  8
0
 10
408.827847
 20
583.356048
 42
-0.057154
  0
VERTEX
  8
0
 10
412.304544
 20
585.383442
 42
-0.056303
  0
VERTEX
  8
0
 10
416.195912
 20
586.592548
 42
-0.047228
  0
VERTEX
  8
0
 10
420.500000
 20
587.000000
 42
-0.045204
  0
VERTEX
  8
0
 10
424.798309
 20
586.610602
 42
-0.061275
  0
VERTEX
  8
0
 10
428.515459
 20
585.448151
 42
-0.062914
  0
VERTEX
  8
0
 10
431.766512
 20
583.449756
 42
-0.051196
  0
VERTEX
  8
0
 10
434.677415
 20
580.575183
 42
0.023784
  0
VERTEX
  8
0
 10
436.718243
 20
578.326296
 42
0.113656
  0
VERTEX
  8
0
 10
438.177421
 20
577.411544
 42
0.084770
  0
VERTEX
  8
0
 10
440.087500
 20
577.094504
 42
0.009975
  0
VERTEX
  8
0
 10
444.413374
 20
577.200951
 42
0.000000
  0
VERTEX
  8
0
 10
451.121504
 20
577.500000
 42
0.000000
  0
VERTEX
  8
0
 10
445.560752
 20
584.925738
 42
-0.002452
  0
VERTEX
  8
0
 10
443.429169
 20
587.801506
 42
-0.003880
  0
VERTEX
  8
0
 10
441.633471
 20
590.289376
 42
-0.001003
  0
VERTEX
  8
0
 10
440.090407
 20
592.471836
 42
-0.154569
  0
VERTEX
  8
0
 10
440.000000
 20
592.757298
 42
-0.545338
  0
VERTEX
  8
0
 10
440.127828
 20
592.839644
 42
-0.009534
  0
VERTEX
  8
0
 10
441.017701
 20
592.414935
 42
-0.014339
  0
VERTEX
  8
0
 10
442.135399
 20
591.814395
 42
-0.007964
  0
VERTEX
  8
0
 10
443.464515
 20
591.021931
 42
0.042204
  0
VERTEX
  8
0
 10
448.179804
 20
588.631371
 42
0.072958
  0
VERTEX
  8
0
 10
452.442473
 20
587.591835
 42
0.107579
  0
VERTEX
  8
0
 10
455.659224
 20
587.982293
 42
0.220803
  0
VERTEX
  8
0
 10
457.442431
 20
589.710573
 42
0.191344
  0
VERTEX
  8
0
 10
457.431062
 20
590.681330
 42
0.023427
  0
VERTEX
  8
0
 10
456.514801
 20
592.644508
 42
0.023532
  0
VERTEX
  8
0
 10
455.089101
 20
595.074586
 42
0.013614
  0
VERTEX
  8
0
 10
453.162168
 20
597.862031
 42
-0.005090
  0
VERTEX
  8
0
 10
448.036284
 20
605.013244
 42
-0.008039
  0
VERTEX
  8
0
 10
443.802573
 20
611.259851
 42
-0.004300
  0
VERTEX
  8
0
 10
440.415154
 20
616.533475
 42
-0.141525
  0
VERTEX
  8
0
 10
440.000000
 20
617.970811
 42
-0.325330
  0
VERTEX
  8
0
 10
440.232633
 20
618.290503
 42
-0.119261
  0
VERTEX
  8
0
 10
440.822752
 20
618.335008
 42
-0.057485
  0
VERTEX
  8
0
 10
441.782009
 20
618.062313
 42
-0.021362
  0
VERTEX
  8
0
 10
443.056217
 20
617.470929
 42
0.046832
  0
VERTEX
  8
0
 10
444.543130
 20
616.870727
 42
0.028118
  0
VERTEX
  8
0
 10
446.396521
 20
616.429256
 42
0.027561
  0
VERTEX
  8
0
 10
448.353645
 20
616.188284
 42
0.035640
  0
VERTEX
  8
0
 10
450.162708
 20
616.195249
 42
0.000000
  0
VERTEX
  8
0
 10
454.212983
 20
616.500000
 42
0.000000
  0
VERTEX
  8
0
 10
449.352078
 20
622.570234
 42
-0.008556
  0
VERTEX
  8
0
 10
444.489026
 20
628.860815
 42
-0.012320
  0
VERTEX
  8
0
 10
440.421303
 20
634.602819
 42
-0.005588
  0
VERTEX
  8
0
 10
437.141816
 20
639.602532
 42
-0.352263
  0
VERTEX
  8
0
 10
437.247953
 20
640.581286
 42
-0.196515
  0
VERTEX
  8
0
 10
437.607712
 20
640.732252
 42
-0.049858
  0
VERTEX
  8
0
 10
438.251458
 20
640.673894
 42
-0.043194
  0
VERTEX
  8
0
 10
439.032692
 20
640.452311
 42
-0.032183
  0
VERTEX
  8
0
 10
439.848612
 20
640.081020
 42
0.062822
  0
VERTEX
  8
0
 10
440.936605
 20
639.664130
 42
0.019954
  0
VERTEX
  8
0
 10
442.641649
 20
639.317550
 42
0.019568
  0
VERTEX
  8
0
 10
444.591226
 20
639.079498
 42
0.020596
  0
VERTEX
  8
0
 10
446.520362
 20
639.000000
 42
0.000000
  0
VERTEX
  8
0
 10
451.172207
 20
639.000000
 42
0.000000
  0
VERTEX
  8
0
 10
446.240540
 20
645.250000
 42
-0.013582
  0
VERTEX
  8
0
 10
442.779221
 20
649.890410
 42
-0.011542
  0
VERTEX
  8
0
 10
439.375305
 20
654.967294
 42
-0.006726
  0
VERTEX
  8
0
 10
436.447082
 20
659.699708
 42
-0.135991
  0
VERTEX
  8
0
 10
436.000000
 20
661.313107
 42
-0.393915
  0
VERTEX
  8
0
 10
436.169301
 20
661.494656
 42
-0.050231
  0
VERTEX
  8
0
 10
436.753498
 20
661.476785
 42
-0.037571
  0
VERTEX
  8
0
 10
437.581134
 20
661.303781
 42
-0.020540
  0
VERTEX
  8
0
 10
438.565100
 20
660.975249
 42
0.049357
  0
VERTEX
  8
0
 10
441.183059
 20
660.265660
 42
0.042186
  0
VERTEX
  8
0
 10
444.032834
 20
660.032228
 42
0.043566
  0
VERTEX
  8
0
 10
446.367952
 20
660.242179
 42
0.363344
  0
VERTEX
  8
0
 10
447.000000
 20
660.997119
 42
0.139831
  0
VERTEX
  8
0
 10
446.835240
 20
661.574738
 42
0.013526
  0
VERTEX
  8
0
 10
446.025154
 20
662.803743
 42
0.016350
  0
VERTEX
  8
0
 10
444.952402
 20
664.237005
 42
0.012213
  0
VERTEX
  8
0
 10
443.681375
 20
665.747119
 42
-0.020793
  0
VERTEX
  8
0
 10
441.187973
 20
668.814858
 42
-0.014328
  0
VERTEX
  8
0
 10
438.613776
 20
672.480358
 42
-0.009309
  0
VERTEX
  8
0
 10
436.389762
 20
675.988767
 42
-0.137446
  0
VERTEX
  8
0
 10
436.000000
 20
677.379852
 42
-0.386932
  0
VERTEX
  8
0
 10
436.200617
 20
677.600280
 42
-0.023253
  0
VERTEX
  8
0
 10
437.175000
 20
677.646634
 42
-0.025138
  0
VERTEX
  8
0
 10
438.466182
 20
677.583021
 42
-0.014769
  0
VERTEX
  8
0
 10
440.000000
 20
677.384009
 42
0.015058
  0
VERTEX
  8
0
 10
441.533811
 20
677.185900
 42
0.025631
  0
VERTEX
  8
0
 10
442.825000
 20
677.125060
 42
0.024073
  0
VERTEX
  8
0
 10
443.796768
 20
677.175933
 42
0.385092
  0
VERTEX
  8
0
 10
444.000000
 20
677.400676
 42
0.139273
  0
VERTEX
  8
0
 10
443.871604
 20
677.852684
 42
0.002223
  0
VERTEX
  8
0
 10
442.448767
 20
680.132378
 42
0.005657
  0
VERTEX
  8
0
 10
440.743084
 20
682.771710
 42
0.003698
  0
VERTEX
  8
0
 10
438.719205
 20
685.778484
 42
-0.013530
  0
VERTEX
  8
0
 10
436.449492
 20
689.297945
 42
-0.008604
  0
VERTEX
  8
0
 10
433.990916
 20
693.508367
 42
-0.008642
  0
VERTEX
  8
0
 10
431.719414
 20
697.726038
 42
-0.015832
  0
VERTEX
  8
0
 10
430.038487
 20
701.250000
 42
0.011004
  0
VERTEX
  8
0
 10
428.658098
 20
704.217288
 42
0.016978
  0
VERTEX
  8
0
 10
427.323189
 20
706.711673
 42
0.011489
  0
VERTEX
  8
0
 10
426.128132
 20
708.668271
 42
0.265204
  0
VERTEX
  8
0
 10
425.569282
 20
708.959951
 42
0.247263
  0
VERTEX
  8
0
 10
424.999275
 20
708.631890
 42
0.008754
  0
VERTEX
  8
0
 10
423.639256
 20
706.394844
 42
0.014392
  0
VERTEX
  8
0
 10
422.110689
 20
703.596533
 42
0.009367
  0
SEQEND
  0
POLYLINE
  8
0
 66
1
 70
1
  0
VERTEX
  8
0
 10
361.151931
 20
640.329480
 42
-0.024819
  0
VERTEX
  8
0
 10
362.532190
 20
640.618121
 42
-0.438081
  0
VERTEX
  8
0
 10
362.852297
 20
640.364894
 42
-0.115892
  0
VERTEX
  8
0
 10
362.744999
 20
639.678321
 42
-0.002500
  0
VERTEX
  8
0
 10
361.441419
 20
636.514038
 42
0.017281
  0
VERTEX
  8
0
 10
360.885826
 20
635.043429
 42
0.025257
  0
VERTEX
  8
0
 10
360.508443
 20
633.711806
 42
0.022995
  0
VERTEX
  8
0
 10
360.312307
 20
632.631957
 42
0.233903
  0
VERTEX
  8
0
 10
360.453976
 20
632.212690
 42
0.240949
  0
VERTEX
  8
0
 10
360.865848
 20
632.079614
 42
0.025616
  0
VERTEX
  8
0
 10
361.881779
 20
632.297843
 42
0.027104
  0
VERTEX
  8
0
 10
363.134951
 20
632.708976
 42
0.018443
  0
VERTEX
  8
0
 10
364.512557
 20
633.304597
 42
-0.016134
  0
VERTEX
  8
0
 10
365.850344
 20
633.890350
 42
-0.029953
  0
VERTEX
  8
0
 10
366.974466
 20
634.263563
 42
-0.035945
  0
VERTEX
  8
0
 10
367.788908
 20
634.419189
 42
-0.450428
  0
VERTEX
  8
0
 10
367.996262
 20
634.233821
 42
-0.133451
  0
VERTEX
  8
0
 10
367.529299
 20
632.549368
 42
-0.028088
  0
VERTEX
  8
0
 10
365.809052
 20
629.990799
 42
-0.023132
  0
VERTEX
  8
0
 10
363.881233
 20
627.675554
 42
-0.360438
  0
VERTEX
  8
0
 10
362.930160
 20
627.543164
 42
-0.081613
  0
VERTEX
  8
0
 10
360.811075
 20
629.388436
 42
-0.006997
  0
VERTEX
  8
0
 10
356.287341
 20
635.011252
 42
-0.003080
  0
VERTEX
  8
0
 10
351.606488
 20
641.075647
 42
-0.310640
  0
VERTEX
  8
0
 10
351.556846
 20
642.091979
 42
-0.268977
  0
VERTEX
  8
0
 10
351.960802
 20
642.308330
 42
-0.035379
  0
VERTEX
  8
0
 10
352.967013
 20
642.202759
 42
-0.033290
  0
VERTEX
  8
0
 10
354.247541
 20
641.886921
 42
-0.021855
  0
VERTEX
  8
0
 10
355.673771
 20
641.362947
 42
0.026349
  0
VERTEX
  8
0
 10
357.199209
 20
640.818027
 42
0.025993
  0
VERTEX
  8
0
 10
358.780393
 20
640.433707
 42
0.026913
  0
VERTEX
  8
0
 10
360.196607
 20
640.244740
 42
0.083849
  0
SEQEND
  0
POLYLINE
  8
0
 66
1
 70
1
  0
VERTEX
  8
0
 10
601.099072
 20
689.250000
 42
-0.005850
  0
VERTEX
  8
0
 10
599.312346
 20
686.305886
 42
-0.004120
  0
VERTEX
  8
0
 10
597.237467
 20
683.035793
 42
-0.004158
  0
VERTEX
  8
0
 10
595.200537
 20
679.940018
 42
-0.008712
  0
VERTEX
  8
0
 10
593.554962
 20
677.573978
 42
0.007379
  0
VERTEX
  8
0
 10
592.193043
 20
675.626883
 42
0.010469
  0
VERTEX
  8
0
 10
591.044270
 20
673.852931
 42
0.006840
  0
VERTEX
  8
0
 10
590.140482
 20
672.345367
 42
0.132358
  0
VERTEX
  8
0
 10
590.000000
 20
671.823978
 42
0.335976
  0
VERTEX
  8
0
 10
590.495697
 20
671.169551
 42
0.088345
  0
VERTEX
  8
0
 10
591.890224
 20
671.032371
 42
0.069991
  0
VERTEX
  8
0
 10
593.559148
 20
671.401952
 42
0.107338
  0
VERTEX
  8
0
 10
594.800000
 20
672.200000
 42
-0.269422
  0
VERTEX
  8
0
 10
595.605474
 20
672.413456
 42
-0.436047
  0
VERTEX
  8
0
 10
595.902416
 20
671.844644
 42
-0.046175
  0
VERTEX
  8
0
 10
594.685170
 20
669.215110
 42
-0.016715
  0
VERTEX
  8
0
 10
592.500000
 20
665.723898
 42
0.013557
  0
VERTEX
  8
0
 10
589.932278
 20
661.678509
 42
0.091754
  0
VERTEX
  8
0
 10
589.110569
 20
659.464992
 42
0.376611
  0
VERTEX
  8
0
 10
589.666412
 20
658.554116
 42
0.150385
  0
VERTEX
  8
0
 10
591.250000
 20
658.547795
 42
-0.040479
  0
VERTEX
  8
0
 10
594.422048
 20
659.235928
 42
-0.480072
  0
VERTEX
  8
0
 10
595.213214
 20
658.480272
 42
-0.116348
  0
VERTEX
  8
0
 10
594.543138
 20
656.447769
 42
-0.004974
  0
VERTEX
  8
0
 10
590.507104
 20
650.011082
 42
0.003707
  0
VERTEX
  8
0
 10
588.779797
 20
647.271813
 42
0.005639
  0
VERTEX
  8
0
 10
587.323962
 20
644.864469
 42
0.002304
  0
VERTEX
  8
0
 10
586.113795
 20
642.789622
 42
0.131604
  0
VERTEX
  8
0
 10
586.000000
 20
642.364771
 42
0.442366
  0
VERTEX
  8
0
 10
586.396057
 20
642.004716
 42
0.017551
  0
VERTEX
  8
0
 10
588.564924
 20
642.288824
 42
0.024380
  0
VERTEX
  8
0
 10
591.061921
 20
642.831752
 42
0.026516
  0
VERTEX
  8
0
 10
593.423609
 20
643.603578
 42
-0.306947
  0
VERTEX
  8
0
 10
594.388635
 20
643.380933
 42
-0.292249
  0
VERTEX
  8
0
 10
594.569800
 20
642.383955
 42
-0.043869
  0
VERTEX
  8
0
 10
593.133561
 20
639.602080
 42
-0.005609
  0
VERTEX
  8
0
 10
589.469385
 20
633.953949
 42
0.007554
  0
VERTEX
  8
0
 10
585.403099
 20
627.632261
 42
0.222171
  0
VERTEX
  8
0
 10
585.181327
 20
625.781361
 42
0.390140
  0
VERTEX
  8
0
 10
586.433237
 20
625.082983
 42
0.015679
  0
VERTEX
  8
0
 10
591.898348
 20
626.574692
 42
0.000000
  0
VERTEX
  8
0
 10
594.296696
 20
627.310850
 42
0.000000
  0
VERTEX
  8
0
 10
592.398348
 20
624.095639
 42
-0.031933
  0
VERTEX
  8
0
 10
590.514110
 20
621.324812
 42
-0.034224
  0
VERTEX
  8
0
 10
588.332095
 20
618.883939
 42
-0.052666
  0
VERTEX
  8
0
 10
586.604363
 20
617.521654
 42
-0.590372
  0
VERTEX
  8
0
 10
586.000000
 20
617.855104
 42
0.131910
  0
VERTEX
  8
0
 10
585.807488
 20
618.572116
 42
0.011243
  0
VERTEX
  8
0
 10
584.807368
 20
620.214032
 42
0.014266
  0
VERTEX
  8
0
 10
583.495032
 20
622.140067
 42
0.010564
  0
VERTEX
  8
0
 10
581.939976
 20
624.195152
 42
-0.013869
  0
VERTEX
  8
0
 10
578.864548
 20
628.315811
 42
-0.025442
  0
VERTEX
  8
0
 10
576.630900
 20
631.858455
 42
-0.024577
  0
VERTEX
  8
0
 10
575.230769
 20
634.666570
 42
-0.309003
  0
VERTEX
  8
0
 10
575.438821
 20
635.772154
 42
-0.242156
  0
VERTEX
  8
0
 10
575.863137
 20
635.908184
 42
-0.025094
  0
VERTEX
  8
0
 10
576.920325
 20
635.677200
 42
-0.026760
  0
VERTEX
  8
0
 10
578.224134
 20
635.246881
 42
-0.018170
  0
VERTEX
  8
0
 10
579.658934
 20
634.625601
 42
0.041050
  0
VERTEX
  8
0
 10
582.960447
 20
633.371894
 42
0.333933
  0
VERTEX
  8
0
 10
584.379373
 20
633.912011
 42
0.292519
  0
VERTEX
  8
0
 10
584.368487
 20
635.546265
 42
0.036194
  0
VERTEX
  8
0
 10
582.115140
 20
638.521644
 42
-0.019875
  0
VERTEX
  8
0
 10
579.716080
 20
641.483572
 42
-0.010276
  0
VERTEX
  8
0
 10
576.944871
 20
645.361269
 42
-0.004954
  0
VERTEX
  8
0
 10
574.337016
 20
649.255874
 42
-0.146058
  0
VERTEX
  8
0
 10
574.000000
 20
650.384972
 42
-0.410445
  0
VERTEX
  8
0
 10
574.148678
 20
650.535577
 42
-0.009483
  0
VERTEX
  8
0
 10
575.248438
 20
650.528886
 42
-0.015588
  0
VERTEX
  8
0
 10
576.620287
 20
650.451673
 42
-0.009236
  0
VERTEX
  8
0
 10
578.250000
 20
650.278485
 42
0.000000
  0
VERTEX
  8
0
 10
582.500000
 20
649.747283
 42
0.000000
  0
VERTEX
  8
0
 10
578.830759
 20
653.623641
 42
-0.030946
  0
VERTEX
  8
0
 10
577.141112
 20
655.645681
 42
-0.011960
  0
VERTEX
  8
0
 10
575.046388
 20
658.640912
 42
-0.011788
  0
VERTEX
  8
0
 10
572.924121
 20
662.005028
 42
-0.014274
  0
VERTEX
  8
0
 10
571.100346
 20
665.260316
 42
0.002640
  0
VERTEX
  8
0
 10
569.514493
 20
668.252102
 42
0.004112
  0
VERTEX
  8
0
 10
568.113272
 20
670.811446
 42
0.001276
  0
VERTEX
  8
0
 10
566.877066
 20
673.012733
 42
0.131200
  0
VERTEX
  8
0
 10
566.634504
 20
673.260316
 42
0.417422
  0
VERTEX
  8
0
 10
566.385988
 20
673.195233
 42
0.001555
  0
VERTEX
  8
0
 10
564.751599
 20
670.345218
 42
0.006223
  0
VERTEX
  8
0
 10
562.906773
 20
667.009042
 42
0.003722
  0
VERTEX
  8
0
 10
560.792877
 20
663.000000
 42
-0.001763
  0
VERTEX
  8
0
 10
558.571319
 20
658.746474
 42
-0.001949
  0
VERTEX
  8
0
 10
556.392204
 20
654.648651
 42
-0.001808
  0
VERTEX
  8
0
 10
554.505444
 20
651.164027
 42
-0.010016
  0
VERTEX
  8
0
 10
553.446737
 20
649.314557
 42
0.029611
  0
VERTEX
  8
0
 10
552.134569
 20
646.798631
 42
0.268225
  0
VERTEX
  8
0
 10
552.256648
 20
645.612765
 42
0.355647
  0
VERTEX
  8
0
 10
553.243769
 20
645.349423
 42
0.039359
  0
VERTEX
  8
0
 10
555.444444
 20
646.555556
 42
-0.022102
  0
VERTEX
  8
0
 10
556.486106
 20
647.174085
 42
-0.033081
  0
VERTEX
  8
0
 10
557.449656
 20
647.610760
 42
-0.034909
  0
VERTEX
  8
0
 10
558.232652
 20
647.844057
 42
-0.256724
  0
VERTEX
  8
0
 10
558.594397
 20
647.738937
 42
-0.296133
  0
VERTEX
  8
0
 10
558.689646
 20
647.291147
 42
-0.005713
  0
VERTEX
  8
0
 10
557.776546
 20
644.989349
 42
-0.011808
  0
VERTEX
  8
0
 10
556.582384
 20
642.261909
 42
-0.007393
  0
VERTEX
  8
0
 10
555.063188
 20
639.125676
 42
0.002422
  0
VERTEX
  8
0
 10
553.505872
 20
635.990576
 42
0.003742
  0
VERTEX
  8
0
 10
552.193562
 20
633.264876
 42
0.001234
  0
VERTEX
  8
0
 10
551.083677
 20
630.899681
 42
0.109506
  0
VERTEX
  8
0
 10
551.000000
 20
630.522197
 42
0.388333
  0
VERTEX
  8
0
 10
551.480193
 20
629.997160
 42
0.092884
  0
VERTEX
  8
0
 10
552.766648
 20
630.121136
 42
0.056777
  0
VERTEX
  8
0
 10
554.549572
 20
630.863921
 42
0.039606
  0
VERTEX
  8
0
 10
556.365141
 20
632.072580
 42
-0.021079
  0
VERTEX
  8
0
 10
557.377080
 20
632.801700
 42
-0.044930
  0
VERTEX
  8
0
 10
558.226010
 20
633.257143
 42
-0.084816
  0
VERTEX
  8
0
 10
558.790367
 20
633.391301
 42
-0.433132
  0
VERTEX
  8
0
 10
559.000000
 20
633.194704
 42
-0.096302
  0
VERTEX
  8
0
 10
558.650609
 20
631.397498
 42
-0.013066
  0
VERTEX
  8
0
 10
557.114034
 20
627.863654
 42
-0.014640
  0
VERTEX
  8
0
 10
555.036806
 20
623.729049
 42
-0.011834
  0
VERTEX
  8
0
 10
552.574704
 20
619.414009
 42
0.011836
  0
VERTEX
  8
0
 10
551.279950
 20
617.144819
 42
0.017758
  0
VERTEX
  8
0
 10
550.269102
 20
615.101080
 42
0.012855
  0
VERTEX
  8
0
 10
549.553054
 20
613.398472
 42
0.235718
  0
VERTEX
  8
0
 10
549.604629
 20
612.830706
 42
0.294685
  0
VERTEX
  8
0
 10
550.028229
 20
612.629171
 42
0.033443
  0
VERTEX
  8
0
 10
551.119742
 20
612.845812
 42
0.031945
  0
VERTEX
  8
0
 10
552.505837
 20
613.315419
 42
0.020307
  0
VERTEX
  8
0
 10
554.054420
 20
614.027763
 42
-0.014426
  0
VERTEX
  8
0
 10
555.567064
 20
614.745243
 42
-0.026915
  0
VERTEX
  8
0
 10
556.835664
 20
615.223080
 42
-0.030505
  0
VERTEX
  8
0
 10
557.764083
 20
615.455622
 42
-0.476516
  0
VERTEX
  8
0
 10
557.981885
 20
615.270324
 42
-0.119400
  0
VERTEX
  8
0
 10
557.638649
 20
613.986206
 42
-0.003770
  0
VERTEX
  8
0
 10
554.994689
 20
609.219252
 42
-0.007676
  0
VERTEX
  8
0
 10
551.923374
 20
603.968845
 42
-0.007335
  0
VERTEX
  8
0
 10
548.646558
 20
598.734269
 42
0.020740
  0
VERTEX
  8
0
 10
546.045173
 20
594.319862
 42
0.284127
  0
VERTEX
  8
0
 10
546.156724
 20
592.540958
 42
0.343764
  0
VERTEX
  8
0
 10
547.701527
 20
592.076111
 42
0.025460
  0
VERTEX
  8
0
 10
551.999954
 20
593.999976
 42
-0.009679
  0
VERTEX
  8
0
 10
553.633591
 20
594.793926
 42
-0.015246
  0
VERTEX
  8
0
 10
555.068152
 20
595.404744
 42
-0.009264
  0
VERTEX
  8
0
 10
556.261439
 20
595.845092
 42
-0.287660
  0
VERTEX
  8
0
 10
556.555640
 20
595.777694
 42
-0.338949
  0
VERTEX
  8
0
 10
556.680906
 20
594.832825
 42
-0.002307
  0
VERTEX
  8
0
 10
552.294362
 20
587.283989
 42
-0.005218
  0
VERTEX
  8
0
 10
548.042984
 20
580.214843
 42
-0.092491
  0
VERTEX
  8
0
 10
546.262045
 20
578.250000
 42
0.559143
  0
VERTEX
  8
0
 10
546.322065
 20
577.644929
 42
0.088954
  0
VERTEX
  8
0
 10
547.746989
 20
577.243180
 42
0.021451
  0
VERTEX
  8
0
 10
551.392459
 20
577.044402
 42
0.002895
  0
VERTEX
  8
0
 10
559.058870
 20
577.000029
 42
0.000000
  0
VERTEX
  8
0
 10
573.500000
 20
577.000059
 42
0.000000
  0
VERTEX
  8
0
 10
576.172293
 20
580.349214
 42
-0.058129
  0
VERTEX
  8
0
 10
579.076665
 20
583.229361
 42
-0.058077
  0
VERTEX
  8
0
 10
582.566800
 20
585.364670
 42
-0.056498
  0
VERTEX
  8
0
 10
586.544564
 20
586.683568
 42
-0.049926
  0
VERTEX
  8
0
 10
590.888200
 20
587.152384
 42
-0.046562
  0
VERTEX
  8
0
 10
594.873859
 20
586.811539
 42
-0.064753
  0
VERTEX
  8
0
 10
598.283946
 20
585.727867
 42
-0.059520
  0
VERTEX
  8
0
 10
601.507434
 20
583.725194
 42
-0.032604
  0
VERTEX
  8
0
 10
604.946167
 20
580.585319
 42
0.000000
  0
VERTEX
  8
0
 10
608.392334
 20
577.000000
 42
0.000000
  0
VERTEX
  8
0
 10
623.577478
 20
577.000000
 42
0.000000
  0
VERTEX
  8
0
 10
638.762622
 20
577.000000
 42
0.000000
  0
VERTEX
  8
0
 10
641.364107
 20
580.410722
 42
-0.124149
  0
VERTEX
  8
0
 10
647.392550
 20
585.208006
 42
-0.112553
  0
VERTEX
  8
0
 10
655.205087
 20
586.799519
 42
-0.107356
  0
VERTEX
  8
0
 10
663.235425
 20
584.859094
 42
-0.104130
  0
VERTEX
  8
0
 10
669.838894
 20
579.750000
 42
0.000000
  0
VERTEX
  8
0
 10
672.177787
 20
577.000000
 42
0.000000
  0
VERTEX
  8
0
 10
686.020799
 20
577.000000
 42
0.000000
  0
VERTEX
  8
0
 10
699.863812
 20
577.000000
 42
0.000000
  0
VERTEX
  8
0
 10
701.949799
 20
579.929499
 42
-0.058008
  0
VERTEX
  8
0
 10
704.805162
 20
583.090367
 42
-0.063893
  0
VERTEX
  8
0
 10
708.224967
 20
585.393199
 42
-0.063307
  0
VERTEX
  8
0
 10
712.143567
 20
586.773092
 42
-0.055336
  0
VERTEX
  8
0
 10
716.468645
 20
587.213926
 42
-0.043555
  0
VERTEX
  8
0
 10
720.874087
 20
586.789516
 42
-0.064523
  0
VERTEX
  8
0
 10
724.561741
 20
585.600270
 42
-0.066030
  0
VERTEX
  8
0
 10
727.763517
 20
583.535819
 42
-0.048229
  0
VERTEX
  8
0
 10
730.712305
 20
580.493842
 42
0.026695
  0
VERTEX
  8
0
 10
732.385678
 20
578.612038
 42
0.082633
  0
VERTEX
  8
0
 10
733.759290
 20
577.619558
 42
0.085509
  0
VERTEX
  8
0
 10
735.353396
 20
577.143517
 42
0.029905
  0
VERTEX
  8
0
 10
737.750000
 20
577.000029
 42
0.000000
  0
VERTEX
  8
0
 10
742.000000
 20
577.000000
 42
0.000000
  0
VERTEX
  8
0
 10
742.000000
 20
590.908332
 42
0.000000
  0
VERTEX
  8
0
 10
742.000000
 20
604.816663
 42
0.000000
  0
VERTEX
  8
0
 10
737.445059
 20
610.408332
 42
0.012901
  0
VERTEX
  8
0
 10
735.606286
 20
612.550306
 42
0.018094
  0
VERTEX
  8
0
 10
733.849173
 20
614.357447
 42
0.014535
  0
VERTEX
  8
0
 10
732.324457
 20
615.733468
 42
0.178127
  0
VERTEX
  8
0
 10
731.600046
 20
616.000000
 42
0.110120
  0
VERTEX
  8
0
 10
730.977438
 20
615.861193
 42
0.034937
  0
VERTEX
  8
0
 10
730.141667
 20
615.395277
 42
0.032956
  0
VERTEX
  8
0
 10
729.255027
 20
614.729200
 42
0.031273
  0
VERTEX
  8
0
 10
728.446940
 20
613.941369
 42
-0.061639
  0
VERTEX
  8
0
 10
725.192904
 20
611.132466
 42
-0.012716
  0
VERTEX
  8
0
 10
718.778528
 20
607.079099
 42
-0.014029
  0
VERTEX
  8
0
 10
711.570148
 20
603.046338
 42
-0.020568
  0
VERTEX
  8
0
 10
705.000000
 20
599.946129
 42
0.004628
  0
VERTEX
  8
0
 10
702.043429
 20
598.664585
 42
0.006042
  0
VERTEX
  8
0
 10
699.364407
 20
597.434791
 42
0.004566
  0
VERTEX
  8
0
 10
697.147061
 20
596.359403
 42
0.054648
  0
VERTEX
  8
0
 10
696.346918
 20
595.846665
 42
-0.087238
  0
VERTEX
  8
0
 10
693.583468
 20
594.318860
 42
-0.077558
  0
VERTEX
  8
0
 10
690.347413
 20
593.742705
 42
-0.059387
  0
VERTEX
  8
0
 10
686.372218
 20
594.130496
 42
-0.027004
  0
VERTEX
  8
0
 10
681.329595
 20
595.525401
 42
-0.021612
  0
VERTEX
  8
0
 10
675.331032
 20
597.831944
 42
-0.032067
  0
VERTEX
  8
0
 10
670.323923
 20
600.403271
 42
-0.031997
  0
VERTEX
  8
0
 10
665.678798
 20
603.598256
 42
-0.021391
  0
VERTEX
  8
0
 10
660.780512
 20
607.802075
 42
0.005034
  0
VERTEX
  8
0
 10
657.722706
 20
610.605110
 42
0.080170
  0
VERTEX
  8
0
 10
656.543365
 20
611.364182
 42
0.337623
  0
VERTEX
  8
0
 10
655.849784
 20
611.194952
 42
0.106522
  0
VERTEX
  8
0
 10
655.336900
 20
610.180307
 42
-0.038520
  0
VERTEX
  8
0
 10
655.048466
 20
609.345796
 42
-0.050117
  0
VERTEX
  8
0
 10
654.653996
 20
608.640465
 42
-0.059509
  0
VERTEX
  8
0
 10
654.219292
 20
608.153701
 42
-0.182733
  0
VERTEX
  8
0
 10
653.812775
 20
608.000000
 42
0.142877
  0
VERTEX
  8
0
 10
653.232892
 20
607.830843
 42
0.009383
  0
VERTEX
  8
0
 10
651.764463
 20
606.855216
 42
0.013000
  0
VERTEX
  8
0
 10
650.041399
 20
605.595746
 42
0.009312
  0
VERTEX
  8
0
 10
648.179406
 20
604.102864
 42
-0.035635
  0
VERTEX
  8
0
 10
643.829513
 20
600.976377
 42
-0.012781
  0
VERTEX
  8
0
 10
637.226389
 20
597.139374
 42
-0.008557
  0
VERTEX
  8
0
 10
630.545612
 20
593.629603
 42
-0.117185
  0
VERTEX
  8
0
 10
627.896133
 20
593.000000
 42
-0.429913
  0
VERTEX
  8
0
 10
627.024731
 20
593.919132
 42
-0.023074
  0
VERTEX
  8
0
 10
627.468010
 20
598.362138
 42
-0.025017
  0
VERTEX
  8
0
 10
628.615217
 20
604.152087
 42
-0.015466
  0
VERTEX
  8
0
 10
630.510034
 20
610.827954
 42
0.005548
  0
VERTEX
  8
0
 10
631.406393
 20
613.763123
 42
0.008818
  0
VERTEX
  8
0
 10
632.101047
 20
616.296153
 42
0.003449
  0
VERTEX
  8
0
 10
632.637050
 20
618.457180
 42
0.261109
  0
VERTEX
  8
0
 10
632.543279
 20
618.790054
 42
0.329711
  0
VERTEX
  8
0
 10
632.237065
 20
618.835840
 42
0.006059
  0
VERTEX
  8
0
 10
630.714983
 20
618.003001
 42
0.012353
  0
VERTEX
  8
0
 10
628.913824
 20
616.929463
 42
0.007620
  0
VERTEX
  8
0
 10
626.847068
 20
615.582947
 42
-0.007221
  0
VERTEX
  8
0
 10
624.743946
 20
614.210348
 42
-0.010172
  0
VERTEX
  8
0
 10
622.827367
 20
613.052491
 42
-0.006736
  0
VERTEX
  8
0
 10
621.201108
 20
612.143613
 42
-0.124680
  0
VERTEX
  8
0
 10
620.634138
 20
612.000000
 42
-0.430525
  0
VERTEX
  8
0
 10
620.013877
 20
612.655590
 42
-0.006053
  0
VERTEX
  8
0
 10
620.420600
 20
618.674416
 42
-0.014590
  0
VERTEX
  8
0
 10
621.070532
 20
624.626885
 42
-0.035356
  0
VERTEX
  8
0
 10
621.985903
 20
628.950845
 42
0.022651
  0
VERTEX
  8
0
 10
622.283627
 20
630.199839
 42
0.051640
  0
VERTEX
  8
0
 10
622.366318
 20
631.164378
 42
0.086916
  0
VERTEX
  8
0
 10
622.246601
 20
631.783324
 42
0.311073
  0
VERTEX
  8
0
 10
621.932031
 20
632.000000
 42
-0.245632
  0
VERTEX
  8
0
 10
620.840189
 20
632.570824
 42
-0.008456
  0
VERTEX
  8
0
 10
618.074271
 20
636.697950
 42
-0.011779
  0
VERTEX
  8
0
 10
615.537927
 20
640.835176
 42
-0.128348
  0
VERTEX
  8
0
 10
615.019000
 20
642.702169
 42
-0.270410
  0
VERTEX
  8
0
 10
615.288283
 20
643.180900
 42
-0.142002
  0
VERTEX
  8
0
 10
615.972524
 20
643.354236
 42
-0.053775
  0
VERTEX
  8
0
 10
617.264083
 20
643.170306
 42
-0.010858
  0
VERTEX
  8
0
 10
619.501238
 20
642.549664
 42
0.021372
  0
VERTEX
  8
0
 10
622.895223
 20
641.684501
 42
0.224574
  0
VERTEX
  8
0
 10
624.252405
 20
642.009388
 42
0.365942
  0
VERTEX
  8
0
 10
624.459629
 20
643.073093
 42
0.039347
  0
VERTEX
  8
0
 10
622.957811
 20
645.326505
 42
0.000000
  0
VERTEX
  8
0
 10
620.942872
 20
647.888084
 42
0.000000
  0
VERTEX
  8
0
 10
625.721436
 20
648.263794
 42
0.006624
  0
VERTEX
  8
0
 10
627.862256
 20
648.460682
 42
0.853042
  0
VERTEX
  8
0
 10
627.869540
 20
648.597169
 42
0.045207
  0
VERTEX
  8
0
 10
626.898338
 20
648.715509
 42
0.001609
  0
VERTEX
  8
0
 10
623.133423
 20
648.819752
 42
-0.004573
  0
VERTEX
  8
0
 10
618.298152
 20
648.982327
 42
-0.082044
  0
VERTEX
  8
0
 10
616.782952
 20
649.299704
 42
-0.271872
  0
VERTEX
  8
0
 10
616.206794
 20
650.027411
 42
-0.082098
  0
VERTEX
  8
0
 10
616.243537
 20
651.493650
 42
0.053014
  0
VERTEX
  8
0
 10
616.331466
 20
652.551194
 42
0.054110
  0
VERTEX
  8
0
 10
616.193704
 20
653.596062
 42
0.058895
  0
VERTEX
  8
0
 10
615.858552
 20
654.495026
 42
0.101234
  0
VERTEX
  8
0
 10
615.360114
 20
655.116095
 42
-0.084509
  0
VERTEX
  8
0
 10
614.089636
 20
656.595837
 42
-0.249981
  0
VERTEX
  8
0
 10
614.023648
 20
657.890766
 42
-0.235692
  0
VERTEX
  8
0
 10
615.076030
 20
658.722560
 42
-0.077764
  0
VERTEX
  8
0
 10
617.101870
 20
658.825366
 42
0.022312
  0
VERTEX
  8
0
 10
618.283993
 20
658.754480
 42
0.038991
  0
VERTEX
  8
0
 10
619.262642
 20
658.815889
 42
0.050085
  0
VERTEX
  8
0
 10
619.938316
 20
658.981737
 42
0.355148
  0
VERTEX
  8
0
 10
620.101870
 20
659.250000
 42
-0.012353
  0
VERTEX
  8
0
 10
620.062757
 20
659.603179
 42
-0.006198
  0
VERTEX
  8
0
 10
620.029924
 20
660.050937
 42
-0.006150
  0
VERTEX
  8
0
 10
620.007390
 20
660.515170
 42
-0.009051
  0
VERTEX
  8
0
 10
620.000000
 20
660.923404
 42
0.133211
  0
VERTEX
  8
0
 10
619.846622
 20
661.488886
 42
0.009073
  0
VERTEX
  8
0
 10
618.971875
 20
662.922474
 42
0.012474
  0
VERTEX
  8
0
 10
617.840704
 20
664.608388
 42
0.009015
  0
VERTEX
  8
0
 10
616.500000
 20
666.432057
 42
-0.016252
  0
VERTEX
  8
0
 10
613.736467
 20
670.307397
 42
-0.127185
  0
VERTEX
  8
0
 10
613.016540
 20
672.382404
 42
-0.433545
  0
VERTEX
  8
0
 10
613.771468
 20
673.213807
 42
-0.087932
  0
VERTEX
  8
0
 10
615.978749
 20
672.857563
 42
0.018849
  0
VERTEX
  8
0
 10
617.192700
 20
672.485055
 42
0.021630
  0
VERTEX
  8
0
 10
618.377089
 20
672.224193
 42
0.021365
  0
VERTEX
  8
0
 10
619.389511
 20
672.090995
 42
0.104205
  0
VERTEX
  8
0
 10
619.960388
 20
672.159583
 42
0.459763
  0
VERTEX
  8
0
 10
620.138608
 20
672.603625
 42
0.010188
  0
VERTEX
  8
0
 10
618.887348
 20
674.890852
 42
0.015832
  0
VERTEX
  8
0
 10
617.153068
 20
677.702956
 42
0.009135
  0
VERTEX
  8
0
 10
614.899173
 20
680.979489
 42
-0.006840
  0
VERTEX
  8
0
 10
612.477381
 20
684.465725
 42
-0.007391
  0
VERTEX
  8
0
 10
610.214987
 20
687.928840
 42
-0.007025
  0
VERTEX
  8
0
 10
608.361925
 20
690.952286
 42
-0.035020
  0
VERTEX
  8
0
 10
607.468560
 20
692.729489
 42
0.012343
  0
VERTEX
  8
0
 10
606.908172
 20
693.982794
 42
0.018765
  0
VERTEX
  8
0
 10
606.354558
 20
695.039287
 42
0.013839
  0
VERTEX
  8
0
 10
605.854228
 20
695.859256
 42
0.254077
  0
VERTEX
  8
0
 10
605.595137
 20
696.000000
 42
0.247560
  0
VERTEX
  8
0
 10
605.298242
 20
695.843405
 42
0.003119
  0
VERTEX
  8
0
 10
604.065315
 20
694.017187
 42
0.008252
  0
VERTEX
  8
0
 10
602.664798
 20
691.837447
 42
0.005207
  0
SEQEND
  0
POLYLINE
  8
0
 66
1
 70
1
  0
VERTEX
  8
0
 10
581.133980
 20
616.841712
 42
-0.017209
  0
VERTEX
  8
0
 10
583.966567
 20
615.885664
 42
-0.210304
  0
VERTEX
  8
0
 10
584.765287
 20
615.104178
 42
-0.282274
  0
VERTEX
  8
0
 10
584.600980
 20
614.138279
 42
-0.029134
  0
VERTEX
  8
0
 10
582.909681
 20
612.418263
 42
-0.014844
  0
VERTEX
  8
0
 10
581.545150
 20
611.255156
 42
-0.177524
  0
VERTEX
  8
0
 10
580.899412
 20
611.037717
 42
-0.207460
  0
VERTEX
  8
0
 10
580.317908
 20
611.308429
 42
-0.021195
  0
VERTEX
  8
0
 10
579.336407
 20
612.513275
 42
-0.014985
  0
VERTEX
  8
0
 10
577.860532
 20
614.619338
 42
-0.029626
  0
VERTEX
  8
0
 10
576.842969
 20
616.388157
 42
-0.040623
  0
VERTEX
  8
0
 10
576.338098
 20
617.646320
 42
-0.505201
  0
VERTEX
  8
0
 10
576.598797
 20
618.000000
 42
-0.058364
  0
VERTEX
  8
0
 10
577.032522
 20
617.949199
 42
-0.004216
  0
VERTEX
  8
0
 10
578.207037
 20
617.659753
 42
-0.005862
  0
VERTEX
  8
0
 10
579.604435
 20
617.285351
 42
-0.004398
  0
SEQEND
  0
POLYLINE
  8
0
 66
1
 70
1
  0
VERTEX
  8
0
 10
834.219761
 20
614.632178
 42
-0.201381
  0
VERTEX
  8
0
 10
834.386454
 20
614.027553
 42
-0.019966
  0
VERTEX
  8
0
 10
834.128808
 20
612.511701
 42
-0.022675
  0
VERTEX
  8
0
 10
833.649169
 20
610.661310
 42
-0.016064
  0
VERTEX
  8
0
 10
832.951660
 20
608.632178
 42
0.020245
  0
VERTEX
  8
0
 10
832.204700
 20
606.398627
 42
0.016009
  0
VERTEX
  8
0
 10
831.573864
 20
603.930494
 42
0.016293
  0
VERTEX
  8
0
 10
831.136015
 20
601.599028
 42
0.038248
  0
VERTEX
  8
0
 10
831.000504
 20
599.833333
 42
-0.025262
  0
VERTEX
  8
0
 10
830.928083
 20
598.404728
 42
-0.035361
  0
VERTEX
  8
0
 10
830.709580
 20
597.145833
 42
-0.038248
  0
VERTEX
  8
0
 10
830.394031
 20
596.190450
 42
-0.215836
  0
VERTEX
  8
0
 10
830.010833
 20
595.833333
 42
0.568475
  0
VERTEX
  8
0
 10
829.868740
 20
595.172931
 42
0.007718
  0
VERTEX
  8
0
 10
833.619300
 20
591.793068
 42
0.009087
  0
VERTEX
  8
0
 10
837.502577
 20
588.523249
 42
0.172087
  0
VERTEX
  8
0
 10
838.977855
 20
588.000000
 42
0.262998
  0
VERTEX
  8
0
 10
839.317165
 20
588.191738
 42
0.018635
  0
VERTEX
  8
0
 10
839.862833
 20
589.179205
 42
0.022438
  0
VERTEX
  8
0
 10
840.446162
 20
590.476026
 42
0.014765
  0
VERTEX
  8
0
 10
841.004724
 20
592.014313
 42
-0.028254
  0
VERTEX
  8
0
 10
842.507697
 20
595.829588
 42
-0.175210
  0
VERTEX
  8
0
 10
843.962399
 20
597.304030
 42
-0.249619
  0
VERTEX
  8
0
 10
845.695637
 20
597.227715
 42
-0.057625
  0
VERTEX
  8
0
 10
848.104814
 20
595.402452
 42
0.000000
  0
VERTEX
  8
0
 10
851.137316
 20
592.500000
 42
0.000000
  0
VERTEX
  8
0
 10
850.064643
 20
595.325661
 42
0.045966
  0
VERTEX
  8
0
 10
848.335530
 20
598.862831
 42
0.023737
  0
VERTEX
  8
0
 10
845.577051
 20
602.947162
 42
0.022362
  0
VERTEX
  8
0
 10
842.150789
 20
607.130859
 42
0.022237
  0
VERTEX
  8
0
 10
838.358424
 20
611.000000
 42
0.002394
  0
VERTEX
  8
0
 10
836.553264
 20
612.668793
 42
0.005266
  0
VERTEX
  8
0
 10
835.153941
 20
613.923202
 42
0.007841
  0
VERTEX
  8
0
 10
834.266422
 20
614.677802
 42
0.897715
  0
SEQEND
  0
POLYLINE
  8
0
 66
1
 70
1
  0
VERTEX
  8
0
 10
173.186835
 20
608.604034
 42
0.039005
  0
VERTEX
  8
0
 10
168.784758
 20
603.155452
 42
0.032859
  0
VERTEX
  8
0
 10
164.996581
 20
596.776546
 42
0.035233
  0
VERTEX
  8
0
 10
162.724876
 20
591.399876
 42
0.529327
  0
VERTEX
  8
0
 10
163.750000
 20
590.035435
 42
0.082449
  0
VERTEX
  8
0
 10
164.180304
 20
590.127934
 42
0.011780
  0
VERTEX
  8
0
 10
165.014062
 20
590.480268
 42
0.013124
  0
VERTEX
  8
0
 10
165.987845
 20
590.950213
 42
0.010860
  0
VERTEX
  8
0
 10
167.000000
 20
591.500000
 42
-0.043946
  0
VERTEX
  8
0
 10
169.558262
 20
592.677858
 42
-0.139581
  0
VERTEX
  8
0
 10
171.419375
 20
592.801386
 42
-0.170035
  0
VERTEX
  8
0
 10
172.843398
 20
591.932338
 42
-0.073459
  0
VERTEX
  8
0
 10
174.000000
 20
590.000000
 42
0.015296
  0
VERTEX
  8
0
 10
174.517859
 20
588.850541
 42
0.022713
  0
VERTEX
  8
0
 10
175.046500
 20
587.881250
 42
0.019282
  0
VERTEX
  8
0
 10
175.530816
 20
587.147281
 42
0.241794
  0
VERTEX
  8
0
 10
175.817570
 20
587.000000
 42
0.129577
  0
VERTEX
  8
0
 10
176.186000
 20
587.097111
 42
0.006115
  0
VERTEX
  8
0
 10
177.303597
 20
587.748429
 42
0.009722
  0
VERTEX
  8
0
 10
178.618708
 20
588.571724
 42
0.006808
  0
VERTEX
  8
0
 10
180.069040
 20
589.547845
 42
0.000000
  0
VERTEX
  8
0
 10
183.745581
 20
592.095689
 42
0.000000
  0
VERTEX
  8
0
 10
181.353161
 20
602.297845
 42
0.000542
  0
VERTEX
  8
0
 10
180.417729
 20
606.267512
 42
0.000801
  0
VERTEX
  8
0
 10
179.587810
 20
609.747530
 42
0.000355
  0
VERTEX
  8
0
 10
178.872184
 20
612.717835
 42
0.015811
  0
VERTEX
  8
0
 10
178.703022
 20
613.332045
 42
0.523211
  0
VERTEX
  8
0
 10
178.384704
 20
613.432728
 42
0.012717
  0
VERTEX
  8
0
 10
176.976333
 20
612.286410
 42
0.016843
  0
VERTEX
  8
0
 10
175.222598
 20
610.677702
 42
0.009323
  0
SEQEND
  0
POLYLINE
  8
0
 66
1
 70
1
  0
VERTEX
  8
0
 10
232.911895
 20
606.957350
 42
0.068676
  0
VERTEX
  8
0
 10
230.804016
 20
604.225168
 42
0.027593
  0
VERTEX
  8
0
 10
228.684732
 20
599.998895
 42
0.020187
  0
VERTEX
  8
0
 10
227.050287
 20
595.775788
 42
0.286012
  0
VERTEX
  8
0
 10
227.401106
 20
594.265561
 42
0.190547
  0
VERTEX
  8
0
 10
227.808004
 20
594.089281
 42
0.060002
  0
VERTEX
  8
0
 10
228.480827
 20
594.148385
 42
0.050096
  0
VERTEX
  8
0
 10
229.285215
 20
594.403914
 42
0.037656
  0
VERTEX
  8
0
 10
230.108026
 20
594.835391
 42
-0.058341
  0
VERTEX
  8
0
 10
231.028179
 20
595.270490
 42
-0.043076
  0
VERTEX
  8
0
 10
232.123613
 20
595.537454
 42
-0.043839
  0
VERTEX
  8
0
 10
233.219315
 20
595.609133
 42
-0.071379
  0
VERTEX
  8
0
 10
234.137116
 20
595.456481
 42
-0.165276
  0
VERTEX
  8
0
 10
235.820746
 20
594.216183
 42
-0.037203
  0
VERTEX
  8
0
 10
237.657519
 20
591.109235
 42
-0.035863
  0
VERTEX
  8
0
 10
239.283986
 20
587.128033
 42
-0.033167
  0
VERTEX
  8
0
 10
240.375498
 20
582.850483
 42
0.040610
  0
VERTEX
  8
0
 10
241.173972
 20
579.904835
 42
0.122357
  0
VERTEX
  8
0
 10
242.322523
 20
578.187164
 42
0.205478
  0
VERTEX
  8
0
 10
243.752408
 20
577.693249
 42
0.140577
  0
VERTEX
  8
0
 10
245.387011
 20
578.293722
 42
0.130623
  0
VERTEX
  8
0
 10
246.724938
 20
579.949405
 42
0.034873
  0
VERTEX
  8
0
 10
247.897628
 20
583.160433
 42
0.034010
  0
VERTEX
  8
0
 10
248.559945
 20
586.230971
 42
0.457184
  0
VERTEX
  8
0
 10
247.894689
 20
587.000000
 42
0.181949
  0
VERTEX
  8
0
 10
247.545316
 20
586.868511
 42
0.083735
  0
VERTEX
  8
0
 10
247.233534
 20
586.485937
 42
0.066312
  0
VERTEX
  8
0
 10
247.004526
 20
585.919637
 42
0.048778
  0
VERTEX
  8
0
 10
246.900320
 20
585.250000
 42
-0.008561
  0
VERTEX
  8
0
 10
246.828887
 20
584.286722
 42
-0.483488
  0
VERTEX
  8
0
 10
246.697710
 20
584.200977
 42
-0.232907
  0
VERTEX
  8
0
 10
246.531490
 20
584.365217
 42
-0.004840
  0
VERTEX
  8
0
 10
246.150320
 20
585.500000
 42
0.031614
  0
VERTEX
  8
0
 10
245.767259
 20
586.465832
 42
0.012165
  0
VERTEX
  8
0
 10
245.119800
 20
587.756002
 42
0.011988
  0
VERTEX
  8
0
 10
244.347587
 20
589.125515
 42
0.014469
  0
VERTEX
  8
0
 10
243.555383
 20
590.371496
 42
-0.057821
  0
VERTEX
  8
0
 10
242.678541
 20
592.056759
 42
-0.029824
  0
VERTEX
  8
0
 10
241.964658
 20
594.327421
 42
-0.025399
  0
VERTEX
  8
0
 10
241.417642
 20
597.108820
 42
-0.016414
  0
VERTEX
  8
0
 10
241.055383
 20
600.371496
 42
0.010516
  0
VERTEX
  8
0
 10
240.779121
 20
603.158998
 42
0.027068
  0
VERTEX
  8
0
 10
240.428921
 20
605.151997
 42
0.054088
  0
VERTEX
  8
0
 10
240.053547
 20
606.226362
 42
0.586916
  0
VERTEX
  8
0
 10
239.690983
 20
606.250000
 42
-0.120899
  0
VERTEX
  8
0
 10
238.621617
 20
605.242232
 42
-0.194368
  0
VERTEX
  8
0
 10
237.396625
 20
605.080620
 42
-0.185657
  0
VERTEX
  8
0
 10
236.362123
 20
605.819022
 42
-0.111122
  0
VERTEX
  8
0
 10
235.819551
 20
607.250000
 42
0.000000
  0
VERTEX
  8
0
 10
235.500000
 20
609.500000
 42
0.000000
  0
SEQEND
  0
POLYLINE
  8
0
 66
1
 70
1
  0
VERTEX
  8
0
 10
784.564024
 20
606.793124
 42
0.040582
  0
VERTEX
  8
0
 10
784.185331
 20
605.125624
 42
0.004058
  0
VERTEX
  8
0
 10
783.638406
 20
601.070989
 42
0.004546
  0
VERTEX
  8
0
 10
783.020971
 20
595.812093
 42
0.002374
  0
VERTEX
  8
0
 10
782.342452
 20
589.250000
 42
0.011009
  0
VERTEX
  8
0
 10
782.131382
 20
586.487885
 42
0.031671
  0
VERTEX
  8
0
 10
782.148809
 20
584.566879
 42
0.046561
  0
VERTEX
  8
0
 10
782.353602
 20
583.340394
 42
0.340373
  0
VERTEX
  8
0
 10
782.795702
 20
583.000000
 42
0.223783
  0
VERTEX
  8
0
 10
783.575370
 20
583.367349
 42
0.084548
  0
VERTEX
  8
0
 10
784.190748
 20
584.438449
 42
0.039001
  0
VERTEX
  8
0
 10
784.760789
 20
586.460180
 42
0.007481
  0
VERTEX
  8
0
 10
785.450643
 20
590.210816
 42
-0.015576
  0
VERTEX
  8
0
 10
785.878633
 20
592.343125
 42
-0.137317
  0
VERTEX
  8
0
 10
786.336832
 20
593.177559
 42
-0.236898
  0
VERTEX
  8
0
 10
787.037981
 20
593.418102
 42
-0.054562
  0
VERTEX
  8
0
 10
788.287962
 20
593.107242
 42
0.010431
  0
VERTEX
  8
0
 10
789.331671
 20
592.747525
 42
0.005301
  0
VERTEX
  8
0
 10
790.658026
 20
592.336595
 42
0.005263
  0
VERTEX
  8
0
 10
792.035865
 20
591.941415
 42
0.007840
  0
VERTEX
  8
0
 10
793.250000
 20
591.627374
 42
0.030732
  0
VERTEX
  8
0
 10
794.928927
 20
591.328822
 42
0.255367
  0
VERTEX
  8
0
 10
795.620686
 20
591.609548
 42
0.161274
  0
VERTEX
  8
0
 10
795.941954
 20
592.449176
 42
0.011413
  0
VERTEX
  8
0
 10
796.000000
 20
594.991846
 42
0.040120
  0
VERTEX
  8
0
 10
795.850066
 20
596.857415
 42
0.020607
  0
VERTEX
  8
0
 10
795.380150
 20
599.156672
 42
0.020341
  0
VERTEX
  8
0
 10
794.698134
 20
601.497707
 42
0.028819
  0
VERTEX
  8
0
 10
793.889873
 20
603.510898
 42
0.017518
  0
VERTEX
  8
0
 10
792.430703
 20
606.352173
 42
0.094633
  0
VERTEX
  8
0
 10
791.320298
 20
607.675388
 42
0.322210
  0
VERTEX
  8
0
 10
790.467824
 20
607.727030
 42
0.173237
  0
VERTEX
  8
0
 10
789.785534
 20
606.856602
 42
-0.138295
  0
VERTEX
  8
0
 10
789.473339
 20
606.396919
 42
-0.180924
  0
VERTEX
  8
0
 10
788.998570
 20
606.228238
 42
-0.095512
  0
VERTEX
  8
0
 10
788.280814
 20
606.379005
 42
-0.023482
  0
VERTEX
  8
0
 10
787.187364
 20
606.899726
 42
0.021887
  0
VERTEX
  8
0
 10
786.034498
 20
607.453259
 42
0.111579
  0
VERTEX
  8
0
 10
785.339333
 20
607.580925
 42
0.206173
  0
VERTEX
  8
0
 10
784.882646
 20
607.361861
 42
0.103480
  0
SEQEND
  0
POLYLINE
  8
0
 66
1
 70
1
  0
VERTEX
  8
0
 10
194.157895
 20
601.000000
 42
0.017491
  0
VERTEX
  8
0
 10
194.189089
 20
600.108560
 42
0.078554
  0
VERTEX
  8
0
 10
194.306058
 20
599.601562
 42
0.447206
  0
VERTEX
  8
0
 10
194.474999
 20
599.540618
 42
0.174857
  0
VERTEX
  8
0
 10
194.662281
 20
599.750000
 42
0.057986
  0
VERTEX
  8
0
 10
194.818615
 20
600.320008
 42
0.037979
  0
VERTEX
  8
0
 10
194.870340
 20
601.000000
 42
0.037979
  0
VERTEX
  8
0
 10
194.818615
 20
601.679992
 42
0.057986
  0
VERTEX
  8
0
 10
194.662281
 20
602.250000
 42
0.174857
  0
VERTEX
  8
0
 10
194.474999
 20
602.459382
 42
0.447206
  0
VERTEX
  8
0
 10
194.306058
 20
602.398438
 42
0.078554
  0
VERTEX
  8
0
 10
194.189089
 20
601.891440
 42
0.017491
  0
SEQEND
  0
POLYLINE
  8
0
 66
1
 70
1
  0
VERTEX
  8
0
 10
818.013133
 20
593.691746
 42
0.021729
  0
VERTEX
  8
0
 10
817.470708
 20
590.750065
 42
0.010678
  0
VERTEX
  8
0
 10
817.024207
 20
586.968825
 42
0.010573
  0
VERTEX
  8
0
 10
816.726959
 20
583.015038
 42
0.015133
  0
VERTEX
  8
0
 10
816.643882
 20
579.500000
 42
-0.010474
  0
VERTEX
  8
0
 10
816.599392
 20
576.391986
 42
-0.015585
  0
VERTEX
  8
0
 10
816.418811
 20
573.677560
 42
-0.010602
  0
VERTEX
  8
0
 10
816.155123
 20
571.468386
 42
-0.215671
  0
VERTEX
  8
0
 10
815.803153
 20
570.912971
 42
0.505702
  0
VERTEX
  8
0
 10
815.706049
 20
569.091992
 42
0.020039
  0
VERTEX
  8
0
 10
821.901316
 20
564.405735
 42
0.023367
  0
VERTEX
  8
0
 10
828.759476
 20
560.098353
 42
0.129231
  0
VERTEX
  8
0
 10
832.938075
 20
559.000000
 42
0.271074
  0
VERTEX
  8
0
 10
833.347169
 20
559.239380
 42
0.055370
  0
VERTEX
  8
0
 10
833.688059
 20
560.042713
 42
0.044388
  0
VERTEX
  8
0
 10
833.922901
 20
561.189608
 42
0.028321
  0
VERTEX
  8
0
 10
834.000000
 20
562.549660
 42
-0.057404
  0
VERTEX
  8
0
 10
834.410528
 20
566.113682
 42
-0.069494
  0
VERTEX
  8
0
 10
835.620754
 20
569.251334
 42
-0.091084
  0
VERTEX
  8
0
 10
837.296910
 20
571.288181
 42
-0.243749
  0
VERTEX
  8
0
 10
839.075749
 20
571.690442
 42
0.023082
  0
VERTEX
  8
0
 10
839.813638
 20
571.533459
 42
0.040601
  0
VERTEX
  8
0
 10
840.434751
 20
571.482220
 42
0.053701
  0
VERTEX
  8
0
 10
840.871379
 20
571.528742
 42
0.352992
  0
VERTEX
  8
0
 10
841.000000
 20
571.688228
 42
0.196191
  0
VERTEX
  8
0
 10
840.865755
 20
572.017189
 42
0.001614
  0
VERTEX
  8
0
 10
838.870312
 20
574.041780
 42
0.005437
  0
VERTEX
  8
0
 10
836.529113
 20
576.351124
 42
0.003435
  0
VERTEX
  8
0
 10
833.750000
 20
578.996804
 42
-0.012816
  0
VERTEX
  8
0
 10
830.014222
 20
582.689268
 42
-0.030224
  0
VERTEX
  8
0
 10
827.476214
 20
585.671076
 42
-0.036311
  0
VERTEX
  8
0
 10
825.605167
 20
588.576399
 42
-0.028499
  0
VERTEX
  8
0
 10
824.000000
 20
591.963300
 42
0.008369
  0
VERTEX
  8
0
 10
821.536445
 20
597.752437
 42
0.221169
  0
VERTEX
  8
0
 10
820.298047
 20
598.830719
 42
0.409940
  0
VERTEX
  8
0
 10
819.229624
 20
598.251152
 42
0.017472
  0
SEQEND
  0
POLYLINE
  8
0
 66
1
 70
1
  0
VERTEX
  8
0
 10
194.035394
 20
594.979561
 42
-0.072116
  0
VERTEX
  8
0
 10
192.911641
 20
593.043359
 42
-0.010164
  0
VERTEX
  8
0
 10
189.966000
 20
589.475700
 42
-0.011328
  0
VERTEX
  8
0
 10
186.249497
 20
585.349196
 42
-0.009073
  0
VERTEX
  8
0
 10
182.068986
 20
581.072013
 42
0.004145
  0
VERTEX
  8
0
 10
178.194319
 20
577.185119
 42
0.010088
  0
VERTEX
  8
0
 10
175.419979
 20
574.238871
 42
0.023831
  0
VERTEX
  8
0
 10
174.104040
 20
572.636390
 42
0.837373
  0
VERTEX
  8
0
 10
174.275623
 20
572.453812
 42
-0.016091
  0
VERTEX
  8
0
 10
176.027940
 20
573.517638
 42
-0.127409
  0
VERTEX
  8
0
 10
176.937469
 20
573.759584
 42
-0.158145
  0
VERTEX
  8
0
 10
177.757366
 20
573.499520
 42
-0.028687
  0
VERTEX
  8
0
 10
179.016779
 20
572.484816
 42
-0.084457
  0
VERTEX
  8
0
 10
179.866550
 20
571.404952
 42
-0.026011
  0
VERTEX
  8
0
 10
180.763788
 20
569.529324
 42
-0.024816
  0
VERTEX
  8
0
 10
181.578897
 20
567.258037
 42
-0.022818
  0
VERTEX
  8
0
 10
182.191232
 20
564.853017
 42
0.018466
  0
VERTEX
  8
0
 10
182.741541
 20
562.610190
 42
0.028263
  0
VERTEX
  8
0
 10
183.397779
 20
560.719324
 42
0.027230
  0
VERTEX
  8
0
 10
184.066426
 20
559.317297
 42
0.274429
  0
VERTEX
  8
0
 10
184.600992
 20
559.000000
 42
0.157003
  0
VERTEX
  8
0
 10
186.523724
 20
559.619008
 42
0.007720
  0
VERTEX
  8
0
 10
191.948174
 20
563.643992
 42
0.006564
  0
VERTEX
  8
0
 10
197.322599
 20
567.875137
 42
0.206519
  0
VERTEX
  8
0
 10
198.088861
 20
569.334764
 42
0.030006
  0
VERTEX
  8
0
 10
198.136143
 20
572.267831
 42
0.007560
  0
VERTEX
  8
0
 10
197.854432
 20
577.037587
 42
0.007292
  0
VERTEX
  8
0
 10
197.346261
 20
582.751859
 42
0.005593
  0
VERTEX
  8
0
 10
196.630263
 20
588.979561
 42
0.000000
  0
VERTEX
  8
0
 10
195.432815
 20
598.459122
 42
0.000000
  0
SEQEND
  0
POLYLINE
  8
0
 66
1
 70
1
  0
VERTEX
  8
0
 10
192.563828
 20
582.398287
 42
-0.036201
  0
VERTEX
  8
0
 10
192.261345
 20
581.480216
 42
-0.048220
  0
VERTEX
  8
0
 10
191.850560
 20
580.704497
 42
-0.057254
  0
VERTEX
  8
0
 10
191.399890
 20
580.167004
 42
-0.191971
  0
VERTEX
  8
0
 10
190.980948
 20
580.000000
 42
-0.327049
  0
VERTEX
  8
0
 10
190.255433
 20
580.531397
 42
-0.084200
  0
VERTEX
  8
0
 10
190.042636
 20
582.058485
 42
-0.056242
  0
VERTEX
  8
0
 10
190.354773
 20
584.243199
 42
-0.035564
  0
VERTEX
  8
0
 10
191.178523
 20
586.684900
 42
-0.003442
  0
VERTEX
  8
0
 10
191.992210
 20
588.591576
 42
-0.222508
  0
VERTEX
  8
0
 10
192.255754
 20
588.823972
 42
-0.439460
  0
VERTEX
  8
0
 10
192.472608
 20
588.693003
 42
-0.007273
  0
VERTEX
  8
0
 10
192.761403
 20
587.148287
 42
-0.033336
  0
VERTEX
  8
0
 10
192.873125
 20
586.074043
 42
-0.019640
  0
VERTEX
  8
0
 10
192.870162
 20
584.782893
 42
-0.019596
  0
VERTEX
  8
0
 10
192.765318
 20
583.487467
 42
-0.031500
  0
SEQEND
  0
POLYLINE
  8
0
 66
1
 70
1
  0
VERTEX
  8
0
 10
259.998316
 20
471.920274
 42
0.200202
  0
VERTEX
  8
0
 10
260.393948
 20
470.979498
 42
0.000353
  0
VERTEX
  8
0
 10
272.911853
 20
458.674418
 42
0.000359
  0
VERTEX
  8
0
 10
285.441699
 20
446.392658
 42
0.196129
  0
VERTEX
  8
0
 10
286.404215
 20
446.000000
 42
0.398414
  0
VERTEX
  8
0
 10
286.645721
 20
446.228749
 42
0.002063
  0
VERTEX
  8
0
 10
286.824988
 20
449.802854
 42
0.007184
  0
VERTEX
  8
0
 10
286.957177
 20
453.981872
 42
0.004313
  0
VERTEX
  8
0
 10
287.000000
 20
458.945884
 42
0.000000
  0
VERTEX
  8
0
 10
287.000000
 20
471.891769
 42
0.000000
  0
VERTEX
  8
0
 10
273.498316
 20
472.195884
 42
0.004022
  0
VERTEX
  8
0
 10
268.321240
 20
472.270835
 42
0.006711
  0
VERTEX
  8
0
 10
263.963247
 20
472.240372
 42
0.001804
  0
VERTEX
  8
0
 10
260.221598
 20
472.150479
 42
0.406991
  0
SEQEND
  0
POLYLINE
  8
0
 66
1
 70
1
  0
VERTEX
  8
0
 10
655.445149
 20
471.911249
 42
0.304623
  0
VERTEX
  8
0
 10
655.469388
 20
471.270514
 42
0.005571
  0
VERTEX
  8
0
 10
657.602072
 20
468.408119
 42
0.011704
  0
VERTEX
  8
0
 10
660.282694
 20
465.058339
 42
0.007296
  0
VERTEX
  8
0
 10
663.571734
 20
461.254024
 42
-0.000169
  0
VERTEX
  8
0
 10
667.444969
 20
456.900965
 42
-0.000110
  0
VERTEX
  8
0
 10
671.917797
 20
451.868370
 42
-0.000111
  0
VERTEX
  8
0
 10
676.281166
 20
446.954560
 42
-0.000211
  0
VERTEX
  8
0
 10
679.788194
 20
443.000000
 42
0.003348
  0
VERTEX
  8
0
 10
682.735302
 20
439.718517
 42
0.005028
  0
VERTEX
  8
0
 10
685.354203
 20
436.898958
 42
0.002180
  0
VERTEX
  8
0
 10
687.620914
 20
434.528052
 42
0.106845
  0
VERTEX
  8
0
 10
688.159929
 20
434.166667
 42
0.513232
  0
VERTEX
  8
0
 10
688.500322
 20
434.385143
 42
0.002044
  0
VERTEX
  8
0
 10
688.753229
 20
439.678769
 42
0.006886
  0
VERTEX
  8
0
 10
688.939756
 20
445.919499
 42
0.004027
  0
VERTEX
  8
0
 10
689.000000
 20
453.399354
 42
0.000000
  0
VERTEX
  8
0
 10
689.000000
 20
472.965375
 42
0.000000
  0
VERTEX
  8
0
 10
672.501679
 20
472.889913
 42
0.005106
  0
VERTEX
  8
0
 10
666.137220
 20
472.795796
 42
0.008079
  0
VERTEX
  8
0
 10
660.685766
 20
472.571302
 42
0.003035
  0
VERTEX
  8
0
 10
656.050945
 20
472.277135
 42
0.241478
  0
SEQEND
  0
POLYLINE
  8
0
 66
1
 70
1
  0
VERTEX
  8
0
 10
725.250000
 20
472.283165
 42
0.310994
  0
VERTEX
  8
0
 10
723.944520
 20
470.463531
 42
0.006644
  0
VERTEX
  8
0
 10
723.874743
 20
458.877292
 42
0.006372
  0
VERTEX
  8
0
 10
724.106613
 20
447.291364
 42
0.404652
  0
VERTEX
  8
0
 10
725.440983
 20
446.000000
 42
0.058591
  0
VERTEX
  8
0
 10
726.035372
 20
446.069891
 42
0.050472
  0
VERTEX
  8
0
 10
726.629729
 20
446.276768
 42
0.053013
  0
VERTEX
  8
0
 10
727.135915
 20
446.581387
 42
0.092653
  0
VERTEX
  8
0
 10
727.464271
 20
446.942189
 42
-0.062030
  0
VERTEX
  8
0
 10
727.983008
 20
447.586989
 42
-0.000835
  0
VERTEX
  8
0
 10
731.654261
 20
451.130893
 42
-0.002363
  0
VERTEX
  8
0
 10
735.938204
 20
455.213618
 42
-0.001550
  0
VERTEX
  8
0
 10
740.910364
 20
459.878533
 42
0.004205
  0
VERTEX
  8
0
 10
747.063202
 20
465.712924
 42
0.018299
  0
VERTEX
  8
0
 10
750.549030
 20
469.329778
 42
0.027167
  0
VERTEX
  8
0
 10
752.434221
 20
471.680013
 42
0.491130
  0
VERTEX
  8
0
 10
752.194695
 20
472.478783
 42
0.091306
  0
VERTEX
  8
0
 10
749.791197
 20
472.926832
 42
0.002363
  0
VERTEX
  8
0
 10
738.794396
 20
472.898968
 42
0.002567
  0
VERTEX
  8
0
 10
727.867818
 20
472.763537
 42
0.082161
  0
SEQEND
  0
POLYLINE
  8
0
 66
1
 70
1
  0
VERTEX
  8
0
 10
322.000000
 20
454.666667
 42
0.003316
  0
VERTEX
  8
0
 10
322.044360
 20
447.978040
 42
0.005242
  0
VERTEX
  8
0
 10
322.180544
 20
442.244456
 42
0.001547
  0
VERTEX
  8
0
 10
322.365666
 20
437.286980
 42
0.188429
  0
VERTEX
  8
0
 10
322.614619
 20
436.718715
 42
0.351455
  0
VERTEX
  8
0
 10
323.946729
 20
436.572320
 42
0.038159
  0
VERTEX
  8
0
 10
326.598666
 20
438.558220
 42
0.029062
  0
VERTEX
  8
0
 10
330.130560
 20
442.032350
 42
0.011089
  0
VERTEX
  8
0
 10
334.647979
 20
447.252489
 42
-0.003722
  0
VERTEX
  8
0
 10
337.681163
 20
450.863692
 42
-0.002218
  0
VERTEX
  8
0
 10
341.342667
 20
455.119265
 42
-0.002219
  0
VERTEX
  8
0
 10
345.029061
 20
459.327643
 42
-0.003839
  0
VERTEX
  8
0
 10
348.136155
 20
462.789164
 42
0.005189
  0
VERTEX
  8
0
 10
350.766650
 20
465.735683
 42
0.007896
  0
VERTEX
  8
0
 10
352.983746
 20
468.353932
 42
0.003590
  0
VERTEX
  8
0
 10
354.808820
 20
470.612436
 42
0.169721
  0
VERTEX
  8
0
 10
355.000000
 20
471.159432
 42
0.396462
  0
VERTEX
  8
0
 10
354.679992
 20
471.499576
 42
0.002521
  0
VERTEX
  8
0
 10
350.153125
 20
471.753083
 42
0.007950
  0
VERTEX
  8
0
 10
344.826785
 20
471.939579
 42
0.004775
  0
VERTEX
  8
0
 10
338.500000
 20
472.000000
 42
0.000000
  0
VERTEX
  8
0
 10
322.000000
 20
472.000000
 42
0.000000
  0
SEQEND
  0
POLYLINE
  8
0
 66
1
 70
1
  0
VERTEX
  8
0
 10
426.083826
 20
467.711249
 42
0.000000
  0
VERTEX
  8
0
 10
417.667652
 20
464.500000
 42
0.000000
  0
VERTEX
  8
0
 10
417.900872
 20
456.117283
 42
-0.005068
  0
VERTEX
  8
0
 10
417.983732
 20
451.430716
 42
-0.043255
  0
VERTEX
  8
0
 10
417.818245
 20
449.337986
 42
-0.162630
  0
VERTEX
  8
0
 10
417.360377
 20
448.475015
 42
-0.289440
  0
VERTEX
  8
0
 10
416.600100
 20
448.323214
 42
-0.062763
  0
VERTEX
  8
0
 10
414.180951
 20
449.619060
 42
-0.010178
  0
VERTEX
  8
0
 10
409.886254
 20
452.799893
 42
-0.004994
  0
VERTEX
  8
0
 10
405.486279
 20
456.270271
 42
-0.227029
  0
VERTEX
  8
0
 10
405.000000
 20
457.286035
 42
0.461251
  0
VERTEX
  8
0
 10
404.799911
 20
457.456788
 42
0.068858
  0
VERTEX
  8
0
 10
404.222248
 20
457.281013
 42
0.039496
  0
VERTEX
  8
0
 10
403.369065
 20
456.801720
 42
0.018935
  0
VERTEX
  8
0
 10
402.352334
 20
456.062506
 42
0.054413
  0
VERTEX
  8
0
 10
400.847726
 20
454.588172
 42
0.112853
  0
VERTEX
  8
0
 10
400.118682
 20
453.124376
 42
0.059019
  0
VERTEX
  8
0
 10
399.854459
 20
450.922537
 42
0.006989
  0
VERTEX
  8
0
 10
399.915872
 20
445.989926
 42
-0.006559
  0
VERTEX
  8
0
 10
399.972694
 20
441.721008
 42
-0.040488
  0
VERTEX
  8
0
 10
399.795748
 20
439.534196
 42
-0.103005
  0
VERTEX
  8
0
 10
399.363402
 20
438.409373
 42
-0.254956
  0
VERTEX
  8
0
 10
398.612759
 20
438.000000
 42
-0.047395
  0
VERTEX
  8
0
 10
395.897590
 20
438.257948
 42
-0.010888
  0
VERTEX
  8
0
 10
391.391074
 20
439.224190
 42
-0.007905
  0
VERTEX
  8
0
 10
386.893295
 20
440.366899
 42
-0.103192
  0
VERTEX
  8
0
 10
385.365258
 20
441.143593
 42
0.329552
  0
VERTEX
  8
0
 10
384.483431
 20
441.178205
 42
0.025537
  0
VERTEX
  8
0
 10
382.483146
 20
439.662245
 42
0.022180
  0
VERTEX
  8
0
 10
379.754340
 20
437.150833
 42
0.007571
  0
VERTEX
  8
0
 10
376.017555
 20
433.276789
 42
0.003710
  0
VERTEX
  8
0
 10
372.807287
 20
429.794697
 42
0.005001
  0
VERTEX
  8
0
 10
369.957410
 20
426.593350
 42
0.003464
  0
VERTEX
  8
0
 10
367.617199
 20
423.873164
 42
0.052974
  0
VERTEX
  8
0
 10
366.920368
 20
422.849508
 42
0.419554
  0
VERTEX
  8
0
 10
367.317748
 20
421.576942
 42
0.066140
  0
VERTEX
  8
0
 10
370.063075
 20
420.601060
 42
0.015762
  0
VERTEX
  8
0
 10
376.527973
 20
419.438465
 42
0.000858
  0
VERTEX
  8
0
 10
397.000000
 20
416.455477
 42
-0.003488
  0
VERTEX
  8
0
 10
404.154567
 20
415.374515
 42
-0.005373
  0
VERTEX
  8
0
 10
410.326125
 20
414.329894
 42
-0.001981
  0
VERTEX
  8
0
 10
415.606072
 20
413.356107
 42
-0.142894
  0
VERTEX
  8
0
 10
416.386808
 20
412.959312
 42
0.468730
  0
VERTEX
  8
0
 10
416.878170
 20
413.019838
 42
0.023894
  0
VERTEX
  8
0
 10
417.793227
 20
414.603971
 42
0.023571
  0
VERTEX
  8
0
 10
418.850404
 20
416.915779
 42
0.012107
  0
VERTEX
  8
0
 10
419.965508
 20
419.900391
 42
-0.023906
  0
VERTEX
  8
0
 10
422.403793
 20
425.984740
 42
-0.019076
  0
VERTEX
  8
0
 10
425.586847
 20
432.296258
 42
-0.018439
  0
VERTEX
  8
0
 10
429.373961
 20
438.583809
 42
-0.018245
  0
VERTEX
  8
0
 10
433.626725
 20
444.598075
 42
0.026578
  0
VERTEX
  8
0
 10
435.668961
 20
447.590739
 42
0.082735
  0
VERTEX
  8
0
 10
436.572758
 20
449.849697
 42
0.048894
  0
VERTEX
  8
0
 10
436.928171
 20
452.853187
 42
0.005019
  0
VERTEX
  8
0
 10
437.000000
 20
460.008653
 42
0.005537
  0
VERTEX
  8
0
 10
436.940991
 20
465.336906
 42
0.022876
  0
VERTEX
  8
0
 10
436.722450
 20
468.550877
 42
0.034370
  0
VERTEX
  8
0
 10
436.362900
 20
470.500740
 42
0.351130
  0
VERTEX
  8
0
 10
435.750000
 20
470.961249
 42
0.069678
  0
VERTEX
  8
0
 10
434.921709
 20
470.818964
 42
0.003774
  0
VERTEX
  8
0
 10
432.394936
 20
469.990577
 42
0.005825
  0
VERTEX
  8
0
 10
429.398797
 20
468.944196
 42
0.004214
  0
SEQEND
  0
POLYLINE
  8
0
 66
1
 70
1
  0
VERTEX
  8
0
 10
573.782852
 20
459.859904
 42
0.000000
  0
VERTEX
  8
0
 10
573.500000
 20
448.698195
 42
0.000000
  0
VERTEX
  8
0
 10
576.831032
 20
445.099098
 42
-0.037498
  0
VERTEX
  8
0
 10
580.640608
 20
440.308061
 42
-0.020424
  0
VERTEX
  8
0
 10
584.609160
 20
433.921095
 42
-0.019968
  0
VERTEX
  8
0
 10
588.214344
 20
426.914249
 42
-0.025486
  0
VERTEX
  8
0
 10
590.937054
 20
420.181784
 42
0.008479
  0
VERTEX
  8
0
 10
592.350776
 20
416.312525
 42
0.040399
  0
VERTEX
  8
0
 10
593.369844
 20
414.192166
 42
0.092004
  0
VERTEX
  8
0
 10
594.234723
 20
413.190533
 42
0.295762
  0
VERTEX
  8
0
 10
595.070784
 20
413.106719
 42
-0.076234
  0
VERTEX
  8
0
 10
596.147396
 20
413.467133
 42
-0.002341
  0
VERTEX
  8
0
 10
600.780168
 20
414.244191
 42
-0.004555
  0
VERTEX
  8
0
 10
606.265758
 20
415.086677
 42
-0.003130
  0
VERTEX
  8
0
 10
612.500000
 20
415.946284
 42
0.001437
  0
VERTEX
  8
0
 10
627.098901
 20
417.908901
 42
0.005192
  0
VERTEX
  8
0
 10
636.379616
 20
419.282063
 42
0.003407
  0
VERTEX
  8
0
 10
642.929715
 20
420.366625
 42
0.132315
  0
VERTEX
  8
0
 10
644.259390
 20
420.982901
 42
0.430136
  0
VERTEX
  8
0
 10
644.347007
 20
422.411264
 42
0.003640
  0
VERTEX
  8
0
 10
635.907533
 20
431.318460
 42
0.003690
  0
VERTEX
  8
0
 10
627.331022
 20
440.108542
 42
0.349212
  0
VERTEX
  8
0
 10
625.683615
 20
440.304463
 42
-0.087450
  0
VERTEX
  8
0
 10
623.483961
 20
439.428140
 42
-0.008641
  0
VERTEX
  8
0
 10
617.871296
 20
438.363941
 42
-0.005670
  0
VERTEX
  8
0
 10
612.047940
 20
437.431565
 42
-0.177066
  0
VERTEX
  8
0
 10
610.642457
 20
437.720974
 42
-0.234814
  0
VERTEX
  8
0
 10
610.304869
 20
438.264312
 42
-0.012164
  0
VERTEX
  8
0
 10
610.155705
 20
440.381062
 42
-0.017182
  0
VERTEX
  8
0
 10
610.125223
 20
442.994526
 42
-0.011434
  0
VERTEX
  8
0
 10
610.261711
 20
445.987809
 42
0.005961
  0
VERTEX
  8
0
 10
610.542635
 20
450.953544
 42
0.069086
  0
VERTEX
  8
0
 10
610.361402
 20
452.889070
 42
0.147228
  0
VERTEX
  8
0
 10
609.658558
 20
454.106226
 42
0.055358
  0
VERTEX
  8
0
 10
608.068241
 20
455.300618
 42
0.063523
  0
VERTEX
  8
0
 10
606.263425
 20
456.077952
 42
0.188988
  0
VERTEX
  8
0
 10
604.946598
 20
455.954130
 42
0.075844
  0
VERTEX
  8
0
 10
603.374238
 20
454.834636
 42
0.005130
  0
VERTEX
  8
0
 10
599.454629
 20
450.954150
 42
-0.006473
  0
VERTEX
  8
0
 10
597.137505
 20
448.672445
 42
-0.009733
  0
VERTEX
  8
0
 10
595.053243
 20
446.749032
 42
-0.005092
  0
VERTEX
  8
0
 10
593.259034
 20
445.189192
 42
-0.178214
  0
VERTEX
  8
0
 10
592.745092
 20
445.000000
 42
-0.390611
  0
VERTEX
  8
0
 10
592.426447
 20
445.293752
 42
-0.006703
  0
VERTEX
  8
0
 10
592.251796
 20
447.864062
 42
-0.013090
  0
VERTEX
  8
0
 10
592.162822
 20
451.011512
 42
-0.007858
  0
VERTEX
  8
0
 10
592.213788
 20
454.750000
 42
0.000000
  0
VERTEX
  8
0
 10
592.500000
 20
464.500000
 42
0.000000
  0
VERTEX
  8
0
 10
586.000000
 20
467.099713
 42
0.005033
  0
VERTEX
  8
0
 10
583.312178
 20
468.143462
 42
0.005075
  0
VERTEX
  8
0
 10
580.611213
 20
469.129957
 42
0.004958
  0
VERTEX
  8
0
 10
578.241308
 20
469.942026
 42
0.020387
  0
VERTEX
  8
0
 10
576.782852
 20
470.360520
 42
0.000000
  0
VERTEX
  8
0
 10
574.065704
 20
471.021613
 42
0.000000
  0
SEQEND
  0
POLYLINE
  8
0
 66
1
 70
1
  0
VERTEX
  8
0
 10
566.218655
 20
423.129523
 42
0.016397
  0
VERTEX
  8
0
 10
565.050202
 20
421.753335
 42
0.105869
  0
VERTEX
  8
0
 10
564.647809
 20
420.941563
 42
0.226131
  0
VERTEX
  8
0
 10
564.766162
 20
420.344016
 42
0.105457
  0
VERTEX
  8
0
 10
565.373866
 20
419.810650
 42
0.101372
  0
VERTEX
  8
0
 10
566.719419
 20
419.382373
 42
0.022125
  0
VERTEX
  8
0
 10
569.159929
 20
419.231222
 42
0.015341
  0
VERTEX
  8
0
 10
571.587458
 20
419.262943
 42
0.401458
  0
VERTEX
  8
0
 10
572.000000
 20
419.693938
 42
0.126587
  0
VERTEX
  8
0
 10
571.954168
 20
419.872067
 42
0.002420
  0
VERTEX
  8
0
 10
571.485937
 20
420.712085
 42
0.005703
  0
VERTEX
  8
0
 10
570.920652
 20
421.688574
 42
0.003769
  0
VERTEX
  8
0
 10
570.250000
 20
422.798060
 42
0.000000
  0
VERTEX
  8
0
 10
568.500000
 20
425.644459
 42
0.000000
  0
SEQEND
  0
POLYLINE
  8
0
 66
1
 70
1
  0
VERTEX
  8
0
 10
441.143866
 20
423.250000
 42
0.011922
  0
VERTEX
  8
0
 10
440.685492
 20
422.331929
 42
0.003680
  0
VERTEX
  8
0
 10
440.038405
 20
420.927919
 42
0.003679
  0
VERTEX
  8
0
 10
439.337560
 20
419.346446
 42
0.004033
  0
VERTEX
  8
0
 10
438.681640
 20
417.802489
 42
0.000000
  0
VERTEX
  8
0
 10
437.145916
 20
414.104979
 42
0.000000
  0
VERTEX
  8
0
 10
439.638058
 20
415.052489
 42
-0.027242
  0
VERTEX
  8
0
 10
440.776328
 20
415.415667
 42
-0.017012
  0
VERTEX
  8
0
 10
442.142428
 20
415.721669
 42
-0.017062
  0
VERTEX
  8
0
 10
443.513421
 20
415.931984
 42
-0.029532
  0
VERTEX
  8
0
 10
444.663971
 20
416.000000
 42
0.073747
  0
VERTEX
  8
0
 10
447.337966
 20
416.396555
 42
0.035711
  0
VERTEX
  8
0
 10
450.574557
 20
417.636472
 42
0.030356
  0
VERTEX
  8
0
 10
453.355677
 20
419.148347
 42
0.346418
  0
VERTEX
  8
0
 10
453.750887
 20
420.247340
 42
0.206469
  0
VERTEX
  8
0
 10
453.018441
 20
421.067494
 42
0.006426
  0
VERTEX
  8
0
 10
448.813822
 20
422.954056
 42
0.010125
  0
VERTEX
  8
0
 10
444.688030
 20
424.643529
 42
0.092077
  0
VERTEX
  8
0
 10
442.785184
 20
424.999185
 42
0.165680
  0
VERTEX
  8
0
 10
442.448584
 20
424.884930
 42
0.040419
  0
VERTEX
  8
0
 10
442.008185
 20
424.485698
 42
0.037051
  0
VERTEX
  8
0
 10
441.551045
 20
423.919845
 42
0.029645
  0
SEQEND
  0
POLYLINE
  8
0
 66
1
 70
1
  0
VERTEX
  8
0
 10
860.000000
 20
423.968615
 42
0.152681
  0
VERTEX
  8
0
 10
860.115494
 20
423.599211
 42
0.098158
  0
VERTEX
  8
0
 10
860.440625
 20
423.284531
 42
0.080880
  0
VERTEX
  8
0
 10
860.926468
 20
423.072230
 42
0.062722
  0
VERTEX
  8
0
 10
861.500000
 20
423.000000
 42
0.024748
  0
VERTEX
  8
0
 10
862.074824
 20
423.028469
 42
0.039339
  0
VERTEX
  8
0
 10
862.559375
 20
423.115447
 42
0.046727
  0
VERTEX
  8
0
 10
862.903916
 20
423.241071
 42
0.289661
  0
VERTEX
  8
0
 10
863.000000
 20
423.393011
 42
0.222225
  0
VERTEX
  8
0
 10
862.912889
 20
423.579329
 42
0.030693
  0
VERTEX
  8
0
 10
862.559375
 20
423.839659
 42
0.030395
  0
VERTEX
  8
0
 10
862.074558
 20
424.112506
 42
0.021360
  0
VERTEX
  8
0
 10
861.500000
 20
424.361626
 42
0.055937
  0
VERTEX
  8
0
 10
860.925634
 20
424.511135
 42
0.100118
  0
VERTEX
  8
0
 10
860.440625
 20
424.483616
 42
0.147206
  0
VERTEX
  8
0
 10
860.122486
 20
424.289193
 42
0.184534
  0
SEQEND
  0
POLYLINE
  8
0
 66
1
 70
1
  0
VERTEX
  8
0
 10
834.706285
 20
421.983603
 42
0.053468
  0
VERTEX
  8
0
 10
832.649377
 20
419.975670
 42
0.020105
  0
VERTEX
  8
0
 10
830.208705
 20
416.767842
 42
0.011196
  0
VERTEX
  8
0
 10
828.002803
 20
413.457627
 42
0.374777
  0
VERTEX
  8
0
 10
828.135932
 20
412.586957
 42
0.161125
  0
VERTEX
  8
0
 10
829.509901
 20
412.034330
 42
0.003940
  0
VERTEX
  8
0
 10
836.407587
 20
411.654377
 42
0.002519
  0
VERTEX
  8
0
 10
843.498897
 20
411.355579
 42
0.425114
  0
VERTEX
  8
0
 10
844.000000
 20
411.838440
 42
0.149362
  0
VERTEX
  8
0
 10
843.863955
 20
412.283698
 42
0.019005
  0
VERTEX
  8
0
 10
843.265625
 20
413.102483
 42
0.020901
  0
VERTEX
  8
0
 10
842.457373
 20
414.041170
 42
0.015986
  0
VERTEX
  8
0
 10
841.500000
 20
415.000000
 42
-0.099930
  0
VERTEX
  8
0
 10
839.322624
 20
418.066705
 42
-0.342857
  0
VERTEX
  8
0
 10
839.871305
 20
420.285894
 42
-0.143731
  0
VERTEX
  8
0
 10
843.279358
 20
421.656264
 42
-0.024207
  0
VERTEX
  8
0
 10
850.375242
 20
422.000000
 42
0.012430
  0
VERTEX
  8
0
 10
853.296257
 20
422.072626
 42
0.018189
  0
VERTEX
  8
0
 10
855.858413
 20
422.293750
 42
0.013817
  0
VERTEX
  8
0
 10
857.920356
 20
422.605588
 42
0.213010
  0
VERTEX
  8
0
 10
858.500000
 20
423.000000
 42
0.530045
  0
VERTEX
  8
0
 10
858.300644
 20
423.444963
 42
0.019520
  0
VERTEX
  8
0
 10
856.131592
 20
423.741259
 42
0.017843
  0
VERTEX
  8
0
 10
852.868243
 20
423.940718
 42
0.006341
  0
VERTEX
  8
0
 10
848.193876
 20
424.000000
 42
0.005742
  0
VERTEX
  8
0
 10
842.050144
 20
423.929440
 42
0.031368
  0
VERTEX
  8
0
 10
838.740889
 20
423.645190
 42
0.058576
  0
VERTEX
  8
0
 10
836.548043
 20
423.049102
 42
0.071139
  0
SEQEND
  0
POLYLINE
  8
0
 66
1
 70
1
  0
VERTEX
  8
0
 10
815.500000
 20
414.000000
 42
0.000000
  0
VERTEX
  8
0
 10
810.500000
 20
413.314207
 42
0.000000
  0
VERTEX
  8
0
 10
816.190983
 20
413.157104
 42
0.016646
  0
VERTEX
  8
0
 10
818.415957
 20
413.169763
 42
0.023464
  0
VERTEX
  8
0
 10
820.391787
 20
413.339899
 42
0.021013
  0
VERTEX
  8
0
 10
821.960014
 20
413.616908
 42
0.202806
  0
VERTEX
  8
0
 10
822.500000
 20
414.000000
 42
0.103505
  0
VERTEX
  8
0
 10
822.633481
 20
414.368762
 42
0.209931
  0
VERTEX
  8
0
 10
822.551963
 20
414.660101
 42
0.178049
  0
VERTEX
  8
0
 10
822.264376
 20
414.829264
 42
0.074826
  0
VERTEX
  8
0
 10
821.809017
 20
414.842896
 42
0.002929
  0
VERTEX
  8
0
 10
821.026258
 20
414.744298
 42
0.000414
  0
VERTEX
  8
0
 10
819.415774
 20
414.530490
 42
0.000472
  0
VERTEX
  8
0
 10
817.510307
 20
414.274086
 42
0.000401
  0
SEQEND
  0
POLYLINE
  8
0
 66
1
 70
1
  0
VERTEX
  8
0
 10
396.901165
 20
394.750000
 42
0.089447
  0
VERTEX
  8
0
 10
396.595146
 20
393.225188
 42
0.011463
  0
VERTEX
  8
0
 10
396.606150
 20
389.873461
 42
0.005810
  0
VERTEX
  8
0
 10
396.738631
 20
386.372995
 42
0.399803
  0
VERTEX
  8
0
 10
397.130541
 20
386.000000
 42
0.085483
  0
VERTEX
  8
0
 10
399.067417
 20
386.333576
 42
0.061969
  0
VERTEX
  8
0
 10
401.027699
 20
387.316740
 42
0.066477
  0
VERTEX
  8
0
 10
402.515866
 20
388.625705
 42
0.181096
  0
VERTEX
  8
0
 10
403.000000
 20
389.918545
 42
0.174403
  0
VERTEX
  8
0
 10
402.343988
 20
391.742071
 42
0.052590
  0
VERTEX
  8
0
 10
400.207096
 20
393.835172
 42
0.062895
  0
VERTEX
  8
0
 10
397.972741
 20
395.187723
 42
0.426638
  0
SEQEND
  0
POLYLINE
  8
0
 66
1
 70
1
  0
VERTEX
  8
0
 10
596.449559
 20
384.583546
 42
0.006232
  0
VERTEX
  8
0
 10
596.537383
 20
379.443216
 42
0.021178
  0
VERTEX
  8
0
 10
596.778082
 20
376.101106
 42
0.026666
  0
VERTEX
  8
0
 10
597.147554
 20
373.916814
 42
0.262815
  0
VERTEX
  8
0
 10
597.750000
 20
373.250213
 42
0.220464
  0
VERTEX
  8
0
 10
598.287064
 20
373.310662
 42
0.152968
  0
VERTEX
  8
0
 10
598.696644
 20
373.776573
 42
0.076401
  0
VERTEX
  8
0
 10
598.952870
 20
374.720509
 42
0.024851
  0
VERTEX
  8
0
 10
599.043893
 20
376.166667
 42
-0.031302
  0
VERTEX
  8
0
 10
599.162459
 20
377.728885
 42
-0.015365
  0
VERTEX
  8
0
 10
599.498201
 20
379.695833
 42
-0.015180
  0
VERTEX
  8
0
 10
599.973635
 20
381.724996
 42
-0.021323
  0
VERTEX
  8
0
 10
600.528836
 20
383.500000
 42
0.001733
  0
VERTEX
  8
0
 10
601.082201
 20
385.052861
 42
0.002638
  0
VERTEX
  8
0
 10
601.551001
 20
386.405708
 42
0.000955
  0
VERTEX
  8
0
 10
601.946349
 20
387.573651
 42
0.067537
  0
VERTEX
  8
0
 10
601.984944
 20
387.774751
 42
0.290059
  0
VERTEX
  8
0
 10
601.905607
 20
387.916627
 42
0.008881
  0
VERTEX
  8
0
 10
601.282185
 20
388.240025
 42
0.014916
  0
VERTEX
  8
0
 10
600.501227
 20
388.599079
 42
0.009448
  0
VERTEX
  8
0
 10
599.571431
 20
388.972842
 42
-0.065671
  0
VERTEX
  8
0
 10
598.495316
 20
389.553028
 42
-0.075280
  0
VERTEX
  8
0
 10
597.662164
 20
390.370507
 42
-0.072633
  0
VERTEX
  8
0
 10
597.087230
 20
391.423901
 42
-0.055719
  0
VERTEX
  8
0
 10
596.770991
 20
392.698091
 42
0.870344
  0
VERTEX
  8
0
 10
596.636837
 20
392.698959
 42
0.026332
  0
VERTEX
  8
0
 10
596.523173
 20
391.470231
 42
0.008012
  0
VERTEX
  8
0
 10
596.455423
 20
388.596025
 42
0.003041
  0
SEQEND
  0
POLYLINE
  8
0
 66
1
 70
1
  0
VERTEX
  8
0
 10
195.905317
 20
386.334114
 42
0.023734
  0
VERTEX
  8
0
 10
193.471406
 20
383.477796
 42
0.013521
  0
VERTEX
  8
0
 10
190.793725
 20
379.814692
 42
0.008104
  0
VERTEX
  8
0
 10
188.390037
 20
376.208921
 42
0.143923
  0
VERTEX
  8
0
 10
188.000000
 20
374.881966
 42
0.408480
  0
VERTEX
  8
0
 10
188.153387
 20
374.725540
 42
0.000330
  0
VERTEX
  8
0
 10
194.131350
 20
374.612203
 42
0.002860
  0
VERTEX
  8
0
 10
200.869058
 20
374.527449
 42
0.001715
  0
VERTEX
  8
0
 10
208.872681
 20
374.500000
 42
0.002377
  0
VERTEX
  8
0
 10
224.200348
 20
374.572873
 42
0.070101
  0
VERTEX
  8
0
 10
228.042790
 20
375.151568
 42
0.460461
  0
VERTEX
  8
0
 10
228.720018
 20
376.675012
 42
0.072261
  0
VERTEX
  8
0
 10
226.638207
 20
379.790946
 42
0.007883
  0
VERTEX
  8
0
 10
225.257316
 20
381.276079
 42
0.181331
  0
VERTEX
  8
0
 10
224.743427
 20
381.522558
 42
0.314228
  0
VERTEX
  8
0
 10
224.346528
 20
381.295068
 42
0.021781
  0
VERTEX
  8
0
 10
223.819443
 20
380.040946
 42
-0.085193
  0
VERTEX
  8
0
 10
223.259568
 20
379.072756
 42
-0.109535
  0
VERTEX
  8
0
 10
222.448333
 20
378.445316
 42
-0.080949
  0
VERTEX
  8
0
 10
221.253545
 20
378.103575
 42
-0.029269
  0
VERTEX
  8
0
 10
219.485714
 20
378.000000
 42
-0.035226
  0
VERTEX
  8
0
 10
217.539859
 20
378.137258
 42
-0.099077
  0
VERTEX
  8
0
 10
216.258583
 20
378.588121
 42
-0.099258
  0
VERTEX
  8
0
 10
215.250829
 20
379.496771
 42
-0.035434
  0
VERTEX
  8
0
 10
214.203490
 20
381.136686
 42
0.024821
  0
VERTEX
  8
0
 10
211.769042
 20
385.132873
 42
0.069709
  0
VERTEX
  8
0
 10
209.575282
 20
387.554937
 42
0.088237
  0
VERTEX
  8
0
 10
207.125143
 20
388.956513
 42
0.058886
  0
VERTEX
  8
0
 10
203.967004
 20
389.682492
 42
0.025697
  0
VERTEX
  8
0
 10
201.265806
 20
389.836441
 42
0.100136
  0
VERTEX
  8
0
 10
199.631844
 20
389.515317
 42
0.088592
  0
VERTEX
  8
0
 10
198.148512
 20
388.563737
 42
0.017628
  0
SEQEND
  0
POLYLINE
  8
0
 66
1
 70
1
  0
VERTEX
  8
0
 10
838.271435
 20
388.458650
 42
-0.136135
  0
VERTEX
  8
0
 10
837.321638
 20
387.871352
 42
-0.034914
  0
VERTEX
  8
0
 10
835.540196
 20
387.485332
 42
-0.027274
  0
VERTEX
  8
0
 10
833.061243
 20
387.263981
 42
-0.012047
  0
VERTEX
  8
0
 10
829.771435
 20
387.229672
 42
0.015986
  0
VERTEX
  8
0
 10
826.364039
 20
387.167297
 42
0.022641
  0
VERTEX
  8
0
 10
823.345239
 20
386.877981
 42
0.025726
  0
VERTEX
  8
0
 10
820.736016
 20
386.370055
 42
0.040560
  0
VERTEX
  8
0
 10
818.575176
 20
385.642500
 42
0.000000
  0
VERTEX
  8
0
 10
814.650351
 20
383.955961
 42
0.000000
  0
VERTEX
  8
0
 10
817.774494
 20
380.727980
 42
-0.044671
  0
VERTEX
  8
0
 10
820.199141
 20
377.728226
 42
-0.035866
  0
VERTEX
  8
0
 10
822.257878
 20
374.122426
 42
-0.033692
  0
VERTEX
  8
0
 10
823.542057
 20
370.904704
 42
-0.409661
  0
VERTEX
  8
0
 10
823.001088
 20
369.827072
 42
0.786268
  0
VERTEX
  8
0
 10
823.013739
 20
369.686525
 42
0.013029
  0
VERTEX
  8
0
 10
824.299113
 20
369.528467
 42
0.010519
  0
VERTEX
  8
0
 10
826.252129
 20
369.381205
 42
0.005010
  0
VERTEX
  8
0
 10
828.769871
 20
369.269836
 42
0.000000
  0
VERTEX
  8
0
 10
835.500000
 20
369.039672
 42
0.000000
  0
VERTEX
  8
0
 10
831.383419
 20
372.769836
 42
0.004662
  0
VERTEX
  8
0
 10
829.507653
 20
374.437942
 42
0.002839
  0
VERTEX
  8
0
 10
827.261892
 20
376.375538
 42
0.002844
  0
VERTEX
  8
0
 10
825.013293
 20
378.271435
 42
0.005028
  0
VERTEX
  8
0
 10
823.133419
 20
379.806465
 42
-0.012951
  0
VERTEX
  8
0
 10
821.550037
 20
381.141761
 42
-0.018202
  0
VERTEX
  8
0
 10
820.214192
 20
382.418819
 42
-0.014617
  0
VERTEX
  8
0
 10
819.196827
 20
383.527971
 42
-0.180170
  0
VERTEX
  8
0
 10
819.000000
 20
384.056465
 42
-0.311166
  0
VERTEX
  8
0
 10
819.252188
 20
384.422460
 42
-0.036979
  0
VERTEX
  8
0
 10
820.248438
 20
384.719967
 42
-0.033733
  0
VERTEX
  8
0
 10
821.621055
 20
384.925779
 42
-0.020926
  0
VERTEX
  8
0
 10
823.250000
 20
384.990231
 42
-0.069738
  0
VERTEX
  8
0
 10
828.063687
 20
384.304269
 42
-0.050481
  0
VERTEX
  8
0
 10
833.097932
 20
382.283737
 42
-0.047732
  0
VERTEX
  8
0
 10
837.916403
 20
379.140969
 42
-0.046661
  0
VERTEX
  8
0
 10
842.091728
 20
375.119824
 42
0.015343
  0
VERTEX
  8
0
 10
845.290525
 20
371.628041
 42
0.103871
  0
VERTEX
  8
0
 10
847.224979
 20
370.328671
 42
0.252391
  0
VERTEX
  8
0
 10
848.674060
 20
370.488684
 42
0.119303
  0
VERTEX
  8
0
 10
849.964816
 20
371.934259
 42
0.080164
  0
VERTEX
  8
0
 10
850.808167
 20
374.385125
 42
0.109303
  0
VERTEX
  8
0
 10
850.700327
 20
376.711861
 42
0.077302
  0
VERTEX
  8
0
 10
849.530502
 20
379.343047
 42
0.024065
  0
VERTEX
  8
0
 10
847.007899
 20
382.870791
 42
0.015940
  0
VERTEX
  8
0
 10
843.782315
 20
386.694355
 42
0.067381
  0
VERTEX
  8
0
 10
841.501567
 20
388.629439
 42
0.148485
  0
VERTEX
  8
0
 10
839.748332
 20
389.122627
 42
0.203700
  0
SEQEND
  0
POLYLINE
  8
0
 66
1
 70
1
  0
VERTEX
  8
0
 10
413.829894
 20
380.496560
 42
-0.126187
  0
VERTEX
  8
0
 10
412.252652
 20
379.563186
 42
-0.002324
  0
VERTEX
  8
0
 10
402.870456
 20
376.878940
 42
-0.001348
  0
VERTEX
  8
0
 10
393.172115
 20
374.181130
 42
-0.269777
  0
VERTEX
  8
0
 10
392.238885
 20
374.427781
 42
-0.297604
  0
VERTEX
  8
0
 10
392.193835
 20
374.642423
 42
-0.195745
  0
VERTEX
  8
0
 10
392.373298
 20
374.831911
 42
-0.077055
  0
VERTEX
  8
0
 10
392.834273
 20
374.960560
 42
-0.029596
  0
VERTEX
  8
0
 10
393.500000
 20
375.000000
 42
0.028346
  0
VERTEX
  8
0
 10
394.167254
 20
375.037858
 42
0.072699
  0
VERTEX
  8
0
 10
394.633620
 20
375.161171
 42
0.185089
  0
VERTEX
  8
0
 10
394.821091
 20
375.342837
 42
0.314956
  0
VERTEX
  8
0
 10
394.784665
 20
375.548668
 42
0.178861
  0
VERTEX
  8
0
 10
394.409880
 20
375.721197
 42
0.029501
  0
VERTEX
  8
0
 10
393.600219
 20
375.736143
 42
0.029235
  0
VERTEX
  8
0
 10
392.602002
 20
375.637016
 42
0.022121
  0
VERTEX
  8
0
 10
391.522978
 20
375.416411
 42
0.022578
  0
VERTEX
  8
0
 10
390.370110
 20
375.071058
 42
0.110696
  0
VERTEX
  8
0
 10
389.796397
 20
374.714004
 42
0.309984
  0
VERTEX
  8
0
 10
389.724673
 20
374.345877
 42
0.153301
  0
VERTEX
  8
0
 10
390.051047
 20
373.968451
 42
-0.559904
  0
VERTEX
  8
0
 10
390.049523
 20
373.546119
 42
-0.044667
  0
VERTEX
  8
0
 10
388.820454
 20
372.941638
 42
-0.026572
  0
VERTEX
  8
0
 10
386.662402
 20
372.239208
 42
-0.010658
  0
VERTEX
  8
0
 10
383.646068
 20
371.500327
 42
0.011195
  0
VERTEX
  8
0
 10
380.715256
 20
370.779062
 42
0.017770
  0
VERTEX
  8
0
 10
378.246033
 20
370.017333
 42
0.012094
  0
VERTEX
  8
0
 10
376.301991
 20
369.287920
 42
0.305959
  0
VERTEX
  8
0
 10
376.000000
 20
368.840602
 42
-0.164933
  0
VERTEX
  8
0
 10
375.896582
 20
368.535615
 42
-0.181276
  0
VERTEX
  8
0
 10
375.632812
 20
368.370871
 42
-0.120388
  0
VERTEX
  8
0
 10
375.228880
 20
368.387031
 42
-0.058656
  0
VERTEX
  8
0
 10
374.750000
 20
368.587687
 42
0.010636
  0
VERTEX
  8
0
 10
374.176524
 20
368.895560
 42
0.384294
  0
VERTEX
  8
0
 10
374.042912
 20
368.859678
 42
0.330760
  0
VERTEX
  8
0
 10
374.052578
 20
368.709370
 42
0.009614
  0
VERTEX
  8
0
 10
374.500000
 20
368.201612
 42
0.138286
  0
VERTEX
  8
0
 10
375.220607
 20
367.755405
 42
0.018576
  0
VERTEX
  8
0
 10
376.968750
 20
367.323070
 42
0.020294
  0
VERTEX
  8
0
 10
379.129282
 20
366.963944
 42
0.015811
  0
VERTEX
  8
0
 10
381.500000
 20
366.743992
 42
-0.166047
  0
VERTEX
  8
0
 10
381.880465
 20
366.587606
 42
-0.664765
  0
VERTEX
  8
0
 10
381.827976
 20
366.430086
 42
-0.012475
  0
VERTEX
  8
0
 10
378.976085
 20
366.285006
 42
-0.002918
  0
VERTEX
  8
0
 10
374.190983
 20
366.189084
 42
-0.005026
  0
VERTEX
  8
0
 10
368.434458
 20
366.165166
 42
-0.014480
  0
VERTEX
  8
0
 10
364.445478
 20
366.304251
 42
-0.013481
  0
VERTEX
  8
0
 10
361.715932
 20
366.552696
 42
-0.548460
  0
VERTEX
  8
0
 10
361.500000
 20
367.000000
 42
-0.120690
  0
VERTEX
  8
0
 10
361.891631
 20
367.385111
 42
-0.047523
  0
VERTEX
  8
0
 10
362.580088
 20
367.710748
 42
-0.043460
  0
VERTEX
  8
0
 10
363.425034
 20
367.935496
 42
-0.041553
  0
VERTEX
  8
0
 10
364.309017
 20
368.015313
 42
0.069264
  0
VERTEX
  8
0
 10
365.972409
 20
368.258712
 42
0.035436
  0
VERTEX
  8
0
 10
367.954630
 20
368.992283
 42
0.103987
  0
VERTEX
  8
0
 10
368.814743
 20
369.622728
 42
0.642268
  0
VERTEX
  8
0
 10
368.657084
 20
369.984687
 42
0.056389
  0
VERTEX
  8
0
 10
365.901369
 20
369.723508
 42
0.002491
  0
VERTEX
  8
0
 10
356.491249
 20
367.696794
 42
0.003847
  0
VERTEX
  8
0
 10
347.382649
 20
365.613878
 42
0.026778
  0
VERTEX
  8
0
 10
343.000000
 20
364.324885
 42
0.089418
  0
VERTEX
  8
0
 10
336.391856
 20
360.559268
 42
0.171474
  0
VERTEX
  8
0
 10
333.319951
 20
355.374053
 42
0.224137
  0
VERTEX
  8
0
 10
334.564912
 20
350.411369
 42
0.142259
  0
VERTEX
  8
0
 10
339.570103
 20
346.976864
 42
0.023584
  0
VERTEX
  8
0
 10
342.445476
 20
346.176081
 42
0.244054
  0
VERTEX
  8
0
 10
343.598429
 20
346.475759
 42
0.376871
  0
VERTEX
  8
0
 10
343.708509
 20
347.412864
 42
0.037593
  0
VERTEX
  8
0
 10
342.170610
 20
349.318394
 42
-0.082667
  0
VERTEX
  8
0
 10
340.739030
 20
351.460067
 42
-0.083023
  0
VERTEX
  8
0
 10
340.081213
 20
353.946839
 42
-0.093678
  0
VERTEX
  8
0
 10
340.298363
 20
356.253253
 42
-0.150467
  0
VERTEX
  8
0
 10
341.371388
 20
357.893262
 42
-0.125545
  0
VERTEX
  8
0
 10
348.152265
 20
361.109969
 42
-0.016232
  0
VERTEX
  8
0
 10
364.123527
 20
363.698859
 42
-0.017516
  0
VERTEX
  8
0
 10
380.241122
 20
365.205539
 42
-0.100674
  0
VERTEX
  8
0
 10
388.684900
 20
363.994169
 42
0.001947
  0
VERTEX
  8
0
 10
390.532208
 20
363.342230
 42
0.217073
  0
VERTEX
  8
0
 10
390.785525
 20
363.365637
 42
0.529520
  0
VERTEX
  8
0
 10
390.797400
 20
363.519191
 42
0.003556
  0
VERTEX
  8
0
 10
389.558870
 20
364.494169
 42
-0.024915
  0
VERTEX
  8
0
 10
388.883578
 20
365.074129
 42
-0.071688
  0
VERTEX
  8
0
 10
388.501874
 20
365.557662
 42
-0.223174
  0
VERTEX
  8
0
 10
388.476373
 20
365.853564
 42
-0.314167
  0
VERTEX
  8
0
 10
388.686426
 20
366.000000
 42
-0.100740
  0
VERTEX
  8
0
 10
389.180392
 20
365.899455
 42
-0.041001
  0
VERTEX
  8
0
 10
389.790558
 20
365.579031
 42
-0.038428
  0
VERTEX
  8
0
 10
390.410425
 20
365.115259
 42
-0.039751
  0
VERTEX
  8
0
 10
390.944468
 20
364.566912
 42
-0.297209
  0
VERTEX
  8
0
 10
391.163084
 20
362.673207
 42
-0.129866
  0
VERTEX
  8
0
 10
389.417378
 20
360.687395
 42
-0.056035
  0
VERTEX
  8
0
 10
385.278735
 20
358.535846
 42
-0.015558
  0
VERTEX
  8
0
 10
378.362650
 20
356.117735
 42
0.009827
  0
VERTEX
  8
0
 10
374.403417
 20
354.784163
 42
0.011134
  0
VERTEX
  8
0
 10
370.662779
 20
353.347013
 42
0.010408
  0
VERTEX
  8
0
 10
367.546101
 20
351.992800
 42
0.058670
  0
VERTEX
  8
0
 10
366.000000
 20
351.049307
 42
0.012764
  0
VERTEX
  8
0
 10
364.406595
 20
349.732476
 42
0.183485
  0
VERTEX
  8
0
 10
364.065712
 20
349.095979
 42
0.219338
  0
VERTEX
  8
0
 10
364.267209
 20
348.451632
 42
0.018970
  0
VERTEX
  8
0
 10
365.500000
 20
347.187515
 42
0.093882
  0
VERTEX
  8
0
 10
368.290794
 20
345.387689
 42
0.006144
  0
VERTEX
  8
0
 10
377.275060
 20
341.868987
 42
0.006543
  0
VERTEX
  8
0
 10
386.302779
 20
338.594930
 42
0.084467
  0
VERTEX
  8
0
 10
389.824950
 20
338.003748
 42
0.166720
  0
VERTEX
  8
0
 10
390.634880
 20
338.283559
 42
0.058215
  0
VERTEX
  8
0
 10
391.524126
 20
339.162093
 42
0.045371
  0
VERTEX
  8
0
 10
392.422876
 20
340.520566
 42
0.025939
  0
VERTEX
  8
0
 10
393.264661
 20
342.299702
 42
-0.027178
  0
VERTEX
  8
0
 10
396.035710
 20
348.119057
 42
-0.013034
  0
VERTEX
  8
0
 10
400.182339
 20
355.281042
 42
-0.012921
  0
VERTEX
  8
0
 10
404.884634
 20
362.509806
 42
-0.018750
  0
VERTEX
  8
0
 10
409.430553
 20
368.614675
 42
0.011327
  0
VERTEX
  8
0
 10
412.049301
 20
372.024633
 42
0.031515
  0
VERTEX
  8
0
 10
413.676269
 20
374.567162
 42
0.045848
  0
VERTEX
  8
0
 10
414.561758
 20
376.579115
 42
0.099037
  0
VERTEX
  8
0
 10
414.772628
 20
378.250000
 42
0.002599
  0
VERTEX
  8
0
 10
414.616012
 20
380.277591
 42
0.078921
  0
VERTEX
  8
0
 10
414.495347
 20
380.771095
 42
0.457649
  0
VERTEX
  8
0
 10
414.273008
 20
380.843565
 42
0.060596
  0
SEQEND
  0
POLYLINE
  8
0
 66
1
 70
1
  0
VERTEX
  8
0
 10
535.000000
 20
378.077552
 42
0.296413
  0
VERTEX
  8
0
 10
535.596101
 20
377.160374
 42
0.022301
  0
VERTEX
  8
0
 10
538.495863
 20
376.023803
 42
0.026920
  0
VERTEX
  8
0
 10
541.527781
 20
375.167930
 42
0.137612
  0
VERTEX
  8
0
 10
543.258715
 20
375.258374
 42
0.595315
  0
VERTEX
  8
0
 10
543.375300
 20
375.932890
 42
0.039841
  0
VERTEX
  8
0
 10
541.309316
 20
377.311321
 42
0.032289
  0
VERTEX
  8
0
 10
538.580931
 20
378.609744
 42
0.095191
  0
VERTEX
  8
0
 10
536.549660
 20
379.000000
 42
0.057601
  0
VERTEX
  8
0
 10
535.956951
 20
378.931492
 42
0.076845
  0
VERTEX
  8
0
 10
535.455213
 20
378.729031
 42
0.095743
  0
VERTEX
  8
0
 10
535.118970
 20
378.429433
 42
0.164475
  0
SEQEND
  0
POLYLINE
  8
0
 66
1
 70
1
  0
VERTEX
  8
0
 10
468.750000
 20
376.837719
 42
0.027514
  0
VERTEX
  8
0
 10
467.696971
 20
376.386045
 42
0.037406
  0
VERTEX
  8
0
 10
466.807813
 20
375.859101
 42
0.041240
  0
VERTEX
  8
0
 10
466.176082
 20
375.335375
 42
0.201713
  0
VERTEX
  8
0
 10
466.000000
 20
374.916667
 42
0.243735
  0
VERTEX
  8
0
 10
466.304514
 20
374.329096
 42
0.205048
  0
VERTEX
  8
0
 10
466.997913
 20
374.181296
 42
0.053509
  0
VERTEX
  8
0
 10
468.436467
 20
374.628495
 42
0.006308
  0
VERTEX
  8
0
 10
471.500000
 20
376.000000
 42
0.038413
  0
VERTEX
  8
0
 10
473.672281
 20
377.216035
 42
0.633508
  0
VERTEX
  8
0
 10
473.580946
 20
377.838408
 42
0.141946
  0
VERTEX
  8
0
 10
471.951813
 20
377.860705
 42
0.020467
  0
SEQEND
  0
POLYLINE
  8
0
 66
1
 70
1
  0
VERTEX
  8
0
 10
811.674202
 20
373.620230
 42
-0.063496
  0
VERTEX
  8
0
 10
811.833803
 20
368.935224
 42
-0.108414
  0
VERTEX
  8
0
 10
810.649360
 20
365.221685
 42
-0.134755
  0
VERTEX
  8
0
 10
808.256250
 20
362.862950
 42
-0.128264
  0
VERTEX
  8
0
 10
804.947623
 20
362.000000
 42
-0.080241
  0
VERTEX
  8
0
 10
803.095786
 20
362.299114
 42
-0.180188
  0
VERTEX
  8
0
 10
802.002437
 20
363.177545
 42
-0.093543
  0
VERTEX
  8
0
 10
801.334552
 20
365.002277
 42
-0.013134
  0
VERTEX
  8
0
 10
800.779955
 20
368.993650
 42
0.128589
  0
VERTEX
  8
0
 10
800.400227
 20
369.979768
 42
0.419525
  0
VERTEX
  8
0
 10
799.779113
 20
370.075548
 42
0.065742
  0
VERTEX
  8
0
 10
798.621455
 20
368.946827
 42
0.004315
  0
VERTEX
  8
0
 10
795.758493
 20
365.243650
 42
0.000000
  0
VERTEX
  8
0
 10
791.016986
 20
359.000000
 42
0.000000
  0
VERTEX
  8
0
 10
798.758493
 20
359.056442
 42
0.013355
  0
VERTEX
  8
0
 10
801.979080
 20
359.165984
 42
0.012583
  0
VERTEX
  8
0
 10
805.254057
 20
359.447914
 42
0.012654
  0
VERTEX
  8
0
 10
808.141807
 20
359.844103
 42
0.041992
  0
VERTEX
  8
0
 10
810.000000
 20
360.309852
 42
0.000000
  0
VERTEX
  8
0
 10
813.500000
 20
361.506819
 42
0.000000
  0
VERTEX
  8
0
 10
813.323078
 20
368.979050
 42
0.012679
  0
VERTEX
  8
0
 10
813.181356
 20
371.867268
 42
0.019440
  0
VERTEX
  8
0
 10
812.898235
 20
374.356277
 42
0.014560
  0
VERTEX
  8
0
 10
812.536118
 20
376.332200
 42
0.265667
  0
VERTEX
  8
0
 10
812.125248
 20
376.791584
 42
0.333328
  0
VERTEX
  8
0
 10
811.749820
 20
376.666445
 42
0.116595
  0
VERTEX
  8
0
 10
811.529151
 20
376.103230
 42
0.055508
  0
VERTEX
  8
0
 10
811.497877
 20
375.073980
 42
0.020090
  0
SEQEND
  0
POLYLINE
  8
0
 66
1
 70
1
  0
VERTEX
  8
0
 10
763.000000
 20
373.628836
 42
0.011454
  0
VERTEX
  8
0
 10
760.294111
 20
372.638187
 42
0.010310
  0
VERTEX
  8
0
 10
757.538901
 20
371.491195
 42
0.010393
  0
VERTEX
  8
0
 10
755.111135
 20
370.360434
 42
0.031834
  0
VERTEX
  8
0
 10
753.536684
 20
369.458301
 42
0.000000
  0
VERTEX
  8
0
 10
750.573369
 20
367.500000
 42
0.000000
  0
VERTEX
  8
0
 10
759.961668
 20
367.210159
 42
0.005416
  0
VERTEX
  8
0
 10
763.654368
 20
367.136180
 42
0.007401
  0
VERTEX
  8
0
 10
766.981378
 20
367.154817
 42
0.005075
  0
VERTEX
  8
0
 10
769.759018
 20
367.239707
 42
0.081607
  0
VERTEX
  8
0
 10
770.674983
 20
367.428774
 42
0.262398
  0
VERTEX
  8
0
 10
771.714102
 20
368.684822
 42
0.042301
  0
VERTEX
  8
0
 10
772.021569
 20
371.967732
 42
0.044652
  0
VERTEX
  8
0
 10
771.767860
 20
375.116073
 42
0.383448
  0
VERTEX
  8
0
 10
770.750000
 20
375.920534
 42
0.051716
  0
VERTEX
  8
0
 10
769.957611
 20
375.787103
 42
0.004336
  0
VERTEX
  8
0
 10
767.957813
 20
375.214568
 42
0.005735
  0
VERTEX
  8
0
 10
765.580658
 20
374.481885
 42
0.004399
  0
SEQEND
  0
POLYLINE
  8
0
 66
1
 70
1
  0
VERTEX
  8
0
 10
383.500000
 20
373.326718
 42
0.000000
  0
VERTEX
  8
0
 10
379.500000
 20
371.995015
 42
0.000000
  0
VERTEX
  8
0
 10
383.500000
 20
372.586692
 42
0.010143
  0
VERTEX
  8
0
 10
386.056501
 20
373.018007
 42
0.047125
  0
VERTEX
  8
0
 10
387.492712
 20
373.433491
 42
0.166459
  0
VERTEX
  8
0
 10
388.002296
 20
373.867677
 42
0.375645
  0
VERTEX
  8
0
 10
387.916667
 20
374.329210
 42
0.216684
  0
VERTEX
  8
0
 10
387.596325
 20
374.408251
 42
0.009584
  0
VERTEX
  8
0
 10
386.447396
 20
374.170527
 42
0.014716
  0
VERTEX
  8
0
 10
385.062980
 20
373.813151
 42
0.009832
  0
SEQEND
  0
POLYLINE
  8
0
 66
1
 70
1
  0
VERTEX
  8
0
 10
376.812500
 20
371.316886
 42
0.051402
  0
VERTEX
  8
0
 10
377.359369
 20
371.160852
 42
0.054150
  0
VERTEX
  8
0
 10
377.916927
 20
371.123424
 42
0.060344
  0
VERTEX
  8
0
 10
378.402231
 20
371.202593
 42
0.126455
  0
VERTEX
  8
0
 10
378.729167
 20
371.395833
 42
0.296942
  0
VERTEX
  8
0
 10
378.775380
 20
371.614691
 42
0.208169
  0
VERTEX
  8
0
 10
378.592839
 20
371.799335
 42
0.077125
  0
VERTEX
  8
0
 10
378.112848
 20
371.910055
 42
0.028489
  0
VERTEX
  8
0
 10
377.416667
 20
371.921053
 42
0.018894
  0
VERTEX
  8
0
 10
376.670344
 20
371.862007
 42
0.168741
  0
VERTEX
  8
0
 10
376.378580
 20
371.720685
 42
0.470617
  0
VERTEX
  8
0
 10
376.395823
 20
371.538436
 42
0.054073
  0
SEQEND
  0
POLYLINE
  8
0
 66
1
 70
1
  0
VERTEX
  8
0
 10
370.750000
 20
370.337719
 42
0.057986
  0
VERTEX
  8
0
 10
371.320008
 20
370.181385
 42
0.037979
  0
VERTEX
  8
0
 10
372.000000
 20
370.129660
 42
0.037979
  0
VERTEX
  8
0
 10
372.679992
 20
370.181385
 42
0.057986
  0
VERTEX
  8
0
 10
373.250000
 20
370.337719
 42
0.174857
  0
VERTEX
  8
0
 10
373.459382
 20
370.525001
 42
0.447206
  0
VERTEX
  8
0
 10
373.398438
 20
370.693942
 42
0.078554
  0
VERTEX
  8
0
 10
372.891440
 20
370.810911
 42
0.017491
  0
VERTEX
  8
0
 10
372.000000
 20
370.842105
 42
0.017491
  0
VERTEX
  8
0
 10
371.108560
 20
370.810911
 42
0.078554
  0
VERTEX
  8
0
 10
370.601562
 20
370.693942
 42
0.447206
  0
VERTEX
  8
0
 10
370.540618
 20
370.525001
 42
0.174857
  0
SEQEND
  0
POLYLINE
  8
0
 66
1
 70
1
  0
VERTEX
  8
0
 10
613.157895
 20
368.000000
 42
0.017491
  0
VERTEX
  8
0
 10
613.189089
 20
367.108560
 42
0.078554
  0
VERTEX
  8
0
 10
613.306058
 20
366.601562
 42
0.447206
  0
VERTEX
  8
0
 10
613.474999
 20
366.540618
 42
0.174857
  0
VERTEX
  8
0
 10
613.662281
 20
366.750000
 42
0.057986
  0
VERTEX
  8
0
 10
613.818615
 20
367.320008
 42
0.037979
  0
VERTEX
  8
0
 10
613.870340
 20
368.000000
 42
0.037979
  0
VERTEX
  8
0
 10
613.818615
 20
368.679992
 42
0.057986
  0
VERTEX
  8
0
 10
613.662281
 20
369.250000
 42
0.174857
  0
VERTEX
  8
0
 10
613.474999
 20
369.459382
 42
0.447206
  0
VERTEX
  8
0
 10
613.306058
 20
369.398438
 42
0.078554
  0
VERTEX
  8
0
 10
613.189089
 20
368.891440
 42
0.017491
  0
SEQEND
  0
POLYLINE
  8
0
 66
1
 70
1
  0
VERTEX
  8
0
 10
610.182860
 20
365.500000
 42
0.024148
  0
VERTEX
  8
0
 10
609.296668
 20
361.825734
 42
0.093918
  0
VERTEX
  8
0
 10
609.294116
 20
359.496289
 42
0.062702
  0
VERTEX
  8
0
 10
610.134507
 20
356.885625
 42
0.006937
  0
VERTEX
  8
0
 10
612.871356
 20
351.227803
 42
-0.017226
  0
VERTEX
  8
0
 10
616.260092
 20
343.838277
 42
-0.014624
  0
VERTEX
  8
0
 10
619.335197
 20
335.821549
 42
-0.014528
  0
VERTEX
  8
0
 10
621.957960
 20
327.576366
 42
-0.016291
  0
VERTEX
  8
0
 10
623.988741
 20
319.500000
 42
0.007100
  0
VERTEX
  8
0
 10
625.012875
 20
315.085478
 42
0.049617
  0
VERTEX
  8
0
 10
625.752608
 20
313.002971
 42
0.131456
  0
VERTEX
  8
0
 10
626.558900
 20
312.049345
 42
0.195198
  0
VERTEX
  8
0
 10
627.612678
 20
311.811532
 42
0.069686
  0
VERTEX
  8
0
 10
631.590342
 20
313.053907
 42
0.002185
  0
VERTEX
  8
0
 10
646.982180
 20
320.418036
 42
0.002152
  0
VERTEX
  8
0
 10
662.327846
 20
327.924344
 42
0.071060
  0
VERTEX
  8
0
 10
665.711334
 20
330.244651
 42
0.324364
  0
VERTEX
  8
0
 10
666.443184
 20
333.845955
 42
0.168373
  0
VERTEX
  8
0
 10
663.116698
 20
337.342770
 42
0.057211
  0
VERTEX
  8
0
 10
654.097675
 20
340.762721
 42
0.014270
  0
VERTEX
  8
0
 10
638.685450
 20
344.202814
 42
0.000000
  0
VERTEX
  8
0
 10
621.994638
 20
347.431273
 42
0.000000
  0
VERTEX
  8
0
 10
618.747319
 20
353.965636
 42
0.006740
  0
VERTEX
  8
0
 10
617.448188
 20
356.493696
 42
0.009872
  0
VERTEX
  8
0
 10
616.231757
 20
358.679057
 42
0.005730
  0
VERTEX
  8
0
 10
615.159233
 20
360.471874
 42
0.151840
  0
VERTEX
  8
0
 10
614.743769
 20
360.835410
 42
-0.144744
  0
VERTEX
  8
0
 10
614.503284
 20
361.040012
 42
-0.116779
  0
VERTEX
  8
0
 10
614.387802
 20
361.360499
 42
-0.096497
  0
VERTEX
  8
0
 10
614.418802
 20
361.751817
 42
-0.070648
  0
VERTEX
  8
0
 10
614.593907
 20
362.151945
 42
0.154456
  0
VERTEX
  8
0
 10
614.710987
 20
362.616109
 42
0.084785
  0
VERTEX
  8
0
 10
614.576895
 20
363.192507
 42
0.070670
  0
VERTEX
  8
0
 10
614.219097
 20
363.790973
 42
0.057048
  0
VERTEX
  8
0
 10
613.684498
 20
364.316535
 42
-0.056489
  0
VERTEX
  8
0
 10
613.074175
 20
364.915204
 42
-0.034717
  0
VERTEX
  8
0
 10
612.494400
 20
365.739857
 42
-0.034490
  0
VERTEX
  8
0
 10
612.028239
 20
366.647618
 42
-0.051211
  0
VERTEX
  8
0
 10
611.761642
 20
367.500000
 42
0.096291
  0
VERTEX
  8
0
 10
611.498470
 20
368.135199
 42
0.510667
  0
VERTEX
  8
0
 10
611.182320
 20
368.148401
 42
0.086785
  0
VERTEX
  8
0
 10
610.777258
 20
367.398231
 42
0.009253
  0
SEQEND
  0
POLYLINE
  8
0
 66
1
 70
1
  0
VERTEX
  8
0
 10
443.517925
 20
361.018356
 42
0.015909
  0
VERTEX
  8
0
 10
442.075530
 20
359.443991
 42
0.025923
  0
VERTEX
  8
0
 10
440.967664
 20
358.010702
 42
0.023784
  0
VERTEX
  8
0
 10
440.231991
 20
356.833723
 42
0.335967
  0
VERTEX
  8
0
 10
440.295890
 20
356.370776
 42
0.377175
  0
VERTEX
  8
0
 10
441.229132
 20
356.310924
 42
0.007364
  0
VERTEX
  8
0
 10
445.289991
 20
359.541624
 42
0.009779
  0
VERTEX
  8
0
 10
449.168414
 20
362.850489
 42
0.181965
  0
VERTEX
  8
0
 10
449.905806
 20
364.250000
 42
0.407706
  0
VERTEX
  8
0
 10
449.397537
 20
364.919532
 42
0.155118
  0
VERTEX
  8
0
 10
448.121156
 20
364.712797
 42
0.057156
  0
VERTEX
  8
0
 10
445.994370
 20
363.311643
 42
0.025147
  0
SEQEND
  0
POLYLINE
  8
0
 66
1
 70
1
  0
VERTEX
  8
0
 10
561.000000
 20
364.621033
 42
0.175992
  0
VERTEX
  8
0
 10
561.104473
 20
364.333415
 42
0.004140
  0
VERTEX
  8
0
 10
562.049613
 20
363.222877
 42
0.008644
  0
VERTEX
  8
0
 10
563.203805
 20
361.934915
 42
0.005698
  0
VERTEX
  8
0
 10
564.573150
 20
360.492333
 42
0.020607
  0
VERTEX
  8
0
 10
567.219556
 20
357.982919
 42
0.192750
  0
VERTEX
  8
0
 10
568.673514
 20
357.473836
 42
0.603270
  0
VERTEX
  8
0
 10
568.985798
 20
358.135241
 42
0.026880
  0
VERTEX
  8
0
 10
566.920610
 20
360.595765
 42
0.027227
  0
VERTEX
  8
0
 10
565.080577
 20
362.359896
 42
0.028210
  0
VERTEX
  8
0
 10
563.080531
 20
363.891401
 42
0.029903
  0
VERTEX
  8
0
 10
561.423398
 20
364.878668
 42
0.562090
  0
SEQEND
  0
POLYLINE
  8
0
 66
1
 70
1
  0
VERTEX
  8
0
 10
260.500000
 20
357.936023
 42
0.000944
  0
VERTEX
  8
0
 10
250.437256
 20
355.394392
 42
0.010594
  0
VERTEX
  8
0
 10
246.461369
 20
354.291975
 42
0.038800
  0
VERTEX
  8
0
 10
244.791085
 20
353.645615
 42
0.674292
  0
VERTEX
  8
0
 10
244.817255
 20
353.227582
 42
0.100930
  0
VERTEX
  8
0
 10
245.697304
 20
353.120955
 42
0.003306
  0
VERTEX
  8
0
 10
249.248684
 20
353.431483
 42
0.006203
  0
VERTEX
  8
0
 10
253.451194
 20
353.879620
 42
0.004261
  0
VERTEX
  8
0
 10
258.205652
 20
354.487486
 42
-0.011893
  0
VERTEX
  8
0
 10
267.133002
 20
355.490632
 42
-0.044442
  0
VERTEX
  8
0
 10
272.775452
 20
355.486607
 42
-0.066209
  0
VERTEX
  8
0
 10
277.080518
 20
354.515932
 42
-0.056098
  0
VERTEX
  8
0
 10
281.250000
 20
352.418569
 42
-0.036990
  0
VERTEX
  8
0
 10
284.845707
 20
349.673222
 42
-0.445697
  0
VERTEX
  8
0
 10
284.855341
 20
348.124646
 42
-0.173567
  0
VERTEX
  8
0
 10
282.537700
 20
347.159024
 42
-0.011657
  0
VERTEX
  8
0
 10
275.250000
 20
346.956760
 42
0.000000
  0
VERTEX
  8
0
 10
265.500000
 20
346.913521
 42
0.000000
  0
VERTEX
  8
0
 10
272.784941
 20
343.206760
 42
-0.022320
  0
VERTEX
  8
0
 10
279.753332
 20
339.260154
 42
-0.029431
  0
VERTEX
  8
0
 10
285.699572
 20
335.025906
 42
-0.033267
  0
VERTEX
  8
0
 10
290.290447
 20
330.798984
 42
-0.072224
  0
VERTEX
  8
0
 10
293.053253
 20
326.895616
 42
0.000000
  0
VERTEX
  8
0
 10
295.182496
 20
322.721955
 42
0.000000
  0
VERTEX
  8
0
 10
302.742126
 20
323.360977
 42
-0.002939
  0
VERTEX
  8
0
 10
305.853844
 20
323.605603
 42
-0.002984
  0
VERTEX
  8
0
 10
308.952304
 20
323.812287
 42
-0.002902
  0
VERTEX
  8
0
 10
311.649127
 20
323.960316
 42
-0.012259
  0
VERTEX
  8
0
 10
313.267509
 20
324.000000
 42
0.020682
  0
VERTEX
  8
0
 10
314.943124
 20
324.069340
 42
0.177380
  0
VERTEX
  8
0
 10
315.612657
 20
324.379507
 42
0.238881
  0
VERTEX
  8
0
 10
315.813591
 20
324.992219
 42
0.038785
  0
VERTEX
  8
0
 10
315.519601
 20
326.250000
 42
-0.014786
  0
VERTEX
  8
0
 10
315.237696
 20
327.239378
 42
-0.010798
  0
VERTEX
  8
0
 10
314.981133
 20
328.353125
 42
-0.010927
  0
VERTEX
  8
0
 10
314.783709
 20
329.420102
 42
-0.023556
  0
VERTEX
  8
0
 10
314.688684
 20
330.250000
 42
0.100575
  0
VERTEX
  8
0
 10
314.490177
 20
330.974639
 42
0.111854
  0
VERTEX
  8
0
 10
314.028855
 20
331.532863
 42
0.099450
  0
VERTEX
  8
0
 10
313.323179
 20
331.881723
 42
0.065313
  0
VERTEX
  8
0
 10
312.421572
 20
332.000000
 42
-0.109388
  0
VERTEX
  8
0
 10
311.314361
 20
332.245165
 42
-0.100970
  0
VERTEX
  8
0
 10
310.377168
 20
332.938699
 42
-0.066892
  0
VERTEX
  8
0
 10
309.512471
 20
334.205678
 42
-0.022602
  0
VERTEX
  8
0
 10
308.599301
 20
336.250000
 42
0.044731
  0
VERTEX
  8
0
 10
306.935396
 20
339.572380
 42
0.020295
  0
VERTEX
  8
0
 10
304.209731
 20
343.605714
 42
0.020276
  0
VERTEX
  8
0
 10
301.644518
 20
346.807771
 42
0.693583
  0
VERTEX
  8
0
 10
301.000000
 20
346.566656
 42
0.054153
  0
VERTEX
  8
0
 10
301.066283
 20
345.956450
 42
0.001529
  0
VERTEX
  8
0
 10
301.641101
 20
343.379373
 42
0.003102
  0
VERTEX
  8
0
 10
302.346231
 20
340.350366
 42
0.002125
  0
VERTEX
  8
0
 10
303.182473
 20
336.920897
 42
-0.008589
  0
VERTEX
  8
0
 10
304.181497
 20
332.580849
 42
-0.025806
  0
VERTEX
  8
0
 10
304.658164
 20
329.578849
 42
-0.038094
  0
VERTEX
  8
0
 10
304.722492
 20
327.414743
 42
-0.093588
  0
VERTEX
  8
0
 10
304.356486
 20
325.872891
 42
-0.078600
  0
VERTEX
  8
0
 10
303.682231
 20
324.836033
 42
-0.411113
  0
VERTEX
  8
0
 10
303.068106
 20
324.800840
 42
-0.090157
  0
VERTEX
  8
0
 10
302.292112
 20
325.784124
 42
-0.004893
  0
VERTEX
  8
0
 10
300.465848
 20
329.304953
 42
0.020425
  0
VERTEX
  8
0
 10
299.068739
 20
331.805253
 42
0.012739
  0
VERTEX
  8
0
 10
297.240588
 20
334.620857
 42
0.012779
  0
VERTEX
  8
0
 10
295.293341
 20
337.308961
 42
0.022568
  0
VERTEX
  8
0
 10
293.533552
 20
339.408476
 42
-0.014612
  0
VERTEX
  8
0
 10
291.382920
 20
341.892924
 42
-0.062055
  0
VERTEX
  8
0
 10
290.340244
 20
343.554802
 42
-0.095016
  0
VERTEX
  8
0
 10
289.964771
 20
345.044432
 42
-0.064888
  0
VERTEX
  8
0
 10
290.090944
 20
346.790280
 42
0.078983
  0
VERTEX
  8
0
 10
290.210940
 20
349.509515
 42
0.101750
  0
VERTEX
  8
0
 10
289.434709
 20
351.880891
 42
0.080560
  0
VERTEX
  8
0
 10
287.607198
 20
354.141200
 42
0.033578
  0
VERTEX
  8
0
 10
284.507182
 20
356.561949
 42
0.078156
  0
VERTEX
  8
0
 10
280.006832
 20
358.679792
 42
0.056731
  0
VERTEX
  8
0
 10
274.541674
 20
359.620812
 42
0.047253
  0
VERTEX
  8
0
 10
268.060894
 20
359.379212
 42
0.028462
  0
SEQEND
  0
POLYLINE
  8
0
 66
1
 70
1
  0
VERTEX
  8
0
 10
236.853246
 20
353.746754
 42
0.112154
  0
VERTEX
  8
0
 10
237.370767
 20
353.420833
 42
0.043618
  0
VERTEX
  8
0
 10
238.195048
 20
353.209069
 42
0.040388
  0
VERTEX
  8
0
 10
239.161929
 20
353.128094
 42
0.039733
  0
VERTEX
  8
0
 10
240.134665
 20
353.202755
 42
0.009743
  0
VERTEX
  8
0
 10
241.414946
 20
353.429798
 42
0.599836
  0
VERTEX
  8
0
 10
241.468599
 20
353.606240
 42
0.152988
  0
VERTEX
  8
0
 10
241.115594
 20
353.790816
 42
0.003467
  0
VERTEX
  8
0
 10
239.218582
 20
354.118838
 42
0.017150
  0
VERTEX
  8
0
 10
237.913500
 20
354.289450
 42
0.063014
  0
VERTEX
  8
0
 10
237.082665
 20
354.264379
 42
0.246244
  0
VERTEX
  8
0
 10
236.800895
 20
354.055065
 42
0.318785
  0
SEQEND
  0
POLYLINE
  8
0
 66
1
 70
1
  0
VERTEX
  8
0
 10
170.649034
 20
352.472220
 42
0.143047
  0
VERTEX
  8
0
 10
171.995465
 20
350.703186
 42
0.104711
  0
VERTEX
  8
0
 10
174.253559
 20
349.674694
 42
0.059082
  0
VERTEX
  8
0
 10
177.854249
 20
349.310865
 42
0.015911
  0
VERTEX
  8
0
 10
183.599766
 20
349.593448
 42
0.000000
  0
VERTEX
  8
0
 10
192.144422
 20
350.286757
 42
0.000000
  0
VERTEX
  8
0
 10
191.460920
 20
346.643379
 42
0.000000
  0
VERTEX
  8
0
 10
190.777418
 20
343.000000
 42
0.000000
  0
VERTEX
  8
0
 10
200.638709
 20
343.149832
 42
0.004105
  0
VERTEX
  8
0
 10
204.261210
 20
343.234627
 42
0.010868
  0
VERTEX
  8
0
 10
206.849267
 20
343.372830
 42
0.036417
  0
VERTEX
  8
0
 10
207.938702
 20
343.535126
 42
0.828167
  0
VERTEX
  8
0
 10
207.933265
 20
343.698570
 42
-0.072082
  0
VERTEX
  8
0
 10
206.674079
 20
344.085457
 42
-0.087422
  0
VERTEX
  8
0
 10
205.667662
 20
344.798508
 42
-0.073050
  0
VERTEX
  8
0
 10
204.840908
 20
345.922609
 42
-0.035346
  0
VERTEX
  8
0
 10
204.115071
 20
347.558322
 42
0.103920
  0
VERTEX
  8
0
 10
202.045074
 20
350.903916
 42
0.127088
  0
VERTEX
  8
0
 10
198.931782
 20
352.841964
 42
0.064745
  0
VERTEX
  8
0
 10
193.666136
 20
353.771208
 42
0.011342
  0
VERTEX
  8
0
 10
183.581045
 20
354.000000
 42
0.003043
  0
VERTEX
  8
0
 10
175.930649
 20
353.953442
 42
0.026362
  0
VERTEX
  8
0
 10
172.531529
 20
353.732588
 42
0.083888
  0
VERTEX
  8
0
 10
170.965500
 20
353.273815
 42
0.389256
  0
SEQEND
  0
POLYLINE
  8
0
 66
1
 70
1
  0
VERTEX
  8
0
 10
710.356999
 20
353.008419
 42
0.083759
  0
VERTEX
  8
0
 10
708.701918
 20
351.992105
 42
0.036744
  0
VERTEX
  8
0
 10
706.887676
 20
350.156412
 42
0.035256
  0
VERTEX
  8
0
 10
705.417169
 20
348.163048
 42
0.142223
  0
VERTEX
  8
0
 10
705.000000
 20
346.726108
 42
0.382047
  0
VERTEX
  8
0
 10
705.289958
 20
346.402016
 42
0.008932
  0
VERTEX
  8
0
 10
707.496875
 20
346.195744
 42
0.015199
  0
VERTEX
  8
0
 10
710.240891
 20
346.072355
 42
0.009145
  0
VERTEX
  8
0
 10
713.500000
 20
346.084572
 42
0.010382
  0
VERTEX
  8
0
 10
716.758886
 20
346.224137
 42
0.017104
  0
VERTEX
  8
0
 10
719.503125
 20
346.493292
 42
0.011151
  0
VERTEX
  8
0
 10
721.681045
 20
346.831976
 42
0.363392
  0
VERTEX
  8
0
 10
722.000000
 20
347.212881
 42
0.188507
  0
VERTEX
  8
0
 10
721.389310
 20
348.775130
 42
0.026497
  0
VERTEX
  8
0
 10
718.863513
 20
351.236763
 42
0.027482
  0
VERTEX
  8
0
 10
716.078738
 20
353.418646
 42
0.162491
  0
VERTEX
  8
0
 10
714.326923
 20
353.936614
 42
0.032604
  0
VERTEX
  8
0
 10
713.474057
 20
353.851157
 42
0.016159
  0
VERTEX
  8
0
 10
712.407152
 20
353.637810
 42
0.015965
  0
VERTEX
  8
0
 10
711.310945
 20
353.344308
 42
0.022511
  0
SEQEND
  0
POLYLINE
  8
0
 66
1
 70
1
  0
VERTEX
  8
0
 10
425.080684
 20
341.000000
 42
0.018867
  0
VERTEX
  8
0
 10
422.658212
 20
336.010140
 42
0.473150
  0
VERTEX
  8
0
 10
423.262502
 20
334.819462
 42
0.309082
  0
VERTEX
  8
0
 10
424.895736
 20
335.476079
 42
0.017331
  0
VERTEX
  8
0
 10
427.926609
 20
340.371727
 42
0.004630
  0
VERTEX
  8
0
 10
430.178609
 20
344.393760
 42
0.062155
  0
VERTEX
  8
0
 10
430.799715
 20
345.962389
 42
0.298783
  0
VERTEX
  8
0
 10
430.553760
 20
346.685607
 42
0.167105
  0
VERTEX
  8
0
 10
429.639325
 20
347.000000
 42
0.212465
  0
VERTEX
  8
0
 10
428.940875
 20
346.689177
 42
0.020919
  0
VERTEX
  8
0
 10
427.738946
 20
345.237500
 42
0.023536
  0
VERTEX
  8
0
 10
426.404786
 20
343.298464
 42
0.016478
  0
SEQEND
  0
POLYLINE
  8
0
 66
1
 70
1
  0
VERTEX
  8
0
 10
578.653219
 20
346.247914
 42
0.280975
  0
VERTEX
  8
0
 10
578.643293
 20
344.521289
 42
0.015017
  0
VERTEX
  8
0
 10
581.740408
 20
339.711709
 42
0.014490
  0
VERTEX
  8
0
 10
585.114959
 20
335.094258
 42
0.330588
  0
VERTEX
  8
0
 10
586.604643
 20
334.678529
 42
0.125498
  0
VERTEX
  8
0
 10
587.603672
 20
335.385878
 42
0.226789
  0
VERTEX
  8
0
 10
587.854940
 20
336.334338
 42
0.090204
  0
VERTEX
  8
0
 10
587.283929
 20
337.819823
 42
0.012333
  0
VERTEX
  8
0
 10
585.478914
 20
340.626209
 42
0.027312
  0
VERTEX
  8
0
 10
583.390376
 20
343.368753
 42
0.044122
  0
VERTEX
  8
0
 10
581.300096
 20
345.424865
 42
0.061536
  0
VERTEX
  8
0
 10
579.576078
 20
346.520336
 42
0.382225
  0
SEQEND
  0
POLYLINE
  8
0
 66
1
 70
1
  0
VERTEX
  8
0
 10
680.642780
 20
334.036099
 42
-0.107500
  0
VERTEX
  8
0
 10
680.591364
 20
330.972464
 42
-0.119365
  0
VERTEX
  8
0
 10
679.257164
 20
328.336540
 42
-0.074104
  0
VERTEX
  8
0
 10
676.265181
 20
325.729841
 42
-0.020730
  0
VERTEX
  8
0
 10
670.887932
 20
322.598699
 42
0.010077
  0
VERTEX
  8
0
 10
663.501163
 20
318.505561
 42
0.030644
  0
VERTEX
  8
0
 10
658.725582
 20
315.325848
 42
0.046154
  0
VERTEX
  8
0
 10
655.703591
 20
312.561322
 42
0.100888
  0
VERTEX
  8
0
 10
654.106660
 20
309.876120
 42
0.004271
  0
VERTEX
  8
0
 10
653.202384
 20
307.209040
 42
0.089759
  0
VERTEX
  8
0
 10
653.086229
 20
306.380643
 42
0.417639
  0
VERTEX
  8
0
 10
653.391889
 20
306.101644
 42
0.071291
  0
VERTEX
  8
0
 10
654.250000
 20
306.270016
 42
-0.159494
  0
VERTEX
  8
0
 10
654.818168
 20
306.281249
 42
-0.074651
  0
VERTEX
  8
0
 10
655.489591
 20
305.960564
 42
-0.062500
  0
VERTEX
  8
0
 10
656.157299
 20
305.375591
 42
-0.050754
  0
VERTEX
  8
0
 10
656.714565
 20
304.603349
 42
0.007501
  0
VERTEX
  8
0
 10
657.507244
 20
303.276960
 42
0.425151
  0
VERTEX
  8
0
 10
657.760346
 20
303.222185
 42
0.242381
  0
VERTEX
  8
0
 10
657.925383
 20
303.521193
 42
0.004176
  0
VERTEX
  8
0
 10
657.964565
 20
305.441867
 42
-0.144446
  0
VERTEX
  8
0
 10
658.875759
 20
308.398476
 42
-0.054012
  0
VERTEX
  8
0
 10
661.679832
 20
311.769933
 42
-0.045136
  0
VERTEX
  8
0
 10
665.897370
 20
315.172744
 42
-0.031317
  0
VERTEX
  8
0
 10
671.197266
 20
318.250082
 42
0.019062
  0
VERTEX
  8
0
 10
676.495490
 20
321.155314
 42
0.025807
  0
VERTEX
  8
0
 10
681.027882
 20
324.198477
 42
0.027615
  0
VERTEX
  8
0
 10
684.443293
 20
327.064214
 42
0.113830
  0
VERTEX
  8
0
 10
685.936431
 20
329.290457
 42
0.127677
  0
VERTEX
  8
0
 10
686.132843
 20
331.066768
 42
0.101071
  0
VERTEX
  8
0
 10
685.476517
 20
332.891299
 42
0.081602
  0
VERTEX
  8
0
 10
683.989063
 20
334.623204
 42
0.051782
  0
VERTEX
  8
0
 10
681.781305
 20
336.117042
 42
0.041661
  0
VERTEX
  8
0
 10
680.837355
 20
336.525208
 42
0.363618
  0
VERTEX
  8
0
 10
680.442950
 20
336.371026
 42
0.164689
  0
VERTEX
  8
0
 10
680.336853
 20
335.768081
 42
0.011283
  0
SEQEND
  0
POLYLINE
  8
0
 66
1
 70
1
  0
VERTEX
  8
0
 10
194.317685
 20
320.000000
 42
0.026912
  0
VERTEX
  8
0
 10
190.897015
 20
317.411347
 42
0.022782
  0
VERTEX
  8
0
 10
187.569745
 20
314.329109
 42
0.022041
  0
VERTEX
  8
0
 10
185.146129
 20
311.642486
 42
0.634181
  0
VERTEX
  8
0
 10
185.448950
 20
311.000000
 42
0.088092
  0
VERTEX
  8
0
 10
185.884475
 20
311.077332
 42
0.001072
  0
VERTEX
  8
0
 10
188.579403
 20
312.072073
 42
0.003157
  0
VERTEX
  8
0
 10
191.691634
 20
313.250852
 42
0.002056
  0
VERTEX
  8
0
 10
195.271530
 20
314.649612
 42
-0.011423
  0
VERTEX
  8
0
 10
203.000154
 20
317.503697
 42
-0.020180
  0
VERTEX
  8
0
 10
209.514254
 20
319.451517
 42
-0.024346
  0
VERTEX
  8
0
 10
215.108677
 20
320.594392
 42
-0.038210
  0
VERTEX
  8
0
 10
220.000000
 20
320.969066
 42
-0.038833
  0
VERTEX
  8
0
 10
225.663927
 20
320.528898
 42
-0.395994
  0
VERTEX
  8
0
 10
226.986084
 20
318.830637
 42
-0.264619
  0
VERTEX
  8
0
 10
225.436676
 20
316.613580
 42
-0.027934
  0
VERTEX
  8
0
 10
219.365480
 20
314.134973
 42
0.033593
  0
VERTEX
  8
0
 10
211.753958
 20
310.926638
 42
0.035533
  0
VERTEX
  8
0
 10
204.789035
 20
306.778992
 42
0.040314
  0
VERTEX
  8
0
 10
200.038850
 20
302.868645
 42
0.485083
  0
VERTEX
  8
0
 10
200.247531
 20
300.825856
 42
0.116267
  0
VERTEX
  8
0
 10
201.154943
 20
300.510766
 42
0.007296
  0
VERTEX
  8
0
 10
203.996150
 20
300.259726
 42
0.010444
  0
VERTEX
  8
0
 10
207.423939
 20
300.079087
 42
0.007548
  0
VERTEX
  8
0
 10
211.250000
 20
300.015313
 42
0.000000
  0
VERTEX
  8
0
 10
221.000000
 20
300.000000
 42
0.000000
  0
VERTEX
  8
0
 10
221.000000
 20
303.049660
 42
-0.070322
  0
VERTEX
  8
0
 10
221.435411
 20
306.130174
 42
-0.048940
  0
VERTEX
  8
0
 10
222.735744
 20
309.398794
 42
-0.042510
  0
VERTEX
  8
0
 10
224.870170
 20
312.792694
 42
-0.029412
  0
VERTEX
  8
0
 10
227.811676
 20
316.248509
 42
0.014950
  0
VERTEX
  8
0
 10
229.514345
 20
318.135533
 42
0.060203
  0
VERTEX
  8
0
 10
230.368600
 20
319.428300
 42
0.121951
  0
VERTEX
  8
0
 10
230.582795
 20
320.381846
 42
0.193268
  0
VERTEX
  8
0
 10
230.258354
 20
321.141646
 42
0.162445
  0
VERTEX
  8
0
 10
229.226791
 20
321.657007
 42
0.007970
  0
VERTEX
  8
0
 10
225.393620
 20
322.139846
 42
0.011264
  0
VERTEX
  8
0
 10
220.471129
 20
322.568375
 42
0.005837
  0
VERTEX
  8
0
 10
214.306863
 20
322.893137
 42
0.000000
  0
VERTEX
  8
0
 10
199.500000
 20
323.500000
 42
0.000000
  0
SEQEND
  0
POLYLINE
  8
0
 66
1
 70
1
  0
VERTEX
  8
0
 10
748.000000
 20
318.000000
 42
0.038382
  0
VERTEX
  8
0
 10
746.043065
 20
317.565218
 42
0.117619
  0
VERTEX
  8
0
 10
744.878429
 20
316.883599
 42
0.101180
  0
VERTEX
  8
0
 10
744.049442
 20
315.685928
 42
0.024300
  0
VERTEX
  8
0
 10
743.204795
 20
313.408734
 42
-0.037310
  0
VERTEX
  8
0
 10
742.371362
 20
311.329220
 42
-0.059524
  0
VERTEX
  8
0
 10
741.331735
 20
309.723822
 42
-0.057971
  0
VERTEX
  8
0
 10
739.921893
 20
308.380068
 42
-0.033401
  0
VERTEX
  8
0
 10
737.956140
 20
307.095505
 42
0.023188
  0
VERTEX
  8
0
 10
736.366673
 20
306.102525
 42
0.022508
  0
VERTEX
  8
0
 10
734.859535
 20
304.957317
 42
0.023090
  0
VERTEX
  8
0
 10
733.628832
 20
303.831409
 42
0.073198
  0
VERTEX
  8
0
 10
732.966161
 20
302.936771
 42
-0.082126
  0
VERTEX
  8
0
 10
732.383316
 20
302.178424
 42
-0.060908
  0
VERTEX
  8
0
 10
731.527750
 20
301.554664
 42
-0.059289
  0
VERTEX
  8
0
 10
730.520306
 20
301.140713
 42
-0.067960
  0
VERTEX
  8
0
 10
729.489816
 20
301.000000
 42
-0.040663
  0
VERTEX
  8
0
 10
728.123446
 20
301.111307
 42
-0.227713
  0
VERTEX
  8
0
 10
727.538488
 20
301.520454
 42
-0.158043
  0
VERTEX
  8
0
 10
727.372383
 20
302.343429
 42
-0.017844
  0
VERTEX
  8
0
 10
727.660570
 20
304.250000
 42
-0.016309
  0
VERTEX
  8
0
 10
727.988715
 20
305.729107
 42
-0.009212
  0
VERTEX
  8
0
 10
728.477597
 20
307.500000
 42
-0.009188
  0
VERTEX
  8
0
 10
729.037025
 20
309.269827
 42
-0.014883
  0
VERTEX
  8
0
 10
729.584543
 20
310.750000
 42
0.021446
  0
VERTEX
  8
0
 10
730.027211
 20
311.996760
 42
0.039660
  0
VERTEX
  8
0
 10
730.260595
 20
313.045313
 42
0.055433
  0
VERTEX
  8
0
 10
730.281851
 20
313.778674
 42
0.390459
  0
VERTEX
  8
0
 10
730.041643
 20
314.000000
 42
0.209995
  0
VERTEX
  8
0
 10
728.608505
 20
313.370330
 42
0.007789
  0
VERTEX
  8
0
 10
724.593456
 20
308.859097
 42
0.011383
  0
VERTEX
  8
0
 10
720.855316
 20
304.319944
 42
0.102957
  0
VERTEX
  8
0
 10
719.718205
 20
302.030415
 42
0.387259
  0
VERTEX
  8
0
 10
720.345197
 20
300.835344
 42
0.069711
  0
VERTEX
  8
0
 10
723.029163
 20
300.264743
 42
0.016785
  0
VERTEX
  8
0
 10
729.135503
 20
300.040467
 42
0.000917
  0
VERTEX
  8
0
 10
748.343620
 20
300.015313
 42
0.002928
  0
VERTEX
  8
0
 10
759.697177
 20
300.087766
 42
0.004642
  0
VERTEX
  8
0
 10
769.420518
 20
300.297061
 42
0.001615
  0
VERTEX
  8
0
 10
777.747139
 20
300.580575
 42
0.132434
  0
VERTEX
  8
0
 10
778.967923
 20
300.959014
 42
0.070751
  0
VERTEX
  8
0
 10
779.637211
 20
301.528730
 42
0.246927
  0
VERTEX
  8
0
 10
779.767842
 20
302.062179
 42
0.135419
  0
VERTEX
  8
0
 10
779.405711
 20
302.704723
 42
0.018485
  0
VERTEX
  8
0
 10
778.268838
 20
303.766838
 42
0.043144
  0
VERTEX
  8
0
 10
777.139053
 20
304.587495
 42
0.017560
  0
VERTEX
  8
0
 10
775.476389
 20
305.510687
 42
0.017220
  0
VERTEX
  8
0
 10
773.609368
 20
306.383519
 42
0.021028
  0
VERTEX
  8
0
 10
771.805659
 20
307.064138
 42
0.000000
  0
VERTEX
  8
0
 10
767.509489
 20
308.482002
 42
0.000000
  0
VERTEX
  8
0
 10
770.504744
 20
309.122686
 42
0.092847
  0
VERTEX
  8
0
 10
771.170180
 20
309.400808
 42
0.671019
  0
VERTEX
  8
0
 10
771.124241
 20
309.636777
 42
0.039918
  0
VERTEX
  8
0
 10
769.741513
 20
309.798887
 42
0.004884
  0
VERTEX
  8
0
 10
766.692017
 20
309.881685
 42
-0.012824
  0
VERTEX
  8
0
 10
762.403018
 20
310.066331
 42
-0.077492
  0
VERTEX
  8
0
 10
760.237461
 20
310.558207
 42
-0.086052
  0
VERTEX
  8
0
 10
758.425648
 20
311.668293
 42
-0.017723
  0
VERTEX
  8
0
 10
755.692017
 20
314.250000
 42
0.014412
  0
VERTEX
  8
0
 10
753.218383
 20
316.617342
 42
0.070368
  0
VERTEX
  8
0
 10
751.616641
 20
317.699376
 42
0.101518
  0
VERTEX
  8
0
 10
750.070325
 20
318.096308
 42
0.047742
  0
SEQEND
  0
POLYLINE
  8
0
 66
1
 70
1
  0
VERTEX
  8
0
 10
236.875961
 20
312.561682
 42
0.062906
  0
VERTEX
  8
0
 10
233.573659
 20
309.650745
 42
0.033698
  0
VERTEX
  8
0
 10
230.255762
 20
305.333847
 42
0.029254
  0
VERTEX
  8
0
 10
227.712371
 20
300.987282
 42
0.212449
  0
VERTEX
  8
0
 10
227.588986
 20
298.628701
 42
0.215434
  0
VERTEX
  8
0
 10
229.835329
 20
296.406450
 42
0.049835
  0
VERTEX
  8
0
 10
235.109158
 20
295.025851
 42
0.037161
  0
VERTEX
  8
0
 10
242.737528
 20
294.397674
 42
0.016773
  0
VERTEX
  8
0
 10
252.777700
 20
294.655449
 42
0.003517
  0
VERTEX
  8
0
 10
257.835687
 20
294.991009
 42
0.008844
  0
VERTEX
  8
0
 10
261.514387
 20
295.326577
 42
0.023897
  0
VERTEX
  8
0
 10
263.260133
 20
295.601932
 42
0.858013
  0
VERTEX
  8
0
 10
263.250000
 20
295.797819
 42
-0.021234
  0
VERTEX
  8
0
 10
262.004583
 20
295.977541
 42
-0.033064
  0
VERTEX
  8
0
 10
260.954687
 20
296.247731
 42
-0.035227
  0
VERTEX
  8
0
 10
260.190965
 20
296.560245
 42
-0.285380
  0
VERTEX
  8
0
 10
260.000000
 20
296.867578
 42
0.139027
  0
VERTEX
  8
0
 10
259.641979
 20
298.130289
 42
0.004976
  0
VERTEX
  8
0
 10
256.930936
 20
302.430381
 42
0.002998
  0
VERTEX
  8
0
 10
254.062397
 20
306.823391
 42
0.485098
  0
VERTEX
  8
0
 10
253.556783
 20
306.865465
 42
0.203089
  0
VERTEX
  8
0
 10
253.445442
 20
306.560236
 42
0.006416
  0
VERTEX
  8
0
 10
253.531544
 20
305.212043
 42
0.011524
  0
VERTEX
  8
0
 10
253.693052
 20
303.596763
 42
0.007626
  0
VERTEX
  8
0
 10
253.949450
 20
301.750000
 42
0.000000
  0
VERTEX
  8
0
 10
254.682929
 20
297.000000
 42
0.000000
  0
VERTEX
  8
0
 10
249.900482
 20
297.000000
 42
-0.020695
  0
VERTEX
  8
0
 10
248.020948
 20
297.077829
 42
-0.027628
  0
VERTEX
  8
0
 10
246.329587
 20
297.312751
 42
-0.027233
  0
VERTEX
  8
0
 10
244.994004
 20
297.650523
 42
-0.180694
  0
VERTEX
  8
0
 10
244.460023
 20
298.064685
 42
-0.098957
  0
VERTEX
  8
0
 10
244.176664
 20
298.826019
 42
-0.006567
  0
VERTEX
  8
0
 10
243.835532
 20
301.147617
 42
-0.009282
  0
VERTEX
  8
0
 10
243.514396
 20
303.947535
 42
-0.006799
  0
VERTEX
  8
0
 10
243.258113
 20
307.064685
 42
0.010819
  0
VERTEX
  8
0
 10
242.959845
 20
310.367194
 42
0.023900
  0
VERTEX
  8
0
 10
242.557926
 20
312.865684
 42
0.024376
  0
VERTEX
  8
0
 10
242.096682
 20
314.627671
 42
0.327516
  0
VERTEX
  8
0
 10
241.589242
 20
315.000000
 42
0.104762
  0
VERTEX
  8
0
 10
240.951588
 20
314.864913
 42
0.014973
  0
VERTEX
  8
0
 10
239.740664
 20
314.283744
 42
0.016473
  0
VERTEX
  8
0
 10
238.332290
 20
313.495295
 42
0.013387
  0
SEQEND
  0
POLYLINE
  8
0
 66
1
 70
1
  0
VERTEX
  8
0
 10
328.539591
 20
298.068148
 42
-0.020520
  0
VERTEX
  8
0
 10
327.740997
 20
296.975889
 42
-0.032714
  0
VERTEX
  8
0
 10
326.963167
 20
296.120180
 42
-0.034965
  0
VERTEX
  8
0
 10
326.294369
 20
295.559447
 42
-0.304250
  0
VERTEX
  8
0
 10
325.925955
 20
295.545762
 42
0.487067
  0
VERTEX
  8
0
 10
325.670363
 20
295.451617
 42
0.033579
  0
VERTEX
  8
0
 10
325.455597
 20
294.589870
 42
0.027830
  0
VERTEX
  8
0
 10
325.300257
 20
293.317310
 42
0.014640
  0
VERTEX
  8
0
 10
325.242034
 20
291.724740
 42
0.092138
  0
VERTEX
  8
0
 10
325.872252
 20
288.191103
 42
0.075784
  0
VERTEX
  8
0
 10
327.750645
 20
284.845003
 42
0.061642
  0
VERTEX
  8
0
 10
330.941269
 20
281.657804
 42
0.034663
  0
VERTEX
  8
0
 10
335.490905
 20
278.595490
 42
0.025965
  0
VERTEX
  8
0
 10
338.418969
 20
277.103637
 42
0.022296
  0
VERTEX
  8
0
 10
341.636948
 20
275.838008
 42
0.015355
  0
VERTEX
  8
0
 10
344.498233
 20
274.954712
 42
0.495297
  0
VERTEX
  8
0
 10
345.000000
 20
275.336982
 42
0.222928
  0
VERTEX
  8
0
 10
344.890380
 20
275.570628
 42
0.002132
  0
VERTEX
  8
0
 10
343.402177
 20
276.796810
 42
0.006559
  0
VERTEX
  8
0
 10
341.645679
 20
278.193514
 42
0.004137
  0
VERTEX
  8
0
 10
339.560602
 20
279.779895
 42
0.011217
  0
VERTEX
  8
0
 10
337.507840
 20
281.244412
 42
0.025467
  0
VERTEX
  8
0
 10
335.879528
 20
282.234538
 42
0.049926
  0
VERTEX
  8
0
 10
334.880132
 20
282.651949
 42
0.624540
  0
VERTEX
  8
0
 10
334.667591
 20
282.423861
 42
-0.113643
  0
VERTEX
  8
0
 10
334.795220
 20
281.518794
 42
-0.330357
  0
VERTEX
  8
0
 10
334.400972
 20
281.073224
 42
-0.157335
  0
VERTEX
  8
0
 10
333.497476
 20
281.167360
 42
-0.037231
  0
VERTEX
  8
0
 10
332.143237
 20
281.890313
 42
-0.048187
  0
VERTEX
  8
0
 10
331.604479
 20
282.309380
 42
-0.157800
  0
VERTEX
  8
0
 10
331.390688
 20
282.700352
 42
-0.212250
  0
VERTEX
  8
0
 10
331.476831
 20
283.066749
 42
-0.092264
  0
VERTEX
  8
0
 10
331.855027
 20
283.410402
 42
0.145786
  0
VERTEX
  8
0
 10
332.264695
 20
283.870307
 42
0.104255
  0
VERTEX
  8
0
 10
332.422999
 20
284.545197
 42
0.068949
  0
VERTEX
  8
0
 10
332.316135
 20
285.470007
 42
0.027657
  0
VERTEX
  8
0
 10
331.929197
 20
286.686226
 42
-0.061696
  0
VERTEX
  8
0
 10
331.586099
 20
288.087730
 42
-0.019396
  0
VERTEX
  8
0
 10
331.417432
 20
290.244000
 42
-0.018919
  0
VERTEX
  8
0
 10
331.413887
 20
292.704035
 42
-0.019069
  0
VERTEX
  8
0
 10
331.596574
 20
295.150825
 42
0.013685
  0
VERTEX
  8
0
 10
331.958736
 20
299.386760
 42
0.220129
  0
VERTEX
  8
0
 10
331.445633
 20
300.688667
 42
0.432781
  0
VERTEX
  8
0
 10
330.469467
 20
300.635061
 42
0.027198
  0
SEQEND
  0
POLYLINE
  8
0
 66
1
 70
1
  0
VERTEX
  8
0
 10
329.127555
 20
285.250000
 42
-0.001576
  0
VERTEX
  8
0
 10
330.007640
 20
284.120493
 42
-0.377591
  0
VERTEX
  8
0
 10
330.000000
 20
284.000000
 42
-0.377591
  0
VERTEX
  8
0
 10
329.879507
 20
283.992360
 42
-0.001576
  0
VERTEX
  8
0
 10
328.750000
 20
284.872445
 42
-0.017685
  0
VERTEX
  8
0
 10
327.693241
 20
285.763320
 42
-0.065617
  0
VERTEX
  8
0
 10
327.130484
 20
286.426111
 42
-0.241985
  0
VERTEX
  8
0
 10
327.093050
 20
286.806605
 42
-0.307699
  0
VERTEX
  8
0
 10
327.377555
 20
287.000000
 42
-0.184603
  0
VERTEX
  8
0
 10
327.589861
 20
286.918850
 42
-0.013803
  0
VERTEX
  8
0
 10
328.047359
 20
286.485937
 42
-0.017649
  0
VERTEX
  8
0
 10
328.574319
 20
285.920402
 42
-0.012436
  0
SEQEND
  0
POLYLINE
  8
0
 66
1
 70
1
  0
VERTEX
  8
0
 10
378.000000
 20
295.981637
 42
0.007608
  0
VERTEX
  8
0
 10
376.828476
 20
295.608172
 42
0.003771
  0
VERTEX
  8
0
 10
375.353125
 20
295.100587
 42
0.003741
  0
VERTEX
  8
0
 10
373.830909
 20
294.551168
 42
0.005472
  0
VERTEX
  8
0
 10
372.500000
 20
294.042891
 42
-0.005204
  0
VERTEX
  8
0
 10
371.331454
 20
293.595902
 42
-0.007876
  0
VERTEX
  8
0
 10
370.304735
 20
293.233654
 42
-0.003679
  0
VERTEX
  8
0
 10
369.429757
 20
292.947501
 42
-0.162231
  0
VERTEX
  8
0
 10
369.239522
 20
292.949963
 42
0.186677
  0
VERTEX
  8
0
 10
369.052331
 20
292.943501
 42
0.004033
  0
VERTEX
  8
0
 10
368.198205
 20
292.570566
 42
0.008690
  0
VERTEX
  8
0
 10
367.197805
 20
292.103108
 42
0.005687
  0
VERTEX
  8
0
 10
366.060391
 20
291.531229
 42
0.073238
  0
VERTEX
  8
0
 10
363.928726
 20
289.998240
 42
0.097103
  0
VERTEX
  8
0
 10
362.567922
 20
288.040909
 42
0.137255
  0
VERTEX
  8
0
 10
362.306274
 20
286.199104
 42
0.222098
  0
VERTEX
  8
0
 10
363.142988
 20
284.890229
 42
0.063510
  0
VERTEX
  8
0
 10
365.371329
 20
283.846459
 42
0.010684
  0
VERTEX
  8
0
 10
369.894357
 20
282.497528
 42
0.012427
  0
VERTEX
  8
0
 10
374.866600
 20
281.261659
 42
0.018831
  0
VERTEX
  8
0
 10
379.250000
 20
280.459004
 42
0.000000
  0
VERTEX
  8
0
 10
384.000000
 20
279.772912
 42
0.000000
  0
VERTEX
  8
0
 10
383.929715
 20
286.636456
 42
0.013742
  0
VERTEX
  8
0
 10
383.691229
 20
292.955695
 42
0.125709
  0
VERTEX
  8
0
 10
382.845193
 20
295.549368
 42
0.260475
  0
VERTEX
  8
0
 10
381.145288
 20
296.468680
 42
0.069992
  0
SEQEND
  0
POLYLINE
  8
0
 66
1
 70
1
  0
VERTEX
  8
0
 10
626.988994
 20
291.705641
 42
-0.009579
  0
VERTEX
  8
0
 10
626.940938
 20
289.446744
 42
-0.007174
  0
VERTEX
  8
0
 10
626.804682
 20
286.961716
 42
-0.007258
  0
VERTEX
  8
0
 10
626.608781
 20
284.624948
 42
-0.016439
  0
VERTEX
  8
0
 10
626.377002
 20
282.866160
 42
0.000000
  0
VERTEX
  8
0
 10
625.776015
 20
279.232319
 42
0.000000
  0
VERTEX
  8
0
 10
630.845114
 20
280.153657
 42
0.022306
  0
VERTEX
  8
0
 10
638.199880
 20
281.832315
 42
0.074007
  0
VERTEX
  8
0
 10
642.725605
 20
283.835738
 42
0.175032
  0
VERTEX
  8
0
 10
644.470640
 20
286.085341
 42
0.256920
  0
VERTEX
  8
0
 10
644.008909
 20
288.489265
 42
0.076788
  0
VERTEX
  8
0
 10
642.251023
 20
290.046031
 42
0.019728
  0
VERTEX
  8
0
 10
638.971662
 20
291.976595
 42
0.019606
  0
VERTEX
  8
0
 10
635.008144
 20
293.907902
 42
0.018757
  0
VERTEX
  8
0
 10
630.847243
 20
295.553896
 42
0.000000
  0
VERTEX
  8
0
 10
627.000000
 20
296.911282
 42
0.000000
  0
SEQEND
  0
POLYLINE
  8
0
 66
1
 70
1
  0
VERTEX
  8
0
 10
432.468954
 20
286.750000
 42
0.003533
  0
VERTEX
  8
0
 10
432.716401
 20
285.515520
 42
0.002209
  0
VERTEX
  8
0
 10
433.022725
 20
284.073438
 42
0.002216
  0
VERTEX
  8
0
 10
433.337116
 20
282.655246
 42
0.004034
  0
VERTEX
  8
0
 10
433.608408
 20
281.500000
 42
-0.090411
  0
VERTEX
  8
0
 10
433.701418
 20
279.908911
 42
-0.256184
  0
VERTEX
  8
0
 10
433.073758
 20
279.036241
 42
-0.118278
  0
VERTEX
  8
0
 10
431.522288
 20
278.705182
 42
-0.015809
  0
VERTEX
  8
0
 10
428.159102
 20
278.896574
 42
0.039702
  0
VERTEX
  8
0
 10
426.831783
 20
278.908653
 42
0.259538
  0
VERTEX
  8
0
 10
426.293599
 20
278.557485
 42
0.161102
  0
VERTEX
  8
0
 10
426.163427
 20
277.777326
 42
0.014488
  0
VERTEX
  8
0
 10
426.529194
 20
275.802099
 42
0.050811
  0
VERTEX
  8
0
 10
429.538339
 20
266.523588
 42
0.044930
  0
VERTEX
  8
0
 10
434.456204
 20
257.626319
 42
0.047646
  0
VERTEX
  8
0
 10
440.234970
 20
250.624075
 42
0.126618
  0
VERTEX
  8
0
 10
445.775438
 20
247.350096
 42
0.025452
  0
VERTEX
  8
0
 10
451.436914
 20
246.018953
 42
0.004516
  0
VERTEX
  8
0
 10
462.172756
 20
244.164973
 42
0.005215
  0
VERTEX
  8
0
 10
473.333877
 20
242.460527
 42
0.012080
  0
VERTEX
  8
0
 10
481.750000
 20
241.471720
 42
0.004880
  0
VERTEX
  8
0
 10
486.312627
 20
241.091986
 42
0.066998
  0
VERTEX
  8
0
 10
487.967782
 20
241.192278
 42
0.227096
  0
VERTEX
  8
0
 10
488.717315
 20
241.751424
 42
0.121403
  0
VERTEX
  8
0
 10
489.000000
 20
242.898509
 42
0.081916
  0
VERTEX
  8
0
 10
488.820666
 20
243.985787
 42
0.187335
  0
VERTEX
  8
0
 10
488.295739
 20
244.612414
 42
0.107535
  0
VERTEX
  8
0
 10
487.251472
 20
244.922741
 42
0.018655
  0
VERTEX
  8
0
 10
485.181501
 20
245.000000
 42
-0.050478
  0
VERTEX
  8
0
 10
480.579429
 20
245.465790
 42
-0.031868
  0
VERTEX
  8
0
 10
475.365761
 20
246.883235
 42
-0.027506
  0
VERTEX
  8
0
 10
469.569883
 20
249.226249
 42
-0.018281
  0
VERTEX
  8
0
 10
463.194894
 20
252.510581
 42
-0.040818
  0
VERTEX
  8
0
 10
454.396126
 20
258.451346
 42
-0.039970
  0
VERTEX
  8
0
 10
446.612484
 20
265.780934
 42
-0.038924
  0
VERTEX
  8
0
 10
439.915833
 20
274.450109
 42
-0.034726
  0
VERTEX
  8
0
 10
434.354803
 20
284.380410
 42
0.008063
  0
VERTEX
  8
0
 10
433.362322
 20
286.397816
 42
0.049763
  0
VERTEX
  8
0
 10
432.736385
 20
287.368450
 42
0.605082
  0
VERTEX
  8
0
 10
432.498198
 20
287.322715
 42
0.121481
  0
SEQEND
  0
POLYLINE
  8
0
 66
1
 70
1
  0
VERTEX
  8
0
 10
576.206771
 20
284.695270
 42
-0.046564
  0
VERTEX
  8
0
 10
573.881325
 20
279.756178
 42
-0.020462
  0
VERTEX
  8
0
 10
569.953039
 20
273.681338
 42
-0.019811
  0
VERTEX
  8
0
 10
565.164554
 20
267.441534
 42
-0.022812
  0
VERTEX
  8
0
 10
560.106329
 20
261.899433
 42
-0.036809
  0
VERTEX
  8
0
 10
552.993849
 20
255.763599
 42
-0.045656
  0
VERTEX
  8
0
 10
545.530697
 20
251.218861
 42
-0.039762
  0
VERTEX
  8
0
 10
536.565100
 20
247.676814
 42
-0.019810
  0
VERTEX
  8
0
 10
524.750000
 20
244.569741
 42
0.054077
  0
VERTEX
  8
0
 10
522.336553
 20
243.754959
 42
0.546710
  0
VERTEX
  8
0
 10
522.217836
 20
242.890855
 42
0.155855
  0
VERTEX
  8
0
 10
523.924196
 20
242.174479
 42
0.022430
  0
VERTEX
  8
0
 10
527.750000
 20
242.008307
 42
0.016211
  0
VERTEX
  8
0
 10
530.668130
 20
242.107161
 42
0.005524
  0
VERTEX
  8
0
 10
534.895313
 20
242.434701
 42
0.005485
  0
VERTEX
  8
0
 10
539.558363
 20
242.899499
 42
0.006297
  0
VERTEX
  8
0
 10
544.000000
 20
243.448198
 42
-0.000218
  0
VERTEX
  8
0
 10
548.386693
 20
244.044338
 42
-0.000202
  0
VERTEX
  8
0
 10
552.884375
 20
244.651709
 42
-0.000202
  0
VERTEX
  8
0
 10
556.885853
 20
245.188780
 42
-0.000682
  0
VERTEX
  8
0
 10
559.500000
 20
245.534944
 42
0.030444
  0
VERTEX
  8
0
 10
564.364727
 20
246.476375
 42
0.061096
  0
VERTEX
  8
0
 10
568.001108
 20
247.903839
 42
0.067654
  0
VERTEX
  8
0
 10
570.945332
 20
250.055977
 42
0.046093
  0
VERTEX
  8
0
 10
573.659924
 20
253.199144
 42
0.019996
  0
VERTEX
  8
0
 10
576.703586
 20
257.842146
 42
0.025158
  0
VERTEX
  8
0
 10
579.123003
 20
262.378442
 42
0.024587
  0
VERTEX
  8
0
 10
581.115999
 20
267.220069
 42
0.017753
  0
VERTEX
  8
0
 10
582.874220
 20
272.788667
 42
0.000000
  0
VERTEX
  8
0
 10
584.812132
 20
279.781857
 42
0.000000
  0
VERTEX
  8
0
 10
580.469672
 20
279.329353
 42
0.000000
  0
VERTEX
  8
0
 10
576.127211
 20
278.876849
 42
0.000000
  0
VERTEX
  8
0
 10
577.127069
 20
282.498035
 42
0.016274
  0
VERTEX
  8
0
 10
577.890559
 20
285.660979
 42
0.151379
  0
VERTEX
  8
0
 10
577.757251
 20
287.042900
 42
0.643984
  0
VERTEX
  8
0
 10
577.210957
 20
287.059230
 42
0.027365
  0
SEQEND
  0
POLYLINE
  8
0
 66
1
 70
1
  0
VERTEX
  8
0
 10
596.613654
 20
283.250000
 42
0.003426
  0
VERTEX
  8
0
 10
595.374199
 20
276.766250
 42
0.050321
  0
VERTEX
  8
0
 10
595.185320
 20
274.453167
 42
0.213359
  0
VERTEX
  8
0
 10
595.669651
 20
273.423033
 42
0.179617
  0
VERTEX
  8
0
 10
596.809254
 20
273.000000
 42
0.139574
  0
VERTEX
  8
0
 10
598.084108
 20
273.362942
 42
0.158629
  0
VERTEX
  8
0
 10
598.901000
 20
274.329944
 42
0.050033
  0
VERTEX
  8
0
 10
599.535090
 20
276.479667
 42
0.004097
  0
VERTEX
  8
0
 10
600.577092
 20
282.250000
 42
0.013830
  0
VERTEX
  8
0
 10
600.886966
 20
284.405199
 42
0.117854
  0
VERTEX
  8
0
 10
600.771375
 20
285.368017
 42
0.236242
  0
VERTEX
  8
0
 10
600.263098
 20
285.844104
 42
0.072309
  0
VERTEX
  8
0
 10
599.190746
 20
286.000000
 42
0.089023
  0
VERTEX
  8
0
 10
598.243888
 20
285.830068
 42
0.116191
  0
VERTEX
  8
0
 10
597.513232
 20
285.344547
 42
0.095131
  0
VERTEX
  8
0
 10
596.978973
 20
284.498531
 42
0.044487
  0
SEQEND
  0
POLYLINE
  8
0
 66
1
 70
1
  0
VERTEX
  8
0
 10
410.566546
 20
280.250000
 42
0.015164
  0
VERTEX
  8
0
 10
410.912788
 20
278.284762
 42
0.014361
  0
VERTEX
  8
0
 10
411.382858
 20
276.307813
 42
0.014480
  0
VERTEX
  8
0
 10
411.899468
 20
274.583660
 42
0.047847
  0
VERTEX
  8
0
 10
412.377819
 20
273.500000
 42
0.077563
  0
VERTEX
  8
0
 10
412.966035
 20
272.751615
 42
0.520848
  0
VERTEX
  8
0
 10
413.352604
 20
272.834221
 42
0.080553
  0
VERTEX
  8
0
 10
413.601830
 20
273.856456
 42
0.005357
  0
VERTEX
  8
0
 10
413.806796
 20
276.880801
 42
0.014718
  0
VERTEX
  8
0
 10
413.919769
 20
280.984762
 42
0.069690
  0
VERTEX
  8
0
 10
413.589837
 20
283.308022
 42
0.152247
  0
VERTEX
  8
0
 10
412.784823
 20
284.530330
 42
0.173259
  0
VERTEX
  8
0
 10
411.470112
 20
285.000000
 42
0.159489
  0
VERTEX
  8
0
 10
410.706090
 20
284.749933
 42
0.189778
  0
VERTEX
  8
0
 10
410.303753
 20
284.112558
 42
0.072457
  0
VERTEX
  8
0
 10
410.248215
 20
282.831256
 42
0.010682
  0
SEQEND
  0
POLYLINE
  8
0
 66
1
 70
1
  0
VERTEX
  8
0
 10
237.938826
 20
274.686052
 42
0.044218
  0
VERTEX
  8
0
 10
234.999918
 20
272.782300
 42
0.033644
  0
VERTEX
  8
0
 10
232.140853
 20
270.221346
 42
0.029105
  0
VERTEX
  8
0
 10
229.982928
 20
267.735439
 42
0.383126
  0
VERTEX
  8
0
 10
230.066968
 20
266.617855
 42
0.220753
  0
VERTEX
  8
0
 10
230.464973
 20
266.481772
 42
0.001365
  0
VERTEX
  8
0
 10
234.338422
 20
266.901015
 42
0.005191
  0
VERTEX
  8
0
 10
238.793538
 20
267.442400
 42
0.003243
  0
VERTEX
  8
0
 10
244.000000
 20
268.164397
 42
-0.009406
  0
VERTEX
  8
0
 10
256.365666
 20
269.724114
 42
-0.037056
  0
VERTEX
  8
0
 10
264.033741
 20
269.974039
 42
-0.054811
  0
VERTEX
  8
0
 10
270.029221
 20
269.061725
 42
-0.042873
  0
VERTEX
  8
0
 10
276.225806
 20
266.826351
 42
0.016901
  0
VERTEX
  8
0
 10
282.000420
 20
264.397752
 42
0.227128
  0
VERTEX
  8
0
 10
284.227168
 20
264.581582
 42
0.508410
  0
VERTEX
  8
0
 10
284.366011
 20
265.951004
 42
0.026181
  0
VERTEX
  8
0
 10
280.316221
 20
269.217764
 42
0.030897
  0
VERTEX
  8
0
 10
275.315702
 20
272.385380
 42
0.075205
  0
VERTEX
  8
0
 10
271.230334
 20
273.889433
 42
0.056646
  0
VERTEX
  8
0
 10
266.223010
 20
274.338582
 42
0.011904
  0
VERTEX
  8
0
 10
257.427136
 20
273.920299
 42
-0.003506
  0
VERTEX
  8
0
 10
250.122802
 20
273.449881
 42
-0.034358
  0
VERTEX
  8
0
 10
247.035488
 20
273.485041
 42
-0.088826
  0
VERTEX
  8
0
 10
245.237025
 20
273.958206
 42
-0.109123
  0
VERTEX
  8
0
 10
243.859968
 20
275.009048
 42
0.043669
  0
VERTEX
  8
0
 10
242.745119
 20
276.116213
 42
0.189509
  0
VERTEX
  8
0
 10
241.877001
 20
276.403976
 42
0.100274
  0
VERTEX
  8
0
 10
240.732681
 20
276.106444
 42
0.008044
  0
SEQEND
  0
POLYLINE
  8
0
 66
1
 70
1
  0
VERTEX
  8
0
 10
627.500000
 20
245.444250
 42
-0.024273
  0
VERTEX
  8
0
 10
614.814862
 20
239.400268
 42
-0.015332
  0
VERTEX
  8
0
 10
599.498509
 20
233.539813
 42
-0.015405
  0
VERTEX
  8
0
 10
584.171046
 20
228.731700
 42
-0.029209
  0
VERTEX
  8
0
 10
571.534323
 20
225.975304
 42
0.003759
  0
VERTEX
  8
0
 10
568.688762
 20
225.504758
 42
0.000734
  0
VERTEX
  8
0
 10
563.572582
 20
224.611435
 42
0.000780
  0
VERTEX
  8
0
 10
557.611933
 20
223.552050
 42
0.000722
  0
VERTEX
  8
0
 10
551.500000
 20
222.446829
 42
-0.008880
  0
VERTEX
  8
0
 10
542.254180
 20
220.930240
 42
-0.018259
  0
VERTEX
  8
0
 10
534.962705
 20
220.137401
 42
-0.013730
  0
VERTEX
  8
0
 10
526.435777
 20
219.759081
 42
-0.003139
  0
VERTEX
  8
0
 10
512.000000
 20
219.606001
 42
-0.002747
  0
VERTEX
  8
0
 10
501.739941
 20
219.617975
 42
-0.002513
  0
VERTEX
  8
0
 10
491.171875
 20
219.741489
 42
-0.002512
  0
VERTEX
  8
0
 10
481.736877
 20
219.946605
 42
-0.008211
  0
VERTEX
  8
0
 10
475.500000
 20
220.216090
 42
0.004427
  0
VERTEX
  8
0
 10
470.406930
 20
220.474783
 42
0.016226
  0
VERTEX
  8
0
 10
467.177449
 20
220.505289
 42
0.053755
  0
VERTEX
  8
0
 10
465.792483
 20
220.323643
 42
0.725538
  0
VERTEX
  8
0
 10
465.766688
 20
219.992141
 42
0.084475
  0
VERTEX
  8
0
 10
475.755032
 20
217.710464
 42
0.008759
  0
VERTEX
  8
0
 10
499.931029
 20
216.778926
 42
0.011782
  0
VERTEX
  8
0
 10
524.907151
 20
216.843066
 42
0.027643
  0
VERTEX
  8
0
 10
543.500000
 20
218.359921
 42
0.005542
  0
VERTEX
  8
0
 10
555.927980
 20
220.209746
 42
0.004070
  0
VERTEX
  8
0
 10
569.666002
 20
222.525338
 42
0.004114
  0
VERTEX
  8
0
 10
582.638165
 20
224.930833
 42
0.009084
  0
VERTEX
  8
0
 10
592.489746
 20
227.028028
 42
0.033157
  0
VERTEX
  8
0
 10
606.675968
 20
231.326447
 42
0.023102
  0
VERTEX
  8
0
 10
622.046419
 20
237.946571
 42
0.015307
  0
VERTEX
  8
0
 10
635.600444
 20
245.063329
 42
0.270493
  0
VERTEX
  8
0
 10
638.000000
 20
249.174314
 42
0.411956
  0
VERTEX
  8
0
 10
637.405107
 20
249.773813
 42
0.087485
  0
VERTEX
  8
0
 10
635.798465
 20
249.503290
 42
0.032131
  0
VERTEX
  8
0
 10
632.823657
 20
248.225951
 42
0.005840
  0
SEQEND
  0
POLYLINE
  8
0
 66
1
 70
1
  0
VERTEX
  8
0
 10
382.000000
 20
245.122445
 42
0.106255
  0
VERTEX
  8
0
 10
382.088262
 20
244.711801
 42
0.039687
  0
VERTEX
  8
0
 10
382.373901
 20
244.192361
 42
0.037105
  0
VERTEX
  8
0
 10
382.785797
 20
243.657535
 42
0.036923
  0
VERTEX
  8
0
 10
383.272855
 20
243.188514
 42
0.047251
  0
VERTEX
  8
0
 10
385.355217
 20
241.769109
 42
0.005597
  0
VERTEX
  8
0
 10
390.290458
 20
239.119793
 42
0.001723
  0
VERTEX
  8
0
 10
395.665822
 20
236.334806
 42
0.561124
  0
VERTEX
  8
0
 10
396.000000
 20
236.538824
 42
-0.494463
  0
VERTEX
  8
0
 10
396.149165
 20
236.652781
 42
-0.007031
  0
VERTEX
  8
0
 10
397.395312
 20
236.294315
 42
-0.012876
  0
VERTEX
  8
0
 10
398.928141
 20
235.786505
 42
-0.007393
  0
VERTEX
  8
0
 10
400.750000
 20
235.099824
 42
0.019534
  0
VERTEX
  8
0
 10
408.034714
 20
232.554323
 42
0.009274
  0
VERTEX
  8
0
 10
417.593124
 20
229.820693
 42
0.003281
  0
VERTEX
  8
0
 10
427.360293
 20
227.290841
 42
0.202829
  0
VERTEX
  8
0
 10
429.095523
 20
227.559037
 42
0.354510
  0
VERTEX
  8
0
 10
429.365788
 20
228.333273
 42
0.189711
  0
VERTEX
  8
0
 10
428.654768
 20
229.143148
 42
0.052590
  0
VERTEX
  8
0
 10
426.389301
 20
230.022506
 42
0.012163
  0
VERTEX
  8
0
 10
422.410721
 20
230.999706
 42
-0.032322
  0
VERTEX
  8
0
 10
416.910053
 20
232.588255
 42
-0.005792
  0
VERTEX
  8
0
 10
406.900519
 20
236.325581
 42
-0.006574
  0
VERTEX
  8
0
 10
396.759571
 20
240.400453
 42
-0.018253
  0
VERTEX
  8
0
 10
389.783244
 20
243.614542
 42
0.018257
  0
VERTEX
  8
0
 10
386.491899
 20
245.130882
 42
0.051005
  0
VERTEX
  8
0
 10
384.061906
 20
245.864735
 42
0.104886
  0
VERTEX
  8
0
 10
382.569645
 20
245.838407
 42
0.349284
  0
SEQEND
  0
POLYLINE
  8
0
 66
1
 70
1
  0
VERTEX
  8
0
 10
360.086884
 20
229.500000
 42
-0.027345
  0
VERTEX
  8
0
 10
359.951511
 20
228.828004
 42
-0.001486
  0
VERTEX
  8
0
 10
359.403359
 20
226.737500
 42
-0.002311
  0
VERTEX
  8
0
 10
358.732028
 20
224.254236
 42
-0.001685
  0
VERTEX
  8
0
 10
357.963774
 20
221.500000
 42
0.021579
  0
VERTEX
  8
0
 10
357.158714
 20
218.096028
 42
0.009567
  0
VERTEX
  8
0
 10
356.377771
 20
213.545312
 42
0.009449
  0
VERTEX
  8
0
 10
355.733046
 20
208.686566
 42
0.012581
  0
VERTEX
  8
0
 10
355.342221
 20
204.250000
 42
0.000000
  0
VERTEX
  8
0
 10
354.698659
 20
194.000000
 42
0.000000
  0
VERTEX
  8
0
 10
350.599330
 20
193.921053
 42
0.011877
  0
VERTEX
  8
0
 10
349.103950
 20
193.856699
 42
0.033807
  0
VERTEX
  8
0
 10
348.071366
 20
193.717133
 42
0.137943
  0
VERTEX
  8
0
 10
347.713830
 20
193.532768
 42
0.548843
  0
VERTEX
  8
0
 10
347.750000
 20
193.337719
 42
-0.090428
  0
VERTEX
  8
0
 10
348.227928
 20
193.035484
 42
-0.065415
  0
VERTEX
  8
0
 10
348.632812
 20
192.550763
 42
-0.063989
  0
VERTEX
  8
0
 10
348.906630
 20
191.965264
 42
-0.077566
  0
VERTEX
  8
0
 10
349.000000
 20
191.367007
 42
0.091798
  0
VERTEX
  8
0
 10
349.243215
 20
190.053438
 42
0.010538
  0
VERTEX
  8
0
 10
350.383541
 20
187.257366
 42
0.012029
  0
VERTEX
  8
0
 10
351.646876
 20
184.519874
 42
0.065139
  0
VERTEX
  8
0
 10
352.550638
 20
183.159872
 42
0.341337
  0
VERTEX
  8
0
 10
352.815311
 20
183.107237
 42
0.002989
  0
VERTEX
  8
0
 10
354.765185
 20
184.091687
 42
0.008599
  0
VERTEX
  8
0
 10
357.034833
 20
185.304390
 42
0.005251
  0
VERTEX
  8
0
 10
359.673462
 20
186.809636
 42
-0.008518
  0
VERTEX
  8
0
 10
362.562101
 20
188.432579
 42
-0.007749
  0
VERTEX
  8
0
 10
365.596267
 20
190.009703
 42
-0.007779
  0
VERTEX
  8
0
 10
368.353051
 20
191.335598
 42
-0.024698
  0
VERTEX
  8
0
 10
370.250000
 20
192.100653
 42
0.000000
  0
VERTEX
  8
0
 10
374.000000
 20
193.401777
 42
0.000000
  0
VERTEX
  8
0
 10
374.000000
 20
200.519387
 42
0.017337
  0
VERTEX
  8
0
 10
373.892947
 20
203.605895
 42
0.012932
  0
VERTEX
  8
0
 10
373.569113
 20
206.997155
 42
0.013110
  0
VERTEX
  8
0
 10
373.096775
 20
210.180961
 42
0.028801
  0
VERTEX
  8
0
 10
372.533149
 20
212.576421
 42
0.045109
  0
VERTEX
  8
0
 10
370.820188
 20
216.879723
 42
0.032703
  0
VERTEX
  8
0
 10
368.191827
 20
221.321004
 42
0.031522
  0
VERTEX
  8
0
 10
365.323418
 20
224.995812
 42
0.135232
  0
VERTEX
  8
0
 10
363.016071
 20
226.494899
 42
-0.066300
  0
VERTEX
  8
0
 10
362.260785
 20
226.850231
 42
-0.051542
  0
VERTEX
  8
0
 10
361.551329
 20
227.418256
 42
-0.052707
  0
VERTEX
  8
0
 10
360.990810
 20
228.101075
 42
-0.081341
  0
VERTEX
  8
0
 10
360.680277
 20
228.796988
 42
0.019303
  0
VERTEX
  8
0
 10
360.497573
 20
229.396125
 42
0.091871
  0
VERTEX
  8
0
 10
360.321055
 20
229.705990
 42
0.454854
  0
VERTEX
  8
0
 10
360.184523
 20
229.708173
 42
0.148299
  0
SEQEND
  0
POLYLINE
  8
0
 66
1
 70
1
  0
VERTEX
  8
0
 10
691.993724
 20
220.092305
 42
0.029672
  0
VERTEX
  8
0
 10
683.006861
 20
216.032479
 42
0.012653
  0
VERTEX
  8
0
 10
671.478557
 20
209.600043
 42
0.004550
  0
VERTEX
  8
0
 10
659.973429
 20
202.651096
 42
0.414544
  0
VERTEX
  8
0
 10
659.559782
 20
200.903270
 42
0.194705
  0
VERTEX
  8
0
 10
660.041523
 20
200.550086
 42
0.021412
  0
VERTEX
  8
0
 10
661.409611
 20
200.265336
 42
0.023627
  0
VERTEX
  8
0
 10
663.134484
 20
200.065843
 42
0.016977
  0
VERTEX
  8
0
 10
665.073145
 20
200.000000
 42
0.031397
  0
VERTEX
  8
0
 10
668.015759
 20
200.184963
 42
0.071647
  0
VERTEX
  8
0
 10
670.155958
 20
200.774049
 42
0.055197
  0
VERTEX
  8
0
 10
672.362760
 20
202.043233
 42
0.012830
  0
VERTEX
  8
0
 10
675.752593
 20
204.662537
 42
-0.020134
  0
VERTEX
  8
0
 10
678.467193
 20
206.697487
 42
-0.011171
  0
VERTEX
  8
0
 10
681.928223
 20
208.968324
 42
-0.011126
  0
VERTEX
  8
0
 10
685.541127
 20
211.114750
 42
-0.017615
  0
VERTEX
  8
0
 10
688.737584
 20
212.773143
 42
-0.046749
  0
VERTEX
  8
0
 10
695.929270
 20
215.397786
 42
-0.044067
  0
VERTEX
  8
0
 10
703.627761
 20
216.706833
 42
-0.036503
  0
VERTEX
  8
0
 10
712.650505
 20
216.773393
 42
-0.018484
  0
VERTEX
  8
0
 10
723.959838
 20
215.609403
 42
0.004261
  0
VERTEX
  8
0
 10
728.606866
 20
214.997121
 42
0.004767
  0
VERTEX
  8
0
 10
733.093272
 20
214.488230
 42
0.004401
  0
VERTEX
  8
0
 10
736.921038
 20
214.124999
 42
0.025176
  0
VERTEX
  8
0
 10
738.959838
 20
214.052658
 42
0.000000
  0
VERTEX
  8
0
 10
742.500000
 20
214.105316
 42
0.000000
  0
VERTEX
  8
0
 10
737.808581
 20
216.434411
 42
0.022277
  0
VERTEX
  8
0
 10
731.994545
 20
219.004791
 42
0.045696
  0
VERTEX
  8
0
 10
727.212121
 20
220.382012
 42
0.033880
  0
VERTEX
  8
0
 10
721.420730
 20
221.088122
 42
0.007637
  0
VERTEX
  8
0
 10
711.500000
 20
221.468441
 42
0.004571
  0
VERTEX
  8
0
 10
703.402400
 20
221.581029
 42
0.018801
  0
VERTEX
  8
0
 10
698.500440
 20
221.420015
 42
0.030702
  0
VERTEX
  8
0
 10
695.013585
 20
220.957710
 42
0.042972
  0
SEQEND
  0
POLYLINE
  8
0
 66
1
 70
1
  0
VERTEX
  8
0
 10
645.753988
 20
208.401251
 42
0.029811
  0
VERTEX
  8
0
 10
643.701286
 20
207.633439
 42
0.034450
  0
VERTEX
  8
0
 10
641.855435
 20
206.657370
 42
0.037902
  0
VERTEX
  8
0
 10
640.357645
 20
205.562890
 42
0.071103
  0
VERTEX
  8
0
 10
639.368529
 20
204.439694
 42
0.016207
  0
VERTEX
  8
0
 10
638.768090
 20
203.455123
 42
0.025389
  0
VERTEX
  8
0
 10
638.323899
 20
202.568525
 42
0.022755
  0
VERTEX
  8
0
 10
638.046140
 20
201.848521
 42
0.295768
  0
VERTEX
  8
0
 10
638.114542
 20
201.583359
 42
0.167696
  0
VERTEX
  8
0
 10
638.461155
 20
201.432340
 42
0.001516
  0
VERTEX
  8
0
 10
641.324272
 20
201.215580
 42
0.004967
  0
VERTEX
  8
0
 10
644.639075
 20
201.007810
 42
0.003162
  0
VERTEX
  8
0
 10
648.500000
 20
200.828768
 42
0.002698
  0
VERTEX
  8
0
 10
652.221920
 20
200.699870
 42
0.006056
  0
VERTEX
  8
0
 10
655.048437
 20
200.651503
 42
0.009927
  0
VERTEX
  8
0
 10
656.740681
 20
200.676642
 42
0.887955
  0
VERTEX
  8
0
 10
656.750000
 20
200.787526
 42
-0.116410
  0
VERTEX
  8
0
 10
655.616443
 20
201.313144
 42
-0.194486
  0
VERTEX
  8
0
 10
655.100920
 20
202.212139
 42
-0.089817
  0
VERTEX
  8
0
 10
655.167752
 20
203.777594
 42
-0.014371
  0
VERTEX
  8
0
 10
655.930194
 20
206.756602
 42
0.014530
  0
VERTEX
  8
0
 10
656.461891
 20
208.836790
 42
0.212590
  0
VERTEX
  8
0
 10
656.316632
 20
209.561722
 42
0.230781
  0
VERTEX
  8
0
 10
655.688447
 20
209.905288
 42
0.017190
  0
VERTEX
  8
0
 10
653.680194
 20
209.930348
 42
0.030005
  0
VERTEX
  8
0
 10
652.130278
 20
209.803140
 42
0.012174
  0
VERTEX
  8
0
 10
650.040041
 20
209.452445
 42
0.011994
  0
VERTEX
  8
0
 10
647.804060
 20
208.965186
 42
0.014947
  0
SEQEND
  0
POLYLINE
  8
0
 66
1
 70
1
  0
VERTEX
  8
0
 10
389.390312
 20
177.236050
 42
0.004525
  0
VERTEX
  8
0
 10
386.522335
 20
175.695687
 42
0.005037
  0
VERTEX
  8
0
 10
383.784122
 20
174.156840
 42
0.004670
  0
VERTEX
  8
0
 10
381.476213
 20
172.800204
 42
0.026210
  0
VERTEX
  8
0
 10
380.289226
 20
172.000000
 42
0.072624
  0
VERTEX
  8
0
 10
378.600360
 20
170.293596
 42
0.029719
  0
VERTEX
  8
0
 10
376.820600
 20
167.552168
 42
0.028840
  0
VERTEX
  8
0
 10
375.408067
 20
164.692055
 42
0.100605
  0
VERTEX
  8
0
 10
375.000000
 20
162.684519
 42
0.176995
  0
VERTEX
  8
0
 10
376.167750
 20
159.489042
 42
0.059715
  0
VERTEX
  8
0
 10
379.849942
 20
156.053325
 42
0.061901
  0
VERTEX
  8
0
 10
384.020110
 20
153.732455
 42
0.275932
  0
VERTEX
  8
0
 10
386.675056
 20
154.145283
 42
0.062730
  0
VERTEX
  8
0
 10
387.314622
 20
154.828000
 42
0.189570
  0
VERTEX
  8
0
 10
387.471160
 20
155.434003
 42
0.130074
  0
VERTEX
  8
0
 10
387.189959
 20
156.136808
 42
0.024071
  0
VERTEX
  8
0
 10
386.297956
 20
157.223257
 42
-0.071002
  0
VERTEX
  8
0
 10
385.593335
 20
158.267033
 42
-0.039673
  0
VERTEX
  8
0
 10
385.034147
 20
159.697174
 42
-0.037008
  0
VERTEX
  8
0
 10
384.668284
 20
161.337590
 42
-0.036380
  0
VERTEX
  8
0
 10
384.545455
 20
163.023502
 42
-0.082300
  0
VERTEX
  8
0
 10
385.086621
 20
166.289015
 42
-0.095075
  0
VERTEX
  8
0
 10
386.646646
 20
169.026096
 42
-0.072601
  0
VERTEX
  8
0
 10
389.485582
 20
171.507170
 42
-0.029383
  0
VERTEX
  8
0
 10
393.971742
 20
174.043329
 42
0.018659
  0
VERTEX
  8
0
 10
396.061491
 20
175.166316
 42
0.041819
  0
VERTEX
  8
0
 10
397.532977
 20
176.203562
 42
0.059489
  0
VERTEX
  8
0
 10
398.389933
 20
177.115431
 42
0.252449
  0
VERTEX
  8
0
 10
398.491586
 20
177.831787
 42
-0.019186
  0
VERTEX
  8
0
 10
398.303361
 20
178.408968
 42
-0.015443
  0
VERTEX
  8
0
 10
398.144403
 20
179.042087
 42
-0.015717
  0
VERTEX
  8
0
 10
398.033947
 20
179.636691
 42
-0.038079
  0
VERTEX
  8
0
 10
398.000000
 20
180.081787
 42
0.326482
  0
VERTEX
  8
0
 10
397.549158
 20
180.698645
 42
0.158234
  0
VERTEX
  8
0
 10
396.518689
 20
180.693125
 42
0.037298
  0
VERTEX
  8
0
 10
394.335579
 20
179.786072
 42
0.003870
  0
SEQEND
  0
POLYLINE
  8
0
 66
1
 70
1
  0
VERTEX
  8
0
 10
456.256258
 20
178.355358
 42
0.082004
  0
VERTEX
  8
0
 10
450.603046
 20
174.305311
 42
0.094118
  0
VERTEX
  8
0
 10
446.869275
 20
168.821987
 42
0.102842
  0
VERTEX
  8
0
 10
445.607899
 20
162.760479
 42
0.118538
  0
VERTEX
  8
0
 10
446.984467
 20
157.030447
 42
0.078762
  0
VERTEX
  8
0
 10
449.377854
 20
153.740556
 42
0.051790
  0
VERTEX
  8
0
 10
453.022774
 20
150.786006
 42
0.052469
  0
VERTEX
  8
0
 10
457.114454
 20
148.692938
 42
0.092260
  0
VERTEX
  8
0
 10
460.837858
 20
148.000000
 42
0.039700
  0
VERTEX
  8
0
 10
463.244276
 20
148.191374
 42
0.387542
  0
VERTEX
  8
0
 10
463.827552
 20
148.923621
 42
0.206358
  0
VERTEX
  8
0
 10
463.236927
 20
150.075466
 42
0.017896
  0
VERTEX
  8
0
 10
460.561749
 20
152.126928
 42
-0.070331
  0
VERTEX
  8
0
 10
454.945472
 20
157.452544
 42
-0.144941
  0
VERTEX
  8
0
 10
452.699632
 20
163.016387
 42
-0.160881
  0
VERTEX
  8
0
 10
453.945300
 20
168.502869
 42
-0.092344
  0
VERTEX
  8
0
 10
458.496541
 20
173.624969
 42
0.000994
  0
VERTEX
  8
0
 10
464.659729
 20
178.429668
 42
0.071987
  0
VERTEX
  8
0
 10
465.545635
 20
179.356330
 42
0.577320
  0
VERTEX
  8
0
 10
465.330068
 20
179.828901
 42
0.023174
  0
VERTEX
  8
0
 10
463.000000
 20
179.943961
 42
0.036750
  0
VERTEX
  8
0
 10
461.424462
 20
179.832754
 42
0.021857
  0
VERTEX
  8
0
 10
459.575276
 20
179.481639
 42
0.021808
  0
VERTEX
  8
0
 10
457.752631
 20
178.967464
 42
0.034876
  0
SEQEND
  0
POLYLINE
  8
0
 66
1
 70
1
  0
VERTEX
  8
0
 10
409.262427
 20
166.471258
 42
0.122044
  0
VERTEX
  8
0
 10
407.535621
 20
164.490053
 42
0.071840
  0
VERTEX
  8
0
 10
406.510278
 20
161.502192
 42
0.064707
  0
VERTEX
  8
0
 10
406.307280
 20
158.000628
 42
0.061941
  0
VERTEX
  8
0
 10
406.997184
 20
154.508532
 42
0.103600
  0
VERTEX
  8
0
 10
410.103804
 20
149.148015
 42
0.058115
  0
VERTEX
  8
0
 10
415.773258
 20
144.145376
 42
0.062752
  0
VERTEX
  8
0
 10
421.671026
 20
141.063232
 42
0.293415
  0
VERTEX
  8
0
 10
425.241367
 20
141.841367
 42
0.107489
  0
VERTEX
  8
0
 10
425.665533
 20
142.501320
 42
0.196305
  0
VERTEX
  8
0
 10
425.646259
 20
143.131090
 42
0.111816
  0
VERTEX
  8
0
 10
425.130502
 20
143.822385
 42
0.025082
  0
VERTEX
  8
0
 10
423.959271
 20
144.725676
 42
-0.017006
  0
VERTEX
  8
0
 10
422.743581
 20
145.632336
 42
-0.005861
  0
VERTEX
  8
0
 10
421.047411
 20
147.022404
 42
-0.005816
  0
VERTEX
  8
0
 10
419.211757
 20
148.599863
 42
-0.006712
  0
VERTEX
  8
0
 10
417.500000
 20
150.147074
 42
-0.020334
  0
VERTEX
  8
0
 10
415.052390
 20
152.612565
 42
-0.096877
  0
VERTEX
  8
0
 10
414.022941
 20
154.299413
 42
-0.078362
  0
VERTEX
  8
0
 10
413.598292
 20
156.411751
 42
-0.010674
  0
VERTEX
  8
0
 10
413.505020
 20
160.930668
 42
0.011921
  0
VERTEX
  8
0
 10
413.392844
 20
165.779458
 42
0.152803
  0
VERTEX
  8
0
 10
412.777187
 20
167.464842
 42
0.344461
  0
VERTEX
  8
0
 10
411.588367
 20
167.773265
 42
0.050390
  0
SEQEND
  0
POLYLINE
  8
0
 66
1
 70
1
  0
VERTEX
  8
0
 10
524.500000
 20
156.979390
 42
0.016775
  0
VERTEX
  8
0
 10
522.439064
 20
156.687988
 42
0.016276
  0
VERTEX
  8
0
 10
520.381250
 20
156.256777
 42
0.016423
  0
VERTEX
  8
0
 10
518.598646
 20
155.759680
 42
0.056170
  0
VERTEX
  8
0
 10
517.500000
 20
155.272982
 42
0.214551
  0
VERTEX
  8
0
 10
517.155103
 20
154.788709
 42
0.440991
  0
VERTEX
  8
0
 10
517.400965
 20
154.454673
 42
0.041610
  0
VERTEX
  8
0
 10
519.075041
 20
154.417090
 42
0.004336
  0
VERTEX
  8
0
 10
523.000000
 20
154.689910
 42
0.001127
  0
VERTEX
  8
0
 10
528.839095
 20
155.159939
 42
0.042197
  0
VERTEX
  8
0
 10
530.147326
 20
155.380363
 42
0.359841
  0
VERTEX
  8
0
 10
530.455021
 20
155.803528
 42
0.139805
  0
VERTEX
  8
0
 10
530.195627
 20
156.536965
 42
0.194781
  0
VERTEX
  8
0
 10
529.640379
 20
156.891533
 42
0.026515
  0
VERTEX
  8
0
 10
528.246303
 20
157.074556
 42
0.027058
  0
VERTEX
  8
0
 10
526.481131
 20
157.115904
 42
0.019061
  0
SEQEND
  0
POLYLINE
  8
0
 66
1
 70
1
  0
VERTEX
  8
0
 10
481.666667
 20
138.333333
 42
0.155240
  0
VERTEX
  8
0
 10
481.039353
 20
137.120619
 42
0.104317
  0
VERTEX
  8
0
 10
481.099903
 20
135.549762
 42
0.096647
  0
VERTEX
  8
0
 10
481.810907
 20
134.035975
 42
0.112369
  0
VERTEX
  8
0
 10
483.009366
 20
132.994987
 42
0.061716
  0
VERTEX
  8
0
 10
488.720759
 20
130.792085
 42
0.004470
  0
VERTEX
  8
0
 10
505.190290
 20
126.833125
 42
0.006872
  0
VERTEX
  8
0
 10
522.032720
 20
123.186532
 42
0.016967
  0
VERTEX
  8
0
 10
534.500000
 20
121.103540
 42
0.005742
  0
VERTEX
  8
0
 10
553.539666
 20
118.805146
 42
0.011474
  0
VERTEX
  8
0
 10
568.648793
 20
117.507044
 42
0.014345
  0
VERTEX
  8
0
 10
581.025582
 20
117.085205
 42
0.023483
  0
VERTEX
  8
0
 10
591.506952
 20
117.521222
 42
0.019181
  0
VERTEX
  8
0
 10
597.440684
 20
118.278222
 42
0.795660
  0
VERTEX
  8
0
 10
597.487153
 20
119.034453
 42
0.045338
  0
VERTEX
  8
0
 10
593.147290
 20
119.902333
 42
0.002142
  0
VERTEX
  8
0
 10
578.322108
 20
121.426902
 42
-0.005628
  0
VERTEX
  8
0
 10
565.741391
 20
122.809351
 42
-0.002800
  0
VERTEX
  8
0
 10
549.831089
 20
124.829601
 42
-0.002793
  0
VERTEX
  8
0
 10
534.062724
 20
127.011307
 42
-0.006087
  0
VERTEX
  8
0
 10
522.000000
 20
128.899207
 42
-0.015816
  0
VERTEX
  8
0
 10
515.276680
 20
130.255457
 42
-0.004169
  0
VERTEX
  8
0
 10
504.614474
 20
132.853605
 42
-0.003975
  0
VERTEX
  8
0
 10
494.057493
 20
135.609011
 42
-0.019102
  0
VERTEX
  8
0
 10
488.124273
 20
137.453840
 42
0.005455
  0
VERTEX
  8
0
 10
484.900681
 20
138.553482
 42
0.045650
  0
VERTEX
  8
0
 10
483.401688
 20
138.899087
 42
0.111948
  0
VERTEX
  8
0
 10
482.457788
 20
138.816184
 42
0.119267
  0
SEQEND
  0
POLYLINE
  8
0
 66
1
 70
1
  0
VERTEX
  8
0
 10
451.000000
 20
134.121320
 42
0.209858
  0
VERTEX
  8
0
 10
451.781311
 20
132.341781
 42
0.084886
  0
VERTEX
  8
0
 10
454.055083
 20
130.871485
 42
0.090813
  0
VERTEX
  8
0
 10
456.567163
 20
130.300471
 42
0.268382
  0
VERTEX
  8
0
 10
458.077046
 20
131.090423
 42
0.039504
  0
VERTEX
  8
0
 10
458.799413
 20
132.459860
 42
0.166965
  0
VERTEX
  8
0
 10
458.868447
 20
133.371846
 42
0.167669
  0
VERTEX
  8
0
 10
458.362515
 20
134.131452
 42
0.039916
  0
VERTEX
  8
0
 10
457.065741
 20
134.964816
 42
0.057636
  0
VERTEX
  8
0
 10
454.834654
 20
135.846261
 42
0.100153
  0
VERTEX
  8
0
 10
452.854579
 20
135.968125
 42
0.154905
  0
VERTEX
  8
0
 10
451.525233
 20
135.333275
 42
0.207370
  0
SEQEND
  0
ENDSEC
  0
EOF
