  0
SECTION
  2
HEADER
  9
$ACADVER
  1
AC1006
  9
$EXTMIN
 10
0.000000
 20
0.000000
 30
0.000000
  9
$EXTMAX
 10
1024.000000
 20
1024.000000
 30
0.000000
  0
ENDSEC
  0
SECTION
  2
ENTITIES
  0
POLYLINE
  8
0
 66
1
 70
1
  0
VERTEX
  8
0
 10
232.194949
 20
567.500000
 42
0.012823
  0
VERTEX
  8
0
 10
232.235556
 20
566.431793
 42
0.080377
  0
VERTEX
  8
0
 10
232.356533
 20
565.900903
 42
0.597527
  0
VERTEX
  8
0
 10
232.516660
 20
565.883358
 42
0.087174
  0
VERTEX
  8
0
 10
232.692991
 20
566.269032
 42
0.037336
  0
VERTEX
  8
0
 10
232.832894
 20
567.036634
 42
0.029507
  0
VERTEX
  8
0
 10
232.872264
 20
567.880008
 42
0.030339
  0
VERTEX
  8
0
 10
232.814405
 20
568.671085
 42
0.062780
  0
VERTEX
  8
0
 10
232.655937
 20
569.269032
 42
0.313180
  0
VERTEX
  8
0
 10
232.477130
 20
569.386009
 42
0.333666
  0
VERTEX
  8
0
 10
232.315079
 20
569.257153
 42
0.052471
  0
VERTEX
  8
0
 10
232.212705
 20
568.580113
 42
0.014395
  0
SEQEND
  0
POLYLINE
  8
0
 66
1
 70
1
  0
VERTEX
  8
0
 10
587.284524
 20
545.500000
 42
0.004111
  0
VERTEX
  8
0
 10
587.266710
 20
529.949947
 42
0.017597
  0
VERTEX
  8
0
 10
587.658515
 20
520.686000
 42
0.707645
  0
VERTEX
  8
0
 10
588.341345
 20
520.503138
 42
0.126183
  0
VERTEX
  8
0
 10
589.069665
 20
522.500000
 42
-0.002342
  0
VERTEX
  8
0
 10
589.451201
 20
526.177381
 42
-0.841448
  0
VERTEX
  8
0
 10
589.598853
 20
526.186801
 42
-0.053708
  0
VERTEX
  8
0
 10
589.715078
 20
525.285031
 42
-0.000637
  0
VERTEX
  8
0
 10
589.831892
 20
519.323324
 42
-0.005365
  0
VERTEX
  8
0
 10
589.871348
 20
514.123588
 42
-0.039923
  0
VERTEX
  8
0
 10
589.666689
 20
511.661815
 42
-0.102542
  0
VERTEX
  8
0
 10
589.162714
 20
510.351255
 42
-0.188097
  0
VERTEX
  8
0
 10
588.250000
 20
509.689326
 42
0.011590
  0
VERTEX
  8
0
 10
587.411700
 20
509.449367
 42
0.541772
  0
VERTEX
  8
0
 10
587.371220
 20
509.306344
 42
0.197309
  0
VERTEX
  8
0
 10
587.607705
 20
509.187999
 42
0.005718
  0
VERTEX
  8
0
 10
588.750000
 20
509.116001
 42
0.063402
  0
VERTEX
  8
0
 10
589.943106
 20
509.205801
 42
0.198098
  0
VERTEX
  8
0
 10
590.597572
 20
509.646748
 42
0.126755
  0
VERTEX
  8
0
 10
590.920641
 20
510.575952
 42
0.020614
  0
VERTEX
  8
0
 10
591.000000
 20
512.500000
 42
-0.025511
  0
VERTEX
  8
0
 10
591.081893
 20
514.104033
 42
-0.075863
  0
VERTEX
  8
0
 10
591.357143
 20
515.166667
 42
-0.129352
  0
VERTEX
  8
0
 10
591.830552
 20
515.773926
 42
-0.164293
  0
VERTEX
  8
0
 10
592.500000
 20
516.000000
 42
0.385938
  0
VERTEX
  8
0
 10
593.790406
 20
517.170354
 42
0.024894
  0
VERTEX
  8
0
 10
594.053593
 20
522.681621
 42
0.029480
  0
VERTEX
  8
0
 10
593.705780
 20
528.376074
 42
0.132674
  0
VERTEX
  8
0
 10
592.468197
 20
531.441130
 42
0.008124
  0
VERTEX
  8
0
 10
591.599645
 20
532.551491
 42
0.182507
  0
VERTEX
  8
0
 10
591.254001
 20
532.753870
 42
0.434721
  0
VERTEX
  8
0
 10
591.044815
 20
532.594353
 42
0.024793
  0
VERTEX
  8
0
 10
591.000000
 20
531.691130
 42
-0.057202
  0
VERTEX
  8
0
 10
590.925756
 20
531.044295
 42
-0.076512
  0
VERTEX
  8
0
 10
590.706250
 20
530.496769
 42
-0.095513
  0
VERTEX
  8
0
 10
590.381475
 20
530.129789
 42
-0.165457
  0
VERTEX
  8
0
 10
590.000000
 20
530.000000
 42
-0.257909
  0
VERTEX
  8
0
 10
589.615572
 20
530.212425
 42
-0.061379
  0
VERTEX
  8
0
 10
589.293750
 20
530.898586
 42
-0.048032
  0
VERTEX
  8
0
 10
589.072735
 20
531.887118
 42
-0.031003
  0
VERTEX
  8
0
 10
589.000000
 20
533.059017
 42
-0.021041
  0
VERTEX
  8
0
 10
589.059616
 20
534.475040
 42
-0.104883
  0
VERTEX
  8
0
 10
589.288200
 20
535.232315
 42
-0.260832
  0
VERTEX
  8
0
 10
589.688331
 20
535.482256
 42
-0.153033
  0
VERTEX
  8
0
 10
590.250000
 20
535.335448
 42
0.042420
  0
VERTEX
  8
0
 10
590.837555
 20
535.033597
 42
0.025924
  0
VERTEX
  8
0
 10
591.573437
 20
534.774982
 42
0.025889
  0
VERTEX
  8
0
 10
592.334618
 20
534.593260
 42
0.041265
  0
VERTEX
  8
0
 10
593.000000
 20
534.526431
 42
-0.213748
  0
VERTEX
  8
0
 10
593.723438
 20
534.186929
 42
-0.086887
  0
VERTEX
  8
0
 10
594.292946
 20
533.231480
 42
-0.048808
  0
VERTEX
  8
0
 10
594.744760
 20
531.577359
 42
-0.014815
  0
VERTEX
  8
0
 10
595.106579
 20
529.000000
 42
0.870035
  0
VERTEX
  8
0
 10
595.335675
 20
528.993370
 42
0.030766
  0
VERTEX
  8
0
 10
595.546265
 20
530.969010
 42
0.007835
  0
VERTEX
  8
0
 10
595.695816
 20
536.122354
 42
0.002854
  0
VERTEX
  8
0
 10
595.751591
 20
543.426416
 42
0.003004
  0
VERTEX
  8
0
 10
595.710926
 20
553.394754
 42
0.012580
  0
VERTEX
  8
0
 10
595.499646
 20
559.386747
 42
0.015246
  0
VERTEX
  8
0
 10
595.144331
 20
563.285139
 42
0.167546
  0
VERTEX
  8
0
 10
594.466441
 20
564.676416
 42
0.061081
  0
VERTEX
  8
0
 10
593.194710
 20
565.670335
 42
0.153486
  0
VERTEX
  8
0
 10
592.063676
 20
565.943263
 42
0.240140
  0
VERTEX
  8
0
 10
591.300913
 20
565.486902
 42
0.140991
  0
VERTEX
  8
0
 10
591.000000
 20
564.440983
 42
-0.066118
  0
VERTEX
  8
0
 10
590.926733
 20
563.889346
 42
-0.138808
  0
VERTEX
  8
0
 10
590.706250
 20
563.521475
 42
-0.191142
  0
VERTEX
  8
0
 10
590.379648
 20
563.392057
 42
-0.139169
  0
VERTEX
  8
0
 10
590.000000
 20
563.500000
 42
0.230832
  0
VERTEX
  8
0
 10
589.608922
 20
563.539182
 42
0.156158
  0
VERTEX
  8
0
 10
589.249631
 20
563.258213
 42
0.089554
  0
VERTEX
  8
0
 10
588.979100
 20
562.650260
 42
0.043801
  0
VERTEX
  8
0
 10
588.849806
 20
561.809017
 42
-0.145422
  0
VERTEX
  8
0
 10
588.726482
 20
561.475087
 42
-0.602556
  0
VERTEX
  8
0
 10
588.567539
 20
561.500149
 42
-0.040943
  0
VERTEX
  8
0
 10
588.341671
 20
562.392273
 42
-0.008405
  0
VERTEX
  8
0
 10
588.099806
 20
564.000000
 42
0.894081
  0
VERTEX
  8
0
 10
587.854411
 20
563.994899
 42
0.011726
  0
VERTEX
  8
0
 10
587.612897
 20
560.421875
 42
0.006064
  0
VERTEX
  8
0
 10
587.408908
 20
554.032117
 42
0.002605
  0
SEQEND
  0
POLYLINE
  8
0
 66
1
 70
1
  0
VERTEX
  8
0
 10
290.359649
 20
562.241250
 42
0.045861
  0
VERTEX
  8
0
 10
290.019771
 20
559.723804
 42
0.003027
  0
VERTEX
  8
0
 10
289.752522
 20
552.402117
 42
0.004362
  0
VERTEX
  8
0
 10
289.562676
 20
543.656914
 42
0.003245
  0
VERTEX
  8
0
 10
289.500000
 20
534.000000
 42
0.000000
  0
VERTEX
  8
0
 10
289.500000
 20
509.500000
 42
0.000000
  0
VERTEX
  8
0
 10
292.500000
 20
509.434801
 42
0.030854
  0
VERTEX
  8
0
 10
294.337592
 20
509.508268
 42
0.232710
  0
VERTEX
  8
0
 10
295.053568
 20
509.956081
 42
0.148949
  0
VERTEX
  8
0
 10
295.311461
 20
510.929985
 42
0.011055
  0
VERTEX
  8
0
 10
295.147404
 20
513.708718
 42
-0.021063
  0
VERTEX
  8
0
 10
295.079144
 20
515.459804
 42
-0.024079
  0
VERTEX
  8
0
 10
295.165085
 20
517.133380
 42
-0.024202
  0
VERTEX
  8
0
 10
295.372964
 20
518.529133
 42
-0.110737
  0
VERTEX
  8
0
 10
295.702728
 20
519.273916
 42
0.148962
  0
VERTEX
  8
0
 10
296.047443
 20
520.243330
 42
0.007844
  0
VERTEX
  8
0
 10
296.147975
 20
523.569959
 42
0.011429
  0
VERTEX
  8
0
 10
296.113723
 20
527.680430
 42
0.007098
  0
VERTEX
  8
0
 10
295.894836
 20
532.500000
 42
-0.003336
  0
VERTEX
  8
0
 10
295.612939
 20
537.823152
 42
-0.002238
  0
VERTEX
  8
0
 10
295.358503
 20
543.912500
 42
-0.002253
  0
VERTEX
  8
0
 10
295.165041
 20
549.812550
 42
-0.004447
  0
VERTEX
  8
0
 10
295.074200
 20
554.500000
 42
0.005695
  0
VERTEX
  8
0
 10
294.976105
 20
558.984087
 42
0.023116
  0
VERTEX
  8
0
 10
294.759310
 20
561.705779
 42
0.065486
  0
VERTEX
  8
0
 10
294.430428
 20
562.959756
 42
0.606445
  0
VERTEX
  8
0
 10
294.000000
 20
563.000000
 42
-0.010223
  0
VERTEX
  8
0
 10
293.430616
 20
562.157251
 42
-0.295079
  0
VERTEX
  8
0
 10
293.199331
 20
562.064256
 42
-0.343021
  0
VERTEX
  8
0
 10
293.046994
 20
562.238528
 42
-0.012098
  0
VERTEX
  8
0
 10
293.015313
 20
563.190983
 42
0.071893
  0
VERTEX
  8
0
 10
292.742025
 20
564.967994
 42
0.428141
  0
VERTEX
  8
0
 10
291.991570
 20
565.345060
 42
0.211819
  0
VERTEX
  8
0
 10
291.070953
 20
564.468446
 42
0.041663
  0
SEQEND
  0
POLYLINE
  8
0
 66
1
 70
1
  0
VERTEX
  8
0
 10
717.000000
 20
549.200000
 42
0.004723
  0
VERTEX
  8
0
 10
717.067139
 20
542.093007
 42
0.010039
  0
VERTEX
  8
0
 10
717.281416
 20
536.597439
 42
0.006523
  0
VERTEX
  8
0
 10
717.588203
 20
532.349500
 42
0.176875
  0
VERTEX
  8
0
 10
718.055580
 20
531.344420
 42
-0.146118
  0
VERTEX
  8
0
 10
718.502722
 20
530.516545
 42
-0.009778
  0
VERTEX
  8
0
 10
719.005069
 20
527.839306
 42
-0.013423
  0
VERTEX
  8
0
 10
719.462723
 20
524.569992
 42
-0.009614
  0
VERTEX
  8
0
 10
719.805580
 20
520.894420
 42
0.000000
  0
VERTEX
  8
0
 10
720.500000
 20
511.500000
 42
0.000000
  0
VERTEX
  8
0
 10
721.131866
 20
525.000000
 42
0.003048
  0
VERTEX
  8
0
 10
721.382674
 20
531.162858
 42
0.001765
  0
VERTEX
  8
0
 10
721.612823
 20
538.573437
 42
0.001764
  0
VERTEX
  8
0
 10
721.791191
 20
546.007847
 42
0.002967
  0
VERTEX
  8
0
 10
721.881866
 20
552.250000
 42
0.000000
  0
VERTEX
  8
0
 10
722.000000
 20
566.000000
 42
0.000000
  0
VERTEX
  8
0
 10
719.500000
 20
566.000000
 42
0.000000
  0
VERTEX
  8
0
 10
717.000000
 20
566.000000
 42
0.000000
  0
SEQEND
  0
POLYLINE
  8
0
 66
1
 70
1
  0
VERTEX
  8
0
 10
220.208621
 20
564.254384
 42
0.000000
  0
VERTEX
  8
0
 10
210.917242
 20
563.923853
 42
0.000000
  0
VERTEX
  8
0
 10
211.208621
 20
556.222771
 42
0.020509
  0
VERTEX
  8
0
 10
211.663264
 20
550.467417
 42
0.227568
  0
VERTEX
  8
0
 10
212.869050
 20
548.575236
 42
0.152796
  0
VERTEX
  8
0
 10
215.368601
 20
547.929860
 42
0.008135
  0
VERTEX
  8
0
 10
223.662942
 20
548.485065
 42
0.000000
  0
VERTEX
  8
0
 10
232.000000
 20
549.179538
 42
0.000000
  0
VERTEX
  8
0
 10
232.000000
 20
555.507982
 42
0.013084
  0
VERTEX
  8
0
 10
231.889433
 20
559.732489
 42
0.036284
  0
VERTEX
  8
0
 10
231.519526
 20
562.679421
 42
0.059795
  0
VERTEX
  8
0
 10
230.940699
 20
564.444674
 42
0.378318
  0
VERTEX
  8
0
 10
230.143011
 20
564.792458
 42
-0.063498
  0
VERTEX
  8
0
 10
229.653914
 20
564.700734
 42
-0.001112
  0
VERTEX
  8
0
 10
226.959542
 20
564.548788
 42
-0.002786
  0
VERTEX
  8
0
 10
223.815849
 20
564.396082
 42
-0.001851
  0
SEQEND
  0
POLYLINE
  8
0
 66
1
 70
1
  0
VERTEX
  8
0
 10
226.500000
 20
556.000000
 42
-0.165174
  0
VERTEX
  8
0
 10
226.277529
 20
555.344928
 42
-0.102123
  0
VERTEX
  8
0
 10
225.656107
 20
554.808123
 42
-0.070033
  0
VERTEX
  8
0
 10
224.638763
 20
554.414592
 42
-0.033296
  0
VERTEX
  8
0
 10
223.250000
 20
554.186642
 42
-0.021809
  0
VERTEX
  8
0
 10
221.481970
 20
554.093718
 42
-0.130185
  0
VERTEX
  8
0
 10
220.595208
 20
554.320161
 42
-0.202897
  0
VERTEX
  8
0
 10
220.144587
 20
554.898978
 42
-0.065380
  0
VERTEX
  8
0
 10
220.000000
 20
556.000000
 42
-0.065380
  0
VERTEX
  8
0
 10
220.144587
 20
557.101022
 42
-0.202897
  0
VERTEX
  8
0
 10
220.595208
 20
557.679839
 42
-0.130185
  0
VERTEX
  8
0
 10
221.481970
 20
557.906282
 42
-0.021809
  0
VERTEX
  8
0
 10
223.250000
 20
557.813358
 42
-0.033296
  0
VERTEX
  8
0
 10
224.638763
 20
557.585408
 42
-0.070033
  0
VERTEX
  8
0
 10
225.656107
 20
557.191877
 42
-0.102123
  0
VERTEX
  8
0
 10
226.277529
 20
556.655072
 42
-0.165174
  0
SEQEND
  0
POLYLINE
  8
0
 66
1
 70
1
  0
VERTEX
  8
0
 10
654.825584
 20
550.831813
 42
-0.004662
  0
VERTEX
  8
0
 10
654.608773
 20
544.121843
 42
-0.016501
  0
VERTEX
  8
0
 10
654.287518
 20
539.824841
 42
-0.017831
  0
VERTEX
  8
0
 10
653.875603
 20
536.969675
 42
-0.274391
  0
VERTEX
  8
0
 10
653.250000
 20
536.248480
 42
0.273293
  0
VERTEX
  8
0
 10
652.634093
 20
535.541389
 42
0.022360
  0
VERTEX
  8
0
 10
652.282269
 20
533.013984
 42
0.018446
  0
VERTEX
  8
0
 10
652.061361
 20
529.122977
 42
0.004956
  0
VERTEX
  8
0
 10
652.000000
 20
522.933000
 42
0.000000
  0
VERTEX
  8
0
 10
652.000000
 20
510.032667
 42
0.000000
  0
VERTEX
  8
0
 10
625.750000
 20
509.733049
 42
0.000000
  0
VERTEX
  8
0
 10
599.500000
 20
509.433432
 42
0.000000
  0
VERTEX
  8
0
 10
629.000000
 20
509.466716
 42
0.000000
  0
VERTEX
  8
0
 10
658.500000
 20
509.500000
 42
0.000000
  0
VERTEX
  8
0
 10
658.858910
 20
512.000000
 42
0.037760
  0
VERTEX
  8
0
 10
658.979610
 20
513.795983
 42
0.001174
  0
VERTEX
  8
0
 10
658.900356
 20
521.182812
 42
0.002291
  0
VERTEX
  8
0
 10
658.746504
 20
529.894023
 42
0.001584
  0
VERTEX
  8
0
 10
658.496003
 20
539.750000
 42
0.002110
  0
VERTEX
  8
0
 10
658.072675
 20
552.651797
 42
0.010834
  0
VERTEX
  8
0
 10
657.652727
 20
559.799251
 42
0.010391
  0
VERTEX
  8
0
 10
657.190287
 20
564.356099
 42
0.378939
  0
VERTEX
  8
0
 10
656.462677
 20
565.000000
 42
0.350324
  0
VERTEX
  8
0
 10
655.782118
 20
564.456461
 42
0.026983
  0
VERTEX
  8
0
 10
655.360820
 20
561.987197
 42
0.018950
  0
VERTEX
  8
0
 10
655.045983
 20
557.913961
 42
0.004067
  0
SEQEND
  0
POLYLINE
  8
0
 66
1
 70
1
  0
VERTEX
  8
0
 10
657.220536
 20
536.750000
 42
-0.002770
  0
VERTEX
  8
0
 10
657.325131
 20
526.492726
 42
-0.004621
  0
VERTEX
  8
0
 10
657.285539
 20
517.857813
 42
-0.000859
  0
VERTEX
  8
0
 10
657.168239
 20
510.312162
 42
-0.409167
  0
VERTEX
  8
0
 10
656.850642
 20
510.000000
 42
-0.384315
  0
VERTEX
  8
0
 10
656.525355
 20
510.293353
 42
-0.003990
  0
VERTEX
  8
0
 10
656.209863
 20
513.598438
 42
-0.010038
  0
VERTEX
  8
0
 10
655.944062
 20
517.552977
 42
-0.006049
  0
VERTEX
  8
0
 10
655.779877
 20
522.250000
 42
-0.006386
  0
VERTEX
  8
0
 10
655.662216
 20
533.933526
 42
-0.003364
  0
VERTEX
  8
0
 10
655.799089
 20
548.445664
 42
-0.000464
  0
VERTEX
  8
0
 10
656.059971
 20
563.710973
 42
-0.670255
  0
VERTEX
  8
0
 10
656.452427
 20
563.864012
 42
-0.185179
  0
VERTEX
  8
0
 10
656.597700
 20
563.515988
 42
-0.000226
  0
VERTEX
  8
0
 10
656.821244
 20
555.749116
 42
-0.001951
  0
VERTEX
  8
0
 10
657.034141
 20
547.032155
 42
-0.001195
  0
SEQEND
  0
POLYLINE
  8
0
 66
1
 70
1
  0
VERTEX
  8
0
 10
780.000000
 20
556.000000
 42
0.000000
  0
VERTEX
  8
0
 10
780.000000
 20
548.000000
 42
0.000000
  0
VERTEX
  8
0
 10
791.500000
 20
548.000000
 42
0.000000
  0
VERTEX
  8
0
 10
803.000000
 20
548.000000
 42
0.000000
  0
VERTEX
  8
0
 10
803.000000
 20
556.000000
 42
0.000000
  0
VERTEX
  8
0
 10
803.000000
 20
564.000000
 42
0.000000
  0
VERTEX
  8
0
 10
791.500000
 20
564.000000
 42
0.000000
  0
VERTEX
  8
0
 10
780.000000
 20
564.000000
 42
0.000000
  0
SEQEND
  0
POLYLINE
  8
0
 66
1
 70
1
  0
VERTEX
  8
0
 10
793.781834
 20
558.154497
 42
-0.295029
  0
VERTEX
  8
0
 10
793.656159
 20
557.666446
 42
-0.111058
  0
VERTEX
  8
0
 10
793.016736
 20
557.297122
 42
-0.056174
  0
VERTEX
  8
0
 10
791.828555
 20
557.068194
 42
-0.019530
  0
VERTEX
  8
0
 10
790.083333
 20
557.000000
 42
-0.020233
  0
VERTEX
  8
0
 10
788.199362
 20
557.076267
 42
-0.063890
  0
VERTEX
  8
0
 10
786.965533
 20
557.337348
 42
-0.116032
  0
VERTEX
  8
0
 10
786.260379
 20
557.786511
 42
-0.195589
  0
VERTEX
  8
0
 10
786.000000
 20
558.426676
 42
-0.305463
  0
VERTEX
  8
0
 10
786.965471
 20
559.859559
 42
-0.105366
  0
VERTEX
  8
0
 10
789.551246
 20
560.316733
 42
-0.091642
  0
VERTEX
  8
0
 10
792.357275
 20
559.695917
 42
-0.215374
  0
SEQEND
  0
POLYLINE
  8
0
 66
1
 70
1
  0
VERTEX
  8
0
 10
419.719445
 20
562.386112
 42
0.144752
  0
VERTEX
  8
0
 10
419.494247
 20
561.971815
 42
0.042354
  0
VERTEX
  8
0
 10
419.402384
 20
561.245004
 42
0.038680
  0
VERTEX
  8
0
 10
419.434151
 20
560.369182
 42
0.033094
  0
VERTEX
  8
0
 10
419.599236
 20
559.460636
 42
-0.049058
  0
VERTEX
  8
0
 10
419.734386
 20
558.553302
 42
-0.056567
  0
VERTEX
  8
0
 10
419.679174
 20
557.680650
 42
-0.065253
  0
VERTEX
  8
0
 10
419.454077
 20
556.969430
 42
-0.146122
  0
VERTEX
  8
0
 10
419.081027
 20
556.550077
 42
0.242815
  0
VERTEX
  8
0
 10
418.564084
 20
555.689272
 42
0.004661
  0
VERTEX
  8
0
 10
418.269061
 20
550.338379
 42
0.008423
  0
VERTEX
  8
0
 10
418.061695
 20
543.167807
 42
0.003016
  0
VERTEX
  8
0
 10
418.000000
 20
532.940983
 42
0.000000
  0
VERTEX
  8
0
 10
418.000000
 20
510.000000
 42
0.000000
  0
VERTEX
  8
0
 10
421.532725
 20
510.000000
 42
0.000000
  0
VERTEX
  8
0
 10
425.065451
 20
510.000000
 42
0.000000
  0
VERTEX
  8
0
 10
424.964264
 20
533.432614
 42
0.002936
  0
VERTEX
  8
0
 10
424.870691
 20
542.614438
 42
0.004121
  0
VERTEX
  8
0
 10
424.671473
 20
550.809505
 42
0.002475
  0
VERTEX
  8
0
 10
424.412945
 20
557.700894
 42
0.054771
  0
VERTEX
  8
0
 10
424.109622
 20
559.682614
 42
0.076267
  0
VERTEX
  8
0
 10
423.346636
 20
561.421160
 42
0.113747
  0
VERTEX
  8
0
 10
422.169185
 20
562.582433
 42
0.155180
  0
VERTEX
  8
0
 10
420.869497
 20
562.906082
 42
0.182370
  0
SEQEND
  0
POLYLINE
  8
0
 66
1
 70
1
  0
VERTEX
  8
0
 10
577.000000
 20
557.166667
 42
0.000000
  0
VERTEX
  8
0
 10
577.000000
 20
554.000000
 42
0.000000
  0
VERTEX
  8
0
 10
556.500000
 20
554.000000
 42
0.000000
  0
VERTEX
  8
0
 10
536.000000
 20
554.000000
 42
0.000000
  0
VERTEX
  8
0
 10
536.000000
 20
551.500000
 42
0.000000
  0
VERTEX
  8
0
 10
536.000000
 20
549.000000
 42
0.000000
  0
VERTEX
  8
0
 10
556.406162
 20
549.000000
 42
0.000000
  0
VERTEX
  8
0
 10
576.812324
 20
549.000000
 42
0.000000
  0
VERTEX
  8
0
 10
577.508805
 20
554.064023
 42
0.012374
  0
VERTEX
  8
0
 10
577.731792
 20
556.047866
 42
0.017659
  0
VERTEX
  8
0
 10
577.823669
 20
557.817516
 42
0.013703
  0
VERTEX
  8
0
 10
577.808018
 20
559.260511
 42
0.188990
  0
VERTEX
  8
0
 10
577.602643
 20
559.730690
 42
0.484789
  0
VERTEX
  8
0
 10
577.373740
 20
559.703690
 42
0.080103
  0
VERTEX
  8
0
 10
577.177026
 20
559.226099
 42
0.039804
  0
VERTEX
  8
0
 10
577.042137
 20
558.341271
 42
0.017931
  0
SEQEND
  0
POLYLINE
  8
0
 66
1
 70
1
  0
VERTEX
  8
0
 10
339.000000
 20
556.666667
 42
0.000000
  0
VERTEX
  8
0
 10
339.000000
 20
554.000000
 42
0.000000
  0
VERTEX
  8
0
 10
323.000000
 20
554.000000
 42
0.000000
  0
VERTEX
  8
0
 10
307.000000
 20
554.000000
 42
0.000000
  0
VERTEX
  8
0
 10
307.000000
 20
551.500000
 42
0.000000
  0
VERTEX
  8
0
 10
307.000000
 20
549.000000
 42
0.000000
  0
VERTEX
  8
0
 10
322.886456
 20
549.000000
 42
0.000000
  0
VERTEX
  8
0
 10
338.772912
 20
549.000000
 42
0.000000
  0
VERTEX
  8
0
 10
339.461473
 20
553.591650
 42
0.013115
  0
VERTEX
  8
0
 10
339.683406
 20
555.392477
 42
0.018607
  0
VERTEX
  8
0
 10
339.778858
 20
557.003414
 42
0.014897
  0
VERTEX
  8
0
 10
339.768605
 20
558.314734
 42
0.189156
  0
VERTEX
  8
0
 10
339.575017
 20
558.758317
 42
0.444277
  0
VERTEX
  8
0
 10
339.357726
 20
558.747275
 42
0.104269
  0
VERTEX
  8
0
 10
339.168911
 20
558.381089
 42
0.046776
  0
VERTEX
  8
0
 10
339.040063
 20
557.651495
 42
0.020332
  0
SEQEND
  0
POLYLINE
  8
0
 66
1
 70
1
  0
VERTEX
  8
0
 10
241.433909
 20
552.500000
 42
-0.007891
  0
VERTEX
  8
0
 10
241.641164
 20
551.679297
 42
-0.008333
  0
VERTEX
  8
0
 10
241.818435
 20
550.867188
 42
-0.008033
  0
VERTEX
  8
0
 10
241.948187
 20
550.162870
 42
-0.036995
  0
VERTEX
  8
0
 10
241.986345
 20
549.750000
 42
0.395272
  0
VERTEX
  8
0
 10
242.282343
 20
549.445385
 42
0.001602
  0
VERTEX
  8
0
 10
247.430364
 20
549.220312
 42
0.006323
  0
VERTEX
  8
0
 10
253.405337
 20
549.053910
 42
0.003799
  0
VERTEX
  8
0
 10
260.500000
 20
549.000000
 42
0.000000
  0
VERTEX
  8
0
 10
279.000000
 20
549.000000
 42
0.000000
  0
VERTEX
  8
0
 10
279.000000
 20
551.458183
 42
0.000000
  0
VERTEX
  8
0
 10
279.000000
 20
553.916366
 42
0.000000
  0
VERTEX
  8
0
 10
259.947564
 20
554.208183
 42
0.001467
  0
VERTEX
  8
0
 10
247.549241
 20
554.361709
 42
0.025369
  0
VERTEX
  8
0
 10
243.505108
 20
554.194680
 42
0.123886
  0
VERTEX
  8
0
 10
241.854745
 20
553.613629
 42
0.322783
  0
SEQEND
  0
POLYLINE
  8
0
 66
1
 70
1
  0
VERTEX
  8
0
 10
370.666667
 20
553.333333
 42
0.097261
  0
VERTEX
  8
0
 10
370.410100
 20
552.951373
 42
0.034257
  0
VERTEX
  8
0
 10
370.195833
 20
552.323958
 42
0.032464
  0
VERTEX
  8
0
 10
370.049166
 20
551.584091
 42
0.032710
  0
VERTEX
  8
0
 10
370.000000
 20
550.833333
 42
0.291901
  0
VERTEX
  8
0
 10
370.653664
 20
549.809070
 42
0.082015
  0
VERTEX
  8
0
 10
372.568182
 20
549.276961
 42
0.024772
  0
VERTEX
  8
0
 10
376.596225
 20
549.043497
 42
0.002090
  0
VERTEX
  8
0
 10
387.000000
 20
549.000000
 42
0.000000
  0
VERTEX
  8
0
 10
404.000000
 20
549.000000
 42
0.000000
  0
VERTEX
  8
0
 10
404.000000
 20
551.500000
 42
0.000000
  0
VERTEX
  8
0
 10
404.000000
 20
554.000000
 42
0.000000
  0
VERTEX
  8
0
 10
387.666667
 20
554.000000
 42
0.003816
  0
VERTEX
  8
0
 10
381.357878
 20
553.951853
 42
0.005983
  0
VERTEX
  8
0
 10
375.935417
 20
553.804167
 42
0.002005
  0
VERTEX
  8
0
 10
371.275943
 20
553.602725
 42
0.186670
  0
SEQEND
  0
POLYLINE
  8
0
 66
1
 70
1
  0
VERTEX
  8
0
 10
436.000000
 20
551.500000
 42
0.000000
  0
VERTEX
  8
0
 10
436.000000
 20
549.000000
 42
0.000000
  0
VERTEX
  8
0
 10
455.000000
 20
549.000000
 42
0.000000
  0
VERTEX
  8
0
 10
474.000000
 20
549.000000
 42
0.000000
  0
VERTEX
  8
0
 10
474.000000
 20
551.500000
 42
0.000000
  0
VERTEX
  8
0
 10
474.000000
 20
554.000000
 42
0.000000
  0
VERTEX
  8
0
 10
455.000000
 20
554.000000
 42
0.000000
  0
VERTEX
  8
0
 10
436.000000
 20
554.000000
 42
0.000000
  0
SEQEND
  0
POLYLINE
  8
0
 66
1
 70
1
  0
VERTEX
  8
0
 10
603.180449
 20
551.750000
 42
0.219138
  0
VERTEX
  8
0
 10
604.025929
 20
550.438268
 42
0.110106
  0
VERTEX
  8
0
 10
605.918672
 20
549.752774
 42
0.026978
  0
VERTEX
  8
0
 10
610.032393
 20
549.446962
 42
0.001538
  0
VERTEX
  8
0
 10
622.750000
 20
549.228407
 42
0.000000
  0
VERTEX
  8
0
 10
642.000000
 20
548.956814
 42
0.000000
  0
VERTEX
  8
0
 10
642.000000
 20
551.478407
 42
0.000000
  0
VERTEX
  8
0
 10
642.000000
 20
554.000000
 42
0.000000
  0
VERTEX
  8
0
 10
622.430449
 20
554.000000
 42
0.000000
  0
VERTEX
  8
0
 10
602.860898
 20
554.000000
 42
0.000000
  0
SEQEND
  0
POLYLINE
  8
0
 66
1
 70
1
  0
VERTEX
  8
0
 10
670.000000
 20
551.500000
 42
0.000000
  0
VERTEX
  8
0
 10
670.000000
 20
549.000000
 42
0.000000
  0
VERTEX
  8
0
 10
687.500000
 20
549.000000
 42
0.000000
  0
VERTEX
  8
0
 10
705.000000
 20
549.000000
 42
0.000000
  0
VERTEX
  8
0
 10
705.000000
 20
551.500000
 42
0.000000
  0
VERTEX
  8
0
 10
705.000000
 20
554.000000
 42
0.000000
  0
VERTEX
  8
0
 10
687.500000
 20
554.000000
 42
0.000000
  0
VERTEX
  8
0
 10
670.000000
 20
554.000000
 42
0.000000
  0
SEQEND
  0
POLYLINE
  8
0
 66
1
 70
1
  0
VERTEX
  8
0
 10
733.000000
 20
551.522559
 42
0.028123
  0
VERTEX
  8
0
 10
733.054487
 20
550.554598
 42
0.043610
  0
VERTEX
  8
0
 10
733.220312
 20
549.734981
 42
0.053624
  0
VERTEX
  8
0
 10
733.460908
 20
549.156158
 42
0.266662
  0
VERTEX
  8
0
 10
733.750000
 20
548.979503
 42
0.006426
  0
VERTEX
  8
0
 10
736.469343
 20
548.940147
 42
0.000126
  0
VERTEX
  8
0
 10
750.374853
 20
548.921128
 42
0.000150
  0
VERTEX
  8
0
 10
764.108950
 20
548.909935
 42
0.005264
  0
VERTEX
  8
0
 10
767.319551
 20
548.942080
 42
0.030078
  0
VERTEX
  8
0
 10
768.804477
 20
549.062140
 42
0.152326
  0
VERTEX
  8
0
 10
769.546074
 20
549.414120
 42
0.191545
  0
VERTEX
  8
0
 10
769.862347
 20
550.074204
 42
0.052397
  0
VERTEX
  8
0
 10
769.819551
 20
551.250000
 42
0.212401
  0
VERTEX
  8
0
 10
769.000663
 20
552.557132
 42
0.114886
  0
VERTEX
  8
0
 10
767.192573
 20
553.245528
 42
0.028377
  0
VERTEX
  8
0
 10
763.268275
 20
553.553349
 42
0.001652
  0
VERTEX
  8
0
 10
751.250000
 20
553.772559
 42
0.000000
  0
VERTEX
  8
0
 10
733.000000
 20
554.045117
 42
0.000000
  0
SEQEND
  0
POLYLINE
  8
0
 66
1
 70
1
  0
VERTEX
  8
0
 10
210.251237
 20
531.685154
 42
0.030564
  0
VERTEX
  8
0
 10
210.239449
 20
530.847849
 42
0.219199
  0
VERTEX
  8
0
 10
210.420983
 20
530.497963
 42
0.297563
  0
VERTEX
  8
0
 10
210.756899
 20
530.470295
 42
0.049156
  0
VERTEX
  8
0
 10
211.322493
 20
530.852682
 42
-0.156131
  0
VERTEX
  8
0
 10
213.208840
 20
531.612602
 42
-0.033213
  0
VERTEX
  8
0
 10
216.793007
 20
531.636977
 42
-0.033466
  0
VERTEX
  8
0
 10
220.356342
 20
531.183773
 42
-0.149087
  0
VERTEX
  8
0
 10
222.196158
 20
530.203842
 42
-0.230337
  0
VERTEX
  8
0
 10
222.622908
 20
528.968520
 42
-0.245322
  0
VERTEX
  8
0
 10
221.902310
 20
527.918154
 42
-0.089746
  0
VERTEX
  8
0
 10
219.650842
 20
527.198579
 42
-0.025997
  0
VERTEX
  8
0
 10
216.000000
 20
526.911960
 42
0.000000
  0
VERTEX
  8
0
 10
211.500000
 20
526.793295
 42
0.000000
  0
VERTEX
  8
0
 10
215.500000
 20
525.752587
 42
-0.052100
  0
VERTEX
  8
0
 10
219.501407
 20
524.252654
 42
-0.035227
  0
VERTEX
  8
0
 10
223.700866
 20
521.774190
 42
-0.035748
  0
VERTEX
  8
0
 10
227.360703
 20
518.844379
 42
-0.072804
  0
VERTEX
  8
0
 10
229.668170
 20
515.984597
 42
0.018146
  0
VERTEX
  8
0
 10
230.400653
 20
514.841448
 42
0.025105
  0
VERTEX
  8
0
 10
231.143736
 20
513.876725
 42
0.023443
  0
VERTEX
  8
0
 10
231.812937
 20
513.163289
 42
0.195044
  0
VERTEX
  8
0
 10
232.215608
 20
513.000000
 42
0.382858
  0
VERTEX
  8
0
 10
232.529761
 20
513.281869
 42
0.006462
  0
VERTEX
  8
0
 10
232.769585
 20
515.790625
 42
0.012853
  0
VERTEX
  8
0
 10
232.943587
 20
518.857450
 42
0.007743
  0
VERTEX
  8
0
 10
233.000000
 20
522.500000
 42
0.000000
  0
VERTEX
  8
0
 10
233.000000
 20
532.000000
 42
0.000000
  0
VERTEX
  8
0
 10
229.250000
 20
532.071149
 42
-0.009214
  0
VERTEX
  8
0
 10
227.306962
 20
532.143847
 42
-0.002842
  0
VERTEX
  8
0
 10
224.382217
 20
532.323967
 42
-0.002841
  0
VERTEX
  8
0
 10
221.112370
 20
532.562673
 42
-0.003117
  0
VERTEX
  8
0
 10
217.944782
 20
532.831895
 42
0.005333
  0
VERTEX
  8
0
 10
213.434163
 20
533.195134
 42
0.054467
  0
VERTEX
  8
0
 10
211.562982
 20
533.121866
 42
0.173418
  0
VERTEX
  8
0
 10
210.660848
 20
532.639074
 42
0.166721
  0
SEQEND
  0
POLYLINE
  8
0
 66
1
 70
1
  0
VERTEX
  8
0
 10
770.078947
 20
532.416667
 42
0.018894
  0
VERTEX
  8
0
 10
770.137993
 20
531.670344
 42
0.168741
  0
VERTEX
  8
0
 10
770.279315
 20
531.378580
 42
0.470617
  0
VERTEX
  8
0
 10
770.461564
 20
531.395823
 42
0.054073
  0
VERTEX
  8
0
 10
770.683114
 20
531.812500
 42
0.051402
  0
VERTEX
  8
0
 10
770.839148
 20
532.359369
 42
0.054150
  0
VERTEX
  8
0
 10
770.876576
 20
532.916927
 42
0.060344
  0
VERTEX
  8
0
 10
770.797407
 20
533.402231
 42
0.126455
  0
VERTEX
  8
0
 10
770.604167
 20
533.729167
 42
0.296942
  0
VERTEX
  8
0
 10
770.385309
 20
533.775380
 42
0.208169
  0
VERTEX
  8
0
 10
770.200665
 20
533.592839
 42
0.077125
  0
VERTEX
  8
0
 10
770.089945
 20
533.112848
 42
0.028489
  0
SEQEND
  0
POLYLINE
  8
0
 66
1
 70
1
  0
VERTEX
  8
0
 10
780.016847
 20
521.750000
 42
0.000000
  0
VERTEX
  8
0
 10
780.033694
 20
511.500000
 42
0.000000
  0
VERTEX
  8
0
 10
782.206445
 20
514.894351
 42
-0.076158
  0
VERTEX
  8
0
 10
784.924084
 20
517.984085
 42
-0.022277
  0
VERTEX
  8
0
 10
789.963984
 20
521.837860
 42
-0.019425
  0
VERTEX
  8
0
 10
795.220187
 20
525.202626
 42
-0.133427
  0
VERTEX
  8
0
 10
798.155036
 20
526.000000
 42
0.049675
  0
VERTEX
  8
0
 10
798.861047
 20
526.070315
 42
0.069664
  0
VERTEX
  8
0
 10
799.458042
 20
526.279910
 42
0.089827
  0
VERTEX
  8
0
 10
799.859796
 20
526.589093
 42
0.186029
  0
VERTEX
  8
0
 10
800.000000
 20
526.952885
 42
0.348720
  0
VERTEX
  8
0
 10
799.720760
 20
527.304575
 42
0.037862
  0
VERTEX
  8
0
 10
798.624830
 20
527.473542
 42
0.032155
  0
VERTEX
  8
0
 10
797.070918
 20
527.493738
 42
0.016650
  0
VERTEX
  8
0
 10
795.135207
 20
527.329607
 42
-0.033589
  0
VERTEX
  8
0
 10
791.763777
 20
527.158415
 42
-0.137364
  0
VERTEX
  8
0
 10
789.818503
 20
527.737719
 42
-0.302289
  0
VERTEX
  8
0
 10
789.290876
 20
528.915332
 42
-0.132478
  0
VERTEX
  8
0
 10
790.036355
 20
530.543805
 42
0.154962
  0
VERTEX
  8
0
 10
790.331498
 20
531.271639
 42
0.345292
  0
VERTEX
  8
0
 10
790.020487
 20
531.738988
 42
0.073028
  0
VERTEX
  8
0
 10
788.769694
 20
531.957393
 42
0.006769
  0
VERTEX
  8
0
 10
785.622445
 20
532.000000
 42
0.000000
  0
VERTEX
  8
0
 10
780.000000
 20
532.000000
 42
0.000000
  0
SEQEND
  0
POLYLINE
  8
0
 66
1
 70
1
  0
VERTEX
  8
0
 10
242.001337
 20
527.750000
 42
0.000000
  0
VERTEX
  8
0
 10
242.000000
 20
525.000000
 42
0.000000
  0
VERTEX
  8
0
 10
260.500000
 20
525.000000
 42
0.000000
  0
VERTEX
  8
0
 10
279.000000
 20
525.000000
 42
0.000000
  0
VERTEX
  8
0
 10
279.000000
 20
527.984104
 42
0.000000
  0
VERTEX
  8
0
 10
279.000000
 20
530.968208
 42
0.000000
  0
VERTEX
  8
0
 10
260.501337
 20
530.734104
 42
0.000000
  0
VERTEX
  8
0
 10
242.002674
 20
530.500000
 42
0.000000
  0
SEQEND
  0
POLYLINE
  8
0
 66
1
 70
1
  0
VERTEX
  8
0
 10
307.000000
 20
528.000000
 42
0.000000
  0
VERTEX
  8
0
 10
307.000000
 20
525.000000
 42
0.000000
  0
VERTEX
  8
0
 10
323.000000
 20
525.000000
 42
0.000000
  0
VERTEX
  8
0
 10
339.000000
 20
525.000000
 42
0.000000
  0
VERTEX
  8
0
 10
339.000000
 20
528.000000
 42
0.000000
  0
VERTEX
  8
0
 10
339.000000
 20
531.000000
 42
0.000000
  0
VERTEX
  8
0
 10
323.000000
 20
531.000000
 42
0.000000
  0
VERTEX
  8
0
 10
307.000000
 20
531.000000
 42
0.000000
  0
SEQEND
  0
POLYLINE
  8
0
 66
1
 70
1
  0
VERTEX
  8
0
 10
370.000000
 20
528.000000
 42
0.000000
  0
VERTEX
  8
0
 10
370.000000
 20
525.000000
 42
0.000000
  0
VERTEX
  8
0
 10
387.000000
 20
525.000000
 42
0.000000
  0
VERTEX
  8
0
 10
404.000000
 20
525.000000
 42
0.000000
  0
VERTEX
  8
0
 10
404.000000
 20
528.000000
 42
0.000000
  0
VERTEX
  8
0
 10
404.000000
 20
531.000000
 42
0.000000
  0
VERTEX
  8
0
 10
387.000000
 20
531.000000
 42
0.000000
  0
VERTEX
  8
0
 10
370.000000
 20
531.000000
 42
0.000000
  0
SEQEND
  0
POLYLINE
  8
0
 66
1
 70
1
  0
VERTEX
  8
0
 10
434.998931
 20
527.750000
 42
0.000000
  0
VERTEX
  8
0
 10
435.000000
 20
525.000000
 42
0.000000
  0
VERTEX
  8
0
 10
454.500000
 20
525.000000
 42
0.000000
  0
VERTEX
  8
0
 10
474.000000
 20
525.000000
 42
0.000000
  0
VERTEX
  8
0
 10
474.000000
 20
527.459033
 42
0.000000
  0
VERTEX
  8
0
 10
474.000000
 20
529.918065
 42
0.000000
  0
VERTEX
  8
0
 10
454.498931
 20
530.209033
 42
0.000000
  0
VERTEX
  8
0
 10
434.997862
 20
530.500000
 42
0.000000
  0
SEQEND
  0
POLYLINE
  8
0
 66
1
 70
1
  0
VERTEX
  8
0
 10
536.000000
 20
528.000000
 42
0.000000
  0
VERTEX
  8
0
 10
536.000000
 20
525.000000
 42
0.000000
  0
VERTEX
  8
0
 10
556.500000
 20
525.000000
 42
0.000000
  0
VERTEX
  8
0
 10
577.000000
 20
525.000000
 42
0.000000
  0
VERTEX
  8
0
 10
577.000000
 20
528.000000
 42
0.000000
  0
VERTEX
  8
0
 10
577.000000
 20
531.000000
 42
0.000000
  0
VERTEX
  8
0
 10
556.500000
 20
531.000000
 42
0.000000
  0
VERTEX
  8
0
 10
536.000000
 20
531.000000
 42
0.000000
  0
SEQEND
  0
POLYLINE
  8
0
 66
1
 70
1
  0
VERTEX
  8
0
 10
608.250000
 20
530.260180
 42
0.016354
  0
VERTEX
  8
0
 10
605.834683
 20
529.967098
 42
0.109880
  0
VERTEX
  8
0
 10
604.716630
 20
529.530434
 42
0.183106
  0
VERTEX
  8
0
 10
604.174423
 20
528.766709
 42
0.063880
  0
VERTEX
  8
0
 10
604.000000
 20
527.407036
 42
0.000000
  0
VERTEX
  8
0
 10
604.000000
 20
524.929068
 42
0.000000
  0
VERTEX
  8
0
 10
623.000000
 20
525.043633
 42
0.000000
  0
VERTEX
  8
0
 10
642.000000
 20
525.158198
 42
0.000000
  0
VERTEX
  8
0
 10
641.990379
 20
527.829099
 42
0.000000
  0
VERTEX
  8
0
 10
641.980758
 20
530.500000
 42
0.000000
  0
VERTEX
  8
0
 10
627.240379
 20
530.567678
 42
0.002430
  0
VERTEX
  8
0
 10
621.285297
 20
530.566074
 42
0.002765
  0
VERTEX
  8
0
 10
615.581549
 20
530.505267
 42
0.002509
  0
VERTEX
  8
0
 10
610.738931
 20
530.402546
 42
0.015457
  0
SEQEND
  0
POLYLINE
  8
0
 66
1
 70
1
  0
VERTEX
  8
0
 10
671.000000
 20
527.996098
 42
0.000000
  0
VERTEX
  8
0
 10
671.000000
 20
525.000000
 42
0.000000
  0
VERTEX
  8
0
 10
687.383369
 20
525.000000
 42
0.002491
  0
VERTEX
  8
0
 10
697.040541
 20
525.048119
 42
0.023404
  0
VERTEX
  8
0
 10
701.184978
 20
525.283630
 42
0.061585
  0
VERTEX
  8
0
 10
703.339727
 20
525.780381
 42
0.246688
  0
VERTEX
  8
0
 10
704.220612
 20
526.750000
 42
0.162855
  0
VERTEX
  8
0
 10
704.063434
 20
529.020691
 42
0.237813
  0
VERTEX
  8
0
 10
702.573508
 20
530.306142
 42
0.056676
  0
VERTEX
  8
0
 10
698.647748
 20
530.826063
 42
0.003899
  0
VERTEX
  8
0
 10
687.433558
 20
530.945424
 42
0.000000
  0
VERTEX
  8
0
 10
671.000000
 20
530.992196
 42
0.000000
  0
SEQEND
  0
POLYLINE
  8
0
 66
1
 70
1
  0
VERTEX
  8
0
 10
733.000000
 20
528.000000
 42
0.000000
  0
VERTEX
  8
0
 10
733.000000
 20
525.000000
 42
0.000000
  0
VERTEX
  8
0
 10
751.500000
 20
525.000000
 42
0.000000
  0
VERTEX
  8
0
 10
770.000000
 20
525.000000
 42
0.000000
  0
VERTEX
  8
0
 10
770.000000
 20
527.393011
 42
0.061153
  0
VERTEX
  8
0
 10
769.882113
 20
528.353269
 42
0.060300
  0
VERTEX
  8
0
 10
769.535350
 20
529.261378
 42
0.065770
  0
VERTEX
  8
0
 10
769.023389
 20
529.983730
 42
0.114615
  0
VERTEX
  8
0
 10
768.418213
 20
530.393011
 42
0.081068
  0
VERTEX
  8
0
 10
767.249238
 20
530.635609
 42
0.002511
  0
VERTEX
  8
0
 10
762.331350
 20
530.821697
 42
0.004860
  0
VERTEX
  8
0
 10
756.515351
 20
530.955941
 42
0.003339
  0
VERTEX
  8
0
 10
749.918213
 20
531.000000
 42
0.000000
  0
VERTEX
  8
0
 10
733.000000
 20
531.000000
 42
0.000000
  0
SEQEND
  0
POLYLINE
  8
0
 66
1
 70
1
  0
VERTEX
  8
0
 10
714.071353
 20
519.500000
 42
0.007861
  0
VERTEX
  8
0
 10
714.198997
 20
515.474082
 42
0.013021
  0
VERTEX
  8
0
 10
714.448445
 20
512.084375
 42
0.006624
  0
VERTEX
  8
0
 10
714.761998
 20
509.315110
 42
0.377774
  0
VERTEX
  8
0
 10
715.119540
 20
509.000000
 42
0.382269
  0
VERTEX
  8
0
 10
715.472031
 20
509.315613
 42
0.006657
  0
VERTEX
  8
0
 10
715.741365
 20
512.084375
 42
0.013051
  0
VERTEX
  8
0
 10
715.936677
 20
515.474031
 42
0.007864
  0
VERTEX
  8
0
 10
716.000000
 20
519.500000
 42
0.007203
  0
VERTEX
  8
0
 10
715.935633
 20
523.967668
 42
0.017673
  0
VERTEX
  8
0
 10
715.725043
 20
527.245676
 42
0.015036
  0
VERTEX
  8
0
 10
715.417895
 20
529.602958
 42
0.368193
  0
VERTEX
  8
0
 10
714.951813
 20
530.000000
 42
0.371592
  0
VERTEX
  8
0
 10
714.486722
 20
529.598979
 42
0.016007
  0
VERTEX
  8
0
 10
714.217948
 20
527.285680
 42
0.017952
  0
VERTEX
  8
0
 10
714.062046
 20
524.023730
 42
0.006958
  0
SEQEND
  0
POLYLINE
  8
0
 66
1
 70
1
  0
VERTEX
  8
0
 10
138.000000
 20
502.952381
 42
0.213269
  0
VERTEX
  8
0
 10
138.476432
 20
501.886211
 42
0.140915
  0
VERTEX
  8
0
 10
139.703453
 20
501.293001
 42
0.039300
  0
VERTEX
  8
0
 10
142.387016
 20
501.046018
 42
0.003304
  0
VERTEX
  8
0
 10
149.350777
 20
501.000000
 42
-0.007419
  0
VERTEX
  8
0
 10
153.909156
 20
500.932363
 42
-0.008750
  0
VERTEX
  8
0
 10
158.218910
 20
500.728909
 42
-0.007820
  0
VERTEX
  8
0
 10
161.843019
 20
500.437226
 42
-0.053105
  0
VERTEX
  8
0
 10
163.600777
 20
500.077138
 42
0.011906
  0
VERTEX
  8
0
 10
164.994512
 20
499.669773
 42
0.005511
  0
VERTEX
  8
0
 10
166.823353
 20
499.203711
 42
0.005456
  0
VERTEX
  8
0
 10
168.756651
 20
498.755944
 42
0.007558
  0
VERTEX
  8
0
 10
170.500000
 20
498.399704
 42
-0.009814
  0
VERTEX
  8
0
 10
172.931740
 20
497.891357
 42
-0.694531
  0
VERTEX
  8
0
 10
172.970269
 20
497.598921
 42
-0.084210
  0
VERTEX
  8
0
 10
172.081817
 20
497.304814
 42
-0.001443
  0
VERTEX
  8
0
 10
167.000000
 20
496.543163
 42
0.044620
  0
VERTEX
  8
0
 10
164.900818
 20
496.040422
 42
0.828956
  0
VERTEX
  8
0
 10
164.948038
 20
495.699798
 42
0.014984
  0
VERTEX
  8
0
 10
169.428446
 20
495.615631
 42
0.000963
  0
VERTEX
  8
0
 10
182.500000
 20
495.786971
 42
0.001284
  0
VERTEX
  8
0
 10
198.305457
 20
496.065196
 42
0.016296
  0
VERTEX
  8
0
 10
204.243490
 20
496.378768
 42
0.045702
  0
VERTEX
  8
0
 10
207.188849
 20
496.904659
 42
0.337719
  0
VERTEX
  8
0
 10
208.000000
 20
497.968615
 42
0.385250
  0
VERTEX
  8
0
 10
207.570833
 20
498.442946
 42
0.007050
  0
VERTEX
  8
0
 10
203.908156
 20
498.757943
 42
0.011726
  0
VERTEX
  8
0
 10
199.007467
 20
498.994534
 42
0.004615
  0
VERTEX
  8
0
 10
192.250000
 20
499.099680
 42
-0.004195
  0
VERTEX
  8
0
 10
186.035193
 20
499.191165
 42
-0.005591
  0
VERTEX
  8
0
 10
180.392188
 20
499.384753
 42
-0.004012
  0
VERTEX
  8
0
 10
175.676467
 20
499.637277
 42
-0.055777
  0
VERTEX
  8
0
 10
174.000000
 20
499.930166
 42
-0.008273
  0
VERTEX
  8
0
 10
172.423257
 20
500.419540
 42
-0.498285
  0
VERTEX
  8
0
 10
172.340257
 20
500.662843
 42
-0.190500
  0
VERTEX
  8
0
 10
172.684588
 20
500.897663
 42
-0.003131
  0
VERTEX
  8
0
 10
175.000000
 20
501.405143
 42
0.003829
  0
VERTEX
  8
0
 10
176.486607
 20
501.733143
 42
0.003203
  0
VERTEX
  8
0
 10
178.059375
 20
502.103423
 42
0.003232
  0
VERTEX
  8
0
 10
179.493091
 20
502.460501
 42
0.008841
  0
VERTEX
  8
0
 10
180.500000
 20
502.737261
 42
0.703835
  0
VERTEX
  8
0
 10
180.549911
 20
503.592579
 42
0.077434
  0
VERTEX
  8
0
 10
177.671584
 20
504.321207
 42
0.018144
  0
VERTEX
  8
0
 10
169.710168
 20
504.776223
 42
0.005202
  0
VERTEX
  8
0
 10
157.354681
 20
504.904762
 42
0.001656
  0
VERTEX
  8
0
 10
145.103503
 20
504.864185
 42
0.023482
  0
VERTEX
  8
0
 10
140.728343
 20
504.629543
 42
0.086016
  0
VERTEX
  8
0
 10
138.702523
 20
504.064204
 42
0.289462
  0
SEQEND
  0
POLYLINE
  8
0
 66
1
 70
1
  0
VERTEX
  8
0
 10
838.500000
 20
504.081892
 42
0.016655
  0
VERTEX
  8
0
 10
834.533198
 20
503.563333
 42
0.535694
  0
VERTEX
  8
0
 10
834.196282
 20
502.816750
 42
0.241628
  0
VERTEX
  8
0
 10
835.361169
 20
502.123290
 42
0.012707
  0
VERTEX
  8
0
 10
839.831787
 20
501.956107
 42
-0.029259
  0
VERTEX
  8
0
 10
841.524158
 20
501.836654
 42
-0.015580
  0
VERTEX
  8
0
 10
843.597463
 20
501.501799
 42
-0.015458
  0
VERTEX
  8
0
 10
845.701181
 20
501.026516
 42
-0.023174
  0
VERTEX
  8
0
 10
847.500000
 20
500.471164
 42
0.013679
  0
VERTEX
  8
0
 10
850.602330
 20
499.448484
 42
0.053227
  0
VERTEX
  8
0
 10
852.586997
 20
499.077648
 42
0.202325
  0
VERTEX
  8
0
 10
853.402545
 20
499.348721
 42
0.366224
  0
VERTEX
  8
0
 10
853.500000
 20
500.000000
 42
-0.426984
  0
VERTEX
  8
0
 10
853.608571
 20
500.419032
 42
-0.070184
  0
VERTEX
  8
0
 10
854.479449
 20
500.756847
 42
-0.038343
  0
VERTEX
  8
0
 10
856.018312
 20
500.994536
 42
-0.014544
  0
VERTEX
  8
0
 10
858.190983
 20
501.097844
 42
0.001292
  0
VERTEX
  8
0
 10
870.192043
 20
501.350034
 42
0.023264
  0
VERTEX
  8
0
 10
874.028687
 20
501.619474
 42
0.093886
  0
VERTEX
  8
0
 10
875.801541
 20
502.175379
 42
0.236897
  0
VERTEX
  8
0
 10
876.559833
 20
503.250000
 42
0.329496
  0
VERTEX
  8
0
 10
876.052632
 20
504.207106
 42
0.087152
  0
VERTEX
  8
0
 10
874.281215
 20
504.703162
 42
0.025204
  0
VERTEX
  8
0
 10
870.439861
 20
504.890677
 42
0.002195
  0
VERTEX
  8
0
 10
860.661516
 20
504.831892
 42
0.002877
  0
VERTEX
  8
0
 10
854.034058
 20
504.724808
 42
0.002980
  0
VERTEX
  8
0
 10
847.484945
 20
504.542235
 42
0.002873
  0
VERTEX
  8
0
 10
841.817112
 20
504.317808
 42
0.012840
  0
SEQEND
  0
POLYLINE
  8
0
 66
1
 70
1
  0
VERTEX
  8
0
 10
875.729167
 20
502.395833
 42
-0.126455
  0
VERTEX
  8
0
 10
875.402231
 20
502.202593
 42
-0.060344
  0
VERTEX
  8
0
 10
874.916927
 20
502.123424
 42
-0.054150
  0
VERTEX
  8
0
 10
874.359369
 20
502.160852
 42
-0.051402
  0
VERTEX
  8
0
 10
873.812500
 20
502.316886
 42
-0.054073
  0
VERTEX
  8
0
 10
873.395823
 20
502.538436
 42
-0.470617
  0
VERTEX
  8
0
 10
873.378580
 20
502.720685
 42
-0.168741
  0
VERTEX
  8
0
 10
873.670344
 20
502.862007
 42
-0.018894
  0
VERTEX
  8
0
 10
874.416667
 20
502.921053
 42
-0.028489
  0
VERTEX
  8
0
 10
875.112848
 20
502.910055
 42
-0.077125
  0
VERTEX
  8
0
 10
875.592839
 20
502.799335
 42
-0.208169
  0
VERTEX
  8
0
 10
875.775380
 20
502.614691
 42
-0.296942
  0
SEQEND
  0
POLYLINE
  8
0
 66
1
 70
1
  0
VERTEX
  8
0
 10
240.500000
 20
503.256008
 42
-0.014207
  0
VERTEX
  8
0
 10
242.870159
 20
503.043772
 42
-0.018346
  0
VERTEX
  8
0
 10
245.028794
 20
502.707793
 42
-0.016292
  0
VERTEX
  8
0
 10
246.783160
 20
502.308711
 42
-0.132432
  0
VERTEX
  8
0
 10
247.491641
 20
501.903452
 42
-0.312645
  0
VERTEX
  8
0
 10
247.694056
 20
500.802624
 42
-0.190322
  0
VERTEX
  8
0
 10
246.705123
 20
499.842803
 42
-0.077628
  0
VERTEX
  8
0
 10
244.288347
 20
499.252993
 42
-0.034509
  0
VERTEX
  8
0
 10
241.000000
 20
499.202235
 42
0.012677
  0
VERTEX
  8
0
 10
238.221679
 20
499.280616
 42
0.125684
  0
VERTEX
  8
0
 10
237.099306
 20
498.997367
 42
0.201060
  0
VERTEX
  8
0
 10
236.505267
 20
498.257802
 42
0.041298
  0
VERTEX
  8
0
 10
236.169971
 20
496.580728
 42
0.020163
  0
VERTEX
  8
0
 10
236.036705
 20
494.794180
 42
0.261604
  0
VERTEX
  8
0
 10
236.332337
 20
494.222987
 42
0.201331
  0
VERTEX
  8
0
 10
237.034093
 20
494.092313
 42
0.012049
  0
VERTEX
  8
0
 10
239.169971
 20
494.608994
 42
-0.063359
  0
VERTEX
  8
0
 10
241.883361
 20
494.977252
 42
-0.000216
  0
VERTEX
  8
0
 10
275.193299
 20
495.240883
 42
-0.001167
  0
VERTEX
  8
0
 10
313.200225
 20
495.436579
 42
-0.000704
  0
VERTEX
  8
0
 10
358.250101
 20
495.500000
 42
0.000000
  0
VERTEX
  8
0
 10
474.000202
 20
495.500000
 42
0.000000
  0
VERTEX
  8
0
 10
474.000101
 20
499.880842
 42
0.000000
  0
VERTEX
  8
0
 10
474.000000
 20
504.261685
 42
0.000000
  0
VERTEX
  8
0
 10
470.250000
 20
503.641848
 42
-0.028398
  0
VERTEX
  8
0
 10
467.991214
 20
503.399167
 42
-0.003986
  0
VERTEX
  8
0
 10
463.303010
 20
503.200855
 42
-0.004542
  0
VERTEX
  8
0
 10
457.744213
 20
503.060637
 42
-0.003846
  0
VERTEX
  8
0
 10
451.866631
 20
503.011006
 42
0.002498
  0
VERTEX
  8
0
 10
442.744937
 20
502.958566
 42
0.030752
  0
VERTEX
  8
0
 10
439.276760
 20
502.707625
 42
0.100972
  0
VERTEX
  8
0
 10
437.559740
 20
502.109943
 42
0.197194
  0
VERTEX
  8
0
 10
436.702725
 20
500.971220
 42
-0.190381
  0
VERTEX
  8
0
 10
435.876357
 20
499.842673
 42
-0.110771
  0
VERTEX
  8
0
 10
434.272349
 20
499.271926
 42
-0.032786
  0
VERTEX
  8
0
 10
431.021757
 20
499.090796
 42
-0.002566
  0
VERTEX
  8
0
 10
422.336093
 20
499.221220
 42
-0.002898
  0
VERTEX
  8
0
 10
414.173695
 20
499.433018
 42
-0.028835
  0
VERTEX
  8
0
 10
410.765498
 20
499.738501
 42
-0.091453
  0
VERTEX
  8
0
 10
409.150414
 20
500.290706
 42
-0.292474
  0
VERTEX
  8
0
 10
408.638889
 20
501.250000
 42
0.202510
  0
VERTEX
  8
0
 10
408.258514
 20
502.396218
 42
0.189115
  0
VERTEX
  8
0
 10
407.157266
 20
502.965277
 42
0.027361
  0
VERTEX
  8
0
 10
404.331705
 20
503.102215
 42
0.000711
  0
VERTEX
  8
0
 10
391.684775
 20
503.004775
 42
0.003324
  0
VERTEX
  8
0
 10
383.027225
 20
502.868193
 42
0.025491
  0
VERTEX
  8
0
 10
378.975208
 20
502.570270
 42
0.058117
  0
VERTEX
  8
0
 10
376.582781
 20
501.983623
 42
0.107620
  0
VERTEX
  8
0
 10
374.907485
 20
500.907485
 42
-0.104670
  0
VERTEX
  8
0
 10
373.259553
 20
499.835292
 42
-0.066205
  0
VERTEX
  8
0
 10
371.021826
 20
499.297114
 42
-0.027596
  0
VERTEX
  8
0
 10
367.220419
 20
499.112126
 42
-0.003240
  0
VERTEX
  8
0
 10
358.735199
 20
499.222710
 42
-0.003134
  0
VERTEX
  8
0
 10
350.563282
 20
499.433422
 42
-0.026168
  0
VERTEX
  8
0
 10
346.878148
 20
499.745087
 42
-0.066878
  0
VERTEX
  8
0
 10
344.956165
 20
500.277538
 42
-0.249334
  0
VERTEX
  8
0
 10
344.194389
 20
501.222877
 42
-0.326614
  0
VERTEX
  8
0
 10
344.642264
 20
502.169790
 42
-0.089841
  0
VERTEX
  8
0
 10
346.304351
 20
502.717659
 42
-0.027021
  0
VERTEX
  8
0
 10
349.905501
 20
503.025155
 42
-0.002608
  0
VERTEX
  8
0
 10
358.681899
 20
503.252831
 42
0.944654
  0
VERTEX
  8
0
 10
358.686328
 20
503.375167
 42
0.019796
  0
VERTEX
  8
0
 10
356.431980
 20
503.495900
 42
0.002259
  0
VERTEX
  8
0
 10
345.945080
 20
503.594482
 42
0.000705
  0
VERTEX
  8
0
 10
330.214204
 20
503.649084
 42
0.001132
  0
VERTEX
  8
0
 10
313.651820
 20
503.645702
 42
0.001924
  0
VERTEX
  8
0
 10
299.797480
 20
503.558195
 42
0.000211
  0
VERTEX
  8
0
 10
287.539472
 20
503.428422
 42
0.664205
  0
VERTEX
  8
0
 10
287.452218
 20
503.214449
 42
0.172668
  0
VERTEX
  8
0
 10
287.875516
 20
503.013390
 42
0.009416
  0
VERTEX
  8
0
 10
289.367868
 20
502.889783
 42
0.013741
  0
VERTEX
  8
0
 10
291.183955
 20
502.823780
 42
0.009533
  0
VERTEX
  8
0
 10
293.238014
 20
502.844768
 42
-0.016426
  0
VERTEX
  8
0
 10
295.472579
 20
502.836800
 42
-0.013811
  0
VERTEX
  8
0
 10
297.835542
 20
502.685283
 42
-0.014035
  0
VERTEX
  8
0
 10
299.986455
 20
502.426537
 42
-0.036965
  0
VERTEX
  8
0
 10
301.500000
 20
502.085402
 42
-0.319150
  0
VERTEX
  8
0
 10
301.803492
 20
501.692213
 42
-0.388448
  0
VERTEX
  8
0
 10
301.515639
 20
501.351519
 42
-0.026589
  0
VERTEX
  8
0
 10
299.036981
 20
501.165050
 42
-0.003482
  0
VERTEX
  8
0
 10
293.750000
 20
501.085953
 42
-0.010221
  0
VERTEX
  8
0
 10
287.523891
 20
501.163444
 42
-0.050003
  0
VERTEX
  8
0
 10
284.037973
 20
501.629149
 42
-0.395688
  0
VERTEX
  8
0
 10
283.512893
 20
502.422785
 42
-0.260194
  0
VERTEX
  8
0
 10
284.250000
 20
503.337719
 42
0.815734
  0
VERTEX
  8
0
 10
284.213093
 20
503.539106
 42
0.001191
  0
VERTEX
  8
0
 10
277.642187
 20
503.661589
 42
0.003307
  0
VERTEX
  8
0
 10
269.693904
 20
503.738228
 42
0.001837
  0
VERTEX
  8
0
 10
260.000000
 20
503.731968
 42
0.001426
  0
VERTEX
  8
0
 10
250.597486
 20
503.664545
 42
0.003595
  0
VERTEX
  8
0
 10
243.753125
 20
503.546723
 42
0.009786
  0
VERTEX
  8
0
 10
240.499804
 20
503.403565
 42
0.939637
  0
SEQEND
  0
POLYLINE
  8
0
 66
1
 70
1
  0
VERTEX
  8
0
 10
412.250000
 20
503.283746
 42
0.023547
  0
VERTEX
  8
0
 10
413.502218
 20
503.153981
 42
0.014044
  0
VERTEX
  8
0
 10
415.000000
 20
503.111902
 42
0.014044
  0
VERTEX
  8
0
 10
416.497782
 20
503.153981
 42
0.023547
  0
VERTEX
  8
0
 10
417.750000
 20
503.283746
 42
0.124239
  0
VERTEX
  8
0
 10
418.112409
 20
503.435926
 42
0.664672
  0
VERTEX
  8
0
 10
418.076562
 20
503.577962
 42
0.031260
  0
VERTEX
  8
0
 10
416.970620
 20
503.675363
 42
0.006336
  0
VERTEX
  8
0
 10
415.000000
 20
503.700336
 42
0.006336
  0
VERTEX
  8
0
 10
413.029380
 20
503.675363
 42
0.031260
  0
VERTEX
  8
0
 10
411.923438
 20
503.577962
 42
0.664672
  0
VERTEX
  8
0
 10
411.887591
 20
503.435926
 42
0.124239
  0
SEQEND
  0
POLYLINE
  8
0
 66
1
 70
1
  0
VERTEX
  8
0
 10
424.776433
 20
503.266503
 42
0.013671
  0
VERTEX
  8
0
 10
426.684837
 20
503.147583
 42
0.008930
  0
VERTEX
  8
0
 10
428.890462
 20
503.110009
 42
0.008983
  0
VERTEX
  8
0
 10
431.043501
 20
503.150473
 42
0.016947
  0
VERTEX
  8
0
 10
432.776433
 20
503.273107
 42
0.153636
  0
VERTEX
  8
0
 10
433.099419
 20
503.413268
 42
0.661512
  0
VERTEX
  8
0
 10
433.056202
 20
503.547090
 42
0.018464
  0
VERTEX
  8
0
 10
431.373175
 20
503.635783
 42
0.004138
  0
VERTEX
  8
0
 10
428.500000
 20
503.657190
 42
0.003921
  0
VERTEX
  8
0
 10
425.635274
 20
503.632360
 42
0.022011
  0
VERTEX
  8
0
 10
424.106202
 20
503.539701
 42
0.807686
  0
VERTEX
  8
0
 10
424.092045
 20
503.408440
 42
0.057523
  0
SEQEND
  0
POLYLINE
  8
0
 66
1
 70
1
  0
VERTEX
  8
0
 10
549.250000
 20
503.220975
 42
0.000000
  0
VERTEX
  8
0
 10
536.000000
 20
502.941950
 42
0.000000
  0
VERTEX
  8
0
 10
536.000000
 20
499.470975
 42
0.000000
  0
VERTEX
  8
0
 10
536.000000
 20
496.000000
 42
0.000000
  0
VERTEX
  8
0
 10
602.750000
 20
496.025683
 42
-0.000591
  0
VERTEX
  8
0
 10
632.231116
 20
496.002162
 42
-0.000405
  0
VERTEX
  8
0
 10
665.699058
 20
495.908774
 42
-0.000408
  0
VERTEX
  8
0
 10
697.943177
 20
495.766366
 42
-0.000828
  0
VERTEX
  8
0
 10
723.310624
 20
495.591629
 42
0.000602
  0
VERTEX
  8
0
 10
756.256706
 20
495.349796
 42
0.007256
  0
VERTEX
  8
0
 10
768.936944
 20
495.455994
 42
0.010450
  0
VERTEX
  8
0
 10
775.984284
 20
495.764765
 42
0.451589
  0
VERTEX
  8
0
 10
776.796348
 20
496.815946
 42
0.199175
  0
VERTEX
  8
0
 10
776.224724
 20
497.681257
 42
0.099161
  0
VERTEX
  8
0
 10
774.991354
 20
498.197092
 42
0.041491
  0
VERTEX
  8
0
 10
772.696071
 20
498.463415
 42
0.006605
  0
VERTEX
  8
0
 10
768.167645
 20
498.551137
 42
-0.008870
  0
VERTEX
  8
0
 10
764.136424
 20
498.647493
 42
-0.029971
  0
VERTEX
  8
0
 10
761.516663
 20
498.914477
 42
-0.046630
  0
VERTEX
  8
0
 10
759.817697
 20
499.356766
 42
-0.167804
  0
VERTEX
  8
0
 10
758.959691
 20
500.051137
 42
-0.172797
  0
VERTEX
  8
0
 10
758.798519
 20
500.786733
 42
-0.242918
  0
VERTEX
  8
0
 10
759.172712
 20
501.330040
 42
-0.080011
  0
VERTEX
  8
0
 10
760.324690
 20
501.726406
 42
-0.011702
  0
VERTEX
  8
0
 10
762.777770
 20
502.092896
 42
0.878656
  0
VERTEX
  8
0
 10
762.778743
 20
502.330063
 42
0.020861
  0
VERTEX
  8
0
 10
760.293946
 20
502.557778
 42
0.007483
  0
VERTEX
  8
0
 10
754.991470
 20
502.741881
 42
0.002953
  0
VERTEX
  8
0
 10
747.690983
 20
502.842896
 42
0.002892
  0
VERTEX
  8
0
 10
738.315574
 20
502.863028
 42
0.011563
  0
VERTEX
  8
0
 10
732.575988
 20
502.709395
 42
0.011265
  0
VERTEX
  8
0
 10
728.842561
 20
502.438568
 42
0.555894
  0
VERTEX
  8
0
 10
728.569098
 20
501.888197
 42
-0.344739
  0
VERTEX
  8
0
 10
728.427143
 20
500.607433
 42
-0.140737
  0
VERTEX
  8
0
 10
726.803418
 20
499.684607
 42
-0.048338
  0
VERTEX
  8
0
 10
723.107308
 20
499.161574
 42
-0.010604
  0
VERTEX
  8
0
 10
716.684259
 20
499.015313
 42
-0.014471
  0
VERTEX
  8
0
 10
710.374760
 20
499.188114
 42
-0.042636
  0
VERTEX
  8
0
 10
706.081094
 20
499.799939
 42
-0.089636
  0
VERTEX
  8
0
 10
703.811527
 20
500.774395
 42
-0.405228
  0
VERTEX
  8
0
 10
703.531009
 20
502.050173
 42
-0.232685
  0
VERTEX
  8
0
 10
704.136396
 20
502.429710
 42
-0.006256
  0
VERTEX
  8
0
 10
707.355342
 20
502.720988
 42
-0.011785
  0
VERTEX
  8
0
 10
711.234485
 20
502.931296
 42
-0.007648
  0
VERTEX
  8
0
 10
715.725684
 20
503.000000
 42
0.004676
  0
VERTEX
  8
0
 10
720.137646
 20
503.041259
 42
0.008415
  0
VERTEX
  8
0
 10
723.753784
 20
503.169802
 42
0.004014
  0
VERTEX
  8
0
 10
726.668348
 20
503.346025
 42
0.643715
  0
VERTEX
  8
0
 10
726.755283
 20
503.578050
 42
0.199652
  0
VERTEX
  8
0
 10
726.203434
 20
503.805714
 42
0.000566
  0
VERTEX
  8
0
 10
718.096005
 20
503.773459
 42
0.003195
  0
VERTEX
  8
0
 10
708.898798
 20
503.667678
 42
0.001975
  0
VERTEX
  8
0
 10
698.088617
 20
503.431541
 42
0.001822
  0
VERTEX
  8
0
 10
683.505230
 20
503.002165
 42
0.010024
  0
VERTEX
  8
0
 10
675.647992
 20
502.584350
 42
0.009486
  0
VERTEX
  8
0
 10
670.672825
 20
502.124614
 42
0.382030
  0
VERTEX
  8
0
 10
670.000000
 20
501.372544
 42
-0.294682
  0
VERTEX
  8
0
 10
669.192319
 20
500.121117
 42
-0.072667
  0
VERTEX
  8
0
 10
666.726820
 20
499.413656
 42
-0.033468
  0
VERTEX
  8
0
 10
662.208324
 20
499.108433
 42
-0.006442
  0
VERTEX
  8
0
 10
654.000000
 20
499.209785
 42
-0.003565
  0
VERTEX
  8
0
 10
647.254123
 20
499.428160
 42
-0.035164
  0
VERTEX
  8
0
 10
644.432502
 20
499.739196
 42
-0.120755
  0
VERTEX
  8
0
 10
643.161381
 20
500.307508
 42
-0.275781
  0
VERTEX
  8
0
 10
642.793837
 20
501.250000
 42
0.352347
  0
VERTEX
  8
0
 10
642.245852
 20
502.226974
 42
0.071824
  0
VERTEX
  8
0
 10
640.176837
 20
502.730431
 42
0.021938
  0
VERTEX
  8
0
 10
635.767375
 20
502.957380
 42
0.001889
  0
VERTEX
  8
0
 10
624.484820
 20
503.000000
 42
0.003125
  0
VERTEX
  8
0
 10
615.709897
 20
502.945155
 42
0.012370
  0
VERTEX
  8
0
 10
610.318529
 20
502.744293
 42
0.012666
  0
VERTEX
  8
0
 10
606.836994
 20
502.439552
 42
0.550117
  0
VERTEX
  8
0
 10
606.569098
 20
501.888197
 42
-0.123544
  0
VERTEX
  8
0
 10
606.725209
 20
501.397018
 42
-0.099558
  0
VERTEX
  8
0
 10
606.649564
 20
500.846576
 42
-0.089711
  0
VERTEX
  8
0
 10
606.352730
 20
500.320824
 42
-0.078477
  0
VERTEX
  8
0
 10
605.878115
 20
499.903509
 42
-0.139412
  0
VERTEX
  8
0
 10
603.462935
 20
499.189172
 42
-0.001212
  0
VERTEX
  8
0
 10
584.052891
 20
499.031795
 42
-0.000913
  0
VERTEX
  8
0
 10
564.375172
 20
498.955918
 42
-0.199440
  0
VERTEX
  8
0
 10
562.675343
 20
499.657991
 42
-0.162415
  0
VERTEX
  8
0
 10
562.502496
 20
500.003915
 42
-0.084854
  0
VERTEX
  8
0
 10
562.516102
 20
500.490760
 42
-0.069559
  0
VERTEX
  8
0
 10
562.708308
 20
501.040868
 42
-0.054477
  0
VERTEX
  8
0
 10
563.057234
 20
501.568963
 42
0.050002
  0
VERTEX
  8
0
 10
563.397160
 20
502.073585
 42
0.085821
  0
VERTEX
  8
0
 10
563.557075
 20
502.553471
 42
0.127281
  0
VERTEX
  8
0
 10
563.518124
 20
502.931175
 42
0.206186
  0
VERTEX
  8
0
 10
563.298558
 20
503.160972
 42
0.098214
  0
VERTEX
  8
0
 10
562.673831
 20
503.291316
 42
0.001405
  0
VERTEX
  8
0
 10
558.842389
 20
503.318447
 42
0.003826
  0
VERTEX
  8
0
 10
554.385843
 20
503.303381
 42
0.002506
  0
SEQEND
  0
POLYLINE
  8
0
 66
1
 70
1
  0
VERTEX
  8
0
 10
575.803194
 20
503.253532
 42
0.004891
  0
VERTEX
  8
0
 10
580.451594
 20
503.152551
 42
0.003005
  0
VERTEX
  8
0
 10
585.928261
 20
503.120077
 42
0.003012
  0
VERTEX
  8
0
 10
591.347332
 20
503.153161
 42
0.005377
  0
VERTEX
  8
0
 10
595.803194
 20
503.255140
 42
0.042812
  0
VERTEX
  8
0
 10
596.786309
 20
503.372892
 42
0.888327
  0
VERTEX
  8
0
 10
596.776563
 20
503.485103
 42
0.006527
  0
VERTEX
  8
0
 10
592.676781
 20
503.560744
 42
0.001369
  0
VERTEX
  8
0
 10
585.500000
 20
503.579813
 42
0.001336
  0
VERTEX
  8
0
 10
578.332159
 20
503.560081
 42
0.007053
  0
VERTEX
  8
0
 10
574.401563
 20
503.483305
 42
0.918240
  0
VERTEX
  8
0
 10
574.395830
 20
503.372209
 42
0.026319
  0
SEQEND
  0
POLYLINE
  8
0
 66
1
 70
1
  0
VERTEX
  8
0
 10
804.666667
 20
499.333333
 42
0.077955
  0
VERTEX
  8
0
 10
804.410903
 20
498.982401
 42
0.038133
  0
VERTEX
  8
0
 10
804.195833
 20
498.470833
 42
0.036641
  0
VERTEX
  8
0
 10
804.049145
 20
497.892744
 42
0.043841
  0
VERTEX
  8
0
 10
804.000000
 20
497.333333
 42
0.372626
  0
VERTEX
  8
0
 10
804.618913
 20
496.618170
 42
0.018997
  0
VERTEX
  8
0
 10
807.917316
 20
496.267042
 42
0.014425
  0
VERTEX
  8
0
 10
813.377866
 20
496.052787
 42
0.002592
  0
VERTEX
  8
0
 10
823.559017
 20
496.000000
 42
0.003426
  0
VERTEX
  8
0
 10
832.059483
 20
496.058252
 42
0.009761
  0
VERTEX
  8
0
 10
837.975262
 20
496.254882
 42
0.006183
  0
VERTEX
  8
0
 10
842.263620
 20
496.534506
 42
0.561623
  0
VERTEX
  8
0
 10
842.500000
 20
497.000000
 42
-0.230788
  0
VERTEX
  8
0
 10
842.460764
 20
497.391277
 42
-0.155964
  0
VERTEX
  8
0
 10
842.741787
 20
497.751043
 42
-0.089517
  0
VERTEX
  8
0
 10
843.349751
 20
498.022307
 42
-0.043822
  0
VERTEX
  8
0
 10
844.190983
 20
498.152487
 42
0.646995
  0
VERTEX
  8
0
 10
844.244510
 20
498.296290
 42
0.143710
  0
VERTEX
  8
0
 10
843.912351
 20
498.474803
 42
0.018276
  0
VERTEX
  8
0
 10
842.356992
 20
498.743603
 42
0.005662
  0
VERTEX
  8
0
 10
840.000000
 20
499.035603
 42
0.020069
  0
VERTEX
  8
0
 10
831.954606
 20
499.614277
 42
0.005811
  0
VERTEX
  8
0
 10
819.505827
 20
499.863889
 42
0.001472
  0
VERTEX
  8
0
 10
806.129850
 20
499.937228
 42
0.199572
  0
SEQEND
  0
POLYLINE
  8
0
 66
1
 70
1
  0
VERTEX
  8
0
 10
846.263750
 20
495.282419
 42
0.022548
  0
VERTEX
  8
0
 10
847.485188
 20
495.153707
 42
0.015659
  0
VERTEX
  8
0
 10
848.872547
 20
495.114038
 42
0.015827
  0
VERTEX
  8
0
 10
850.209518
 20
495.160023
 42
0.031163
  0
VERTEX
  8
0
 10
851.263750
 20
495.296069
 42
0.248898
  0
VERTEX
  8
0
 10
851.455688
 20
495.450815
 42
0.490820
  0
VERTEX
  8
0
 10
851.374351
 20
495.596853
 42
0.030832
  0
VERTEX
  8
0
 10
850.297080
 20
495.692368
 42
0.007380
  0
VERTEX
  8
0
 10
848.500000
 20
495.713986
 42
0.006817
  0
VERTEX
  8
0
 10
846.711719
 20
495.684722
 42
0.040183
  0
VERTEX
  8
0
 10
845.780601
 20
495.581582
 42
0.720633
  0
VERTEX
  8
0
 10
845.761725
 20
495.438612
 42
0.075924
  0
SEQEND
  0
POLYLINE
  8
0
 66
1
 70
1
  0
VERTEX
  8
0
 10
138.000000
 20
489.500000
 42
0.366005
  0
VERTEX
  8
0
 10
138.712879
 20
488.656594
 42
0.025417
  0
VERTEX
  8
0
 10
142.041157
 20
488.266993
 42
0.014581
  0
VERTEX
  8
0
 10
147.995124
 20
488.049305
 42
0.001880
  0
VERTEX
  8
0
 10
160.750000
 20
488.003058
 42
0.003976
  0
VERTEX
  8
0
 10
181.510652
 20
488.170947
 42
0.005393
  0
VERTEX
  8
0
 10
200.252416
 20
488.673831
 42
0.001049
  0
VERTEX
  8
0
 10
217.223893
 20
489.348147
 42
0.402020
  0
VERTEX
  8
0
 10
218.000000
 20
490.157400
 42
0.407549
  0
VERTEX
  8
0
 10
217.663070
 20
490.502104
 42
0.000436
  0
VERTEX
  8
0
 10
206.250000
 20
490.752486
 42
0.003292
  0
VERTEX
  8
0
 10
193.337972
 20
490.939449
 42
0.001974
  0
VERTEX
  8
0
 10
178.000000
 20
491.000000
 42
0.001001
  0
VERTEX
  8
0
 10
155.219419
 20
490.954376
 42
0.008369
  0
VERTEX
  8
0
 10
144.916667
 20
490.740625
 42
0.009640
  0
VERTEX
  8
0
 10
138.829141
 20
490.394715
 42
0.392113
  0
SEQEND
  0
POLYLINE
  8
0
 66
1
 70
1
  0
VERTEX
  8
0
 10
236.000000
 20
488.519052
 42
0.000000
  0
VERTEX
  8
0
 10
236.000000
 20
486.000000
 42
0.000000
  0
VERTEX
  8
0
 10
355.073324
 20
486.000000
 42
0.000255
  0
VERTEX
  8
0
 10
429.594794
 20
486.037962
 42
0.003430
  0
VERTEX
  8
0
 10
456.885602
 20
486.252967
 42
0.002661
  0
VERTEX
  8
0
 10
472.862964
 20
486.573491
 42
0.463358
  0
VERTEX
  8
0
 10
473.809706
 20
487.750000
 42
0.351874
  0
VERTEX
  8
0
 10
472.426065
 20
488.924677
 42
0.002659
  0
VERTEX
  8
0
 10
456.561684
 20
489.272094
 42
0.003479
  0
VERTEX
  8
0
 10
429.618544
 20
489.531286
 42
0.000266
  0
VERTEX
  8
0
 10
357.060680
 20
489.685690
 42
-0.000466
  0
VERTEX
  8
0
 10
312.263304
 20
489.798903
 42
-0.000754
  0
VERTEX
  8
0
 10
274.161883
 20
489.988197
 42
-0.000095
  0
VERTEX
  8
0
 10
240.215031
 20
490.214510
 42
-0.059833
  0
VERTEX
  8
0
 10
238.324298
 20
490.454742
 42
0.037028
  0
VERTEX
  8
0
 10
237.069370
 20
490.672592
 42
0.200703
  0
VERTEX
  8
0
 10
236.422777
 20
490.473792
 42
0.188917
  0
VERTEX
  8
0
 10
236.087196
 20
489.863779
 42
0.032387
  0
SEQEND
  0
POLYLINE
  8
0
 66
1
 70
1
  0
VERTEX
  8
0
 10
655.750000
 20
489.250038
 42
0.000318
  0
VERTEX
  8
0
 10
586.787896
 20
489.057505
 42
0.002805
  0
VERTEX
  8
0
 10
556.305475
 20
488.782013
 42
0.001179
  0
VERTEX
  8
0
 10
536.938340
 20
488.452640
 42
0.408553
  0
VERTEX
  8
0
 10
536.000000
 20
487.495952
 42
0.409213
  0
VERTEX
  8
0
 10
536.939587
 20
486.540156
 42
0.001172
  0
VERTEX
  8
0
 10
556.387675
 20
486.253104
 42
0.002789
  0
VERTEX
  8
0
 10
587.020167
 20
486.043700
 42
0.000314
  0
VERTEX
  8
0
 10
656.500000
 20
486.000000
 42
0.000212
  0
VERTEX
  8
0
 10
736.433921
 20
486.033885
 42
0.003937
  0
VERTEX
  8
0
 10
761.687500
 20
486.254149
 42
0.004653
  0
VERTEX
  8
0
 10
775.664145
 20
486.616262
 42
0.403938
  0
VERTEX
  8
0
 10
777.000000
 20
488.000000
 42
0.036047
  0
VERTEX
  8
0
 10
776.945932
 20
488.748986
 42
0.065072
  0
VERTEX
  8
0
 10
776.779688
 20
489.340263
 42
0.102900
  0
VERTEX
  8
0
 10
776.535510
 20
489.690278
 42
0.274991
  0
VERTEX
  8
0
 10
776.250000
 20
489.754086
 42
-0.078311
  0
VERTEX
  8
0
 10
775.620939
 20
489.652222
 42
-0.000013
  0
VERTEX
  8
0
 10
740.543750
 20
489.504582
 42
-0.000316
  0
VERTEX
  8
0
 10
701.719408
 20
489.366699
 42
-0.000191
  0
SEQEND
  0
POLYLINE
  8
0
 66
1
 70
1
  0
VERTEX
  8
0
 10
374.413427
 20
473.908772
 42
-0.056680
  0
VERTEX
  8
0
 10
372.675723
 20
471.338881
 42
-0.000432
  0
VERTEX
  8
0
 10
356.208697
 20
452.128731
 42
-0.001833
  0
VERTEX
  8
0
 10
340.612407
 20
434.100296
 42
-0.004845
  0
VERTEX
  8
0
 10
329.279924
 20
421.348834
 42
0.000000
  0
VERTEX
  8
0
 10
320.986989
 20
412.197669
 42
0.000000
  0
VERTEX
  8
0
 10
325.421564
 20
409.598834
 42
0.007523
  0
VERTEX
  8
0
 10
327.180090
 20
408.603509
 42
0.010284
  0
VERTEX
  8
0
 10
328.794925
 20
407.763975
 42
0.007378
  0
VERTEX
  8
0
 10
330.160789
 20
407.114083
 42
0.108348
  0
VERTEX
  8
0
 10
330.678070
 20
407.001933
 42
0.211512
  0
VERTEX
  8
0
 10
331.143188
 20
407.209213
 42
0.010095
  0
VERTEX
  8
0
 10
332.286683
 20
408.527549
 42
0.015080
  0
VERTEX
  8
0
 10
333.599258
 20
410.204372
 42
0.010145
  0
VERTEX
  8
0
 10
335.000000
 20
412.192805
 42
-0.010298
  0
VERTEX
  8
0
 10
336.875760
 20
414.853817
 42
-0.003122
  0
VERTEX
  8
0
 10
339.828302
 20
418.812361
 42
-0.003126
  0
VERTEX
  8
0
 10
343.193983
 20
423.209094
 42
-0.003400
  0
VERTEX
  8
0
 10
346.521880
 20
427.440872
 42
0.002729
  0
VERTEX
  8
0
 10
352.286079
 20
434.750444
 42
0.002675
  0
VERTEX
  8
0
 10
358.008808
 20
442.170991
 42
0.002303
  0
VERTEX
  8
0
 10
362.930746
 20
448.686289
 42
0.015534
  0
VERTEX
  8
0
 10
365.253200
 20
452.000000
 42
0.880090
  0
VERTEX
  8
0
 10
365.155794
 20
452.083322
 42
0.008533
  0
VERTEX
  8
0
 10
363.689371
 20
450.709375
 42
0.006059
  0
VERTEX
  8
0
 10
361.434074
 20
448.469199
 42
0.002788
  0
VERTEX
  8
0
 10
358.548771
 20
445.500000
 42
0.013668
  0
VERTEX
  8
0
 10
355.138435
 20
441.751216
 42
0.007852
  0
VERTEX
  8
0
 10
351.225531
 20
437.059375
 42
0.007840
  0
VERTEX
  8
0
 10
347.439062
 20
432.218019
 42
0.012955
  0
VERTEX
  8
0
 10
344.414080
 20
428.000000
 42
-0.009741
  0
VERTEX
  8
0
 10
341.607465
 20
424.032890
 42
-0.008366
  0
VERTEX
  8
0
 10
338.505449
 20
419.968750
 42
-0.008452
  0
VERTEX
  8
0
 10
335.564524
 20
416.373127
 42
-0.023869
  0
VERTEX
  8
0
 10
333.352823
 20
414.000000
 42
-0.005621
  0
VERTEX
  8
0
 10
330.368763
 20
411.154582
 42
-0.292910
  0
VERTEX
  8
0
 10
329.619936
 20
411.017933
 42
-0.510115
  0
VERTEX
  8
0
 10
329.495600
 20
411.530449
 42
-0.006248
  0
VERTEX
  8
0
 10
332.101038
 20
414.513647
 42
0.033374
  0
VERTEX
  8
0
 10
332.896635
 20
415.531014
 42
0.015082
  0
VERTEX
  8
0
 10
333.806054
 20
416.959902
 42
0.014855
  0
VERTEX
  8
0
 10
334.678739
 20
418.531387
 42
0.019658
  0
VERTEX
  8
0
 10
335.372763
 20
420.013647
 42
-0.054936
  0
VERTEX
  8
0
 10
336.444113
 20
421.936395
 42
-0.008730
  0
VERTEX
  8
0
 10
339.009032
 20
425.413384
 42
-0.009584
  0
VERTEX
  8
0
 10
342.194300
 20
429.415784
 42
-0.008258
  0
VERTEX
  8
0
 10
345.689794
 20
433.500000
 42
0.001736
  0
VERTEX
  8
0
 10
349.247293
 20
437.548553
 42
0.001988
  0
VERTEX
  8
0
 10
352.618960
 20
441.443750
 42
0.001792
  0
VERTEX
  8
0
 10
355.454233
 20
444.769741
 42
0.011339
  0
VERTEX
  8
0
 10
356.852453
 20
446.500000
 42
-0.013314
  0
VERTEX
  8
0
 10
358.206166
 20
448.161713
 42
-0.002599
  0
VERTEX
  8
0
 10
360.738745
 20
451.075997
 42
-0.002759
  0
VERTEX
  8
0
 10
363.728233
 20
454.442508
 42
-0.002551
  0
VERTEX
  8
0
 10
366.833150
 20
457.865098
 42
0.004687
  0
VERTEX
  8
0
 10
369.903940
 20
461.279260
 42
0.005271
  0
VERTEX
  8
0
 10
372.790772
 20
464.620388
 42
0.004852
  0
VERTEX
  8
0
 10
375.188348
 20
467.511570
 42
0.028223
  0
VERTEX
  8
0
 10
376.348201
 20
469.115098
 42
-0.021712
  0
VERTEX
  8
0
 10
377.125537
 20
470.219779
 42
-0.028459
  0
VERTEX
  8
0
 10
377.932993
 20
471.152560
 42
-0.028516
  0
VERTEX
  8
0
 10
378.668502
 20
471.828707
 42
-0.173293
  0
VERTEX
  8
0
 10
379.147891
 20
472.000000
 42
-0.488702
  0
VERTEX
  8
0
 10
379.546199
 20
471.488540
 42
-0.084503
  0
VERTEX
  8
0
 10
378.967862
 20
470.179740
 42
-0.027968
  0
VERTEX
  8
0
 10
377.157013
 20
467.750676
 42
-0.005057
  0
VERTEX
  8
0
 10
373.500000
 20
463.467026
 42
0.006398
  0
VERTEX
  8
0
 10
369.476486
 20
458.728388
 42
0.046725
  0
VERTEX
  8
0
 10
367.801527
 20
456.268430
 42
0.857740
  0
VERTEX
  8
0
 10
368.100983
 20
456.037334
 42
0.014868
  0
VERTEX
  8
0
 10
371.034063
 20
459.000000
 42
-0.002274
  0
VERTEX
  8
0
 10
373.060041
 20
461.152212
 42
-0.001023
  0
VERTEX
  8
0
 10
375.738681
 20
463.960416
 42
-0.001013
  0
VERTEX
  8
0
 10
378.580426
 20
466.915433
 42
-0.001380
  0
VERTEX
  8
0
 10
381.155253
 20
469.567374
 42
0.000000
  0
VERTEX
  8
0
 10
387.078822
 20
475.634747
 42
0.000000
  0
VERTEX
  8
0
 10
381.202838
 20
475.646205
 42
0.013130
  0
VERTEX
  8
0
 10
378.203732
 20
475.573284
 42
0.050031
  0
VERTEX
  8
0
 10
376.355223
 20
475.292873
 42
0.086408
  0
VERTEX
  8
0
 10
375.173779
 20
474.761136
 42
0.124175
  0
SEQEND
  0
POLYLINE
  8
0
 66
1
 70
1
  0
VERTEX
  8
0
 10
625.775288
 20
475.441955
 42
0.384179
  0
VERTEX
  8
0
 10
625.748283
 20
474.921194
 42
0.001919
  0
VERTEX
  8
0
 10
629.340319
 20
470.529899
 42
0.006923
  0
VERTEX
  8
0
 10
633.614966
 20
465.488703
 42
0.004171
  0
VERTEX
  8
0
 10
638.815713
 20
459.624209
 42
-0.003542
  0
VERTEX
  8
0
 10
644.785184
 20
452.909893
 42
-0.002483
  0
VERTEX
  8
0
 10
651.417741
 20
445.266225
 42
-0.002505
  0
VERTEX
  8
0
 10
657.697869
 20
437.881179
 42
-0.005226
  0
VERTEX
  8
0
 10
662.500000
 20
432.053972
 42
0.001016
  0
VERTEX
  8
0
 10
673.974557
 20
417.888699
 42
0.037035
  0
VERTEX
  8
0
 10
676.846856
 20
414.847879
 42
0.181892
  0
VERTEX
  8
0
 10
678.966780
 20
414.001148
 42
0.104359
  0
VERTEX
  8
0
 10
681.706533
 20
414.521848
 42
-0.016992
  0
VERTEX
  8
0
 10
683.217059
 20
415.093517
 42
-0.014902
  0
VERTEX
  8
0
 10
684.830108
 20
415.588984
 42
-0.015143
  0
VERTEX
  8
0
 10
686.313684
 20
415.948782
 42
-0.042665
  0
VERTEX
  8
0
 10
687.372124
 20
416.078947
 42
0.022335
  0
VERTEX
  8
0
 10
688.121944
 20
416.140380
 42
0.122517
  0
VERTEX
  8
0
 10
688.497696
 20
416.286218
 42
0.460141
  0
VERTEX
  8
0
 10
688.515274
 20
416.472193
 42
0.105541
  0
VERTEX
  8
0
 10
688.215777
 20
416.673688
 42
-0.116674
  0
VERTEX
  8
0
 10
686.453539
 20
417.916444
 42
-0.000303
  0
VERTEX
  8
0
 10
666.467374
 20
440.535692
 42
-0.001643
  0
VERTEX
  8
0
 10
648.516220
 20
461.011897
 42
-0.014494
  0
VERTEX
  8
0
 10
640.880103
 20
470.311094
 42
0.012406
  0
VERTEX
  8
0
 10
638.211397
 20
473.588834
 42
0.081047
  0
VERTEX
  8
0
 10
636.594247
 20
474.953460
 42
0.100854
  0
VERTEX
  8
0
 10
634.777641
 20
475.592264
 42
0.024174
  0
VERTEX
  8
0
 10
631.577012
 20
475.877145
 42
0.012052
  0
VERTEX
  8
0
 10
629.554363
 20
475.910185
 42
0.016777
  0
VERTEX
  8
0
 10
627.745138
 20
475.835385
 42
0.013232
  0
VERTEX
  8
0
 10
626.271097
 20
475.685504
 42
0.165898
  0
SEQEND
  0
POLYLINE
  8
0
 66
1
 70
1
  0
VERTEX
  8
0
 10
672.833576
 20
427.198084
 42
-0.011316
  0
VERTEX
  8
0
 10
674.812333
 20
424.669835
 42
-0.015171
  0
VERTEX
  8
0
 10
676.482363
 20
422.286013
 42
-0.012283
  0
VERTEX
  8
0
 10
677.748510
 20
420.249340
 42
-0.133698
  0
VERTEX
  8
0
 10
678.000000
 20
419.325639
 42
-0.037207
  0
VERTEX
  8
0
 10
677.940972
 20
418.533502
 42
-0.320784
  0
VERTEX
  8
0
 10
677.707998
 20
418.293042
 42
-0.203230
  0
VERTEX
  8
0
 10
677.302183
 20
418.384053
 42
-0.017779
  0
VERTEX
  8
0
 10
676.448538
 20
419.042710
 42
-0.049268
  0
VERTEX
  8
0
 10
672.820355
 20
422.713089
 42
-0.004083
  0
VERTEX
  8
0
 10
664.450221
 20
433.213298
 42
-0.001657
  0
VERTEX
  8
0
 10
655.640839
 20
444.528651
 42
-0.166051
  0
VERTEX
  8
0
 10
655.000000
 20
446.405084
 42
-0.680186
  0
VERTEX
  8
0
 10
655.359207
 20
446.546970
 42
-0.001010
  0
VERTEX
  8
0
 10
661.964297
 20
439.461956
 42
-0.004876
  0
VERTEX
  8
0
 10
668.200164
 20
432.613098
 42
-0.010531
  0
SEQEND
  0
POLYLINE
  8
0
 66
1
 70
1
  0
VERTEX
  8
0
 10
171.148377
 20
470.865981
 42
0.034267
  0
VERTEX
  8
0
 10
170.642564
 20
469.917083
 42
0.075481
  0
VERTEX
  8
0
 10
170.423507
 20
469.127277
 42
0.114406
  0
VERTEX
  8
0
 10
170.488890
 20
468.523906
 42
0.172583
  0
VERTEX
  8
0
 10
170.817121
 20
468.115981
 42
-0.744388
  0
VERTEX
  8
0
 10
170.753552
 20
467.877440
 42
-0.002923
  0
VERTEX
  8
0
 10
166.557299
 20
467.773725
 42
-0.006070
  0
VERTEX
  8
0
 10
161.325980
 20
467.738547
 42
-0.003315
  0
VERTEX
  8
0
 10
154.909291
 20
467.815849
 42
0.002426
  0
VERTEX
  8
0
 10
145.234587
 20
467.949610
 42
0.020694
  0
VERTEX
  8
0
 10
140.899273
 20
467.809061
 42
0.049829
  0
VERTEX
  8
0
 10
138.643326
 20
467.413990
 42
0.336350
  0
VERTEX
  8
0
 10
138.000000
 20
466.565849
 42
0.346223
  0
VERTEX
  8
0
 10
138.684651
 20
465.695628
 42
0.039186
  0
VERTEX
  8
0
 10
141.333223
 20
465.270271
 42
0.018069
  0
VERTEX
  8
0
 10
146.304495
 20
465.047544
 42
0.002160
  0
VERTEX
  8
0
 10
157.311439
 20
465.000000
 42
0.002172
  0
VERTEX
  8
0
 10
169.047721
 20
465.050986
 42
0.021065
  0
VERTEX
  8
0
 10
174.016569
 20
465.303683
 42
0.053371
  0
VERTEX
  8
0
 10
176.841334
 20
465.875045
 42
0.111409
  0
VERTEX
  8
0
 10
178.769625
 20
467.000000
 42
-0.109333
  0
VERTEX
  8
0
 10
180.673080
 20
468.120958
 42
-0.054566
  0
VERTEX
  8
0
 10
183.424087
 20
468.694089
 42
-0.021789
  0
VERTEX
  8
0
 10
188.232110
 20
468.948194
 42
-0.002307
  0
VERTEX
  8
0
 10
199.458187
 20
469.000000
 42
0.001698
  0
VERTEX
  8
0
 10
211.291663
 20
469.040193
 42
0.025169
  0
VERTEX
  8
0
 10
215.432273
 20
469.276966
 42
0.097004
  0
VERTEX
  8
0
 10
217.321134
 20
469.863024
 42
0.275827
  0
VERTEX
  8
0
 10
218.000000
 20
471.000000
 42
0.303311
  0
VERTEX
  8
0
 10
217.225255
 20
472.159652
 42
0.076443
  0
VERTEX
  8
0
 10
214.905068
 20
472.728031
 42
0.020593
  0
VERTEX
  8
0
 10
209.890113
 20
472.961247
 42
0.001323
  0
VERTEX
  8
0
 10
195.240547
 20
473.000000
 42
0.001446
  0
VERTEX
  8
0
 10
180.590651
 20
472.957641
 42
0.020644
  0
VERTEX
  8
0
 10
175.373579
 20
472.711920
 42
0.065750
  0
VERTEX
  8
0
 10
172.682619
 20
472.111135
 42
0.166920
  0
SEQEND
  0
POLYLINE
  8
0
 66
1
 70
1
  0
VERTEX
  8
0
 10
242.813711
 20
469.824186
 42
0.050314
  0
VERTEX
  8
0
 10
244.400732
 20
467.799649
 42
0.003640
  0
VERTEX
  8
0
 10
249.369178
 20
462.703042
 42
0.005069
  0
VERTEX
  8
0
 10
255.412161
 20
456.716412
 42
0.003811
  0
VERTEX
  8
0
 10
262.175563
 20
450.250000
 42
0.003178
  0
VERTEX
  8
0
 10
271.215575
 20
441.845644
 42
0.015328
  0
VERTEX
  8
0
 10
276.529827
 20
437.259697
 42
0.023532
  0
VERTEX
  8
0
 10
280.084598
 20
434.644611
 42
0.147864
  0
VERTEX
  8
0
 10
282.216680
 20
434.000000
 42
0.030821
  0
VERTEX
  8
0
 10
283.282971
 20
434.065791
 42
0.047788
  0
VERTEX
  8
0
 10
284.182400
 20
434.265739
 42
0.060986
  0
VERTEX
  8
0
 10
284.807064
 20
434.556828
 42
0.258780
  0
VERTEX
  8
0
 10
285.000000
 20
434.904643
 42
0.197044
  0
VERTEX
  8
0
 10
284.750764
 20
435.512528
 42
0.000766
  0
VERTEX
  8
0
 10
279.391811
 20
440.932496
 42
0.003710
  0
VERTEX
  8
0
 10
273.227372
 20
447.056489
 42
0.002306
  0
VERTEX
  8
0
 10
265.908293
 20
454.154643
 42
0.002948
  0
VERTEX
  8
0
 10
256.038607
 20
463.527216
 42
0.013308
  0
VERTEX
  8
0
 10
250.100888
 20
468.809635
 42
0.019184
  0
VERTEX
  8
0
 10
246.090538
 20
471.935501
 42
0.130216
  0
VERTEX
  8
0
 10
243.763120
 20
472.824186
 42
0.000000
  0
VERTEX
  8
0
 10
240.709655
 20
473.148372
 42
0.000000
  0
SEQEND
  0
POLYLINE
  8
0
 66
1
 70
1
  0
VERTEX
  8
0
 10
301.750000
 20
472.353344
 42
0.240258
  0
VERTEX
  8
0
 10
300.783288
 20
471.452988
 42
0.062133
  0
VERTEX
  8
0
 10
300.292932
 20
469.312897
 42
0.023649
  0
VERTEX
  8
0
 10
300.071896
 20
465.211809
 42
0.002529
  0
VERTEX
  8
0
 10
300.057630
 20
455.676676
 42
0.004102
  0
VERTEX
  8
0
 10
300.133966
 20
449.189822
 42
0.004896
  0
VERTEX
  8
0
 10
300.315962
 20
443.076899
 42
0.004250
  0
VERTEX
  8
0
 10
300.563483
 20
437.930121
 42
0.031657
  0
VERTEX
  8
0
 10
300.856134
 20
435.500000
 42
0.000000
  0
VERTEX
  8
0
 10
301.597008
 20
431.500000
 42
0.000000
  0
VERTEX
  8
0
 10
302.298504
 20
436.389571
 42
0.022734
  0
VERTEX
  8
0
 10
302.571240
 20
439.191425
 42
0.004237
  0
VERTEX
  8
0
 10
302.793936
 20
444.354957
 42
0.004531
  0
VERTEX
  8
0
 10
302.948518
 20
450.400265
 42
0.004126
  0
VERTEX
  8
0
 10
303.000000
 20
456.639571
 42
0.000000
  0
VERTEX
  8
0
 10
303.000000
 20
472.000000
 42
0.000000
  0
VERTEX
  8
0
 10
305.653730
 20
472.000000
 42
0.000000
  0
VERTEX
  8
0
 10
308.307460
 20
472.000000
 42
0.000000
  0
VERTEX
  8
0
 10
307.665071
 20
452.750000
 42
0.000483
  0
VERTEX
  8
0
 10
307.412000
 20
444.940120
 42
0.000535
  0
VERTEX
  8
0
 10
307.182803
 20
437.392188
 42
0.000495
  0
VERTEX
  8
0
 10
307.000471
 20
430.950054
 42
0.002773
  0
VERTEX
  8
0
 10
306.925388
 20
427.500000
 42
-0.002482
  0
VERTEX
  8
0
 10
306.847343
 20
423.815456
 42
-0.082433
  0
VERTEX
  8
0
 10
306.680243
 20
422.949563
 42
-0.679097
  0
VERTEX
  8
0
 10
306.404583
 20
422.943346
 42
-0.018477
  0
VERTEX
  8
0
 10
305.812827
 20
424.500000
 42
-0.012864
  0
VERTEX
  8
0
 10
305.368514
 20
425.933313
 42
-0.006168
  0
VERTEX
  8
0
 10
304.868545
 20
427.793750
 42
-0.006110
  0
VERTEX
  8
0
 10
304.394139
 20
429.749451
 42
-0.008679
  0
VERTEX
  8
0
 10
304.023946
 20
431.500000
 42
0.001762
  0
VERTEX
  8
0
 10
303.486657
 20
434.226514
 42
0.704146
  0
VERTEX
  8
0
 10
303.349030
 20
434.246709
 42
0.121096
  0
VERTEX
  8
0
 10
303.248107
 20
433.848926
 42
0.000705
  0
VERTEX
  8
0
 10
303.224847
 20
430.000000
 42
0.020174
  0
VERTEX
  8
0
 10
303.410044
 20
424.815859
 42
0.075111
  0
VERTEX
  8
0
 10
304.139791
 20
421.641938
 42
0.110387
  0
VERTEX
  8
0
 10
305.597470
 20
419.492011
 42
0.074596
  0
VERTEX
  8
0
 10
308.041019
 20
417.798032
 42
0.009435
  0
VERTEX
  8
0
 10
309.438667
 20
417.142789
 42
0.011337
  0
VERTEX
  8
0
 10
310.777674
 20
416.581632
 42
0.010100
  0
VERTEX
  8
0
 10
311.920219
 20
416.159413
 42
0.071333
  0
VERTEX
  8
0
 10
312.500000
 20
416.047096
 42
0.432256
  0
VERTEX
  8
0
 10
313.152053
 20
416.675679
 42
0.000304
  0
VERTEX
  8
0
 10
312.806932
 20
443.455344
 42
0.000434
  0
VERTEX
  8
0
 10
312.425839
 20
469.986875
 42
0.194957
  0
VERTEX
  8
0
 10
311.750478
 20
471.582855
 42
0.170281
  0
VERTEX
  8
0
 10
310.765050
 20
472.056529
 42
0.008463
  0
VERTEX
  8
0
 10
307.134780
 20
472.398118
 42
0.012479
  0
VERTEX
  8
0
 10
303.570993
 20
472.583378
 42
0.076468
  0
SEQEND
  0
POLYLINE
  8
0
 66
1
 70
1
  0
VERTEX
  8
0
 10
704.642456
 20
466.853309
 42
0.019380
  0
VERTEX
  8
0
 10
704.168002
 20
459.607603
 42
0.006722
  0
VERTEX
  8
0
 10
704.029853
 20
449.132773
 42
0.006823
  0
VERTEX
  8
0
 10
704.177138
 20
438.538745
 42
0.016656
  0
VERTEX
  8
0
 10
704.651714
 20
430.750000
 42
0.020908
  0
VERTEX
  8
0
 10
705.282177
 20
426.141964
 42
0.164611
  0
VERTEX
  8
0
 10
706.310100
 20
424.278472
 42
0.285237
  0
VERTEX
  8
0
 10
707.907281
 20
423.980063
 42
0.059965
  0
VERTEX
  8
0
 10
710.527494
 20
425.380343
 42
0.170435
  0
VERTEX
  8
0
 10
711.661207
 20
426.959729
 42
0.054109
  0
VERTEX
  8
0
 10
712.178580
 20
429.854714
 42
0.018775
  0
VERTEX
  8
0
 10
712.350122
 20
435.353058
 42
0.001502
  0
VERTEX
  8
0
 10
712.214139
 20
449.880343
 42
0.000000
  0
VERTEX
  8
0
 10
711.928279
 20
473.000000
 42
0.000000
  0
VERTEX
  8
0
 10
708.606596
 20
473.000000
 42
0.000000
  0
VERTEX
  8
0
 10
705.284913
 20
473.000000
 42
0.000000
  0
SEQEND
  0
POLYLINE
  8
0
 66
1
 70
1
  0
VERTEX
  8
0
 10
707.955224
 20
451.500000
 42
-0.003729
  0
VERTEX
  8
0
 10
707.874772
 20
443.113334
 42
-0.007917
  0
VERTEX
  8
0
 10
707.661292
 20
436.623779
 42
-0.002895
  0
VERTEX
  8
0
 10
707.376044
 20
431.395695
 42
-0.396661
  0
VERTEX
  8
0
 10
706.955740
 20
431.000000
 42
-0.390517
  0
VERTEX
  8
0
 10
706.545470
 20
431.378096
 42
-0.004889
  0
VERTEX
  8
0
 10
706.267940
 20
435.236781
 42
-0.010484
  0
VERTEX
  8
0
 10
706.068877
 20
440.082827
 42
-0.005164
  0
VERTEX
  8
0
 10
706.008692
 20
446.250000
 42
-0.005976
  0
VERTEX
  8
0
 10
706.131482
 20
456.054827
 42
-0.009686
  0
VERTEX
  8
0
 10
706.496881
 20
464.382882
 42
-0.003668
  0
VERTEX
  8
0
 10
706.992997
 20
471.402661
 42
-0.391579
  0
VERTEX
  8
0
 10
707.638775
 20
472.000000
 42
-0.409345
  0
VERTEX
  8
0
 10
707.786017
 20
471.855189
 42
-0.000304
  0
VERTEX
  8
0
 10
707.880312
 20
465.978125
 42
-0.002746
  0
VERTEX
  8
0
 10
707.946114
 20
459.360724
 42
-0.001646
  0
SEQEND
  0
POLYLINE
  8
0
 66
1
 70
1
  0
VERTEX
  8
0
 10
764.500000
 20
469.864831
 42
0.028106
  0
VERTEX
  8
0
 10
758.373168
 20
464.710432
 42
0.002301
  0
VERTEX
  8
0
 10
743.206349
 20
450.288978
 42
0.000465
  0
VERTEX
  8
0
 10
726.595560
 20
434.318575
 42
0.203783
  0
VERTEX
  8
0
 10
726.000000
 20
432.917994
 42
0.164251
  0
VERTEX
  8
0
 10
726.118225
 20
432.567814
 42
0.095795
  0
VERTEX
  8
0
 10
726.452327
 20
432.269661
 42
0.076921
  0
VERTEX
  8
0
 10
726.950889
 20
432.068182
 42
0.057692
  0
VERTEX
  8
0
 10
727.539838
 20
432.000000
 42
0.139520
  0
VERTEX
  8
0
 10
731.167424
 20
433.032336
 42
0.034265
  0
VERTEX
  8
0
 10
736.254733
 20
436.687335
 42
0.022488
  0
VERTEX
  8
0
 10
743.255453
 20
443.034532
 42
0.006143
  0
VERTEX
  8
0
 10
753.714612
 20
453.669443
 42
-0.000094
  0
VERTEX
  8
0
 10
760.327442
 20
460.558115
 42
-0.000148
  0
VERTEX
  8
0
 10
766.020198
 20
466.482586
 42
-0.000037
  0
VERTEX
  8
0
 10
771.000818
 20
471.662098
 42
-0.005591
  0
VERTEX
  8
0
 10
771.579022
 20
472.250000
 42
0.572693
  0
VERTEX
  8
0
 10
771.422670
 20
472.857421
 42
0.152070
  0
VERTEX
  8
0
 10
770.137111
 20
472.827640
 42
0.039727
  0
VERTEX
  8
0
 10
767.198736
 20
471.570043
 42
0.039871
  0
SEQEND
  0
POLYLINE
  8
0
 66
1
 70
1
  0
VERTEX
  8
0
 10
796.458881
 20
471.933469
 42
0.046349
  0
VERTEX
  8
0
 10
796.239790
 20
471.492305
 42
0.057443
  0
VERTEX
  8
0
 10
796.124849
 20
471.048737
 42
0.068341
  0
VERTEX
  8
0
 10
796.123967
 20
470.668512
 42
0.164267
  0
VERTEX
  8
0
 10
796.247369
 20
470.419298
 42
0.188376
  0
VERTEX
  8
0
 10
796.675909
 20
470.231505
 42
0.000464
  0
VERTEX
  8
0
 10
803.468017
 20
469.961765
 42
0.002827
  0
VERTEX
  8
0
 10
811.156230
 20
469.707113
 42
0.001745
  0
VERTEX
  8
0
 10
820.199697
 20
469.490340
 42
0.001550
  0
VERTEX
  8
0
 10
834.947346
 20
469.234091
 42
0.018223
  0
VERTEX
  8
0
 10
840.687962
 20
469.361369
 42
0.050332
  0
VERTEX
  8
0
 10
843.866469
 20
469.871668
 42
0.114163
  0
VERTEX
  8
0
 10
846.005202
 20
471.004512
 42
0.000000
  0
VERTEX
  8
0
 10
848.306019
 20
473.000000
 42
0.000000
  0
VERTEX
  8
0
 10
822.712027
 20
473.000000
 42
0.002699
  0
VERTEX
  8
0
 10
811.354001
 20
472.938699
 42
0.007452
  0
VERTEX
  8
0
 10
803.356970
 20
472.733144
 42
0.003641
  0
VERTEX
  8
0
 10
797.317510
 20
472.443724
 42
0.245261
  0
SEQEND
  0
POLYLINE
  8
0
 66
1
 70
1
  0
VERTEX
  8
0
 10
847.000000
 20
469.082865
 42
0.348491
  0
VERTEX
  8
0
 10
847.324943
 20
468.673271
 42
0.014581
  0
VERTEX
  8
0
 10
849.275263
 20
468.277281
 42
0.019748
  0
VERTEX
  8
0
 10
851.777185
 20
467.945952
 42
0.012057
  0
VERTEX
  8
0
 10
854.750000
 20
467.743308
 42
0.000000
  0
VERTEX
  8
0
 10
862.500000
 20
467.402488
 42
0.000000
  0
VERTEX
  8
0
 10
853.500000
 20
467.165623
 42
0.012599
  0
VERTEX
  8
0
 10
849.615003
 20
466.965334
 42
0.009647
  0
VERTEX
  8
0
 10
845.381250
 20
466.557647
 42
0.009773
  0
VERTEX
  8
0
 10
841.430938
 20
466.021746
 42
0.022662
  0
VERTEX
  8
0
 10
838.500000
 20
465.428537
 42
-0.033604
  0
VERTEX
  8
0
 10
834.674603
 20
464.741004
 42
-0.008662
  0
VERTEX
  8
0
 10
828.426150
 20
464.156176
 42
-0.007650
  0
VERTEX
  8
0
 10
820.434112
 20
463.670450
 42
-0.004281
  0
VERTEX
  8
0
 10
810.701500
 20
463.311740
 42
0.002055
  0
VERTEX
  8
0
 10
798.766488
 20
462.925066
 42
0.014873
  0
VERTEX
  8
0
 10
793.035189
 20
462.544869
 42
0.026895
  0
VERTEX
  8
0
 10
789.891575
 20
462.070529
 42
0.462763
  0
VERTEX
  8
0
 10
789.451500
 20
461.265794
 42
-0.053303
  0
VERTEX
  8
0
 10
789.663879
 20
460.467127
 42
-0.012797
  0
VERTEX
  8
0
 10
789.838878
 20
459.105327
 42
-0.013000
  0
VERTEX
  8
0
 10
789.959697
 20
457.523116
 42
-0.012554
  0
VERTEX
  8
0
 10
790.000000
 20
455.918213
 42
0.000000
  0
VERTEX
  8
0
 10
790.000000
 20
452.000000
 42
0.000000
  0
VERTEX
  8
0
 10
827.200000
 20
452.000000
 42
0.002107
  0
VERTEX
  8
0
 10
841.568292
 20
452.060552
 42
0.003816
  0
VERTEX
  8
0
 10
853.324759
 20
452.249389
 42
0.000896
  0
VERTEX
  8
0
 10
863.318865
 20
452.504154
 42
0.676511
  0
VERTEX
  8
0
 10
863.450000
 20
452.859050
 42
0.137483
  0
VERTEX
  8
0
 10
860.990865
 20
454.083290
 42
0.015439
  0
VERTEX
  8
0
 10
854.765764
 20
455.073748
 42
0.017880
  0
VERTEX
  8
0
 10
847.154498
 20
455.769458
 42
0.013850
  0
VERTEX
  8
0
 10
838.833219
 20
456.000000
 42
-0.005942
  0
VERTEX
  8
0
 10
834.296976
 20
456.053912
 42
-0.009903
  0
VERTEX
  8
0
 10
830.480506
 20
456.220312
 42
-0.003888
  0
VERTEX
  8
0
 10
827.288896
 20
456.447793
 42
-0.397177
  0
VERTEX
  8
0
 10
827.015313
 20
456.750000
 42
-0.144132
  0
VERTEX
  8
0
 10
827.455738
 20
458.140668
 42
-0.078971
  0
VERTEX
  8
0
 10
828.685019
 20
459.458587
 42
-0.051007
  0
VERTEX
  8
0
 10
830.812596
 20
460.794372
 42
-0.018354
  0
VERTEX
  8
0
 10
834.078003
 20
462.260500
 42
-0.036857
  0
VERTEX
  8
0
 10
837.766258
 20
463.448575
 42
-0.031200
  0
VERTEX
  8
0
 10
841.800558
 20
464.164235
 42
-0.017779
  0
VERTEX
  8
0
 10
847.582872
 20
464.614036
 42
-0.003491
  0
VERTEX
  8
0
 10
858.000000
 20
464.979780
 42
0.001751
  0
VERTEX
  8
0
 10
869.920169
 20
465.356756
 42
0.026557
  0
VERTEX
  8
0
 10
874.039808
 20
465.721128
 42
0.099107
  0
VERTEX
  8
0
 10
875.971707
 20
466.402098
 42
0.226978
  0
VERTEX
  8
0
 10
876.807159
 20
467.655435
 42
0.233036
  0
VERTEX
  8
0
 10
876.408760
 20
468.872510
 42
0.162013
  0
VERTEX
  8
0
 10
875.100086
 20
469.546042
 42
0.034326
  0
VERTEX
  8
0
 10
871.913658
 20
469.818995
 42
0.001959
  0
VERTEX
  8
0
 10
862.057159
 20
469.946236
 42
0.004881
  0
VERTEX
  8
0
 10
855.698742
 20
469.941321
 42
0.011686
  0
VERTEX
  8
0
 10
850.985166
 20
469.781440
 42
0.006723
  0
VERTEX
  8
0
 10
847.409276
 20
469.528124
 42
0.389771
  0
SEQEND
  0
POLYLINE
  8
0
 66
1
 70
1
  0
VERTEX
  8
0
 10
831.250000
 20
462.337719
 42
-0.057986
  0
VERTEX
  8
0
 10
830.679992
 20
462.181385
 42
-0.037979
  0
VERTEX
  8
0
 10
830.000000
 20
462.129660
 42
-0.037979
  0
VERTEX
  8
0
 10
829.320008
 20
462.181385
 42
-0.057986
  0
VERTEX
  8
0
 10
828.750000
 20
462.337719
 42
-0.174857
  0
VERTEX
  8
0
 10
828.540618
 20
462.525001
 42
-0.447206
  0
VERTEX
  8
0
 10
828.601562
 20
462.693942
 42
-0.078554
  0
VERTEX
  8
0
 10
829.108560
 20
462.810911
 42
-0.017491
  0
VERTEX
  8
0
 10
830.000000
 20
462.842105
 42
-0.017491
  0
VERTEX
  8
0
 10
830.891440
 20
462.810911
 42
-0.078554
  0
VERTEX
  8
0
 10
831.398438
 20
462.693942
 42
-0.447206
  0
VERTEX
  8
0
 10
831.459382
 20
462.525001
 42
-0.174857
  0
SEQEND
  0
POLYLINE
  8
0
 66
1
 70
1
  0
VERTEX
  8
0
 10
183.000000
 20
461.984424
 42
0.041351
  0
VERTEX
  8
0
 10
183.823048
 20
461.536533
 42
0.011970
  0
VERTEX
  8
0
 10
185.160937
 20
460.983808
 42
0.011948
  0
VERTEX
  8
0
 10
186.704297
 20
460.431010
 42
0.012485
  0
VERTEX
  8
0
 10
188.250000
 20
459.961193
 42
-0.030651
  0
VERTEX
  8
0
 10
189.685888
 20
459.467133
 42
-0.042109
  0
VERTEX
  8
0
 10
190.898438
 20
458.840726
 42
-0.048526
  0
VERTEX
  8
0
 10
191.750503
 20
458.182178
 42
-0.206835
  0
VERTEX
  8
0
 10
192.000000
 20
457.604848
 42
-0.361794
  0
VERTEX
  8
0
 10
191.411558
 20
456.898068
 42
-0.018936
  0
VERTEX
  8
0
 10
188.273443
 20
456.441888
 42
-0.015306
  0
VERTEX
  8
0
 10
183.201540
 20
456.056299
 42
-0.003161
  0
VERTEX
  8
0
 10
174.250000
 20
455.707494
 42
0.005594
  0
VERTEX
  8
0
 10
166.894666
 20
455.385034
 42
0.007959
  0
VERTEX
  8
0
 10
160.368700
 20
454.921456
 42
0.007428
  0
VERTEX
  8
0
 10
155.070853
 20
454.380852
 42
0.050260
  0
VERTEX
  8
0
 10
152.500000
 20
453.814101
 42
0.751494
  0
VERTEX
  8
0
 10
152.523919
 20
453.141266
 42
0.049659
  0
VERTEX
  8
0
 10
155.616693
 20
452.682966
 42
0.009271
  0
VERTEX
  8
0
 10
164.381361
 20
452.425765
 42
0.000921
  0
VERTEX
  8
0
 10
185.404188
 20
452.237521
 42
0.000717
  0
VERTEX
  8
0
 10
199.574281
 20
452.157064
 42
0.001183
  0
VERTEX
  8
0
 10
211.550200
 20
452.134575
 42
0.000079
  0
VERTEX
  8
0
 10
222.313782
 20
452.141530
 42
0.198703
  0
VERTEX
  8
0
 10
222.588986
 20
452.255653
 42
0.151010
  0
VERTEX
  8
0
 10
222.719701
 20
452.503310
 42
0.002722
  0
VERTEX
  8
0
 10
222.991040
 20
453.990696
 42
0.006511
  0
VERTEX
  8
0
 10
223.277338
 20
455.742733
 42
0.004268
  0
VERTEX
  8
0
 10
223.563630
 20
457.768132
 42
0.000000
  0
VERTEX
  8
0
 10
224.257661
 20
463.000000
 42
0.000000
  0
VERTEX
  8
0
 10
202.878831
 20
462.984687
 42
0.002858
  0
VERTEX
  8
0
 10
193.391102
 20
462.923661
 42
0.009532
  0
VERTEX
  8
0
 10
187.165181
 20
462.729276
 42
0.010108
  0
VERTEX
  8
0
 10
183.114805
 20
462.443291
 42
0.710090
  0
SEQEND
  0
POLYLINE
  8
0
 66
1
 70
1
  0
VERTEX
  8
0
 10
209.013105
 20
434.726797
 42
-0.014821
  0
VERTEX
  8
0
 10
210.487088
 20
433.290115
 42
-0.011413
  0
VERTEX
  8
0
 10
212.011220
 20
431.640059
 42
-0.011573
  0
VERTEX
  8
0
 10
213.365806
 20
430.031117
 42
-0.026840
  0
VERTEX
  8
0
 10
214.286158
 20
428.750000
 42
0.044064
  0
VERTEX
  8
0
 10
215.327903
 20
427.400415
 42
0.085662
  0
VERTEX
  8
0
 10
216.404662
 20
426.574275
 42
0.082546
  0
VERTEX
  8
0
 10
217.723545
 20
426.138932
 42
0.038546
  0
VERTEX
  8
0
 10
219.523053
 20
426.000000
 42
0.000000
  0
VERTEX
  8
0
 10
223.000000
 20
426.000000
 42
0.000000
  0
VERTEX
  8
0
 10
223.000000
 20
432.000000
 42
0.000000
  0
VERTEX
  8
0
 10
223.000000
 20
438.000000
 42
0.000000
  0
VERTEX
  8
0
 10
214.250000
 20
437.976797
 42
0.000000
  0
VERTEX
  8
0
 10
205.500000
 20
437.953595
 42
0.000000
  0
SEQEND
  0
POLYLINE
  8
0
 66
1
 70
1
  0
VERTEX
  8
0
 10
790.355521
 20
432.500000
 42
0.000000
  0
VERTEX
  8
0
 10
790.546813
 20
426.500000
 42
0.000000
  0
VERTEX
  8
0
 10
795.273407
 20
426.195209
 42
0.017570
  0
VERTEX
  8
0
 10
797.238789
 20
426.137689
 42
0.039248
  0
VERTEX
  8
0
 10
798.727483
 20
426.263536
 42
0.055527
  0
VERTEX
  8
0
 10
799.708462
 20
426.538975
 42
0.305539
  0
VERTEX
  8
0
 10
800.000000
 20
426.971525
 42
-0.158795
  0
VERTEX
  8
0
 10
800.205793
 20
427.603170
 42
-0.012023
  0
VERTEX
  8
0
 10
801.314145
 20
429.049201
 42
-0.015622
  0
VERTEX
  8
0
 10
802.759996
 20
430.733895
 42
-0.011227
  0
VERTEX
  8
0
 10
804.473684
 20
432.526316
 42
0.000000
  0
VERTEX
  8
0
 10
808.947368
 20
437.000000
 42
0.000000
  0
VERTEX
  8
0
 10
804.164814
 20
437.000000
 42
0.027026
  0
VERTEX
  8
0
 10
802.179993
 20
436.892637
 42
0.026734
  0
VERTEX
  8
0
 10
800.210994
 20
436.571783
 42
0.027929
  0
VERTEX
  8
0
 10
798.516049
 20
436.101178
 42
0.080394
  0
VERTEX
  8
0
 10
797.441130
 20
435.531803
 42
-0.065589
  0
VERTEX
  8
0
 10
795.411520
 20
434.378951
 42
-0.125016
  0
VERTEX
  8
0
 10
793.564340
 20
434.124595
 42
-0.154158
  0
VERTEX
  8
0
 10
792.075759
 20
434.785449
 42
-0.118570
  0
VERTEX
  8
0
 10
791.049891
 20
436.250000
 42
0.139128
  0
VERTEX
  8
0
 10
790.683712
 20
436.730207
 42
0.556258
  0
VERTEX
  8
0
 10
790.409255
 20
436.622986
 42
0.048037
  0
VERTEX
  8
0
 10
790.297536
 20
435.343460
 42
0.005741
  0
SEQEND
  0
POLYLINE
  8
0
 66
1
 70
1
  0
VERTEX
  8
0
 10
773.500000
 20
424.508328
 42
-0.004798
  0
VERTEX
  8
0
 10
768.946929
 20
423.037022
 42
-0.000183
  0
VERTEX
  8
0
 10
751.945488
 20
417.729528
 42
-0.000373
  0
VERTEX
  8
0
 10
734.588769
 20
412.332277
 42
-0.000692
  0
VERTEX
  8
0
 10
720.500000
 20
407.984108
 42
0.000762
  0
VERTEX
  8
0
 10
711.395577
 20
405.172852
 42
0.000446
  0
VERTEX
  8
0
 10
700.500000
 20
401.779678
 42
0.000446
  0
VERTEX
  8
0
 10
689.604768
 20
398.365283
 42
0.000758
  0
VERTEX
  8
0
 10
680.500000
 20
395.487895
 42
-0.000409
  0
VERTEX
  8
0
 10
671.728871
 20
392.709204
 42
-0.000291
  0
VERTEX
  8
0
 10
661.895313
 20
389.609068
 42
-0.000294
  0
VERTEX
  8
0
 10
652.509640
 20
386.662188
 42
-0.000626
  0
VERTEX
  8
0
 10
645.250000
 20
384.397487
 42
0.005615
  0
VERTEX
  8
0
 10
638.651551
 20
382.266570
 42
0.014204
  0
VERTEX
  8
0
 10
633.918800
 20
380.528214
 42
0.010633
  0
VERTEX
  8
0
 10
630.503108
 20
379.077323
 42
0.295109
  0
VERTEX
  8
0
 10
630.000000
 20
378.299149
 42
0.249848
  0
VERTEX
  8
0
 10
630.697837
 20
376.989805
 42
0.150722
  0
VERTEX
  8
0
 10
632.423933
 20
376.470463
 42
0.056281
  0
VERTEX
  8
0
 10
635.712736
 20
376.864936
 42
0.010676
  0
VERTEX
  8
0
 10
641.566133
 20
378.379317
 42
-0.006688
  0
VERTEX
  8
0
 10
645.008023
 20
379.299143
 42
-0.010095
  0
VERTEX
  8
0
 10
648.031086
 20
379.999244
 42
-0.005289
  0
VERTEX
  8
0
 10
650.579338
 20
380.507338
 42
-0.187090
  0
VERTEX
  8
0
 10
651.163801
 20
380.398765
 42
0.202489
  0
VERTEX
  8
0
 10
651.759012
 20
380.306372
 42
0.003967
  0
VERTEX
  8
0
 10
654.811080
 20
381.097117
 42
0.008842
  0
VERTEX
  8
0
 10
658.399597
 20
382.125624
 42
0.005734
  0
VERTEX
  8
0
 10
662.513173
 20
383.435511
 42
-0.003968
  0
VERTEX
  8
0
 10
668.050187
 20
385.220227
 42
-0.001189
  0
VERTEX
  8
0
 10
676.512928
 20
387.851935
 42
-0.001192
  0
VERTEX
  8
0
 10
686.025877
 20
390.760621
 42
-0.001292
  0
VERTEX
  8
0
 10
695.301393
 20
393.546401
 42
0.000935
  0
VERTEX
  8
0
 10
705.041851
 20
396.464249
 42
0.000661
  0
VERTEX
  8
0
 10
715.972909
 20
399.776811
 42
0.000667
  0
VERTEX
  8
0
 10
726.412777
 20
402.970811
 42
0.001408
  0
VERTEX
  8
0
 10
734.500000
 20
405.481781
 42
-0.001113
  0
VERTEX
  8
0
 10
747.431155
 20
409.505088
 42
-0.001950
  0
VERTEX
  8
0
 10
758.154799
 20
412.769647
 42
-0.002289
  0
VERTEX
  8
0
 10
766.743779
 20
415.304984
 42
-0.006536
  0
VERTEX
  8
0
 10
772.750000
 20
416.963265
 42
0.018209
  0
VERTEX
  8
0
 10
775.277767
 20
417.725091
 42
0.123903
  0
VERTEX
  8
0
 10
776.362604
 20
418.429176
 42
0.154968
  0
VERTEX
  8
0
 10
776.862908
 20
419.488954
 42
0.033406
  0
VERTEX
  8
0
 10
777.000000
 20
421.538544
 42
0.037113
  0
VERTEX
  8
0
 10
776.847008
 20
423.596847
 42
0.181655
  0
VERTEX
  8
0
 10
776.289311
 20
424.599099
 42
0.209065
  0
VERTEX
  8
0
 10
775.266252
 20
424.905993
 42
0.050391
  0
SEQEND
  0
POLYLINE
  8
0
 66
1
 70
1
  0
VERTEX
  8
0
 10
238.078947
 20
413.724753
 42
0.282214
  0
VERTEX
  8
0
 10
239.114537
 20
411.854440
 42
0.017546
  0
VERTEX
  8
0
 10
244.976082
 20
408.803541
 42
0.013985
  0
VERTEX
  8
0
 10
254.678797
 20
404.507180
 42
0.002695
  0
VERTEX
  8
0
 10
272.500000
 20
397.316899
 42
-0.003214
  0
VERTEX
  8
0
 10
286.266498
 20
391.745944
 42
-0.012044
  0
VERTEX
  8
0
 10
294.800426
 20
387.985550
 42
-0.016242
  0
VERTEX
  8
0
 10
300.332324
 20
385.164317
 42
-0.100978
  0
VERTEX
  8
0
 10
302.744049
 20
383.110729
 42
0.004561
  0
VERTEX
  8
0
 10
303.517155
 20
382.141444
 42
0.367970
  0
VERTEX
  8
0
 10
303.693885
 20
382.108698
 42
0.341332
  0
VERTEX
  8
0
 10
303.765227
 20
382.281785
 42
0.004309
  0
VERTEX
  8
0
 10
303.420819
 20
383.500000
 42
-0.003760
  0
VERTEX
  8
0
 10
303.044644
 20
384.825027
 42
-0.439189
  0
VERTEX
  8
0
 10
303.129851
 20
384.961373
 42
-0.270955
  0
VERTEX
  8
0
 10
303.325477
 20
384.891155
 42
-0.002552
  0
VERTEX
  8
0
 10
304.336407
 20
383.670954
 42
0.042447
  0
VERTEX
  8
0
 10
305.210244
 20
382.772692
 42
0.133651
  0
VERTEX
  8
0
 10
305.961141
 20
382.411254
 42
0.130052
  0
VERTEX
  8
0
 10
306.804257
 20
382.475259
 42
0.039264
  0
VERTEX
  8
0
 10
307.990799
 20
382.995076
 42
0.029666
  0
VERTEX
  8
0
 10
309.186754
 20
383.729492
 42
0.189480
  0
VERTEX
  8
0
 10
309.573055
 20
384.311150
 42
0.175890
  0
VERTEX
  8
0
 10
309.474872
 20
385.026029
 42
0.024916
  0
VERTEX
  8
0
 10
308.706381
 20
386.324122
 42
0.127035
  0
VERTEX
  8
0
 10
306.474622
 20
388.336407
 42
0.025191
  0
VERTEX
  8
0
 10
301.545986
 20
390.600616
 42
0.009311
  0
VERTEX
  8
0
 10
292.001131
 20
394.211308
 42
0.000624
  0
VERTEX
  8
0
 10
264.500000
 20
403.994559
 42
-0.007174
  0
VERTEX
  8
0
 10
260.870713
 20
405.339452
 42
-0.004168
  0
VERTEX
  8
0
 10
256.550385
 20
407.052840
 42
-0.004165
  0
VERTEX
  8
0
 10
252.248011
 20
408.842645
 42
-0.007009
  0
VERTEX
  8
0
 10
248.671523
 20
410.425130
 42
0.008874
  0
VERTEX
  8
0
 10
245.610960
 20
411.765703
 42
0.013411
  0
VERTEX
  8
0
 10
242.897054
 20
412.812941
 42
0.008108
  0
VERTEX
  8
0
 10
240.622539
 20
413.579936
 42
0.219056
  0
VERTEX
  8
0
 10
240.006934
 20
413.504285
 42
-0.144289
  0
VERTEX
  8
0
 10
239.648791
 20
413.406332
 42
-0.121550
  0
VERTEX
  8
0
 10
239.267655
 20
413.508351
 42
-0.100008
  0
VERTEX
  8
0
 10
238.920586
 20
413.802352
 42
-0.071474
  0
VERTEX
  8
0
 10
238.664358
 20
414.243769
 42
0.053554
  0
VERTEX
  8
0
 10
238.453185
 20
414.639455
 42
0.452255
  0
VERTEX
  8
0
 10
238.276139
 20
414.661541
 42
0.181239
  0
VERTEX
  8
0
 10
238.137348
 20
414.399353
 42
0.020960
  0
SEQEND
  0
POLYLINE
  8
0
 66
1
 70
1
  0
VERTEX
  8
0
 10
193.000000
 20
410.228439
 42
0.018510
  0
VERTEX
  8
0
 10
187.905909
 20
409.592751
 42
0.000979
  0
VERTEX
  8
0
 10
171.737089
 20
406.931627
 42
0.000148
  0
VERTEX
  8
0
 10
153.966678
 20
403.965742
 42
0.156183
  0
VERTEX
  8
0
 10
153.277534
 20
403.610867
 42
0.376416
  0
VERTEX
  8
0
 10
153.264733
 20
403.415339
 42
0.012024
  0
VERTEX
  8
0
 10
153.803212
 20
402.747671
 42
0.017772
  0
VERTEX
  8
0
 10
154.530418
 20
401.948498
 42
0.010696
  0
VERTEX
  8
0
 10
155.445731
 20
401.050983
 42
0.057954
  0
VERTEX
  8
0
 10
157.208709
 20
399.742721
 42
0.110417
  0
VERTEX
  8
0
 10
158.885360
 20
399.219131
 42
0.047274
  0
VERTEX
  8
0
 10
161.441632
 20
399.249127
 42
0.003920
  0
VERTEX
  8
0
 10
168.047775
 20
400.005852
 42
0.007841
  0
VERTEX
  8
0
 10
172.022625
 20
400.556166
 42
0.018136
  0
VERTEX
  8
0
 10
174.981787
 20
401.123812
 42
0.023234
  0
VERTEX
  8
0
 10
176.880376
 20
401.653866
 42
0.637204
  0
VERTEX
  8
0
 10
176.926565
 20
402.045385
 42
-0.609484
  0
VERTEX
  8
0
 10
176.992605
 20
402.895743
 42
-0.024344
  0
VERTEX
  8
0
 10
180.717025
 20
404.254775
 42
-0.023123
  0
VERTEX
  8
0
 10
185.862994
 20
405.596024
 42
-0.018585
  0
VERTEX
  8
0
 10
191.500000
 20
406.572741
 42
0.009347
  0
VERTEX
  8
0
 10
193.510562
 20
406.882973
 42
0.010733
  0
VERTEX
  8
0
 10
195.416999
 20
407.256053
 42
0.009916
  0
VERTEX
  8
0
 10
197.015294
 20
407.637964
 42
0.059012
  0
VERTEX
  8
0
 10
197.813188
 20
407.949524
 42
0.292195
  0
VERTEX
  8
0
 10
198.299918
 20
408.815454
 42
0.274636
  0
VERTEX
  8
0
 10
197.729534
 20
409.662677
 42
0.087924
  0
VERTEX
  8
0
 10
195.680545
 20
410.222708
 42
0.044664
  0
SEQEND
  0
POLYLINE
  8
0
 66
1
 70
1
  0
VERTEX
  8
0
 10
772.500000
 20
405.597475
 42
0.011711
  0
VERTEX
  8
0
 10
770.679622
 20
405.001700
 42
0.006612
  0
VERTEX
  8
0
 10
768.500000
 20
404.198809
 42
0.006597
  0
VERTEX
  8
0
 10
766.321616
 20
403.330363
 42
0.010753
  0
VERTEX
  8
0
 10
764.500000
 20
402.529837
 42
-0.034927
  0
VERTEX
  8
0
 10
762.608208
 20
401.805354
 42
-0.019122
  0
VERTEX
  8
0
 10
760.206250
 20
401.172379
 42
-0.018976
  0
VERTEX
  8
0
 10
757.706119
 20
400.713607
 42
-0.028608
  0
VERTEX
  8
0
 10
755.500000
 20
400.522673
 42
0.042637
  0
VERTEX
  8
0
 10
752.724186
 20
400.203858
 42
0.011431
  0
VERTEX
  8
0
 10
748.388673
 20
399.223257
 42
0.011094
  0
VERTEX
  8
0
 10
743.330381
 20
397.837028
 42
0.009300
  0
VERTEX
  8
0
 10
738.029674
 20
396.149180
 42
-0.006992
  0
VERTEX
  8
0
 10
732.978557
 20
394.515100
 42
-0.008046
  0
VERTEX
  8
0
 10
728.113749
 20
393.101410
 42
-0.007333
  0
VERTEX
  8
0
 10
723.960986
 20
392.031962
 42
-0.045437
  0
VERTEX
  8
0
 10
721.784855
 20
391.710694
 42
0.020314
  0
VERTEX
  8
0
 10
720.337918
 20
391.570797
 42
0.032154
  0
VERTEX
  8
0
 10
719.117598
 20
391.321784
 42
0.033882
  0
VERTEX
  8
0
 10
718.225367
 20
391.012864
 42
0.299340
  0
VERTEX
  8
0
 10
718.005181
 20
390.682612
 42
-0.275551
  0
VERTEX
  8
0
 10
717.846844
 20
390.420902
 42
-0.099861
  0
VERTEX
  8
0
 10
717.414022
 20
390.291798
 42
-0.063904
  0
VERTEX
  8
0
 10
716.767053
 20
390.315627
 42
-0.035735
  0
VERTEX
  8
0
 10
716.000000
 20
390.500000
 42
0.041526
  0
VERTEX
  8
0
 10
715.233553
 20
390.674878
 42
0.073843
  0
VERTEX
  8
0
 10
714.587500
 20
390.670939
 42
0.115293
  0
VERTEX
  8
0
 10
714.160062
 20
390.498682
 42
0.244223
  0
VERTEX
  8
0
 10
714.000000
 20
390.190532
 42
-0.302642
  0
VERTEX
  8
0
 10
713.077649
 20
388.806271
 42
-0.011629
  0
VERTEX
  8
0
 10
707.042528
 20
386.451407
 42
-0.013496
  0
VERTEX
  8
0
 10
698.168518
 20
383.493132
 42
-0.004045
  0
VERTEX
  8
0
 10
684.500000
 20
379.463373
 42
0.000144
  0
VERTEX
  8
0
 10
676.292965
 20
377.113218
 42
0.000148
  0
VERTEX
  8
0
 10
668.171875
 20
374.782545
 42
0.000143
  0
VERTEX
  8
0
 10
661.135473
 20
372.758732
 42
0.000634
  0
VERTEX
  8
0
 10
657.000000
 20
371.562322
 42
0.013003
  0
VERTEX
  8
0
 10
653.656117
 20
370.495284
 42
0.008112
  0
VERTEX
  8
0
 10
649.793750
 20
369.080529
 42
0.008138
  0
VERTEX
  8
0
 10
646.029209
 20
367.561128
 42
0.014619
  0
VERTEX
  8
0
 10
643.000000
 20
366.175077
 42
0.000000
  0
VERTEX
  8
0
 10
636.500000
 20
362.967928
 42
0.000000
  0
VERTEX
  8
0
 10
640.905079
 20
363.598062
 42
0.032521
  0
VERTEX
  8
0
 10
647.141336
 20
364.908392
 42
0.004352
  0
VERTEX
  8
0
 10
660.048621
 20
368.631472
 42
0.004476
  0
VERTEX
  8
0
 10
676.639649
 20
373.736095
 42
0.002411
  0
VERTEX
  8
0
 10
697.000000
 20
380.308769
 42
-0.008138
  0
VERTEX
  8
0
 10
709.370482
 20
384.146292
 42
-0.001193
  0
VERTEX
  8
0
 10
734.589501
 20
391.456621
 42
-0.001219
  0
VERTEX
  8
0
 10
759.835340
 20
398.642889
 42
-0.007713
  0
VERTEX
  8
0
 10
772.750000
 20
402.070905
 42
0.016154
  0
VERTEX
  8
0
 10
775.295253
 20
402.792705
 42
0.056889
  0
VERTEX
  8
0
 10
776.844785
 20
403.488946
 42
0.100774
  0
VERTEX
  8
0
 10
777.696101
 20
404.261316
 42
0.159613
  0
VERTEX
  8
0
 10
778.000000
 20
405.189050
 42
0.074456
  0
VERTEX
  8
0
 10
777.825016
 20
406.357616
 42
0.309171
  0
VERTEX
  8
0
 10
777.296623
 20
406.779535
 42
0.087627
  0
VERTEX
  8
0
 10
776.150540
 20
406.663752
 42
0.004345
  0
SEQEND
  0
POLYLINE
  8
0
 66
1
 70
1
  0
VERTEX
  8
0
 10
236.000000
 20
401.144894
 42
0.298720
  0
VERTEX
  8
0
 10
237.607057
 20
398.695019
 42
0.002709
  0
VERTEX
  8
0
 10
258.713465
 20
389.665444
 42
0.002696
  0
VERTEX
  8
0
 10
279.921545
 20
380.862363
 42
0.302077
  0
VERTEX
  8
0
 10
282.768973
 20
381.435640
 42
0.436994
  0
VERTEX
  8
0
 10
282.742895
 20
382.111374
 42
0.062497
  0
VERTEX
  8
0
 10
281.445079
 20
382.968019
 42
0.012029
  0
VERTEX
  8
0
 10
278.120985
 20
384.510781
 42
0.000415
  0
VERTEX
  8
0
 10
265.000000
 20
390.208004
 42
0.002618
  0
VERTEX
  8
0
 10
251.509373
 20
395.968737
 42
0.009426
  0
VERTEX
  8
0
 10
242.820808
 20
399.433940
 42
0.006448
  0
VERTEX
  8
0
 10
236.709397
 20
401.649172
 42
0.516058
  0
SEQEND
  0
POLYLINE
  8
0
 66
1
 70
1
  0
VERTEX
  8
0
 10
191.500000
 20
393.354365
 42
-0.011782
  0
VERTEX
  8
0
 10
188.946218
 20
392.852661
 42
-0.010069
  0
VERTEX
  8
0
 10
186.234375
 20
392.442017
 42
-0.010189
  0
VERTEX
  8
0
 10
183.753352
 20
392.168576
 42
-0.028272
  0
VERTEX
  8
0
 10
182.000000
 20
392.110935
 42
0.006114
  0
VERTEX
  8
0
 10
180.586680
 20
392.127102
 42
0.006978
  0
VERTEX
  8
0
 10
179.234375
 20
392.107159
 42
0.006378
  0
VERTEX
  8
0
 10
178.088492
 20
392.059624
 42
0.038703
  0
VERTEX
  8
0
 10
177.500000
 20
391.981738
 42
-0.037769
  0
VERTEX
  8
0
 10
176.989725
 20
391.913235
 42
-0.013131
  0
VERTEX
  8
0
 10
176.247577
 20
391.889711
 42
-0.012957
  0
VERTEX
  8
0
 10
175.425883
 20
391.906547
 42
-0.014729
  0
VERTEX
  8
0
 10
174.640689
 20
391.966222
 42
0.043723
  0
VERTEX
  8
0
 10
173.965813
 20
391.978317
 42
0.106840
  0
VERTEX
  8
0
 10
173.490989
 20
391.840574
 42
0.207203
  0
VERTEX
  8
0
 10
173.289802
 20
391.585037
 42
0.205811
  0
VERTEX
  8
0
 10
173.337764
 20
391.262503
 42
0.183172
  0
VERTEX
  8
0
 10
173.812314
 20
390.898069
 42
0.020975
  0
VERTEX
  8
0
 10
175.141571
 20
390.557769
 42
0.023107
  0
VERTEX
  8
0
 10
176.816922
 20
390.283142
 42
0.016865
  0
VERTEX
  8
0
 10
178.697075
 20
390.127589
 42
-0.000577
  0
VERTEX
  8
0
 10
180.645878
 20
390.030120
 42
-0.000638
  0
VERTEX
  8
0
 10
182.529766
 20
389.931309
 42
-0.000591
  0
VERTEX
  8
0
 10
184.137741
 20
389.843005
 42
-0.003294
  0
VERTEX
  8
0
 10
185.000000
 20
389.788929
 42
0.017099
  0
VERTEX
  8
0
 10
185.944770
 20
389.755824
 42
0.001737
  0
VERTEX
  8
0
 10
188.189062
 20
389.761756
 42
0.002172
  0
VERTEX
  8
0
 10
190.864002
 20
389.789744
 42
0.001730
  0
VERTEX
  8
0
 10
193.750000
 20
389.842466
 42
0.008589
  0
VERTEX
  8
0
 10
197.414056
 20
389.985079
 42
0.041040
  0
VERTEX
  8
0
 10
199.485757
 20
390.273040
 42
0.089001
  0
VERTEX
  8
0
 10
200.608683
 20
390.744738
 42
0.254166
  0
VERTEX
  8
0
 10
201.000000
 20
391.464816
 42
0.205406
  0
VERTEX
  8
0
 10
200.331465
 20
393.023508
 42
0.141969
  0
VERTEX
  8
0
 10
198.604713
 20
393.918945
 42
0.076816
  0
VERTEX
  8
0
 10
195.675125
 20
394.045015
 42
0.026813
  0
SEQEND
  0
POLYLINE
  8
0
 66
1
 70
1
  0
VERTEX
  8
0
 10
765.500000
 20
389.577386
 42
0.009565
  0
VERTEX
  8
0
 10
752.133631
 20
385.901754
 42
0.001512
  0
VERTEX
  8
0
 10
726.044779
 20
378.101991
 42
0.001536
  0
VERTEX
  8
0
 10
700.004859
 20
370.143618
 42
0.009177
  0
VERTEX
  8
0
 10
686.522249
 20
365.705061
 42
0.007201
  0
VERTEX
  8
0
 10
684.161816
 20
364.841332
 42
0.128803
  0
VERTEX
  8
0
 10
683.510321
 20
364.374863
 42
0.421378
  0
VERTEX
  8
0
 10
683.558181
 20
363.918010
 42
0.048552
  0
VERTEX
  8
0
 10
684.522249
 20
363.297631
 42
0.156509
  0
VERTEX
  8
0
 10
686.278479
 20
363.006520
 42
0.020397
  0
VERTEX
  8
0
 10
690.053938
 20
363.720965
 42
0.014699
  0
VERTEX
  8
0
 10
695.838160
 20
365.242401
 42
0.003380
  0
VERTEX
  8
0
 10
705.500000
 20
368.161019
 42
-0.001233
  0
VERTEX
  8
0
 10
713.797736
 20
370.706495
 42
-0.000900
  0
VERTEX
  8
0
 10
723.031250
 20
373.495996
 42
-0.000909
  0
VERTEX
  8
0
 10
731.794621
 20
376.108916
 42
-0.002004
  0
VERTEX
  8
0
 10
738.500000
 20
378.065761
 42
0.008887
  0
VERTEX
  8
0
 10
751.587571
 20
382.081442
 42
0.007311
  0
VERTEX
  8
0
 10
765.410465
 20
386.817777
 42
0.005024
  0
VERTEX
  8
0
 10
777.137506
 20
391.162066
 42
0.836090
  0
VERTEX
  8
0
 10
777.000000
 20
391.889782
 42
0.041351
  0
VERTEX
  8
0
 10
775.528082
 20
391.754964
 42
0.006110
  0
VERTEX
  8
0
 10
772.590625
 20
391.201561
 42
0.006854
  0
VERTEX
  8
0
 10
769.129069
 20
390.456013
 42
0.005846
  0
SEQEND
  0
POLYLINE
  8
0
 66
1
 70
1
  0
VERTEX
  8
0
 10
642.163204
 20
375.535130
 42
0.003432
  0
VERTEX
  8
0
 10
639.319686
 20
374.592887
 42
0.005147
  0
VERTEX
  8
0
 10
636.851994
 20
373.727914
 42
0.002262
  0
VERTEX
  8
0
 10
634.761316
 20
372.960119
 42
0.107642
  0
VERTEX
  8
0
 10
634.385225
 20
372.718558
 42
0.221104
  0
VERTEX
  8
0
 10
634.268711
 20
372.399557
 42
0.024793
  0
VERTEX
  8
0
 10
634.375059
 20
371.614183
 42
0.026382
  0
VERTEX
  8
0
 10
634.609196
 20
370.644486
 42
0.018415
  0
VERTEX
  8
0
 10
634.970149
 20
369.578514
 42
0.033974
  0
VERTEX
  8
0
 10
635.494589
 20
368.438742
 42
0.092802
  0
VERTEX
  8
0
 10
636.053092
 20
367.754047
 42
0.154618
  0
VERTEX
  8
0
 10
636.639859
 20
367.509639
 42
0.161849
  0
VERTEX
  8
0
 10
637.248127
 20
367.654015
 42
-0.053679
  0
VERTEX
  8
0
 10
638.120746
 20
368.071996
 42
-0.003692
  0
VERTEX
  8
0
 10
640.710879
 20
368.965160
 42
-0.005232
  0
VERTEX
  8
0
 10
643.824721
 20
369.977107
 42
-0.003905
  0
VERTEX
  8
0
 10
647.278269
 20
371.030081
 42
0.002922
  0
VERTEX
  8
0
 10
652.947829
 20
372.746533
 42
0.066182
  0
VERTEX
  8
0
 10
654.493584
 20
373.459181
 42
0.457119
  0
VERTEX
  8
0
 10
654.594123
 20
374.128413
 42
0.093017
  0
VERTEX
  8
0
 10
653.528269
 20
374.984871
 42
-0.023780
  0
VERTEX
  8
0
 10
652.560152
 20
375.563805
 42
-0.031509
  0
VERTEX
  8
0
 10
651.742679
 20
376.184602
 42
-0.032636
  0
VERTEX
  8
0
 10
651.154184
 20
376.764154
 42
-0.183986
  0
VERTEX
  8
0
 10
651.000000
 20
377.168980
 42
0.313740
  0
VERTEX
  8
0
 10
650.621450
 20
377.712883
 42
0.135207
  0
VERTEX
  8
0
 10
649.695528
 20
377.792669
 42
0.030336
  0
VERTEX
  8
0
 10
647.652244
 20
377.285098
 42
0.002245
  0
SEQEND
  0
POLYLINE
  8
0
 66
1
 70
1
  0
VERTEX
  8
0
 10
760.000000
 20
332.826016
 42
0.020192
  0
VERTEX
  8
0
 10
753.166867
 20
331.568062
 42
0.352743
  0
VERTEX
  8
0
 10
751.857413
 20
329.915676
 42
0.362153
  0
VERTEX
  8
0
 10
753.199578
 20
328.331949
 42
0.020503
  0
VERTEX
  8
0
 10
760.043778
 20
327.424268
 42
0.007223
  0
VERTEX
  8
0
 10
762.975940
 20
327.199796
 42
0.036674
  0
VERTEX
  8
0
 10
764.613130
 20
327.218385
 42
0.201360
  0
VERTEX
  8
0
 10
765.102835
 20
327.474623
 42
0.438054
  0
VERTEX
  8
0
 10
765.052155
 20
327.849338
 42
-0.641724
  0
VERTEX
  8
0
 10
765.290614
 20
329.153211
 42
-0.045190
  0
VERTEX
  8
0
 10
770.195733
 20
329.937361
 42
-0.016101
  0
VERTEX
  8
0
 10
780.639132
 20
330.313534
 42
-0.002705
  0
VERTEX
  8
0
 10
800.655056
 20
330.281387
 42
0.001538
  0
VERTEX
  8
0
 10
817.246745
 20
330.216001
 42
0.009208
  0
VERTEX
  8
0
 10
825.887427
 20
330.367662
 42
0.009156
  0
VERTEX
  8
0
 10
831.308836
 20
330.662211
 42
0.290751
  0
VERTEX
  8
0
 10
832.331360
 20
331.421127
 42
0.176374
  0
VERTEX
  8
0
 10
832.342135
 20
332.045743
 42
0.145425
  0
VERTEX
  8
0
 10
831.952300
 20
332.590954
 42
0.084992
  0
VERTEX
  8
0
 10
831.110235
 20
333.041900
 42
0.031182
  0
VERTEX
  8
0
 10
829.801304
 20
333.389739
 42
0.050058
  0
VERTEX
  8
0
 10
823.535187
 20
334.001759
 42
0.001351
  0
VERTEX
  8
0
 10
795.868770
 20
333.853099
 42
0.001914
  0
VERTEX
  8
0
 10
768.960732
 20
333.532746
 42
0.031497
  0
SEQEND
  0
POLYLINE
  8
0
 66
1
 70
1
  0
VERTEX
  8
0
 10
788.000000
 20
324.000000
 42
0.105053
  0
VERTEX
  8
0
 10
788.081062
 20
323.618444
 42
0.099167
  0
VERTEX
  8
0
 10
788.311086
 20
323.293750
 42
0.096420
  0
VERTEX
  8
0
 10
788.654762
 20
323.076123
 42
0.093332
  0
VERTEX
  8
0
 10
789.059017
 20
323.000000
 42
0.108972
  0
VERTEX
  8
0
 10
789.413961
 20
323.078288
 42
0.182303
  0
VERTEX
  8
0
 10
789.625400
 20
323.293750
 42
0.161196
  0
VERTEX
  8
0
 10
789.656512
 20
323.617900
 42
0.082592
  0
VERTEX
  8
0
 10
789.500000
 20
324.000000
 42
0.029505
  0
VERTEX
  8
0
 10
789.231006
 20
324.382774
 42
0.035638
  0
VERTEX
  8
0
 10
788.933975
 20
324.706250
 42
0.038439
  0
VERTEX
  8
0
 10
788.651710
 20
324.934461
 42
0.151918
  0
VERTEX
  8
0
 10
788.440983
 20
325.000000
 42
0.210953
  0
VERTEX
  8
0
 10
788.272352
 20
324.925540
 42
0.081139
  0
VERTEX
  8
0
 10
788.129539
 20
324.706250
 42
0.061769
  0
VERTEX
  8
0
 10
788.032345
 20
324.382849
 42
0.042167
  0
SEQEND
  0
POLYLINE
  8
0
 66
1
 70
1
  0
VERTEX
  8
0
 10
791.320380
 20
323.920380
 42
-0.174149
  0
VERTEX
  8
0
 10
790.129826
 20
323.359077
 42
-0.010927
  0
VERTEX
  8
0
 10
786.197356
 20
323.068073
 42
-0.011740
  0
VERTEX
  8
0
 10
780.586072
 20
322.907923
 42
-0.003801
  0
VERTEX
  8
0
 10
772.278835
 20
322.929097
 42
0.002361
  0
VERTEX
  8
0
 10
761.547624
 20
322.987369
 42
0.022021
  0
VERTEX
  8
0
 10
756.924721
 20
322.786955
 42
0.055287
  0
VERTEX
  8
0
 10
754.330136
 20
322.266889
 42
0.132505
  0
VERTEX
  8
0
 10
752.693453
 20
321.213763
 42
0.344159
  0
VERTEX
  8
0
 10
752.617889
 20
320.175358
 42
0.211223
  0
VERTEX
  8
0
 10
753.709710
 20
319.484454
 42
0.027020
  0
VERTEX
  8
0
 10
757.494078
 20
319.128293
 42
0.001400
  0
VERTEX
  8
0
 10
769.738465
 20
318.674900
 42
-0.002601
  0
VERTEX
  8
0
 10
778.145038
 20
318.343381
 42
-0.001652
  0
VERTEX
  8
0
 10
787.932557
 20
317.873977
 42
-0.001659
  0
VERTEX
  8
0
 10
797.536580
 20
317.349603
 42
-0.003074
  0
VERTEX
  8
0
 10
805.329814
 20
316.850064
 42
0.000000
  0
VERTEX
  8
0
 10
822.159628
 20
315.667354
 42
0.000000
  0
VERTEX
  8
0
 10
824.543851
 20
318.583677
 42
0.008826
  0
VERTEX
  8
0
 10
825.459749
 20
319.745233
 42
0.012149
  0
VERTEX
  8
0
 10
826.238273
 20
320.822595
 42
0.008881
  0
VERTEX
  8
0
 10
826.844718
 20
321.740821
 42
0.127450
  0
VERTEX
  8
0
 10
826.964037
 20
322.110263
 42
0.404386
  0
VERTEX
  8
0
 10
826.741674
 20
322.369123
 42
0.001569
  0
VERTEX
  8
0
 10
822.509748
 20
322.748440
 42
0.006257
  0
VERTEX
  8
0
 10
817.594982
 20
323.111516
 42
0.003753
  0
VERTEX
  8
0
 10
811.750000
 20
323.425815
 42
-0.002355
  0
VERTEX
  8
0
 10
805.762351
 20
323.731007
 42
-0.003253
  0
VERTEX
  8
0
 10
800.391169
 20
324.065214
 42
-0.002056
  0
VERTEX
  8
0
 10
795.881441
 20
324.393923
 42
-0.039706
  0
VERTEX
  8
0
 10
794.496532
 20
324.612085
 42
0.061298
  0
VERTEX
  8
0
 10
793.643191
 20
324.709073
 42
0.051335
  0
VERTEX
  8
0
 10
792.737107
 20
324.607301
 42
0.053507
  0
VERTEX
  8
0
 10
791.916288
 20
324.334064
 42
0.089523
  0
SEQEND
  0
POLYLINE
  8
0
 66
1
 70
1
  0
VERTEX
  8
0
 10
772.500000
 20
306.957328
 42
-0.008283
  0
VERTEX
  8
0
 10
774.484057
 20
306.086186
 42
-0.010091
  0
VERTEX
  8
0
 10
776.310313
 20
305.202936
 42
-0.008780
  0
VERTEX
  8
0
 10
777.811663
 20
304.405574
 42
-0.067352
  0
VERTEX
  8
0
 10
778.450000
 20
303.930030
 42
0.194793
  0
VERTEX
  8
0
 10
780.695729
 20
303.006889
 42
0.002230
  0
VERTEX
  8
0
 10
797.195657
 20
302.994013
 42
0.001865
  0
VERTEX
  8
0
 10
813.860999
 20
303.117499
 42
0.256962
  0
VERTEX
  8
0
 10
815.541119
 20
304.066531
 42
0.036254
  0
VERTEX
  8
0
 10
815.767690
 20
304.500570
 42
0.048627
  0
VERTEX
  8
0
 10
815.903615
 20
304.922799
 42
0.058013
  0
VERTEX
  8
0
 10
815.938335
 20
305.274611
 42
0.194362
  0
VERTEX
  8
0
 10
815.849529
 20
305.483804
 42
0.174610
  0
VERTEX
  8
0
 10
814.614879
 20
306.064546
 42
0.001455
  0
VERTEX
  8
0
 10
803.859496
 20
307.046184
 42
0.005577
  0
VERTEX
  8
0
 10
792.675200
 20
307.908544
 42
0.006443
  0
VERTEX
  8
0
 10
782.000000
 20
308.473915
 42
0.000000
  0
VERTEX
  8
0
 10
767.500000
 20
309.054596
 42
0.000000
  0
SEQEND
  0
POLYLINE
  8
0
 66
1
 70
1
  0
VERTEX
  8
0
 10
716.587714
 20
274.141925
 42
0.482560
  0
VERTEX
  8
0
 10
716.720420
 20
273.773378
 42
0.022342
  0
VERTEX
  8
0
 10
718.187559
 20
273.349432
 42
0.023010
  0
VERTEX
  8
0
 10
720.237894
 20
272.953814
 42
0.012608
  0
VERTEX
  8
0
 10
722.778697
 20
272.649034
 42
0.007314
  0
VERTEX
  8
0
 10
729.083037
 20
272.146514
 42
0.021051
  0
VERTEX
  8
0
 10
733.468040
 20
272.046435
 42
0.028685
  0
VERTEX
  8
0
 10
736.243090
 20
272.259507
 42
0.543186
  0
VERTEX
  8
0
 10
736.552786
 20
272.914590
 42
-0.131107
  0
VERTEX
  8
0
 10
736.435807
 20
273.302558
 42
-0.121773
  0
VERTEX
  8
0
 10
736.522598
 20
273.709292
 42
-0.105417
  0
VERTEX
  8
0
 10
736.806545
 20
274.073164
 42
-0.078880
  0
VERTEX
  8
0
 10
737.243769
 20
274.335642
 42
0.784354
  0
VERTEX
  8
0
 10
737.214639
 20
274.538410
 42
0.008971
  0
VERTEX
  8
0
 10
734.990506
 20
274.716523
 42
0.009119
  0
VERTEX
  8
0
 10
731.825617
 20
274.855016
 42
0.004528
  0
VERTEX
  8
0
 10
727.809017
 20
274.921053
 42
0.007536
  0
VERTEX
  8
0
 10
723.673192
 20
274.889255
 42
0.011641
  0
VERTEX
  8
0
 10
720.102729
 20
274.724750
 42
0.006088
  0
VERTEX
  8
0
 10
717.136427
 20
274.482470
 42
0.235080
  0
SEQEND
  0
POLYLINE
  8
0
 66
1
 70
1
  0
VERTEX
  8
0
 10
716.671006
 20
267.337673
 42
0.114816
  0
VERTEX
  8
0
 10
716.411686
 20
266.921065
 42
0.028970
  0
VERTEX
  8
0
 10
716.197108
 20
266.146375
 42
0.028020
  0
VERTEX
  8
0
 10
716.049365
 20
265.208600
 42
0.025064
  0
VERTEX
  8
0
 10
716.000000
 20
264.224455
 42
0.000000
  0
VERTEX
  8
0
 10
716.000000
 20
261.782243
 42
0.000000
  0
VERTEX
  8
0
 10
748.955990
 20
262.147112
 42
0.002431
  0
VERTEX
  8
0
 10
771.969879
 20
262.513813
 42
0.029339
  0
VERTEX
  8
0
 10
780.793892
 20
263.216416
 42
0.525525
  0
VERTEX
  8
0
 10
781.497672
 20
264.619364
 42
0.187048
  0
VERTEX
  8
0
 10
779.400921
 20
266.379060
 42
0.002003
  0
VERTEX
  8
0
 10
775.579249
 20
267.664174
 42
0.053985
  0
VERTEX
  8
0
 10
774.535453
 20
267.889403
 42
0.500363
  0
VERTEX
  8
0
 10
774.287491
 20
267.621937
 42
0.093591
  0
VERTEX
  8
0
 10
774.570157
 20
266.886483
 42
-0.588250
  0
VERTEX
  8
0
 10
774.163249
 20
266.158849
 42
-0.002851
  0
VERTEX
  8
0
 10
763.641323
 20
266.245880
 42
-0.006130
  0
VERTEX
  8
0
 10
749.240647
 20
266.623738
 42
-0.001861
  0
VERTEX
  8
0
 10
727.421006
 20
267.545372
 42
0.006487
  0
VERTEX
  8
0
 10
723.509872
 20
267.674335
 42
0.009827
  0
VERTEX
  8
0
 10
720.105609
 20
267.675475
 42
0.005013
  0
VERTEX
  8
0
 10
717.251686
 20
267.591703
 42
0.188700
  0
SEQEND
  0
POLYLINE
  8
0
 66
1
 70
1
  0
VERTEX
  8
0
 10
715.475337
 20
249.563159
 42
0.008769
  0
VERTEX
  8
0
 10
714.871575
 20
247.341669
 42
0.013475
  0
VERTEX
  8
0
 10
714.434944
 20
245.397198
 42
0.007848
  0
VERTEX
  8
0
 10
714.143499
 20
243.779437
 42
0.241525
  0
VERTEX
  8
0
 10
714.265153
 20
243.401514
 42
0.158224
  0
VERTEX
  8
0
 10
714.653766
 20
243.203353
 42
0.004108
  0
VERTEX
  8
0
 10
716.607717
 20
242.909062
 42
0.008296
  0
VERTEX
  8
0
 10
718.933832
 20
242.617526
 42
0.005527
  0
VERTEX
  8
0
 10
721.607668
 20
242.357253
 42
0.003488
  0
VERTEX
  8
0
 10
725.736991
 20
242.030332
 42
0.061799
  0
VERTEX
  8
0
 10
727.070337
 20
242.098942
 42
0.527776
  0
VERTEX
  8
0
 10
727.250316
 20
242.496928
 42
0.092181
  0
VERTEX
  8
0
 10
726.587520
 20
243.236979
 42
-0.057132
  0
VERTEX
  8
0
 10
725.869624
 20
243.934092
 42
-0.069302
  0
VERTEX
  8
0
 10
725.381610
 20
244.734437
 42
-0.078898
  0
VERTEX
  8
0
 10
725.173548
 20
245.543507
 42
-0.115674
  0
VERTEX
  8
0
 10
725.272837
 20
246.268619
 42
-0.258940
  0
VERTEX
  8
0
 10
726.317851
 20
247.144613
 42
-0.026362
  0
VERTEX
  8
0
 10
729.639103
 20
247.606479
 42
-0.015300
  0
VERTEX
  8
0
 10
735.430042
 20
247.924534
 42
-0.002155
  0
VERTEX
  8
0
 10
747.386832
 20
248.163227
 42
0.003216
  0
VERTEX
  8
0
 10
757.290614
 20
248.381975
 42
0.009705
  0
VERTEX
  8
0
 10
764.035444
 20
248.705469
 42
0.007751
  0
VERTEX
  8
0
 10
768.851424
 20
249.105320
 42
0.173638
  0
VERTEX
  8
0
 10
770.096160
 20
249.694645
 42
0.069050
  0
VERTEX
  8
0
 10
770.559581
 20
250.308208
 42
0.286372
  0
VERTEX
  8
0
 10
770.537923
 20
250.751533
 42
0.163361
  0
VERTEX
  8
0
 10
770.064422
 20
251.104299
 42
0.023979
  0
VERTEX
  8
0
 10
768.894645
 20
251.426148
 42
0.032110
  0
VERTEX
  8
0
 10
764.896101
 20
252.056447
 42
0.002560
  0
VERTEX
  8
0
 10
754.226227
 20
252.987370
 42
0.003679
  0
VERTEX
  8
0
 10
742.171309
 20
253.887725
 42
0.003882
  0
VERTEX
  8
0
 10
730.317852
 20
254.592975
 42
0.000000
  0
VERTEX
  8
0
 10
717.135704
 20
255.274621
 42
0.000000
  0
SEQEND
  0
POLYLINE
  8
0
 66
1
 70
1
  0
VERTEX
  8
0
 10
743.500000
 20
251.000000
 42
-0.353927
  0
VERTEX
  8
0
 10
743.449123
 20
250.600799
 42
-0.116620
  0
VERTEX
  8
0
 10
742.901713
 20
250.278955
 42
-0.054884
  0
VERTEX
  8
0
 10
741.829331
 20
250.073097
 42
-0.021008
  0
VERTEX
  8
0
 10
740.309017
 20
250.015313
 42
-0.010352
  0
VERTEX
  8
0
 10
738.471563
 20
250.060750
 42
-0.089658
  0
VERTEX
  8
0
 10
737.676633
 20
250.242073
 42
-0.454106
  0
VERTEX
  8
0
 10
737.573671
 20
250.557873
 42
-0.115435
  0
VERTEX
  8
0
 10
738.000000
 20
251.000000
 42
-0.071118
  0
VERTEX
  8
0
 10
739.532335
 20
251.705986
 42
-0.072562
  0
VERTEX
  8
0
 10
741.190466
 20
251.947895
 42
-0.084249
  0
VERTEX
  8
0
 10
742.622451
 20
251.704882
 42
-0.171919
  0
SEQEND
  0
POLYLINE
  8
0
 66
1
 70
1
  0
VERTEX
  8
0
 10
326.500000
 20
243.327702
 42
0.007970
  0
VERTEX
  8
0
 10
320.036715
 20
242.420059
 42
0.001489
  0
VERTEX
  8
0
 10
308.218380
 20
240.531784
 42
0.001690
  0
VERTEX
  8
0
 10
296.061798
 20
238.510116
 42
0.004222
  0
VERTEX
  8
0
 10
287.199236
 20
236.928344
 42
-0.006204
  0
VERTEX
  8
0
 10
282.910874
 20
236.180498
 42
-0.005945
  0
VERTEX
  8
0
 10
278.543920
 20
235.527845
 42
-0.005901
  0
VERTEX
  8
0
 10
274.678001
 20
235.043396
 42
-0.021229
  0
VERTEX
  8
0
 10
272.199236
 20
234.868575
 42
0.002091
  0
VERTEX
  8
0
 10
269.258094
 20
234.774007
 42
0.782484
  0
VERTEX
  8
0
 10
269.230760
 20
234.643548
 42
0.083558
  0
VERTEX
  8
0
 10
269.774159
 20
234.485724
 42
0.000755
  0
VERTEX
  8
0
 10
274.000000
 20
234.000058
 42
0.010135
  0
VERTEX
  8
0
 10
277.521166
 20
233.672896
 42
0.002525
  0
VERTEX
  8
0
 10
283.290625
 20
233.283868
 42
0.002580
  0
VERTEX
  8
0
 10
289.897656
 20
232.906089
 42
0.002590
  0
VERTEX
  8
0
 10
296.500000
 20
232.597028
 42
-0.003463
  0
VERTEX
  8
0
 10
303.314476
 20
232.266116
 42
-0.002875
  0
VERTEX
  8
0
 10
310.560344
 20
231.822136
 42
-0.002902
  0
VERTEX
  8
0
 10
317.194336
 20
231.338658
 42
-0.007835
  0
VERTEX
  8
0
 10
321.896917
 20
230.894245
 42
0.005746
  0
VERTEX
  8
0
 10
326.792831
 20
230.410909
 42
0.028168
  0
VERTEX
  8
0
 10
329.570361
 20
230.325914
 42
0.052395
  0
VERTEX
  8
0
 10
331.253383
 20
230.546674
 42
0.198056
  0
VERTEX
  8
0
 10
332.096870
 20
231.156740
 42
-0.178996
  0
VERTEX
  8
0
 10
332.839173
 20
231.736399
 42
-0.027556
  0
VERTEX
  8
0
 10
334.680683
 20
232.213766
 42
-0.024742
  0
VERTEX
  8
0
 10
337.212286
 20
232.593974
 42
-0.012286
  0
VERTEX
  8
0
 10
340.449953
 20
232.837340
 42
-0.012338
  0
VERTEX
  8
0
 10
345.917902
 20
232.978334
 42
-0.188310
  0
VERTEX
  8
0
 10
347.648700
 20
232.304721
 42
-0.301988
  0
VERTEX
  8
0
 10
348.010081
 20
230.833232
 42
-0.029259
  0
VERTEX
  8
0
 10
346.491329
 20
227.283073
 42
-0.107026
  0
VERTEX
  8
0
 10
344.855234
 20
225.243140
 42
-0.093031
  0
VERTEX
  8
0
 10
342.441523
 20
223.936882
 42
-0.059091
  0
VERTEX
  8
0
 10
338.801739
 20
223.227536
 42
-0.017972
  0
VERTEX
  8
0
 10
333.178571
 20
223.011006
 42
0.029240
  0
VERTEX
  8
0
 10
331.362801
 20
222.900087
 42
0.033633
  0
VERTEX
  8
0
 10
329.657062
 20
222.577847
 42
0.036827
  0
VERTEX
  8
0
 10
328.242863
 20
222.097277
 42
0.096347
  0
VERTEX
  8
0
 10
327.357143
 20
221.500000
 42
-0.121723
  0
VERTEX
  8
0
 10
326.168441
 20
220.782367
 42
-0.038529
  0
VERTEX
  8
0
 10
324.133070
 20
220.318942
 42
-0.026108
  0
VERTEX
  8
0
 10
321.135661
 20
220.034399
 42
-0.008445
  0
VERTEX
  8
0
 10
316.678571
 20
219.920483
 42
0.005406
  0
VERTEX
  8
0
 10
312.562480
 20
219.840312
 42
0.003418
  0
VERTEX
  8
0
 10
307.763373
 20
219.662077
 42
0.003431
  0
VERTEX
  8
0
 10
303.049551
 20
219.422313
 42
0.006315
  0
VERTEX
  8
0
 10
299.218018
 20
219.152465
 42
-0.010545
  0
VERTEX
  8
0
 10
295.981675
 20
218.952033
 42
-0.015193
  0
VERTEX
  8
0
 10
293.112824
 20
218.922256
 42
-0.010862
  0
VERTEX
  8
0
 10
290.761892
 20
219.020413
 42
-0.182472
  0
VERTEX
  8
0
 10
290.064394
 20
219.335606
 42
0.135871
  0
VERTEX
  8
0
 10
289.592370
 20
219.602938
 42
0.074295
  0
VERTEX
  8
0
 10
288.925474
 20
219.667767
 42
0.063393
  0
VERTEX
  8
0
 10
288.157771
 20
219.529630
 42
0.051435
  0
VERTEX
  8
0
 10
287.389229
 20
219.197947
 42
0.090174
  0
VERTEX
  8
0
 10
286.683748
 20
218.615609
 42
0.409525
  0
VERTEX
  8
0
 10
286.720570
 20
218.135298
 42
0.100325
  0
VERTEX
  8
0
 10
287.571624
 20
217.651490
 42
0.008101
  0
VERTEX
  8
0
 10
290.042853
 20
216.885044
 42
0.050361
  0
VERTEX
  8
0
 10
293.331338
 20
216.273377
 42
0.009524
  0
VERTEX
  8
0
 10
299.429627
 20
215.881231
 42
0.007897
  0
VERTEX
  8
0
 10
307.916510
 20
215.631857
 42
0.003008
  0
VERTEX
  8
0
 10
319.750000
 20
215.542327
 42
0.000000
  0
VERTEX
  8
0
 10
345.000000
 20
215.503211
 42
0.000000
  0
VERTEX
  8
0
 10
345.000000
 20
211.823562
 42
0.000000
  0
VERTEX
  8
0
 10
345.000000
 20
208.143913
 42
0.000000
  0
VERTEX
  8
0
 10
339.750000
 20
207.631582
 42
-0.002719
  0
VERTEX
  8
0
 10
336.855076
 20
207.364961
 42
-0.000613
  0
VERTEX
  8
0
 10
331.929688
 20
206.944418
 42
-0.000635
  0
VERTEX
  8
0
 10
326.244924
 20
206.473334
 42
-0.000616
  0
VERTEX
  8
0
 10
320.500000
 20
206.011741
 42
0.002011
  0
VERTEX
  8
0
 10
314.899150
 20
205.545997
 42
0.002435
  0
VERTEX
  8
0
 10
309.648712
 20
205.062354
 42
0.002062
  0
VERTEX
  8
0
 10
305.233788
 20
204.615601
 42
0.016704
  0
VERTEX
  8
0
 10
303.219018
 20
204.335012
 42
0.008458
  0
VERTEX
  8
0
 10
301.236202
 20
203.956356
 42
0.177339
  0
VERTEX
  8
0
 10
300.732718
 20
203.643047
 42
0.385992
  0
VERTEX
  8
0
 10
300.763377
 20
203.227357
 42
0.027865
  0
VERTEX
  8
0
 10
301.719018
 20
202.414700
 42
0.133113
  0
VERTEX
  8
0
 10
303.426046
 20
201.724313
 42
0.014892
  0
VERTEX
  8
0
 10
307.638512
 20
201.344701
 42
0.011767
  0
VERTEX
  8
0
 10
314.084848
 20
201.108931
 42
0.002881
  0
VERTEX
  8
0
 10
324.704687
 20
201.031803
 42
0.000000
  0
VERTEX
  8
0
 10
345.909374
 20
201.000000
 42
0.000000
  0
VERTEX
  8
0
 10
346.565978
 20
197.500000
 42
0.030975
  0
VERTEX
  8
0
 10
346.952109
 20
195.971061
 42
0.067964
  0
VERTEX
  8
0
 10
347.470506
 20
194.884125
 42
0.098405
  0
VERTEX
  8
0
 10
348.110741
 20
194.232944
 42
0.150904
  0
VERTEX
  8
0
 10
348.861291
 20
194.002293
 42
0.331158
  0
VERTEX
  8
0
 10
349.772445
 20
194.682080
 42
0.050331
  0
VERTEX
  8
0
 10
350.227638
 20
197.053371
 42
0.020098
  0
VERTEX
  8
0
 10
350.453563
 20
201.671131
 42
0.002174
  0
VERTEX
  8
0
 10
350.500000
 20
212.350367
 42
-0.003319
  0
VERTEX
  8
0
 10
350.561680
 20
221.641380
 42
-0.014041
  0
VERTEX
  8
0
 10
350.791816
 20
227.202805
 42
-0.019584
  0
VERTEX
  8
0
 10
351.182265
 20
230.783968
 42
-0.137222
  0
VERTEX
  8
0
 10
351.892501
 20
232.372240
 42
0.040502
  0
VERTEX
  8
0
 10
352.377143
 20
233.062296
 42
0.056858
  0
VERTEX
  8
0
 10
352.682244
 20
233.749690
 42
0.071792
  0
VERTEX
  8
0
 10
352.776891
 20
234.333217
 42
0.203454
  0
VERTEX
  8
0
 10
352.625564
 20
234.707770
 42
0.172116
  0
VERTEX
  8
0
 10
352.038440
 20
234.987415
 42
0.002948
  0
VERTEX
  8
0
 10
348.443031
 20
235.339877
 42
0.007132
  0
VERTEX
  8
0
 10
344.210248
 20
235.668830
 42
0.004641
  0
VERTEX
  8
0
 10
339.313174
 20
235.933604
 42
-0.008304
  0
VERTEX
  8
0
 10
330.214251
 20
236.492450
 42
-0.093701
  0
VERTEX
  8
0
 10
326.741300
 20
237.434224
 42
-0.641409
  0
VERTEX
  8
0
 10
326.766176
 20
238.591598
 42
-0.043336
  0
VERTEX
  8
0
 10
330.953622
 20
239.988874
 42
0.020621
  0
VERTEX
  8
0
 10
333.037036
 20
240.580495
 42
0.039904
  0
VERTEX
  8
0
 10
334.632888
 20
241.250860
 42
0.051641
  0
VERTEX
  8
0
 10
335.688103
 20
241.943171
 42
0.225448
  0
VERTEX
  8
0
 10
336.000000
 20
242.599741
 42
0.301087
  0
VERTEX
  8
0
 10
335.455146
 20
243.422530
 42
0.081305
  0
VERTEX
  8
0
 10
333.857608
 20
243.811325
 42
0.040039
  0
VERTEX
  8
0
 10
331.056213
 20
243.801358
 42
0.009996
  0
SEQEND
  0
POLYLINE
  8
0
 66
1
 70
1
  0
VERTEX
  8
0
 10
583.000000
 20
186.645058
 42
0.108112
  0
VERTEX
  8
0
 10
583.074953
 20
186.302465
 42
0.005888
  0
VERTEX
  8
0
 10
583.550616
 20
185.298746
 42
0.008937
  0
VERTEX
  8
0
 10
584.156375
 20
184.112696
 42
0.006391
  0
VERTEX
  8
0
 10
584.874439
 20
182.807160
 42
-0.070364
  0
VERTEX
  8
0
 10
586.670250
 20
178.246802
 42
-0.020891
  0
VERTEX
  8
0
 10
588.109952
 20
170.874823
 42
-0.019823
  0
VERTEX
  8
0
 10
589.093101
 20
162.089911
 42
-0.016794
  0
VERTEX
  8
0
 10
589.450147
 20
152.753475
 42
0.006027
  0
VERTEX
  8
0
 10
589.518945
 20
148.632645
 42
0.010015
  0
VERTEX
  8
0
 10
589.688332
 20
145.162721
 42
0.003972
  0
VERTEX
  8
0
 10
589.911435
 20
142.261595
 42
0.388171
  0
VERTEX
  8
0
 10
590.190983
 20
142.003475
 42
0.221510
  0
VERTEX
  8
0
 10
591.024226
 20
142.386577
 42
0.058257
  0
VERTEX
  8
0
 10
591.859471
 20
143.640853
 42
0.040179
  0
VERTEX
  8
0
 10
592.688155
 20
145.652348
 42
0.016375
  0
VERTEX
  8
0
 10
593.500000
 20
148.500000
 42
0.000000
  0
VERTEX
  8
0
 10
594.500000
 20
152.500000
 42
0.000000
  0
VERTEX
  8
0
 10
613.615686
 20
152.128167
 42
0.004008
  0
VERTEX
  8
0
 10
621.533048
 20
152.037644
 42
0.008376
  0
VERTEX
  8
0
 10
627.696156
 20
152.119838
 42
0.003762
  0
VERTEX
  8
0
 10
632.619150
 20
152.305086
 42
0.247922
  0
VERTEX
  8
0
 10
633.327843
 20
152.721445
 42
0.520746
  0
VERTEX
  8
0
 10
633.011636
 20
153.455718
 42
0.001694
  0
VERTEX
  8
0
 10
621.600789
 20
155.775430
 42
0.007293
  0
VERTEX
  8
0
 10
609.894862
 20
157.936804
 42
0.009246
  0
VERTEX
  8
0
 10
599.021127
 20
159.574700
 42
-0.009112
  0
VERTEX
  8
0
 10
595.257354
 20
160.140597
 42
-0.132985
  0
VERTEX
  8
0
 10
594.048097
 20
160.697938
 42
-0.226295
  0
VERTEX
  8
0
 10
593.596483
 20
161.684203
 42
-0.032522
  0
VERTEX
  8
0
 10
593.780230
 20
163.955972
 42
-0.046386
  0
VERTEX
  8
0
 10
594.227684
 20
165.796905
 42
-0.204494
  0
VERTEX
  8
0
 10
594.959877
 20
166.607594
 42
-0.101188
  0
VERTEX
  8
0
 10
596.370809
 20
166.939615
 42
-0.007455
  0
VERTEX
  8
0
 10
600.363499
 20
166.997572
 42
-0.010369
  0
VERTEX
  8
0
 10
603.604388
 20
166.929075
 42
-0.002908
  0
VERTEX
  8
0
 10
608.663028
 20
166.687674
 42
-0.002931
  0
VERTEX
  8
0
 10
614.381391
 20
166.347816
 42
-0.003083
  0
VERTEX
  8
0
 10
620.000000
 20
165.946010
 42
0.009887
  0
VERTEX
  8
0
 10
632.593966
 20
165.217465
 42
0.008529
  0
VERTEX
  8
0
 10
645.843616
 20
164.939803
 42
0.006322
  0
VERTEX
  8
0
 10
657.684579
 20
165.043402
 42
0.065337
  0
VERTEX
  8
0
 10
662.500000
 20
165.780453
 42
0.000000
  0
VERTEX
  8
0
 10
665.500000
 20
166.650820
 42
0.000000
  0
VERTEX
  8
0
 10
663.000000
 20
167.281386
 42
0.029837
  0
VERTEX
  8
0
 10
658.376340
 20
168.158229
 42
0.000712
  0
VERTEX
  8
0
 10
636.626393
 20
170.920753
 42
0.001502
  0
VERTEX
  8
0
 10
615.965556
 20
173.452016
 42
0.009255
  0
VERTEX
  8
0
 10
605.305511
 20
174.525829
 42
-0.019092
  0
VERTEX
  8
0
 10
599.620435
 20
175.211701
 42
-0.060874
  0
VERTEX
  8
0
 10
595.951988
 20
176.265947
 42
-0.164448
  0
VERTEX
  8
0
 10
594.470257
 20
177.585095
 42
-0.335668
  0
VERTEX
  8
0
 10
594.661448
 20
179.044128
 42
-0.201079
  0
VERTEX
  8
0
 10
596.594334
 20
179.852089
 42
-0.002178
  0
VERTEX
  8
0
 10
611.241957
 20
179.774613
 42
-0.004896
  0
VERTEX
  8
0
 10
631.267447
 20
179.385310
 42
-0.001407
  0
VERTEX
  8
0
 10
662.250688
 20
178.392136
 42
0.004697
  0
VERTEX
  8
0
 10
669.394987
 20
178.210176
 42
0.005483
  0
VERTEX
  8
0
 10
676.182222
 20
178.175538
 42
0.004886
  0
VERTEX
  8
0
 10
681.917714
 20
178.265212
 42
0.032864
  0
VERTEX
  8
0
 10
684.750688
 20
178.524039
 42
0.002135
  0
VERTEX
  8
0
 10
687.973482
 20
179.047715
 42
0.144764
  0
VERTEX
  8
0
 10
688.466979
 20
179.287858
 42
0.577088
  0
VERTEX
  8
0
 10
688.409390
 20
179.549785
 42
0.008047
  0
VERTEX
  8
0
 10
686.500000
 20
180.122645
 42
0.035698
  0
VERTEX
  8
0
 10
678.341737
 20
181.810559
 42
0.006076
  0
VERTEX
  8
0
 10
662.576151
 20
183.719585
 42
0.005561
  0
VERTEX
  8
0
 10
647.943550
 20
185.146776
 42
0.861343
  0
VERTEX
  8
0
 10
647.750000
 20
184.337719
 42
-0.067650
  0
VERTEX
  8
0
 10
648.227917
 20
184.064957
 42
-0.061662
  0
VERTEX
  8
0
 10
648.632812
 20
183.666898
 42
-0.065378
  0
VERTEX
  8
0
 10
648.907134
 20
183.209444
 42
-0.102761
  0
VERTEX
  8
0
 10
649.000000
 20
182.762360
 42
-0.430025
  0
VERTEX
  8
0
 10
647.634504
 20
181.468264
 42
-0.001869
  0
VERTEX
  8
0
 10
625.242181
 20
182.755413
 42
-0.008085
  0
VERTEX
  8
0
 10
603.650130
 20
184.428407
 42
-0.016398
  0
VERTEX
  8
0
 10
586.750000
 20
186.574151
 42
0.012974
  0
VERTEX
  8
0
 10
585.312009
 20
186.766740
 42
0.022075
  0
VERTEX
  8
0
 10
584.101562
 20
186.843158
 42
0.018371
  0
VERTEX
  8
0
 10
583.171875
 20
186.826578
 42
0.398319
  0
SEQEND
  0
POLYLINE
  8
0
 66
1
 70
1
  0
VERTEX
  8
0
 10
565.000000
 20
179.248446
 42
0.096077
  0
VERTEX
  8
0
 10
562.033173
 20
176.970222
 42
0.056588
  0
VERTEX
  8
0
 10
559.458664
 20
173.296969
 42
0.050812
  0
VERTEX
  8
0
 10
557.516114
 20
168.660129
 42
0.044092
  0
VERTEX
  8
0
 10
556.432112
 20
163.500000
 42
0.000000
  0
VERTEX
  8
0
 10
555.834622
 20
158.500000
 42
0.000000
  0
VERTEX
  8
0
 10
558.292018
 20
163.578864
 42
-0.039117
  0
VERTEX
  8
0
 10
560.805057
 20
167.879408
 42
-0.071727
  0
VERTEX
  8
0
 10
563.566735
 20
170.842458
 42
-0.093298
  0
VERTEX
  8
0
 10
566.488532
 20
172.405766
 42
-0.124094
  0
VERTEX
  8
0
 10
569.484218
 20
172.580639
 42
-0.149641
  0
VERTEX
  8
0
 10
574.028131
 20
170.182030
 42
-0.082272
  0
VERTEX
  8
0
 10
577.734392
 20
165.032547
 42
-0.066842
  0
VERTEX
  8
0
 10
580.179971
 20
157.802934
 42
-0.048213
  0
VERTEX
  8
0
 10
581.000000
 20
149.318499
 42
0.009824
  0
VERTEX
  8
0
 10
581.063263
 20
146.098862
 42
0.048486
  0
VERTEX
  8
0
 10
581.309350
 20
144.303083
 42
0.110261
  0
VERTEX
  8
0
 10
581.772615
 20
143.350669
 42
0.228466
  0
VERTEX
  8
0
 10
582.500000
 20
143.000000
 42
0.246646
  0
VERTEX
  8
0
 10
583.239239
 20
143.388282
 42
0.100483
  0
VERTEX
  8
0
 10
583.698559
 20
144.464984
 42
0.042784
  0
VERTEX
  8
0
 10
583.939690
 20
146.509171
 42
0.007976
  0
VERTEX
  8
0
 10
584.000000
 20
150.289901
 42
0.041861
  0
VERTEX
  8
0
 10
583.185815
 20
159.997674
 42
0.051365
  0
VERTEX
  8
0
 10
580.760230
 20
168.762390
 42
0.059325
  0
VERTEX
  8
0
 10
577.114272
 20
175.579166
 42
0.130250
  0
VERTEX
  8
0
 10
572.632975
 20
179.369875
 42
0.007232
  0
VERTEX
  8
0
 10
569.872045
 20
180.631428
 42
0.107928
  0
VERTEX
  8
0
 10
568.838400
 20
180.840008
 42
0.105462
  0
VERTEX
  8
0
 10
567.804216
 20
180.602161
 42
0.006773
  0
SEQEND
  0
ENDSEC
  0
EOF
