  0
SECTION
  2
HEADER
  9
$ACADVER
  1
AC1006
  9
$EXTMIN
 10
0.000000
 20
0.000000
 30
0.000000
  9
$EXTMAX
 10
1024.000000
 20
1024.000000
 30
0.000000
  0
ENDSEC
  0
SECTION
  2
ENTITIES
  0
POLYLINE
  8
0
 66
1
 70
1
  0
VERTEX
  8
0
 10
0.000000
 20
512.000000
 42
0.000000
  0
VERTEX
  8
0
 10
0.000000
 20
0.000000
 42
0.000000
  0
VERTEX
  8
0
 10
512.000000
 20
0.000000
 42
0.000000
  0
VERTEX
  8
0
 10
1024.000000
 20
0.000000
 42
0.000000
  0
VERTEX
  8
0
 10
1024.000000
 20
512.000000
 42
0.000000
  0
VERTEX
  8
0
 10
1024.000000
 20
1024.000000
 42
0.000000
  0
VERTEX
  8
0
 10
512.000000
 20
1024.000000
 42
0.000000
  0
VERTEX
  8
0
 10
0.000000
 20
1024.000000
 42
0.000000
  0
SEQEND
  0
POLYLINE
  8
0
 66
1
 70
1
  0
VERTEX
  8
0
 10
438.271713
 20
697.250000
 42
0.044591
  0
VERTEX
  8
0
 10
426.938243
 20
684.058327
 42
0.043493
  0
VERTEX
  8
0
 10
418.016089
 20
668.959738
 42
0.041795
  0
VERTEX
  8
0
 10
411.559190
 20
651.973129
 42
0.035296
  0
VERTEX
  8
0
 10
407.566177
 20
633.160252
 42
0.018271
  0
VERTEX
  8
0
 10
406.600525
 20
623.730043
 42
0.012070
  0
VERTEX
  8
0
 10
406.149945
 20
612.844336
 42
0.012153
  0
VERTEX
  8
0
 10
406.224975
 20
602.239846
 42
0.023229
  0
VERTEX
  8
0
 10
406.887077
 20
593.750000
 42
0.000000
  0
VERTEX
  8
0
 10
407.605389
 20
588.000000
 42
0.000000
  0
VERTEX
  8
0
 10
262.802694
 20
588.000000
 42
0.000000
  0
VERTEX
  8
0
 10
118.000000
 20
588.000000
 42
0.000000
  0
VERTEX
  8
0
 10
118.000000
 20
593.816341
 42
-0.041196
  0
VERTEX
  8
0
 10
118.780562
 20
603.274073
 42
-0.036956
  0
VERTEX
  8
0
 10
121.106277
 20
612.837040
 42
-0.036060
  0
VERTEX
  8
0
 10
124.889021
 20
622.184519
 42
-0.034892
  0
VERTEX
  8
0
 10
130.011356
 20
631.000000
 42
-0.037842
  0
VERTEX
  8
0
 10
134.955504
 20
637.217827
 42
-0.018295
  0
VERTEX
  8
0
 10
142.139519
 20
644.421737
 42
-0.018245
  0
VERTEX
  8
0
 10
150.025444
 20
651.250923
 42
-0.029975
  0
VERTEX
  8
0
 10
157.221838
 20
656.359095
 42
-0.056725
  0
VERTEX
  8
0
 10
187.743401
 20
670.878539
 42
-0.021721
  0
VERTEX
  8
0
 10
232.903218
 20
684.220392
 42
-0.019966
  0
VERTEX
  8
0
 10
286.578721
 20
695.319224
 42
-0.016496
  0
VERTEX
  8
0
 10
344.500000
 20
702.949941
 42
-0.005358
  0
VERTEX
  8
0
 10
356.090641
 20
703.964210
 42
-0.011443
  0
VERTEX
  8
0
 10
365.065463
 20
704.446491
 42
-0.006027
  0
VERTEX
  8
0
 10
376.960957
 20
704.669519
 42
-0.000604
  0
VERTEX
  8
0
 10
405.366925
 20
704.825293
 42
0.000000
  0
VERTEX
  8
0
 10
446.233851
 20
705.000000
 42
0.000000
  0
SEQEND
  0
POLYLINE
  8
0
 66
1
 70
1
  0
VERTEX
  8
0
 10
496.720809
 20
699.338247
 42
-0.031770
  0
VERTEX
  8
0
 10
498.301971
 20
697.883023
 42
-0.019033
  0
VERTEX
  8
0
 10
499.996238
 20
695.971699
 42
-0.019019
  0
VERTEX
  8
0
 10
501.543609
 20
693.932744
 42
-0.031188
  0
VERTEX
  8
0
 10
502.673869
 20
692.084213
 42
0.000000
  0
VERTEX
  8
0
 10
504.925795
 20
687.825756
 42
0.000000
  0
VERTEX
  8
0
 10
499.198134
 20
682.522951
 42
0.061095
  0
VERTEX
  8
0
 10
492.147528
 20
674.183681
 42
0.041326
  0
VERTEX
  8
0
 10
486.202749
 20
663.229444
 42
0.037240
  0
VERTEX
  8
0
 10
481.580423
 20
650.169103
 42
0.029448
  0
VERTEX
  8
0
 10
478.502271
 20
635.500000
 42
0.024701
  0
VERTEX
  8
0
 10
477.489014
 20
625.253326
 42
0.009859
  0
VERTEX
  8
0
 10
477.073331
 20
611.145141
 42
0.009736
  0
VERTEX
  8
0
 10
477.209437
 20
597.162476
 42
0.028013
  0
VERTEX
  8
0
 10
478.034840
 20
587.500000
 42
0.030036
  0
VERTEX
  8
0
 10
480.968618
 20
573.121876
 42
0.034530
  0
VERTEX
  8
0
 10
485.511773
 20
559.874009
 42
0.037392
  0
VERTEX
  8
0
 10
491.381667
 20
548.436087
 42
0.054833
  0
VERTEX
  8
0
 10
498.294912
 20
539.500000
 42
-0.019116
  0
VERTEX
  8
0
 10
502.294426
 20
535.028914
 42
-0.160948
  0
VERTEX
  8
0
 10
503.265399
 20
532.543208
 42
-0.172436
  0
VERTEX
  8
0
 10
502.527574
 20
530.055057
 42
-0.022690
  0
VERTEX
  8
0
 10
499.030922
 20
525.688000
 42
-0.061969
  0
VERTEX
  8
0
 10
495.743008
 20
522.766344
 42
-0.053481
  0
VERTEX
  8
0
 10
491.677160
 20
520.567051
 42
-0.055795
  0
VERTEX
  8
0
 10
487.448463
 20
519.362458
 42
-0.088098
  0
VERTEX
  8
0
 10
483.686885
 20
519.398962
 42
-0.131605
  0
VERTEX
  8
0
 10
474.463876
 20
523.821819
 42
-0.054164
  0
VERTEX
  8
0
 10
464.899985
 20
534.011728
 42
-0.047233
  0
VERTEX
  8
0
 10
456.232887
 20
548.113290
 42
-0.038538
  0
VERTEX
  8
0
 10
449.664680
 20
564.573918
 42
-0.046303
  0
VERTEX
  8
0
 10
444.481140
 20
588.883192
 42
-0.035052
  0
VERTEX
  8
0
 10
443.185985
 20
616.146181
 42
-0.035243
  0
VERTEX
  8
0
 10
445.703390
 20
643.118810
 42
-0.048987
  0
VERTEX
  8
0
 10
451.970109
 20
666.542498
 42
-0.032582
  0
VERTEX
  8
0
 10
457.268481
 20
678.266554
 42
-0.040405
  0
VERTEX
  8
0
 10
463.731385
 20
688.341611
 42
-0.045201
  0
VERTEX
  8
0
 10
470.898548
 20
696.167885
 42
-0.075591
  0
VERTEX
  8
0
 10
478.309691
 20
701.109642
 42
-0.067024
  0
VERTEX
  8
0
 10
483.035260
 20
702.588809
 42
-0.066453
  0
VERTEX
  8
0
 10
487.997925
 20
702.771483
 42
-0.068256
  0
VERTEX
  8
0
 10
492.714133
 20
701.656172
 42
-0.078135
  0
SEQEND
  0
POLYLINE
  8
0
 66
1
 70
1
  0
VERTEX
  8
0
 10
547.192385
 20
690.963327
 42
-0.096774
  0
VERTEX
  8
0
 10
550.666727
 20
689.225243
 42
-0.039324
  0
VERTEX
  8
0
 10
554.606095
 20
685.661241
 42
-0.039230
  0
VERTEX
  8
0
 10
558.054228
 20
681.382864
 42
-0.070406
  0
VERTEX
  8
0
 10
560.050384
 20
677.347336
 42
-0.031174
  0
VERTEX
  8
0
 10
560.625180
 20
675.155295
 42
-0.146843
  0
VERTEX
  8
0
 10
560.499947
 20
673.874726
 42
-0.106232
  0
VERTEX
  8
0
 10
559.668068
 20
672.660744
 42
-0.012607
  0
VERTEX
  8
0
 10
557.227928
 20
670.463103
 42
0.092316
  0
VERTEX
  8
0
 10
550.406481
 20
662.005862
 42
0.044355
  0
VERTEX
  8
0
 10
544.882264
 20
649.154650
 42
0.039112
  0
VERTEX
  8
0
 10
541.029491
 20
633.352231
 42
0.030862
  0
VERTEX
  8
0
 10
539.284456
 20
615.828509
 42
0.028969
  0
VERTEX
  8
0
 10
539.716837
 20
594.607264
 42
0.044176
  0
VERTEX
  8
0
 10
542.769962
 20
576.449703
 42
0.052163
  0
VERTEX
  8
0
 10
548.317213
 20
561.672484
 42
0.080687
  0
VERTEX
  8
0
 10
556.270821
 20
550.633941
 42
0.000000
  0
VERTEX
  8
0
 10
561.202447
 20
545.702315
 42
0.000000
  0
VERTEX
  8
0
 10
558.899376
 20
540.785163
 42
-0.049484
  0
VERTEX
  8
0
 10
556.336481
 20
536.479561
 42
-0.046673
  0
VERTEX
  8
0
 10
552.932219
 20
532.668545
 42
-0.049813
  0
VERTEX
  8
0
 10
549.188183
 20
529.828866
 42
-0.091227
  0
VERTEX
  8
0
 10
545.624844
 20
528.457443
 42
-0.076483
  0
VERTEX
  8
0
 10
541.616891
 20
528.326026
 42
-0.080324
  0
VERTEX
  8
0
 10
537.826909
 20
529.416653
 42
-0.064855
  0
VERTEX
  8
0
 10
533.961399
 20
531.894481
 42
-0.031095
  0
VERTEX
  8
0
 10
529.688571
 20
535.969664
 42
-0.060546
  0
VERTEX
  8
0
 10
520.762358
 20
548.316787
 42
-0.044707
  0
VERTEX
  8
0
 10
513.947148
 20
563.757694
 42
-0.040309
  0
VERTEX
  8
0
 10
509.413541
 20
581.834528
 42
-0.031045
  0
VERTEX
  8
0
 10
507.320145
 20
602.070250
 42
-0.021506
  0
VERTEX
  8
0
 10
507.356582
 20
620.365202
 42
-0.026547
  0
VERTEX
  8
0
 10
509.026226
 20
637.333909
 42
-0.029017
  0
VERTEX
  8
0
 10
512.252866
 20
652.533492
 42
-0.041337
  0
VERTEX
  8
0
 10
516.980966
 20
665.493285
 42
-0.025859
  0
VERTEX
  8
0
 10
521.995370
 20
675.028083
 42
-0.045309
  0
VERTEX
  8
0
 10
527.219014
 20
682.246588
 42
-0.054932
  0
VERTEX
  8
0
 10
532.800027
 20
687.384331
 42
-0.072903
  0
VERTEX
  8
0
 10
538.885071
 20
690.620380
 42
-0.006461
  0
VERTEX
  8
0
 10
541.818421
 20
691.626093
 42
-0.069138
  0
VERTEX
  8
0
 10
543.054162
 20
691.850087
 42
-0.071125
  0
VERTEX
  8
0
 10
544.292808
 20
691.724866
 42
-0.007037
  0
SEQEND
  0
POLYLINE
  8
0
 66
1
 70
1
  0
VERTEX
  8
0
 10
605.634170
 20
674.081401
 42
-0.052488
  0
VERTEX
  8
0
 10
608.342394
 20
672.012097
 42
-0.032969
  0
VERTEX
  8
0
 10
611.053819
 20
669.087246
 42
-0.032707
  0
VERTEX
  8
0
 10
613.391703
 20
665.786346
 42
-0.046918
  0
VERTEX
  8
0
 10
614.972685
 20
662.571843
 42
-0.056199
  0
VERTEX
  8
0
 10
615.439469
 20
660.751678
 42
-0.140131
  0
VERTEX
  8
0
 10
615.249979
 20
659.403990
 42
-0.078298
  0
VERTEX
  8
0
 10
614.279262
 20
657.904149
 42
-0.009913
  0
VERTEX
  8
0
 10
611.642105
 20
655.076278
 42
0.055324
  0
VERTEX
  8
0
 10
606.578228
 20
648.548901
 42
0.047414
  0
VERTEX
  8
0
 10
602.757980
 20
640.730629
 42
0.039040
  0
VERTEX
  8
0
 10
599.935537
 20
630.978231
 42
0.020492
  0
VERTEX
  8
0
 10
597.889127
 20
618.511114
 42
0.029871
  0
VERTEX
  8
0
 10
597.409805
 20
610.788985
 42
0.019678
  0
VERTEX
  8
0
 10
597.739850
 20
601.892898
 42
0.019344
  0
VERTEX
  8
0
 10
598.790186
 20
592.809172
 42
0.024219
  0
VERTEX
  8
0
 10
600.493820
 20
584.500000
 42
0.031782
  0
VERTEX
  8
0
 10
602.645162
 20
577.879722
 42
0.024122
  0
VERTEX
  8
0
 10
605.800028
 20
570.926969
 42
0.024190
  0
VERTEX
  8
0
 10
609.308338
 20
564.836072
 42
0.069942
  0
VERTEX
  8
0
 10
612.476101
 20
561.155128
 42
0.000000
  0
VERTEX
  8
0
 10
615.940091
 20
558.113704
 42
0.000000
  0
VERTEX
  8
0
 10
613.220045
 20
552.914443
 42
-0.095703
  0
VERTEX
  8
0
 10
606.541990
 20
544.534062
 42
-0.179355
  0
VERTEX
  8
0
 10
598.516085
 20
541.584287
 42
-0.164199
  0
VERTEX
  8
0
 10
589.976496
 20
544.492368
 42
-0.078146
  0
VERTEX
  8
0
 10
581.872523
 20
553.000000
 42
-0.095415
  0
VERTEX
  8
0
 10
571.025439
 20
577.627894
 42
-0.055785
  0
VERTEX
  8
0
 10
567.372113
 20
609.772504
 42
-0.056113
  0
VERTEX
  8
0
 10
570.901108
 20
641.609172
 42
-0.103043
  0
VERTEX
  8
0
 10
581.680248
 20
665.245547
 42
-0.059367
  0
VERTEX
  8
0
 10
587.334532
 20
671.292895
 42
-0.086968
  0
VERTEX
  8
0
 10
593.616970
 20
674.947627
 42
-0.103735
  0
VERTEX
  8
0
 10
599.907642
 20
675.876850
 42
-0.122481
  0
SEQEND
  0
POLYLINE
  8
0
 66
1
 70
1
  0
VERTEX
  8
0
 10
655.930544
 20
659.535917
 42
-0.059556
  0
VERTEX
  8
0
 10
658.317060
 20
657.916416
 42
-0.026052
  0
VERTEX
  8
0
 10
661.074285
 20
655.257301
 42
-0.021450
  0
VERTEX
  8
0
 10
663.452646
 20
652.481969
 42
-0.167961
  0
VERTEX
  8
0
 10
664.000000
 20
650.898524
 42
-0.180322
  0
VERTEX
  8
0
 10
663.841382
 20
650.473006
 42
-0.048210
  0
VERTEX
  8
0
 10
663.309183
 20
649.966333
 42
-0.042416
  0
VERTEX
  8
0
 10
662.548527
 20
649.468293
 42
-0.032913
  0
VERTEX
  8
0
 10
661.648284
 20
649.056378
 42
0.068598
  0
VERTEX
  8
0
 10
660.530684
 20
648.445392
 42
0.021995
  0
VERTEX
  8
0
 10
659.057876
 20
647.251305
 42
0.021479
  0
VERTEX
  8
0
 10
657.516455
 20
645.762016
 42
0.022452
  0
VERTEX
  8
0
 10
656.132284
 20
644.167022
 42
0.084546
  0
VERTEX
  8
0
 10
648.806524
 20
630.794248
 42
0.061121
  0
VERTEX
  8
0
 10
645.250321
 20
614.140608
 42
0.060244
  0
VERTEX
  8
0
 10
645.804830
 20
596.847084
 42
0.075880
  0
VERTEX
  8
0
 10
650.592170
 20
581.580200
 42
0.034657
  0
VERTEX
  8
0
 10
653.011339
 20
577.399958
 42
0.024762
  0
VERTEX
  8
0
 10
656.255095
 20
573.074235
 42
0.024806
  0
VERTEX
  8
0
 10
659.661028
 20
569.363067
 42
0.068186
  0
VERTEX
  8
0
 10
662.500000
 20
567.238291
 42
-0.063116
  0
VERTEX
  8
0
 10
663.548505
 20
566.469947
 42
-0.286373
  0
VERTEX
  8
0
 10
663.730833
 20
565.769104
 42
-0.107550
  0
VERTEX
  8
0
 10
663.185053
 20
564.810509
 42
-0.006989
  0
VERTEX
  8
0
 10
661.000000
 20
562.445346
 42
-0.064567
  0
VERTEX
  8
0
 10
655.654666
 20
558.104833
 42
-0.124096
  0
VERTEX
  8
0
 10
650.424776
 20
556.451775
 42
-0.126887
  0
VERTEX
  8
0
 10
645.116536
 20
557.490346
 42
-0.069148
  0
VERTEX
  8
0
 10
639.540588
 20
561.173188
 42
-0.058621
  0
VERTEX
  8
0
 10
635.799641
 20
565.337437
 42
-0.029897
  0
VERTEX
  8
0
 10
632.088903
 20
571.322184
 42
-0.028265
  0
VERTEX
  8
0
 10
628.819963
 20
578.288802
 42
-0.029268
  0
VERTEX
  8
0
 10
626.400639
 20
585.500000
 42
-0.046080
  0
VERTEX
  8
0
 10
624.912733
 20
594.010631
 42
-0.014312
  0
VERTEX
  8
0
 10
624.232383
 20
606.991912
 42
-0.014417
  0
VERTEX
  8
0
 10
624.298787
 20
620.032121
 42
-0.043761
  0
VERTEX
  8
0
 10
625.371829
 20
628.828249
 42
-0.055443
  0
VERTEX
  8
0
 10
630.350324
 20
643.870046
 42
-0.088371
  0
VERTEX
  8
0
 10
638.053755
 20
654.970183
 42
-0.124680
  0
VERTEX
  8
0
 10
647.053711
 20
660.361966
 42
-0.194633
  0
SEQEND
  0
POLYLINE
  8
0
 66
1
 70
1
  0
VERTEX
  8
0
 10
682.694236
 20
637.531601
 42
0.000000
  0
VERTEX
  8
0
 10
685.500000
 20
635.063202
 42
0.000000
  0
VERTEX
  8
0
 10
682.150000
 20
635.031601
 42
0.241666
  0
VERTEX
  8
0
 10
674.788413
 20
631.164653
 42
0.088531
  0
VERTEX
  8
0
 10
669.671110
 20
620.189182
 42
0.074772
  0
VERTEX
  8
0
 10
668.105384
 20
606.066761
 42
0.092111
  0
VERTEX
  8
0
 10
671.025859
 20
593.161528
 42
0.043771
  0
VERTEX
  8
0
 10
673.088736
 20
589.328645
 42
0.047620
  0
VERTEX
  8
0
 10
675.737474
 20
586.028935
 42
0.053109
  0
VERTEX
  8
0
 10
678.511434
 20
583.724927
 42
0.147812
  0
VERTEX
  8
0
 10
680.910059
 20
583.000000
 42
-0.056421
  0
VERTEX
  8
0
 10
682.697701
 20
582.797633
 42
-0.319210
  0
VERTEX
  8
0
 10
683.300033
 20
582.121012
 42
-0.239526
  0
VERTEX
  8
0
 10
682.926211
 20
581.130239
 42
-0.039234
  0
VERTEX
  8
0
 10
681.258059
 20
579.831864
 42
-0.144828
  0
VERTEX
  8
0
 10
675.647373
 20
578.125103
 42
-0.137248
  0
VERTEX
  8
0
 10
669.878176
 20
579.691650
 42
-0.101079
  0
VERTEX
  8
0
 10
664.436086
 20
584.654860
 42
-0.053411
  0
VERTEX
  8
0
 10
659.851052
 20
592.603816
 42
-0.063046
  0
VERTEX
  8
0
 10
658.099981
 20
598.460091
 42
-0.027762
  0
VERTEX
  8
0
 10
657.217875
 20
606.512535
 42
-0.027816
  0
VERTEX
  8
0
 10
657.234400
 20
614.700079
 42
-0.056569
  0
VERTEX
  8
0
 10
658.325786
 20
621.033184
 42
-0.067138
  0
VERTEX
  8
0
 10
662.757095
 20
631.016464
 42
-0.106354
  0
VERTEX
  8
0
 10
669.204992
 20
637.749965
 42
-0.148747
  0
VERTEX
  8
0
 10
676.276943
 20
639.936197
 42
-0.183523
  0
SEQEND
  0
POLYLINE
  8
0
 66
1
 70
1
  0
VERTEX
  8
0
 10
873.299783
 20
635.670203
 42
-0.096814
  0
VERTEX
  8
0
 10
880.996947
 20
628.876705
 42
-0.089198
  0
VERTEX
  8
0
 10
885.842285
 20
619.494872
 42
-0.089980
  0
VERTEX
  8
0
 10
887.090177
 20
609.086818
 42
-0.100879
  0
VERTEX
  8
0
 10
884.487255
 20
599.350266
 42
-0.058030
  0
VERTEX
  8
0
 10
879.811646
 20
592.186188
 42
-0.074433
  0
VERTEX
  8
0
 10
873.942428
 20
586.954381
 42
-0.076923
  0
VERTEX
  8
0
 10
866.962967
 20
583.787964
 42
-0.067456
  0
VERTEX
  8
0
 10
859.025253
 20
582.688337
 42
-0.059411
  0
VERTEX
  8
0
 10
851.906476
 20
583.515913
 42
-0.072689
  0
VERTEX
  8
0
 10
845.689397
 20
585.995760
 42
-0.067654
  0
VERTEX
  8
0
 10
840.113036
 20
590.321487
 42
-0.043350
  0
VERTEX
  8
0
 10
834.893278
 20
596.655115
 42
0.000000
  0
VERTEX
  8
0
 10
831.903919
 20
601.000000
 42
0.000000
  0
VERTEX
  8
0
 10
758.975012
 20
601.000000
 42
0.000000
  0
VERTEX
  8
0
 10
686.046106
 20
601.000000
 42
0.000000
  0
VERTEX
  8
0
 10
684.477347
 20
603.394229
 42
-0.063227
  0
VERTEX
  8
0
 10
682.977677
 20
606.469261
 42
-0.071070
  0
VERTEX
  8
0
 10
682.370950
 20
609.701245
 42
-0.073885
  0
VERTEX
  8
0
 10
682.700830
 20
612.866719
 42
-0.077070
  0
VERTEX
  8
0
 10
683.937489
 20
615.750000
 42
0.000000
  0
VERTEX
  8
0
 10
685.970603
 20
619.000000
 42
0.000000
  0
VERTEX
  8
0
 10
758.800089
 20
619.000000
 42
0.000000
  0
VERTEX
  8
0
 10
831.629575
 20
619.000000
 42
0.000000
  0
VERTEX
  8
0
 10
833.243058
 20
622.383508
 42
-0.056668
  0
VERTEX
  8
0
 10
836.406356
 20
627.449458
 42
-0.050344
  0
VERTEX
  8
0
 10
840.741899
 20
631.902737
 42
-0.048765
  0
VERTEX
  8
0
 10
846.026473
 20
635.523822
 42
-0.046379
  0
VERTEX
  8
0
 10
852.000000
 20
638.124297
 42
-0.054301
  0
VERTEX
  8
0
 10
853.408783
 20
638.423688
 42
-0.012119
  0
VERTEX
  8
0
 10
855.864261
 20
638.612318
 42
-0.012443
  0
VERTEX
  8
0
 10
858.725783
 20
638.691168
 42
-0.011734
  0
VERTEX
  8
0
 10
861.644293
 20
638.630441
 42
-0.016255
  0
VERTEX
  8
0
 10
865.388670
 20
638.342381
 42
-0.034872
  0
VERTEX
  8
0
 10
868.237541
 20
637.826905
 42
-0.040177
  0
VERTEX
  8
0
 10
870.722628
 20
636.978391
 42
-0.030196
  0
SEQEND
  0
POLYLINE
  8
0
 66
1
 70
1
  0
VERTEX
  8
0
 10
318.155998
 20
575.024696
 42
0.000000
  0
VERTEX
  8
0
 10
408.811996
 20
575.000000
 42
0.000000
  0
VERTEX
  8
0
 10
410.405998
 20
570.321861
 42
-0.003470
  0
VERTEX
  8
0
 10
411.016677
 20
568.488021
 42
-0.004941
  0
VERTEX
  8
0
 10
411.531721
 20
566.849941
 42
-0.002832
  0
VERTEX
  8
0
 10
411.943999
 20
565.463752
 42
-0.071036
  0
VERTEX
  8
0
 10
411.999860
 20
565.071861
 42
-0.412793
  0
VERTEX
  8
0
 10
411.765422
 20
564.836397
 42
-0.000020
  0
VERTEX
  8
0
 10
374.895904
 20
564.667984
 42
-0.000708
  0
VERTEX
  8
0
 10
334.122786
 20
564.541093
 42
-0.000424
  0
VERTEX
  8
0
 10
285.688716
 20
564.500000
 42
0.000000
  0
VERTEX
  8
0
 10
159.377711
 20
564.500000
 42
0.000000
  0
VERTEX
  8
0
 10
151.188855
 20
569.876075
 42
-0.003932
  0
VERTEX
  8
0
 10
148.049680
 20
571.972487
 42
-0.006285
  0
VERTEX
  8
0
 10
145.405476
 20
573.817565
 42
-0.001881
  0
VERTEX
  8
0
 10
143.152384
 20
575.445087
 42
-0.239811
  0
VERTEX
  8
0
 10
143.000000
 20
575.744531
 42
-0.414760
  0
VERTEX
  8
0
 10
143.199731
 20
575.943891
 42
-0.000134
  0
VERTEX
  8
0
 10
155.410937
 20
575.917858
 42
-0.001821
  0
VERTEX
  8
0
 10
169.049194
 20
575.835449
 42
-0.001092
  0
VERTEX
  8
0
 10
185.250000
 20
575.643152
 42
0.001823
  0
VERTEX
  8
0
 10
207.443949
 20
575.412174
 42
0.000527
  0
VERTEX
  8
0
 10
241.719262
 20
575.216555
 42
0.000530
  0
VERTEX
  8
0
 10
280.349157
 20
575.077739
 42
0.000565
  0
SEQEND
  0
POLYLINE
  8
0
 66
1
 70
1
  0
VERTEX
  8
0
 10
398.429262
 20
548.425413
 42
0.000000
  0
VERTEX
  8
0
 10
420.866776
 20
547.710755
 42
0.000000
  0
VERTEX
  8
0
 10
424.683388
 20
542.151349
 42
0.018541
  0
VERTEX
  8
0
 10
426.617464
 20
539.546595
 42
0.008219
  0
VERTEX
  8
0
 10
429.350665
 20
536.249849
 42
0.008122
  0
VERTEX
  8
0
 10
432.363119
 20
532.848877
 42
0.010852
  0
VERTEX
  8
0
 10
435.212493
 20
529.867961
 42
0.000000
  0
VERTEX
  8
0
 10
441.924986
 20
523.143979
 42
0.000000
  0
VERTEX
  8
0
 10
421.212493
 20
522.821990
 42
0.002177
  0
VERTEX
  8
0
 10
407.919784
 20
522.557439
 42
0.023031
  0
VERTEX
  8
0
 10
402.509001
 20
522.176388
 42
0.050930
  0
VERTEX
  8
0
 10
398.854622
 20
521.366349
 42
0.034161
  0
VERTEX
  8
0
 10
394.890518
 20
519.745200
 42
0.073824
  0
VERTEX
  8
0
 10
386.563178
 20
514.000586
 42
0.063600
  0
VERTEX
  8
0
 10
379.769358
 20
505.810878
 42
0.033637
  0
VERTEX
  8
0
 10
372.327526
 20
492.131094
 42
0.005982
  0
VERTEX
  8
0
 10
360.466286
 20
465.500000
 42
-0.000270
  0
VERTEX
  8
0
 10
350.397034
 20
442.179071
 42
-0.000342
  0
VERTEX
  8
0
 10
341.069436
 20
420.648240
 42
-0.000342
  0
VERTEX
  8
0
 10
331.711850
 20
399.128898
 42
-0.000269
  0
VERTEX
  8
0
 10
321.552044
 20
375.842607
 42
0.000000
  0
VERTEX
  8
0
 10
307.719615
 20
344.185214
 42
0.000000
  0
VERTEX
  8
0
 10
295.323337
 20
343.470224
 42
-0.014664
  0
VERTEX
  8
0
 10
279.241316
 20
343.015184
 42
-0.001773
  0
VERTEX
  8
0
 10
243.835880
 20
343.177549
 42
-0.000217
  0
VERTEX
  8
0
 10
204.128456
 20
343.517746
 42
-0.196574
  0
VERTEX
  8
0
 10
202.441065
 20
344.225601
 42
-0.260872
  0
VERTEX
  8
0
 10
202.299328
 20
344.727898
 42
-0.015364
  0
VERTEX
  8
0
 10
202.731375
 20
346.313227
 42
-0.020012
  0
VERTEX
  8
0
 10
203.409558
 20
348.250040
 42
-0.013127
  0
VERTEX
  8
0
 10
204.336949
 20
350.424816
 42
0.000000
  0
VERTEX
  8
0
 10
206.879150
 20
355.977714
 42
0.000000
  0
VERTEX
  8
0
 10
248.018023
 20
356.238857
 42
0.000000
  0
VERTEX
  8
0
 10
289.156896
 20
356.500000
 42
0.000000
  0
VERTEX
  8
0
 10
292.078448
 20
363.348962
 42
0.001974
  0
VERTEX
  8
0
 10
293.198224
 20
366.003027
 42
0.003059
  0
VERTEX
  8
0
 10
294.141794
 20
368.303846
 42
0.000947
  0
VERTEX
  8
0
 10
294.943366
 20
370.303910
 42
0.095105
  0
VERTEX
  8
0
 10
295.000000
 20
370.598962
 42
0.411235
  0
VERTEX
  8
0
 10
294.836887
 20
370.763744
 42
0.000095
  0
VERTEX
  8
0
 10
282.982450
 20
370.882195
 42
0.001532
  0
VERTEX
  8
0
 10
269.776464
 20
370.971182
 42
0.000919
  0
VERTEX
  8
0
 10
254.089191
 20
371.000000
 42
0.000000
  0
VERTEX
  8
0
 10
213.178382
 20
371.000000
 42
0.000000
  0
VERTEX
  8
0
 10
215.757297
 20
377.500000
 42
0.000000
  0
VERTEX
  8
0
 10
218.336213
 20
384.000000
 42
0.000000
  0
VERTEX
  8
0
 10
259.045662
 20
384.000000
 42
0.001331
  0
VERTEX
  8
0
 10
279.533522
 20
384.054538
 42
0.006166
  0
VERTEX
  8
0
 10
291.373709
 20
384.263597
 42
0.004002
  0
VERTEX
  8
0
 10
299.410994
 20
384.569082
 42
0.220417
  0
VERTEX
  8
0
 10
300.719266
 20
385.250000
 42
0.044823
  0
VERTEX
  8
0
 10
301.198521
 20
386.001961
 42
0.008565
  0
VERTEX
  8
0
 10
301.919555
 20
387.454687
 42
0.009070
  0
VERTEX
  8
0
 10
302.703821
 20
389.185527
 42
0.008234
  0
VERTEX
  8
0
 10
303.451435
 20
391.000000
 42
-0.000108
  0
VERTEX
  8
0
 10
304.164797
 20
392.814522
 42
-0.000124
  0
VERTEX
  8
0
 10
304.846166
 20
394.545313
 42
-0.000111
  0
VERTEX
  8
0
 10
305.424385
 20
396.012063
 42
-0.000721
  0
VERTEX
  8
0
 10
305.716713
 20
396.750000
 42
0.513587
  0
VERTEX
  8
0
 10
305.270177
 20
397.446201
 42
0.004787
  0
VERTEX
  8
0
 10
298.157019
 20
397.745178
 42
0.006846
  0
VERTEX
  8
0
 10
287.266736
 20
397.949301
 42
0.001263
  0
VERTEX
  8
0
 10
267.188776
 20
398.000000
 42
-0.001359
  0
VERTEX
  8
0
 10
252.123002
 20
398.040940
 42
-0.002142
  0
VERTEX
  8
0
 10
239.193077
 20
398.166599
 42
-0.000512
  0
VERTEX
  8
0
 10
227.876154
 20
398.336664
 42
-0.087814
  0
VERTEX
  8
0
 10
226.685616
 20
398.567146
 42
-0.203655
  0
VERTEX
  8
0
 10
226.071275
 20
399.160737
 42
-0.142375
  0
VERTEX
  8
0
 10
225.956524
 20
400.129426
 42
-0.052809
  0
VERTEX
  8
0
 10
226.422696
 20
401.810825
 42
-0.007842
  0
VERTEX
  8
0
 10
227.767552
 20
405.067146
 42
0.000000
  0
VERTEX
  8
0
 10
230.327446
 20
411.000000
 42
0.000000
  0
VERTEX
  8
0
 10
271.218752
 20
411.000000
 42
0.000000
  0
VERTEX
  8
0
 10
312.110058
 20
411.000000
 42
0.000000
  0
VERTEX
  8
0
 10
314.419589
 20
416.250000
 42
0.004056
  0
VERTEX
  8
0
 10
315.355057
 20
418.424173
 42
0.004043
  0
VERTEX
  8
0
 10
316.256100
 20
420.615439
 42
0.003961
  0
VERTEX
  8
0
 10
317.012532
 20
422.542151
 42
0.015864
  0
VERTEX
  8
0
 10
317.428371
 20
423.738729
 42
0.000000
  0
VERTEX
  8
0
 10
318.127621
 20
425.977458
 42
0.000000
  0
VERTEX
  8
0
 10
277.565331
 20
426.238729
 42
0.000000
  0
VERTEX
  8
0
 10
237.003041
 20
426.500000
 42
0.000000
  0
VERTEX
  8
0
 10
239.959057
 20
432.750000
 42
0.000000
  0
VERTEX
  8
0
 10
242.915074
 20
439.000000
 42
0.000000
  0
VERTEX
  8
0
 10
283.493074
 20
439.000000
 42
0.000000
  0
VERTEX
  8
0
 10
324.071075
 20
439.000000
 42
0.000000
  0
VERTEX
  8
0
 10
326.039774
 20
443.592788
 42
0.006893
  0
VERTEX
  8
0
 10
326.837793
 20
445.527724
 42
0.006291
  0
VERTEX
  8
0
 10
327.607643
 20
447.543564
 42
0.006304
  0
VERTEX
  8
0
 10
328.250069
 20
449.361880
 42
0.020280
  0
VERTEX
  8
0
 10
328.612644
 20
450.592788
 42
0.000000
  0
VERTEX
  8
0
 10
329.216816
 20
453.000000
 42
0.000000
  0
VERTEX
  8
0
 10
289.108408
 20
453.000000
 42
-0.001014
  0
VERTEX
  8
0
 10
273.728819
 20
453.031193
 42
-0.001691
  0
VERTEX
  8
0
 10
260.781845
 20
453.127513
 42
-0.000115
  0
VERTEX
  8
0
 10
249.176289
 20
453.255797
 42
-0.410912
  0
VERTEX
  8
0
 10
249.000000
 20
453.434086
 42
-0.095044
  0
VERTEX
  8
0
 10
249.060204
 20
453.747943
 42
-0.001373
  0
VERTEX
  8
0
 10
249.771356
 20
455.519258
 42
-0.003726
  0
VERTEX
  8
0
 10
250.619525
 20
457.571072
 42
-0.002443
  0
VERTEX
  8
0
 10
251.625894
 20
459.922975
 42
0.000000
  0
VERTEX
  8
0
 10
254.251787
 20
465.977777
 42
0.000000
  0
VERTEX
  8
0
 10
294.861262
 20
466.238889
 42
0.000000
  0
VERTEX
  8
0
 10
335.470737
 20
466.500000
 42
0.000000
  0
VERTEX
  8
0
 10
337.705844
 20
471.208273
 42
0.008633
  0
VERTEX
  8
0
 10
338.608328
 20
473.197295
 42
0.007848
  0
VERTEX
  8
0
 10
339.471781
 20
475.280124
 42
0.007880
  0
VERTEX
  8
0
 10
340.185350
 20
477.167085
 42
0.024973
  0
VERTEX
  8
0
 10
340.578883
 20
478.458273
 42
0.000000
  0
VERTEX
  8
0
 10
341.216816
 20
481.000000
 42
0.000000
  0
VERTEX
  8
0
 10
300.525075
 20
481.000000
 42
-0.001728
  0
VERTEX
  8
0
 10
284.945951
 20
481.053835
 42
-0.002920
  0
VERTEX
  8
0
 10
271.890724
 20
481.220312
 42
-0.000380
  0
VERTEX
  8
0
 10
260.378068
 20
481.443122
 42
-0.543852
  0
VERTEX
  8
0
 10
260.188029
 20
481.750000
 42
-0.006443
  0
VERTEX
  8
0
 10
260.438858
 20
482.263157
 42
-0.000308
  0
VERTEX
  8
0
 10
261.301264
 20
483.968750
 42
-0.000504
  0
VERTEX
  8
0
 10
262.328782
 20
485.992716
 42
-0.000363
  0
VERTEX
  8
0
 10
263.479680
 20
488.250000
 42
0.000000
  0
VERTEX
  8
0
 10
266.416636
 20
494.000000
 42
0.000000
  0
VERTEX
  8
0
 10
306.773386
 20
494.000000
 42
0.000000
  0
VERTEX
  8
0
 10
347.130136
 20
494.000000
 42
0.000000
  0
VERTEX
  8
0
 10
350.565068
 20
501.434460
 42
0.002976
  0
VERTEX
  8
0
 10
351.881411
 20
504.328636
 42
0.004484
  0
VERTEX
  8
0
 10
352.990989
 20
506.868077
 42
0.001870
  0
VERTEX
  8
0
 10
353.911368
 20
509.049645
 42
0.099197
  0
VERTEX
  8
0
 10
354.000000
 20
509.492000
 42
0.411869
  0
VERTEX
  8
0
 10
353.748224
 20
509.745801
 42
0.000200
  0
VERTEX
  8
0
 10
341.148438
 20
509.841711
 42
0.002226
  0
VERTEX
  8
0
 10
327.025962
 20
509.880693
 42
0.001334
  0
VERTEX
  8
0
 10
310.250000
 20
509.807540
 42
0.001538
  0
VERTEX
  8
0
 10
277.882454
 20
509.480454
 42
0.029958
  0
VERTEX
  8
0
 10
267.910833
 20
508.750435
 42
0.099604
  0
VERTEX
  8
0
 10
262.280914
 20
506.812408
 42
0.080216
  0
VERTEX
  8
0
 10
257.335489
 20
502.729319
 42
0.058801
  0
VERTEX
  8
0
 10
254.647217
 20
498.825631
 42
0.015260
  0
VERTEX
  8
0
 10
251.288321
 20
491.961493
 42
0.005297
  0
VERTEX
  8
0
 10
245.553564
 20
478.908995
 42
0.000328
  0
VERTEX
  8
0
 10
228.978139
 20
440.000000
 42
-0.000563
  0
VERTEX
  8
0
 10
221.292286
 20
421.981764
 42
-0.000370
  0
VERTEX
  8
0
 10
212.408547
 20
401.262500
 42
-0.000372
  0
VERTEX
  8
0
 10
203.733479
 20
381.112604
 42
-0.000719
  0
VERTEX
  8
0
 10
196.754839
 20
365.000000
 42
0.000981
  0
VERTEX
  8
0
 10
185.691255
 20
339.419184
 42
0.006841
  0
VERTEX
  8
0
 10
180.481192
 20
326.835952
 42
0.011406
  0
VERTEX
  8
0
 10
177.643980
 20
319.207293
 42
0.083506
  0
VERTEX
  8
0
 10
177.000000
 20
315.378300
 42
0.076661
  0
VERTEX
  8
0
 10
177.513841
 20
312.046614
 42
0.062513
  0
VERTEX
  8
0
 10
179.022849
 20
308.764178
 42
0.062166
  0
VERTEX
  8
0
 10
181.307170
 20
305.939040
 42
0.073868
  0
VERTEX
  8
0
 10
184.097773
 20
303.950120
 42
0.089482
  0
VERTEX
  8
0
 10
187.934896
 20
302.791460
 42
0.019970
  0
VERTEX
  8
0
 10
194.787329
 20
302.277732
 42
0.008064
  0
VERTEX
  8
0
 10
207.286629
 20
302.043124
 42
0.000660
  0
VERTEX
  8
0
 10
239.960162
 20
302.000000
 42
0.000000
  0
VERTEX
  8
0
 10
292.000000
 20
302.000000
 42
0.000000
  0
VERTEX
  8
0
 10
292.000000
 20
295.545489
 42
0.073283
  0
VERTEX
  8
0
 10
293.611141
 20
284.611995
 42
0.062445
  0
VERTEX
  8
0
 10
298.340281
 20
273.946012
 42
0.059243
  0
VERTEX
  8
0
 10
305.849579
 20
264.278706
 42
0.053916
  0
VERTEX
  8
0
 10
315.640802
 20
256.290994
 42
-0.738006
  0
VERTEX
  8
0
 10
315.449401
 20
255.618647
 42
-0.002083
  0
VERTEX
  8
0
 10
301.602147
 20
255.373112
 42
-0.003447
  0
VERTEX
  8
0
 10
280.617987
 20
255.233146
 42
-0.000635
  0
VERTEX
  8
0
 10
241.923440
 20
255.290994
 42
0.000000
  0
VERTEX
  8
0
 10
166.346880
 20
255.500000
 42
0.000000
  0
VERTEX
  8
0
 10
157.844053
 20
259.713896
 42
-0.035154
  0
VERTEX
  8
0
 10
150.687532
 20
263.910769
 42
-0.048631
  0
VERTEX
  8
0
 10
144.988420
 20
268.690184
 42
-0.048473
  0
VERTEX
  8
0
 10
140.306429
 20
274.493166
 42
-0.034616
  0
VERTEX
  8
0
 10
136.209119
 20
281.770017
 42
-0.014155
  0
VERTEX
  8
0
 10
134.136273
 20
286.470859
 42
-0.040850
  0
VERTEX
  8
0
 10
133.066813
 20
289.863813
 42
-0.036965
  0
VERTEX
  8
0
 10
132.507919
 20
293.566980
 42
-0.009973
  0
VERTEX
  8
0
 10
132.175612
 20
299.500000
 42
-0.025936
  0
VERTEX
  8
0
 10
132.317022
 20
308.418763
 42
-0.039099
  0
VERTEX
  8
0
 10
133.446293
 20
316.105260
 42
-0.034849
  0
VERTEX
  8
0
 10
135.874623
 20
324.134206
 42
-0.015946
  0
VERTEX
  8
0
 10
140.091836
 20
334.242223
 42
0.000058
  0
VERTEX
  8
0
 10
142.219928
 20
338.919024
 42
0.000056
  0
VERTEX
  8
0
 10
144.376726
 20
343.661778
 42
0.000055
  0
VERTEX
  8
0
 10
146.278293
 20
347.845747
 42
0.000202
  0
VERTEX
  8
0
 10
147.482976
 20
350.500000
 42
-0.000164
  0
VERTEX
  8
0
 10
152.696649
 20
361.989485
 42
-0.000334
  0
VERTEX
  8
0
 10
156.798461
 20
371.004872
 42
-0.000419
  0
VERTEX
  8
0
 10
160.043760
 20
378.109327
 42
-0.000938
  0
VERTEX
  8
0
 10
162.523905
 20
383.500000
 42
0.001214
  0
VERTEX
  8
0
 10
164.064449
 20
386.853306
 42
0.000556
  0
VERTEX
  8
0
 10
166.058400
 20
391.234375
 42
0.000551
  0
VERTEX
  8
0
 10
168.147330
 20
395.851224
 42
0.000761
  0
VERTEX
  8
0
 10
170.011376
 20
400.000000
 42
-0.001514
  0
VERTEX
  8
0
 10
174.031330
 20
408.911226
 42
-0.000496
  0
VERTEX
  8
0
 10
180.007710
 20
422.018553
 42
-0.000346
  0
VERTEX
  8
0
 10
188.524961
 20
440.615477
 42
-0.000108
  0
VERTEX
  8
0
 10
201.326516
 20
468.500000
 42
0.003367
  0
VERTEX
  8
0
 10
205.459132
 20
477.658707
 42
0.004305
  0
VERTEX
  8
0
 10
209.136257
 20
486.153282
 42
0.003357
  0
VERTEX
  8
0
 10
212.106547
 20
493.314012
 42
0.036106
  0
VERTEX
  8
0
 10
213.076727
 20
496.298407
 42
0.096785
  0
VERTEX
  8
0
 10
213.725424
 20
509.483385
 42
0.084356
  0
VERTEX
  8
0
 10
209.476098
 20
522.652721
 42
0.077860
  0
VERTEX
  8
0
 10
200.696880
 20
534.547099
 42
0.065755
  0
VERTEX
  8
0
 10
188.216405
 20
544.000000
 42
-0.006642
  0
VERTEX
  8
0
 10
185.854427
 20
545.384539
 42
-0.010326
  0
VERTEX
  8
0
 10
183.859340
 20
546.646863
 42
-0.004900
  0
VERTEX
  8
0
 10
182.218822
 20
547.756195
 42
-0.233230
  0
VERTEX
  8
0
 10
182.029739
 20
548.095703
 42
-0.428423
  0
VERTEX
  8
0
 10
182.650827
 20
548.749627
 42
-0.000022
  0
VERTEX
  8
0
 10
280.365125
 20
548.902874
 42
-0.000565
  0
VERTEX
  8
0
 10
367.020432
 20
548.937037
 42
-0.007776
  0
SEQEND
  0
POLYLINE
  8
0
 66
1
 70
1
  0
VERTEX
  8
0
 10
415.576860
 20
503.250000
 42
0.032039
  0
VERTEX
  8
0
 10
414.686253
 20
498.068366
 42
0.019711
  0
VERTEX
  8
0
 10
414.273257
 20
491.889593
 42
0.018966
  0
VERTEX
  8
0
 10
414.334884
 20
486.076675
 42
0.065871
  0
VERTEX
  8
0
 10
415.006621
 20
482.386870
 42
0.051857
  0
VERTEX
  8
0
 10
417.213158
 20
477.382145
 42
0.023726
  0
VERTEX
  8
0
 10
421.047439
 20
471.351378
 42
0.023230
  0
VERTEX
  8
0
 10
425.323478
 20
465.844187
 42
0.069996
  0
VERTEX
  8
0
 10
428.876297
 20
462.700561
 42
0.061750
  0
VERTEX
  8
0
 10
436.432142
 20
458.945147
 42
0.066720
  0
VERTEX
  8
0
 10
444.480258
 20
457.274493
 42
0.067284
  0
VERTEX
  8
0
 10
452.625435
 20
457.787765
 42
0.064518
  0
VERTEX
  8
0
 10
460.467052
 20
460.440078
 42
0.076664
  0
VERTEX
  8
0
 10
467.845727
 20
465.575705
 42
0.065509
  0
VERTEX
  8
0
 10
473.800186
 20
472.955740
 42
0.065102
  0
VERTEX
  8
0
 10
477.673078
 20
481.674015
 42
0.073759
  0
VERTEX
  8
0
 10
478.956107
 20
490.728043
 42
0.017953
  0
VERTEX
  8
0
 10
478.833719
 20
493.613968
 42
0.014677
  0
VERTEX
  8
0
 10
478.501799
 20
496.685738
 42
0.014930
  0
VERTEX
  8
0
 10
478.028571
 20
499.495664
 42
0.037288
  0
VERTEX
  8
0
 10
477.471164
 20
501.500000
 42
0.000305
  0
VERTEX
  8
0
 10
476.917541
 20
503.033786
 42
0.000508
  0
VERTEX
  8
0
 10
476.449102
 20
504.325000
 42
0.000011
  0
VERTEX
  8
0
 10
476.023509
 20
505.494328
 42
0.315294
  0
VERTEX
  8
0
 10
476.015408
 20
505.500000
 42
0.000000
  0
VERTEX
  8
0
 10
479.393563
 20
505.500000
 42
0.000000
  0
VERTEX
  8
0
 10
487.536157
 20
505.500000
 42
0.000000
  0
VERTEX
  8
0
 10
499.071611
 20
505.500000
 42
0.000000
  0
VERTEX
  8
0
 10
500.535805
 20
500.568499
 42
-0.048452
  0
VERTEX
  8
0
 10
501.620878
 20
494.980350
 42
-0.025033
  0
VERTEX
  8
0
 10
501.940710
 20
487.862197
 42
-0.025010
  0
VERTEX
  8
0
 10
501.544885
 20
480.694021
 42
-0.045202
  0
VERTEX
  8
0
 10
500.403651
 20
474.931501
 42
-0.076746
  0
VERTEX
  8
0
 10
492.447652
 20
457.990037
 42
-0.080766
  0
VERTEX
  8
0
 10
479.863544
 20
444.574197
 42
-0.082041
  0
VERTEX
  8
0
 10
463.863124
 20
435.988712
 42
-0.082751
  0
VERTEX
  8
0
 10
446.000000
 20
433.039227
 42
-0.024451
  0
VERTEX
  8
0
 10
439.937198
 20
433.344924
 42
-0.035629
  0
VERTEX
  8
0
 10
434.665679
 20
434.252522
 42
-0.033300
  0
VERTEX
  8
0
 10
429.321340
 20
435.954452
 42
-0.018089
  0
VERTEX
  8
0
 10
423.000000
 20
438.709794
 42
-0.070621
  0
VERTEX
  8
0
 10
411.433815
 20
446.424391
 42
-0.065647
  0
VERTEX
  8
0
 10
402.139611
 20
457.227622
 42
-0.066787
  0
VERTEX
  8
0
 10
396.091566
 20
469.877878
 42
-0.078309
  0
VERTEX
  8
0
 10
394.023738
 20
483.000000
 42
-0.042963
  0
VERTEX
  8
0
 10
394.652634
 20
490.305565
 42
-0.048210
  0
VERTEX
  8
0
 10
396.521245
 20
497.107840
 42
-0.054295
  0
VERTEX
  8
0
 10
399.237607
 20
502.416916
 42
-0.152367
  0
VERTEX
  8
0
 10
402.429674
 20
505.035304
 42
-0.055104
  0
VERTEX
  8
0
 10
403.596361
 20
505.363830
 42
-0.012828
  0
VERTEX
  8
0
 10
405.615149
 20
505.645707
 42
-0.013081
  0
VERTEX
  8
0
 10
407.968749
 20
505.850785
 42
-0.012488
  0
VERTEX
  8
0
 10
410.366577
 20
505.936614
 42
0.000000
  0
VERTEX
  8
0
 10
416.233154
 20
506.000000
 42
0.000000
  0
SEQEND
  0
POLYLINE
  8
0
 66
1
 70
1
  0
VERTEX
  8
0
 10
298.116908
 20
322.750000
 42
0.000000
  0
VERTEX
  8
0
 10
295.326198
 20
316.500000
 42
0.000000
  0
VERTEX
  8
0
 10
242.713927
 20
316.241185
 42
0.000000
  0
VERTEX
  8
0
 10
190.101657
 20
315.982371
 42
0.000000
  0
VERTEX
  8
0
 10
192.003442
 20
321.510003
 42
-0.004002
  0
VERTEX
  8
0
 10
192.776059
 20
323.698555
 42
-0.005111
  0
VERTEX
  8
0
 10
193.524708
 20
325.702116
 42
-0.004011
  0
VERTEX
  8
0
 10
194.181948
 20
327.367725
 42
-0.042454
  0
VERTEX
  8
0
 10
194.511630
 20
328.018818
 42
-0.254367
  0
VERTEX
  8
0
 10
195.313956
 20
328.477191
 42
-0.000637
  0
VERTEX
  8
0
 10
208.840707
 20
328.742496
 42
-0.003245
  0
VERTEX
  8
0
 10
225.480961
 20
328.939647
 42
-0.001339
  0
VERTEX
  8
0
 10
248.012826
 20
329.000000
 42
0.000000
  0
VERTEX
  8
0
 10
300.907619
 20
329.000000
 42
0.000000
  0
SEQEND
  0
POLYLINE
  8
0
 66
1
 70
1
  0
VERTEX
  8
0
 10
244.000000
 20
656.723553
 42
0.119099
  0
VERTEX
  8
0
 10
240.973179
 20
654.116949
 42
0.120613
  0
VERTEX
  8
0
 10
239.488083
 20
650.427766
 42
0.119047
  0
VERTEX
  8
0
 10
239.866245
 20
646.431124
 42
0.114010
  0
VERTEX
  8
0
 10
242.025436
 20
642.974564
 42
0.171759
  0
VERTEX
  8
0
 10
244.611515
 20
641.740621
 42
0.017866
  0
VERTEX
  8
0
 10
251.432347
 20
641.267362
 42
0.007858
  0
VERTEX
  8
0
 10
264.252845
 20
641.038737
 42
0.000529
  0
VERTEX
  8
0
 10
300.865141
 20
641.000000
 42
0.000514
  0
VERTEX
  8
0
 10
338.040713
 20
641.038229
 42
0.008191
  0
VERTEX
  8
0
 10
350.647372
 20
641.270696
 42
0.021592
  0
VERTEX
  8
0
 10
357.275653
 20
641.788724
 42
0.137187
  0
VERTEX
  8
0
 10
360.365141
 20
643.072580
 42
0.117014
  0
VERTEX
  8
0
 10
362.388745
 20
645.619949
 42
0.108867
  0
VERTEX
  8
0
 10
363.121531
 20
648.874543
 42
0.104822
  0
VERTEX
  8
0
 10
362.424970
 20
652.236481
 42
0.101166
  0
VERTEX
  8
0
 10
360.420125
 20
655.075686
 42
0.000000
  0
VERTEX
  8
0
 10
357.840250
 20
657.500000
 42
0.000000
  0
VERTEX
  8
0
 10
302.170125
 20
657.752817
 42
0.000955
  0
VERTEX
  8
0
 10
273.653211
 20
657.827841
 42
0.004603
  0
VERTEX
  8
0
 10
257.428436
 20
657.690156
 42
0.003882
  0
VERTEX
  8
0
 10
246.673605
 20
657.416327
 42
0.110608
  0
SEQEND
  0
POLYLINE
  8
0
 66
1
 70
1
  0
VERTEX
  8
0
 10
192.747969
 20
652.626009
 42
0.070280
  0
VERTEX
  8
0
 10
186.493392
 20
649.245381
 42
0.079638
  0
VERTEX
  8
0
 10
181.720648
 20
644.382097
 42
0.080957
  0
VERTEX
  8
0
 10
178.762236
 20
638.342762
 42
0.075876
  0
VERTEX
  8
0
 10
177.786020
 20
631.537443
 42
0.052223
  0
VERTEX
  8
0
 10
178.319157
 20
626.853601
 42
0.057618
  0
VERTEX
  8
0
 10
179.809030
 20
622.543296
 42
0.055173
  0
VERTEX
  8
0
 10
182.310486
 20
618.536891
 42
0.041951
  0
VERTEX
  8
0
 10
185.849718
 20
614.754736
 42
0.116163
  0
VERTEX
  8
0
 10
192.957625
 20
610.840021
 42
0.097069
  0
VERTEX
  8
0
 10
201.566902
 20
610.161920
 42
0.096228
  0
VERTEX
  8
0
 10
209.858493
 20
612.788666
 42
0.111768
  0
VERTEX
  8
0
 10
216.060497
 20
618.242212
 42
0.129193
  0
VERTEX
  8
0
 10
220.236224
 20
629.009827
 42
0.131322
  0
VERTEX
  8
0
 10
218.541149
 20
640.366533
 42
0.132011
  0
VERTEX
  8
0
 10
211.420265
 20
649.321204
 42
0.131178
  0
VERTEX
  8
0
 10
200.753199
 20
653.527561
 42
0.033394
  0
VERTEX
  8
0
 10
198.820834
 20
653.620347
 42
0.023346
  0
VERTEX
  8
0
 10
196.643836
 20
653.477626
 42
0.023511
  0
VERTEX
  8
0
 10
194.518696
 20
653.136502
 42
0.037272
  0
SEQEND
  0
POLYLINE
  8
0
 66
1
 70
1
  0
VERTEX
  8
0
 10
253.875523
 20
627.269087
 42
0.005744
  0
VERTEX
  8
0
 10
247.936719
 20
627.013954
 42
0.033073
  0
VERTEX
  8
0
 10
244.814783
 20
626.635787
 42
0.065700
  0
VERTEX
  8
0
 10
242.864851
 20
625.994189
 42
0.096837
  0
VERTEX
  8
0
 10
241.425523
 20
624.917703
 42
0.111941
  0
VERTEX
  8
0
 10
240.105848
 20
622.572820
 42
0.073222
  0
VERTEX
  8
0
 10
239.660435
 20
619.489613
 42
0.073106
  0
VERTEX
  8
0
 10
240.122642
 20
616.403457
 42
0.110686
  0
VERTEX
  8
0
 10
241.454988
 20
614.049738
 42
0.182330
  0
VERTEX
  8
0
 10
243.970245
 20
612.757692
 42
0.019856
  0
VERTEX
  8
0
 10
250.578567
 20
612.266927
 42
0.008113
  0
VERTEX
  8
0
 10
263.199694
 20
612.037244
 42
0.000493
  0
VERTEX
  8
0
 10
300.980674
 20
612.000000
 42
0.000000
  0
VERTEX
  8
0
 10
358.651372
 20
612.000000
 42
0.000000
  0
VERTEX
  8
0
 10
360.825686
 20
614.314451
 42
0.093454
  0
VERTEX
  8
0
 10
362.460425
 20
616.877137
 42
0.105165
  0
VERTEX
  8
0
 10
362.959630
 20
619.752580
 42
0.104410
  0
VERTEX
  8
0
 10
362.245885
 20
622.598486
 42
0.090916
  0
VERTEX
  8
0
 10
360.420195
 20
625.075686
 42
0.000000
  0
VERTEX
  8
0
 10
357.840389
 20
627.500000
 42
0.000000
  0
VERTEX
  8
0
 10
311.170195
 20
627.551646
 42
0.000679
  0
VERTEX
  8
0
 10
292.521979
 20
627.546961
 42
0.000831
  0
VERTEX
  8
0
 10
275.088429
 20
627.489948
 42
0.000692
  0
VERTEX
  8
0
 10
260.429482
 20
627.397377
 42
0.005937
  0
SEQEND
  0
ENDSEC
  0
EOF
