  0
SECTION
  2
HEADER
  9
$ACADVER
  1
AC1006
  9
$EXTMIN
 10
0.000000
 20
0.000000
 30
0.000000
  9
$EXTMAX
 10
1024.000000
 20
1024.000000
 30
0.000000
  0
ENDSEC
  0
SECTION
  2
ENTITIES
  0
POLYLINE
  8
0
 66
1
 70
1
  0
VERTEX
  8
0
 10
0.000000
 20
512.000000
 42
0.000000
  0
VERTEX
  8
0
 10
0.000000
 20
0.000000
 42
0.000000
  0
VERTEX
  8
0
 10
512.000000
 20
0.000000
 42
0.000000
  0
VERTEX
  8
0
 10
1024.000000
 20
0.000000
 42
0.000000
  0
VERTEX
  8
0
 10
1024.000000
 20
512.000000
 42
0.000000
  0
VERTEX
  8
0
 10
1024.000000
 20
1024.000000
 42
0.000000
  0
VERTEX
  8
0
 10
512.000000
 20
1024.000000
 42
0.000000
  0
VERTEX
  8
0
 10
0.000000
 20
1024.000000
 42
0.000000
  0
SEQEND
  0
POLYLINE
  8
0
 66
1
 70
1
  0
VERTEX
  8
0
 10
377.418213
 20
694.393011
 42
-0.261847
  0
VERTEX
  8
0
 10
378.309301
 20
693.318155
 42
-0.027967
  0
VERTEX
  8
0
 10
378.725750
 20
689.979067
 42
-0.015126
  0
VERTEX
  8
0
 10
378.950910
 20
684.042351
 42
-0.001914
  0
VERTEX
  8
0
 10
379.000000
 20
671.221752
 42
0.004116
  0
VERTEX
  8
0
 10
379.136957
 20
654.585795
 42
0.057576
  0
VERTEX
  8
0
 10
379.920773
 20
648.659175
 42
0.200311
  0
VERTEX
  8
0
 10
381.900759
 20
646.010397
 42
0.134172
  0
VERTEX
  8
0
 10
385.598284
 20
645.000000
 42
0.154220
  0
VERTEX
  8
0
 10
389.123150
 20
646.113695
 42
0.184018
  0
VERTEX
  8
0
 10
391.064052
 20
648.982749
 42
0.053472
  0
VERTEX
  8
0
 10
391.855187
 20
655.331690
 42
0.004282
  0
VERTEX
  8
0
 10
392.000000
 20
672.241281
 42
0.000000
  0
VERTEX
  8
0
 10
392.000000
 20
695.037549
 42
0.000000
  0
VERTEX
  8
0
 10
414.750000
 20
694.768774
 42
0.000000
  0
VERTEX
  8
0
 10
437.500000
 20
694.500000
 42
0.000000
  0
VERTEX
  8
0
 10
437.637958
 20
671.049935
 42
0.001424
  0
VERTEX
  8
0
 10
437.770458
 20
655.873744
 42
0.020415
  0
VERTEX
  8
0
 10
438.053326
 20
650.480607
 42
0.064071
  0
VERTEX
  8
0
 10
438.694870
 20
647.627677
 42
0.136075
  0
VERTEX
  8
0
 10
439.998742
 20
645.799935
 42
0.045946
  0
VERTEX
  8
0
 10
441.967255
 20
644.485235
 42
0.134299
  0
VERTEX
  8
0
 10
443.543018
 20
644.116273
 42
0.122659
  0
VERTEX
  8
0
 10
445.174928
 20
644.587468
 42
0.035346
  0
VERTEX
  8
0
 10
447.365141
 20
646.072580
 42
0.000000
  0
VERTEX
  8
0
 10
450.000000
 20
648.145160
 42
0.000000
  0
VERTEX
  8
0
 10
450.000000
 20
671.027267
 42
0.000000
  0
VERTEX
  8
0
 10
450.000000
 20
693.909374
 42
0.000000
  0
VERTEX
  8
0
 10
453.659833
 20
694.595963
 42
-0.042989
  0
VERTEX
  8
0
 10
456.100216
 20
694.839636
 42
-0.002970
  0
VERTEX
  8
0
 10
463.027326
 20
694.892676
 42
-0.004211
  0
VERTEX
  8
0
 10
471.298983
 20
694.837210
 42
-0.003153
  0
VERTEX
  8
0
 10
480.409833
 20
694.641905
 42
0.002035
  0
VERTEX
  8
0
 10
491.318559
 20
694.383673
 42
0.000993
  0
VERTEX
  8
0
 10
505.236013
 20
694.138560
 42
0.000985
  0
VERTEX
  8
0
 10
519.712217
 20
693.940913
 42
0.001427
  0
VERTEX
  8
0
 10
532.500000
 20
693.828025
 42
-0.002087
  0
VERTEX
  8
0
 10
544.409377
 20
693.707159
 42
-0.002144
  0
VERTEX
  8
0
 10
556.212500
 20
693.487470
 42
-0.002073
  0
VERTEX
  8
0
 10
566.449530
 20
693.210544
 42
-0.009059
  0
VERTEX
  8
0
 10
572.500000
 20
692.911953
 42
0.002076
  0
VERTEX
  8
0
 10
578.191470
 20
692.551333
 42
0.000648
  0
VERTEX
  8
0
 10
586.731250
 20
692.056934
 42
0.000648
  0
VERTEX
  8
0
 10
596.270439
 20
691.529481
 42
0.000715
  0
VERTEX
  8
0
 10
605.500000
 20
691.044387
 42
-0.001907
  0
VERTEX
  8
0
 10
626.892847
 20
689.868859
 42
-0.002168
  0
VERTEX
  8
0
 10
647.380045
 20
688.575510
 42
-0.002340
  0
VERTEX
  8
0
 10
665.626829
 20
687.258327
 42
-0.004713
  0
VERTEX
  8
0
 10
680.000000
 20
686.016758
 42
0.001129
  0
VERTEX
  8
0
 10
684.220036
 20
685.621737
 42
0.000752
  0
VERTEX
  8
0
 10
689.059375
 20
685.187103
 42
0.000756
  0
VERTEX
  8
0
 10
693.756702
 20
684.779500
 42
0.001480
  0
VERTEX
  8
0
 10
697.500000
 20
684.471547
 42
-0.010218
  0
VERTEX
  8
0
 10
722.378261
 20
681.986485
 42
-0.002115
  0
VERTEX
  8
0
 10
766.025398
 20
676.536323
 42
-0.002303
  0
VERTEX
  8
0
 10
810.354074
 20
670.602772
 42
-0.006865
  0
VERTEX
  8
0
 10
840.627061
 20
665.984119
 42
-0.006224
  0
VERTEX
  8
0
 10
854.940556
 20
663.415290
 42
-0.060863
  0
VERTEX
  8
0
 10
860.777304
 20
661.535302
 42
-0.158311
  0
VERTEX
  8
0
 10
863.571954
 20
658.946423
 42
-0.111273
  0
VERTEX
  8
0
 10
864.798413
 20
654.805537
 42
-0.041756
  0
VERTEX
  8
0
 10
864.751493
 20
652.069471
 42
-0.068430
  0
VERTEX
  8
0
 10
864.207646
 20
649.820435
 42
-0.044939
  0
VERTEX
  8
0
 10
862.905162
 20
647.215969
 42
-0.009312
  0
VERTEX
  8
0
 10
860.129523
 20
642.906161
 42
-0.026250
  0
VERTEX
  8
0
 10
851.581207
 20
631.503088
 42
-0.020268
  0
VERTEX
  8
0
 10
841.145108
 20
619.988264
 42
-0.018521
  0
VERTEX
  8
0
 10
828.801762
 20
608.328337
 42
-0.014178
  0
VERTEX
  8
0
 10
814.500000
 20
596.487449
 42
-0.037840
  0
VERTEX
  8
0
 10
788.239396
 20
578.997758
 42
-0.028793
  0
VERTEX
  8
0
 10
757.166852
 20
563.821695
 42
-0.028017
  0
VERTEX
  8
0
 10
723.514557
 20
551.889555
 42
-0.030016
  0
VERTEX
  8
0
 10
689.500000
 20
544.114914
 42
-0.011003
  0
VERTEX
  8
0
 10
664.366186
 20
540.504068
 42
-0.018293
  0
VERTEX
  8
0
 10
643.044137
 20
538.706600
 42
-0.009437
  0
VERTEX
  8
0
 10
613.768152
 20
537.867704
 42
-0.001070
  0
VERTEX
  8
0
 10
547.500000
 20
537.361876
 42
-0.000704
  0
VERTEX
  8
0
 10
505.811188
 20
537.191601
 42
-0.002098
  0
VERTEX
  8
0
 10
477.259844
 20
537.235005
 42
-0.000732
  0
VERTEX
  8
0
 10
455.468022
 20
537.391465
 42
-0.089017
  0
VERTEX
  8
0
 10
452.750000
 20
537.903518
 42
0.000000
  0
VERTEX
  8
0
 10
450.000000
 20
538.950498
 42
0.000000
  0
VERTEX
  8
0
 10
450.000000
 20
551.540991
 42
0.007161
  0
VERTEX
  8
0
 10
449.929027
 20
556.496160
 42
0.009705
  0
VERTEX
  8
0
 10
449.713998
 20
560.967425
 42
0.007035
  0
VERTEX
  8
0
 10
449.410694
 20
564.679110
 42
0.099272
  0
VERTEX
  8
0
 10
449.026378
 20
565.950713
 42
0.130377
  0
VERTEX
  8
0
 10
447.534801
 20
567.549599
 42
0.094811
  0
VERTEX
  8
0
 10
445.258001
 20
568.437292
 42
0.089905
  0
VERTEX
  8
0
 10
442.701516
 20
568.445911
 42
0.101366
  0
VERTEX
  8
0
 10
440.421536
 20
567.540546
 42
0.109199
  0
VERTEX
  8
0
 10
439.062246
 20
566.147742
 42
0.097246
  0
VERTEX
  8
0
 10
438.345209
 20
564.253148
 42
0.034200
  0
VERTEX
  8
0
 10
438.003924
 20
560.836222
 42
0.002858
  0
VERTEX
  8
0
 10
437.777426
 20
551.942860
 42
0.000000
  0
VERTEX
  8
0
 10
437.500000
 20
537.895886
 42
0.000000
  0
VERTEX
  8
0
 10
425.000000
 20
537.356570
 42
0.007258
  0
VERTEX
  8
0
 10
420.120156
 20
537.075011
 42
0.010392
  0
VERTEX
  8
0
 10
415.804688
 20
536.672800
 42
0.006597
  0
VERTEX
  8
0
 10
412.226253
 20
536.216203
 42
0.138274
  0
VERTEX
  8
0
 10
411.250000
 20
535.786182
 42
0.172923
  0
VERTEX
  8
0
 10
410.273966
 20
534.152812
 42
0.057822
  0
VERTEX
  8
0
 10
410.046466
 20
531.338014
 42
0.057312
  0
VERTEX
  8
0
 10
410.479959
 20
528.457410
 42
0.131127
  0
VERTEX
  8
0
 10
411.571429
 20
526.571429
 42
0.192882
  0
VERTEX
  8
0
 10
413.902954
 20
525.573797
 42
0.002287
  0
VERTEX
  8
0
 10
430.833079
 20
525.257903
 42
0.003193
  0
VERTEX
  8
0
 10
458.441361
 20
525.045428
 42
0.000338
  0
VERTEX
  8
0
 10
522.821429
 20
525.004647
 42
0.000786
  0
VERTEX
  8
0
 10
568.026449
 20
525.077600
 42
0.001273
  0
VERTEX
  8
0
 10
606.461385
 20
525.297890
 42
0.000978
  0
VERTEX
  8
0
 10
637.401260
 20
525.614527
 42
0.012793
  0
VERTEX
  8
0
 10
648.873233
 20
526.048080
 42
-0.002256
  0
VERTEX
  8
0
 10
655.177127
 20
526.419480
 42
-0.003643
  0
VERTEX
  8
0
 10
660.546264
 20
526.672289
 42
-0.000710
  0
VERTEX
  8
0
 10
665.265107
 20
526.853318
 42
-0.208526
  0
VERTEX
  8
0
 10
665.619009
 20
526.714324
 42
-0.239524
  0
VERTEX
  8
0
 10
665.727525
 20
526.381535
 42
-0.003318
  0
VERTEX
  8
0
 10
665.375327
 20
524.221340
 42
-0.008449
  0
VERTEX
  8
0
 10
664.900725
 20
521.687376
 42
-0.005357
  0
VERTEX
  8
0
 10
664.266310
 20
518.750712
 42
-0.024115
  0
VERTEX
  8
0
 10
662.743115
 20
513.283105
 42
-0.188964
  0
VERTEX
  8
0
 10
661.087402
 20
511.290999
 42
-0.113680
  0
VERTEX
  8
0
 10
658.124891
 20
510.447308
 42
-0.006431
  0
VERTEX
  8
0
 10
648.540082
 20
510.081029
 42
0.022897
  0
VERTEX
  8
0
 10
642.712351
 20
509.665850
 42
0.071888
  0
VERTEX
  8
0
 10
638.930170
 20
508.657931
 42
0.126312
  0
VERTEX
  8
0
 10
636.796801
 20
507.018347
 42
0.169371
  0
VERTEX
  8
0
 10
636.015313
 20
504.726947
 42
0.138096
  0
VERTEX
  8
0
 10
636.974141
 20
501.409176
 42
0.162757
  0
VERTEX
  8
0
 10
639.479707
 20
499.331440
 42
0.077596
  0
VERTEX
  8
0
 10
644.343565
 20
498.270536
 42
0.014970
  0
VERTEX
  8
0
 10
653.377579
 20
498.000000
 42
0.000000
  0
VERTEX
  8
0
 10
664.886641
 20
498.000000
 42
0.000000
  0
VERTEX
  8
0
 10
667.427647
 20
493.750000
 42
0.000000
  0
VERTEX
  8
0
 10
669.968652
 20
489.500000
 42
0.000000
  0
VERTEX
  8
0
 10
662.734326
 20
488.880704
 42
-0.017566
  0
VERTEX
  8
0
 10
652.253310
 20
488.353383
 42
-0.002649
  0
VERTEX
  8
0
 10
631.228359
 20
488.146404
 42
-0.001860
  0
VERTEX
  8
0
 10
609.726632
 20
488.128652
 42
-0.033343
  0
VERTEX
  8
0
 10
602.840327
 20
488.608407
 42
-0.030360
  0
VERTEX
  8
0
 10
600.347219
 20
489.105790
 42
-0.083120
  0
VERTEX
  8
0
 10
598.715017
 20
489.841504
 42
-0.078011
  0
VERTEX
  8
0
 10
597.353077
 20
491.097726
 42
-0.024546
  0
VERTEX
  8
0
 10
595.735856
 20
493.358407
 42
0.000000
  0
VERTEX
  8
0
 10
593.070200
 20
497.500000
 42
0.000000
  0
VERTEX
  8
0
 10
608.385837
 20
498.000000
 42
0.007068
  0
VERTEX
  8
0
 10
619.276262
 20
498.509713
 42
0.063613
  0
VERTEX
  8
0
 10
623.958327
 20
499.400267
 42
0.176901
  0
VERTEX
  8
0
 10
626.163018
 20
501.129764
 42
0.139755
  0
VERTEX
  8
0
 10
627.000000
 20
504.065741
 42
0.335027
  0
VERTEX
  8
0
 10
624.157787
 20
507.831394
 42
0.057098
  0
VERTEX
  8
0
 10
614.713708
 20
509.390644
 42
0.012006
  0
VERTEX
  8
0
 10
593.450706
 20
509.933931
 42
0.000384
  0
VERTEX
  8
0
 10
507.349043
 20
510.000000
 42
0.000000
  0
VERTEX
  8
0
 10
392.143098
 20
510.000000
 42
0.000000
  0
VERTEX
  8
0
 10
391.821549
 20
537.589632
 42
0.000000
  0
VERTEX
  8
0
 10
391.500000
 20
565.179264
 42
0.000000
  0
VERTEX
  8
0
 10
389.139216
 20
567.089632
 42
0.061468
  0
VERTEX
  8
0
 10
386.937586
 20
568.462441
 42
0.111909
  0
VERTEX
  8
0
 10
384.875784
 20
568.905949
 42
0.119011
  0
VERTEX
  8
0
 10
382.911518
 20
568.408741
 42
0.075284
  0
VERTEX
  8
0
 10
381.000000
 20
567.000000
 42
0.139012
  0
VERTEX
  8
0
 10
379.834055
 20
564.911376
 42
0.041660
  0
VERTEX
  8
0
 10
379.285586
 20
561.272982
 42
0.015327
  0
VERTEX
  8
0
 10
379.044435
 20
554.519922
 42
0.001261
  0
VERTEX
  8
0
 10
379.000000
 20
536.899170
 42
0.000000
  0
VERTEX
  8
0
 10
379.000000
 20
508.798340
 42
0.000000
  0
VERTEX
  8
0
 10
362.250000
 20
509.197915
 42
-0.009512
  0
VERTEX
  8
0
 10
349.991998
 20
509.723779
 42
-0.049598
  0
VERTEX
  8
0
 10
343.325276
 20
510.806568
 42
-0.079171
  0
VERTEX
  8
0
 10
338.529070
 20
512.937718
 42
-0.048793
  0
VERTEX
  8
0
 10
333.691959
 20
516.798827
 42
-0.027426
  0
VERTEX
  8
0
 10
332.091971
 20
518.534333
 42
-0.017843
  0
VERTEX
  8
0
 10
330.432080
 20
520.698559
 42
-0.017952
  0
VERTEX
  8
0
 10
328.959301
 20
522.933351
 42
-0.032317
  0
VERTEX
  8
0
 10
327.941959
 20
524.877118
 42
-0.084215
  0
VERTEX
  8
0
 10
326.764350
 20
529.497950
 42
-0.014000
  0
VERTEX
  8
0
 10
326.272019
 20
538.691048
 42
-0.005922
  0
VERTEX
  8
0
 10
326.041306
 20
555.577496
 42
-0.000455
  0
VERTEX
  8
0
 10
326.000000
 20
601.001392
 42
-0.000624
  0
VERTEX
  8
0
 10
326.050132
 20
641.160656
 42
-0.004370
  0
VERTEX
  8
0
 10
326.270303
 20
660.752605
 42
-0.006133
  0
VERTEX
  8
0
 10
326.652089
 20
672.589235
 42
-0.073803
  0
VERTEX
  8
0
 10
327.519618
 20
677.055603
 42
-0.058780
  0
VERTEX
  8
0
 10
330.373723
 20
682.865689
 42
-0.066124
  0
VERTEX
  8
0
 10
334.410168
 20
687.599131
 42
-0.064687
  0
VERTEX
  8
0
 10
339.623670
 20
691.192418
 42
-0.052757
  0
VERTEX
  8
0
 10
345.950561
 20
693.638020
 42
-0.052907
  0
VERTEX
  8
0
 10
351.175333
 20
694.468961
 42
-0.007004
  0
VERTEX
  8
0
 10
362.381988
 20
694.894961
 42
-0.005141
  0
VERTEX
  8
0
 10
373.827976
 20
695.051857
 42
-0.092723
  0
SEQEND
  0
POLYLINE
  8
0
 66
1
 70
1
  0
VERTEX
  8
0
 10
303.869404
 20
678.661550
 42
-0.062993
  0
VERTEX
  8
0
 10
305.894312
 20
674.135544
 42
-0.015387
  0
VERTEX
  8
0
 10
308.031355
 20
666.232523
 42
-0.015061
  0
VERTEX
  8
0
 10
309.996027
 20
656.697362
 42
-0.012416
  0
VERTEX
  8
0
 10
311.529844
 20
646.427224
 42
-0.024678
  0
VERTEX
  8
0
 10
312.614186
 20
631.815371
 42
-0.004986
  0
VERTEX
  8
0
 10
312.998376
 20
605.780469
 42
-0.005447
  0
VERTEX
  8
0
 10
312.836677
 20
579.313108
 42
-0.016456
  0
VERTEX
  8
0
 10
311.937078
 20
561.304468
 42
-0.016151
  0
VERTEX
  8
0
 10
310.008218
 20
544.623563
 42
-0.034166
  0
VERTEX
  8
0
 10
307.223379
 20
531.915288
 42
-0.043648
  0
VERTEX
  8
0
 10
303.797857
 20
523.116680
 42
-0.198011
  0
VERTEX
  8
0
 10
299.750000
 20
519.556958
 42
-0.136190
  0
VERTEX
  8
0
 10
295.379917
 20
519.296001
 42
-0.153766
  0
VERTEX
  8
0
 10
291.734536
 20
521.364913
 42
-0.102187
  0
VERTEX
  8
0
 10
288.910410
 20
526.015172
 42
-0.039849
  0
VERTEX
  8
0
 10
286.950099
 20
533.312116
 42
-0.041353
  0
VERTEX
  8
0
 10
286.480961
 20
537.981384
 42
-0.001774
  0
VERTEX
  8
0
 10
286.250695
 20
554.510396
 42
-0.002601
  0
VERTEX
  8
0
 10
286.138273
 20
576.215869
 42
-0.001113
  0
VERTEX
  8
0
 10
286.203499
 20
605.227387
 42
0.000000
  0
VERTEX
  8
0
 10
286.500000
 20
671.500000
 42
0.000000
  0
VERTEX
  8
0
 10
289.000000
 20
676.500000
 42
-0.025790
  0
VERTEX
  8
0
 10
290.131701
 20
678.498673
 42
-0.025784
  0
VERTEX
  8
0
 10
291.463237
 20
680.370372
 42
-0.026665
  0
VERTEX
  8
0
 10
292.792674
 20
681.876358
 42
-0.085655
  0
VERTEX
  8
0
 10
293.874849
 20
682.654458
 42
-0.112504
  0
VERTEX
  8
0
 10
296.471051
 20
683.258002
 42
-0.096405
  0
VERTEX
  8
0
 10
299.233345
 20
682.732867
 42
-0.087599
  0
VERTEX
  8
0
 10
301.812326
 20
681.134472
 42
-0.073809
  0
SEQEND
  0
POLYLINE
  8
0
 66
1
 70
1
  0
VERTEX
  8
0
 10
270.500000
 20
665.868196
 42
-0.176748
  0
VERTEX
  8
0
 10
271.763608
 20
663.286651
 42
-0.017075
  0
VERTEX
  8
0
 10
272.267867
 20
656.212883
 42
-0.007606
  0
VERTEX
  8
0
 10
272.558178
 20
642.902492
 42
-0.000501
  0
VERTEX
  8
0
 10
272.773023
 20
604.495684
 42
-0.001139
  0
VERTEX
  8
0
 10
272.872504
 20
561.499453
 42
-0.018943
  0
VERTEX
  8
0
 10
272.331548
 20
547.212591
 42
-0.067355
  0
VERTEX
  8
0
 10
270.864026
 20
540.335328
 42
-0.250062
  0
VERTEX
  8
0
 10
267.686727
 20
537.457509
 42
-0.054756
  0
VERTEX
  8
0
 10
264.668222
 20
537.042898
 42
-0.071824
  0
VERTEX
  8
0
 10
261.907680
 20
537.365406
 42
-0.079387
  0
VERTEX
  8
0
 10
259.566948
 20
538.405504
 42
-0.089015
  0
VERTEX
  8
0
 10
257.771627
 20
540.091977
 42
-0.125440
  0
VERTEX
  8
0
 10
255.574689
 20
545.444052
 42
-0.022354
  0
VERTEX
  8
0
 10
254.537845
 20
556.298428
 42
-0.012928
  0
VERTEX
  8
0
 10
254.093573
 20
574.296884
 42
-0.002127
  0
VERTEX
  8
0
 10
254.282456
 20
609.079509
 42
-0.001421
  0
VERTEX
  8
0
 10
254.750235
 20
646.420520
 42
-0.026099
  0
VERTEX
  8
0
 10
255.550589
 20
658.250088
 42
-0.099661
  0
VERTEX
  8
0
 10
257.473746
 20
664.084534
 42
-0.162828
  0
VERTEX
  8
0
 10
261.314715
 20
667.528126
 42
-0.056282
  0
VERTEX
  8
0
 10
263.903038
 20
668.316426
 42
-0.090742
  0
VERTEX
  8
0
 10
266.200900
 20
668.321485
 42
-0.090747
  0
VERTEX
  8
0
 10
268.351560
 20
667.512498
 42
-0.056293
  0
SEQEND
  0
POLYLINE
  8
0
 66
1
 70
1
  0
VERTEX
  8
0
 10
236.385358
 20
655.870280
 42
-0.060349
  0
VERTEX
  8
0
 10
237.407395
 20
655.246364
 42
-0.038843
  0
VERTEX
  8
0
 10
238.427929
 20
654.302709
 42
-0.038706
  0
VERTEX
  8
0
 10
239.295667
 20
653.206301
 42
-0.057603
  0
VERTEX
  8
0
 10
239.856989
 20
652.120280
 42
-0.084149
  0
VERTEX
  8
0
 10
240.857346
 20
647.030353
 42
-0.001581
  0
VERTEX
  8
0
 10
241.483434
 20
619.811262
 42
-0.004373
  0
VERTEX
  8
0
 10
241.778782
 20
593.178120
 42
-0.009969
  0
VERTEX
  8
0
 10
241.425052
 20
573.076372
 42
-0.002653
  0
VERTEX
  8
0
 10
240.960737
 20
562.244323
 42
-0.018683
  0
VERTEX
  8
0
 10
240.510174
 20
556.987846
 42
-0.039359
  0
VERTEX
  8
0
 10
239.880160
 20
553.904387
 42
-0.117993
  0
VERTEX
  8
0
 10
238.827944
 20
552.045694
 42
-0.116709
  0
VERTEX
  8
0
 10
235.234881
 20
549.648224
 42
-0.150760
  0
VERTEX
  8
0
 10
231.296892
 20
549.424404
 42
-0.136831
  0
VERTEX
  8
0
 10
227.637783
 20
551.492650
 42
-0.089619
  0
VERTEX
  8
0
 10
224.863131
 20
555.500000
 42
-0.078225
  0
VERTEX
  8
0
 10
223.818493
 20
559.264174
 42
-0.019032
  0
VERTEX
  8
0
 10
223.324115
 20
565.712457
 42
-0.008578
  0
VERTEX
  8
0
 10
223.083154
 20
577.021504
 42
-0.000912
  0
VERTEX
  8
0
 10
223.021962
 20
603.348871
 42
-0.001783
  0
VERTEX
  8
0
 10
223.119314
 20
635.109846
 42
-0.026322
  0
VERTEX
  8
0
 10
223.779768
 20
646.241375
 42
-0.088040
  0
VERTEX
  8
0
 10
225.473430
 20
651.968706
 42
-0.153656
  0
VERTEX
  8
0
 10
228.881475
 20
655.496912
 42
-0.028160
  0
VERTEX
  8
0
 10
231.058114
 20
656.525590
 42
-0.084064
  0
VERTEX
  8
0
 10
232.661440
 20
656.879832
 42
-0.087438
  0
VERTEX
  8
0
 10
234.255893
 20
656.679941
 42
-0.032106
  0
SEQEND
  0
POLYLINE
  8
0
 66
1
 70
1
  0
VERTEX
  8
0
 10
207.773959
 20
644.750000
 42
-0.162379
  0
VERTEX
  8
0
 10
208.245724
 20
643.503907
 42
-0.001492
  0
VERTEX
  8
0
 10
208.616667
 20
633.479512
 42
-0.004337
  0
VERTEX
  8
0
 10
208.933477
 20
620.974502
 42
-0.001903
  0
VERTEX
  8
0
 10
209.146403
 20
604.404322
 42
-0.001623
  0
VERTEX
  8
0
 10
209.325677
 20
573.485515
 42
-0.051817
  0
VERTEX
  8
0
 10
208.563963
 20
565.968608
 42
-0.262210
  0
VERTEX
  8
0
 10
205.959243
 20
562.983209
 42
-0.105543
  0
VERTEX
  8
0
 10
200.403499
 20
562.255683
 42
-0.146272
  0
VERTEX
  8
0
 10
183.622170
 20
568.775802
 42
-0.112265
  0
VERTEX
  8
0
 10
171.097624
 20
584.070926
 42
-0.107316
  0
VERTEX
  8
0
 10
166.060290
 20
603.904009
 42
-0.123709
  0
VERTEX
  8
0
 10
170.143423
 20
622.943641
 42
-0.062722
  0
VERTEX
  8
0
 10
176.008589
 20
631.843229
 42
-0.057750
  0
VERTEX
  8
0
 10
184.046792
 20
639.293283
 42
-0.061214
  0
VERTEX
  8
0
 10
193.018425
 20
644.309229
 42
-0.097145
  0
VERTEX
  8
0
 10
201.627555
 20
645.999211
 42
-0.021675
  0
VERTEX
  8
0
 10
203.698384
 20
645.909718
 42
-0.028503
  0
VERTEX
  8
0
 10
205.570039
 20
645.639236
 42
-0.029812
  0
VERTEX
  8
0
 10
207.058231
 20
645.243158
 42
-0.142760
  0
SEQEND
  0
POLYLINE
  8
0
 66
1
 70
1
  0
VERTEX
  8
0
 10
157.627063
 20
624.112094
 42
-0.004374
  0
VERTEX
  8
0
 10
157.300471
 20
623.154422
 42
-0.000634
  0
VERTEX
  8
0
 10
156.615925
 20
621.211053
 42
-0.000719
  0
VERTEX
  8
0
 10
155.800293
 20
618.915383
 42
-0.000615
  0
VERTEX
  8
0
 10
154.934865
 20
616.500000
 42
0.020656
  0
VERTEX
  8
0
 10
153.851034
 20
613.044940
 42
0.036737
  0
VERTEX
  8
0
 10
153.290439
 20
610.117785
 42
0.032619
  0
VERTEX
  8
0
 10
153.128261
 20
606.913365
 42
0.012874
  0
VERTEX
  8
0
 10
153.306628
 20
602.500000
 42
0.017216
  0
VERTEX
  8
0
 10
153.658453
 20
599.013406
 42
0.012358
  0
VERTEX
  8
0
 10
154.281198
 20
595.147430
 42
0.012504
  0
VERTEX
  8
0
 10
155.058023
 20
591.492623
 42
0.026145
  0
VERTEX
  8
0
 10
155.880216
 20
588.704018
 42
-0.007420
  0
VERTEX
  8
0
 10
156.981571
 20
585.426254
 42
-0.055935
  0
VERTEX
  8
0
 10
157.301975
 20
583.825633
 42
-0.151833
  0
VERTEX
  8
0
 10
157.102293
 20
582.913660
 42
-0.173580
  0
VERTEX
  8
0
 10
156.428167
 20
582.334061
 42
-0.169982
  0
VERTEX
  8
0
 10
153.814480
 20
582.256510
 42
-0.004071
  0
VERTEX
  8
0
 10
142.083348
 20
586.082013
 42
-0.009618
  0
VERTEX
  8
0
 10
130.717144
 20
590.135982
 42
-0.025807
  0
VERTEX
  8
0
 10
122.853815
 20
593.585863
 42
-0.042474
  0
VERTEX
  8
0
 10
116.560043
 20
597.444108
 42
-0.104385
  0
VERTEX
  8
0
 10
112.969046
 20
601.473426
 42
-0.152276
  0
VERTEX
  8
0
 10
112.053793
 20
605.611118
 42
-0.132384
  0
VERTEX
  8
0
 10
113.572122
 20
609.799505
 42
-0.116191
  0
VERTEX
  8
0
 10
117.125048
 20
612.969110
 42
-0.021401
  0
VERTEX
  8
0
 10
125.070935
 20
616.849635
 42
-0.021088
  0
VERTEX
  8
0
 10
135.280486
 20
620.801741
 42
-0.014910
  0
VERTEX
  8
0
 10
147.037434
 20
624.404467
 42
-0.010948
  0
VERTEX
  8
0
 10
152.849311
 20
625.861494
 42
-0.062919
  0
VERTEX
  8
0
 10
156.001685
 20
626.171640
 42
-0.216811
  0
VERTEX
  8
0
 10
157.367064
 20
625.504296
 42
-0.257761
  0
SEQEND
  0
POLYLINE
  8
0
 66
1
 70
1
  0
VERTEX
  8
0
 10
832.081787
 20
581.000000
 42
-0.181555
  0
VERTEX
  8
0
 10
833.751625
 20
580.372998
 42
-0.070903
  0
VERTEX
  8
0
 10
835.384850
 20
578.476052
 42
-0.064314
  0
VERTEX
  8
0
 10
836.589222
 20
575.923186
 42
-0.078249
  0
VERTEX
  8
0
 10
837.000000
 20
573.314451
 42
-0.142299
  0
VERTEX
  8
0
 10
835.562275
 20
568.364978
 42
-0.165689
  0
VERTEX
  8
0
 10
831.760088
 20
565.309110
 42
-0.165476
  0
VERTEX
  8
0
 10
826.879097
 20
565.208413
 42
-0.141926
  0
VERTEX
  8
0
 10
822.588894
 20
568.076725
 42
-0.029966
  0
VERTEX
  8
0
 10
820.853694
 20
570.409262
 42
-0.101939
  0
VERTEX
  8
0
 10
820.160748
 20
572.161941
 42
-0.111302
  0
VERTEX
  8
0
 10
820.247685
 20
573.958122
 42
-0.039388
  0
VERTEX
  8
0
 10
821.132941
 20
576.392429
 42
-0.103716
  0
VERTEX
  8
0
 10
822.594030
 20
578.378692
 42
-0.050184
  0
VERTEX
  8
0
 10
825.155917
 20
580.245028
 42
-0.050177
  0
VERTEX
  8
0
 10
827.896187
 20
581.498606
 42
-0.170502
  0
VERTEX
  8
0
 10
829.831787
 20
581.481222
 42
0.018864
  0
VERTEX
  8
0
 10
830.408964
 20
581.296964
 42
0.015148
  0
VERTEX
  8
0
 10
831.042087
 20
581.141359
 42
0.015412
  0
VERTEX
  8
0
 10
831.636683
 20
581.033235
 42
0.037282
  0
SEQEND
  0
POLYLINE
  8
0
 66
1
 70
1
  0
VERTEX
  8
0
 10
799.927420
 20
559.365141
 42
-0.049971
  0
VERTEX
  8
0
 10
800.738384
 20
558.090568
 42
-0.034144
  0
VERTEX
  8
0
 10
801.404940
 20
556.507560
 42
-0.034064
  0
VERTEX
  8
0
 10
801.851767
 20
554.842481
 42
-0.048557
  0
VERTEX
  8
0
 10
802.000000
 20
553.319687
 42
-0.164587
  0
VERTEX
  8
0
 10
800.309092
 20
548.322007
 42
-0.161919
  0
VERTEX
  8
0
 10
795.920336
 20
545.337198
 42
-0.163576
  0
VERTEX
  8
0
 10
790.653273
 20
545.590661
 42
-0.167764
  0
VERTEX
  8
0
 10
786.673516
 20
548.975548
 42
-0.051570
  0
VERTEX
  8
0
 10
785.408944
 20
551.729143
 42
-0.105192
  0
VERTEX
  8
0
 10
785.130530
 20
554.080588
 42
-0.103498
  0
VERTEX
  8
0
 10
785.832777
 20
556.366773
 42
-0.048845
  0
VERTEX
  8
0
 10
787.588894
 20
558.923275
 42
-0.096983
  0
VERTEX
  8
0
 10
790.492632
 20
561.261490
 42
-0.112666
  0
VERTEX
  8
0
 10
793.913110
 20
562.172080
 42
-0.118957
  0
VERTEX
  8
0
 10
797.247815
 20
561.492617
 42
-0.117150
  0
SEQEND
  0
POLYLINE
  8
0
 66
1
 70
1
  0
VERTEX
  8
0
 10
761.545455
 20
541.545455
 42
-0.169262
  0
VERTEX
  8
0
 10
764.091971
 20
536.274477
 42
-0.176703
  0
VERTEX
  8
0
 10
762.749950
 20
530.671409
 42
-0.188032
  0
VERTEX
  8
0
 10
758.219286
 20
527.476493
 42
-0.185033
  0
VERTEX
  8
0
 10
752.684259
 20
528.163343
 42
-0.052695
  0
VERTEX
  8
0
 10
750.578386
 20
529.587663
 42
-0.081022
  0
VERTEX
  8
0
 10
749.148480
 20
531.254181
 42
-0.081287
  0
VERTEX
  8
0
 10
748.325221
 20
533.284507
 42
-0.053389
  0
VERTEX
  8
0
 10
748.031803
 20
535.795455
 42
-0.102958
  0
VERTEX
  8
0
 10
748.634477
 20
538.838119
 42
-0.092777
  0
VERTEX
  8
0
 10
750.411851
 20
541.517172
 42
-0.093582
  0
VERTEX
  8
0
 10
753.022112
 20
543.354739
 42
-0.107099
  0
VERTEX
  8
0
 10
756.000000
 20
544.000000
 42
-0.055690
  0
VERTEX
  8
0
 10
757.461429
 20
543.836719
 42
-0.048581
  0
VERTEX
  8
0
 10
758.923153
 20
543.352941
 42
-0.047034
  0
VERTEX
  8
0
 10
760.309031
 20
542.576460
 42
-0.045205
  0
SEQEND
  0
POLYLINE
  8
0
 66
1
 70
1
  0
VERTEX
  8
0
 10
709.000000
 20
532.524170
 42
-0.117114
  0
VERTEX
  8
0
 10
708.926321
 20
532.213924
 42
-0.005314
  0
VERTEX
  8
0
 10
708.420921
 20
531.235896
 42
-0.008640
  0
VERTEX
  8
0
 10
707.783916
 20
530.083236
 42
-0.006059
  0
VERTEX
  8
0
 10
707.028668
 20
528.806743
 42
0.093780
  0
VERTEX
  8
0
 10
704.713689
 20
522.644671
 42
0.065481
  0
VERTEX
  8
0
 10
704.404300
 20
515.208207
 42
0.056238
  0
VERTEX
  8
0
 10
706.110087
 20
506.859931
 42
0.039598
  0
VERTEX
  8
0
 10
709.783799
 20
498.000000
 42
0.018160
  0
VERTEX
  8
0
 10
712.409983
 20
493.288826
 42
0.001613
  0
VERTEX
  8
0
 10
719.492139
 20
481.687500
 42
0.002104
  0
VERTEX
  8
0
 10
728.044521
 20
467.909164
 42
0.001639
  0
VERTEX
  8
0
 10
737.454165
 20
453.000000
 42
-0.001473
  0
VERTEX
  8
0
 10
766.670904
 20
406.741266
 42
-0.002442
  0
VERTEX
  8
0
 10
791.014749
 20
367.520865
 42
-0.002364
  0
VERTEX
  8
0
 10
809.979569
 20
336.300876
 42
-0.015956
  0
VERTEX
  8
0
 10
818.802349
 20
320.500000
 42
-0.059101
  0
VERTEX
  8
0
 10
820.772914
 20
315.253224
 42
-0.053004
  0
VERTEX
  8
0
 10
821.557172
 20
309.492279
 42
-0.056697
  0
VERTEX
  8
0
 10
821.110752
 20
304.182608
 42
-0.111160
  0
VERTEX
  8
0
 10
819.395470
 20
300.326748
 42
-0.117360
  0
VERTEX
  8
0
 10
814.595741
 20
296.307163
 42
-0.050240
  0
VERTEX
  8
0
 10
806.725900
 20
293.316836
 42
-0.016059
  0
VERTEX
  8
0
 10
791.581314
 20
289.761023
 42
-0.001054
  0
VERTEX
  8
0
 10
747.500000
 20
280.990787
 42
0.000022
  0
VERTEX
  8
0
 10
729.755682
 20
277.498518
 42
0.000016
  0
VERTEX
  8
0
 10
710.327274
 20
273.673265
 42
0.000017
  0
VERTEX
  8
0
 10
692.119906
 20
270.087169
 42
0.000039
  0
VERTEX
  8
0
 10
678.529019
 20
267.408752
 42
-0.003273
  0
VERTEX
  8
0
 10
667.174364
 20
265.247241
 42
-0.005667
  0
VERTEX
  8
0
 10
657.706562
 20
263.619771
 42
-0.003134
  0
VERTEX
  8
0
 10
649.958047
 20
262.427853
 42
-0.097661
  0
VERTEX
  8
0
 10
648.029019
 20
262.521184
 42
-0.075810
  0
VERTEX
  8
0
 10
645.391367
 20
263.618935
 42
-0.069007
  0
VERTEX
  8
0
 10
643.104361
 20
265.481647
 42
-0.073572
  0
VERTEX
  8
0
 10
641.536445
 20
267.760653
 42
-0.114429
  0
VERTEX
  8
0
 10
641.000000
 20
270.073962
 42
-0.061739
  0
VERTEX
  8
0
 10
641.193914
 20
271.638396
 42
-0.010021
  0
VERTEX
  8
0
 10
642.002597
 20
274.598520
 42
-0.010920
  0
VERTEX
  8
0
 10
643.106378
 20
278.061392
 42
-0.009416
  0
VERTEX
  8
0
 10
644.413097
 20
281.649648
 42
0.061015
  0
VERTEX
  8
0
 10
649.121377
 20
300.386188
 42
0.074058
  0
VERTEX
  8
0
 10
648.695642
 20
318.472602
 42
0.060769
  0
VERTEX
  8
0
 10
642.719170
 20
338.299633
 42
0.027124
  0
VERTEX
  8
0
 10
630.390766
 20
362.666819
 42
0.010140
  0
VERTEX
  8
0
 10
619.953038
 20
379.965443
 42
0.000866
  0
VERTEX
  8
0
 10
592.215849
 20
423.727413
 42
0.000829
  0
VERTEX
  8
0
 10
564.240795
 20
467.535621
 42
0.010905
  0
VERTEX
  8
0
 10
553.510752
 20
483.500000
 42
-0.006055
  0
VERTEX
  8
0
 10
551.770638
 20
486.035511
 42
-0.005514
  0
VERTEX
  8
0
 10
550.036393
 20
488.692187
 42
-0.005524
  0
VERTEX
  8
0
 10
548.538536
 20
491.101299
 42
-0.017743
  0
VERTEX
  8
0
 10
547.616915
 20
492.750000
 42
0.000000
  0
VERTEX
  8
0
 10
545.948640
 20
496.000000
 42
0.000000
  0
VERTEX
  8
0
 10
562.314227
 20
496.000000
 42
0.000000
  0
VERTEX
  8
0
 10
578.679814
 20
496.000000
 42
0.000000
  0
VERTEX
  8
0
 10
592.223137
 20
474.750000
 42
-0.001095
  0
VERTEX
  8
0
 10
603.061028
 20
457.662503
 42
-0.000588
  0
VERTEX
  8
0
 10
616.358699
 20
436.539962
 42
-0.000562
  0
VERTEX
  8
0
 10
629.036532
 20
416.298837
 42
-0.001902
  0
VERTEX
  8
0
 10
637.250717
 20
403.039440
 42
-0.001896
  0
VERTEX
  8
0
 10
654.274907
 20
375.086826
 42
-0.008825
  0
VERTEX
  8
0
 10
663.747619
 20
358.755070
 42
-0.015078
  0
VERTEX
  8
0
 10
669.836932
 20
346.995352
 42
-0.021644
  0
VERTEX
  8
0
 10
674.452312
 20
336.210337
 42
0.041286
  0
VERTEX
  8
0
 10
679.180109
 20
326.261130
 42
0.052712
  0
VERTEX
  8
0
 10
685.169483
 20
318.071660
 42
0.058556
  0
VERTEX
  8
0
 10
692.115615
 20
312.015816
 42
0.077082
  0
VERTEX
  8
0
 10
699.688252
 20
308.393308
 42
0.067320
  0
VERTEX
  8
0
 10
706.665813
 20
307.282323
 42
0.004300
  0
VERTEX
  8
0
 10
727.376810
 20
306.974520
 42
0.004397
  0
VERTEX
  8
0
 10
748.053748
 20
307.026915
 42
0.064983
  0
VERTEX
  8
0
 10
755.224744
 20
308.045607
 42
0.063839
  0
VERTEX
  8
0
 10
759.683584
 20
309.922388
 42
0.050616
  0
VERTEX
  8
0
 10
763.920329
 20
312.992386
 42
0.047742
  0
VERTEX
  8
0
 10
767.685110
 20
317.056469
 42
0.043551
  0
VERTEX
  8
0
 10
770.742867
 20
321.882809
 42
0.017209
  0
VERTEX
  8
0
 10
772.526352
 20
325.639267
 42
0.045990
  0
VERTEX
  8
0
 10
773.449246
 20
328.453015
 42
0.042880
  0
VERTEX
  8
0
 10
773.876304
 20
331.498565
 42
0.013403
  0
VERTEX
  8
0
 10
774.000000
 20
336.112355
 42
0.033773
  0
VERTEX
  8
0
 10
773.534995
 20
342.988788
 42
0.044369
  0
VERTEX
  8
0
 10
772.139855
 20
349.120499
 42
0.039637
  0
VERTEX
  8
0
 10
769.540307
 20
355.415361
 42
0.020427
  0
VERTEX
  8
0
 10
765.363636
 20
362.852350
 42
0.003087
  0
VERTEX
  8
0
 10
757.044291
 20
376.159346
 42
0.000279
  0
VERTEX
  8
0
 10
736.037271
 20
409.262706
 42
0.000400
  0
VERTEX
  8
0
 10
713.565878
 20
444.567543
 42
0.000637
  0
VERTEX
  8
0
 10
694.287373
 20
474.717785
 42
-0.004419
  0
VERTEX
  8
0
 10
684.915838
 20
489.621415
 42
-0.025365
  0
VERTEX
  8
0
 10
680.429185
 20
497.799627
 42
-0.047028
  0
VERTEX
  8
0
 10
678.164512
 20
503.870126
 42
-0.051706
  0
VERTEX
  8
0
 10
677.166108
 20
510.066077
 42
-0.066511
  0
VERTEX
  8
0
 10
677.806029
 20
518.427810
 42
-0.117141
  0
VERTEX
  8
0
 10
680.757083
 20
524.656987
 42
-0.115669
  0
VERTEX
  8
0
 10
686.225982
 20
528.943974
 42
-0.063830
  0
VERTEX
  8
0
 10
694.364596
 20
531.524412
 42
-0.011764
  0
VERTEX
  8
0
 10
699.650339
 20
532.355855
 42
-0.016074
  0
VERTEX
  8
0
 10
704.445930
 20
532.838713
 42
-0.009069
  0
VERTEX
  8
0
 10
708.467208
 20
533.040215
 42
-0.423597
  0
SEQEND
  0
POLYLINE
  8
0
 66
1
 70
1
  0
VERTEX
  8
0
 10
528.717255
 20
494.089860
 42
-0.061629
  0
VERTEX
  8
0
 10
531.573291
 20
491.429106
 42
-0.036074
  0
VERTEX
  8
0
 10
534.314547
 20
487.634141
 42
-0.035897
  0
VERTEX
  8
0
 10
536.374382
 20
483.693789
 42
-0.102841
  0
VERTEX
  8
0
 10
537.000000
 20
480.684276
 42
-0.199509
  0
VERTEX
  8
0
 10
536.644817
 20
479.829563
 42
-0.137226
  0
VERTEX
  8
0
 10
535.717704
 20
479.310545
 42
-0.051764
  0
VERTEX
  8
0
 10
533.850228
 20
479.058474
 42
-0.007684
  0
VERTEX
  8
0
 10
530.045313
 20
479.000000
 42
0.000000
  0
VERTEX
  8
0
 10
523.090626
 20
479.000000
 42
0.000000
  0
VERTEX
  8
0
 10
522.503447
 20
482.750000
 42
0.001899
  0
VERTEX
  8
0
 10
521.824717
 20
486.979537
 42
0.006200
  0
VERTEX
  8
0
 10
521.330256
 20
489.770985
 42
0.009165
  0
VERTEX
  8
0
 10
520.895542
 20
491.850832
 42
0.013488
  0
VERTEX
  8
0
 10
520.431289
 20
493.658807
 42
-0.077458
  0
VERTEX
  8
0
 10
520.271152
 20
494.946588
 42
-0.207595
  0
VERTEX
  8
0
 10
520.656655
 20
495.764886
 42
-0.115407
  0
VERTEX
  8
0
 10
521.727096
 20
496.337718
 42
-0.017645
  0
VERTEX
  8
0
 10
524.099962
 20
496.883999
 42
-0.177947
  0
VERTEX
  8
0
 10
524.489371
 20
496.820670
 42
-0.007693
  0
VERTEX
  8
0
 10
525.703776
 20
496.111071
 42
-0.012302
  0
VERTEX
  8
0
 10
527.134426
 20
495.196496
 42
-0.008379
  0
SEQEND
  0
POLYLINE
  8
0
 66
1
 70
1
  0
VERTEX
  8
0
 10
422.895139
 20
489.910906
 42
0.042349
  0
VERTEX
  8
0
 10
421.564909
 20
483.879773
 42
0.029805
  0
VERTEX
  8
0
 10
421.059043
 20
476.947735
 42
0.029450
  0
VERTEX
  8
0
 10
421.381449
 20
469.886776
 42
0.037281
  0
VERTEX
  8
0
 10
422.544534
 20
463.460099
 42
0.044059
  0
VERTEX
  8
0
 10
424.691579
 20
457.421775
 42
0.025879
  0
VERTEX
  8
0
 10
428.243977
 20
450.622089
 42
0.025734
  0
VERTEX
  8
0
 10
432.535041
 20
444.138317
 42
0.039375
  0
VERTEX
  8
0
 10
436.951422
 20
439.049815
 42
0.071582
  0
VERTEX
  8
0
 10
447.031621
 20
431.632607
 42
0.059894
  0
VERTEX
  8
0
 10
459.416977
 20
426.803150
 42
0.059270
  0
VERTEX
  8
0
 10
472.730175
 20
425.011802
 42
0.066822
  0
VERTEX
  8
0
 10
485.539901
 20
426.531663
 42
0.054604
  0
VERTEX
  8
0
 10
496.870890
 20
430.805002
 42
0.070988
  0
VERTEX
  8
0
 10
505.943653
 20
437.166146
 42
0.067684
  0
VERTEX
  8
0
 10
513.180088
 20
446.070731
 42
0.044349
  0
VERTEX
  8
0
 10
519.042427
 20
457.944501
 42
0.000000
  0
VERTEX
  8
0
 10
521.584855
 20
464.500000
 42
0.000000
  0
VERTEX
  8
0
 10
528.443298
 20
464.799129
 42
-0.011897
  0
VERTEX
  8
0
 10
531.131873
 20
464.852355
 42
-0.016617
  0
VERTEX
  8
0
 10
533.534600
 20
464.762863
 42
-0.012993
  0
VERTEX
  8
0
 10
535.493059
 20
464.573393
 42
-0.167277
  0
VERTEX
  8
0
 10
536.144383
 20
464.255617
 42
-0.222414
  0
VERTEX
  8
0
 10
536.384963
 20
463.591799
 42
-0.014034
  0
VERTEX
  8
0
 10
536.133853
 20
461.474957
 42
-0.018509
  0
VERTEX
  8
0
 10
535.654066
 20
458.884726
 42
-0.012541
  0
VERTEX
  8
0
 10
534.925252
 20
455.972823
 42
-0.077443
  0
VERTEX
  8
0
 10
526.265876
 20
436.834889
 42
-0.088404
  0
VERTEX
  8
0
 10
512.494558
 20
422.224215
 42
-0.087157
  0
VERTEX
  8
0
 10
494.349815
 20
413.127048
 42
-0.072845
  0
VERTEX
  8
0
 10
473.000000
 20
410.000000
 42
-0.077221
  0
VERTEX
  8
0
 10
450.713084
 20
413.462704
 42
-0.083369
  0
VERTEX
  8
0
 10
431.168583
 20
423.504667
 42
-0.084904
  0
VERTEX
  8
0
 10
416.245857
 20
439.192259
 42
-0.084065
  0
VERTEX
  8
0
 10
407.322228
 20
459.000000
 42
-0.040655
  0
VERTEX
  8
0
 10
406.002171
 20
466.497564
 42
-0.023645
  0
VERTEX
  8
0
 10
405.584172
 20
475.631368
 42
-0.023540
  0
VERTEX
  8
0
 10
406.012810
 20
484.440448
 42
-0.058262
  0
VERTEX
  8
0
 10
407.371401
 20
490.750000
 42
0.000000
  0
VERTEX
  8
0
 10
409.160733
 20
496.000000
 42
0.000000
  0
VERTEX
  8
0
 10
416.975506
 20
496.000000
 42
0.000000
  0
VERTEX
  8
0
 10
424.790278
 20
496.000000
 42
0.000000
  0
SEQEND
  0
POLYLINE
  8
0
 66
1
 70
1
  0
VERTEX
  8
0
 10
508.077582
 20
493.855037
 42
-0.123809
  0
VERTEX
  8
0
 10
508.822145
 20
490.877471
 42
-0.028473
  0
VERTEX
  8
0
 10
508.518213
 20
485.666796
 42
-0.029388
  0
VERTEX
  8
0
 10
507.501147
 20
479.879117
 42
-0.035703
  0
VERTEX
  8
0
 10
505.852691
 20
474.626274
 42
-0.063047
  0
VERTEX
  8
0
 10
501.835367
 20
467.296893
 42
-0.065444
  0
VERTEX
  8
0
 10
496.161247
 20
461.303279
 42
-0.070639
  0
VERTEX
  8
0
 10
489.584014
 20
457.351493
 42
-0.100331
  0
VERTEX
  8
0
 10
482.916612
 20
456.000000
 42
-0.025918
  0
VERTEX
  8
0
 10
480.062614
 20
456.148038
 42
-0.335779
  0
VERTEX
  8
0
 10
479.331523
 20
456.831236
 42
-0.128464
  0
VERTEX
  8
0
 10
479.450786
 20
458.244668
 42
-0.003657
  0
VERTEX
  8
0
 10
481.532239
 20
464.000000
 42
0.067082
  0
VERTEX
  8
0
 10
482.845241
 20
469.861359
 42
0.043634
  0
VERTEX
  8
0
 10
482.839661
 20
476.810637
 42
0.042740
  0
VERTEX
  8
0
 10
481.606034
 20
483.851725
 42
0.054376
  0
VERTEX
  8
0
 10
479.237625
 20
490.003301
 42
0.000000
  0
VERTEX
  8
0
 10
476.144887
 20
496.000000
 42
0.000000
  0
VERTEX
  8
0
 10
491.537260
 20
496.000000
 42
-0.002433
  0
VERTEX
  8
0
 10
501.223463
 20
495.952870
 42
-0.029816
  0
VERTEX
  8
0
 10
504.914242
 20
495.696517
 42
-0.090919
  0
VERTEX
  8
0
 10
506.860481
 20
495.072436
 42
-0.148006
  0
SEQEND
  0
POLYLINE
  8
0
 66
1
 70
1
  0
VERTEX
  8
0
 10
680.338481
 20
471.250000
 42
0.000000
  0
VERTEX
  8
0
 10
683.868583
 20
466.500000
 42
0.000000
  0
VERTEX
  8
0
 10
681.184292
 20
465.868315
 42
-0.056506
  0
VERTEX
  8
0
 10
675.962067
 20
465.248000
 42
-0.000949
  0
VERTEX
  8
0
 10
646.863097
 20
465.147897
 42
-0.000402
  0
VERTEX
  8
0
 10
616.510083
 20
465.125468
 42
-0.148215
  0
VERTEX
  8
0
 10
614.399490
 20
465.765313
 42
-0.093602
  0
VERTEX
  8
0
 10
613.271413
 20
466.870835
 42
-0.006586
  0
VERTEX
  8
0
 10
610.780405
 20
470.546030
 42
-0.005043
  0
VERTEX
  8
0
 10
608.324077
 20
474.358023
 42
-0.141514
  0
VERTEX
  8
0
 10
608.000000
 20
475.480128
 42
-0.409532
  0
VERTEX
  8
0
 10
608.209780
 20
475.693294
 42
-0.000225
  0
VERTEX
  8
0
 10
618.106231
 20
475.847288
 42
-0.002361
  0
VERTEX
  8
0
 10
629.211900
 20
475.962642
 42
-0.001416
  0
VERTEX
  8
0
 10
642.404189
 20
476.000000
 42
0.000000
  0
VERTEX
  8
0
 10
676.808378
 20
476.000000
 42
0.000000
  0
SEQEND
  0
POLYLINE
  8
0
 66
1
 70
1
  0
VERTEX
  8
0
 10
695.465493
 20
448.250000
 42
-0.006688
  0
VERTEX
  8
0
 10
696.802432
 20
446.375678
 42
-0.009558
  0
VERTEX
  8
0
 10
697.934003
 20
444.675000
 42
-0.005971
  0
VERTEX
  8
0
 10
698.833370
 20
443.227799
 42
-0.128465
  0
VERTEX
  8
0
 10
698.975209
 20
442.750000
 42
-0.417184
  0
VERTEX
  8
0
 10
698.685104
 20
442.443191
 42
-0.000441
  0
VERTEX
  8
0
 10
688.569541
 20
442.220312
 42
-0.003306
  0
VERTEX
  8
0
 10
677.121148
 20
442.053892
 42
-0.001981
  0
VERTEX
  8
0
 10
663.516846
 20
442.000000
 42
0.000000
  0
VERTEX
  8
0
 10
628.033692
 20
442.000000
 42
0.000000
  0
VERTEX
  8
0
 10
625.516846
 20
446.966756
 42
-0.004032
  0
VERTEX
  8
0
 10
624.552452
 20
448.908577
 42
-0.005933
  0
VERTEX
  8
0
 10
623.739323
 20
450.631168
 42
-0.002980
  0
VERTEX
  8
0
 10
623.077565
 20
452.100370
 42
-0.104691
  0
VERTEX
  8
0
 10
623.000000
 20
452.466756
 42
-0.409418
  0
VERTEX
  8
0
 10
623.215062
 20
452.685375
 42
-0.000235
  0
VERTEX
  8
0
 10
633.131521
 20
452.843360
 42
-0.002416
  0
VERTEX
  8
0
 10
644.264983
 20
452.961681
 42
-0.001449
  0
VERTEX
  8
0
 10
657.490284
 20
453.000000
 42
0.000000
  0
VERTEX
  8
0
 10
691.980568
 20
453.000000
 42
0.000000
  0
SEQEND
  0
POLYLINE
  8
0
 66
1
 70
1
  0
VERTEX
  8
0
 10
710.271275
 20
424.646635
 42
0.000000
  0
VERTEX
  8
0
 10
713.825709
 20
419.293269
 42
0.000000
  0
VERTEX
  8
0
 10
703.257292
 20
418.646635
 42
-0.010036
  0
VERTEX
  8
0
 10
691.815360
 20
418.176814
 42
-0.005316
  0
VERTEX
  8
0
 10
677.618926
 20
418.030089
 42
-0.005308
  0
VERTEX
  8
0
 10
663.570281
 20
418.183396
 42
-0.011148
  0
VERTEX
  8
0
 10
652.663758
 20
418.661662
 42
0.000000
  0
VERTEX
  8
0
 10
642.827516
 20
419.312976
 42
0.000000
  0
VERTEX
  8
0
 10
640.353167
 20
423.232599
 42
-0.082262
  0
VERTEX
  8
0
 10
638.578586
 20
427.442276
 42
-0.420820
  0
VERTEX
  8
0
 10
639.792876
 20
429.371117
 42
-0.052060
  0
VERTEX
  8
0
 10
645.058958
 20
429.943467
 42
-0.001059
  0
VERTEX
  8
0
 10
671.751431
 20
430.000000
 42
0.000000
  0
VERTEX
  8
0
 10
706.716840
 20
430.000000
 42
0.000000
  0
SEQEND
  0
POLYLINE
  8
0
 66
1
 70
1
  0
VERTEX
  8
0
 10
724.500000
 20
401.797891
 42
-0.002175
  0
VERTEX
  8
0
 10
725.707198
 20
400.108708
 42
-0.002442
  0
VERTEX
  8
0
 10
726.853659
 20
398.472783
 42
-0.002240
  0
VERTEX
  8
0
 10
727.816497
 20
397.071131
 42
-0.013119
  0
VERTEX
  8
0
 10
728.299690
 20
396.319243
 42
-0.560272
  0
VERTEX
  8
0
 10
727.915884
 20
395.575574
 42
-0.008741
  0
VERTEX
  8
0
 10
722.119506
 20
395.253659
 42
-0.008233
  0
VERTEX
  8
0
 10
712.571985
 20
395.048054
 42
-0.001266
  0
VERTEX
  8
0
 10
693.597731
 20
395.000000
 42
0.000000
  0
VERTEX
  8
0
 10
658.096081
 20
395.000000
 42
0.000000
  0
VERTEX
  8
0
 10
655.048041
 20
399.430175
 42
-0.010423
  0
VERTEX
  8
0
 10
653.880697
 20
401.204969
 42
-0.013724
  0
VERTEX
  8
0
 10
652.895362
 20
402.873248
 42
-0.011164
  0
VERTEX
  8
0
 10
652.149802
 20
404.292398
 42
-0.115864
  0
VERTEX
  8
0
 10
652.000000
 20
404.930175
 42
-0.402875
  0
VERTEX
  8
0
 10
652.515661
 20
405.466278
 42
-0.002176
  0
VERTEX
  8
0
 10
660.365500
 20
405.737317
 42
-0.005882
  0
VERTEX
  8
0
 10
670.886086
 20
405.930901
 42
-0.001812
  0
VERTEX
  8
0
 10
686.750000
 20
405.978649
 42
0.000000
  0
VERTEX
  8
0
 10
721.500000
 20
405.957297
 42
0.000000
  0
SEQEND
  0
POLYLINE
  8
0
 66
1
 70
1
  0
VERTEX
  8
0
 10
739.967605
 20
377.659131
 42
-0.005532
  0
VERTEX
  8
0
 10
741.512774
 20
375.564778
 42
-0.008210
  0
VERTEX
  8
0
 10
742.815484
 20
373.693523
 42
-0.004268
  0
VERTEX
  8
0
 10
743.872087
 20
372.091990
 42
-0.144661
  0
VERTEX
  8
0
 10
744.000000
 20
371.659131
 42
-0.408460
  0
VERTEX
  8
0
 10
743.735334
 20
371.389204
 42
-0.000332
  0
VERTEX
  8
0
 10
733.452913
 20
371.193620
 42
-0.002869
  0
VERTEX
  8
0
 10
721.862775
 20
371.047366
 42
-0.001720
  0
VERTEX
  8
0
 10
708.095022
 20
371.000000
 42
0.000000
  0
VERTEX
  8
0
 10
672.190044
 20
371.000000
 42
0.000000
  0
VERTEX
  8
0
 10
669.595022
 20
375.428070
 42
-0.009202
  0
VERTEX
  8
0
 10
668.601188
 20
377.197794
 42
-0.012040
  0
VERTEX
  8
0
 10
667.762288
 20
378.852541
 42
-0.009667
  0
VERTEX
  8
0
 10
667.126299
 20
380.254824
 42
-0.101966
  0
VERTEX
  8
0
 10
667.000000
 20
380.867705
 42
-0.382841
  0
VERTEX
  8
0
 10
667.928857
 20
381.903014
 42
-0.014235
  0
VERTEX
  8
0
 10
673.592856
 20
382.356069
 42
-0.010250
  0
VERTEX
  8
0
 10
683.423910
 20
382.659461
 42
-0.001220
  0
VERTEX
  8
0
 10
705.217605
 20
382.831897
 42
0.000000
  0
VERTEX
  8
0
 10
735.935210
 20
383.000000
 42
0.000000
  0
SEQEND
  0
POLYLINE
  8
0
 66
1
 70
1
  0
VERTEX
  8
0
 10
753.652709
 20
355.750000
 42
-0.015497
  0
VERTEX
  8
0
 10
756.042374
 20
353.035588
 42
-0.018797
  0
VERTEX
  8
0
 10
758.103105
 20
350.343183
 42
-0.016256
  0
VERTEX
  8
0
 10
759.658892
 20
347.984919
 42
-0.138543
  0
VERTEX
  8
0
 10
760.000000
 20
346.777494
 42
-0.407563
  0
VERTEX
  8
0
 10
759.689085
 20
346.459420
 42
-0.000435
  0
VERTEX
  8
0
 10
749.137192
 20
346.228389
 42
-0.003285
  0
VERTEX
  8
0
 10
737.200096
 20
346.055872
 42
-0.001970
  0
VERTEX
  8
0
 10
723.020228
 20
346.000000
 42
0.000000
  0
VERTEX
  8
0
 10
686.040456
 20
346.000000
 42
0.000000
  0
VERTEX
  8
0
 10
683.029612
 20
351.250000
 42
-0.005126
  0
VERTEX
  8
0
 10
681.875363
 20
353.311346
 42
-0.007395
  0
VERTEX
  8
0
 10
680.900447
 20
355.159513
 42
-0.004226
  0
VERTEX
  8
0
 10
680.118059
 20
356.730098
 42
-0.110458
  0
VERTEX
  8
0
 10
680.009384
 20
357.186642
 42
-0.396168
  0
VERTEX
  8
0
 10
680.790743
 20
358.041116
 42
-0.008200
  0
VERTEX
  8
0
 10
687.080637
 20
358.414338
 42
-0.008298
  0
VERTEX
  8
0
 10
697.363060
 20
358.684538
 42
-0.001171
  0
VERTEX
  8
0
 10
718.553833
 20
358.839963
 42
0.000000
  0
VERTEX
  8
0
 10
750.607666
 20
359.000000
 42
0.000000
  0
SEQEND
  0
POLYLINE
  8
0
 66
1
 70
1
  0
VERTEX
  8
0
 10
760.996262
 20
331.750000
 42
-0.099083
  0
VERTEX
  8
0
 10
760.439798
 20
328.993315
 42
-0.058380
  0
VERTEX
  8
0
 10
758.783525
 20
326.055316
 42
-0.055989
  0
VERTEX
  8
0
 10
756.383830
 20
323.436802
 42
-0.068620
  0
VERTEX
  8
0
 10
753.610582
 20
321.619499
 42
-0.069622
  0
VERTEX
  8
0
 10
750.675649
 20
320.698589
 42
-0.028383
  0
VERTEX
  8
0
 10
746.507664
 20
320.245525
 42
-0.013938
  0
VERTEX
  8
0
 10
739.720724
 20
320.084982
 42
-0.002086
  0
VERTEX
  8
0
 10
726.075815
 20
320.199534
 42
0.000000
  0
VERTEX
  8
0
 10
702.166587
 20
320.500000
 42
0.000000
  0
VERTEX
  8
0
 10
697.852539
 20
323.534029
 42
-0.022551
  0
VERTEX
  8
0
 10
696.089493
 20
324.896765
 42
-0.019319
  0
VERTEX
  8
0
 10
694.359463
 20
326.482003
 42
-0.019760
  0
VERTEX
  8
0
 10
692.899333
 20
328.046535
 42
-0.051365
  0
VERTEX
  8
0
 10
692.019245
 20
329.309132
 42
-0.015542
  0
VERTEX
  8
0
 10
691.197224
 20
330.907472
 42
-0.110126
  0
VERTEX
  8
0
 10
691.004147
 20
331.752736
 42
-0.189248
  0
VERTEX
  8
0
 10
691.245013
 20
332.375826
 42
-0.064774
  0
VERTEX
  8
0
 10
692.000000
 20
333.009790
 42
-0.134589
  0
VERTEX
  8
0
 10
693.323810
 20
333.421537
 42
-0.001582
  0
VERTEX
  8
0
 10
702.524598
 20
333.705136
 42
-0.004419
  0
VERTEX
  8
0
 10
713.599062
 20
333.913501
 42
-0.002380
  0
VERTEX
  8
0
 10
727.250000
 20
333.984687
 42
0.000000
  0
VERTEX
  8
0
 10
761.000000
 20
334.000000
 42
0.000000
  0
SEQEND
  0
POLYLINE
  8
0
 66
1
 70
1
  0
VERTEX
  8
0
 10
418.654988
 20
683.171259
 42
0.144217
  0
VERTEX
  8
0
 10
417.185427
 20
680.122072
 42
0.135135
  0
VERTEX
  8
0
 10
417.551933
 20
676.677317
 42
0.140859
  0
VERTEX
  8
0
 10
419.602259
 20
674.005372
 42
0.160458
  0
VERTEX
  8
0
 10
422.654427
 20
673.000000
 42
0.141175
  0
VERTEX
  8
0
 10
424.561518
 20
673.549418
 42
0.055544
  0
VERTEX
  8
0
 10
426.721348
 20
675.267476
 42
0.055555
  0
VERTEX
  8
0
 10
428.448294
 20
677.416803
 42
0.142417
  0
VERTEX
  8
0
 10
429.000000
 20
679.314451
 42
0.142213
  0
VERTEX
  8
0
 10
428.461244
 20
681.170328
 42
0.068883
  0
VERTEX
  8
0
 10
426.849856
 20
683.073329
 42
0.067435
  0
VERTEX
  8
0
 10
424.726327
 20
684.513586
 42
0.115840
  0
VERTEX
  8
0
 10
422.654988
 20
685.000000
 42
0.065317
  0
VERTEX
  8
0
 10
421.635986
 20
684.866313
 42
0.042003
  0
VERTEX
  8
0
 10
420.512670
 20
684.462807
 42
0.041706
  0
VERTEX
  8
0
 10
419.460678
 20
683.871356
 42
0.059994
  0
SEQEND
  0
POLYLINE
  8
0
 66
1
 70
1
  0
VERTEX
  8
0
 10
479.328737
 20
653.542239
 42
0.109620
  0
VERTEX
  8
0
 10
475.447955
 20
650.720589
 42
0.192129
  0
VERTEX
  8
0
 10
474.127662
 20
647.036590
 42
0.111647
  0
VERTEX
  8
0
 10
475.483898
 20
641.894478
 42
0.026547
  0
VERTEX
  8
0
 10
480.015078
 20
634.219742
 42
-0.014903
  0
VERTEX
  8
0
 10
484.716617
 20
626.663872
 42
-0.041623
  0
VERTEX
  8
0
 10
487.393488
 20
621.030675
 42
-0.051327
  0
VERTEX
  8
0
 10
488.787688
 20
615.743935
 42
-0.034239
  0
VERTEX
  8
0
 10
489.331219
 20
609.500000
 42
-0.036810
  0
VERTEX
  8
0
 10
488.986962
 20
603.270688
 42
-0.048033
  0
VERTEX
  8
0
 10
487.715359
 20
597.709366
 42
-0.048603
  0
VERTEX
  8
0
 10
485.421595
 20
592.544034
 42
-0.039052
  0
VERTEX
  8
0
 10
482.021597
 20
587.500000
 42
0.005031
  0
VERTEX
  8
0
 10
477.615870
 20
581.836257
 42
0.037447
  0
VERTEX
  8
0
 10
475.758594
 20
578.977732
 42
0.074735
  0
VERTEX
  8
0
 10
474.938480
 20
576.745826
 42
0.057885
  0
VERTEX
  8
0
 10
474.712395
 20
574.162726
 42
0.039317
  0
VERTEX
  8
0
 10
474.893906
 20
572.471750
 42
0.054918
  0
VERTEX
  8
0
 10
475.336039
 20
571.018028
 42
0.059915
  0
VERTEX
  8
0
 10
476.044671
 20
569.793649
 42
0.061525
  0
VERTEX
  8
0
 10
477.017918
 20
568.784407
 42
0.162777
  0
VERTEX
  8
0
 10
480.111651
 20
567.627204
 42
0.004691
  0
VERTEX
  8
0
 10
494.348225
 20
567.259382
 42
0.003813
  0
VERTEX
  8
0
 10
519.241769
 20
567.039714
 42
0.000300
  0
VERTEX
  8
0
 10
585.488339
 20
567.000000
 42
0.000368
  0
VERTEX
  8
0
 10
646.449910
 20
567.044885
 42
0.003127
  0
VERTEX
  8
0
 10
673.835632
 20
567.256471
 42
0.001835
  0
VERTEX
  8
0
 10
691.049364
 20
567.560313
 42
0.217525
  0
VERTEX
  8
0
 10
693.002555
 20
568.503079
 42
0.113423
  0
VERTEX
  8
0
 10
694.022457
 20
570.526684
 42
0.088796
  0
VERTEX
  8
0
 10
694.179782
 20
572.987845
 42
0.087781
  0
VERTEX
  8
0
 10
693.471259
 20
575.376042
 42
0.107061
  0
VERTEX
  8
0
 10
692.014216
 20
577.189572
 42
0.161365
  0
VERTEX
  8
0
 10
688.913821
 20
578.358999
 42
0.005685
  0
VERTEX
  8
0
 10
675.943153
 20
578.739728
 42
0.004174
  0
VERTEX
  8
0
 10
653.013483
 20
578.960495
 42
0.000320
  0
VERTEX
  8
0
 10
591.305883
 20
579.000000
 42
-0.000714
  0
VERTEX
  8
0
 10
553.569202
 20
579.053870
 42
-0.001197
  0
VERTEX
  8
0
 10
521.857561
 20
579.220312
 42
-0.000063
  0
VERTEX
  8
0
 10
493.365323
 20
579.441659
 42
-0.540191
  0
VERTEX
  8
0
 10
493.166667
 20
579.750000
 42
-0.009726
  0
VERTEX
  8
0
 10
493.415994
 20
580.282813
 42
-0.000292
  0
VERTEX
  8
0
 10
494.499717
 20
582.482813
 42
-0.000580
  0
VERTEX
  8
0
 10
495.780739
 20
585.071930
 42
-0.000401
  0
VERTEX
  8
0
 10
497.236624
 20
588.000000
 42
0.034542
  0
VERTEX
  8
0
 10
500.240490
 20
595.242455
 42
0.040191
  0
VERTEX
  8
0
 10
502.039254
 20
602.474684
 42
0.041423
  0
VERTEX
  8
0
 10
502.623550
 20
609.705521
 42
0.041256
  0
VERTEX
  8
0
 10
502.009484
 20
616.943773
 42
0.033536
  0
VERTEX
  8
0
 10
500.613641
 20
622.795860
 42
0.026883
  0
VERTEX
  8
0
 10
498.362017
 20
628.870791
 42
0.027529
  0
VERTEX
  8
0
 10
495.575037
 20
634.443453
 42
0.045602
  0
VERTEX
  8
0
 10
492.565584
 20
638.750000
 42
0.000000
  0
VERTEX
  8
0
 10
489.822213
 20
642.000000
 42
0.000000
  0
VERTEX
  8
0
 10
655.911106
 20
642.000000
 42
0.000158
  0
VERTEX
  8
0
 10
765.661518
 20
642.034662
 42
0.002817
  0
VERTEX
  8
0
 10
800.994909
 20
642.256021
 42
0.003215
  0
VERTEX
  8
0
 10
820.778545
 20
642.618664
 42
0.192486
  0
VERTEX
  8
0
 10
824.000000
 20
644.000000
 42
0.101460
  0
VERTEX
  8
0
 10
825.657359
 20
646.512253
 42
0.149814
  0
VERTEX
  8
0
 10
825.876169
 20
649.125736
 42
0.138763
  0
VERTEX
  8
0
 10
824.580395
 20
651.557096
 42
0.082217
  0
VERTEX
  8
0
 10
821.928479
 20
653.536985
 42
0.119778
  0
VERTEX
  8
0
 10
815.486291
 20
655.105510
 42
0.000099
  0
VERTEX
  8
0
 10
650.920747
 20
655.140537
 42
0.000114
  0
VERTEX
  8
0
 10
486.834532
 20
655.105761
 42
0.102826
  0
SEQEND
  0
POLYLINE
  8
0
 66
1
 70
1
  0
VERTEX
  8
0
 10
371.993526
 20
633.065659
 42
0.053074
  0
VERTEX
  8
0
 10
366.464638
 20
630.719342
 42
0.053819
  0
VERTEX
  8
0
 10
361.581689
 20
627.270653
 42
0.053257
  0
VERTEX
  8
0
 10
357.504315
 20
622.822422
 42
0.049968
  0
VERTEX
  8
0
 10
354.357645
 20
617.520953
 42
0.106167
  0
VERTEX
  8
0
 10
352.077704
 20
607.525757
 42
0.097210
  0
VERTEX
  8
0
 10
353.981103
 20
597.129866
 42
0.093989
  0
VERTEX
  8
0
 10
359.768956
 20
587.945574
 42
0.091764
  0
VERTEX
  8
0
 10
368.561141
 20
581.426285
 42
0.020007
  0
VERTEX
  8
0
 10
371.857798
 20
579.973793
 42
0.051184
  0
VERTEX
  8
0
 10
374.367340
 20
579.271906
 42
0.045489
  0
VERTEX
  8
0
 10
377.134625
 20
579.051370
 42
0.013176
  0
VERTEX
  8
0
 10
381.419873
 20
579.213164
 42
0.067077
  0
VERTEX
  8
0
 10
389.939712
 20
580.922858
 42
0.087571
  0
VERTEX
  8
0
 10
396.877476
 20
584.773478
 42
0.086912
  0
VERTEX
  8
0
 10
402.114644
 20
590.792847
 42
0.065022
  0
VERTEX
  8
0
 10
405.648034
 20
598.861222
 42
0.086030
  0
VERTEX
  8
0
 10
406.748098
 20
608.706605
 42
0.093263
  0
VERTEX
  8
0
 10
404.398064
 20
618.052139
 42
0.092612
  0
VERTEX
  8
0
 10
398.791934
 20
625.954257
 42
0.083507
  0
VERTEX
  8
0
 10
390.520953
 20
631.642355
 42
0.052758
  0
VERTEX
  8
0
 10
386.283871
 20
633.095511
 42
0.037093
  0
VERTEX
  8
0
 10
381.296996
 20
633.853397
 42
0.037266
  0
VERTEX
  8
0
 10
376.289364
 20
633.864283
 42
0.055800
  0
SEQEND
  0
POLYLINE
  8
0
 66
1
 70
1
  0
VERTEX
  8
0
 10
433.362995
 20
632.077519
 42
0.063133
  0
VERTEX
  8
0
 10
426.420927
 20
627.798861
 42
0.075831
  0
VERTEX
  8
0
 10
421.248136
 20
622.144828
 42
0.076657
  0
VERTEX
  8
0
 10
418.035136
 20
615.259179
 42
0.066375
  0
VERTEX
  8
0
 10
416.834726
 20
607.371034
 42
0.092332
  0
VERTEX
  8
0
 10
418.687100
 20
596.292952
 42
0.103632
  0
VERTEX
  8
0
 10
424.387279
 20
587.126807
 42
0.105201
  0
VERTEX
  8
0
 10
433.206852
 20
581.115127
 42
0.097848
  0
VERTEX
  8
0
 10
443.946344
 20
579.009769
 42
0.095184
  0
VERTEX
  8
0
 10
454.715233
 20
581.095223
 42
0.104044
  0
VERTEX
  8
0
 10
463.563695
 20
586.999612
 42
0.103013
  0
VERTEX
  8
0
 10
469.344435
 20
596.023774
 42
0.091574
  0
VERTEX
  8
0
 10
471.362047
 20
607.000000
 42
0.073628
  0
VERTEX
  8
0
 10
470.206502
 20
614.759013
 42
0.073818
  0
VERTEX
  8
0
 10
466.852502
 20
621.842833
 42
0.072364
  0
VERTEX
  8
0
 10
461.513888
 20
627.759940
 42
0.066581
  0
VERTEX
  8
0
 10
454.565376
 20
632.109589
 42
0.068022
  0
VERTEX
  8
0
 10
449.874094
 20
633.512105
 42
0.039065
  0
VERTEX
  8
0
 10
443.978415
 20
633.964471
 42
0.039044
  0
VERTEX
  8
0
 10
438.076180
 20
633.493893
 42
0.067261
  0
SEQEND
  0
POLYLINE
  8
0
 66
1
 70
1
  0
VERTEX
  8
0
 10
546.000000
 20
629.336411
 42
0.105408
  0
VERTEX
  8
0
 10
542.875257
 20
627.248548
 42
0.130620
  0
VERTEX
  8
0
 10
541.167366
 20
624.209128
 42
0.150780
  0
VERTEX
  8
0
 10
541.316468
 20
621.047858
 42
0.154550
  0
VERTEX
  8
0
 10
543.222506
 20
618.556704
 42
0.148613
  0
VERTEX
  8
0
 10
546.219130
 20
617.577117
 42
0.002102
  0
VERTEX
  8
0
 10
565.371267
 20
617.257707
 42
0.002809
  0
VERTEX
  8
0
 10
596.536327
 20
617.044127
 42
0.000309
  0
VERTEX
  8
0
 10
668.033945
 20
617.000000
 42
0.000214
  0
VERTEX
  8
0
 10
749.327505
 20
617.034854
 42
0.003870
  0
VERTEX
  8
0
 10
775.351279
 20
617.258621
 42
0.006160
  0
VERTEX
  8
0
 10
789.520037
 20
617.664793
 42
0.179142
  0
VERTEX
  8
0
 10
792.811439
 20
619.038955
 42
0.076191
  0
VERTEX
  8
0
 10
794.345641
 20
620.980704
 42
0.123856
  0
VERTEX
  8
0
 10
794.903496
 20
622.995299
 42
0.124879
  0
VERTEX
  8
0
 10
794.440039
 20
625.022171
 42
0.078192
  0
VERTEX
  8
0
 10
793.000000
 20
627.000000
 42
0.188458
  0
VERTEX
  8
0
 10
789.929624
 20
628.344903
 42
0.005896
  0
VERTEX
  8
0
 10
775.974456
 20
628.742919
 42
0.003929
  0
VERTEX
  8
0
 10
750.542311
 20
628.968330
 42
0.000228
  0
VERTEX
  8
0
 10
672.750000
 20
629.011006
 42
-0.000360
  0
VERTEX
  8
0
 10
627.166887
 20
629.048102
 42
-0.000575
  0
VERTEX
  8
0
 10
588.207812
 20
629.152697
 42
-0.000103
  0
VERTEX
  8
0
 10
553.777835
 20
629.291827
 42
-0.031330
  0
VERTEX
  8
0
 10
551.000000
 20
629.477904
 42
0.019865
  0
VERTEX
  8
0
 10
549.549990
 20
629.608467
 42
0.019594
  0
VERTEX
  8
0
 10
548.087500
 20
629.624396
 42
0.019902
  0
VERTEX
  8
0
 10
546.808259
 20
629.537159
 42
0.067883
  0
SEQEND
  0
POLYLINE
  8
0
 66
1
 70
1
  0
VERTEX
  8
0
 10
538.454545
 20
602.545455
 42
0.056724
  0
VERTEX
  8
0
 10
536.801644
 20
600.467986
 42
0.113303
  0
VERTEX
  8
0
 10
536.118771
 20
598.494337
 42
0.117109
  0
VERTEX
  8
0
 10
536.375224
 20
596.464842
 42
0.063123
  0
VERTEX
  8
0
 10
537.556704
 20
594.222506
 42
0.000000
  0
VERTEX
  8
0
 10
539.113408
 20
592.000000
 42
0.000000
  0
VERTEX
  8
0
 10
633.500000
 20
592.000000
 42
0.000000
  0
VERTEX
  8
0
 10
727.886592
 20
592.000000
 42
0.000000
  0
VERTEX
  8
0
 10
729.443296
 20
594.222506
 42
0.072370
  0
VERTEX
  8
0
 10
730.650893
 20
596.620426
 42
0.111779
  0
VERTEX
  8
0
 10
730.880220
 20
598.919829
 42
0.115363
  0
VERTEX
  8
0
 10
730.098348
 20
601.042396
 42
0.080582
  0
VERTEX
  8
0
 10
728.365141
 20
602.927420
 42
0.151300
  0
VERTEX
  8
0
 10
724.846403
 20
604.276824
 42
0.011018
  0
VERTEX
  8
0
 10
714.349667
 20
604.737265
 42
0.005160
  0
VERTEX
  8
0
 10
694.575578
 20
604.964348
 42
0.000291
  0
VERTEX
  8
0
 10
633.319687
 20
605.000000
 42
0.000000
  0
VERTEX
  8
0
 10
540.909091
 20
605.000000
 42
0.000000
  0
SEQEND
  0
ENDSEC
  0
EOF
