  0
SECTION
  2
HEADER
  9
$ACADVER
  1
AC1006
  9
$EXTMIN
 10
0.000000
 20
0.000000
 30
0.000000
  9
$EXTMAX
 10
1024.000000
 20
1024.000000
 30
0.000000
  0
ENDSEC
  0
SECTION
  2
ENTITIES
  0
POLYLINE
  8
0
 66
1
 70
1
  0
VERTEX
  8
0
 10
151.000000
 20
794.417338
 42
0.083108
  0
VERTEX
  8
0
 10
134.500223
 20
786.973995
 42
0.096194
  0
VERTEX
  8
0
 10
122.278115
 20
774.848834
 42
0.082420
  0
VERTEX
  8
0
 10
114.223149
 20
757.428744
 42
0.045315
  0
VERTEX
  8
0
 10
110.051634
 20
734.251584
 42
0.033639
  0
VERTEX
  8
0
 10
109.441869
 20
704.151503
 42
0.031793
  0
VERTEX
  8
0
 10
112.827076
 20
673.658663
 42
0.032197
  0
VERTEX
  8
0
 10
119.978586
 20
644.244220
 42
0.036957
  0
VERTEX
  8
0
 10
130.613016
 20
617.366172
 42
-0.001548
  0
VERTEX
  8
0
 10
132.678010
 20
613.064321
 42
-0.002453
  0
VERTEX
  8
0
 10
134.417573
 20
609.364829
 42
-0.000554
  0
VERTEX
  8
0
 10
135.923098
 20
606.112419
 42
-0.108528
  0
VERTEX
  8
0
 10
136.000000
 20
605.762296
 42
-0.386252
  0
VERTEX
  8
0
 10
135.817381
 20
605.561165
 42
-0.001316
  0
VERTEX
  8
0
 10
132.254687
 20
605.226106
 42
-0.005723
  0
VERTEX
  8
0
 10
128.138842
 20
604.897398
 42
-0.003444
  0
VERTEX
  8
0
 10
123.250000
 20
604.597035
 42
0.010063
  0
VERTEX
  8
0
 10
113.044115
 20
603.834283
 42
0.044797
  0
VERTEX
  8
0
 10
107.142165
 20
602.734326
 42
0.073738
  0
VERTEX
  8
0
 10
103.079985
 20
600.915387
 42
0.067069
  0
VERTEX
  8
0
 10
99.570989
 20
597.946896
 42
0.097018
  0
VERTEX
  8
0
 10
96.230777
 20
592.390748
 42
0.101099
  0
VERTEX
  8
0
 10
95.298792
 20
586.067577
 42
0.097888
  0
VERTEX
  8
0
 10
96.921339
 20
579.721910
 42
0.085183
  0
VERTEX
  8
0
 10
100.887393
 20
574.112607
 42
0.055201
  0
VERTEX
  8
0
 10
103.783155
 20
571.794250
 42
0.011051
  0
VERTEX
  8
0
 10
109.455844
 20
568.372874
 42
0.009373
  0
VERTEX
  8
0
 10
117.349583
 20
564.041295
 42
0.003976
  0
VERTEX
  8
0
 10
128.084646
 20
558.518174
 42
-0.002329
  0
VERTEX
  8
0
 10
137.112776
 20
553.910788
 42
-0.003639
  0
VERTEX
  8
0
 10
144.837554
 20
549.851618
 42
-0.001068
  0
VERTEX
  8
0
 10
151.506393
 20
546.266810
 42
-0.122547
  0
VERTEX
  8
0
 10
152.234687
 20
545.602819
 42
-0.123777
  0
VERTEX
  8
0
 10
152.811773
 20
543.978507
 42
-0.023343
  0
VERTEX
  8
0
 10
152.965301
 20
540.808338
 42
-0.018908
  0
VERTEX
  8
0
 10
152.851014
 20
537.643618
 42
-0.243768
  0
VERTEX
  8
0
 10
152.250000
 20
536.667983
 42
-0.224742
  0
VERTEX
  8
0
 10
151.650804
 20
536.608872
 42
-0.002044
  0
VERTEX
  8
0
 10
147.314063
 20
538.181559
 42
-0.006433
  0
VERTEX
  8
0
 10
142.304099
 20
540.095102
 42
-0.004051
  0
VERTEX
  8
0
 10
136.500000
 20
542.452566
 42
0.004527
  0
VERTEX
  8
0
 10
125.217901
 20
547.022541
 42
0.031764
  0
VERTEX
  8
0
 10
119.574298
 20
548.844697
 42
0.061608
  0
VERTEX
  8
0
 10
115.439856
 20
549.367312
 42
0.050339
  0
VERTEX
  8
0
 10
111.000000
 20
548.931184
 42
-0.014042
  0
VERTEX
  8
0
 10
108.604304
 20
548.518891
 42
-0.003882
  0
VERTEX
  8
0
 10
104.819878
 20
548.006478
 42
-0.003917
  0
VERTEX
  8
0
 10
100.523078
 20
547.492803
 42
-0.004091
  0
VERTEX
  8
0
 10
96.280434
 20
547.054403
 42
0.011168
  0
VERTEX
  8
0
 10
92.146927
 20
546.568060
 42
0.012362
  0
VERTEX
  8
0
 10
88.177648
 20
545.910470
 42
0.011790
  0
VERTEX
  8
0
 10
84.827324
 20
545.187684
 42
0.060371
  0
VERTEX
  8
0
 10
83.047361
 20
544.524491
 42
0.077422
  0
VERTEX
  8
0
 10
80.721436
 20
542.822254
 42
0.058923
  0
VERTEX
  8
0
 10
78.765796
 20
540.337323
 42
0.059026
  0
VERTEX
  8
0
 10
77.446886
 20
537.470119
 42
0.078466
  0
VERTEX
  8
0
 10
77.000000
 20
534.640011
 42
-0.208530
  0
VERTEX
  8
0
 10
76.309478
 20
533.056320
 42
-0.112524
  0
VERTEX
  8
0
 10
74.433366
 20
531.971255
 42
-0.037140
  0
VERTEX
  8
0
 10
70.467123
 20
531.059296
 42
-0.003865
  0
VERTEX
  8
0
 10
61.000000
 20
529.686282
 42
0.200692
  0
VERTEX
  8
0
 10
60.289209
 20
529.267506
 42
0.085017
  0
VERTEX
  8
0
 10
59.775732
 20
528.263214
 42
0.048154
  0
VERTEX
  8
0
 10
59.421578
 20
526.574921
 42
0.014375
  0
VERTEX
  8
0
 10
59.206323
 20
523.948971
 42
0.012522
  0
VERTEX
  8
0
 10
59.106815
 20
520.395951
 42
0.108504
  0
VERTEX
  8
0
 10
59.439720
 20
518.858245
 42
0.135675
  0
VERTEX
  8
0
 10
60.366968
 20
517.755296
 42
0.023476
  0
VERTEX
  8
0
 10
62.706323
 20
516.304623
 42
0.017706
  0
VERTEX
  8
0
 10
68.366832
 20
513.409821
 42
0.001094
  0
VERTEX
  8
0
 10
85.489444
 20
505.450426
 42
0.001709
  0
VERTEX
  8
0
 10
105.047853
 20
496.491770
 42
0.001625
  0
VERTEX
  8
0
 10
125.000000
 20
487.513219
 42
-0.001150
  0
VERTEX
  8
0
 10
138.931867
 20
481.259733
 42
-0.000811
  0
VERTEX
  8
0
 10
154.563935
 20
474.169327
 42
-0.000782
  0
VERTEX
  8
0
 10
170.905562
 20
466.694216
 42
-0.000815
  0
VERTEX
  8
0
 10
187.000000
 20
459.269909
 42
0.001332
  0
VERTEX
  8
0
 10
190.824866
 20
457.510305
 42
0.000449
  0
VERTEX
  8
0
 10
196.409375
 20
454.965252
 42
0.000447
  0
VERTEX
  8
0
 10
202.590054
 20
452.161866
 42
0.000512
  0
VERTEX
  8
0
 10
208.500000
 20
449.494932
 42
-0.000672
  0
VERTEX
  8
0
 10
214.505316
 20
446.782648
 42
-0.000536
  0
VERTEX
  8
0
 10
220.975202
 20
443.841695
 42
-0.000542
  0
VERTEX
  8
0
 10
226.961077
 20
441.105172
 42
-0.001368
  0
VERTEX
  8
0
 10
231.309199
 20
439.097259
 42
0.001697
  0
VERTEX
  8
0
 10
234.716083
 20
437.526720
 42
0.002670
  0
VERTEX
  8
0
 10
237.653530
 20
436.203570
 42
0.000676
  0
VERTEX
  8
0
 10
240.226235
 20
435.065361
 42
0.104169
  0
VERTEX
  8
0
 10
240.536557
 20
435.000000
 42
-0.104746
  0
VERTEX
  8
0
 10
240.852861
 20
434.933002
 42
-0.000334
  0
VERTEX
  8
0
 10
244.583845
 20
433.275207
 42
-0.001862
  0
VERTEX
  8
0
 10
248.800760
 20
431.379282
 42
-0.001162
  0
VERTEX
  8
0
 10
253.727357
 20
429.128365
 42
0.001546
  0
VERTEX
  8
0
 10
281.330640
 20
416.542234
 42
0.000542
  0
VERTEX
  8
0
 10
321.052992
 20
398.630210
 42
0.000518
  0
VERTEX
  8
0
 10
366.575122
 20
378.218936
 42
0.000474
  0
VERTEX
  8
0
 10
413.500000
 20
357.290421
 42
-0.000488
  0
VERTEX
  8
0
 10
422.517629
 20
353.268262
 42
-0.000232
  0
VERTEX
  8
0
 10
434.115625
 20
348.075144
 42
-0.000230
  0
VERTEX
  8
0
 10
446.232598
 20
342.636197
 42
-0.000327
  0
VERTEX
  8
0
 10
457.000000
 20
337.788616
 42
0.000487
  0
VERTEX
  8
0
 10
467.587884
 20
333.025941
 42
0.000375
  0
VERTEX
  8
0
 10
479.150000
 20
327.849001
 42
0.000379
  0
VERTEX
  8
0
 10
489.963757
 20
323.026721
 42
0.000906
  0
VERTEX
  8
0
 10
498.000000
 20
319.467793
 42
-0.000718
  0
VERTEX
  8
0
 10
506.067446
 20
315.898689
 42
-0.000295
  0
VERTEX
  8
0
 10
516.996875
 20
311.036928
 42
-0.000292
  0
VERTEX
  8
0
 10
528.720395
 20
305.805440
 42
-0.000375
  0
VERTEX
  8
0
 10
539.500000
 20
300.977927
 42
0.000255
  0
VERTEX
  8
0
 10
550.024756
 20
296.261529
 42
0.000227
  0
VERTEX
  8
0
 10
560.975000
 20
291.367130
 42
0.000228
  0
VERTEX
  8
0
 10
570.830425
 20
286.972824
 42
0.000702
  0
VERTEX
  8
0
 10
577.500000
 20
284.013864
 42
-0.001331
  0
VERTEX
  8
0
 10
584.438569
 20
280.925111
 42
-0.000353
  0
VERTEX
  8
0
 10
595.500845
 20
275.955968
 42
-0.000358
  0
VERTEX
  8
0
 10
608.075849
 20
270.285829
 42
-0.000368
  0
VERTEX
  8
0
 10
620.524153
 20
264.651063
 42
0.003421
  0
VERTEX
  8
0
 10
632.394104
 20
259.365171
 42
0.004601
  0
VERTEX
  8
0
 10
643.219039
 20
254.751301
 42
0.003194
  0
VERTEX
  8
0
 10
652.343329
 20
251.029295
 42
0.048415
  0
VERTEX
  8
0
 10
655.621760
 20
250.071732
 42
-0.021921
  0
VERTEX
  8
0
 10
657.986263
 20
249.514966
 42
-0.010819
  0
VERTEX
  8
0
 10
660.938715
 20
248.612241
 42
-0.010714
  0
VERTEX
  8
0
 10
663.967515
 20
247.541557
 42
-0.015380
  0
VERTEX
  8
0
 10
666.597607
 20
246.454372
 42
0.003257
  0
VERTEX
  8
0
 10
679.023824
 20
240.961471
 42
0.003823
  0
VERTEX
  8
0
 10
690.875603
 20
235.921890
 42
0.000535
  0
VERTEX
  8
0
 10
702.071266
 20
231.276111
 42
0.303229
  0
VERTEX
  8
0
 10
702.743264
 20
231.409930
 42
0.167611
  0
VERTEX
  8
0
 10
702.868136
 20
231.666296
 42
0.067321
  0
VERTEX
  8
0
 10
702.862876
 20
232.061393
 42
0.056453
  0
VERTEX
  8
0
 10
702.739548
 20
232.523997
 42
0.045094
  0
VERTEX
  8
0
 10
702.508701
 20
232.985921
 42
0.137749
  0
VERTEX
  8
0
 10
701.363453
 20
234.038898
 42
0.001564
  0
VERTEX
  8
0
 10
691.974055
 20
238.767659
 42
0.005090
  0
VERTEX
  8
0
 10
681.757086
 20
243.743876
 42
0.004814
  0
VERTEX
  8
0
 10
671.250000
 20
248.606309
 42
-0.018796
  0
VERTEX
  8
0
 10
667.157091
 20
250.641208
 42
-0.214819
  0
VERTEX
  8
0
 10
666.094754
 20
252.042662
 42
-0.473736
  0
VERTEX
  8
0
 10
666.780102
 20
252.926780
 42
-0.034710
  0
VERTEX
  8
0
 10
670.293824
 20
252.776129
 42
-0.060441
  0
VERTEX
  8
0
 10
675.055686
 20
251.646217
 42
-0.003538
  0
VERTEX
  8
0
 10
689.023704
 20
246.376094
 42
-0.005946
  0
VERTEX
  8
0
 10
703.705302
 20
240.516275
 42
-0.009198
  0
VERTEX
  8
0
 10
716.228043
 20
235.072893
 42
0.002402
  0
VERTEX
  8
0
 10
721.396160
 20
232.742400
 42
0.050215
  0
VERTEX
  8
0
 10
723.003878
 20
232.212326
 42
0.291766
  0
VERTEX
  8
0
 10
723.700538
 20
232.466339
 42
0.164816
  0
VERTEX
  8
0
 10
724.000000
 20
233.350136
 42
0.279537
  0
VERTEX
  8
0
 10
723.202919
 20
234.664443
 42
0.004038
  0
VERTEX
  8
0
 10
714.722526
 20
238.997855
 42
0.008873
  0
VERTEX
  8
0
 10
703.890951
 20
244.184523
 42
0.004104
  0
VERTEX
  8
0
 10
689.639408
 20
250.559625
 42
-0.002800
  0
VERTEX
  8
0
 10
682.781984
 20
253.605690
 42
-0.048985
  0
VERTEX
  8
0
 10
680.671160
 20
254.818506
 42
-0.329360
  0
VERTEX
  8
0
 10
680.381498
 20
255.707292
 42
-0.187973
  0
VERTEX
  8
0
 10
681.139408
 20
256.620194
 42
-0.019674
  0
VERTEX
  8
0
 10
682.138423
 20
257.123824
 42
-0.018866
  0
VERTEX
  8
0
 10
683.187842
 20
257.555039
 42
-0.019188
  0
VERTEX
  8
0
 10
684.141226
 20
257.864408
 42
-0.062107
  0
VERTEX
  8
0
 10
684.797926
 20
257.964565
 42
-0.103326
  0
VERTEX
  8
0
 10
686.775383
 20
257.607533
 42
-0.000747
  0
VERTEX
  8
0
 10
702.422819
 20
251.247860
 42
-0.003240
  0
VERTEX
  8
0
 10
717.969133
 20
244.784378
 42
-0.004803
  0
VERTEX
  8
0
 10
731.500000
 20
238.901823
 42
0.003959
  0
VERTEX
  8
0
 10
735.805420
 20
237.021388
 42
0.005751
  0
VERTEX
  8
0
 10
739.635937
 20
235.436216
 42
0.003061
  0
VERTEX
  8
0
 10
742.892106
 20
234.155461
 42
0.093084
  0
VERTEX
  8
0
 10
743.750000
 20
233.996698
 42
0.254564
  0
VERTEX
  8
0
 10
744.673940
 20
234.502866
 42
0.341872
  0
VERTEX
  8
0
 10
744.593427
 20
235.417987
 42
0.070904
  0
VERTEX
  8
0
 10
742.687898
 20
236.967248
 42
0.018867
  0
VERTEX
  8
0
 10
739.250000
 20
238.860300
 42
0.013293
  0
VERTEX
  8
0
 10
730.732018
 20
242.860228
 42
0.001717
  0
VERTEX
  8
0
 10
712.261267
 20
250.866332
 42
0.000346
  0
VERTEX
  8
0
 10
691.802687
 20
259.633987
 42
0.101392
  0
VERTEX
  8
0
 10
690.016309
 20
260.000000
 42
-0.251158
  0
VERTEX
  8
0
 10
689.318785
 20
260.373968
 42
-0.144900
  0
VERTEX
  8
0
 10
689.031044
 20
261.308372
 42
-0.102809
  0
VERTEX
  8
0
 10
689.270284
 20
262.526252
 42
-0.096934
  0
VERTEX
  8
0
 10
689.977210
 20
263.577210
 42
0.110077
  0
VERTEX
  8
0
 10
691.458574
 20
265.908165
 42
0.016341
  0
VERTEX
  8
0
 10
693.190554
 20
271.238329
 42
0.019302
  0
VERTEX
  8
0
 10
694.579395
 20
276.843221
 42
0.051119
  0
VERTEX
  8
0
 10
695.000000
 20
280.946452
 42
0.052194
  0
VERTEX
  8
0
 10
694.182981
 20
288.751930
 42
0.046037
  0
VERTEX
  8
0
 10
691.759081
 20
296.571277
 42
0.044744
  0
VERTEX
  8
0
 10
687.857470
 20
304.028536
 42
0.043340
  0
VERTEX
  8
0
 10
682.654676
 20
310.758806
 42
0.071636
  0
VERTEX
  8
0
 10
677.148786
 20
315.239106
 42
0.024978
  0
VERTEX
  8
0
 10
668.110041
 20
320.061220
 42
0.012565
  0
VERTEX
  8
0
 10
652.832097
 20
326.792638
 42
0.001917
  0
VERTEX
  8
0
 10
622.000000
 20
339.323935
 42
-0.000327
  0
VERTEX
  8
0
 10
607.044701
 20
345.346959
 42
-0.000490
  0
VERTEX
  8
0
 10
593.991856
 20
350.628594
 42
-0.000197
  0
VERTEX
  8
0
 10
582.800214
 20
355.175022
 42
-0.010877
  0
VERTEX
  8
0
 10
580.716955
 20
356.075561
 42
0.000000
  0
VERTEX
  8
0
 10
577.933911
 20
357.351142
 42
0.000000
  0
VERTEX
  8
0
 10
578.216955
 20
367.425571
 42
-0.005222
  0
VERTEX
  8
0
 10
578.420776
 20
372.712647
 42
-0.031289
  0
VERTEX
  8
0
 10
578.727266
 20
375.449228
 42
-0.076366
  0
VERTEX
  8
0
 10
579.199525
 20
376.843774
 42
-0.338514
  0
VERTEX
  8
0
 10
579.933991
 20
377.188670
 42
-0.008625
  0
VERTEX
  8
0
 10
580.962975
 20
376.946612
 42
-0.000243
  0
VERTEX
  8
0
 10
585.372387
 20
375.826467
 42
-0.000496
  0
VERTEX
  8
0
 10
590.557247
 20
374.501180
 42
-0.000341
  0
VERTEX
  8
0
 10
596.433991
 20
372.988571
 42
0.010751
  0
VERTEX
  8
0
 10
612.214646
 20
369.275308
 42
0.006587
  0
VERTEX
  8
0
 10
630.962421
 20
365.544665
 42
0.006497
  0
VERTEX
  8
0
 10
650.314527
 20
362.217625
 42
0.008627
  0
VERTEX
  8
0
 10
668.000000
 20
359.725191
 42
0.008605
  0
VERTEX
  8
0
 10
678.603153
 20
358.601901
 42
0.011518
  0
VERTEX
  8
0
 10
688.254532
 20
357.970757
 42
0.008460
  0
VERTEX
  8
0
 10
699.947153
 20
357.674309
 42
0.002449
  0
VERTEX
  8
0
 10
718.000000
 20
357.610576
 42
0.001906
  0
VERTEX
  8
0
 10
736.684729
 20
357.707371
 42
0.010012
  0
VERTEX
  8
0
 10
746.948078
 20
358.005259
 42
0.017077
  0
VERTEX
  8
0
 10
754.432155
 20
358.629308
 42
0.016137
  0
VERTEX
  8
0
 10
762.000000
 20
359.770077
 42
0.000000
  0
VERTEX
  8
0
 10
773.500000
 20
361.885108
 42
0.000000
  0
VERTEX
  8
0
 10
791.500000
 20
354.975216
 42
-0.000980
  0
VERTEX
  8
0
 10
800.671375
 20
351.433843
 42
-0.000329
  0
VERTEX
  8
0
 10
814.053125
 20
346.226421
 42
-0.000327
  0
VERTEX
  8
0
 10
828.854397
 20
340.444245
 42
-0.000374
  0
VERTEX
  8
0
 10
843.000000
 20
334.895340
 42
0.000603
  0
VERTEX
  8
0
 10
878.432498
 20
321.014904
 42
0.004256
  0
VERTEX
  8
0
 10
895.720451
 20
314.435523
 42
0.005495
  0
VERTEX
  8
0
 10
906.300128
 20
310.643665
 42
0.083482
  0
VERTEX
  8
0
 10
910.128365
 20
310.000000
 42
-0.073443
  0
VERTEX
  8
0
 10
912.061046
 20
309.714578
 42
-0.006646
  0
VERTEX
  8
0
 10
916.727779
 20
308.237500
 42
-0.008511
  0
VERTEX
  8
0
 10
922.266537
 20
306.297845
 42
-0.006554
  0
VERTEX
  8
0
 10
928.244398
 20
304.000000
 42
0.003103
  0
VERTEX
  8
0
 10
934.104444
 20
301.700902
 42
0.004581
  0
VERTEX
  8
0
 10
939.277574
 20
299.762500
 42
0.002178
  0
VERTEX
  8
0
 10
943.693153
 20
298.175686
 42
0.085366
  0
VERTEX
  8
0
 10
944.714666
 20
298.000000
 42
0.474666
  0
VERTEX
  8
0
 10
945.367193
 20
298.799627
 42
0.199081
  0
VERTEX
  8
0
 10
944.465495
 20
300.132084
 42
0.035270
  0
VERTEX
  8
0
 10
940.082461
 20
302.597219
 42
0.009056
  0
VERTEX
  8
0
 10
932.669436
 20
305.940719
 42
-0.006312
  0
VERTEX
  8
0
 10
927.333714
 20
308.312134
 42
-0.017223
  0
VERTEX
  8
0
 10
923.642678
 20
310.165223
 42
-0.018358
  0
VERTEX
  8
0
 10
921.247397
 20
311.589464
 42
-0.547183
  0
VERTEX
  8
0
 10
921.249573
 20
312.175406
 42
-0.137177
  0
VERTEX
  8
0
 10
923.568081
 20
312.875052
 42
-0.050626
  0
VERTEX
  8
0
 10
927.002539
 20
312.597147
 42
-0.028791
  0
VERTEX
  8
0
 10
932.174040
 20
311.334490
 42
-0.006644
  0
VERTEX
  8
0
 10
940.719166
 20
308.594192
 42
0.004068
  0
VERTEX
  8
0
 10
948.726191
 20
305.980895
 42
0.033464
  0
VERTEX
  8
0
 10
952.450075
 20
305.067879
 42
0.111166
  0
VERTEX
  8
0
 10
954.288222
 20
305.155977
 42
0.337361
  0
VERTEX
  8
0
 10
955.000000
 20
306.090836
 42
0.302008
  0
VERTEX
  8
0
 10
954.593844
 20
306.701931
 42
0.001063
  0
VERTEX
  8
0
 10
946.104133
 20
310.246173
 42
0.005622
  0
VERTEX
  8
0
 10
938.249868
 20
313.402505
 42
0.018758
  0
VERTEX
  8
0
 10
933.000000
 20
315.220421
 42
-0.181874
  0
VERTEX
  8
0
 10
932.584889
 20
315.539714
 42
-0.314187
  0
VERTEX
  8
0
 10
932.607199
 20
315.956164
 42
-0.090835
  0
VERTEX
  8
0
 10
933.244735
 20
316.523569
 42
-0.016817
  0
VERTEX
  8
0
 10
934.619535
 20
317.297016
 42
-0.042443
  0
VERTEX
  8
0
 10
936.655658
 20
318.143489
 42
-0.101195
  0
VERTEX
  8
0
 10
938.276661
 20
318.318343
 42
-0.058351
  0
VERTEX
  8
0
 10
940.331826
 20
317.878535
 42
-0.007353
  0
VERTEX
  8
0
 10
944.619535
 20
316.351693
 42
0.004468
  0
VERTEX
  8
0
 10
951.943331
 20
313.695990
 42
0.017633
  0
VERTEX
  8
0
 10
956.518686
 20
312.262249
 42
0.021115
  0
VERTEX
  8
0
 10
959.542734
 20
311.566353
 42
0.309660
  0
VERTEX
  8
0
 10
960.491476
 20
311.986207
 42
0.327653
  0
VERTEX
  8
0
 10
960.416434
 20
312.925938
 42
0.086335
  0
VERTEX
  8
0
 10
959.176313
 20
313.940330
 42
0.028284
  0
VERTEX
  8
0
 10
956.283350
 20
315.362175
 42
0.003167
  0
VERTEX
  8
0
 10
949.509118
 20
318.177883
 42
-0.008216
  0
VERTEX
  8
0
 10
946.072576
 20
319.647149
 42
-0.013450
  0
VERTEX
  8
0
 10
943.217730
 20
321.016884
 42
-0.007066
  0
VERTEX
  8
0
 10
940.925093
 20
322.234987
 42
-0.352437
  0
VERTEX
  8
0
 10
940.742730
 20
322.677883
 42
-0.011854
  0
VERTEX
  8
0
 10
940.919131
 20
323.227057
 42
-0.000704
  0
VERTEX
  8
0
 10
941.494204
 20
324.874128
 42
-0.001060
  0
VERTEX
  8
0
 10
942.186034
 20
326.833365
 42
-0.000781
  0
VERTEX
  8
0
 10
942.960084
 20
329.000000
 42
0.066719
  0
VERTEX
  8
0
 10
944.819534
 20
337.662384
 42
0.062598
  0
VERTEX
  8
0
 10
944.395794
 20
346.705207
 42
0.061034
  0
VERTEX
  8
0
 10
941.714472
 20
355.568244
 42
0.057816
  0
VERTEX
  8
0
 10
936.937321
 20
363.699242
 42
0.060100
  0
VERTEX
  8
0
 10
930.604443
 20
370.272782
 42
0.069661
  0
VERTEX
  8
0
 10
923.178806
 20
374.773428
 42
0.022464
  0
VERTEX
  8
0
 10
909.826302
 20
379.812628
 42
0.001250
  0
VERTEX
  8
0
 10
867.500000
 20
393.532082
 42
-0.000682
  0
VERTEX
  8
0
 10
857.123068
 20
396.882581
 42
-0.001111
  0
VERTEX
  8
0
 10
848.328164
 20
399.757137
 42
-0.000116
  0
VERTEX
  8
0
 10
840.474457
 20
402.345419
 42
-0.109326
  0
VERTEX
  8
0
 10
840.149069
 20
402.538865
 42
-0.309260
  0
VERTEX
  8
0
 10
840.088874
 20
402.812185
 42
-0.008447
  0
VERTEX
  8
0
 10
840.589434
 20
403.996193
 42
-0.014635
  0
VERTEX
  8
0
 10
841.268211
 20
405.415332
 42
-0.009157
  0
VERTEX
  8
0
 10
842.140979
 20
407.037050
 42
-0.052678
  0
VERTEX
  8
0
 10
844.100763
 20
409.797972
 42
-0.198587
  0
VERTEX
  8
0
 10
845.966571
 20
410.713507
 42
-0.048618
  0
VERTEX
  8
0
 10
849.203142
 20
410.606468
 42
-0.001038
  0
VERTEX
  8
0
 10
865.000000
 20
408.504332
 42
0.012801
  0
VERTEX
  8
0
 10
874.611953
 20
407.454692
 42
0.029026
  0
VERTEX
  8
0
 10
881.919829
 20
407.270984
 42
0.038521
  0
VERTEX
  8
0
 10
887.629573
 20
407.901061
 42
0.065305
  0
VERTEX
  8
0
 10
892.191439
 20
409.399332
 42
0.058916
  0
VERTEX
  8
0
 10
895.527931
 20
411.516584
 42
0.100046
  0
VERTEX
  8
0
 10
897.620244
 20
414.060911
 42
0.084918
  0
VERTEX
  8
0
 10
898.764346
 20
417.520759
 42
0.033235
  0
VERTEX
  8
0
 10
899.185148
 20
422.549493
 42
0.058585
  0
VERTEX
  8
0
 10
898.640170
 20
427.981230
 42
0.136208
  0
VERTEX
  8
0
 10
896.738588
 20
431.565434
 42
0.070418
  0
VERTEX
  8
0
 10
892.431639
 20
434.989269
 42
0.007984
  0
VERTEX
  8
0
 10
881.569771
 20
441.137679
 42
-0.002834
  0
VERTEX
  8
0
 10
875.583699
 20
444.445182
 42
-0.001588
  0
VERTEX
  8
0
 10
868.340891
 20
448.531093
 42
-0.001584
  0
VERTEX
  8
0
 10
861.048142
 20
452.706373
 42
-0.002580
  0
VERTEX
  8
0
 10
854.888582
 20
456.301310
 42
0.000000
  0
VERTEX
  8
0
 10
841.277163
 20
464.339855
 42
0.000000
  0
VERTEX
  8
0
 10
837.029697
 20
472.919928
 42
0.030641
  0
VERTEX
  8
0
 10
826.495329
 20
491.278841
 42
0.021563
  0
VERTEX
  8
0
 10
812.554835
 20
510.588029
 42
0.019969
  0
VERTEX
  8
0
 10
795.714829
 20
530.245118
 42
0.016899
  0
VERTEX
  8
0
 10
776.426525
 20
549.661420
 42
0.005302
  0
VERTEX
  8
0
 10
765.560943
 20
559.668828
 42
0.010627
  0
VERTEX
  8
0
 10
756.730640
 20
567.296425
 42
0.009091
  0
VERTEX
  8
0
 10
746.745822
 20
575.256058
 42
0.002914
  0
VERTEX
  8
0
 10
731.634298
 20
586.720236
 42
0.011022
  0
VERTEX
  8
0
 10
704.619601
 20
606.052637
 42
0.014387
  0
VERTEX
  8
0
 10
679.041115
 20
622.459233
 42
0.013324
  0
VERTEX
  8
0
 10
651.052093
 20
638.295823
 42
0.007627
  0
VERTEX
  8
0
 10
616.500000
 20
655.977860
 42
0.013324
  0
VERTEX
  8
0
 10
545.157686
 20
688.792270
 42
0.017276
  0
VERTEX
  8
0
 10
478.034309
 20
714.819946
 42
0.018852
  0
VERTEX
  8
0
 10
414.877583
 20
734.194849
 42
0.024242
  0
VERTEX
  8
0
 10
355.500000
 20
746.943032
 42
0.008459
  0
VERTEX
  8
0
 10
334.030375
 20
750.102135
 42
0.007422
  0
VERTEX
  8
0
 10
311.509483
 20
752.688315
 42
0.007650
  0
VERTEX
  8
0
 10
290.695152
 20
754.444869
 42
0.017093
  0
VERTEX
  8
0
 10
274.826077
 20
754.995933
 42
0.000000
  0
VERTEX
  8
0
 10
267.152153
 20
755.000000
 42
0.000000
  0
VERTEX
  8
0
 10
253.326077
 20
763.715042
 42
0.015290
  0
VERTEX
  8
0
 10
234.775949
 20
774.629987
 42
0.018817
  0
VERTEX
  8
0
 10
216.815153
 20
783.610261
 42
0.020682
  0
VERTEX
  8
0
 10
200.134995
 20
790.362742
 42
0.034073
  0
VERTEX
  8
0
 10
185.500000
 20
794.494796
 42
0.035619
  0
VERTEX
  8
0
 10
177.744755
 20
795.554873
 42
0.016723
  0
VERTEX
  8
0
 10
167.621870
 20
795.870794
 42
0.016383
  0
VERTEX
  8
0
 10
157.739162
 20
795.524680
 42
0.047580
  0
SEQEND
  0
POLYLINE
  8
0
 66
1
 70
1
  0
VERTEX
  8
0
 10
185.184259
 20
782.461240
 42
-0.030756
  0
VERTEX
  8
0
 10
193.947973
 20
780.046876
 42
-0.014398
  0
VERTEX
  8
0
 10
204.969375
 20
775.909535
 42
-0.013746
  0
VERTEX
  8
0
 10
216.784040
 20
770.698506
 42
-0.014361
  0
VERTEX
  8
0
 10
228.120511
 20
764.916996
 42
-0.006727
  0
VERTEX
  8
0
 10
235.246104
 20
760.895754
 42
-0.017509
  0
VERTEX
  8
0
 10
240.227703
 20
757.756887
 42
-0.030622
  0
VERTEX
  8
0
 10
242.947145
 20
755.652878
 42
-0.692195
  0
VERTEX
  8
0
 10
242.701505
 20
755.000000
 42
-0.111863
  0
VERTEX
  8
0
 10
242.296255
 20
755.091814
 42
-0.000490
  0
VERTEX
  8
0
 10
238.255454
 20
757.026733
 42
-0.002336
  0
VERTEX
  8
0
 10
233.669481
 20
759.254659
 42
-0.001468
  0
VERTEX
  8
0
 10
228.329061
 20
761.899515
 42
0.012029
  0
VERTEX
  8
0
 10
213.592905
 20
768.813996
 42
0.032075
  0
VERTEX
  8
0
 10
202.691530
 20
772.799911
 42
0.044607
  0
VERTEX
  8
0
 10
193.817589
 20
774.573364
 42
0.061270
  0
VERTEX
  8
0
 10
185.688737
 20
774.457190
 42
0.061903
  0
VERTEX
  8
0
 10
181.706401
 20
773.396416
 42
0.072718
  0
VERTEX
  8
0
 10
178.337685
 20
771.426460
 42
0.077549
  0
VERTEX
  8
0
 10
175.839569
 20
768.699754
 42
0.085453
  0
VERTEX
  8
0
 10
174.392518
 20
765.427780
 42
0.089511
  0
VERTEX
  8
0
 10
174.139320
 20
761.674513
 42
0.028896
  0
VERTEX
  8
0
 10
175.080132
 20
756.159458
 42
0.028252
  0
VERTEX
  8
0
 10
176.833752
 20
750.134389
 42
0.031542
  0
VERTEX
  8
0
 10
179.204483
 20
744.570290
 42
0.076425
  0
VERTEX
  8
0
 10
194.401745
 20
723.210676
 42
0.043226
  0
VERTEX
  8
0
 10
218.475744
 20
702.373764
 42
0.036940
  0
VERTEX
  8
0
 10
250.279624
 20
682.734316
 42
0.025068
  0
VERTEX
  8
0
 10
289.000000
 20
665.012443
 42
0.015336
  0
VERTEX
  8
0
 10
314.118667
 20
655.887944
 42
0.027220
  0
VERTEX
  8
0
 10
335.375955
 20
650.156966
 42
0.029578
  0
VERTEX
  8
0
 10
355.864199
 20
647.065175
 42
0.022646
  0
VERTEX
  8
0
 10
378.500000
 20
646.037843
 42
0.022973
  0
VERTEX
  8
0
 10
400.862347
 20
647.064275
 42
0.028832
  0
VERTEX
  8
0
 10
421.378045
 20
650.153473
 42
0.030999
  0
VERTEX
  8
0
 10
440.055211
 20
655.304045
 42
0.036599
  0
VERTEX
  8
0
 10
456.904406
 20
662.511799
 42
0.022831
  0
VERTEX
  8
0
 10
464.258381
 20
666.752156
 42
0.023740
  0
VERTEX
  8
0
 10
471.096453
 20
671.594436
 42
0.025192
  0
VERTEX
  8
0
 10
476.695576
 20
676.446198
 42
0.063295
  0
VERTEX
  8
0
 10
480.085290
 20
680.638003
 42
0.072270
  0
VERTEX
  8
0
 10
481.796150
 20
684.582048
 42
0.065356
  0
VERTEX
  8
0
 10
482.392490
 20
688.989995
 42
0.064928
  0
VERTEX
  8
0
 10
481.831291
 20
693.429982
 42
0.069522
  0
VERTEX
  8
0
 10
480.151673
 20
697.467507
 42
-0.010855
  0
VERTEX
  8
0
 10
479.322636
 20
698.944989
 42
-0.017157
  0
VERTEX
  8
0
 10
478.683877
 20
700.249570
 42
-0.011394
  0
VERTEX
  8
0
 10
478.229414
 20
701.329842
 42
-0.298639
  0
VERTEX
  8
0
 10
478.290545
 20
701.623878
 42
-0.300920
  0
VERTEX
  8
0
 10
480.838292
 20
702.142444
 42
-0.000614
  0
VERTEX
  8
0
 10
520.467546
 20
686.082276
 42
-0.002427
  0
VERTEX
  8
0
 10
556.989082
 20
671.022340
 42
-0.050124
  0
VERTEX
  8
0
 10
567.422699
 20
665.374730
 42
-0.075384
  0
VERTEX
  8
0
 10
568.418718
 20
664.452818
 42
-0.441588
  0
VERTEX
  8
0
 10
568.319057
 20
663.827870
 42
-0.096615
  0
VERTEX
  8
0
 10
567.084993
 20
663.322974
 42
-0.006055
  0
VERTEX
  8
0
 10
563.198547
 20
662.601244
 42
-0.066662
  0
VERTEX
  8
0
 10
561.180633
 20
662.523768
 42
-0.049006
  0
VERTEX
  8
0
 10
558.981237
 20
662.952887
 42
-0.033037
  0
VERTEX
  8
0
 10
556.194539
 20
663.991234
 42
-0.010557
  0
VERTEX
  8
0
 10
552.198547
 20
665.891231
 42
0.011675
  0
VERTEX
  8
0
 10
541.921413
 20
670.749622
 42
0.001861
  0
VERTEX
  8
0
 10
521.551961
 20
679.712771
 42
0.000826
  0
VERTEX
  8
0
 10
499.937463
 20
689.085470
 42
0.040422
  0
VERTEX
  8
0
 10
495.497005
 20
690.590108
 42
0.080905
  0
VERTEX
  8
0
 10
493.555574
 20
690.754446
 42
0.463409
  0
VERTEX
  8
0
 10
493.026457
 20
690.022442
 42
0.190873
  0
VERTEX
  8
0
 10
493.920987
 20
688.767368
 42
0.044654
  0
VERTEX
  8
0
 10
496.250000
 20
687.539666
 42
-0.014481
  0
VERTEX
  8
0
 10
506.605486
 20
682.855081
 42
-0.002372
  0
VERTEX
  8
0
 10
526.332083
 20
673.117580
 42
-0.000255
  0
VERTEX
  8
0
 10
548.472216
 20
662.043674
 42
-0.283904
  0
VERTEX
  8
0
 10
549.000000
 20
661.189083
 42
-0.286372
  0
VERTEX
  8
0
 10
548.702402
 20
660.712096
 42
-0.009411
  0
VERTEX
  8
0
 10
546.576563
 20
659.720768
 42
-0.015368
  0
VERTEX
  8
0
 10
543.912194
 20
658.635553
 42
-0.009768
  0
VERTEX
  8
0
 10
540.750000
 20
657.529336
 42
0.001962
  0
VERTEX
  8
0
 10
537.401578
 20
656.416325
 42
0.002150
  0
VERTEX
  8
0
 10
534.162711
 20
655.310063
 42
0.002008
  0
VERTEX
  8
0
 10
531.400635
 20
654.340930
 42
0.010780
  0
VERTEX
  8
0
 10
529.910293
 20
653.774809
 42
-0.106112
  0
VERTEX
  8
0
 10
528.064740
 20
653.452018
 42
-0.064986
  0
VERTEX
  8
0
 10
525.877839
 20
653.823074
 42
-0.031847
  0
VERTEX
  8
0
 10
522.630471
 20
655.051085
 42
-0.005335
  0
VERTEX
  8
0
 10
516.592407
 20
657.863330
 42
0.001837
  0
VERTEX
  8
0
 10
512.441116
 20
659.832256
 42
0.002882
  0
VERTEX
  8
0
 10
508.856596
 20
661.491103
 42
0.000768
  0
VERTEX
  8
0
 10
505.722337
 20
662.913888
 42
0.106549
  0
VERTEX
  8
0
 10
505.322832
 20
663.000000
 42
-0.097691
  0
VERTEX
  8
0
 10
504.921467
 20
663.079175
 42
-0.000761
  0
VERTEX
  8
0
 10
501.858593
 20
664.341943
 42
-0.002760
  0
VERTEX
  8
0
 10
498.350440
 20
665.817277
 42
-0.001765
  0
VERTEX
  8
0
 10
494.289937
 20
667.568316
 42
0.011817
  0
VERTEX
  8
0
 10
487.892819
 20
670.175772
 42
0.045957
  0
VERTEX
  8
0
 10
483.777219
 20
671.321703
 42
0.139000
  0
VERTEX
  8
0
 10
481.733849
 20
671.123857
 42
0.399353
  0
VERTEX
  8
0
 10
481.183559
 20
669.949323
 42
0.193154
  0
VERTEX
  8
0
 10
481.690459
 20
669.351597
 42
0.001739
  0
VERTEX
  8
0
 10
486.999576
 20
666.571741
 42
0.005622
  0
VERTEX
  8
0
 10
493.199225
 20
663.441011
 42
0.003562
  0
VERTEX
  8
0
 10
500.491450
 20
659.925116
 42
-0.001799
  0
VERTEX
  8
0
 10
507.818831
 20
656.424069
 42
-0.002770
  0
VERTEX
  8
0
 10
514.129872
 20
653.337494
 42
-0.000903
  0
VERTEX
  8
0
 10
519.568613
 20
650.627856
 42
-0.080518
  0
VERTEX
  8
0
 10
520.298226
 20
650.101774
 42
-0.438393
  0
VERTEX
  8
0
 10
520.276679
 20
649.575537
 42
-0.018320
  0
VERTEX
  8
0
 10
518.629972
 20
648.279161
 42
-0.021576
  0
VERTEX
  8
0
 10
516.327231
 20
646.746874
 42
-0.012333
  0
VERTEX
  8
0
 10
513.427190
 20
645.089010
 42
0.011764
  0
VERTEX
  8
0
 10
509.855215
 20
643.052410
 42
0.005947
  0
VERTEX
  8
0
 10
505.447749
 20
640.328231
 42
0.005903
  0
VERTEX
  8
0
 10
500.960313
 20
637.405439
 42
0.008745
  0
VERTEX
  8
0
 10
497.103698
 20
634.729431
 42
0.026086
  0
VERTEX
  8
0
 10
487.910125
 20
627.351760
 42
0.010131
  0
VERTEX
  8
0
 10
475.954780
 20
616.243787
 42
0.010258
  0
VERTEX
  8
0
 10
464.160425
 20
604.353461
 42
0.019619
  0
VERTEX
  8
0
 10
455.278005
 20
594.258670
 42
-0.004987
  0
VERTEX
  8
0
 10
452.335078
 20
590.709887
 42
-0.007784
  0
VERTEX
  8
0
 10
449.723694
 20
587.719734
 42
-0.003067
  0
VERTEX
  8
0
 10
447.447025
 20
585.224288
 42
-0.209245
  0
VERTEX
  8
0
 10
446.934545
 20
585.000000
 42
-0.102259
  0
VERTEX
  8
0
 10
446.356624
 20
585.119444
 42
-0.002081
  0
VERTEX
  8
0
 10
443.621398
 20
586.314054
 42
-0.004815
  0
VERTEX
  8
0
 10
440.433347
 20
587.759111
 42
-0.003208
  0
VERTEX
  8
0
 10
436.807263
 20
589.473375
 42
0.007578
  0
VERTEX
  8
0
 10
421.328865
 20
596.626088
 42
0.001643
  0
VERTEX
  8
0
 10
394.370842
 20
608.485374
 42
0.001411
  0
VERTEX
  8
0
 10
358.286785
 20
624.097023
 42
0.000641
  0
VERTEX
  8
0
 10
311.000000
 20
644.325476
 42
-0.000811
  0
VERTEX
  8
0
 10
292.768975
 20
652.131692
 42
-0.000736
  0
VERTEX
  8
0
 10
273.962500
 20
660.253219
 42
-0.000736
  0
VERTEX
  8
0
 10
257.155110
 20
667.570203
 42
-0.002367
  0
VERTEX
  8
0
 10
246.000000
 20
672.509081
 42
0.000494
  0
VERTEX
  8
0
 10
236.599185
 20
676.713443
 42
0.000358
  0
VERTEX
  8
0
 10
226.115625
 20
681.380627
 42
0.000361
  0
VERTEX
  8
0
 10
216.149821
 20
685.800156
 42
0.000788
  0
VERTEX
  8
0
 10
208.500000
 20
689.171607
 42
-0.001144
  0
VERTEX
  8
0
 10
188.659452
 20
697.932679
 42
-0.005094
  0
VERTEX
  8
0
 10
177.075405
 20
703.221551
 42
-0.007232
  0
VERTEX
  8
0
 10
167.638776
 20
707.814353
 42
-0.004271
  0
VERTEX
  8
0
 10
156.500000
 20
713.556174
 42
-0.001043
  0
VERTEX
  8
0
 10
150.100419
 20
716.941594
 42
-0.001259
  0
VERTEX
  8
0
 10
144.104025
 20
720.149142
 42
-0.001069
  0
VERTEX
  8
0
 10
139.067210
 20
722.873632
 42
-0.008545
  0
VERTEX
  8
0
 10
136.769020
 20
724.174487
 42
0.039631
  0
VERTEX
  8
0
 10
134.144030
 20
725.452032
 42
0.158288
  0
VERTEX
  8
0
 10
132.381376
 20
725.557474
 42
0.524008
  0
VERTEX
  8
0
 10
132.090511
 20
724.763695
 42
0.080706
  0
VERTEX
  8
0
 10
133.500000
 20
723.325053
 42
0.041269
  0
VERTEX
  8
0
 10
149.361844
 20
713.554630
 42
0.003433
  0
VERTEX
  8
0
 10
192.651763
 20
691.959697
 42
0.004946
  0
VERTEX
  8
0
 10
240.887355
 20
668.898729
 42
0.006029
  0
VERTEX
  8
0
 10
286.500000
 20
648.309119
 42
-0.000884
  0
VERTEX
  8
0
 10
293.631925
 20
645.177687
 42
-0.000797
  0
VERTEX
  8
0
 10
301.003125
 20
641.911591
 42
-0.000798
  0
VERTEX
  8
0
 10
307.600620
 20
638.963096
 42
-0.002534
  0
VERTEX
  8
0
 10
312.000000
 20
636.961684
 42
0.002949
  0
VERTEX
  8
0
 10
316.838561
 20
634.765324
 42
0.000566
  0
VERTEX
  8
0
 10
325.640625
 20
630.844225
 42
0.000603
  0
VERTEX
  8
0
 10
335.922574
 20
626.292667
 42
0.000556
  0
VERTEX
  8
0
 10
346.500000
 20
621.639602
 42
-0.000301
  0
VERTEX
  8
0
 10
372.630473
 20
610.160537
 42
-0.000392
  0
VERTEX
  8
0
 10
396.538567
 20
599.618154
 42
-0.000353
  0
VERTEX
  8
0
 10
416.349660
 20
590.847040
 42
-0.002469
  0
VERTEX
  8
0
 10
426.000000
 20
586.509154
 42
0.001451
  0
VERTEX
  8
0
 10
429.224788
 20
585.051690
 42
0.001154
  0
VERTEX
  8
0
 10
432.713941
 20
583.496584
 42
0.001166
  0
VERTEX
  8
0
 10
435.954101
 20
582.070438
 42
0.002932
  0
VERTEX
  8
0
 10
438.324055
 20
581.050413
 42
-0.039500
  0
VERTEX
  8
0
 10
441.396030
 20
579.452946
 42
-0.160378
  0
VERTEX
  8
0
 10
442.726975
 20
577.854259
 42
-0.254877
  0
VERTEX
  8
0
 10
442.529925
 20
576.259195
 42
-0.096999
  0
VERTEX
  8
0
 10
440.843891
 20
574.671523
 42
-0.156139
  0
VERTEX
  8
0
 10
439.612732
 20
574.354280
 42
-0.052901
  0
VERTEX
  8
0
 10
437.765297
 20
574.658652
 42
-0.031420
  0
VERTEX
  8
0
 10
435.061791
 20
575.590138
 42
-0.008171
  0
VERTEX
  8
0
 10
430.843891
 20
577.428230
 42
0.001727
  0
VERTEX
  8
0
 10
425.353828
 20
579.905370
 42
0.000127
  0
VERTEX
  8
0
 10
410.245260
 20
586.655103
 42
0.000177
  0
VERTEX
  8
0
 10
392.220604
 20
594.694493
 42
0.000134
  0
VERTEX
  8
0
 10
372.437846
 20
603.503323
 42
-0.000066
  0
VERTEX
  8
0
 10
352.933495
 20
612.185023
 42
-0.000097
  0
VERTEX
  8
0
 10
335.777832
 20
619.827982
 42
-0.000045
  0
VERTEX
  8
0
 10
321.164163
 20
626.343447
 42
-0.001786
  0
VERTEX
  8
0
 10
317.937846
 20
627.796081
 42
0.001333
  0
VERTEX
  8
0
 10
312.241746
 20
630.366937
 42
0.000082
  0
VERTEX
  8
0
 10
295.250140
 20
637.978080
 42
0.000122
  0
VERTEX
  8
0
 10
278.554442
 20
645.448499
 42
0.000581
  0
VERTEX
  8
0
 10
269.000000
 20
649.707469
 42
-0.005879
  0
VERTEX
  8
0
 10
258.106220
 20
654.702474
 42
-0.000895
  0
VERTEX
  8
0
 10
236.509230
 20
664.961460
 42
-0.001083
  0
VERTEX
  8
0
 10
214.016931
 20
675.755007
 42
-0.002310
  0
VERTEX
  8
0
 10
196.690864
 20
684.214521
 42
0.000938
  0
VERTEX
  8
0
 10
189.060474
 20
687.966054
 42
0.001517
  0
VERTEX
  8
0
 10
182.553822
 20
691.125515
 42
0.000209
  0
VERTEX
  8
0
 10
176.761356
 20
693.913506
 42
0.112513
  0
VERTEX
  8
0
 10
176.381847
 20
694.000000
 42
0.792677
  0
VERTEX
  8
0
 10
175.789042
 20
691.471345
 42
0.001193
  0
VERTEX
  8
0
 10
245.625899
 20
657.030117
 42
0.004117
  0
VERTEX
  8
0
 10
319.929334
 20
621.362114
 42
0.004624
  0
VERTEX
  8
0
 10
392.000000
 20
588.303323
 42
-0.002288
  0
VERTEX
  8
0
 10
398.658881
 20
585.286457
 42
-0.001272
  0
VERTEX
  8
0
 10
406.751706
 20
581.550254
 42
-0.001268
  0
VERTEX
  8
0
 10
414.924791
 20
577.726514
 42
-0.002051
  0
VERTEX
  8
0
 10
421.856870
 20
574.427113
 42
0.000000
  0
VERTEX
  8
0
 10
437.213741
 20
567.040436
 42
0.000000
  0
VERTEX
  8
0
 10
434.460530
 20
562.270218
 42
-0.000446
  0
VERTEX
  8
0
 10
433.393869
 20
560.425916
 42
-0.000691
  0
VERTEX
  8
0
 10
432.469741
 20
558.836410
 42
-0.000196
  0
VERTEX
  8
0
 10
431.662749
 20
557.454029
 42
-0.022914
  0
VERTEX
  8
0
 10
431.549588
 20
557.279262
 42
-0.350136
  0
VERTEX
  8
0
 10
431.282671
 20
557.203441
 42
-0.000179
  0
VERTEX
  8
0
 10
422.729177
 20
560.791394
 42
-0.001848
  0
VERTEX
  8
0
 10
412.420243
 20
565.164929
 42
-0.000764
  0
VERTEX
  8
0
 10
398.500000
 20
571.156539
 42
0.000680
  0
VERTEX
  8
0
 10
391.612317
 20
574.122525
 42
0.020121
  0
VERTEX
  8
0
 10
389.834688
 20
574.801849
 42
0.304677
  0
VERTEX
  8
0
 10
389.389472
 20
574.680215
 42
0.327563
  0
VERTEX
  8
0
 10
389.354081
 20
574.236102
 42
0.127204
  0
VERTEX
  8
0
 10
390.037831
 20
573.580779
 42
0.001606
  0
VERTEX
  8
0
 10
395.338352
 20
570.630399
 42
0.004583
  0
VERTEX
  8
0
 10
401.539440
 20
567.278590
 42
0.002972
  0
VERTEX
  8
0
 10
408.768126
 20
563.511351
 42
-0.001479
  0
VERTEX
  8
0
 10
416.004111
 20
559.767748
 42
-0.002291
  0
VERTEX
  8
0
 10
422.226779
 20
556.488683
 42
-0.000689
  0
VERTEX
  8
0
 10
427.611266
 20
553.610173
 42
-0.072625
  0
VERTEX
  8
0
 10
428.280484
 20
553.114703
 42
-0.144136
  0
VERTEX
  8
0
 10
428.524950
 20
552.669532
 42
-0.054026
  0
VERTEX
  8
0
 10
428.602433
 20
551.954528
 42
-0.047819
  0
VERTEX
  8
0
 10
428.521418
 20
551.109360
 42
-0.041803
  0
VERTEX
  8
0
 10
428.280484
 20
550.254409
 42
-0.253431
  0
VERTEX
  8
0
 10
427.270202
 20
549.375200
 42
-0.133350
  0
VERTEX
  8
0
 10
425.559776
 20
549.452919
 42
-0.032389
  0
VERTEX
  8
0
 10
422.186841
 20
550.781758
 42
-0.002266
  0
VERTEX
  8
0
 10
413.000000
 20
555.158321
 42
0.002141
  0
VERTEX
  8
0
 10
405.845051
 20
558.569092
 42
0.000853
  0
VERTEX
  8
0
 10
396.003125
 20
563.188628
 42
0.000844
  0
VERTEX
  8
0
 10
385.367860
 20
568.136578
 42
0.001061
  0
VERTEX
  8
0
 10
375.500000
 20
572.681848
 42
-0.000146
  0
VERTEX
  8
0
 10
334.877217
 20
591.303175
 42
-0.000467
  0
VERTEX
  8
0
 10
307.797678
 20
603.756499
 42
-0.000681
  0
VERTEX
  8
0
 10
288.509961
 20
612.680224
 42
-0.001718
  0
VERTEX
  8
0
 10
274.500000
 20
619.243919
 42
0.000187
  0
VERTEX
  8
0
 10
267.368064
 20
622.611916
 42
0.000169
  0
VERTEX
  8
0
 10
259.996875
 20
626.086477
 42
0.000170
  0
VERTEX
  8
0
 10
253.397411
 20
629.191804
 42
0.000545
  0
VERTEX
  8
0
 10
249.000000
 20
631.253306
 42
-0.002664
  0
VERTEX
  8
0
 10
243.836111
 20
633.700885
 42
-0.000337
  0
VERTEX
  8
0
 10
232.721050
 20
639.051127
 42
-0.000395
  0
VERTEX
  8
0
 10
219.535236
 20
645.421928
 42
-0.000329
  0
VERTEX
  8
0
 10
205.518467
 20
652.219260
 42
0.000968
  0
VERTEX
  8
0
 10
191.759201
 20
658.869993
 42
0.001331
  0
VERTEX
  8
0
 10
179.363912
 20
664.791259
 42
0.000845
  0
VERTEX
  8
0
 10
168.921118
 20
669.724097
 42
0.016037
  0
VERTEX
  8
0
 10
165.604686
 20
671.155818
 42
-0.011329
  0
VERTEX
  8
0
 10
162.832050
 20
672.321939
 42
-0.002179
  0
VERTEX
  8
0
 10
157.865762
 20
674.570420
 42
-0.002319
  0
VERTEX
  8
0
 10
152.093560
 20
677.246599
 42
-0.002136
  0
VERTEX
  8
0
 10
146.185550
 20
680.049965
 42
0.002136
  0
VERTEX
  8
0
 10
140.571541
 20
682.713822
 42
0.003319
  0
VERTEX
  8
0
 10
135.704695
 20
684.958427
 42
0.001012
  0
VERTEX
  8
0
 10
131.469737
 20
686.867296
 42
0.105753
  0
VERTEX
  8
0
 10
130.849331
 20
687.000000
 42
0.386987
  0
VERTEX
  8
0
 10
130.085396
 20
686.304590
 42
0.036374
  0
VERTEX
  8
0
 10
130.026972
 20
683.539791
 42
0.037181
  0
VERTEX
  8
0
 10
130.393132
 20
680.647177
 42
0.175118
  0
VERTEX
  8
0
 10
131.250000
 20
679.240015
 42
0.045741
  0
VERTEX
  8
0
 10
136.226754
 20
675.938741
 42
0.002259
  0
VERTEX
  8
0
 10
153.608830
 20
666.672763
 42
0.003407
  0
VERTEX
  8
0
 10
175.418414
 20
655.362083
 42
0.001926
  0
VERTEX
  8
0
 10
202.000000
 20
641.934385
 42
0.001477
  0
VERTEX
  8
0
 10
237.779336
 20
624.165019
 42
0.003746
  0
VERTEX
  8
0
 10
263.905868
 20
611.528078
 42
0.003044
  0
VERTEX
  8
0
 10
293.134851
 20
597.877161
 42
0.000704
  0
VERTEX
  8
0
 10
342.500000
 20
575.271233
 42
0.003626
  0
VERTEX
  8
0
 10
353.176721
 20
570.493437
 42
0.000481
  0
VERTEX
  8
0
 10
375.845011
 20
560.572114
 42
0.000607
  0
VERTEX
  8
0
 10
399.807336
 20
550.146496
 42
0.001132
  0
VERTEX
  8
0
 10
419.250000
 20
541.767633
 42
-0.013043
  0
VERTEX
  8
0
 10
422.543738
 20
540.254174
 42
-0.142654
  0
VERTEX
  8
0
 10
423.608461
 20
539.281588
 42
-0.200295
  0
VERTEX
  8
0
 10
423.798920
 20
538.036882
 42
-0.029959
  0
VERTEX
  8
0
 10
423.026350
 20
535.569306
 42
0.000000
  0
VERTEX
  8
0
 10
422.052700
 20
533.008412
 42
0.000000
  0
VERTEX
  8
0
 10
416.776350
 20
535.084587
 42
-0.007086
  0
VERTEX
  8
0
 10
407.879324
 20
538.731887
 42
-0.000755
  0
VERTEX
  8
0
 10
387.333402
 20
547.533426
 42
-0.000973
  0
VERTEX
  8
0
 10
366.705213
 20
556.454704
 42
-0.003433
  0
VERTEX
  8
0
 10
353.500000
 20
562.304339
 42
-0.001389
  0
VERTEX
  8
0
 10
330.118125
 20
572.932904
 42
-0.000911
  0
VERTEX
  8
0
 10
303.244606
 20
585.298132
 42
-0.000916
  0
VERTEX
  8
0
 10
277.307407
 20
597.347574
 42
-0.001897
  0
VERTEX
  8
0
 10
257.105636
 20
606.871066
 42
-0.006279
  0
VERTEX
  8
0
 10
227.630086
 20
621.360117
 42
-0.002884
  0
VERTEX
  8
0
 10
189.565371
 20
640.945394
 42
-0.002258
  0
VERTEX
  8
0
 10
153.157210
 20
660.154364
 42
-0.017832
  0
VERTEX
  8
0
 10
136.655520
 20
669.727007
 42
0.009953
  0
VERTEX
  8
0
 10
135.156579
 20
670.628402
 42
0.015885
  0
VERTEX
  8
0
 10
133.837585
 20
671.331501
 42
0.009826
  0
VERTEX
  8
0
 10
132.739623
 20
671.846150
 42
0.310451
  0
VERTEX
  8
0
 10
132.461180
 20
671.794513
 42
0.266929
  0
VERTEX
  8
0
 10
132.152434
 20
670.650975
 42
0.005326
  0
VERTEX
  8
0
 10
133.810173
 20
664.629332
 42
0.009372
  0
VERTEX
  8
0
 10
135.568779
 20
658.904479
 42
0.099082
  0
VERTEX
  8
0
 10
136.765197
 20
656.787001
 42
0.078311
  0
VERTEX
  8
0
 10
138.810360
 20
655.055027
 42
0.000561
  0
VERTEX
  8
0
 10
158.111346
 20
643.347420
 42
0.002442
  0
VERTEX
  8
0
 10
177.664730
 20
631.646818
 42
0.003281
  0
VERTEX
  8
0
 10
195.500000
 20
621.249727
 42
0.009804
  0
VERTEX
  8
0
 10
218.977627
 20
608.374406
 42
0.001988
  0
VERTEX
  8
0
 10
261.150056
 20
586.524089
 42
0.002059
  0
VERTEX
  8
0
 10
303.630736
 20
564.948410
 42
0.008641
  0
VERTEX
  8
0
 10
329.431875
 20
552.531339
 42
0.000570
  0
VERTEX
  8
0
 10
348.881184
 20
543.608587
 42
0.000202
  0
VERTEX
  8
0
 10
376.759044
 20
530.871109
 42
0.000072
  0
VERTEX
  8
0
 10
405.772346
 20
517.634037
 42
0.003973
  0
VERTEX
  8
0
 10
411.250000
 20
515.188246
 42
-0.038199
  0
VERTEX
  8
0
 10
414.050874
 20
513.700197
 42
-0.104547
  0
VERTEX
  8
0
 10
415.646733
 20
512.143258
 42
-0.208864
  0
VERTEX
  8
0
 10
415.902266
 20
510.719580
 42
-0.198292
  0
VERTEX
  8
0
 10
415.037997
 20
509.523483
 42
-0.250316
  0
VERTEX
  8
0
 10
411.239918
 20
509.283800
 42
-0.000634
  0
VERTEX
  8
0
 10
360.906446
 20
532.294488
 42
-0.004168
  0
VERTEX
  8
0
 10
310.192198
 20
556.070753
 42
-0.004882
  0
VERTEX
  8
0
 10
262.500000
 20
579.492386
 42
-0.001047
  0
VERTEX
  8
0
 10
236.035411
 20
592.880981
 42
-0.004503
  0
VERTEX
  8
0
 10
220.370582
 20
601.025525
 42
-0.006772
  0
VERTEX
  8
0
 10
208.208054
 20
607.701698
 42
-0.005301
  0
VERTEX
  8
0
 10
195.187940
 20
615.263292
 42
0.006150
  0
VERTEX
  8
0
 10
191.967920
 20
617.126061
 42
0.009974
  0
VERTEX
  8
0
 10
189.181455
 20
618.620256
 42
0.004045
  0
VERTEX
  8
0
 10
186.803397
 20
619.810855
 42
0.320737
  0
VERTEX
  8
0
 10
186.412583
 20
619.745917
 42
0.480609
  0
VERTEX
  8
0
 10
186.505285
 20
618.911406
 42
0.000340
  0
VERTEX
  8
0
 10
208.039578
 20
605.306604
 42
0.003397
  0
VERTEX
  8
0
 10
228.397538
 20
592.656875
 42
0.006431
  0
VERTEX
  8
0
 10
245.000000
 20
582.787635
 42
0.003135
  0
VERTEX
  8
0
 10
252.749350
 20
578.379498
 42
0.001602
  0
VERTEX
  8
0
 10
262.528125
 20
572.938921
 42
0.001592
  0
VERTEX
  8
0
 10
272.640486
 20
567.397057
 42
0.002392
  0
VERTEX
  8
0
 10
281.500000
 20
562.633199
 42
-0.002136
  0
VERTEX
  8
0
 10
289.094136
 20
558.554773
 42
-0.003806
  0
VERTEX
  8
0
 10
295.302976
 20
555.124639
 42
-0.001241
  0
VERTEX
  8
0
 10
300.458448
 20
552.208143
 42
-0.769461
  0
VERTEX
  8
0
 10
300.403749
 20
552.001016
 42
-0.116636
  0
VERTEX
  8
0
 10
298.787705
 20
552.381613
 42
-0.000198
  0
VERTEX
  8
0
 10
273.124908
 20
565.221675
 42
-0.001665
  0
VERTEX
  8
0
 10
250.036572
 20
576.881427
 42
-0.006071
  0
VERTEX
  8
0
 10
235.500000
 20
584.507009
 42
-0.005628
  0
VERTEX
  8
0
 10
230.884646
 20
587.067576
 42
-0.001779
  0
VERTEX
  8
0
 10
224.049897
 20
590.992968
 42
-0.001776
  0
VERTEX
  8
0
 10
216.458297
 20
595.425104
 42
-0.001972
  0
VERTEX
  8
0
 10
209.159225
 20
599.760129
 42
0.002566
  0
VERTEX
  8
0
 10
202.481337
 20
603.715490
 42
0.004234
  0
VERTEX
  8
0
 10
196.793714
 20
606.980646
 42
0.000743
  0
VERTEX
  8
0
 10
191.771699
 20
609.797598
 42
0.335584
  0
VERTEX
  8
0
 10
191.414745
 20
609.748078
 42
0.477038
  0
VERTEX
  8
0
 10
191.518880
 20
608.758272
 42
0.000399
  0
VERTEX
  8
0
 10
214.762393
 20
593.696855
 42
0.003683
  0
VERTEX
  8
0
 10
236.623118
 20
579.783582
 42
0.007547
  0
VERTEX
  8
0
 10
254.000000
 20
569.264789
 42
0.006561
  0
VERTEX
  8
0
 10
288.161062
 20
549.881285
 42
0.009764
  0
VERTEX
  8
0
 10
318.596463
 20
533.902019
 42
0.008597
  0
VERTEX
  8
0
 10
352.340348
 20
517.737243
 42
0.003785
  0
VERTEX
  8
0
 10
397.500000
 20
497.463007
 42
0.000178
  0
VERTEX
  8
0
 10
406.022193
 20
493.717886
 42
0.000273
  0
VERTEX
  8
0
 10
413.404688
 20
490.481555
 42
0.000087
  0
VERTEX
  8
0
 10
419.805386
 20
487.681119
 42
0.007969
  0
VERTEX
  8
0
 10
420.750000
 20
487.285838
 42
0.322561
  0
VERTEX
  8
0
 10
421.330173
 20
487.430075
 42
0.111336
  0
VERTEX
  8
0
 10
421.753475
 20
488.240550
 42
0.046432
  0
VERTEX
  8
0
 10
422.029658
 20
489.881322
 42
0.011126
  0
VERTEX
  8
0
 10
422.172599
 20
492.643011
 42
0.000000
  0
VERTEX
  8
0
 10
422.345198
 20
498.500000
 42
0.000000
  0
VERTEX
  8
0
 10
422.922599
 20
492.097705
 42
0.000000
  0
VERTEX
  8
0
 10
423.500000
 20
485.695409
 42
0.000000
  0
VERTEX
  8
0
 10
436.000000
 20
480.278473
 42
-0.001025
  0
VERTEX
  8
0
 10
451.864976
 20
473.364652
 42
-0.000419
  0
VERTEX
  8
0
 10
473.391723
 20
463.909427
 42
-0.000342
  0
VERTEX
  8
0
 10
494.253574
 20
454.708351
 42
-0.002404
  0
VERTEX
  8
0
 10
504.390223
 20
450.170954
 42
-0.016882
  0
VERTEX
  8
0
 10
510.599646
 20
447.098802
 42
-0.861360
  0
VERTEX
  8
0
 10
510.378620
 20
446.482829
 42
-0.036450
  0
VERTEX
  8
0
 10
504.763243
 20
448.029013
 42
-0.004103
  0
VERTEX
  8
0
 10
492.335362
 20
452.562213
 42
-0.007154
  0
VERTEX
  8
0
 10
447.981446
 20
469.881800
 42
-0.004937
  0
VERTEX
  8
0
 10
398.247210
 20
490.701900
 42
-0.004043
  0
VERTEX
  8
0
 10
339.356927
 20
516.607525
 42
-0.002120
  0
VERTEX
  8
0
 10
266.500000
 20
549.734739
 42
-0.000008
  0
VERTEX
  8
0
 10
255.576396
 20
554.757786
 42
-0.000005
  0
VERTEX
  8
0
 10
243.409375
 20
560.352983
 42
-0.000006
  0
VERTEX
  8
0
 10
231.854640
 20
565.666919
 42
-0.000012
  0
VERTEX
  8
0
 10
223.000000
 20
569.739480
 42
-0.001064
  0
VERTEX
  8
0
 10
199.101599
 20
580.793593
 42
-0.001280
  0
VERTEX
  8
0
 10
176.676666
 20
591.294049
 42
-0.000436
  0
VERTEX
  8
0
 10
156.512804
 20
600.820262
 42
-0.030735
  0
VERTEX
  8
0
 10
153.257731
 20
602.614105
 42
-0.138544
  0
VERTEX
  8
0
 10
148.429275
 20
608.005945
 42
-0.014973
  0
VERTEX
  8
0
 10
141.464196
 20
623.393503
 42
-0.018390
  0
VERTEX
  8
0
 10
134.571566
 20
641.798503
 42
-0.017840
  0
VERTEX
  8
0
 10
128.972917
 20
660.846077
 42
-0.016670
  0
VERTEX
  8
0
 10
125.513012
 20
676.549305
 42
-0.019803
  0
VERTEX
  8
0
 10
123.335614
 20
691.573046
 42
-0.019343
  0
VERTEX
  8
0
 10
122.320232
 20
707.018185
 42
-0.014662
  0
VERTEX
  8
0
 10
122.360240
 20
724.000000
 42
-0.009586
  0
VERTEX
  8
0
 10
123.067899
 20
737.904709
 42
-0.025569
  0
VERTEX
  8
0
 10
124.267764
 20
747.760345
 42
-0.034168
  0
VERTEX
  8
0
 10
126.191023
 20
755.599606
 42
-0.036915
  0
VERTEX
  8
0
 10
129.128135
 20
762.896080
 42
-0.039876
  0
VERTEX
  8
0
 10
133.501604
 20
770.255388
 42
-0.061210
  0
VERTEX
  8
0
 10
138.484911
 20
775.733019
 42
-0.063369
  0
VERTEX
  8
0
 10
144.509359
 20
779.712690
 42
-0.046490
  0
VERTEX
  8
0
 10
152.000000
 20
782.569027
 42
-0.052942
  0
VERTEX
  8
0
 10
158.169134
 20
783.600098
 42
-0.015768
  0
VERTEX
  8
0
 10
167.729141
 20
783.870576
 42
-0.016388
  0
VERTEX
  8
0
 10
177.601866
 20
783.514796
 42
-0.034649
  0
SEQEND
  0
POLYLINE
  8
0
 66
1
 70
1
  0
VERTEX
  8
0
 10
308.000000
 20
741.565447
 42
-0.016378
  0
VERTEX
  8
0
 10
348.391619
 20
736.394301
 42
-0.018441
  0
VERTEX
  8
0
 10
386.775142
 20
728.734824
 42
-0.019909
  0
VERTEX
  8
0
 10
420.987415
 20
719.131571
 42
-0.033697
  0
VERTEX
  8
0
 10
448.608612
 20
708.072574
 42
-0.016289
  0
VERTEX
  8
0
 10
456.869273
 20
703.763819
 42
-0.030573
  0
VERTEX
  8
0
 10
463.188655
 20
699.673255
 42
-0.038334
  0
VERTEX
  8
0
 10
467.757304
 20
695.728589
 42
-0.076318
  0
VERTEX
  8
0
 10
470.564738
 20
691.874811
 42
-0.018013
  0
VERTEX
  8
0
 10
471.909452
 20
689.027535
 42
-0.219351
  0
VERTEX
  8
0
 10
471.878097
 20
687.851619
 42
-0.463034
  0
VERTEX
  8
0
 10
471.130034
 20
687.664589
 42
-0.033084
  0
VERTEX
  8
0
 10
469.250000
 20
689.211283
 42
0.075858
  0
VERTEX
  8
0
 10
461.523042
 20
694.533311
 42
0.010604
  0
VERTEX
  8
0
 10
443.835764
 20
702.655952
 42
0.012238
  0
VERTEX
  8
0
 10
422.809131
 20
711.172110
 42
0.011576
  0
VERTEX
  8
0
 10
401.000000
 20
718.818095
 42
0.022827
  0
VERTEX
  8
0
 10
364.360957
 20
728.895115
 42
0.020059
  0
VERTEX
  8
0
 10
325.344425
 20
736.101352
 42
0.019010
  0
VERTEX
  8
0
 10
283.781952
 20
740.460953
 42
0.015956
  0
VERTEX
  8
0
 10
239.500000
 20
741.993132
 42
-0.006386
  0
VERTEX
  8
0
 10
233.818393
 20
742.080915
 42
-0.010540
  0
VERTEX
  8
0
 10
229.023530
 20
742.317486
 42
-0.007535
  0
VERTEX
  8
0
 10
225.177419
 20
742.646929
 42
-0.128834
  0
VERTEX
  8
0
 10
224.000000
 20
743.085781
 42
-0.737883
  0
VERTEX
  8
0
 10
224.353273
 20
744.174988
 42
-0.000964
  0
VERTEX
  8
0
 10
257.599800
 20
743.637395
 42
-0.004087
  0
VERTEX
  8
0
 10
288.494365
 20
742.825554
 42
-0.015034
  0
SEQEND
  0
POLYLINE
  8
0
 66
1
 70
1
  0
VERTEX
  8
0
 10
335.068499
 20
720.396493
 42
-0.016016
  0
VERTEX
  8
0
 10
349.749114
 20
715.546192
 42
-0.009422
  0
VERTEX
  8
0
 10
366.985087
 20
708.861597
 42
-0.009037
  0
VERTEX
  8
0
 10
385.092599
 20
701.058459
 42
-0.009667
  0
VERTEX
  8
0
 10
402.500000
 20
692.771955
 42
-0.001820
  0
VERTEX
  8
0
 10
415.966862
 20
685.977555
 42
-0.008479
  0
VERTEX
  8
0
 10
423.650078
 20
681.900521
 42
-0.013416
  0
VERTEX
  8
0
 10
429.373212
 20
678.534563
 42
-0.011302
  0
VERTEX
  8
0
 10
435.250000
 20
674.675188
 42
-0.011739
  0
VERTEX
  8
0
 10
439.505580
 20
671.590849
 42
-0.121168
  0
VERTEX
  8
0
 10
440.856822
 20
669.916459
 42
-0.712275
  0
VERTEX
  8
0
 10
440.381922
 20
669.455226
 42
-0.019831
  0
VERTEX
  8
0
 10
436.750000
 20
671.471024
 42
0.017341
  0
VERTEX
  8
0
 10
420.343454
 20
680.684158
 42
0.008504
  0
VERTEX
  8
0
 10
398.868604
 20
691.323407
 42
0.008109
  0
VERTEX
  8
0
 10
375.018854
 20
702.167968
 42
0.008385
  0
VERTEX
  8
0
 10
351.093334
 20
712.108310
 42
-0.001112
  0
VERTEX
  8
0
 10
342.466899
 20
715.546070
 42
-0.001780
  0
VERTEX
  8
0
 10
335.118813
 20
718.523753
 42
-0.000321
  0
VERTEX
  8
0
 10
328.641727
 20
721.180214
 42
-0.099210
  0
VERTEX
  8
0
 10
328.176667
 20
721.490000
 42
-0.582740
  0
VERTEX
  8
0
 10
328.278147
 20
721.856865
 42
-0.101098
  0
VERTEX
  8
0
 10
329.198352
 20
721.897524
 42
-0.026223
  0
VERTEX
  8
0
 10
331.420406
 20
721.424401
 42
-0.006212
  0
SEQEND
  0
POLYLINE
  8
0
 66
1
 70
1
  0
VERTEX
  8
0
 10
586.039901
 20
657.561165
 42
-0.049193
  0
VERTEX
  8
0
 10
592.474780
 20
655.168646
 42
-0.003431
  0
VERTEX
  8
0
 10
609.769807
 20
646.575395
 42
-0.005099
  0
VERTEX
  8
0
 10
629.358103
 20
636.422423
 42
-0.004899
  0
VERTEX
  8
0
 10
649.000000
 20
625.738111
 42
-0.013345
  0
VERTEX
  8
0
 10
680.935974
 20
606.825060
 42
-0.015110
  0
VERTEX
  8
0
 10
710.493645
 20
586.966626
 42
-0.015276
  0
VERTEX
  8
0
 10
738.511550
 20
565.563116
 42
-0.014275
  0
VERTEX
  8
0
 10
765.826662
 20
542.016052
 42
-0.014777
  0
VERTEX
  8
0
 10
773.810764
 20
534.281085
 42
-0.006939
  0
VERTEX
  8
0
 10
783.692098
 20
523.839054
 42
-0.006844
  0
VERTEX
  8
0
 10
793.810666
 20
512.538045
 42
-0.009165
  0
VERTEX
  8
0
 10
802.654948
 20
502.000000
 42
-0.022661
  0
VERTEX
  8
0
 10
812.545708
 20
488.564520
 42
-0.018548
  0
VERTEX
  8
0
 10
821.903056
 20
473.376862
 42
-0.018894
  0
VERTEX
  8
0
 10
829.448744
 20
458.787280
 42
-0.047607
  0
VERTEX
  8
0
 10
833.482937
 20
447.539901
 42
-0.039739
  0
VERTEX
  8
0
 10
834.447329
 20
441.915258
 42
-0.014814
  0
VERTEX
  8
0
 10
834.934359
 20
433.907400
 42
-0.009622
  0
VERTEX
  8
0
 10
835.028346
 20
425.992711
 42
-0.145289
  0
VERTEX
  8
0
 10
834.234687
 20
423.389532
 42
-0.105137
  0
VERTEX
  8
0
 10
833.246212
 20
422.417901
 42
-0.012086
  0
VERTEX
  8
0
 10
830.562035
 20
420.797484
 42
-0.011422
  0
VERTEX
  8
0
 10
827.796825
 20
419.300759
 42
-0.118873
  0
VERTEX
  8
0
 10
826.549660
 20
419.000000
 42
-0.333844
  0
VERTEX
  8
0
 10
826.334607
 20
419.161598
 42
-0.026256
  0
VERTEX
  8
0
 10
826.161463
 20
419.902894
 42
-0.027427
  0
VERTEX
  8
0
 10
826.039651
 20
420.895423
 42
-0.016821
  0
VERTEX
  8
0
 10
826.000000
 20
422.073683
 42
0.097047
  0
VERTEX
  8
0
 10
823.920613
 20
432.686111
 42
0.016773
  0
VERTEX
  8
0
 10
815.522800
 20
451.465053
 42
0.019057
  0
VERTEX
  8
0
 10
804.822725
 20
471.421259
 42
0.026629
  0
VERTEX
  8
0
 10
793.670446
 20
488.313082
 42
0.018832
  0
VERTEX
  8
0
 10
781.169356
 20
503.949410
 42
0.012507
  0
VERTEX
  8
0
 10
765.732031
 20
520.954784
 42
0.011753
  0
VERTEX
  8
0
 10
748.222830
 20
538.456168
 42
0.010823
  0
VERTEX
  8
0
 10
729.431453
 20
555.615232
 42
0.020055
  0
VERTEX
  8
0
 10
695.989058
 20
582.563614
 42
0.014842
  0
VERTEX
  8
0
 10
657.012436
 20
609.717710
 42
0.014860
  0
VERTEX
  8
0
 10
616.570965
 20
634.462153
 42
0.020360
  0
VERTEX
  8
0
 10
578.700393
 20
654.113537
 42
-0.003211
  0
VERTEX
  8
0
 10
575.667160
 20
655.557737
 42
-0.004662
  0
VERTEX
  8
0
 10
573.010660
 20
656.874265
 42
-0.002428
  0
VERTEX
  8
0
 10
570.779711
 20
658.019581
 42
-0.076713
  0
VERTEX
  8
0
 10
570.283727
 20
658.382940
 42
-0.667192
  0
VERTEX
  8
0
 10
570.571614
 20
659.080652
 42
-0.013710
  0
VERTEX
  8
0
 10
575.692931
 20
658.954183
 42
-0.017890
  0
VERTEX
  8
0
 10
581.451196
 20
658.446810
 42
-0.033512
  0
SEQEND
  0
POLYLINE
  8
0
 66
1
 70
1
  0
VERTEX
  8
0
 10
564.027539
 20
651.986154
 42
-0.011049
  0
VERTEX
  8
0
 10
568.566950
 20
649.576679
 42
-0.001968
  0
VERTEX
  8
0
 10
576.934378
 20
644.852137
 42
-0.002127
  0
VERTEX
  8
0
 10
586.696384
 20
639.234225
 42
-0.001917
  0
VERTEX
  8
0
 10
596.755341
 20
633.336604
 42
-0.010992
  0
VERTEX
  8
0
 10
644.534537
 20
603.640012
 42
-0.016648
  0
VERTEX
  8
0
 10
684.608224
 20
575.549207
 42
-0.018470
  0
VERTEX
  8
0
 10
719.366340
 20
547.348841
 42
-0.020005
  0
VERTEX
  8
0
 10
751.000000
 20
517.369623
 42
-0.011620
  0
VERTEX
  8
0
 10
768.611755
 20
498.426832
 42
-0.020300
  0
VERTEX
  8
0
 10
782.171070
 20
481.835344
 42
-0.022767
  0
VERTEX
  8
0
 10
793.228492
 20
465.639652
 42
-0.020726
  0
VERTEX
  8
0
 10
803.143485
 20
448.000000
 42
-0.015825
  0
VERTEX
  8
0
 10
807.921665
 20
437.823628
 42
-0.013797
  0
VERTEX
  8
0
 10
812.284120
 20
426.893253
 42
-0.007973
  0
VERTEX
  8
0
 10
815.802799
 20
416.824671
 42
-0.173373
  0
VERTEX
  8
0
 10
815.731683
 20
413.743160
 42
-0.202257
  0
VERTEX
  8
0
 10
814.690795
 20
412.660082
 42
-0.014556
  0
VERTEX
  8
0
 10
810.738285
 20
411.095047
 42
-0.012229
  0
VERTEX
  8
0
 10
806.679527
 20
409.734452
 42
-0.350117
  0
VERTEX
  8
0
 10
805.719119
 20
410.112010
 42
-0.048177
  0
VERTEX
  8
0
 10
805.576105
 20
410.426835
 42
-0.000311
  0
VERTEX
  8
0
 10
804.585551
 20
413.323528
 42
-0.001249
  0
VERTEX
  8
0
 10
803.463366
 20
416.638911
 42
-0.000797
  0
VERTEX
  8
0
 10
802.174057
 20
420.500000
 42
0.035245
  0
VERTEX
  8
0
 10
793.549298
 20
441.413604
 42
0.032781
  0
VERTEX
  8
0
 10
781.889247
 20
461.444781
 42
0.028369
  0
VERTEX
  8
0
 10
766.133399
 20
482.195863
 42
0.016367
  0
VERTEX
  8
0
 10
745.007378
 20
505.385365
 42
0.014041
  0
VERTEX
  8
0
 10
725.573308
 20
524.272063
 42
0.012182
  0
VERTEX
  8
0
 10
704.185591
 20
542.980328
 42
0.011817
  0
VERTEX
  8
0
 10
681.207701
 20
561.209933
 42
0.011221
  0
VERTEX
  8
0
 10
657.000000
 20
578.660778
 42
0.010939
  0
VERTEX
  8
0
 10
632.797977
 20
594.527013
 42
0.006439
  0
VERTEX
  8
0
 10
603.224423
 20
612.477274
 42
0.006431
  0
VERTEX
  8
0
 10
573.068041
 20
629.735231
 42
0.010528
  0
VERTEX
  8
0
 10
547.037957
 20
643.481630
 42
0.000000
  0
VERTEX
  8
0
 10
535.575914
 20
649.229394
 42
0.000000
  0
VERTEX
  8
0
 10
540.537957
 20
651.157595
 42
-0.011187
  0
VERTEX
  8
0
 10
543.841176
 20
652.356850
 42
-0.005513
  0
VERTEX
  8
0
 10
548.089543
 20
653.740524
 42
-0.005513
  0
VERTEX
  8
0
 10
552.369155
 20
655.030716
 42
-0.011140
  0
VERTEX
  8
0
 10
555.772197
 20
655.934189
 42
-0.171914
  0
VERTEX
  8
0
 10
555.979178
 20
655.912737
 42
-0.000578
  0
VERTEX
  8
0
 10
558.309485
 20
654.801601
 42
-0.003051
  0
VERTEX
  8
0
 10
560.947469
 20
653.520175
 42
-0.001896
  0
SEQEND
  0
POLYLINE
  8
0
 66
1
 70
1
  0
VERTEX
  8
0
 10
541.826230
 20
639.849257
 42
-0.005783
  0
VERTEX
  8
0
 10
556.531265
 20
631.882762
 42
-0.002049
  0
VERTEX
  8
0
 10
577.396291
 20
620.152694
 42
-0.002072
  0
VERTEX
  8
0
 10
598.335283
 20
608.152887
 42
-0.005177
  0
VERTEX
  8
0
 10
613.500000
 20
599.167703
 42
-0.018774
  0
VERTEX
  8
0
 10
665.188461
 20
565.096666
 42
-0.022292
  0
VERTEX
  8
0
 10
711.190170
 20
529.031277
 42
-0.024293
  0
VERTEX
  8
0
 10
749.659793
 20
492.609374
 42
-0.038330
  0
VERTEX
  8
0
 10
778.491633
 20
457.500000
 42
-0.025450
  0
VERTEX
  8
0
 10
787.447009
 20
443.216713
 42
-0.020010
  0
VERTEX
  8
0
 10
795.707439
 20
426.919437
 42
-0.011335
  0
VERTEX
  8
0
 10
802.281586
 20
411.644995
 42
-0.365309
  0
VERTEX
  8
0
 10
801.108976
 20
408.067351
 42
-0.085802
  0
VERTEX
  8
0
 10
797.860435
 20
406.760836
 42
-0.005262
  0
VERTEX
  8
0
 10
787.597074
 20
404.673100
 42
-0.008273
  0
VERTEX
  8
0
 10
775.999165
 20
402.639147
 42
-0.008625
  0
VERTEX
  8
0
 10
764.500000
 20
401.020890
 42
-0.018947
  0
VERTEX
  8
0
 10
740.371220
 20
398.973029
 42
-0.012825
  0
VERTEX
  8
0
 10
712.774661
 20
398.389830
 42
-0.012757
  0
VERTEX
  8
0
 10
684.924598
 20
399.226449
 42
-0.017576
  0
VERTEX
  8
0
 10
660.000000
 20
401.493128
 42
0.002028
  0
VERTEX
  8
0
 10
638.998270
 20
404.063520
 42
0.007600
  0
VERTEX
  8
0
 10
625.779341
 20
405.423597
 42
0.011120
  0
VERTEX
  8
0
 10
615.341775
 20
406.103941
 42
0.009978
  0
VERTEX
  8
0
 10
604.500000
 20
406.352222
 42
0.012724
  0
VERTEX
  8
0
 10
592.384349
 20
406.079511
 42
0.023640
  0
VERTEX
  8
0
 10
582.601232
 20
405.145112
 42
0.017299
  0
VERTEX
  8
0
 10
571.131909
 20
403.092520
 42
0.004009
  0
VERTEX
  8
0
 10
552.000000
 20
398.820249
 42
-0.006186
  0
VERTEX
  8
0
 10
543.196828
 20
396.894649
 42
-0.011357
  0
VERTEX
  8
0
 10
535.976650
 20
395.578841
 42
-0.013393
  0
VERTEX
  8
0
 10
529.620144
 20
394.742872
 42
-0.015270
  0
VERTEX
  8
0
 10
523.500000
 20
394.292594
 42
-0.007803
  0
VERTEX
  8
0
 10
516.697040
 20
394.106835
 42
-0.036725
  0
VERTEX
  8
0
 10
512.798407
 20
394.347777
 42
-0.040745
  0
VERTEX
  8
0
 10
509.162607
 20
395.147784
 42
-0.011058
  0
VERTEX
  8
0
 10
503.567769
 20
397.002753
 42
-0.011376
  0
VERTEX
  8
0
 10
495.220942
 20
400.192364
 42
-0.010411
  0
VERTEX
  8
0
 10
486.774865
 20
403.849078
 42
-0.005546
  0
VERTEX
  8
0
 10
479.218199
 20
407.411193
 42
-0.142359
  0
VERTEX
  8
0
 10
477.552402
 20
408.915212
 42
-0.268660
  0
VERTEX
  8
0
 10
477.508755
 20
410.438312
 42
-0.094190
  0
VERTEX
  8
0
 10
478.945369
 20
412.200014
 42
-0.037275
  0
VERTEX
  8
0
 10
482.327209
 20
414.636628
 42
-0.005940
  0
VERTEX
  8
0
 10
489.339614
 20
418.820631
 42
-0.009749
  0
VERTEX
  8
0
 10
504.917037
 20
427.464202
 42
-0.008432
  0
VERTEX
  8
0
 10
521.586680
 20
435.936406
 42
-0.006469
  0
VERTEX
  8
0
 10
536.664225
 20
443.042322
 42
-0.060435
  0
VERTEX
  8
0
 10
543.500000
 20
445.207591
 42
-0.037580
  0
VERTEX
  8
0
 10
552.059834
 20
446.160857
 42
-0.018601
  0
VERTEX
  8
0
 10
562.999311
 20
446.145375
 42
-0.017359
  0
VERTEX
  8
0
 10
575.146763
 20
445.253030
 42
-0.016155
  0
VERTEX
  8
0
 10
587.500000
 20
443.507781
 42
0.001641
  0
VERTEX
  8
0
 10
605.173990
 20
440.485293
 42
0.006009
  0
VERTEX
  8
0
 10
616.400672
 20
438.741731
 42
0.003589
  0
VERTEX
  8
0
 10
630.048372
 20
436.889701
 42
0.000308
  0
VERTEX
  8
0
 10
665.000000
 20
432.423781
 42
-0.001017
  0
VERTEX
  8
0
 10
676.188370
 20
430.978060
 42
-0.001105
  0
VERTEX
  8
0
 10
687.065625
 20
429.525570
 42
-0.001037
  0
VERTEX
  8
0
 10
696.379556
 20
428.241197
 42
-0.005417
  0
VERTEX
  8
0
 10
701.500000
 20
427.467622
 42
0.002313
  0
VERTEX
  8
0
 10
705.052917
 20
426.908281
 42
0.003093
  0
VERTEX
  8
0
 10
708.282188
 20
426.435613
 42
0.002160
  0
VERTEX
  8
0
 10
710.992745
 20
426.067910
 42
0.031946
  0
VERTEX
  8
0
 10
711.950000
 20
426.004021
 42
0.363465
  0
VERTEX
  8
0
 10
712.430474
 20
426.404195
 42
0.322631
  0
VERTEX
  8
0
 10
712.143756
 20
427.005271
 42
0.045196
  0
VERTEX
  8
0
 10
709.849027
 20
428.005922
 42
0.017233
  0
VERTEX
  8
0
 10
706.500000
 20
428.992241
 42
-0.012374
  0
VERTEX
  8
0
 10
672.058577
 20
438.772872
 42
-0.005961
  0
VERTEX
  8
0
 10
628.407291
 20
452.917568
 42
-0.005689
  0
VERTEX
  8
0
 10
580.991497
 20
469.512340
 42
-0.005884
  0
VERTEX
  8
0
 10
534.500000
 20
487.001587
 42
-0.001837
  0
VERTEX
  8
0
 10
502.469384
 20
499.618889
 42
-0.001441
  0
VERTEX
  8
0
 10
467.827163
 20
513.528012
 42
-0.000212
  0
VERTEX
  8
0
 10
433.166439
 20
527.577834
 42
-0.073915
  0
VERTEX
  8
0
 10
430.739145
 20
529.010144
 42
-0.049120
  0
VERTEX
  8
0
 10
429.819191
 20
529.918072
 42
-0.125950
  0
VERTEX
  8
0
 10
429.421056
 20
530.756707
 42
-0.108307
  0
VERTEX
  8
0
 10
429.444346
 20
531.764035
 42
-0.031118
  0
VERTEX
  8
0
 10
429.909640
 20
533.262336
 42
-0.031665
  0
VERTEX
  8
0
 10
430.386030
 20
534.310388
 42
-0.041265
  0
VERTEX
  8
0
 10
430.956587
 20
535.195811
 42
-0.046654
  0
VERTEX
  8
0
 10
431.533339
 20
535.817222
 42
-0.184402
  0
VERTEX
  8
0
 10
432.012083
 20
536.000000
 42
-0.093401
  0
VERTEX
  8
0
 10
432.792502
 20
535.852933
 42
-0.000977
  0
VERTEX
  8
0
 10
437.965070
 20
533.819990
 42
-0.003085
  0
VERTEX
  8
0
 10
443.921047
 20
531.423106
 42
-0.001995
  0
VERTEX
  8
0
 10
450.786834
 20
528.578689
 42
0.000355
  0
VERTEX
  8
0
 10
458.446827
 20
525.375757
 42
0.000272
  0
VERTEX
  8
0
 10
466.821758
 20
521.886209
 42
0.000275
  0
VERTEX
  8
0
 10
474.661867
 20
518.629565
 42
0.000653
  0
VERTEX
  8
0
 10
480.500000
 20
516.217195
 42
-0.000169
  0
VERTEX
  8
0
 10
486.086994
 20
513.914920
 42
-0.000089
  0
VERTEX
  8
0
 10
493.037656
 20
511.046515
 42
-0.000088
  0
VERTEX
  8
0
 10
500.161782
 20
508.103575
 42
-0.000135
  0
VERTEX
  8
0
 10
506.330317
 20
505.552157
 42
0.003983
  0
VERTEX
  8
0
 10
514.769090
 20
502.137543
 42
0.030042
  0
VERTEX
  8
0
 10
518.857227
 20
500.798810
 42
0.169524
  0
VERTEX
  8
0
 10
520.344144
 20
500.917209
 42
0.455314
  0
VERTEX
  8
0
 10
520.619972
 20
501.805882
 42
0.137940
  0
VERTEX
  8
0
 10
519.482329
 20
502.851077
 42
0.000810
  0
VERTEX
  8
0
 10
506.575582
 20
509.363501
 42
0.003397
  0
VERTEX
  8
0
 10
492.007400
 20
516.561109
 42
0.002358
  0
VERTEX
  8
0
 10
475.452561
 20
524.504512
 42
-0.000783
  0
VERTEX
  8
0
 10
455.336742
 20
534.078715
 42
-0.003218
  0
VERTEX
  8
0
 10
443.193024
 20
539.978216
 42
-0.000880
  0
VERTEX
  8
0
 10
434.389036
 20
544.344790
 42
-0.284475
  0
VERTEX
  8
0
 10
434.000000
 20
544.973233
 42
-0.104640
  0
VERTEX
  8
0
 10
434.074616
 20
545.325863
 42
-0.018291
  0
VERTEX
  8
0
 10
434.373920
 20
545.939782
 42
-0.019149
  0
VERTEX
  8
0
 10
434.785585
 20
546.644816
 42
-0.016148
  0
VERTEX
  8
0
 10
435.272918
 20
547.358560
 42
-0.304238
  0
VERTEX
  8
0
 10
436.887153
 20
547.945504
 42
-0.036049
  0
VERTEX
  8
0
 10
440.703820
 20
546.706047
 42
-0.015391
  0
VERTEX
  8
0
 10
447.643175
 20
543.633298
 42
-0.001429
  0
VERTEX
  8
0
 10
464.522918
 20
535.469308
 42
0.002292
  0
VERTEX
  8
0
 10
492.414493
 20
522.038722
 42
0.002461
  0
VERTEX
  8
0
 10
519.774014
 20
509.183250
 42
0.002590
  0
VERTEX
  8
0
 10
543.981529
 20
498.105962
 42
0.006795
  0
VERTEX
  8
0
 10
561.500000
 20
490.483883
 42
-0.000858
  0
VERTEX
  8
0
 10
568.175749
 20
487.673131
 42
-0.000799
  0
VERTEX
  8
0
 10
575.003125
 20
484.771868
 42
-0.000795
  0
VERTEX
  8
0
 10
581.063599
 20
482.173653
 42
-0.002708
  0
VERTEX
  8
0
 10
585.000000
 20
480.453311
 42
0.004099
  0
VERTEX
  8
0
 10
588.582008
 20
478.899706
 42
0.001929
  0
VERTEX
  8
0
 10
593.234375
 20
476.948155
 42
0.001911
  0
VERTEX
  8
0
 10
598.123548
 20
474.941284
 42
0.002691
  0
VERTEX
  8
0
 10
602.500000
 20
473.191762
 42
-0.001463
  0
VERTEX
  8
0
 10
607.120261
 20
471.357922
 42
-0.000792
  0
VERTEX
  8
0
 10
612.793750
 20
469.076373
 42
-0.000789
  0
VERTEX
  8
0
 10
618.561715
 20
466.735613
 42
-0.001247
  0
VERTEX
  8
0
 10
623.500000
 20
464.708098
 42
0.006737
  0
VERTEX
  8
0
 10
635.329096
 20
460.002523
 42
0.001845
  0
VERTEX
  8
0
 10
654.103185
 20
452.904974
 42
0.001953
  0
VERTEX
  8
0
 10
673.750729
 20
445.647312
 42
0.003800
  0
VERTEX
  8
0
 10
689.500000
 20
440.034727
 42
0.013179
  0
VERTEX
  8
0
 10
703.875023
 20
435.455634
 42
0.008792
  0
VERTEX
  8
0
 10
720.555222
 20
430.938915
 42
0.005116
  0
VERTEX
  8
0
 10
736.375730
 20
427.123917
 42
0.094648
  0
VERTEX
  8
0
 10
741.500000
 20
426.930853
 42
0.777977
  0
VERTEX
  8
0
 10
741.518608
 20
427.121322
 42
0.000964
  0
VERTEX
  8
0
 10
735.743750
 20
429.189618
 42
0.003300
  0
VERTEX
  8
0
 10
728.867856
 20
431.586306
 42
0.001863
  0
VERTEX
  8
0
 10
720.500000
 20
434.406486
 42
-0.009243
  0
VERTEX
  8
0
 10
695.826216
 20
443.129790
 42
-0.004199
  0
VERTEX
  8
0
 10
663.861021
 20
455.407206
 42
-0.003374
  0
VERTEX
  8
0
 10
623.828889
 20
471.482879
 42
-0.001696
  0
VERTEX
  8
0
 10
573.500000
 20
492.288483
 42
-0.003151
  0
VERTEX
  8
0
 10
547.078990
 20
503.511865
 42
-0.004171
  0
VERTEX
  8
0
 10
523.175077
 20
514.081830
 42
-0.003042
  0
VERTEX
  8
0
 10
494.331244
 20
527.336827
 42
-0.000869
  0
VERTEX
  8
0
 10
449.750000
 20
548.247713
 42
-0.006819
  0
VERTEX
  8
0
 10
445.629378
 20
550.258365
 42
-0.010768
  0
VERTEX
  8
0
 10
442.157812
 20
552.106196
 42
-0.004991
  0
VERTEX
  8
0
 10
439.301243
 20
553.744227
 42
-0.266065
  0
VERTEX
  8
0
 10
439.000000
 20
554.270259
 42
-0.120500
  0
VERTEX
  8
0
 10
439.369689
 20
555.781968
 42
-0.011323
  0
VERTEX
  8
0
 10
441.224733
 20
559.158871
 42
-0.007599
  0
VERTEX
  8
0
 10
443.263759
 20
562.559143
 42
-0.259454
  0
VERTEX
  8
0
 10
444.056154
 20
563.000000
 42
-0.110739
  0
VERTEX
  8
0
 10
444.582321
 20
562.882019
 42
-0.000140
  0
VERTEX
  8
0
 10
454.346748
 20
558.267959
 42
-0.001228
  0
VERTEX
  8
0
 10
465.275689
 20
553.066986
 42
-0.000755
  0
VERTEX
  8
0
 10
478.122013
 20
546.890926
 42
0.001382
  0
VERTEX
  8
0
 10
513.899189
 20
529.745682
 42
0.003444
  0
VERTEX
  8
0
 10
540.174398
 20
517.464433
 42
0.004503
  0
VERTEX
  8
0
 10
561.814599
 20
507.765672
 42
0.005289
  0
VERTEX
  8
0
 10
582.500000
 20
498.977114
 42
0.000633
  0
VERTEX
  8
0
 10
608.967695
 20
488.100075
 42
0.002775
  0
VERTEX
  8
0
 10
624.649208
 20
481.780290
 42
0.000676
  0
VERTEX
  8
0
 10
636.016202
 20
477.290246
 42
0.298479
  0
VERTEX
  8
0
 10
636.783297
 20
477.449963
 42
0.512988
  0
VERTEX
  8
0
 10
636.701076
 20
477.951255
 42
0.001138
  0
VERTEX
  8
0
 10
628.716343
 20
481.887238
 42
0.002334
  0
VERTEX
  8
0
 10
621.006667
 20
485.621324
 42
0.112059
  0
VERTEX
  8
0
 10
619.338249
 20
486.000000
 42
-0.112477
  0
VERTEX
  8
0
 10
618.984600
 20
486.080574
 42
-0.000132
  0
VERTEX
  8
0
 10
612.200105
 20
489.343557
 42
-0.001203
  0
VERTEX
  8
0
 10
604.611159
 20
493.018425
 42
-0.000739
  0
VERTEX
  8
0
 10
595.687817
 20
497.382321
 42
0.000804
  0
VERTEX
  8
0
 10
570.797288
 20
509.550805
 42
0.000457
  0
VERTEX
  8
0
 10
540.650243
 20
524.194947
 42
0.000447
  0
VERTEX
  8
0
 10
509.042639
 20
539.477988
 42
0.000550
  0
VERTEX
  8
0
 10
479.517821
 20
553.681440
 42
-0.001241
  0
VERTEX
  8
0
 10
467.957174
 20
559.262591
 42
-0.001956
  0
VERTEX
  8
0
 10
458.066578
 20
564.115705
 42
-0.000462
  0
VERTEX
  8
0
 10
449.424769
 20
568.408038
 42
-0.081046
  0
VERTEX
  8
0
 10
448.594947
 20
569.005053
 42
-0.136392
  0
VERTEX
  8
0
 10
448.278840
 20
569.564532
 42
-0.074698
  0
VERTEX
  8
0
 10
448.204331
 20
570.354353
 42
-0.058326
  0
VERTEX
  8
0
 10
448.372570
 20
571.325224
 42
-0.034870
  0
VERTEX
  8
0
 10
448.783387
 20
572.423931
 42
0.000000
  0
VERTEX
  8
0
 10
449.912523
 20
574.902114
 42
0.000000
  0
VERTEX
  8
0
 10
460.706261
 20
569.827583
 42
-0.001623
  0
VERTEX
  8
0
 10
466.171491
 20
567.236488
 42
-0.000559
  0
VERTEX
  8
0
 10
474.057464
 20
563.455469
 42
-0.000556
  0
VERTEX
  8
0
 10
482.742881
 20
559.267307
 42
-0.000644
  0
VERTEX
  8
0
 10
491.000000
 20
555.261220
 42
0.000338
  0
VERTEX
  8
0
 10
499.162430
 20
551.294884
 42
0.000310
  0
VERTEX
  8
0
 10
507.562500
 20
547.226519
 42
0.000310
  0
VERTEX
  8
0
 10
515.058187
 20
543.607637
 42
0.001025
  0
VERTEX
  8
0
 10
520.000000
 20
541.238001
 42
-0.000876
  0
VERTEX
  8
0
 10
525.522110
 20
538.592133
 42
-0.000146
  0
VERTEX
  8
0
 10
536.109375
 20
533.492691
 42
-0.000160
  0
VERTEX
  8
0
 10
548.552040
 20
527.490168
 42
-0.000142
  0
VERTEX
  8
0
 10
561.500000
 20
521.234214
 42
0.000763
  0
VERTEX
  8
0
 10
587.964159
 20
508.488256
 42
0.001365
  0
VERTEX
  8
0
 10
609.755397
 20
498.106972
 42
0.001424
  0
VERTEX
  8
0
 10
626.783973
 20
490.110860
 42
0.007931
  0
VERTEX
  8
0
 10
636.000000
 20
485.991924
 42
-0.001092
  0
VERTEX
  8
0
 10
639.543386
 20
484.466068
 42
-0.000260
  0
VERTEX
  8
0
 10
645.437500
 20
481.909030
 42
-0.000267
  0
VERTEX
  8
0
 10
652.206250
 20
478.964076
 42
-0.000264
  0
VERTEX
  8
0
 10
659.000000
 20
475.999665
 42
0.004413
  0
VERTEX
  8
0
 10
683.994201
 20
465.339604
 42
0.003891
  0
VERTEX
  8
0
 10
710.240126
 20
454.657281
 42
0.001125
  0
VERTEX
  8
0
 10
735.408231
 20
444.706792
 42
0.103107
  0
VERTEX
  8
0
 10
739.297067
 20
444.044196
 42
0.772478
  0
VERTEX
  8
0
 10
739.436063
 20
444.669861
 42
0.004653
  0
VERTEX
  8
0
 10
731.126997
 20
448.834625
 42
0.005237
  0
VERTEX
  8
0
 10
718.233231
 20
454.981363
 42
0.001226
  0
VERTEX
  8
0
 10
696.500000
 20
464.999385
 42
-0.001907
  0
VERTEX
  8
0
 10
694.235878
 20
466.046779
 42
-0.000369
  0
VERTEX
  8
0
 10
690.150000
 20
467.959543
 42
-0.000392
  0
VERTEX
  8
0
 10
685.387533
 20
470.197885
 42
-0.000362
  0
VERTEX
  8
0
 10
680.500000
 20
472.504013
 42
0.000956
  0
VERTEX
  8
0
 10
674.643168
 20
475.258991
 42
0.000399
  0
VERTEX
  8
0
 10
666.737500
 20
478.951578
 42
0.000395
  0
VERTEX
  8
0
 10
658.269931
 20
482.890240
 42
0.000512
  0
VERTEX
  8
0
 10
650.500000
 20
486.487261
 42
-0.002224
  0
VERTEX
  8
0
 10
641.842964
 20
490.531007
 42
-0.000984
  0
VERTEX
  8
0
 10
630.443750
 20
495.945006
 42
-0.000974
  0
VERTEX
  8
0
 10
618.387919
 20
501.728824
 42
-0.001312
  0
VERTEX
  8
0
 10
607.500000
 20
507.013701
 42
0.000504
  0
VERTEX
  8
0
 10
596.153535
 20
512.543822
 42
0.000301
  0
VERTEX
  8
0
 10
582.646875
 20
519.099901
 42
0.000301
  0
VERTEX
  8
0
 10
569.187255
 20
525.613123
 42
0.000523
  0
VERTEX
  8
0
 10
558.000000
 20
531.003990
 42
-0.000326
  0
VERTEX
  8
0
 10
546.950824
 20
536.322965
 42
-0.000200
  0
VERTEX
  8
0
 10
533.940625
 20
542.602844
 42
-0.000201
  0
VERTEX
  8
0
 10
521.073137
 20
548.826572
 42
-0.000359
  0
VERTEX
  8
0
 10
510.500000
 20
553.955183
 42
0.000132
  0
VERTEX
  8
0
 10
500.541600
 20
558.791201
 42
0.000100
  0
VERTEX
  8
0
 10
489.629688
 20
564.084015
 42
0.000101
  0
VERTEX
  8
0
 10
479.397212
 20
569.042178
 42
0.000238
  0
VERTEX
  8
0
 10
471.750000
 20
572.741248
 42
-0.004231
  0
VERTEX
  8
0
 10
465.711990
 20
575.721669
 42
-0.006821
  0
VERTEX
  8
0
 10
460.626562
 20
578.373247
 42
-0.002058
  0
VERTEX
  8
0
 10
456.294488
 20
580.730782
 42
-0.273611
  0
VERTEX
  8
0
 10
456.000000
 20
581.228644
 42
-0.180392
  0
VERTEX
  8
0
 10
457.289577
 20
584.686696
 42
-0.004399
  0
VERTEX
  8
0
 10
468.730462
 20
597.660589
 42
-0.010409
  0
VERTEX
  8
0
 10
480.579348
 20
610.320851
 42
-0.021016
  0
VERTEX
  8
0
 10
490.521728
 20
619.688582
 42
-0.012681
  0
VERTEX
  8
0
 10
502.421344
 20
629.475025
 42
-0.015307
  0
VERTEX
  8
0
 10
514.092594
 20
638.025694
 42
-0.011845
  0
VERTEX
  8
0
 10
524.288661
 20
644.676559
 42
-0.137270
  0
VERTEX
  8
0
 10
528.826230
 20
645.988554
 42
-0.109503
  0
VERTEX
  8
0
 10
529.729271
 20
645.796543
 42
-0.003390
  0
VERTEX
  8
0
 10
533.192049
 20
644.189857
 42
-0.006495
  0
VERTEX
  8
0
 10
537.256999
 20
642.205185
 42
-0.004435
  0
SEQEND
  0
POLYLINE
  8
0
 66
1
 70
1
  0
VERTEX
  8
0
 10
161.313889
 20
584.873751
 42
0.001424
  0
VERTEX
  8
0
 10
183.353366
 20
574.467088
 42
0.001741
  0
VERTEX
  8
0
 10
204.020576
 20
564.867897
 42
0.001886
  0
VERTEX
  8
0
 10
221.912068
 20
556.715218
 42
0.004772
  0
VERTEX
  8
0
 10
235.000000
 20
550.960627
 42
-0.001424
  0
VERTEX
  8
0
 10
247.865481
 20
545.406358
 42
-0.005218
  0
VERTEX
  8
0
 10
255.967405
 20
541.780180
 42
-0.002045
  0
VERTEX
  8
0
 10
261.819090
 20
539.058445
 42
-0.529873
  0
VERTEX
  8
0
 10
261.893919
 20
538.585237
 42
-0.205742
  0
VERTEX
  8
0
 10
261.565855
 20
538.466492
 42
-0.006780
  0
VERTEX
  8
0
 10
260.146964
 20
538.568961
 42
-0.011929
  0
VERTEX
  8
0
 10
258.444619
 20
538.756132
 42
-0.007901
  0
VERTEX
  8
0
 10
256.500000
 20
539.048374
 42
0.031061
  0
VERTEX
  8
0
 10
253.302338
 20
539.378469
 42
0.002930
  0
VERTEX
  8
0
 10
245.418050
 20
539.653770
 42
0.003743
  0
VERTEX
  8
0
 10
236.004597
 20
539.856726
 42
0.002938
  0
VERTEX
  8
0
 10
225.795489
 20
539.940389
 42
-0.007533
  0
VERTEX
  8
0
 10
205.971680
 20
540.285059
 42
-0.056558
  0
VERTEX
  8
0
 10
196.694910
 20
541.643926
 42
-0.041811
  0
VERTEX
  8
0
 10
187.012776
 20
545.090819
 42
-0.002975
  0
VERTEX
  8
0
 10
161.000000
 20
557.069303
 42
-0.002100
  0
VERTEX
  8
0
 10
126.099216
 20
573.571973
 42
-0.028881
  0
VERTEX
  8
0
 10
113.839900
 20
580.327229
 42
-0.113087
  0
VERTEX
  8
0
 10
109.152113
 20
585.026265
 42
-0.273398
  0
VERTEX
  8
0
 10
109.032909
 20
589.750000
 42
-0.133636
  0
VERTEX
  8
0
 10
111.038819
 20
591.801257
 42
-0.085251
  0
VERTEX
  8
0
 10
114.179453
 20
592.986220
 42
-0.038685
  0
VERTEX
  8
0
 10
119.570321
 20
593.599975
 42
-0.006005
  0
VERTEX
  8
0
 10
130.313889
 20
593.858095
 42
0.000000
  0
VERTEX
  8
0
 10
142.127778
 20
594.000000
 42
0.000000
  0
SEQEND
  0
POLYLINE
  8
0
 66
1
 70
1
  0
VERTEX
  8
0
 10
168.000000
 20
531.464816
 42
0.007710
  0
VERTEX
  8
0
 10
168.059865
 20
527.582946
 42
0.041890
  0
VERTEX
  8
0
 10
168.300236
 20
525.494136
 42
0.098755
  0
VERTEX
  8
0
 10
168.758805
 20
524.394751
 42
0.249691
  0
VERTEX
  8
0
 10
169.500000
 20
524.000000
 42
0.222027
  0
VERTEX
  8
0
 10
170.223030
 20
524.337712
 42
0.113455
  0
VERTEX
  8
0
 10
170.687500
 20
525.250000
 42
0.050675
  0
VERTEX
  8
0
 10
170.935548
 20
526.964058
 42
0.010614
  0
VERTEX
  8
0
 10
171.000000
 20
530.000000
 42
-0.017157
  0
VERTEX
  8
0
 10
171.136290
 20
533.970679
 42
-0.155676
  0
VERTEX
  8
0
 10
171.767495
 20
535.562578
 42
-0.266399
  0
VERTEX
  8
0
 10
173.013806
 20
536.036999
 42
-0.052404
  0
VERTEX
  8
0
 10
175.418213
 20
535.393011
 42
-0.196891
  0
VERTEX
  8
0
 10
176.222504
 20
534.635863
 42
-0.067576
  0
VERTEX
  8
0
 10
176.691745
 20
533.073821
 42
-0.033028
  0
VERTEX
  8
0
 10
176.938279
 20
530.367534
 42
-0.006203
  0
VERTEX
  8
0
 10
177.000000
 20
525.393011
 42
-0.008289
  0
VERTEX
  8
0
 10
176.940291
 20
521.791516
 42
-0.013749
  0
VERTEX
  8
0
 10
176.756150
 20
518.759197
 42
-0.007361
  0
VERTEX
  8
0
 10
176.501762
 20
516.294988
 42
-0.380177
  0
VERTEX
  8
0
 10
176.169874
 20
516.000000
 42
-0.081810
  0
VERTEX
  8
0
 10
175.615454
 20
516.091326
 42
-0.003962
  0
VERTEX
  8
0
 10
173.844634
 20
516.706670
 42
-0.006367
  0
VERTEX
  8
0
 10
171.748111
 20
517.484091
 42
-0.004540
  0
VERTEX
  8
0
 10
169.419874
 20
518.405685
 42
0.000000
  0
VERTEX
  8
0
 10
163.500000
 20
520.811371
 42
0.000000
  0
VERTEX
  8
0
 10
163.208575
 20
529.576542
 42
-0.006410
  0
VERTEX
  8
0
 10
163.067084
 20
536.506041
 42
-0.067035
  0
VERTEX
  8
0
 10
163.424261
 20
539.319565
 42
-0.283050
  0
VERTEX
  8
0
 10
164.390433
 20
540.235995
 42
-0.176476
  0
VERTEX
  8
0
 10
165.985163
 20
540.007940
 42
-0.109563
  0
VERTEX
  8
0
 10
167.043331
 20
539.099055
 42
-0.103183
  0
VERTEX
  8
0
 10
167.646409
 20
537.808842
 42
-0.049798
  0
VERTEX
  8
0
 10
167.931604
 20
535.662449
 42
-0.008146
  0
SEQEND
  0
POLYLINE
  8
0
 66
1
 70
1
  0
VERTEX
  8
0
 10
132.731769
 20
532.419606
 42
-0.001115
  0
VERTEX
  8
0
 10
139.955794
 20
529.482196
 42
-0.001782
  0
VERTEX
  8
0
 10
146.110836
 20
526.937797
 42
-0.000327
  0
VERTEX
  8
0
 10
151.533546
 20
524.669301
 42
-0.097440
  0
VERTEX
  8
0
 10
151.930394
 20
524.402939
 42
-0.212913
  0
VERTEX
  8
0
 10
152.022825
 20
524.161657
 42
-0.080390
  0
VERTEX
  8
0
 10
151.944300
 20
523.800610
 42
-0.061167
  0
VERTEX
  8
0
 10
151.716573
 20
523.380545
 42
-0.041634
  0
VERTEX
  8
0
 10
151.365096
 20
522.965096
 42
-0.224482
  0
VERTEX
  8
0
 10
150.540168
 20
522.669798
 42
-0.034987
  0
VERTEX
  8
0
 10
148.786570
 20
522.966902
 42
-0.027596
  0
VERTEX
  8
0
 10
146.339956
 20
523.704884
 42
-0.010748
  0
VERTEX
  8
0
 10
143.044225
 20
524.981763
 42
0.011499
  0
VERTEX
  8
0
 10
137.788633
 20
527.008884
 42
0.048917
  0
VERTEX
  8
0
 10
134.527634
 20
527.832430
 42
0.122773
  0
VERTEX
  8
0
 10
132.717545
 20
527.660485
 42
0.318059
  0
VERTEX
  8
0
 10
132.000000
 20
526.646588
 42
0.287264
  0
VERTEX
  8
0
 10
133.163349
 20
524.788805
 42
0.004340
  0
VERTEX
  8
0
 10
145.194168
 20
519.077996
 42
0.006688
  0
VERTEX
  8
0
 10
163.341862
 20
510.949057
 42
0.001332
  0
VERTEX
  8
0
 10
196.000000
 20
496.944880
 42
-0.000216
  0
VERTEX
  8
0
 10
207.208349
 20
492.168202
 42
-0.000295
  0
VERTEX
  8
0
 10
217.303125
 20
487.853917
 42
-0.000191
  0
VERTEX
  8
0
 10
225.781814
 20
484.220567
 42
-0.003419
  0
VERTEX
  8
0
 10
228.500000
 20
483.032449
 42
0.004112
  0
VERTEX
  8
0
 10
236.085097
 20
479.729526
 42
0.002185
  0
VERTEX
  8
0
 10
245.529284
 20
475.757791
 42
0.002165
  0
VERTEX
  8
0
 10
255.306562
 20
471.745708
 42
0.003131
  0
VERTEX
  8
0
 10
263.983714
 20
468.291980
 42
-0.003972
  0
VERTEX
  8
0
 10
278.737180
 20
462.390957
 42
-0.001513
  0
VERTEX
  8
0
 10
299.210047
 20
453.940638
 42
-0.001459
  0
VERTEX
  8
0
 10
319.310154
 20
445.504023
 42
-0.005134
  0
VERTEX
  8
0
 10
332.167962
 20
439.906703
 42
0.001237
  0
VERTEX
  8
0
 10
337.572051
 20
437.503903
 42
0.000580
  0
VERTEX
  8
0
 10
344.577464
 20
434.419549
 42
0.000574
  0
VERTEX
  8
0
 10
351.929300
 20
431.202903
 42
0.000806
  0
VERTEX
  8
0
 10
358.500000
 20
428.349612
 42
-0.003420
  0
VERTEX
  8
0
 10
365.562868
 20
425.238611
 42
-0.001671
  0
VERTEX
  8
0
 10
374.528125
 20
421.180167
 42
-0.001658
  0
VERTEX
  8
0
 10
383.822684
 20
416.897866
 42
-0.002402
  0
VERTEX
  8
0
 10
392.000000
 20
413.049520
 42
0.001579
  0
VERTEX
  8
0
 10
409.923317
 20
404.578514
 42
0.003144
  0
VERTEX
  8
0
 10
424.177048
 20
398.005851
 42
0.003643
  0
VERTEX
  8
0
 10
437.034914
 20
392.287215
 42
0.003230
  0
VERTEX
  8
0
 10
450.500000
 20
386.518909
 42
-0.000628
  0
VERTEX
  8
0
 10
457.466655
 20
383.577277
 42
-0.000463
  0
VERTEX
  8
0
 10
465.178125
 20
380.301309
 42
-0.000467
  0
VERTEX
  8
0
 10
472.465955
 20
377.189299
 42
-0.001044
  0
VERTEX
  8
0
 10
478.000000
 20
374.806383
 42
0.000743
  0
VERTEX
  8
0
 10
520.120662
 20
356.639462
 42
0.004891
  0
VERTEX
  8
0
 10
541.306050
 20
347.783818
 42
0.006173
  0
VERTEX
  8
0
 10
560.681894
 20
340.183705
 42
0.001609
  0
VERTEX
  8
0
 10
592.000000
 20
328.458335
 42
-0.001481
  0
VERTEX
  8
0
 10
597.269176
 20
326.487114
 42
-0.000837
  0
VERTEX
  8
0
 10
603.646875
 20
324.067427
 42
-0.000835
  0
VERTEX
  8
0
 10
610.071591
 20
321.605301
 42
-0.001371
  0
VERTEX
  8
0
 10
615.500000
 20
319.497472
 42
0.001312
  0
VERTEX
  8
0
 10
625.136147
 20
315.754493
 42
0.017623
  0
VERTEX
  8
0
 10
628.718406
 20
314.516961
 42
0.062308
  0
VERTEX
  8
0
 10
630.442272
 20
314.215850
 42
0.428483
  0
VERTEX
  8
0
 10
631.000000
 20
314.747179
 42
0.285560
  0
VERTEX
  8
0
 10
630.461434
 20
315.613284
 42
0.000542
  0
VERTEX
  8
0
 10
614.932573
 20
323.250779
 42
0.004039
  0
VERTEX
  8
0
 10
599.412967
 20
330.707930
 42
0.005173
  0
VERTEX
  8
0
 10
585.000000
 20
337.309327
 42
-0.004149
  0
VERTEX
  8
0
 10
574.825794
 20
341.944126
 42
-0.008352
  0
VERTEX
  8
0
 10
566.894770
 20
345.799312
 42
-0.003440
  0
VERTEX
  8
0
 10
560.551846
 20
349.069660
 42
-0.278879
  0
VERTEX
  8
0
 10
560.000000
 20
349.982112
 42
-0.101123
  0
VERTEX
  8
0
 10
560.079371
 20
350.370547
 42
-0.098412
  0
VERTEX
  8
0
 10
560.305110
 20
350.700995
 42
-0.097440
  0
VERTEX
  8
0
 10
560.642244
 20
350.922369
 42
-0.096992
  0
VERTEX
  8
0
 10
561.038674
 20
351.000000
 42
-0.096280
  0
VERTEX
  8
0
 10
562.888598
 20
350.640447
 42
-0.000214
  0
VERTEX
  8
0
 10
589.276713
 20
339.966978
 42
-0.001432
  0
VERTEX
  8
0
 10
618.910814
 20
327.866944
 42
-0.000899
  0
VERTEX
  8
0
 10
653.500000
 20
313.555239
 42
-0.011950
  0
VERTEX
  8
0
 10
665.155418
 20
308.378048
 42
-0.050862
  0
VERTEX
  8
0
 10
671.670971
 20
304.440976
 42
-0.075732
  0
VERTEX
  8
0
 10
675.911717
 20
300.106271
 42
-0.050401
  0
VERTEX
  8
0
 10
679.387301
 20
294.071777
 42
-0.048365
  0
VERTEX
  8
0
 10
681.960638
 20
286.439088
 42
-0.061385
  0
VERTEX
  8
0
 10
682.746317
 20
279.048384
 42
-0.072285
  0
VERTEX
  8
0
 10
681.728141
 20
272.780115
 42
-0.133252
  0
VERTEX
  8
0
 10
678.959419
 20
268.463275
 42
-0.006196
  0
VERTEX
  8
0
 10
677.646034
 20
267.303954
 42
-0.471301
  0
VERTEX
  8
0
 10
677.401875
 20
267.345883
 42
-0.214191
  0
VERTEX
  8
0
 10
677.365994
 20
267.711338
 42
-0.002823
  0
VERTEX
  8
0
 10
678.123335
 20
269.923954
 42
0.077349
  0
VERTEX
  8
0
 10
678.965939
 20
274.527287
 42
0.030831
  0
VERTEX
  8
0
 10
678.740821
 20
280.957374
 42
0.030986
  0
VERTEX
  8
0
 10
677.700484
 20
287.462185
 42
0.060736
  0
VERTEX
  8
0
 10
675.944893
 20
292.395890
 42
0.045357
  0
VERTEX
  8
0
 10
673.124889
 20
296.956054
 42
0.052652
  0
VERTEX
  8
0
 10
669.650071
 20
300.688267
 42
0.059741
  0
VERTEX
  8
0
 10
665.983893
 20
303.177907
 42
0.119872
  0
VERTEX
  8
0
 10
662.604108
 20
304.000000
 42
0.083629
  0
VERTEX
  8
0
 10
659.778003
 20
303.523982
 42
0.265592
  0
VERTEX
  8
0
 10
658.563506
 20
302.133263
 42
0.170464
  0
VERTEX
  8
0
 10
658.888914
 20
299.807653
 42
0.036541
  0
VERTEX
  8
0
 10
661.050094
 20
296.280716
 42
-0.039140
  0
VERTEX
  8
0
 10
663.710235
 20
291.888484
 42
-0.029201
  0
VERTEX
  8
0
 10
665.957848
 20
286.687836
 42
-0.029825
  0
VERTEX
  8
0
 10
667.499631
 20
281.519670
 42
-0.059094
  0
VERTEX
  8
0
 10
667.978038
 20
277.274983
 42
-0.062333
  0
VERTEX
  8
0
 10
667.490799
 20
273.557481
 42
-0.040287
  0
VERTEX
  8
0
 10
666.060389
 20
269.453286
 42
-0.040365
  0
VERTEX
  8
0
 10
664.136545
 20
265.902880
 42
-0.126197
  0
VERTEX
  8
0
 10
662.150756
 20
264.080682
 42
-0.092972
  0
VERTEX
  8
0
 10
659.263440
 20
263.168556
 42
-0.063192
  0
VERTEX
  8
0
 10
655.808176
 20
263.188044
 42
-0.050330
  0
VERTEX
  8
0
 10
651.740646
 20
264.150872
 42
-0.027648
  0
VERTEX
  8
0
 10
647.000000
 20
266.090071
 42
0.003023
  0
VERTEX
  8
0
 10
643.635489
 20
267.663863
 42
0.000954
  0
VERTEX
  8
0
 10
638.590625
 20
269.974928
 42
0.000953
  0
VERTEX
  8
0
 10
632.953824
 20
272.531192
 42
0.001058
  0
VERTEX
  8
0
 10
627.500000
 20
274.978081
 42
-0.000167
  0
VERTEX
  8
0
 10
620.586990
 20
278.064859
 42
-0.000045
  0
VERTEX
  8
0
 10
609.653125
 20
282.952584
 42
-0.000046
  0
VERTEX
  8
0
 10
597.247647
 20
288.500875
 42
-0.000048
  0
VERTEX
  8
0
 10
585.000000
 20
293.981324
 42
0.000351
  0
VERTEX
  8
0
 10
571.884494
 20
299.840553
 42
0.000233
  0
VERTEX
  8
0
 10
556.821875
 20
306.548532
 42
0.000234
  0
VERTEX
  8
0
 10
542.185223
 20
313.050423
 42
0.000457
  0
VERTEX
  8
0
 10
530.500000
 20
318.221905
 42
-0.000296
  0
VERTEX
  8
0
 10
496.640700
 20
333.193838
 42
-0.000239
  0
VERTEX
  8
0
 10
460.290624
 20
349.313598
 42
-0.000233
  0
VERTEX
  8
0
 10
427.305199
 20
363.978488
 42
-0.000808
  0
VERTEX
  8
0
 10
406.000000
 20
373.503646
 42
0.000722
  0
VERTEX
  8
0
 10
396.779524
 20
377.627842
 42
0.000581
  0
VERTEX
  8
0
 10
386.850000
 20
382.038171
 42
0.000587
  0
VERTEX
  8
0
 10
377.664333
 20
386.092460
 42
0.001501
  0
VERTEX
  8
0
 10
371.000000
 20
389.000723
 42
-0.002207
  0
VERTEX
  8
0
 10
359.355805
 20
394.101754
 42
-0.001056
  0
VERTEX
  8
0
 10
344.440703
 20
400.752049
 42
-0.000615
  0
VERTEX
  8
0
 10
322.321903
 20
410.703045
 42
-0.000132
  0
VERTEX
  8
0
 10
284.000000
 20
428.012492
 42
0.000190
  0
VERTEX
  8
0
 10
269.798656
 20
434.425040
 42
0.000117
  0
VERTEX
  8
0
 10
253.087500
 20
441.958507
 42
0.000118
  0
VERTEX
  8
0
 10
236.566030
 20
449.397119
 42
0.000211
  0
VERTEX
  8
0
 10
223.000000
 20
455.494349
 42
-0.000132
  0
VERTEX
  8
0
 10
208.839878
 20
461.855879
 42
-0.000059
  0
VERTEX
  8
0
 10
190.268750
 20
470.207604
 42
-0.000059
  0
VERTEX
  8
0
 10
170.662549
 20
479.030383
 42
-0.000080
  0
VERTEX
  8
0
 10
153.000000
 20
486.984421
 42
0.000303
  0
VERTEX
  8
0
 10
137.310437
 20
494.041534
 42
0.000466
  0
VERTEX
  8
0
 10
123.717061
 20
500.130652
 42
0.000148
  0
VERTEX
  8
0
 10
111.927186
 20
505.394521
 42
0.013658
  0
VERTEX
  8
0
 10
110.185738
 20
506.115053
 42
-0.016218
  0
VERTEX
  8
0
 10
106.578801
 20
507.629111
 42
-0.000402
  0
VERTEX
  8
0
 10
90.321648
 20
515.098061
 42
-0.000111
  0
VERTEX
  8
0
 10
73.030116
 20
523.063739
 42
-0.064154
  0
VERTEX
  8
0
 10
72.083333
 20
523.657384
 42
-0.159756
  0
VERTEX
  8
0
 10
71.970994
 20
523.834287
 42
-0.109488
  0
VERTEX
  8
0
 10
71.963602
 20
524.073897
 42
-0.087129
  0
VERTEX
  8
0
 10
72.064645
 20
524.341456
 42
-0.062705
  0
VERTEX
  8
0
 10
72.260845
 20
524.594179
 42
-0.286347
  0
VERTEX
  8
0
 10
72.774853
 20
524.713245
 42
-0.004151
  0
VERTEX
  8
0
 10
75.859590
 20
523.627462
 42
-0.009918
  0
VERTEX
  8
0
 10
79.485924
 20
522.235191
 42
-0.006201
  0
VERTEX
  8
0
 10
83.677512
 20
520.468851
 42
0.000100
  0
VERTEX
  8
0
 10
88.616453
 20
518.316242
 42
0.000058
  0
VERTEX
  8
0
 10
94.552144
 20
515.731443
 42
0.000058
  0
VERTEX
  8
0
 10
100.504730
 20
513.140935
 42
0.000098
  0
VERTEX
  8
0
 10
105.500000
 20
510.968896
 42
-0.001921
  0
VERTEX
  8
0
 10
110.959093
 20
508.571467
 42
-0.000730
  0
VERTEX
  8
0
 10
118.556250
 20
505.186906
 42
-0.000723
  0
VERTEX
  8
0
 10
126.802489
 20
501.484411
 42
-0.000885
  0
VERTEX
  8
0
 10
134.500000
 20
497.998497
 42
0.000786
  0
VERTEX
  8
0
 10
144.402441
 20
493.511681
 42
0.000180
  0
VERTEX
  8
0
 10
161.165625
 20
485.955219
 42
0.000186
  0
VERTEX
  8
0
 10
180.494526
 20
477.259175
 42
0.000181
  0
VERTEX
  8
0
 10
200.000000
 20
468.500883
 42
-0.000159
  0
VERTEX
  8
0
 10
244.569735
 20
448.490640
 42
-0.000316
  0
VERTEX
  8
0
 10
279.862402
 20
432.605118
 42
-0.000352
  0
VERTEX
  8
0
 10
306.808133
 20
420.433304
 42
-0.001725
  0
VERTEX
  8
0
 10
322.000000
 20
413.494789
 42
0.002450
  0
VERTEX
  8
0
 10
328.148097
 20
410.697557
 42
0.000992
  0
VERTEX
  8
0
 10
336.556250
 20
406.941688
 42
0.000981
  0
VERTEX
  8
0
 10
345.618806
 20
402.936319
 42
0.001247
  0
VERTEX
  8
0
 10
354.000000
 20
399.276654
 42
-0.000844
  0
VERTEX
  8
0
 10
362.489464
 20
395.577859
 42
-0.000621
  0
VERTEX
  8
0
 10
371.884375
 20
391.451773
 42
-0.000627
  0
VERTEX
  8
0
 10
380.761315
 20
387.526703
 42
-0.001401
  0
VERTEX
  8
0
 10
387.500000
 20
384.514358
 42
0.001333
  0
VERTEX
  8
0
 10
410.531314
 20
374.215092
 42
0.000252
  0
VERTEX
  8
0
 10
452.646964
 20
355.541509
 42
0.000216
  0
VERTEX
  8
0
 10
494.917278
 20
336.846585
 42
0.001933
  0
VERTEX
  8
0
 10
513.500000
 20
328.723281
 42
-0.001792
  0
VERTEX
  8
0
 10
522.054433
 20
324.986636
 42
-0.000333
  0
VERTEX
  8
0
 10
537.753125
 20
318.049718
 42
-0.000357
  0
VERTEX
  8
0
 10
556.097461
 20
309.913498
 42
-0.000325
  0
VERTEX
  8
0
 10
575.000000
 20
301.498820
 42
0.000437
  0
VERTEX
  8
0
 10
618.683225
 20
282.064445
 42
0.003315
  0
VERTEX
  8
0
 10
639.358048
 20
273.051584
 42
0.003372
  0
VERTEX
  8
0
 10
652.131831
 20
267.685173
 42
0.098057
  0
VERTEX
  8
0
 10
655.591975
 20
267.000000
 42
0.126597
  0
VERTEX
  8
0
 10
658.140082
 20
267.655673
 42
0.078448
  0
VERTEX
  8
0
 10
660.594583
 20
269.561736
 42
0.077003
  0
VERTEX
  8
0
 10
662.383857
 20
272.175787
 42
0.112100
  0
VERTEX
  8
0
 10
663.000000
 20
274.889446
 42
0.131906
  0
VERTEX
  8
0
 10
661.577466
 20
280.187832
 42
0.124826
  0
VERTEX
  8
0
 10
657.671550
 20
284.192112
 42
0.036965
  0
VERTEX
  8
0
 10
648.741549
 20
288.791008
 42
0.002434
  0
VERTEX
  8
0
 10
622.000000
 20
299.996660
 42
-0.000262
  0
VERTEX
  8
0
 10
610.009257
 20
304.960093
 42
-0.000286
  0
VERTEX
  8
0
 10
598.375000
 20
309.790919
 42
-0.000268
  0
VERTEX
  8
0
 10
588.424183
 20
313.935677
 42
-0.001429
  0
VERTEX
  8
0
 10
583.000000
 20
316.216615
 42
0.001646
  0
VERTEX
  8
0
 10
578.411987
 20
318.143591
 42
0.000726
  0
VERTEX
  8
0
 10
572.333083
 20
320.662885
 42
0.000718
  0
VERTEX
  8
0
 10
565.880449
 20
323.315253
 42
0.000966
  0
VERTEX
  8
0
 10
560.027518
 20
325.698101
 42
-0.000983
  0
VERTEX
  8
0
 10
554.574205
 20
327.918480
 42
-0.001099
  0
VERTEX
  8
0
 10
549.329494
 20
330.079434
 42
-0.001011
  0
VERTEX
  8
0
 10
544.869220
 20
331.939237
 42
-0.005852
  0
VERTEX
  8
0
 10
542.527518
 20
332.953603
 42
0.002381
  0
VERTEX
  8
0
 10
539.763427
 20
334.173792
 42
0.000120
  0
VERTEX
  8
0
 10
530.723708
 20
338.110402
 42
0.000193
  0
VERTEX
  8
0
 10
519.976821
 20
342.782457
 42
0.000139
  0
VERTEX
  8
0
 10
508.000000
 20
347.979759
 42
-0.000185
  0
VERTEX
  8
0
 10
480.209720
 20
360.042296
 42
-0.000342
  0
VERTEX
  8
0
 10
457.613714
 20
369.878540
 42
-0.000414
  0
VERTEX
  8
0
 10
439.507232
 20
377.793012
 42
-0.000972
  0
VERTEX
  8
0
 10
426.000000
 20
383.741750
 42
0.000958
  0
VERTEX
  8
0
 10
415.993355
 20
388.149110
 42
0.000605
  0
VERTEX
  8
0
 10
404.300643
 20
393.255491
 42
0.000401
  0
VERTEX
  8
0
 10
388.413448
 20
400.155618
 42
0.000118
  0
VERTEX
  8
0
 10
364.000000
 20
410.728760
 42
-0.000762
  0
VERTEX
  8
0
 10
334.923955
 20
423.365706
 42
-0.000941
  0
VERTEX
  8
0
 10
307.874895
 20
435.231390
 42
-0.001029
  0
VERTEX
  8
0
 10
283.482667
 20
446.046436
 42
-0.001601
  0
VERTEX
  8
0
 10
262.500000
 20
455.482120
 42
0.001321
  0
VERTEX
  8
0
 10
250.277352
 20
460.986738
 42
0.000802
  0
VERTEX
  8
0
 10
235.793750
 20
467.435779
 42
0.000803
  0
VERTEX
  8
0
 10
221.403944
 20
473.787772
 42
0.001418
  0
VERTEX
  8
0
 10
209.500000
 20
478.979374
 42
-0.001566
  0
VERTEX
  8
0
 10
188.179925
 20
488.285113
 42
-0.000998
  0
VERTEX
  8
0
 10
163.427571
 20
499.240423
 42
-0.000876
  0
VERTEX
  8
0
 10
140.497979
 20
509.491883
 42
-0.004635
  0
VERTEX
  8
0
 10
128.000000
 20
515.245639
 42
0.001995
  0
VERTEX
  8
0
 10
112.261172
 20
522.592371
 42
0.005281
  0
VERTEX
  8
0
 10
100.927897
 20
527.683121
 42
0.001816
  0
VERTEX
  8
0
 10
92.039092
 20
531.525172
 42
0.244167
  0
VERTEX
  8
0
 10
90.903364
 20
531.440276
 42
0.177906
  0
VERTEX
  8
0
 10
90.552272
 20
530.992627
 42
0.028375
  0
VERTEX
  8
0
 10
90.265363
 20
529.897525
 42
0.028415
  0
VERTEX
  8
0
 10
90.066074
 20
528.510314
 42
0.021471
  0
VERTEX
  8
0
 10
90.000000
 20
526.972368
 42
-0.015382
  0
VERTEX
  8
0
 10
89.939054
 20
524.991776
 42
-0.090560
  0
VERTEX
  8
0
 10
89.690889
 20
523.987052
 42
-0.230763
  0
VERTEX
  8
0
 10
89.218016
 20
523.593237
 42
-0.152991
  0
VERTEX
  8
0
 10
88.500000
 20
523.638374
 42
-0.165831
  0
VERTEX
  8
0
 10
87.810105
 20
524.213683
 42
-0.074672
  0
VERTEX
  8
0
 10
87.347435
 20
525.314192
 42
-0.046547
  0
VERTEX
  8
0
 10
87.079185
 20
527.021029
 42
-0.015716
  0
VERTEX
  8
0
 10
87.000000
 20
529.539601
 42
-0.033552
  0
VERTEX
  8
0
 10
87.256977
 20
533.364804
 42
-0.218747
  0
VERTEX
  8
0
 10
88.262675
 20
534.951698
 42
-0.105037
  0
VERTEX
  8
0
 10
90.538700
 20
535.823794
 42
-0.005228
  0
VERTEX
  8
0
 10
98.500000
 20
536.995676
 42
0.006454
  0
VERTEX
  8
0
 10
103.287424
 20
537.712370
 42
0.006680
  0
VERTEX
  8
0
 10
107.999924
 20
538.544940
 42
0.005175
  0
VERTEX
  8
0
 10
112.067830
 20
539.363526
 42
0.050625
  0
VERTEX
  8
0
 10
113.734708
 20
539.897639
 42
-0.199024
  0
VERTEX
  8
0
 10
113.926334
 20
539.901153
 42
-0.000110
  0
VERTEX
  8
0
 10
119.411912
 20
537.743190
 42
-0.001393
  0
VERTEX
  8
0
 10
125.521060
 20
535.318702
 42
-0.000846
  0
SEQEND
  0
POLYLINE
  8
0
 66
1
 70
1
  0
VERTEX
  8
0
 10
222.190648
 20
515.209352
 42
-0.216537
  0
VERTEX
  8
0
 10
222.642226
 20
514.005649
 42
-0.419639
  0
VERTEX
  8
0
 10
221.935070
 20
513.399581
 42
-0.064205
  0
VERTEX
  8
0
 10
219.005955
 20
514.037087
 42
-0.014361
  0
VERTEX
  8
0
 10
214.230632
 20
515.896161
 42
0.002345
  0
VERTEX
  8
0
 10
210.692625
 20
517.372384
 42
0.001352
  0
VERTEX
  8
0
 10
206.420873
 20
519.117789
 42
0.001351
  0
VERTEX
  8
0
 10
202.123000
 20
520.846807
 42
0.002264
  0
VERTEX
  8
0
 10
198.500000
 20
522.273978
 42
-0.000965
  0
VERTEX
  8
0
 10
192.095108
 20
524.777790
 42
-0.033726
  0
VERTEX
  8
0
 10
190.639410
 20
525.466686
 42
-0.228348
  0
VERTEX
  8
0
 10
190.231430
 20
526.047490
 42
-0.181179
  0
VERTEX
  8
0
 10
190.381902
 20
526.808914
 42
-0.353945
  0
VERTEX
  8
0
 10
191.618342
 20
527.241914
 42
-0.001541
  0
VERTEX
  8
0
 10
205.787143
 20
522.124446
 42
-0.003344
  0
VERTEX
  8
0
 10
219.246582
 20
517.114011
 42
-0.105980
  0
SEQEND
  0
POLYLINE
  8
0
 66
1
 70
1
  0
VERTEX
  8
0
 10
240.000000
 20
506.000000
 42
-0.003549
  0
VERTEX
  8
0
 10
239.914090
 20
493.895268
 42
-0.071578
  0
VERTEX
  8
0
 10
239.339744
 20
490.269623
 42
-0.384738
  0
VERTEX
  8
0
 10
237.895988
 20
489.411601
 42
-0.103535
  0
VERTEX
  8
0
 10
235.222506
 20
490.556704
 42
-0.109142
  0
VERTEX
  8
0
 10
233.972283
 20
491.919452
 42
-0.093312
  0
VERTEX
  8
0
 10
233.323365
 20
493.760633
 42
-0.034891
  0
VERTEX
  8
0
 10
233.052907
 20
497.011143
 42
-0.003315
  0
VERTEX
  8
0
 10
233.000000
 20
504.991604
 42
-0.008612
  0
VERTEX
  8
0
 10
233.165911
 20
514.623485
 42
-0.052330
  0
VERTEX
  8
0
 10
233.855974
 20
519.555561
 42
-0.131874
  0
VERTEX
  8
0
 10
235.237787
 20
522.050388
 42
-0.203426
  0
VERTEX
  8
0
 10
237.475249
 20
523.000000
 42
0.000000
  0
VERTEX
  8
0
 10
240.000000
 20
523.000000
 42
0.000000
  0
SEQEND
  0
POLYLINE
  8
0
 66
1
 70
1
  0
VERTEX
  8
0
 10
204.000000
 20
513.262251
 42
0.000688
  0
VERTEX
  8
0
 10
210.065549
 20
510.566790
 42
0.000980
  0
VERTEX
  8
0
 10
215.460938
 20
508.190668
 42
0.000537
  0
VERTEX
  8
0
 10
220.029835
 20
506.195067
 42
0.014661
  0
VERTEX
  8
0
 10
221.250000
 20
505.705720
 42
-0.111488
  0
VERTEX
  8
0
 10
222.029785
 20
505.201325
 42
-0.093399
  0
VERTEX
  8
0
 10
222.577715
 20
504.380015
 42
-0.069045
  0
VERTEX
  8
0
 10
222.898573
 20
503.193971
 42
-0.031594
  0
VERTEX
  8
0
 10
223.000000
 20
501.590402
 42
-0.020893
  0
VERTEX
  8
0
 10
222.942939
 20
500.225412
 42
-0.027830
  0
VERTEX
  8
0
 10
222.770736
 20
498.996349
 42
-0.027526
  0
VERTEX
  8
0
 10
222.523060
 20
498.025908
 42
-0.179981
  0
VERTEX
  8
0
 10
222.219527
 20
497.635675
 42
-0.240648
  0
VERTEX
  8
0
 10
221.122299
 20
497.546318
 42
-0.000784
  0
VERTEX
  8
0
 10
208.106066
 20
502.936652
 42
-0.004384
  0
VERTEX
  8
0
 10
196.310980
 20
507.964718
 42
-0.017653
  0
VERTEX
  8
0
 10
189.250000
 20
511.349729
 42
-0.033543
  0
VERTEX
  8
0
 10
187.468246
 20
512.440643
 42
-0.111037
  0
VERTEX
  8
0
 10
186.553312
 20
513.456500
 42
-0.102272
  0
VERTEX
  8
0
 10
186.121045
 20
514.814492
 42
-0.026090
  0
VERTEX
  8
0
 10
186.000000
 20
517.132669
 42
-0.016997
  0
VERTEX
  8
0
 10
186.063661
 20
519.004792
 42
-0.067476
  0
VERTEX
  8
0
 10
186.294773
 20
520.129124
 42
-0.164576
  0
VERTEX
  8
0
 10
186.696605
 20
520.642935
 42
-0.248550
  0
VERTEX
  8
0
 10
187.250000
 20
520.694904
 42
-0.005889
  0
VERTEX
  8
0
 10
188.164462
 20
520.302477
 42
-0.000123
  0
VERTEX
  8
0
 10
192.685937
 20
518.297445
 42
-0.000286
  0
VERTEX
  8
0
 10
197.969853
 20
515.949133
 42
-0.000193
  0
SEQEND
  0
POLYLINE
  8
0
 66
1
 70
1
  0
VERTEX
  8
0
 10
445.500000
 20
498.502612
 42
-0.000665
  0
VERTEX
  8
0
 10
463.380974
 20
490.309998
 42
-0.100631
  0
VERTEX
  8
0
 10
465.187663
 20
488.988424
 42
-0.789867
  0
VERTEX
  8
0
 10
464.892717
 20
488.555821
 42
-0.000998
  0
VERTEX
  8
0
 10
449.000000
 20
494.659148
 42
-0.005267
  0
VERTEX
  8
0
 10
437.775921
 20
499.131744
 42
-0.015226
  0
VERTEX
  8
0
 10
430.136534
 20
502.544954
 42
-0.013503
  0
VERTEX
  8
0
 10
424.878188
 20
505.266724
 42
-0.273036
  0
VERTEX
  8
0
 10
424.000000
 20
506.755027
 42
-0.091503
  0
VERTEX
  8
0
 10
424.095451
 20
507.272230
 42
-0.141097
  0
VERTEX
  8
0
 10
424.367188
 20
507.633161
 42
-0.151112
  0
VERTEX
  8
0
 10
424.773785
 20
507.779354
 42
-0.110006
  0
VERTEX
  8
0
 10
425.250000
 20
507.695681
 42
-0.008158
  0
VERTEX
  8
0
 10
426.182318
 20
507.291158
 42
-0.000117
  0
VERTEX
  8
0
 10
431.714063
 20
504.781420
 42
-0.000323
  0
VERTEX
  8
0
 10
438.128005
 20
501.864628
 42
-0.000213
  0
SEQEND
  0
POLYLINE
  8
0
 66
1
 70
1
  0
VERTEX
  8
0
 10
361.500000
 20
482.683701
 42
-0.000679
  0
VERTEX
  8
0
 10
371.988129
 20
478.676545
 42
-0.000613
  0
VERTEX
  8
0
 10
382.828125
 20
474.502835
 42
-0.000613
  0
VERTEX
  8
0
 10
392.531111
 20
470.739553
 42
-0.001954
  0
VERTEX
  8
0
 10
399.000000
 20
468.192316
 42
0.003054
  0
VERTEX
  8
0
 10
404.207415
 20
466.155027
 42
0.002921
  0
VERTEX
  8
0
 10
409.517187
 20
464.150517
 42
0.002893
  0
VERTEX
  8
0
 10
414.224727
 20
462.435630
 42
0.010462
  0
VERTEX
  8
0
 10
417.250000
 20
461.424233
 42
-0.013563
  0
VERTEX
  8
0
 10
420.195060
 20
460.419301
 42
-0.058640
  0
VERTEX
  8
0
 10
421.837611
 20
459.578507
 42
-0.109836
  0
VERTEX
  8
0
 10
422.695697
 20
458.678838
 42
-0.135699
  0
VERTEX
  8
0
 10
423.007138
 20
457.567378
 42
-0.018971
  0
VERTEX
  8
0
 10
422.848415
 20
452.966438
 42
-0.001217
  0
VERTEX
  8
0
 10
421.843350
 20
439.564850
 42
-0.000189
  0
VERTEX
  8
0
 10
420.692166
 20
424.772733
 42
-0.163372
  0
VERTEX
  8
0
 10
420.417284
 20
424.126056
 42
-0.312421
  0
VERTEX
  8
0
 10
420.109071
 20
424.050840
 42
-0.001756
  0
VERTEX
  8
0
 10
417.159435
 20
425.194149
 42
-0.006469
  0
VERTEX
  8
0
 10
413.762794
 20
426.575410
 42
-0.003963
  0
VERTEX
  8
0
 10
409.792722
 20
428.287230
 42
0.001940
  0
VERTEX
  8
0
 10
404.734039
 20
430.492762
 42
0.000786
  0
VERTEX
  8
0
 10
397.823487
 20
433.460960
 42
0.000778
  0
VERTEX
  8
0
 10
390.379523
 20
436.630724
 42
0.000989
  0
VERTEX
  8
0
 10
383.500000
 20
439.531461
 42
-0.000281
  0
VERTEX
  8
0
 10
369.477588
 20
445.420590
 42
-0.000295
  0
VERTEX
  8
0
 10
355.689185
 20
451.230118
 42
-0.000281
  0
VERTEX
  8
0
 10
341.310973
 20
457.307651
 42
-0.000211
  0
VERTEX
  8
0
 10
325.500000
 20
464.009135
 42
0.001867
  0
VERTEX
  8
0
 10
315.419505
 20
468.242418
 42
0.001526
  0
VERTEX
  8
0
 10
304.606497
 20
472.697230
 42
0.001305
  0
VERTEX
  8
0
 10
292.210297
 20
477.722366
 42
0.000751
  0
VERTEX
  8
0
 10
277.250000
 20
483.715409
 42
-0.127616
  0
VERTEX
  8
0
 10
276.771292
 20
484.066925
 42
-0.062454
  0
VERTEX
  8
0
 10
276.367188
 20
484.713188
 42
-0.055871
  0
VERTEX
  8
0
 10
276.092861
 20
485.534280
 42
-0.052753
  0
VERTEX
  8
0
 10
276.000000
 20
486.411987
 42
-0.131632
  0
VERTEX
  8
0
 10
276.327061
 20
487.632795
 42
-0.154230
  0
VERTEX
  8
0
 10
277.207977
 20
488.439140
 42
-0.061171
  0
VERTEX
  8
0
 10
279.065112
 20
489.040165
 42
-0.007614
  0
VERTEX
  8
0
 10
283.250000
 20
489.782566
 42
-0.003940
  0
VERTEX
  8
0
 10
293.517014
 20
491.360178
 42
-0.031961
  0
VERTEX
  8
0
 10
298.258756
 20
491.743602
 42
-0.066894
  0
VERTEX
  8
0
 10
301.482894
 20
491.365287
 42
-0.055394
  0
VERTEX
  8
0
 10
304.719744
 20
490.142976
 42
0.014795
  0
VERTEX
  8
0
 10
307.171637
 20
488.982205
 42
0.002144
  0
VERTEX
  8
0
 10
312.244545
 20
486.787711
 42
0.002427
  0
VERTEX
  8
0
 10
318.268270
 20
484.247014
 42
0.002076
  0
VERTEX
  8
0
 10
324.638543
 20
481.627467
 42
-0.000610
  0
VERTEX
  8
0
 10
331.057321
 20
479.009941
 42
-0.000685
  0
VERTEX
  8
0
 10
337.227405
 20
476.475174
 42
-0.000628
  0
VERTEX
  8
0
 10
342.474848
 20
474.303326
 42
-0.003683
  0
VERTEX
  8
0
 10
345.220707
 20
473.139024
 42
0.030688
  0
VERTEX
  8
0
 10
348.154621
 20
472.077855
 42
0.103845
  0
VERTEX
  8
0
 10
350.174617
 20
471.918458
 42
0.483502
  0
VERTEX
  8
0
 10
350.578629
 20
472.589603
 42
0.140610
  0
VERTEX
  8
0
 10
349.738990
 20
473.721471
 42
0.063407
  0
VERTEX
  8
0
 10
347.903752
 20
474.788205
 42
0.000636
  0
VERTEX
  8
0
 10
333.956811
 20
480.661950
 42
0.002372
  0
VERTEX
  8
0
 10
320.618543
 20
486.185141
 42
0.005824
  0
VERTEX
  8
0
 10
310.750000
 20
490.083329
 42
-0.012560
  0
VERTEX
  8
0
 10
306.901785
 20
491.663666
 42
-0.105452
  0
VERTEX
  8
0
 10
305.387291
 20
492.756150
 42
-0.413703
  0
VERTEX
  8
0
 10
305.430742
 20
493.646356
 42
-0.107958
  0
VERTEX
  8
0
 10
306.806906
 20
494.438714
 42
-0.144181
  0
VERTEX
  8
0
 10
309.170642
 20
494.488223
 42
-0.012975
  0
VERTEX
  8
0
 10
314.904760
 20
492.768375
 42
-0.013713
  0
VERTEX
  8
0
 10
322.524955
 20
490.031893
 42
-0.005965
  0
VERTEX
  8
0
 10
332.500000
 20
486.000000
 42
0.003148
  0
VERTEX
  8
0
 10
336.804692
 20
484.231777
 42
0.002505
  0
VERTEX
  8
0
 10
341.471875
 20
482.376050
 42
0.002532
  0
VERTEX
  8
0
 10
345.813863
 20
480.700087
 42
0.006364
  0
VERTEX
  8
0
 10
349.000000
 20
479.534965
 42
-0.008995
  0
VERTEX
  8
0
 10
352.430679
 20
478.259912
 42
-0.002452
  0
VERTEX
  8
0
 10
357.801123
 20
476.122759
 42
-0.002480
  0
VERTEX
  8
0
 10
363.869187
 20
473.638380
 42
-0.002578
  0
VERTEX
  8
0
 10
369.833611
 20
471.125687
 42
0.003802
  0
VERTEX
  8
0
 10
379.159362
 20
467.223779
 42
0.025037
  0
VERTEX
  8
0
 10
383.931538
 20
465.543193
 42
0.081764
  0
VERTEX
  8
0
 10
386.225924
 20
465.254023
 42
0.500052
  0
VERTEX
  8
0
 10
386.803803
 20
466.088590
 42
0.208484
  0
VERTEX
  8
0
 10
385.733665
 20
467.277599
 42
0.003133
  0
VERTEX
  8
0
 10
377.024066
 20
471.173566
 42
0.005732
  0
VERTEX
  8
0
 10
364.626248
 20
476.457591
 42
0.001478
  0
VERTEX
  8
0
 10
344.500000
 20
484.694650
 42
-0.000139
  0
VERTEX
  8
0
 10
336.273123
 20
488.035973
 42
-0.000196
  0
VERTEX
  8
0
 10
328.934375
 20
491.022313
 42
-0.000114
  0
VERTEX
  8
0
 10
322.744887
 20
493.545456
 42
-0.002685
  0
VERTEX
  8
0
 10
321.000000
 20
494.268177
 42
0.000000
  0
VERTEX
  8
0
 10
318.500000
 20
495.319427
 42
0.000000
  0
VERTEX
  8
0
 10
321.500000
 20
495.984743
 42
-0.097088
  0
VERTEX
  8
0
 10
324.440842
 20
496.057309
 42
-0.038050
  0
VERTEX
  8
0
 10
328.395112
 20
495.068814
 42
-0.010203
  0
VERTEX
  8
0
 10
335.777059
 20
492.445672
 42
-0.000440
  0
SEQEND
  0
POLYLINE
  8
0
 66
1
 70
1
  0
VERTEX
  8
0
 10
267.721487
 20
476.432822
 42
0.005086
  0
VERTEX
  8
0
 10
270.867080
 20
475.073494
 42
0.001253
  0
VERTEX
  8
0
 10
276.061937
 20
472.906337
 42
0.001282
  0
VERTEX
  8
0
 10
282.024859
 20
470.454177
 42
0.001282
  0
VERTEX
  8
0
 10
288.000000
 20
468.032742
 42
-0.002619
  0
VERTEX
  8
0
 10
294.736030
 20
465.281965
 42
-0.001374
  0
VERTEX
  8
0
 10
303.087500
 20
461.793423
 42
-0.001366
  0
VERTEX
  8
0
 10
311.627480
 20
458.171040
 42
-0.002099
  0
VERTEX
  8
0
 10
319.000000
 20
454.983390
 42
0.000866
  0
VERTEX
  8
0
 10
326.476978
 20
451.728670
 42
0.000522
  0
VERTEX
  8
0
 10
335.353125
 20
447.894167
 42
0.000523
  0
VERTEX
  8
0
 10
344.182240
 20
444.101852
 42
0.000916
  0
VERTEX
  8
0
 10
351.500000
 20
440.983603
 42
-0.001045
  0
VERTEX
  8
0
 10
376.096592
 20
430.494941
 42
-0.001793
  0
VERTEX
  8
0
 10
396.556444
 20
421.632696
 42
-0.000755
  0
VERTEX
  8
0
 10
413.599083
 20
414.147254
 42
-0.041193
  0
VERTEX
  8
0
 10
416.686161
 20
412.469979
 42
-0.045310
  0
VERTEX
  8
0
 10
418.222026
 20
411.251687
 42
-0.133893
  0
VERTEX
  8
0
 10
418.912290
 20
410.109077
 42
-0.306172
  0
VERTEX
  8
0
 10
418.659126
 20
409.337346
 42
-0.166409
  0
VERTEX
  8
0
 10
417.673588
 20
409.000000
 42
-0.098899
  0
VERTEX
  8
0
 10
415.703327
 20
409.393562
 42
-0.000761
  0
VERTEX
  8
0
 10
400.596667
 20
415.706506
 42
-0.002219
  0
VERTEX
  8
0
 10
380.753534
 20
424.138036
 42
-0.000721
  0
VERTEX
  8
0
 10
351.500000
 20
436.771707
 42
0.000362
  0
VERTEX
  8
0
 10
339.333754
 20
442.036288
 42
0.000328
  0
VERTEX
  8
0
 10
326.759375
 20
447.456875
 42
0.000329
  0
VERTEX
  8
0
 10
315.501001
 20
452.292626
 42
0.001057
  0
VERTEX
  8
0
 10
308.000000
 20
455.489898
 42
-0.002997
  0
VERTEX
  8
0
 10
289.119289
 20
463.624425
 42
-0.004726
  0
VERTEX
  8
0
 10
273.026873
 20
470.854344
 42
-0.000878
  0
VERTEX
  8
0
 10
258.890429
 20
477.396873
 42
-0.449321
  0
VERTEX
  8
0
 10
258.641308
 20
478.228641
 42
-0.221055
  0
VERTEX
  8
0
 10
259.604258
 20
478.862442
 42
-0.085772
  0
VERTEX
  8
0
 10
261.238809
 20
478.822995
 42
-0.044502
  0
VERTEX
  8
0
 10
263.765607
 20
478.084901
 42
-0.011233
  0
SEQEND
  0
POLYLINE
  8
0
 66
1
 70
1
  0
VERTEX
  8
0
 10
435.859153
 20
442.265644
 42
0.003995
  0
VERTEX
  8
0
 10
435.699544
 20
435.997050
 42
0.035619
  0
VERTEX
  8
0
 10
435.847610
 20
433.244553
 42
0.102653
  0
VERTEX
  8
0
 10
436.326971
 20
431.842950
 42
0.214539
  0
VERTEX
  8
0
 10
437.250000
 20
431.192320
 42
0.152506
  0
VERTEX
  8
0
 10
438.141294
 20
431.291980
 42
0.207054
  0
VERTEX
  8
0
 10
438.685721
 20
431.878228
 42
0.074682
  0
VERTEX
  8
0
 10
438.948237
 20
433.235876
 42
0.009838
  0
VERTEX
  8
0
 10
439.013655
 20
436.176676
 42
-0.016110
  0
VERTEX
  8
0
 10
439.170859
 20
440.694556
 42
-0.051459
  0
VERTEX
  8
0
 10
439.680051
 20
443.663997
 42
-0.093927
  0
VERTEX
  8
0
 10
440.535248
 20
445.390295
 42
-0.235076
  0
VERTEX
  8
0
 10
441.760407
 20
446.000000
 42
-0.245997
  0
VERTEX
  8
0
 10
442.507211
 20
445.608912
 42
-0.123252
  0
VERTEX
  8
0
 10
442.893738
 20
444.584189
 42
-0.043127
  0
VERTEX
  8
0
 10
442.954028
 20
442.522251
 42
-0.005989
  0
VERTEX
  8
0
 10
442.658997
 20
438.250000
 42
0.002781
  0
VERTEX
  8
0
 10
441.505208
 20
422.969585
 42
0.013718
  0
VERTEX
  8
0
 10
441.139387
 20
414.340506
 42
0.015792
  0
VERTEX
  8
0
 10
441.229432
 20
408.931716
 42
0.400158
  0
VERTEX
  8
0
 10
442.207201
 20
408.000000
 42
0.321283
  0
VERTEX
  8
0
 10
443.297587
 20
408.781291
 42
0.044793
  0
VERTEX
  8
0
 10
443.990781
 20
411.641090
 42
0.015089
  0
VERTEX
  8
0
 10
444.687395
 20
417.511907
 42
0.001027
  0
VERTEX
  8
0
 10
446.128339
 20
434.250000
 42
-0.003428
  0
VERTEX
  8
0
 10
446.862441
 20
442.323447
 42
-0.023427
  0
VERTEX
  8
0
 10
447.437212
 20
446.276697
 42
-0.050622
  0
VERTEX
  8
0
 10
448.074169
 20
448.392751
 42
-0.303116
  0
VERTEX
  8
0
 10
448.983812
 20
449.000000
 42
-0.135808
  0
VERTEX
  8
0
 10
450.800063
 20
448.497408
 42
-0.183738
  0
VERTEX
  8
0
 10
451.844797
 20
447.171780
 42
-0.084657
  0
VERTEX
  8
0
 10
452.195770
 20
444.589932
 42
-0.015463
  0
VERTEX
  8
0
 10
451.882742
 20
439.760348
 42
0.007378
  0
VERTEX
  8
0
 10
451.566855
 20
435.863820
 42
0.001923
  0
VERTEX
  8
0
 10
451.175806
 20
429.594131
 42
0.001954
  0
VERTEX
  8
0
 10
450.785626
 20
422.446770
 42
0.001996
  0
VERTEX
  8
0
 10
450.454300
 20
415.347333
 42
0.000000
  0
VERTEX
  8
0
 10
449.722419
 20
398.194667
 42
0.000000
  0
VERTEX
  8
0
 10
441.650923
 20
401.649411
 42
-0.004628
  0
VERTEX
  8
0
 10
438.472644
 20
403.044715
 42
-0.006086
  0
VERTEX
  8
0
 10
435.600514
 20
404.379727
 42
-0.004526
  0
VERTEX
  8
0
 10
433.223949
 20
405.546354
 42
-0.056897
  0
VERTEX
  8
0
 10
432.388230
 20
406.092761
 42
-0.199031
  0
VERTEX
  8
0
 10
431.664421
 20
407.465777
 42
-0.029909
  0
VERTEX
  8
0
 10
431.561353
 20
410.644197
 42
-0.012779
  0
VERTEX
  8
0
 10
431.873178
 20
416.528576
 42
-0.001106
  0
VERTEX
  8
0
 10
433.084181
 20
431.500000
 42
-0.002245
  0
VERTEX
  8
0
 10
433.958232
 20
441.473468
 42
-0.007727
  0
VERTEX
  8
0
 10
434.654229
 20
447.931493
 42
-0.003919
  0
VERTEX
  8
0
 10
435.266284
 20
452.589486
 42
-0.374209
  0
VERTEX
  8
0
 10
435.737984
 20
453.000000
 42
-0.408625
  0
VERTEX
  8
0
 10
435.926579
 20
452.814976
 42
-0.001958
  0
VERTEX
  8
0
 10
435.971710
 20
449.846783
 42
-0.006994
  0
VERTEX
  8
0
 10
435.962353
 20
446.381725
 42
-0.004189
  0
SEQEND
  0
POLYLINE
  8
0
 66
1
 70
1
  0
VERTEX
  8
0
 10
859.399439
 20
440.627146
 42
0.003649
  0
VERTEX
  8
0
 10
864.636297
 20
437.488510
 42
0.002848
  0
VERTEX
  8
0
 10
870.368898
 20
434.153225
 42
0.002879
  0
VERTEX
  8
0
 10
875.743771
 20
431.107936
 42
0.007011
  0
VERTEX
  8
0
 10
879.750000
 20
428.941633
 42
-0.006301
  0
VERTEX
  8
0
 10
882.912335
 20
427.237452
 42
-0.009942
  0
VERTEX
  8
0
 10
885.576563
 20
425.687989
 42
-0.004359
  0
VERTEX
  8
0
 10
887.780222
 20
424.320586
 42
-0.257130
  0
VERTEX
  8
0
 10
888.000000
 20
423.921475
 42
-0.337776
  0
VERTEX
  8
0
 10
887.209646
 20
422.885019
 42
-0.059029
  0
VERTEX
  8
0
 10
884.618632
 20
422.493691
 42
-0.033445
  0
VERTEX
  8
0
 10
880.294825
 20
422.644600
 42
-0.009288
  0
VERTEX
  8
0
 10
873.555848
 20
423.459431
 42
0.001230
  0
VERTEX
  8
0
 10
868.846600
 20
424.105998
 42
0.001025
  0
VERTEX
  8
0
 10
863.838280
 20
424.770622
 42
0.001034
  0
VERTEX
  8
0
 10
859.251284
 20
425.360122
 42
0.002814
  0
VERTEX
  8
0
 10
856.000000
 20
425.752549
 42
0.000000
  0
VERTEX
  8
0
 10
849.500000
 20
426.500000
 42
0.000000
  0
VERTEX
  8
0
 10
848.828681
 20
434.500000
 42
0.009180
  0
VERTEX
  8
0
 10
848.494286
 20
437.764449
 42
0.009673
  0
VERTEX
  8
0
 10
848.044970
 20
440.957812
 42
0.009366
  0
VERTEX
  8
0
 10
847.553211
 20
443.693400
 42
0.042372
  0
VERTEX
  8
0
 10
847.103432
 20
445.250000
 42
-0.018713
  0
VERTEX
  8
0
 10
846.743795
 20
446.304908
 42
-0.034088
  0
VERTEX
  8
0
 10
846.542596
 20
447.192187
 42
-0.042843
  0
VERTEX
  8
0
 10
846.498576
 20
447.827248
 42
-0.409410
  0
VERTEX
  8
0
 10
846.674189
 20
448.000000
 42
-0.131148
  0
VERTEX
  8
0
 10
847.125381
 20
447.879583
 42
-0.000878
  0
VERTEX
  8
0
 10
850.669915
 20
445.834224
 42
-0.003381
  0
VERTEX
  8
0
 10
854.715978
 20
443.453296
 42
-0.002145
  0
SEQEND
  0
POLYLINE
  8
0
 66
1
 70
1
  0
VERTEX
  8
0
 10
475.979091
 20
424.615535
 42
0.014560
  0
VERTEX
  8
0
 10
469.899493
 20
420.809438
 42
0.065759
  0
VERTEX
  8
0
 10
466.757433
 20
418.054774
 42
0.098723
  0
VERTEX
  8
0
 10
465.089548
 20
415.160995
 42
0.057629
  0
VERTEX
  8
0
 10
464.248231
 20
411.231587
 42
0.055352
  0
VERTEX
  8
0
 10
464.318463
 20
406.486020
 42
0.079789
  0
VERTEX
  8
0
 10
465.495359
 20
402.463464
 42
0.081186
  0
VERTEX
  8
0
 10
467.852428
 20
399.061296
 42
0.059500
  0
VERTEX
  8
0
 10
471.417733
 20
396.154308
 42
0.039684
  0
VERTEX
  8
0
 10
477.521245
 20
392.931250
 42
0.005225
  0
VERTEX
  8
0
 10
491.042625
 20
387.277015
 42
0.006137
  0
VERTEX
  8
0
 10
504.755679
 20
381.905337
 42
0.024512
  0
VERTEX
  8
0
 10
513.341196
 20
379.135636
 42
-0.012391
  0
VERTEX
  8
0
 10
516.617295
 20
378.165751
 42
-0.059194
  0
VERTEX
  8
0
 10
518.386606
 20
377.352471
 42
-0.109884
  0
VERTEX
  8
0
 10
519.353818
 20
376.418346
 42
-0.111073
  0
VERTEX
  8
0
 10
519.829081
 20
375.165848
 42
-0.138615
  0
VERTEX
  8
0
 10
519.453801
 20
372.383004
 42
-0.334736
  0
VERTEX
  8
0
 10
517.751534
 20
371.419058
 42
-0.061864
  0
VERTEX
  8
0
 10
513.517798
 20
372.519728
 42
-0.003412
  0
VERTEX
  8
0
 10
500.802754
 20
377.668300
 42
0.000043
  0
VERTEX
  8
0
 10
493.392170
 20
380.727267
 42
0.000049
  0
VERTEX
  8
0
 10
486.260809
 20
383.669444
 42
0.000044
  0
VERTEX
  8
0
 10
480.188839
 20
386.173229
 42
0.000261
  0
VERTEX
  8
0
 10
477.000000
 20
387.485873
 42
-0.002236
  0
VERTEX
  8
0
 10
474.445493
 20
388.549223
 42
-0.001176
  0
VERTEX
  8
0
 10
471.279688
 20
389.892456
 42
-0.001170
  0
VERTEX
  8
0
 10
468.043135
 20
391.283659
 42
-0.001801
  0
VERTEX
  8
0
 10
465.250000
 20
392.503972
 42
0.000000
  0
VERTEX
  8
0
 10
459.000000
 20
395.261425
 42
0.000000
  0
VERTEX
  8
0
 10
459.000000
 20
408.571696
 42
-0.005078
  0
VERTEX
  8
0
 10
459.063987
 20
414.872555
 42
-0.017031
  0
VERTEX
  8
0
 10
459.288291
 20
418.994070
 42
-0.019579
  0
VERTEX
  8
0
 10
459.642935
 20
421.758717
 42
-0.213460
  0
VERTEX
  8
0
 10
460.250000
 20
422.670617
 42
-0.070851
  0
VERTEX
  8
0
 10
461.952452
 20
423.433704
 42
-0.001430
  0
VERTEX
  8
0
 10
471.041343
 20
426.018287
 42
-0.001985
  0
VERTEX
  8
0
 10
479.922499
 20
428.478375
 42
-0.047029
  0
VERTEX
  8
0
 10
482.479091
 20
428.923202
 42
-0.761640
  0
VERTEX
  8
0
 10
482.537693
 20
428.761284
 42
-0.007743
  0
VERTEX
  8
0
 10
480.973592
 20
427.689504
 42
-0.009113
  0
VERTEX
  8
0
 10
478.781070
 20
426.293309
 42
-0.004645
  0
SEQEND
  0
POLYLINE
  8
0
 66
1
 70
1
  0
VERTEX
  8
0
 10
875.230566
 20
378.866395
 42
-0.000899
  0
VERTEX
  8
0
 10
891.620942
 20
373.353171
 42
-0.001361
  0
VERTEX
  8
0
 10
905.859479
 20
368.492000
 42
-0.000503
  0
VERTEX
  8
0
 10
918.104167
 20
364.260515
 42
-0.033641
  0
VERTEX
  8
0
 10
920.142130
 20
363.396496
 42
-0.077086
  0
VERTEX
  8
0
 10
922.797192
 20
361.492532
 42
-0.029987
  0
VERTEX
  8
0
 10
925.835576
 20
358.130384
 42
-0.028991
  0
VERTEX
  8
0
 10
928.725512
 20
354.055990
 42
-0.033258
  0
VERTEX
  8
0
 10
930.981239
 20
349.852054
 42
-0.058025
  0
VERTEX
  8
0
 10
932.460047
 20
345.236539
 42
-0.049247
  0
VERTEX
  8
0
 10
932.949621
 20
340.138013
 42
-0.050172
  0
VERTEX
  8
0
 10
932.434245
 20
335.149418
 42
-0.067236
  0
VERTEX
  8
0
 10
930.930239
 20
330.863257
 42
-0.009159
  0
VERTEX
  8
0
 10
930.113353
 20
329.331982
 42
-0.016032
  0
VERTEX
  8
0
 10
929.374040
 20
328.099856
 42
-0.010665
  0
VERTEX
  8
0
 10
928.744023
 20
327.166664
 42
-0.476621
  0
VERTEX
  8
0
 10
928.539014
 20
327.153095
 42
-0.218721
  0
VERTEX
  8
0
 10
928.442572
 20
327.447377
 42
-0.005254
  0
VERTEX
  8
0
 10
928.625580
 20
328.909979
 42
-0.010537
  0
VERTEX
  8
0
 10
928.899220
 20
330.649173
 42
-0.006848
  0
VERTEX
  8
0
 10
929.285122
 20
332.646833
 42
0.024699
  0
VERTEX
  8
0
 10
929.748725
 20
335.611208
 42
0.042582
  0
VERTEX
  8
0
 10
929.800216
 20
338.106392
 42
0.036502
  0
VERTEX
  8
0
 10
929.424273
 20
340.824227
 42
0.013483
  0
VERTEX
  8
0
 10
928.514248
 20
344.585430
 42
0.020606
  0
VERTEX
  8
0
 10
927.329151
 20
348.342426
 42
0.044162
  0
VERTEX
  8
0
 10
926.049205
 20
351.096622
 42
0.042989
  0
VERTEX
  8
0
 10
924.282657
 20
353.628336
 42
0.018573
  0
VERTEX
  8
0
 10
921.531304
 20
356.688598
 42
0.011700
  0
VERTEX
  8
0
 10
918.461558
 20
359.713012
 42
0.059781
  0
VERTEX
  8
0
 10
916.537232
 20
361.131277
 42
0.087417
  0
VERTEX
  8
0
 10
914.686253
 20
361.788810
 42
0.041760
  0
VERTEX
  8
0
 10
912.162018
 20
362.000000
 42
0.053584
  0
VERTEX
  8
0
 10
908.694121
 20
361.627280
 42
0.289771
  0
VERTEX
  8
0
 10
907.406228
 20
360.357731
 42
0.211628
  0
VERTEX
  8
0
 10
907.804961
 20
358.268966
 42
0.032257
  0
VERTEX
  8
0
 10
910.502889
 20
354.865123
 42
-0.088513
  0
VERTEX
  8
0
 10
916.995875
 20
344.465862
 42
-0.114797
  0
VERTEX
  8
0
 10
918.703458
 20
333.391398
 42
-0.176516
  0
VERTEX
  8
0
 10
915.225856
 20
325.708326
 42
-0.236691
  0
VERTEX
  8
0
 10
908.108637
 20
323.258603
 42
-0.060007
  0
VERTEX
  8
0
 10
903.875195
 20
324.354036
 42
-0.002803
  0
VERTEX
  8
0
 10
890.108391
 20
329.831609
 42
-0.000843
  0
VERTEX
  8
0
 10
875.372215
 20
335.819715
 42
-0.536132
  0
VERTEX
  8
0
 10
875.223634
 20
336.556968
 42
-0.281658
  0
VERTEX
  8
0
 10
875.528593
 20
336.630404
 42
-0.000696
  0
VERTEX
  8
0
 10
879.960743
 20
335.190242
 42
-0.003952
  0
VERTEX
  8
0
 10
884.984864
 20
333.505937
 42
-0.002415
  0
VERTEX
  8
0
 10
890.888479
 20
331.442800
 42
0.002744
  0
VERTEX
  8
0
 10
896.869004
 20
329.357203
 42
0.004054
  0
VERTEX
  8
0
 10
902.140654
 20
327.598823
 42
0.001895
  0
VERTEX
  8
0
 10
906.641268
 20
326.156891
 42
0.076716
  0
VERTEX
  8
0
 10
907.657800
 20
326.000000
 42
0.163996
  0
VERTEX
  8
0
 10
909.677799
 20
326.680857
 42
0.063464
  0
VERTEX
  8
0
 10
911.811570
 20
328.778900
 42
0.061444
  0
VERTEX
  8
0
 10
913.450757
 20
331.486702
 42
0.105796
  0
VERTEX
  8
0
 10
914.000000
 20
334.053416
 42
0.065036
  0
VERTEX
  8
0
 10
913.564882
 20
337.384494
 42
0.058274
  0
VERTEX
  8
0
 10
912.284086
 20
340.626975
 42
0.059697
  0
VERTEX
  8
0
 10
910.330519
 20
343.411049
 42
0.076679
  0
VERTEX
  8
0
 10
907.914340
 20
345.391529
 42
0.037212
  0
VERTEX
  8
0
 10
905.727853
 20
346.472571
 42
0.001739
  0
VERTEX
  8
0
 10
898.067395
 20
349.543855
 42
0.002866
  0
VERTEX
  8
0
 10
888.932019
 20
353.109176
 42
0.002054
  0
VERTEX
  8
0
 10
878.680498
 20
356.994314
 42
-0.000062
  0
VERTEX
  8
0
 10
867.777054
 20
361.076919
 42
-0.000059
  0
VERTEX
  8
0
 10
856.665521
 20
365.240496
 42
-0.000058
  0
VERTEX
  8
0
 10
846.826680
 20
368.929807
 42
-0.000205
  0
VERTEX
  8
0
 10
840.500000
 20
371.305944
 42
0.000978
  0
VERTEX
  8
0
 10
835.404269
 20
373.210777
 42
0.000831
  0
VERTEX
  8
0
 10
830.015780
 20
375.202851
 42
0.000837
  0
VERTEX
  8
0
 10
825.102535
 20
377.000621
 42
0.002360
  0
VERTEX
  8
0
 10
821.660103
 20
378.235309
 42
0.000000
  0
VERTEX
  8
0
 10
814.820205
 20
380.652174
 42
0.000000
  0
VERTEX
  8
0
 10
817.312020
 20
382.284874
 42
-0.048902
  0
VERTEX
  8
0
 10
818.937701
 20
383.136008
 42
-0.109612
  0
VERTEX
  8
0
 10
820.304683
 20
383.365364
 42
-0.063394
  0
VERTEX
  8
0
 10
822.075013
 20
383.045527
 42
-0.008626
  0
VERTEX
  8
0
 10
825.651918
 20
381.849819
 42
0.000531
  0
VERTEX
  8
0
 10
828.923585
 20
380.696936
 42
0.000111
  0
VERTEX
  8
0
 10
834.664934
 20
378.682060
 42
0.000116
  0
VERTEX
  8
0
 10
841.329607
 20
376.346550
 42
0.000110
  0
VERTEX
  8
0
 10
848.122327
 20
373.969616
 42
0.000000
  0
VERTEX
  8
0
 10
864.744653
 20
368.157168
 42
0.000000
  0
VERTEX
  8
0
 10
868.372327
 20
370.738296
 42
0.012556
  0
VERTEX
  8
0
 10
869.762112
 20
371.780674
 42
0.018031
  0
VERTEX
  8
0
 10
870.934371
 20
372.777486
 42
0.014000
  0
VERTEX
  8
0
 10
871.833501
 20
373.647156
 42
0.195966
  0
VERTEX
  8
0
 10
872.000000
 20
374.055660
 42
0.310254
  0
VERTEX
  8
0
 10
871.546846
 20
374.715658
 42
0.001318
  0
VERTEX
  8
0
 10
862.982187
 20
377.986552
 42
0.004001
  0
VERTEX
  8
0
 10
851.037281
 20
382.403369
 42
0.000959
  0
VERTEX
  8
0
 10
831.137376
 20
389.538073
 42
-0.061477
  0
VERTEX
  8
0
 10
830.507837
 20
389.854013
 42
-0.233703
  0
VERTEX
  8
0
 10
830.294111
 20
390.224112
 42
-0.162568
  0
VERTEX
  8
0
 10
830.424948
 20
390.720374
 42
-0.028164
  0
VERTEX
  8
0
 10
831.009821
 20
391.511833
 42
-0.013249
  0
VERTEX
  8
0
 10
831.509003
 20
392.081878
 42
-0.018440
  0
VERTEX
  8
0
 10
831.987286
 20
392.562851
 42
-0.015075
  0
VERTEX
  8
0
 10
832.402374
 20
392.927779
 42
-0.174498
  0
VERTEX
  8
0
 10
832.603011
 20
393.000000
 42
-0.080190
  0
VERTEX
  8
0
 10
832.887700
 20
392.954046
 42
-0.000020
  0
VERTEX
  8
0
 10
845.272581
 20
388.848253
 42
-0.000394
  0
VERTEX
  8
0
 10
858.997743
 20
384.285541
 42
-0.000239
  0
SEQEND
  0
POLYLINE
  8
0
 66
1
 70
1
  0
VERTEX
  8
0
 10
617.000000
 20
387.978201
 42
0.002415
  0
VERTEX
  8
0
 10
633.592836
 20
385.497772
 42
0.001378
  0
VERTEX
  8
0
 10
653.660833
 20
382.653316
 42
0.001372
  0
VERTEX
  8
0
 10
673.229788
 20
379.989319
 42
0.003139
  0
VERTEX
  8
0
 10
688.000000
 20
378.114171
 42
0.000000
  0
VERTEX
  8
0
 10
703.500000
 20
376.245185
 42
0.000000
  0
VERTEX
  8
0
 10
689.112857
 20
376.122593
 42
-0.017567
  0
VERTEX
  8
0
 10
676.053972
 20
376.470166
 42
-0.009841
  0
VERTEX
  8
0
 10
660.220915
 20
377.762182
 42
-0.009244
  0
VERTEX
  8
0
 10
642.966700
 20
379.835530
 42
-0.008778
  0
VERTEX
  8
0
 10
625.500000
 20
382.576118
 42
0.000996
  0
VERTEX
  8
0
 10
619.408595
 20
383.629265
 42
0.000740
  0
VERTEX
  8
0
 10
612.675000
 20
384.769379
 42
0.000747
  0
VERTEX
  8
0
 10
606.317157
 20
385.826433
 42
0.001690
  0
VERTEX
  8
0
 10
601.500000
 20
386.603224
 42
-0.000970
  0
VERTEX
  8
0
 10
588.736624
 20
388.642542
 42
-0.061675
  0
VERTEX
  8
0
 10
586.565167
 20
389.275366
 42
-0.804616
  0
VERTEX
  8
0
 10
586.650720
 20
389.717662
 42
-0.004386
  0
VERTEX
  8
0
 10
594.000000
 20
389.834191
 42
-0.014488
  0
VERTEX
  8
0
 10
598.922079
 20
389.726429
 42
-0.007415
  0
VERTEX
  8
0
 10
605.086268
 20
389.320908
 42
-0.007354
  0
VERTEX
  8
0
 10
611.440451
 20
388.713968
 42
-0.010821
  0
SEQEND
  0
POLYLINE
  8
0
 66
1
 70
1
  0
VERTEX
  8
0
 10
539.494648
 20
371.067622
 42
-0.007040
  0
VERTEX
  8
0
 10
539.721676
 20
367.574527
 42
-0.010084
  0
VERTEX
  8
0
 10
539.816796
 20
364.472494
 42
-0.006342
  0
VERTEX
  8
0
 10
539.811115
 20
361.887074
 42
-0.135494
  0
VERTEX
  8
0
 10
539.598553
 20
361.159462
 42
-0.352152
  0
VERTEX
  8
0
 10
538.393813
 20
360.733246
 42
-0.026620
  0
VERTEX
  8
0
 10
534.963544
 20
362.144752
 42
-0.030070
  0
VERTEX
  8
0
 10
531.633650
 20
363.979985
 42
-0.161521
  0
VERTEX
  8
0
 10
530.338786
 20
365.559522
 42
-0.088818
  0
VERTEX
  8
0
 10
530.167909
 20
366.451695
 42
-0.013419
  0
VERTEX
  8
0
 10
530.194875
 20
368.277222
 42
-0.014691
  0
VERTEX
  8
0
 10
530.349587
 20
370.452995
 42
-0.012228
  0
VERTEX
  8
0
 10
530.638308
 20
372.754047
 42
-0.018003
  0
VERTEX
  8
0
 10
531.355002
 20
376.577889
 42
-0.148563
  0
VERTEX
  8
0
 10
532.218483
 20
378.099198
 42
-0.132079
  0
VERTEX
  8
0
 10
533.823857
 20
378.969852
 42
-0.013142
  0
VERTEX
  8
0
 10
538.143838
 20
379.881685
 42
-0.416805
  0
VERTEX
  8
0
 10
538.421461
 20
379.688441
 42
-0.005207
  0
VERTEX
  8
0
 10
538.806222
 20
377.341359
 42
-0.011457
  0
VERTEX
  8
0
 10
539.177302
 20
374.484331
 42
-0.006816
  0
SEQEND
  0
POLYLINE
  8
0
 66
1
 70
1
  0
VERTEX
  8
0
 10
775.491546
 20
353.986321
 42
0.292554
  0
VERTEX
  8
0
 10
775.504257
 20
353.174168
 42
0.125341
  0
VERTEX
  8
0
 10
776.343647
 20
352.413035
 42
0.031049
  0
VERTEX
  8
0
 10
778.575379
 20
351.402764
 42
0.002440
  0
VERTEX
  8
0
 10
784.684783
 20
349.116224
 42
-0.005875
  0
VERTEX
  8
0
 10
795.429865
 20
345.010333
 42
-0.000489
  0
VERTEX
  8
0
 10
823.168932
 20
334.004122
 42
-0.000722
  0
VERTEX
  8
0
 10
851.691172
 20
322.607177
 42
-0.001598
  0
VERTEX
  8
0
 10
873.403107
 20
313.814463
 42
0.004445
  0
VERTEX
  8
0
 10
881.118116
 20
310.741110
 42
0.013368
  0
VERTEX
  8
0
 10
886.454418
 20
308.832607
 42
0.011007
  0
VERTEX
  8
0
 10
890.300794
 20
307.664987
 42
0.270875
  0
VERTEX
  8
0
 10
891.336441
 20
307.936441
 42
0.037984
  0
VERTEX
  8
0
 10
891.699394
 20
308.359167
 42
0.058717
  0
VERTEX
  8
0
 10
891.936746
 20
308.777350
 42
0.079376
  0
VERTEX
  8
0
 10
892.022898
 20
309.128605
 42
0.235603
  0
VERTEX
  8
0
 10
891.933333
 20
309.352412
 42
0.085784
  0
VERTEX
  8
0
 10
890.325619
 20
310.351909
 42
0.000143
  0
VERTEX
  8
0
 10
859.783561
 20
322.720348
 42
0.001290
  0
VERTEX
  8
0
 10
831.410826
 20
334.115749
 42
0.002887
  0
VERTEX
  8
0
 10
809.781728
 20
342.593528
 42
0.001280
  0
VERTEX
  8
0
 10
790.776737
 20
349.860613
 42
0.010473
  0
VERTEX
  8
0
 10
782.025460
 20
352.973186
 42
0.014598
  0
VERTEX
  8
0
 10
776.852390
 20
354.525791
 42
0.331280
  0
SEQEND
  0
POLYLINE
  8
0
 66
1
 70
1
  0
VERTEX
  8
0
 10
153.000000
 20
774.844078
 42
0.303449
  0
VERTEX
  8
0
 10
153.519497
 20
774.066913
 42
0.041096
  0
VERTEX
  8
0
 10
155.483221
 20
773.437497
 42
0.042740
  0
VERTEX
  8
0
 10
157.622909
 20
773.130288
 42
0.153885
  0
VERTEX
  8
0
 10
158.943165
 20
773.464874
 42
0.092952
  0
VERTEX
  8
0
 10
159.847929
 20
774.289256
 42
0.395210
  0
VERTEX
  8
0
 10
159.777196
 20
774.952405
 42
0.148932
  0
VERTEX
  8
0
 10
158.726769
 20
775.416600
 42
0.024746
  0
VERTEX
  8
0
 10
156.497057
 20
775.575026
 42
0.021730
  0
VERTEX
  8
0
 10
155.156695
 20
775.545531
 42
0.035164
  0
VERTEX
  8
0
 10
154.027260
 20
775.391258
 42
0.039641
  0
VERTEX
  8
0
 10
153.212229
 20
775.152216
 42
0.311053
  0
SEQEND
  0
POLYLINE
  8
0
 66
1
 70
1
  0
VERTEX
  8
0
 10
148.000000
 20
771.077077
 42
0.249617
  0
VERTEX
  8
0
 10
148.602739
 20
769.944979
 42
0.006188
  0
VERTEX
  8
0
 10
153.671189
 20
766.624683
 42
0.005471
  0
VERTEX
  8
0
 10
158.853924
 20
763.399662
 42
0.345624
  0
VERTEX
  8
0
 10
159.853361
 20
763.520027
 42
0.077782
  0
VERTEX
  8
0
 10
160.005298
 20
763.728349
 42
0.099576
  0
VERTEX
  8
0
 10
160.069946
 20
763.956257
 42
0.114382
  0
VERTEX
  8
0
 10
160.038040
 20
764.167540
 42
0.131179
  0
VERTEX
  8
0
 10
159.916667
 20
764.331061
 42
0.008201
  0
VERTEX
  8
0
 10
156.478522
 20
766.972018
 42
0.008087
  0
VERTEX
  8
0
 10
152.939726
 20
769.511412
 42
0.003458
  0
VERTEX
  8
0
 10
149.652986
 20
771.756826
 42
0.149200
  0
VERTEX
  8
0
 10
148.856198
 20
772.000000
 42
0.106973
  0
VERTEX
  8
0
 10
148.529530
 20
771.929302
 42
0.099480
  0
VERTEX
  8
0
 10
148.251508
 20
771.728891
 42
0.095893
  0
VERTEX
  8
0
 10
148.065117
 20
771.429407
 42
0.091632
  0
SEQEND
  0
POLYLINE
  8
0
 66
1
 70
1
  0
VERTEX
  8
0
 10
142.582598
 20
767.133647
 42
0.312253
  0
VERTEX
  8
0
 10
142.636953
 20
766.084166
 42
0.054199
  0
VERTEX
  8
0
 10
144.089737
 20
764.571959
 42
0.028625
  0
VERTEX
  8
0
 10
146.966365
 20
762.430592
 42
0.006023
  0
VERTEX
  8
0
 10
152.243462
 20
759.043468
 42
0.006824
  0
VERTEX
  8
0
 10
158.980332
 20
754.959882
 42
0.519018
  0
VERTEX
  8
0
 10
159.962891
 20
755.406002
 42
0.284394
  0
VERTEX
  8
0
 10
159.386497
 20
756.905137
 42
0.006075
  0
VERTEX
  8
0
 10
152.766719
 20
761.807453
 42
0.002117
  0
VERTEX
  8
0
 10
146.734666
 20
766.123328
 42
0.033749
  0
VERTEX
  8
0
 10
144.591155
 20
767.435584
 42
0.146511
  0
VERTEX
  8
0
 10
143.425963
 20
767.660783
 42
0.233402
  0
SEQEND
  0
POLYLINE
  8
0
 66
1
 70
1
  0
VERTEX
  8
0
 10
139.197691
 20
761.797691
 42
0.044669
  0
VERTEX
  8
0
 10
138.739328
 20
761.249197
 42
0.036859
  0
VERTEX
  8
0
 10
138.351822
 20
760.592588
 42
0.038287
  0
VERTEX
  8
0
 10
138.085659
 20
759.931834
 42
0.076749
  0
VERTEX
  8
0
 10
138.000000
 20
759.377077
 42
0.240122
  0
VERTEX
  8
0
 10
138.595823
 20
758.207944
 42
0.006406
  0
VERTEX
  8
0
 10
143.469864
 20
754.762483
 42
0.008608
  0
VERTEX
  8
0
 10
148.334251
 20
751.538420
 42
0.142987
  0
VERTEX
  8
0
 10
150.178518
 20
751.000000
 42
-0.125902
  0
VERTEX
  8
0
 10
150.674868
 20
750.873004
 42
-0.003808
  0
VERTEX
  8
0
 10
152.549659
 20
749.827791
 42
-0.007316
  0
VERTEX
  8
0
 10
154.745793
 20
748.538566
 42
-0.004965
  0
VERTEX
  8
0
 10
157.209805
 20
747.009500
 42
0.013062
  0
VERTEX
  8
0
 10
161.215670
 20
744.612575
 42
0.039930
  0
VERTEX
  8
0
 10
164.087557
 20
743.284090
 42
0.169515
  0
VERTEX
  8
0
 10
165.293834
 20
743.262843
 42
0.484951
  0
VERTEX
  8
0
 10
165.539314
 20
743.936389
 42
0.092898
  0
VERTEX
  8
0
 10
165.014216
 20
744.512810
 42
0.002530
  0
VERTEX
  8
0
 10
162.272318
 20
746.561239
 42
0.005158
  0
VERTEX
  8
0
 10
159.000701
 20
748.927912
 42
0.003504
  0
VERTEX
  8
0
 10
155.230297
 20
751.557120
 42
-0.003950
  0
VERTEX
  8
0
 10
151.317860
 20
754.290557
 42
-0.004471
  0
VERTEX
  8
0
 10
147.608534
 20
756.976169
 42
-0.004087
  0
VERTEX
  8
0
 10
144.496090
 20
759.311850
 42
-0.024477
  0
VERTEX
  8
0
 10
142.947691
 20
760.618422
 42
0.021657
  0
VERTEX
  8
0
 10
141.612343
 20
761.758166
 42
0.089877
  0
VERTEX
  8
0
 10
140.678138
 20
762.249228
 42
0.157838
  0
VERTEX
  8
0
 10
139.918143
 20
762.242834
 42
0.116496
  0
SEQEND
  0
POLYLINE
  8
0
 66
1
 70
1
  0
VERTEX
  8
0
 10
135.627195
 20
754.293862
 42
0.208465
  0
VERTEX
  8
0
 10
135.019057
 20
752.745969
 42
0.159628
  0
VERTEX
  8
0
 10
135.655073
 20
751.021149
 42
0.075736
  0
VERTEX
  8
0
 10
137.817152
 20
749.007961
 42
0.021213
  0
VERTEX
  8
0
 10
141.750000
 20
746.563306
 42
0.003624
  0
VERTEX
  8
0
 10
152.657087
 20
740.512609
 42
0.003767
  0
VERTEX
  8
0
 10
163.511070
 20
734.699501
 42
0.000480
  0
VERTEX
  8
0
 10
174.014440
 20
729.188477
 42
0.327964
  0
VERTEX
  8
0
 10
174.613282
 20
729.279949
 42
0.455279
  0
VERTEX
  8
0
 10
174.549419
 20
730.203068
 42
0.007346
  0
VERTEX
  8
0
 10
169.820033
 20
733.669915
 42
0.013200
  0
VERTEX
  8
0
 10
163.703721
 20
737.778150
 42
0.007206
  0
VERTEX
  8
0
 10
156.000000
 20
742.508323
 42
-0.001948
  0
VERTEX
  8
0
 10
151.294884
 20
745.329622
 42
-0.002018
  0
VERTEX
  8
0
 10
146.667051
 20
748.154720
 42
-0.001944
  0
VERTEX
  8
0
 10
142.680141
 20
750.632136
 42
-0.008717
  0
VERTEX
  8
0
 10
140.377195
 20
752.132144
 42
0.016416
  0
VERTEX
  8
0
 10
138.751785
 20
753.155553
 42
0.025507
  0
VERTEX
  8
0
 10
137.281225
 20
753.917575
 42
0.022946
  0
VERTEX
  8
0
 10
136.082413
 20
754.398069
 42
0.287749
  0
SEQEND
  0
POLYLINE
  8
0
 66
1
 70
1
  0
VERTEX
  8
0
 10
132.380002
 20
745.547887
 42
0.051007
  0
VERTEX
  8
0
 10
132.210426
 20
744.921740
 42
0.044035
  0
VERTEX
  8
0
 10
132.159668
 20
744.242076
 42
0.046273
  0
VERTEX
  8
0
 10
132.226646
 20
743.612277
 42
0.089020
  0
VERTEX
  8
0
 10
132.412418
 20
743.141710
 42
0.126863
  0
VERTEX
  8
0
 10
134.186638
 20
741.438969
 42
0.002382
  0
VERTEX
  8
0
 10
145.522070
 20
735.132568
 42
0.006518
  0
VERTEX
  8
0
 10
157.090396
 20
728.963643
 42
0.010884
  0
VERTEX
  8
0
 10
167.000000
 20
724.114318
 42
-0.000275
  0
VERTEX
  8
0
 10
171.692105
 20
721.940348
 42
-0.000294
  0
VERTEX
  8
0
 10
176.280846
 20
719.807921
 42
-0.000279
  0
VERTEX
  8
0
 10
180.224974
 20
717.969556
 42
-0.001373
  0
VERTEX
  8
0
 10
182.445434
 20
716.925652
 42
0.011556
  0
VERTEX
  8
0
 10
183.986811
 20
716.238971
 42
0.017872
  0
VERTEX
  8
0
 10
185.350778
 20
715.725175
 42
0.012507
  0
VERTEX
  8
0
 10
186.474143
 20
715.378292
 42
0.271352
  0
VERTEX
  8
0
 10
186.795569
 20
715.462236
 42
0.412039
  0
VERTEX
  8
0
 10
186.799273
 20
716.459323
 42
0.051513
  0
VERTEX
  8
0
 10
184.955296
 20
717.980889
 42
0.024660
  0
VERTEX
  8
0
 10
181.217051
 20
720.209765
 42
0.004538
  0
VERTEX
  8
0
 10
174.089656
 20
723.913675
 42
-0.006318
  0
VERTEX
  8
0
 10
168.527056
 20
726.829605
 42
-0.003096
  0
VERTEX
  8
0
 10
161.511976
 20
730.677005
 42
-0.003071
  0
VERTEX
  8
0
 10
154.269830
 20
734.765924
 42
-0.004455
  0
VERTEX
  8
0
 10
147.931609
 20
738.471386
 42
0.001008
  0
VERTEX
  8
0
 10
142.426139
 20
741.741131
 42
0.001637
  0
VERTEX
  8
0
 10
137.733379
 20
744.494720
 42
0.000211
  0
VERTEX
  8
0
 10
133.548405
 20
746.929606
 42
0.132396
  0
VERTEX
  8
0
 10
133.287219
 20
747.000000
 42
0.229404
  0
VERTEX
  8
0
 10
133.119609
 20
746.918827
 42
0.027598
  0
VERTEX
  8
0
 10
132.876354
 20
746.573442
 42
0.028364
  0
VERTEX
  8
0
 10
132.618938
 20
746.104155
 42
0.019650
  0
SEQEND
  0
POLYLINE
  8
0
 66
1
 70
1
  0
VERTEX
  8
0
 10
131.373443
 20
736.530794
 42
0.198879
  0
VERTEX
  8
0
 10
131.418696
 20
734.805802
 42
0.106083
  0
VERTEX
  8
0
 10
132.697463
 20
733.052821
 42
0.045875
  0
VERTEX
  8
0
 10
135.660584
 20
730.858165
 42
0.008088
  0
VERTEX
  8
0
 10
141.641714
 20
727.356675
 42
0.014508
  0
VERTEX
  8
0
 10
156.753642
 20
719.403701
 42
0.003731
  0
VERTEX
  8
0
 10
181.617198
 20
707.455468
 42
0.001044
  0
VERTEX
  8
0
 10
208.464504
 20
694.868059
 42
0.110374
  0
VERTEX
  8
0
 10
212.394636
 20
694.003738
 42
0.761659
  0
VERTEX
  8
0
 10
212.555107
 20
694.593711
 42
0.009423
  0
VERTEX
  8
0
 10
207.225902
 20
697.614520
 42
0.006746
  0
VERTEX
  8
0
 10
197.943933
 20
702.486333
 42
0.001246
  0
VERTEX
  8
0
 10
180.702776
 20
711.187080
 42
-0.003296
  0
VERTEX
  8
0
 10
165.344987
 20
719.016568
 42
-0.006181
  0
VERTEX
  8
0
 10
153.049887
 20
725.581192
 42
-0.007546
  0
VERTEX
  8
0
 10
142.964033
 20
731.327455
 42
-0.011771
  0
VERTEX
  8
0
 10
134.474712
 20
736.608526
 42
0.012748
  0
VERTEX
  8
0
 10
132.976893
 20
737.536241
 42
0.139421
  0
VERTEX
  8
0
 10
132.297782
 20
737.711091
 42
0.252024
  0
VERTEX
  8
0
 10
131.827917
 20
737.442796
 42
0.047986
  0
SEQEND
  0
POLYLINE
  8
0
 66
1
 70
1
  0
VERTEX
  8
0
 10
129.007702
 20
693.250000
 42
0.249747
  0
VERTEX
  8
0
 10
129.432887
 20
692.471241
 42
0.010334
  0
VERTEX
  8
0
 10
132.212795
 20
690.724897
 42
0.009204
  0
VERTEX
  8
0
 10
136.833085
 20
688.068293
 42
0.001423
  0
VERTEX
  8
0
 10
146.102029
 20
682.997781
 42
0.004520
  0
VERTEX
  8
0
 10
149.703634
 20
681.082811
 42
0.006612
  0
VERTEX
  8
0
 10
152.910793
 20
679.468098
 42
0.003482
  0
VERTEX
  8
0
 10
155.642747
 20
678.161086
 42
0.110261
  0
VERTEX
  8
0
 10
156.364342
 20
678.000000
 42
0.656135
  0
VERTEX
  8
0
 10
156.639213
 20
678.633387
 42
0.049886
  0
VERTEX
  8
0
 10
154.717662
 20
680.316002
 42
0.019242
  0
VERTEX
  8
0
 10
150.373378
 20
683.168654
 42
0.004918
  0
VERTEX
  8
0
 10
143.123751
 20
687.442826
 42
0.005523
  0
VERTEX
  8
0
 10
136.114120
 20
691.380625
 42
0.027633
  0
VERTEX
  8
0
 10
132.049636
 20
693.321671
 42
0.065700
  0
VERTEX
  8
0
 10
129.768526
 20
693.926233
 42
0.455275
  0
SEQEND
  0
POLYLINE
  8
0
 66
1
 70
1
  0
VERTEX
  8
0
 10
139.000000
 20
648.076303
 42
0.107016
  0
VERTEX
  8
0
 10
139.979383
 20
643.552844
 42
0.003522
  0
VERTEX
  8
0
 10
147.784314
 20
626.689934
 42
0.004286
  0
VERTEX
  8
0
 10
155.725463
 20
610.212695
 42
0.081189
  0
VERTEX
  8
0
 10
159.040175
 20
605.566667
 42
0.384765
  0
VERTEX
  8
0
 10
159.862509
 20
605.521831
 42
0.305608
  0
VERTEX
  8
0
 10
160.135351
 20
606.411824
 42
0.033005
  0
VERTEX
  8
0
 10
158.720711
 20
610.150791
 42
0.006638
  0
VERTEX
  8
0
 10
155.682344
 20
616.588531
 42
-0.003722
  0
VERTEX
  8
0
 10
153.290971
 20
621.579773
 42
-0.002169
  0
VERTEX
  8
0
 10
150.493584
 20
627.599444
 42
-0.002169
  0
VERTEX
  8
0
 10
147.744222
 20
633.652643
 42
-0.003670
  0
VERTEX
  8
0
 10
145.500427
 20
638.750000
 42
0.006424
  0
VERTEX
  8
0
 10
142.377090
 20
645.740779
 42
0.043951
  0
VERTEX
  8
0
 10
140.501745
 20
649.009579
 42
0.415397
  0
VERTEX
  8
0
 10
139.570105
 20
649.173984
 42
0.244200
  0
SEQEND
  0
POLYLINE
  8
0
 66
1
 70
1
  0
VERTEX
  8
0
 10
149.000000
 20
641.816373
 42
0.109176
  0
VERTEX
  8
0
 10
149.373334
 20
640.126966
 42
0.000811
  0
VERTEX
  8
0
 10
155.444469
 20
627.116532
 42
0.003128
  0
VERTEX
  8
0
 10
161.124256
 20
615.190858
 42
0.014921
  0
VERTEX
  8
0
 10
164.612489
 20
608.500000
 42
0.000000
  0
VERTEX
  8
0
 10
169.091725
 20
600.500000
 42
0.000000
  0
VERTEX
  8
0
 10
187.111913
 20
591.149384
 42
0.003355
  0
VERTEX
  8
0
 10
194.059762
 20
587.603132
 42
0.005496
  0
VERTEX
  8
0
 10
199.997115
 20
584.703956
 42
0.001270
  0
VERTEX
  8
0
 10
205.191620
 20
582.253993
 42
0.315803
  0
VERTEX
  8
0
 10
205.671486
 20
582.338153
 42
0.501003
  0
VERTEX
  8
0
 10
205.591001
 20
582.895162
 42
0.001728
  0
VERTEX
  8
0
 10
198.679808
 20
586.625483
 42
0.005699
  0
VERTEX
  8
0
 10
189.921041
 20
591.186354
 42
0.002350
  0
VERTEX
  8
0
 10
177.960757
 20
597.171591
 42
-0.025298
  0
VERTEX
  8
0
 10
174.821714
 20
598.926919
 42
-0.058379
  0
VERTEX
  8
0
 10
172.718132
 20
600.617884
 42
-0.050598
  0
VERTEX
  8
0
 10
170.890632
 20
602.896483
 42
-0.015184
  0
VERTEX
  8
0
 10
168.583999
 20
606.705546
 42
-0.012181
  0
VERTEX
  8
0
 10
166.693883
 20
610.251067
 42
-0.003882
  0
VERTEX
  8
0
 10
164.051206
 20
615.616629
 42
-0.003872
  0
VERTEX
  8
0
 10
161.198925
 20
621.641731
 42
-0.004309
  0
VERTEX
  8
0
 10
158.542066
 20
627.500000
 42
0.006465
  0
VERTEX
  8
0
 10
155.782458
 20
633.515731
 42
0.014895
  0
VERTEX
  8
0
 10
153.516094
 20
637.946504
 42
0.012503
  0
VERTEX
  8
0
 10
151.653749
 20
641.142565
 42
0.209699
  0
VERTEX
  8
0
 10
150.668824
 20
641.823324
 42
0.017989
  0
VERTEX
  8
0
 10
150.028905
 20
641.923575
 42
0.030907
  0
VERTEX
  8
0
 10
149.490217
 20
641.954653
 42
0.033672
  0
VERTEX
  8
0
 10
149.095730
 20
641.926405
 42
0.374119
  0
SEQEND
  0
POLYLINE
  8
0
 66
1
 70
1
  0
VERTEX
  8
0
 10
742.000000
 20
555.362796
 42
-0.016583
  0
VERTEX
  8
0
 10
752.684941
 20
545.472335
 42
-0.005088
  0
VERTEX
  8
0
 10
768.157840
 20
529.851849
 42
-0.005004
  0
VERTEX
  8
0
 10
783.241541
 20
513.996657
 42
-0.018192
  0
VERTEX
  8
0
 10
792.346259
 20
503.490989
 42
-0.017952
  0
VERTEX
  8
0
 10
804.050038
 20
487.830544
 42
-0.014800
  0
VERTEX
  8
0
 10
815.413428
 20
470.345633
 42
-0.014931
  0
VERTEX
  8
0
 10
824.829696
 20
453.778741
 42
-0.041734
  0
VERTEX
  8
0
 10
830.072721
 20
441.500000
 42
0.016717
  0
VERTEX
  8
0
 10
830.625084
 20
440.003424
 42
0.057359
  0
VERTEX
  8
0
 10
831.122499
 20
439.096363
 42
0.247152
  0
VERTEX
  8
0
 10
831.483400
 20
438.913032
 42
0.349322
  0
VERTEX
  8
0
 10
831.749977
 20
439.131582
 42
0.142359
  0
VERTEX
  8
0
 10
831.436346
 20
443.548857
 42
0.014647
  0
VERTEX
  8
0
 10
827.488067
 20
453.348904
 42
0.017314
  0
VERTEX
  8
0
 10
821.927836
 20
464.951000
 42
0.012998
  0
VERTEX
  8
0
 10
815.045411
 20
477.326937
 42
0.032321
  0
VERTEX
  8
0
 10
801.232283
 20
497.598328
 42
0.017940
  0
VERTEX
  8
0
 10
781.979816
 20
520.518968
 42
0.017921
  0
VERTEX
  8
0
 10
761.024117
 20
542.114949
 42
0.030819
  0
VERTEX
  8
0
 10
741.905609
 20
558.316157
 42
0.014181
  0
VERTEX
  8
0
 10
737.753683
 20
561.236651
 42
0.608777
  0
VERTEX
  8
0
 10
737.012734
 20
560.823119
 42
0.198307
  0
VERTEX
  8
0
 10
737.738678
 20
559.212623
 42
0.010535
  0
SEQEND
  0
POLYLINE
  8
0
 66
1
 70
1
  0
VERTEX
  8
0
 10
554.550000
 20
621.179963
 42
0.041208
  0
VERTEX
  8
0
 10
555.312581
 20
620.624262
 42
0.000536
  0
VERTEX
  8
0
 10
560.361562
 20
617.554386
 42
0.001547
  0
VERTEX
  8
0
 10
566.224406
 20
614.023051
 42
0.001015
  0
VERTEX
  8
0
 10
573.000000
 20
609.989113
 42
-0.006921
  0
VERTEX
  8
0
 10
589.907759
 20
599.650434
 42
-0.003601
  0
VERTEX
  8
0
 10
610.722455
 20
586.313031
 42
-0.003591
  0
VERTEX
  8
0
 10
631.100943
 20
572.837735
 42
-0.007815
  0
VERTEX
  8
0
 10
646.500000
 20
562.142375
 42
-0.008774
  0
VERTEX
  8
0
 10
657.809815
 20
553.717628
 42
-0.002916
  0
VERTEX
  8
0
 10
674.090902
 20
540.987306
 42
-0.002898
  0
VERTEX
  8
0
 10
690.181072
 20
528.102003
 42
-0.009157
  0
VERTEX
  8
0
 10
700.750000
 20
519.211657
 42
0.008396
  0
VERTEX
  8
0
 10
703.148454
 20
517.187887
 42
0.015747
  0
VERTEX
  8
0
 10
705.164062
 20
515.647361
 42
0.013023
  0
VERTEX
  8
0
 10
706.726598
 20
514.589682
 42
0.592587
  0
VERTEX
  8
0
 10
707.000000
 20
514.739359
 42
0.216209
  0
VERTEX
  8
0
 10
705.530580
 20
517.978657
 42
0.003318
  0
VERTEX
  8
0
 10
689.611566
 20
531.729037
 42
0.008730
  0
VERTEX
  8
0
 10
671.391664
 20
546.715774
 42
0.007243
  0
VERTEX
  8
0
 10
651.500000
 20
562.039200
 42
0.013932
  0
VERTEX
  8
0
 10
626.697396
 20
579.524036
 42
0.007206
  0
VERTEX
  8
0
 10
594.794764
 20
600.052465
 42
0.002692
  0
VERTEX
  8
0
 10
562.378943
 20
620.015032
 42
0.137505
  0
VERTEX
  8
0
 10
555.297621
 20
622.000000
 42
0.041366
  0
VERTEX
  8
0
 10
554.674659
 20
621.948373
 42
0.168105
  0
VERTEX
  8
0
 10
554.345372
 20
621.769139
 42
0.302915
  0
VERTEX
  8
0
 10
554.304978
 20
621.503626
 42
0.105744
  0
SEQEND
  0
POLYLINE
  8
0
 66
1
 70
1
  0
VERTEX
  8
0
 10
553.000000
 20
441.295662
 42
0.044506
  0
VERTEX
  8
0
 10
546.787793
 20
440.047338
 42
0.024775
  0
VERTEX
  8
0
 10
539.494754
 20
437.493747
 42
0.016651
  0
VERTEX
  8
0
 10
532.993310
 20
434.593196
 42
0.444006
  0
VERTEX
  8
0
 10
532.521431
 20
432.965324
 42
0.219619
  0
VERTEX
  8
0
 10
532.957529
 20
432.676575
 42
0.075436
  0
VERTEX
  8
0
 10
533.733472
 20
432.675110
 42
0.053640
  0
VERTEX
  8
0
 10
534.761273
 20
432.943993
 42
0.028557
  0
VERTEX
  8
0
 10
535.963049
 20
433.480892
 42
-0.041299
  0
VERTEX
  8
0
 10
540.000333
 20
435.162651
 42
-0.007972
  0
VERTEX
  8
0
 10
547.576269
 20
437.474674
 42
-0.006692
  0
VERTEX
  8
0
 10
555.242844
 20
439.570690
 42
-0.063458
  0
VERTEX
  8
0
 10
558.611867
 20
440.000000
 42
0.039973
  0
VERTEX
  8
0
 10
559.526283
 20
440.073221
 42
0.059256
  0
VERTEX
  8
0
 10
560.298486
 20
440.293750
 42
0.077934
  0
VERTEX
  8
0
 10
560.823773
 20
440.617331
 42
0.219197
  0
VERTEX
  8
0
 10
561.000000
 20
441.000000
 42
0.305261
  0
VERTEX
  8
0
 10
560.619727
 20
441.564824
 42
0.087409
  0
VERTEX
  8
0
 10
559.533651
 20
441.797807
 42
0.032138
  0
VERTEX
  8
0
 10
557.404603
 20
441.739641
 42
0.004446
  0
SEQEND
  0
POLYLINE
  8
0
 66
1
 70
1
  0
VERTEX
  8
0
 10
562.613678
 20
435.969322
 42
0.029692
  0
VERTEX
  8
0
 10
552.162754
 20
433.672788
 42
0.021164
  0
VERTEX
  8
0
 10
540.776453
 20
429.924795
 42
0.021265
  0
VERTEX
  8
0
 10
529.840112
 20
425.264300
 42
0.031732
  0
VERTEX
  8
0
 10
520.764650
 20
420.202037
 42
0.017401
  0
VERTEX
  8
0
 10
515.204353
 20
416.340205
 42
0.764877
  0
VERTEX
  8
0
 10
515.533583
 20
415.508591
 42
0.065233
  0
VERTEX
  8
0
 10
519.529760
 20
416.496503
 42
0.003309
  0
VERTEX
  8
0
 10
532.000000
 20
421.466512
 42
-0.009416
  0
VERTEX
  8
0
 10
546.329739
 20
426.975771
 42
-0.033240
  0
VERTEX
  8
0
 10
555.800375
 20
429.717089
 42
-0.035720
  0
VERTEX
  8
0
 10
565.201328
 20
431.079197
 42
-0.012138
  0
VERTEX
  8
0
 10
579.000000
 20
431.744862
 42
-0.006429
  0
VERTEX
  8
0
 10
589.078157
 20
431.856433
 42
-0.010565
  0
VERTEX
  8
0
 10
597.603730
 20
431.661010
 42
-0.010418
  0
VERTEX
  8
0
 10
606.197488
 20
431.102644
 42
-0.006034
  0
VERTEX
  8
0
 10
616.500000
 20
430.091997
 42
0.000691
  0
VERTEX
  8
0
 10
630.530345
 20
428.564131
 42
0.010636
  0
VERTEX
  8
0
 10
635.375380
 20
428.147319
 42
0.044915
  0
VERTEX
  8
0
 10
637.421290
 20
428.198933
 42
0.627369
  0
VERTEX
  8
0
 10
637.605524
 20
428.727809
 42
0.143346
  0
VERTEX
  8
0
 10
636.979915
 20
429.070107
 42
0.003668
  0
VERTEX
  8
0
 10
633.804782
 20
429.742082
 42
0.007518
  0
VERTEX
  8
0
 10
630.029227
 20
430.453280
 42
0.005026
  0
VERTEX
  8
0
 10
625.688857
 20
431.158621
 42
-0.001431
  0
VERTEX
  8
0
 10
620.748594
 20
431.925030
 42
-0.000979
  0
VERTEX
  8
0
 10
615.142977
 20
432.822357
 42
-0.000987
  0
VERTEX
  8
0
 10
609.744603
 20
433.708299
 42
-0.001999
  0
VERTEX
  8
0
 10
605.500000
 20
434.430953
 42
0.023601
  0
VERTEX
  8
0
 10
595.752741
 20
435.660116
 42
0.010599
  0
VERTEX
  8
0
 10
582.863976
 20
436.396243
 42
0.009983
  0
VERTEX
  8
0
 10
570.366671
 20
436.594845
 42
0.038235
  0
SEQEND
  0
POLYLINE
  8
0
 66
1
 70
1
  0
VERTEX
  8
0
 10
563.566835
 20
426.463384
 42
0.009566
  0
VERTEX
  8
0
 10
560.194826
 20
425.830843
 42
0.007877
  0
VERTEX
  8
0
 10
556.622529
 20
425.030820
 42
0.007970
  0
VERTEX
  8
0
 10
553.365082
 20
424.192076
 42
0.020918
  0
VERTEX
  8
0
 10
551.066835
 20
423.456436
 42
0.011921
  0
VERTEX
  8
0
 10
545.198545
 20
421.143449
 42
0.010273
  0
VERTEX
  8
0
 10
539.145369
 20
418.441442
 42
0.003474
  0
VERTEX
  8
0
 10
533.490984
 20
415.728651
 42
0.286612
  0
VERTEX
  8
0
 10
533.000000
 20
414.942481
 42
0.482635
  0
VERTEX
  8
0
 10
533.274347
 20
414.724467
 42
0.004462
  0
VERTEX
  8
0
 10
536.157812
 20
415.420216
 42
0.010340
  0
VERTEX
  8
0
 10
539.627210
 20
416.366842
 42
0.006024
  0
VERTEX
  8
0
 10
543.750000
 20
417.638073
 42
-0.013929
  0
VERTEX
  8
0
 10
553.961969
 20
420.610901
 42
-0.021384
  0
VERTEX
  8
0
 10
562.964159
 20
422.554748
 42
-0.020098
  0
VERTEX
  8
0
 10
572.495546
 20
423.798080
 42
-0.010577
  0
VERTEX
  8
0
 10
584.412701
 20
424.614113
 42
0.004545
  0
VERTEX
  8
0
 10
590.005967
 20
424.929374
 42
0.007542
  0
VERTEX
  8
0
 10
594.714981
 20
425.309173
 42
0.002274
  0
VERTEX
  8
0
 10
598.729927
 20
425.712463
 42
0.383882
  0
VERTEX
  8
0
 10
599.000000
 20
426.012391
 42
0.401754
  0
VERTEX
  8
0
 10
597.581275
 20
427.493065
 42
0.007500
  0
VERTEX
  8
0
 10
585.821865
 20
427.819197
 42
0.016455
  0
VERTEX
  8
0
 10
573.646326
 20
427.573476
 42
0.028311
  0
SEQEND
  0
POLYLINE
  8
0
 66
1
 70
1
  0
VERTEX
  8
0
 10
630.761659
 20
419.292739
 42
0.028254
  0
VERTEX
  8
0
 10
631.754739
 20
419.159391
 42
0.020511
  0
VERTEX
  8
0
 10
632.869594
 20
419.119272
 42
0.020826
  0
VERTEX
  8
0
 10
633.934218
 20
419.169017
 42
0.041951
  0
VERTEX
  8
0
 10
634.761659
 20
419.312920
 42
0.285845
  0
VERTEX
  8
0
 10
634.916221
 20
419.476221
 42
0.417468
  0
VERTEX
  8
0
 10
634.814362
 20
419.628390
 42
0.038992
  0
VERTEX
  8
0
 10
633.938425
 20
419.726931
 42
0.009782
  0
VERTEX
  8
0
 10
632.500000
 20
419.747817
 42
0.008901
  0
VERTEX
  8
0
 10
631.071102
 20
419.715166
 42
0.053901
  0
VERTEX
  8
0
 10
630.339362
 20
419.605813
 42
0.671610
  0
VERTEX
  8
0
 10
630.319562
 20
419.456590
 42
0.082665
  0
SEQEND
  0
POLYLINE
  8
0
 66
1
 70
1
  0
VERTEX
  8
0
 10
638.000000
 20
418.734080
 42
0.180054
  0
VERTEX
  8
0
 10
639.123153
 20
418.160420
 42
0.000810
  0
VERTEX
  8
0
 10
652.595796
 20
416.613673
 42
0.004320
  0
VERTEX
  8
0
 10
665.657414
 20
415.249742
 42
0.007554
  0
VERTEX
  8
0
 10
676.500000
 20
414.377225
 42
0.006522
  0
VERTEX
  8
0
 10
685.350089
 20
413.915309
 42
0.904308
  0
VERTEX
  8
0
 10
685.411144
 20
414.350079
 42
0.033578
  0
VERTEX
  8
0
 10
680.537400
 20
415.200760
 42
0.002915
  0
VERTEX
  8
0
 10
668.000000
 20
416.456712
 42
0.000320
  0
VERTEX
  8
0
 10
649.024263
 20
418.233731
 42
0.004242
  0
VERTEX
  8
0
 10
642.023461
 20
418.824956
 42
0.005846
  0
VERTEX
  8
0
 10
638.159678
 20
419.072867
 42
0.671537
  0
SEQEND
  0
POLYLINE
  8
0
 66
1
 70
1
  0
VERTEX
  8
0
 10
481.412847
 20
411.858984
 42
0.427292
  0
VERTEX
  8
0
 10
481.647265
 20
410.956184
 42
0.015540
  0
VERTEX
  8
0
 10
485.143549
 20
409.144628
 42
0.013898
  0
VERTEX
  8
0
 10
490.829296
 20
406.611123
 42
0.003011
  0
VERTEX
  8
0
 10
500.794879
 20
402.568638
 42
0.007931
  0
VERTEX
  8
0
 10
504.443613
 20
401.180737
 42
0.011468
  0
VERTEX
  8
0
 10
507.713391
 20
400.080155
 42
0.007291
  0
VERTEX
  8
0
 10
510.460065
 20
399.268992
 42
0.156419
  0
VERTEX
  8
0
 10
511.294879
 20
399.300515
 42
0.557417
  0
VERTEX
  8
0
 10
511.410472
 20
399.854536
 42
0.076713
  0
VERTEX
  8
0
 10
510.213349
 20
400.684693
 42
0.012661
  0
VERTEX
  8
0
 10
506.683556
 20
402.294467
 42
0.000605
  0
VERTEX
  8
0
 10
494.735905
 20
407.364809
 42
0.007104
  0
VERTEX
  8
0
 10
489.802050
 20
409.369436
 42
0.011596
  0
VERTEX
  8
0
 10
485.557068
 20
410.911894
 42
0.005332
  0
VERTEX
  8
0
 10
481.988474
 20
412.073425
 42
0.342868
  0
SEQEND
  0
POLYLINE
  8
0
 66
1
 70
1
  0
VERTEX
  8
0
 10
603.750000
 20
412.262758
 42
0.010990
  0
VERTEX
  8
0
 10
606.140095
 20
412.148271
 42
0.006471
  0
VERTEX
  8
0
 10
609.000000
 20
412.111256
 42
0.006471
  0
VERTEX
  8
0
 10
611.859905
 20
412.148271
 42
0.010990
  0
VERTEX
  8
0
 10
614.250000
 20
412.262758
 42
0.067956
  0
VERTEX
  8
0
 10
614.890618
 20
412.396322
 42
0.813012
  0
VERTEX
  8
0
 10
614.873438
 20
412.522148
 42
0.014551
  0
VERTEX
  8
0
 10
612.764623
 20
412.608117
 42
0.002911
  0
VERTEX
  8
0
 10
609.000000
 20
412.630035
 42
0.002911
  0
VERTEX
  8
0
 10
605.235377
 20
412.608117
 42
0.014551
  0
VERTEX
  8
0
 10
603.126562
 20
412.522148
 42
0.813012
  0
VERTEX
  8
0
 10
603.109382
 20
412.396322
 42
0.067956
  0
SEQEND
  0
POLYLINE
  8
0
 66
1
 70
1
  0
VERTEX
  8
0
 10
590.812500
 20
411.316886
 42
0.051402
  0
VERTEX
  8
0
 10
591.359369
 20
411.160852
 42
0.054150
  0
VERTEX
  8
0
 10
591.916927
 20
411.123424
 42
0.060344
  0
VERTEX
  8
0
 10
592.402231
 20
411.202593
 42
0.126455
  0
VERTEX
  8
0
 10
592.729167
 20
411.395833
 42
0.296942
  0
VERTEX
  8
0
 10
592.775380
 20
411.614691
 42
0.208169
  0
VERTEX
  8
0
 10
592.592839
 20
411.799335
 42
0.077125
  0
VERTEX
  8
0
 10
592.112848
 20
411.910055
 42
0.028489
  0
VERTEX
  8
0
 10
591.416667
 20
411.921053
 42
0.018894
  0
VERTEX
  8
0
 10
590.670344
 20
411.862007
 42
0.168741
  0
VERTEX
  8
0
 10
590.378580
 20
411.720685
 42
0.470617
  0
VERTEX
  8
0
 10
590.395823
 20
411.538436
 42
0.054073
  0
SEQEND
  0
POLYLINE
  8
0
 66
1
 70
1
  0
VERTEX
  8
0
 10
625.000000
 20
411.417968
 42
-0.001478
  0
VERTEX
  8
0
 10
626.837889
 20
411.190470
 42
-0.000427
  0
VERTEX
  8
0
 10
629.675000
 20
410.828305
 42
-0.000430
  0
VERTEX
  8
0
 10
632.871887
 20
410.414647
 42
-0.000458
  0
VERTEX
  8
0
 10
636.000000
 20
410.004239
 42
0.007058
  0
VERTEX
  8
0
 10
655.286772
 20
407.732331
 42
0.007523
  0
VERTEX
  8
0
 10
674.224268
 20
406.059704
 42
0.007363
  0
VERTEX
  8
0
 10
693.573792
 20
404.929870
 42
0.006190
  0
VERTEX
  8
0
 10
714.102018
 20
404.288759
 42
0.001909
  0
VERTEX
  8
0
 10
728.819852
 20
404.067629
 42
0.007331
  0
VERTEX
  8
0
 10
737.977031
 20
404.099275
 42
0.004458
  0
VERTEX
  8
0
 10
744.408384
 20
404.273172
 42
0.250361
  0
VERTEX
  8
0
 10
745.411035
 20
404.856052
 42
0.507128
  0
VERTEX
  8
0
 10
745.188502
 20
405.405068
 42
0.035876
  0
VERTEX
  8
0
 10
743.280704
 20
405.743004
 42
0.020820
  0
VERTEX
  8
0
 10
739.933428
 20
405.950670
 42
0.004864
  0
VERTEX
  8
0
 10
734.309017
 20
406.010287
 42
-0.008479
  0
VERTEX
  8
0
 10
719.133551
 20
406.280870
 42
-0.003435
  0
VERTEX
  8
0
 10
698.462995
 20
407.142416
 42
-0.003466
  0
VERTEX
  8
0
 10
677.466500
 20
408.308027
 42
-0.007064
  0
VERTEX
  8
0
 10
661.000000
 20
409.570461
 42
0.006124
  0
VERTEX
  8
0
 10
648.745697
 20
410.533134
 42
0.003719
  0
VERTEX
  8
0
 10
634.232996
 20
411.386183
 42
0.006965
  0
VERTEX
  8
0
 10
625.022468
 20
411.730313
 42
0.952742
  0
SEQEND
  0
POLYLINE
  8
0
 66
1
 70
1
  0
VERTEX
  8
0
 10
583.812500
 20
410.316886
 42
0.051402
  0
VERTEX
  8
0
 10
584.359369
 20
410.160852
 42
0.054150
  0
VERTEX
  8
0
 10
584.916927
 20
410.123424
 42
0.060344
  0
VERTEX
  8
0
 10
585.402231
 20
410.202593
 42
0.126455
  0
VERTEX
  8
0
 10
585.729167
 20
410.395833
 42
0.296942
  0
VERTEX
  8
0
 10
585.775380
 20
410.614691
 42
0.208169
  0
VERTEX
  8
0
 10
585.592839
 20
410.799335
 42
0.077125
  0
VERTEX
  8
0
 10
585.112848
 20
410.910055
 42
0.028489
  0
VERTEX
  8
0
 10
584.416667
 20
410.921053
 42
0.018894
  0
VERTEX
  8
0
 10
583.670344
 20
410.862007
 42
0.168741
  0
VERTEX
  8
0
 10
583.378580
 20
410.720685
 42
0.470617
  0
VERTEX
  8
0
 10
583.395823
 20
410.538436
 42
0.054073
  0
SEQEND
  0
POLYLINE
  8
0
 66
1
 70
1
  0
VERTEX
  8
0
 10
566.000000
 20
407.934080
 42
0.004724
  0
VERTEX
  8
0
 10
559.879975
 20
406.529922
 42
0.010406
  0
VERTEX
  8
0
 10
555.238520
 20
405.316084
 42
0.016441
  0
VERTEX
  8
0
 10
552.455548
 20
404.426208
 42
0.812441
  0
VERTEX
  8
0
 10
552.500000
 20
404.101683
 42
0.064620
  0
VERTEX
  8
0
 10
553.236870
 20
404.145174
 42
0.001130
  0
VERTEX
  8
0
 10
557.171875
 20
404.903064
 42
0.002832
  0
VERTEX
  8
0
 10
561.754077
 20
405.823314
 42
0.001881
  0
VERTEX
  8
0
 10
567.000000
 20
406.928400
 42
0.004163
  0
VERTEX
  8
0
 10
571.985721
 20
408.041780
 42
0.010011
  0
VERTEX
  8
0
 10
575.653125
 20
408.970633
 42
0.022488
  0
VERTEX
  8
0
 10
577.542217
 20
409.582111
 42
0.837093
  0
VERTEX
  8
0
 10
577.500000
 20
409.812641
 42
0.032754
  0
VERTEX
  8
0
 10
575.824918
 20
409.695671
 42
0.006681
  0
VERTEX
  8
0
 10
572.884375
 20
409.255576
 42
0.007012
  0
VERTEX
  8
0
 10
569.474226
 20
408.649302
 42
0.006529
  0
SEQEND
  0
POLYLINE
  8
0
 66
1
 70
1
  0
VERTEX
  8
0
 10
546.500000
 20
403.000000
 42
0.015364
  0
VERTEX
  8
0
 10
545.696484
 20
402.625069
 42
0.145150
  0
VERTEX
  8
0
 10
545.422706
 20
402.367142
 42
0.507108
  0
VERTEX
  8
0
 10
545.497353
 20
402.196198
 42
0.055166
  0
VERTEX
  8
0
 10
546.000000
 20
402.140571
 42
0.041790
  0
VERTEX
  8
0
 10
546.715952
 20
402.200514
 42
0.018434
  0
VERTEX
  8
0
 10
547.646875
 20
402.393028
 42
0.018093
  0
VERTEX
  8
0
 10
548.624391
 20
402.670913
 42
0.023180
  0
VERTEX
  8
0
 10
549.500000
 20
403.000000
 42
0.015364
  0
VERTEX
  8
0
 10
550.303516
 20
403.374931
 42
0.145150
  0
VERTEX
  8
0
 10
550.577294
 20
403.632858
 42
0.507108
  0
VERTEX
  8
0
 10
550.502647
 20
403.803802
 42
0.055166
  0
VERTEX
  8
0
 10
550.000000
 20
403.859429
 42
0.041790
  0
VERTEX
  8
0
 10
549.284048
 20
403.799486
 42
0.018434
  0
VERTEX
  8
0
 10
548.353125
 20
403.606972
 42
0.018093
  0
VERTEX
  8
0
 10
547.375609
 20
403.329087
 42
0.023180
  0
SEQEND
  0
POLYLINE
  8
0
 66
1
 70
1
  0
VERTEX
  8
0
 10
147.500000
 20
584.037544
 42
0.003153
  0
VERTEX
  8
0
 10
159.490264
 20
578.099114
 42
0.000563
  0
VERTEX
  8
0
 10
181.966279
 20
567.174631
 42
0.000263
  0
VERTEX
  8
0
 10
205.633883
 20
555.719298
 42
0.010722
  0
VERTEX
  8
0
 10
210.840744
 20
553.338855
 42
0.016231
  0
VERTEX
  8
0
 10
212.086053
 20
552.848809
 42
0.040530
  0
VERTEX
  8
0
 10
213.029867
 20
552.596291
 42
0.109894
  0
VERTEX
  8
0
 10
213.513848
 20
552.614933
 42
0.503873
  0
VERTEX
  8
0
 10
213.601822
 20
552.835249
 42
0.138415
  0
VERTEX
  8
0
 10
212.461380
 20
553.881057
 42
0.000407
  0
VERTEX
  8
0
 10
194.215736
 20
563.063162
 42
0.002641
  0
VERTEX
  8
0
 10
175.610686
 20
572.284434
 42
0.003004
  0
VERTEX
  8
0
 10
157.688316
 20
580.916694
 42
0.006495
  0
VERTEX
  8
0
 10
148.214879
 20
585.259810
 42
0.029916
  0
VERTEX
  8
0
 10
142.560695
 20
587.369077
 42
0.883819
  0
VERTEX
  8
0
 10
142.344976
 20
586.886582
 42
0.019367
  0
SEQEND
  0
POLYLINE
  8
0
 66
1
 70
1
  0
VERTEX
  8
0
 10
113.000000
 20
585.161561
 42
0.270651
  0
VERTEX
  8
0
 10
113.273279
 20
584.693687
 42
0.003305
  0
VERTEX
  8
0
 10
116.451562
 20
582.928741
 42
0.008697
  0
VERTEX
  8
0
 10
120.245735
 20
580.939396
 42
0.005447
  0
VERTEX
  8
0
 10
124.750000
 20
578.737855
 42
0.000687
  0
VERTEX
  8
0
 10
161.318159
 20
561.417028
 42
0.003889
  0
VERTEX
  8
0
 10
180.893010
 20
552.363613
 42
0.003285
  0
VERTEX
  8
0
 10
193.655538
 20
546.681728
 42
0.108871
  0
VERTEX
  8
0
 10
196.929376
 20
546.033756
 42
0.733287
  0
VERTEX
  8
0
 10
197.008237
 20
546.304060
 42
0.015564
  0
VERTEX
  8
0
 10
195.248004
 20
547.402991
 42
0.013096
  0
VERTEX
  8
0
 10
192.538156
 20
548.886158
 42
0.006340
  0
VERTEX
  8
0
 10
189.000000
 20
550.647582
 42
0.002095
  0
VERTEX
  8
0
 10
169.807137
 20
559.801817
 42
0.000836
  0
VERTEX
  8
0
 10
143.430088
 20
572.193399
 42
0.000048
  0
VERTEX
  8
0
 10
114.345075
 20
585.794413
 42
0.109768
  0
VERTEX
  8
0
 10
113.419894
 20
586.000000
 42
0.190835
  0
VERTEX
  8
0
 10
113.259546
 20
585.936487
 42
0.088287
  0
VERTEX
  8
0
 10
113.123344
 20
585.753708
 42
0.068106
  0
VERTEX
  8
0
 10
113.030945
 20
585.482438
 42
0.048108
  0
SEQEND
  0
POLYLINE
  8
0
 66
1
 70
1
  0
VERTEX
  8
0
 10
130.431535
 20
585.110779
 42
0.109432
  0
VERTEX
  8
0
 10
130.804871
 20
584.726972
 42
0.029470
  0
VERTEX
  8
0
 10
131.545649
 20
584.300558
 42
0.028375
  0
VERTEX
  8
0
 10
132.466154
 20
583.904136
 42
0.026009
  0
VERTEX
  8
0
 10
133.452529
 20
583.601270
 42
-0.042450
  0
VERTEX
  8
0
 10
135.136753
 20
583.022961
 42
-0.001653
  0
VERTEX
  8
0
 10
141.135370
 20
580.351973
 42
-0.002932
  0
VERTEX
  8
0
 10
148.213054
 20
577.122409
 42
-0.002064
  0
VERTEX
  8
0
 10
156.136369
 20
573.410875
 42
0.003218
  0
VERTEX
  8
0
 10
170.840365
 20
566.564379
 42
0.007848
  0
VERTEX
  8
0
 10
181.783698
 20
561.760684
 42
0.004523
  0
VERTEX
  8
0
 10
190.231791
 20
558.298982
 42
0.177220
  0
VERTEX
  8
0
 10
192.223345
 20
558.241115
 42
0.677718
  0
VERTEX
  8
0
 10
192.276424
 20
559.158148
 42
0.000546
  0
VERTEX
  8
0
 10
164.037003
 20
572.325005
 42
0.000872
  0
VERTEX
  8
0
 10
136.264464
 20
585.178460
 42
0.108349
  0
VERTEX
  8
0
 10
132.517813
 20
586.000000
 42
0.032336
  0
VERTEX
  8
0
 10
131.544928
 20
585.937015
 42
0.068508
  0
VERTEX
  8
0
 10
130.817682
 20
585.738791
 42
0.132211
  0
VERTEX
  8
0
 10
130.446434
 20
585.447196
 42
0.308150
  0
SEQEND
  0
POLYLINE
  8
0
 66
1
 70
1
  0
VERTEX
  8
0
 10
131.433735
 20
520.892782
 42
0.175435
  0
VERTEX
  8
0
 10
131.329765
 20
520.395824
 42
0.081026
  0
VERTEX
  8
0
 10
131.529443
 20
519.756648
 42
0.065267
  0
VERTEX
  8
0
 10
131.988852
 20
519.077642
 42
0.049388
  0
VERTEX
  8
0
 10
132.649862
 20
518.465651
 42
0.046289
  0
VERTEX
  8
0
 10
136.298632
 20
516.199835
 42
0.002126
  0
VERTEX
  8
0
 10
149.437623
 20
509.707474
 42
0.003982
  0
VERTEX
  8
0
 10
163.099106
 20
503.163332
 42
0.007018
  0
VERTEX
  8
0
 10
174.500000
 20
498.007242
 42
-0.000266
  0
VERTEX
  8
0
 10
187.496690
 20
492.339583
 42
-0.000166
  0
VERTEX
  8
0
 10
202.710716
 20
485.689347
 42
-0.000157
  0
VERTEX
  8
0
 10
216.971846
 20
479.444652
 42
-0.000576
  0
VERTEX
  8
0
 10
226.000000
 20
475.475600
 42
0.001819
  0
VERTEX
  8
0
 10
229.581459
 20
473.911694
 42
0.000848
  0
VERTEX
  8
0
 10
234.234375
 20
471.909403
 42
0.000841
  0
VERTEX
  8
0
 10
239.123466
 20
469.825025
 42
0.001176
  0
VERTEX
  8
0
 10
243.500000
 20
467.979991
 42
-0.000198
  0
VERTEX
  8
0
 10
247.915184
 20
466.128830
 42
-0.000136
  0
VERTEX
  8
0
 10
252.924586
 20
464.024604
 42
-0.000137
  0
VERTEX
  8
0
 10
257.748663
 20
461.995137
 42
-0.000277
  0
VERTEX
  8
0
 10
261.541142
 20
460.395962
 42
0.006401
  0
VERTEX
  8
0
 10
267.198390
 20
458.091656
 42
0.042058
  0
VERTEX
  8
0
 10
270.128978
 20
457.217345
 42
0.168268
  0
VERTEX
  8
0
 10
271.432306
 20
457.384486
 42
0.360003
  0
VERTEX
  8
0
 10
271.817497
 20
458.250000
 42
0.212474
  0
VERTEX
  8
0
 10
270.316035
 20
460.065092
 42
0.002664
  0
VERTEX
  8
0
 10
256.517667
 20
466.826599
 42
0.006822
  0
VERTEX
  8
0
 10
239.506670
 20
474.765765
 42
0.003509
  0
VERTEX
  8
0
 10
218.000000
 20
484.267036
 42
-0.000063
  0
VERTEX
  8
0
 10
177.009507
 20
502.039277
 42
-0.000501
  0
VERTEX
  8
0
 10
158.097923
 20
510.264117
 42
-0.001036
  0
VERTEX
  8
0
 10
146.900087
 20
515.175165
 42
-0.003724
  0
VERTEX
  8
0
 10
139.783873
 20
518.377256
 42
0.010663
  0
VERTEX
  8
0
 10
136.515816
 20
519.793587
 42
0.023759
  0
VERTEX
  8
0
 10
133.961085
 20
520.697626
 42
0.024316
  0
VERTEX
  8
0
 10
132.067634
 20
521.168994
 42
0.312787
  0
SEQEND
  0
POLYLINE
  8
0
 66
1
 70
1
  0
VERTEX
  8
0
 10
389.000000
 20
407.028211
 42
0.284697
  0
VERTEX
  8
0
 10
389.699869
 20
405.898690
 42
0.000425
  0
VERTEX
  8
0
 10
412.454364
 20
394.610529
 42
0.000846
  0
VERTEX
  8
0
 10
434.646090
 20
383.671737
 42
0.114567
  0
VERTEX
  8
0
 10
437.539252
 20
383.000000
 42
-0.101977
  0
VERTEX
  8
0
 10
437.917158
 20
382.922115
 42
-0.000242
  0
VERTEX
  8
0
 10
443.098093
 20
380.688862
 42
-0.001561
  0
VERTEX
  8
0
 10
448.933492
 20
378.148515
 42
-0.000969
  0
VERTEX
  8
0
 10
455.767319
 20
375.132296
 42
0.000838
  0
VERTEX
  8
0
 10
463.542652
 20
371.698084
 42
0.000598
  0
VERTEX
  8
0
 10
472.256650
 20
367.879148
 42
0.000604
  0
VERTEX
  8
0
 10
480.571986
 20
364.258729
 42
0.001293
  0
VERTEX
  8
0
 10
487.000000
 20
361.488994
 42
0.000518
  0
VERTEX
  8
0
 10
535.912053
 20
340.623253
 42
0.007140
  0
VERTEX
  8
0
 10
553.748444
 20
333.335106
 42
0.012267
  0
VERTEX
  8
0
 10
563.457354
 20
329.801029
 42
0.512806
  0
VERTEX
  8
0
 10
565.000000
 20
330.909613
 42
0.287005
  0
VERTEX
  8
0
 10
563.555468
 20
333.218883
 42
0.004312
  0
VERTEX
  8
0
 10
548.573413
 20
340.349206
 42
0.006479
  0
VERTEX
  8
0
 10
525.717035
 20
350.628146
 42
0.001209
  0
VERTEX
  8
0
 10
483.500000
 20
368.838838
 42
-0.000343
  0
VERTEX
  8
0
 10
466.649601
 20
376.072803
 42
-0.000407
  0
VERTEX
  8
0
 10
450.753125
 20
382.925493
 42
-0.000352
  0
VERTEX
  8
0
 10
437.350612
 20
388.727240
 42
-0.002627
  0
VERTEX
  8
0
 10
431.000000
 20
391.521379
 42
0.006315
  0
VERTEX
  8
0
 10
420.177746
 20
396.187976
 42
0.003110
  0
VERTEX
  8
0
 10
406.306131
 20
401.861815
 42
0.000733
  0
VERTEX
  8
0
 10
391.864416
 20
407.639647
 42
0.095062
  0
VERTEX
  8
0
 10
389.986183
 20
408.000000
 42
0.097546
  0
VERTEX
  8
0
 10
389.609796
 20
407.925865
 42
0.097581
  0
VERTEX
  8
0
 10
389.289691
 20
407.714537
 42
0.098288
  0
VERTEX
  8
0
 10
389.075340
 20
407.399062
 42
0.100551
  0
SEQEND
  0
ENDSEC
  0
EOF
