  0
SECTION
  2
HEADER
  9
$ACADVER
  1
AC1006
  9
$EXTMIN
 10
0.000000
 20
0.000000
 30
0.000000
  9
$EXTMAX
 10
635.000000
 20
434.000000
 30
0.000000
  0
ENDSEC
  0
SECTION
  2
ENTITIES
  0
POLYLINE
  8
0
 66
1
 70
1
  0
VERTEX
  8
0
 10
122.335043
 20
433.005929
 42
0.000000
  0
VERTEX
  8
0
 10
245.170087
 20
432.500000
 42
0.000000
  0
VERTEX
  8
0
 10
221.335043
 20
429.679469
 42
0.000000
  0
VERTEX
  8
0
 10
197.500000
 20
426.858937
 42
0.000000
  0
VERTEX
  8
0
 10
172.500000
 20
417.886480
 42
0.000410
  0
VERTEX
  8
0
 10
151.135688
 20
410.199099
 42
0.004702
  0
VERTEX
  8
0
 10
142.759345
 20
407.088016
 42
0.007229
  0
VERTEX
  8
0
 10
135.643909
 20
404.250277
 42
0.001633
  0
VERTEX
  8
0
 10
123.639754
 20
399.214462
 42
0.000000
  0
VERTEX
  8
0
 10
107.779509
 20
392.500000
 42
0.000000
  0
VERTEX
  8
0
 10
98.173294
 20
381.000000
 42
-0.000783
  0
VERTEX
  8
0
 10
93.536723
 20
375.466992
 42
-0.000347
  0
VERTEX
  8
0
 10
87.400689
 20
368.178125
 42
-0.000343
  0
VERTEX
  8
0
 10
80.890790
 20
360.466782
 42
-0.000463
  0
VERTEX
  8
0
 10
74.990174
 20
353.500000
 42
0.000000
  0
VERTEX
  8
0
 10
61.413267
 20
337.500000
 42
0.000000
  0
VERTEX
  8
0
 10
53.697441
 20
318.784954
 42
0.000000
  0
VERTEX
  8
0
 10
45.981614
 20
300.069908
 42
0.000000
  0
VERTEX
  8
0
 10
44.839690
 20
276.653638
 42
0.000000
  0
VERTEX
  8
0
 10
43.697765
 20
253.237369
 42
0.000000
  0
VERTEX
  8
0
 10
51.462138
 20
232.368684
 42
0.005906
  0
VERTEX
  8
0
 10
54.984373
 20
223.233426
 42
0.004136
  0
VERTEX
  8
0
 10
59.158901
 20
213.022156
 42
0.004173
  0
VERTEX
  8
0
 10
63.321310
 20
203.304701
 42
0.008678
  0
VERTEX
  8
0
 10
66.760723
 20
195.813124
 42
-0.002761
  0
VERTEX
  8
0
 10
71.353943
 20
186.112753
 42
-0.028254
  0
VERTEX
  8
0
 10
73.002708
 20
181.987381
 42
-0.074094
  0
VERTEX
  8
0
 10
73.463681
 20
179.392424
 42
-0.105537
  0
VERTEX
  8
0
 10
73.040362
 20
177.097442
 42
0.000000
  0
VERTEX
  8
0
 10
71.785789
 20
174.068635
 42
0.000000
  0
VERTEX
  8
0
 10
67.908797
 20
176.046528
 42
-0.013569
  0
VERTEX
  8
0
 10
65.880340
 20
177.151731
 42
-0.003711
  0
VERTEX
  8
0
 10
62.742562
 20
179.004724
 42
-0.003749
  0
VERTEX
  8
0
 10
59.214907
 20
181.159577
 42
-0.003899
  0
VERTEX
  8
0
 10
55.765902
 20
183.339513
 42
0.006723
  0
VERTEX
  8
0
 10
44.379574
 20
190.446522
 42
0.035049
  0
VERTEX
  8
0
 10
37.802275
 20
193.824776
 42
0.053244
  0
VERTEX
  8
0
 10
32.134380
 20
195.565829
 42
0.029872
  0
VERTEX
  8
0
 10
24.983570
 20
196.514639
 42
0.000000
  0
VERTEX
  8
0
 10
15.467141
 20
197.202815
 42
0.000000
  0
VERTEX
  8
0
 10
13.733570
 20
193.567481
 42
0.009282
  0
VERTEX
  8
0
 10
13.069761
 20
192.106243
 42
0.011520
  0
VERTEX
  8
0
 10
12.509236
 20
190.722212
 42
0.009915
  0
VERTEX
  8
0
 10
12.091174
 20
189.547605
 42
0.080701
  0
VERTEX
  8
0
 10
12.000000
 20
188.986397
 42
0.271206
  0
VERTEX
  8
0
 10
12.686575
 20
187.813716
 42
0.014752
  0
VERTEX
  8
0
 10
16.631363
 20
185.750219
 42
0.014008
  0
VERTEX
  8
0
 10
22.786450
 20
182.968716
 42
0.003469
  0
VERTEX
  8
0
 10
33.028598
 20
178.764821
 42
-0.009804
  0
VERTEX
  8
0
 10
41.232001
 20
175.275647
 42
-0.029049
  0
VERTEX
  8
0
 10
46.656900
 20
172.452475
 42
-0.024921
  0
VERTEX
  8
0
 10
52.145876
 20
168.795112
 42
-0.005755
  0
VERTEX
  8
0
 10
61.000000
 20
162.076773
 42
-0.004482
  0
VERTEX
  8
0
 10
67.028098
 20
157.305199
 42
-0.004105
  0
VERTEX
  8
0
 10
73.150000
 20
152.285977
 42
-0.004105
  0
VERTEX
  8
0
 10
78.540883
 20
147.716038
 42
-0.013408
  0
VERTEX
  8
0
 10
82.000000
 20
144.569011
 42
0.005984
  0
VERTEX
  8
0
 10
85.225785
 20
141.545534
 42
0.002423
  0
VERTEX
  8
0
 10
89.692159
 20
137.498176
 42
0.002397
  0
VERTEX
  8
0
 10
94.539952
 20
133.189563
 42
0.003045
  0
VERTEX
  8
0
 10
99.058413
 20
129.260844
 42
0.000000
  0
VERTEX
  8
0
 10
109.616827
 20
120.192825
 42
0.000000
  0
VERTEX
  8
0
 10
119.558413
 20
118.978208
 42
-0.015982
  0
VERTEX
  8
0
 10
133.171226
 20
116.871607
 42
-0.027982
  0
VERTEX
  8
0
 10
144.241946
 20
114.145483
 42
-0.025832
  0
VERTEX
  8
0
 10
155.519052
 20
110.041230
 42
-0.011500
  0
VERTEX
  8
0
 10
169.939585
 20
103.537388
 42
0.008208
  0
VERTEX
  8
0
 10
181.002194
 20
98.460105
 42
0.009330
  0
VERTEX
  8
0
 10
191.765939
 20
93.969980
 42
0.008000
  0
VERTEX
  8
0
 10
203.982810
 20
89.363899
 42
0.003923
  0
VERTEX
  8
0
 10
219.678298
 20
83.870030
 42
0.000000
  0
VERTEX
  8
0
 10
249.856595
 20
73.571803
 42
0.000000
  0
VERTEX
  8
0
 10
251.512521
 20
67.670126
 42
-0.015211
  0
VERTEX
  8
0
 10
252.086355
 20
65.356652
 42
-0.022320
  0
VERTEX
  8
0
 10
252.436966
 20
63.290376
 42
-0.018917
  0
VERTEX
  8
0
 10
252.580230
 20
61.621230
 42
-0.230482
  0
VERTEX
  8
0
 10
252.334224
 20
61.047800
 42
-0.005828
  0
VERTEX
  8
0
 10
242.373302
 20
52.643757
 42
-0.026693
  0
VERTEX
  8
0
 10
236.287019
 20
48.151894
 42
-0.039399
  0
VERTEX
  8
0
 10
230.951858
 20
45.211840
 42
-0.024857
  0
VERTEX
  8
0
 10
224.332140
 20
42.604580
 42
0.006295
  0
VERTEX
  8
0
 10
213.406217
 20
38.763130
 42
0.035906
  0
VERTEX
  8
0
 10
207.796816
 20
36.241538
 42
0.065275
  0
VERTEX
  8
0
 10
204.246565
 20
33.682197
 42
0.059436
  0
VERTEX
  8
0
 10
201.346480
 20
30.218692
 42
0.010366
  0
VERTEX
  8
0
 10
199.941847
 20
27.966416
 42
0.005121
  0
VERTEX
  8
0
 10
198.246976
 20
25.051430
 42
0.005079
  0
VERTEX
  8
0
 10
196.549486
 20
21.989879
 42
0.007397
  0
VERTEX
  8
0
 10
195.120756
 20
19.254261
 42
0.000000
  0
VERTEX
  8
0
 10
191.975511
 20
13.008521
 42
0.000000
  0
VERTEX
  8
0
 10
193.609329
 20
6.504261
 42
0.007886
  0
VERTEX
  8
0
 10
194.722854
 20
2.349734
 42
0.093422
  0
VERTEX
  8
0
 10
195.466257
 20
0.864041
 42
0.183223
  0
VERTEX
  8
0
 10
196.531893
 20
0.198731
 42
0.048962
  0
VERTEX
  8
0
 10
198.556474
 20
-0.000000
 42
0.100519
  0
VERTEX
  8
0
 10
204.183691
 20
1.142830
 42
0.069487
  0
VERTEX
  8
0
 10
209.775524
 20
4.490793
 42
0.047120
  0
VERTEX
  8
0
 10
215.984158
 20
10.540103
 42
0.016811
  0
VERTEX
  8
0
 10
223.682609
 20
20.245159
 42
-0.015601
  0
VERTEX
  8
0
 10
227.590177
 20
25.195791
 42
-0.028809
  0
VERTEX
  8
0
 10
231.109682
 20
28.921183
 42
-0.024828
  0
VERTEX
  8
0
 10
235.371436
 20
32.558885
 42
-0.008729
  0
VERTEX
  8
0
 10
241.826449
 20
37.359504
 42
-0.010108
  0
VERTEX
  8
0
 10
247.397968
 20
41.185818
 42
-0.005019
  0
VERTEX
  8
0
 10
254.606304
 20
45.821739
 42
-0.004979
  0
VERTEX
  8
0
 10
262.176617
 20
50.479147
 42
-0.007283
  0
VERTEX
  8
0
 10
268.939693
 20
54.414637
 42
0.000000
  0
VERTEX
  8
0
 10
284.379385
 20
63.100582
 42
0.000000
  0
VERTEX
  8
0
 10
306.439693
 20
68.544318
 42
0.002126
  0
VERTEX
  8
0
 10
316.019450
 20
70.951534
 42
0.001583
  0
VERTEX
  8
0
 10
326.572910
 20
73.686797
 42
0.001599
  0
VERTEX
  8
0
 10
336.508870
 20
76.329604
 42
0.003629
  0
VERTEX
  8
0
 10
344.000000
 20
78.406236
 42
0.000000
  0
VERTEX
  8
0
 10
359.500000
 20
82.824418
 42
0.000000
  0
VERTEX
  8
0
 10
364.000000
 20
80.270382
 42
-0.030818
  0
VERTEX
  8
0
 10
369.505794
 20
76.680106
 42
-0.021689
  0
VERTEX
  8
0
 10
375.243059
 20
72.013686
 42
-0.015803
  0
VERTEX
  8
0
 10
382.107094
 20
65.518391
 42
-0.005920
  0
VERTEX
  8
0
 10
391.328459
 20
56.000000
 42
-0.008264
  0
VERTEX
  8
0
 10
398.433289
 20
48.237342
 42
-0.016762
  0
VERTEX
  8
0
 10
403.709426
 20
41.859350
 42
-0.016146
  0
VERTEX
  8
0
 10
408.668375
 20
34.990759
 42
-0.007108
  0
VERTEX
  8
0
 10
414.800402
 20
25.607107
 42
0.003990
  0
VERTEX
  8
0
 10
420.935701
 20
16.089358
 42
0.021285
  0
VERTEX
  8
0
 10
424.543681
 20
11.068777
 42
0.038272
  0
VERTEX
  8
0
 10
427.467059
 20
7.881227
 42
0.044778
  0
VERTEX
  8
0
 10
430.701963
 20
5.357107
 42
0.007013
  0
VERTEX
  8
0
 10
432.752930
 20
4.073894
 42
0.010026
  0
VERTEX
  8
0
 10
434.610273
 20
2.998088
 42
0.006335
  0
VERTEX
  8
0
 10
436.186083
 20
2.152952
 42
0.133406
  0
VERTEX
  8
0
 10
436.701963
 20
2.040641
 42
0.129492
  0
VERTEX
  8
0
 10
437.172309
 20
2.190493
 42
0.011034
  0
VERTEX
  8
0
 10
438.235684
 20
2.899483
 42
0.014023
  0
VERTEX
  8
0
 10
439.479383
 20
3.821923
 42
0.010400
  0
VERTEX
  8
0
 10
440.802493
 20
4.907290
 42
0.000000
  0
VERTEX
  8
0
 10
444.104986
 20
7.733299
 42
0.000000
  0
VERTEX
  8
0
 10
442.943351
 20
14.403902
 42
0.022486
  0
VERTEX
  8
0
 10
442.098539
 20
18.228877
 42
0.047078
  0
VERTEX
  8
0
 10
441.036209
 20
21.082076
 42
0.041133
  0
VERTEX
  8
0
 10
439.364976
 20
23.916622
 42
0.013614
  0
VERTEX
  8
0
 10
436.469979
 20
27.787253
 42
0.015534
  0
VERTEX
  8
0
 10
433.865500
 20
30.876424
 42
0.007575
  0
VERTEX
  8
0
 10
430.363107
 20
34.661019
 42
0.007506
  0
VERTEX
  8
0
 10
426.597766
 20
38.491268
 42
0.010771
  0
VERTEX
  8
0
 10
423.139661
 20
41.760897
 42
-0.036326
  0
VERTEX
  8
0
 10
416.609362
 20
48.599718
 42
-0.024308
  0
VERTEX
  8
0
 10
410.135868
 20
57.274385
 42
-0.024548
  0
VERTEX
  8
0
 10
404.723552
 20
66.234128
 42
-0.048704
  0
VERTEX
  8
0
 10
401.518092
 20
73.879828
 42
-0.041828
  0
VERTEX
  8
0
 10
401.203666
 20
75.312431
 42
-0.340820
  0
VERTEX
  8
0
 10
401.518313
 20
75.856281
 42
-0.127233
  0
VERTEX
  8
0
 10
402.453157
 20
75.984440
 42
-0.005955
  0
VERTEX
  8
0
 10
405.641406
 20
75.571594
 42
-0.008096
  0
VERTEX
  8
0
 10
408.439537
 20
75.129006
 42
-0.001413
  0
VERTEX
  8
0
 10
413.698333
 20
74.194376
 42
-0.001534
  0
VERTEX
  8
0
 10
419.861654
 20
73.061475
 42
-0.001375
  0
VERTEX
  8
0
 10
426.246536
 20
71.849405
 42
0.000000
  0
VERTEX
  8
0
 10
441.993073
 20
68.815278
 42
0.000000
  0
VERTEX
  8
0
 10
475.152414
 20
69.750972
 42
0.000000
  0
VERTEX
  8
0
 10
508.311754
 20
70.686665
 42
0.000000
  0
VERTEX
  8
0
 10
515.905877
 20
68.343468
 42
0.017638
  0
VERTEX
  8
0
 10
519.987923
 20
67.239998
 42
0.022285
  0
VERTEX
  8
0
 10
523.832253
 20
66.523845
 42
0.021191
  0
VERTEX
  8
0
 10
527.877855
 20
66.129214
 42
0.013713
  0
VERTEX
  8
0
 10
532.581001
 20
66.000136
 42
0.000000
  0
VERTEX
  8
0
 10
541.662001
 20
66.000000
 42
0.000000
  0
VERTEX
  8
0
 10
548.660577
 20
73.250000
 42
0.036400
  0
VERTEX
  8
0
 10
559.684069
 20
86.471494
 42
0.042803
  0
VERTEX
  8
0
 10
568.019570
 20
100.482939
 42
0.046675
  0
VERTEX
  8
0
 10
573.250274
 20
114.471523
 42
0.066233
  0
VERTEX
  8
0
 10
575.000000
 20
127.622369
 42
0.013774
  0
VERTEX
  8
0
 10
574.898008
 20
131.324056
 42
0.010662
  0
VERTEX
  8
0
 10
574.590045
 20
135.346335
 42
0.010809
  0
VERTEX
  8
0
 10
574.141018
 20
139.090557
 42
0.025361
  0
VERTEX
  8
0
 10
573.604409
 20
141.855655
 42
-0.001787
  0
VERTEX
  8
0
 10
571.601802
 20
150.081057
 42
-0.071005
  0
VERTEX
  8
0
 10
571.428196
 20
151.932880
 42
-0.330656
  0
VERTEX
  8
0
 10
572.096738
 20
152.747914
 42
-0.061363
  0
VERTEX
  8
0
 10
574.143058
 20
153.000000
 42
-0.074780
  0
VERTEX
  8
0
 10
575.932918
 20
152.730802
 42
-0.022949
  0
VERTEX
  8
0
 10
578.512205
 20
151.805461
 42
-0.020548
  0
VERTEX
  8
0
 10
581.562139
 20
150.401387
 42
-0.014005
  0
VERTEX
  8
0
 10
584.912110
 20
148.568959
 42
0.007944
  0
VERTEX
  8
0
 10
588.183580
 20
146.727608
 42
0.006485
  0
VERTEX
  8
0
 10
591.739807
 20
144.858989
 42
0.006558
  0
VERTEX
  8
0
 10
595.058038
 20
143.224413
 42
0.017046
  0
VERTEX
  8
0
 10
597.500000
 20
142.161585
 42
-0.010897
  0
VERTEX
  8
0
 10
599.758147
 20
141.211611
 42
-0.006346
  0
VERTEX
  8
0
 10
602.426563
 20
139.979101
 42
-0.006342
  0
VERTEX
  8
0
 10
605.069391
 20
138.676053
 42
-0.010658
  0
VERTEX
  8
0
 10
607.250000
 20
137.507131
 42
0.023823
  0
VERTEX
  8
0
 10
610.786742
 20
135.729456
 42
0.456250
  0
VERTEX
  8
0
 10
611.775367
 20
136.192428
 42
0.145990
  0
VERTEX
  8
0
 10
611.751263
 20
138.020935
 42
0.004591
  0
VERTEX
  8
0
 10
609.434305
 20
145.197263
 42
0.011160
  0
VERTEX
  8
0
 10
607.668169
 20
150.130403
 42
0.075911
  0
VERTEX
  8
0
 10
606.391431
 20
152.372492
 42
0.083291
  0
VERTEX
  8
0
 10
604.547299
 20
154.040926
 42
0.014831
  0
VERTEX
  8
0
 10
600.543289
 20
156.438667
 42
-0.012085
  0
VERTEX
  8
0
 10
597.803080
 20
158.059226
 42
-0.008483
  0
VERTEX
  8
0
 10
594.795579
 20
160.009100
 42
-0.008565
  0
VERTEX
  8
0
 10
591.978168
 20
161.975305
 42
-0.017672
  0
VERTEX
  8
0
 10
589.858984
 20
163.626031
 42
0.006463
  0
VERTEX
  8
0
 10
587.695416
 20
165.390648
 42
0.002606
  0
VERTEX
  8
0
 10
584.698250
 20
167.745933
 42
0.002578
  0
VERTEX
  8
0
 10
581.444769
 20
170.248506
 42
0.003267
  0
VERTEX
  8
0
 10
578.411655
 20
172.525636
 42
-0.029248
  0
VERTEX
  8
0
 10
569.870218
 20
179.660779
 42
-0.048684
  0
VERTEX
  8
0
 10
563.699402
 20
186.709377
 42
-0.032350
  0
VERTEX
  8
0
 10
557.515981
 20
196.635388
 42
-0.006607
  0
VERTEX
  8
0
 10
547.973079
 20
215.000000
 42
-0.009999
  0
VERTEX
  8
0
 10
543.759899
 20
223.811312
 42
-0.012450
  0
VERTEX
  8
0
 10
540.215756
 20
232.167839
 42
-0.010725
  0
VERTEX
  8
0
 10
536.711563
 20
241.627196
 42
-0.005032
  0
VERTEX
  8
0
 10
532.566545
 20
254.000000
 42
0.006636
  0
VERTEX
  8
0
 10
528.956728
 20
264.661628
 42
0.003870
  0
VERTEX
  8
0
 10
524.360240
 20
277.353125
 42
0.003868
  0
VERTEX
  8
0
 10
519.559907
 20
289.992985
 42
0.006537
  0
VERTEX
  8
0
 10
515.317348
 20
300.500000
 42
0.000000
  0
VERTEX
  8
0
 10
505.678704
 20
323.500000
 42
0.000000
  0
VERTEX
  8
0
 10
490.814691
 20
343.441367
 42
0.000000
  0
VERTEX
  8
0
 10
475.950678
 20
363.382735
 42
0.000000
  0
VERTEX
  8
0
 10
446.725339
 20
383.040283
 42
0.000000
  0
VERTEX
  8
0
 10
417.500000
 20
402.697831
 42
0.000000
  0
VERTEX
  8
0
 10
399.000000
 20
407.750503
 42
-0.000188
  0
VERTEX
  8
0
 10
389.961347
 20
410.222774
 42
-0.000078
  0
VERTEX
  8
0
 10
377.734316
 20
413.574135
 42
-0.000077
  0
VERTEX
  8
0
 10
364.626920
 20
417.171164
 42
-0.000099
  0
VERTEX
  8
0
 10
352.584904
 20
420.480391
 42
0.007104
  0
VERTEX
  8
0
 10
331.578385
 20
425.937818
 42
0.027949
  0
VERTEX
  8
0
 10
318.433061
 20
428.385416
 42
0.017104
  0
VERTEX
  8
0
 10
302.485484
 20
429.888909
 42
0.001463
  0
VERTEX
  8
0
 10
261.500000
 20
432.222246
 42
-0.971253
  0
VERTEX
  8
0
 10
261.502867
 20
432.337912
 42
-0.000042
  0
VERTEX
  8
0
 10
313.634375
 20
432.562079
 42
-0.000244
  0
VERTEX
  8
0
 10
373.674377
 20
432.785910
 42
-0.000140
  0
VERTEX
  8
0
 10
446.000000
 20
433.000000
 42
0.000177
  0
VERTEX
  8
0
 10
534.374041
 20
433.268023
 42
0.996330
  0
VERTEX
  8
0
 10
534.374081
 20
433.406999
 42
0.000958
  0
VERTEX
  8
0
 10
490.320053
 20
433.497410
 42
0.000033
  0
VERTEX
  8
0
 10
317.500000
 20
433.509816
 42
0.000141
  0
VERTEX
  8
0
 10
202.496720
 20
433.478059
 42
0.000506
  0
VERTEX
  8
0
 10
128.995294
 20
433.362642
 42
0.011947
  0
VERTEX
  8
0
 10
122.330875
 20
433.186159
 42
0.973121
  0
SEQEND
  0
POLYLINE
  8
0
 66
1
 70
1
  0
VERTEX
  8
0
 10
415.664928
 20
363.441217
 42
-0.247492
  0
VERTEX
  8
0
 10
417.142128
 20
360.857870
 42
-0.255871
  0
VERTEX
  8
0
 10
415.821465
 20
358.237156
 42
-0.117088
  0
VERTEX
  8
0
 10
411.336502
 20
356.498121
 42
-0.071530
  0
VERTEX
  8
0
 10
405.631588
 20
356.532538
 42
-0.020092
  0
VERTEX
  8
0
 10
403.309213
 20
356.976839
 42
-0.080669
  0
VERTEX
  8
0
 10
401.976445
 20
357.524989
 42
-0.124992
  0
VERTEX
  8
0
 10
401.196782
 20
358.327571
 42
-0.083528
  0
VERTEX
  8
0
 10
400.748701
 20
359.534251
 42
-0.029067
  0
VERTEX
  8
0
 10
400.621904
 20
360.498367
 42
-0.029754
  0
VERTEX
  8
0
 10
400.609208
 20
361.463132
 42
-0.031165
  0
VERTEX
  8
0
 10
400.700177
 20
362.297173
 42
-0.098336
  0
VERTEX
  8
0
 10
400.901030
 20
362.819672
 42
-0.208081
  0
VERTEX
  8
0
 10
402.921683
 20
364.194539
 42
-0.036284
  0
VERTEX
  8
0
 10
407.607869
 20
364.733991
 42
-0.038880
  0
VERTEX
  8
0
 10
412.501048
 20
364.559492
 42
-0.113675
  0
SEQEND
  0
POLYLINE
  8
0
 66
1
 70
1
  0
VERTEX
  8
0
 10
453.927420
 20
331.365141
 42
-0.127504
  0
VERTEX
  8
0
 10
455.820995
 20
327.042473
 42
-0.144565
  0
VERTEX
  8
0
 10
455.245299
 20
322.565974
 42
-0.150377
  0
VERTEX
  8
0
 10
452.367538
 20
319.241918
 42
-0.140595
  0
VERTEX
  8
0
 10
448.038204
 20
318.000000
 42
-0.069386
  0
VERTEX
  8
0
 10
444.363442
 20
318.512420
 42
-0.120181
  0
VERTEX
  8
0
 10
441.696595
 20
320.026332
 42
-0.125344
  0
VERTEX
  8
0
 10
440.096800
 20
322.545024
 42
-0.079288
  0
VERTEX
  8
0
 10
439.545455
 20
326.000000
 42
-0.079288
  0
VERTEX
  8
0
 10
440.096800
 20
329.454976
 42
-0.125344
  0
VERTEX
  8
0
 10
441.696595
 20
331.973668
 42
-0.120181
  0
VERTEX
  8
0
 10
444.363442
 20
333.487580
 42
-0.069386
  0
VERTEX
  8
0
 10
448.038204
 20
334.000000
 42
-0.034273
  0
VERTEX
  8
0
 10
450.007118
 20
333.864881
 42
-0.071033
  0
VERTEX
  8
0
 10
451.485259
 20
333.441650
 42
-0.076211
  0
VERTEX
  8
0
 10
452.719901
 20
332.645362
 42
-0.044863
  0
SEQEND
  0
POLYLINE
  8
0
 66
1
 70
1
  0
VERTEX
  8
0
 10
125.411106
 20
308.923275
 42
-0.056630
  0
VERTEX
  8
0
 10
127.204626
 20
306.223435
 42
-0.106167
  0
VERTEX
  8
0
 10
127.879607
 20
303.703212
 42
-0.111956
  0
VERTEX
  8
0
 10
127.446046
 20
301.219799
 42
-0.067777
  0
VERTEX
  8
0
 10
125.927420
 20
298.634859
 42
-0.044633
  0
VERTEX
  8
0
 10
124.755636
 20
297.391381
 42
-0.071049
  0
VERTEX
  8
0
 10
123.538411
 20
296.586904
 42
-0.069607
  0
VERTEX
  8
0
 10
122.126207
 20
296.145167
 42
-0.041065
  0
VERTEX
  8
0
 10
120.361678
 20
296.000000
 42
-0.043279
  0
VERTEX
  8
0
 10
117.289458
 20
296.266421
 42
-0.089351
  0
VERTEX
  8
0
 10
115.033424
 20
297.093099
 42
-0.099298
  0
VERTEX
  8
0
 10
113.357584
 20
298.585047
 42
-0.063269
  0
VERTEX
  8
0
 10
112.058366
 20
300.859091
 42
-0.034222
  0
VERTEX
  8
0
 10
111.501623
 20
302.515334
 42
-0.079260
  0
VERTEX
  8
0
 10
111.374079
 20
303.816962
 42
-0.075490
  0
VERTEX
  8
0
 10
111.656126
 20
305.132448
 42
-0.028845
  0
VERTEX
  8
0
 10
112.421194
 20
306.847606
 42
-0.091609
  0
VERTEX
  8
0
 10
115.133545
 20
310.342737
 42
-0.143391
  0
VERTEX
  8
0
 10
118.547894
 20
311.963894
 42
-0.152009
  0
VERTEX
  8
0
 10
122.150263
 20
311.444267
 42
-0.106986
  0
SEQEND
  0
POLYLINE
  8
0
 66
1
 70
1
  0
VERTEX
  8
0
 10
504.221487
 20
307.635051
 42
-0.066571
  0
VERTEX
  8
0
 10
510.361550
 20
303.835279
 42
-0.097848
  0
VERTEX
  8
0
 10
514.382747
 20
298.949279
 42
-0.083603
  0
VERTEX
  8
0
 10
516.631757
 20
292.312363
 42
-0.037523
  0
VERTEX
  8
0
 10
517.414918
 20
283.109196
 42
0.000000
  0
VERTEX
  8
0
 10
517.500000
 20
274.500000
 42
0.000000
  0
VERTEX
  8
0
 10
510.500000
 20
274.500000
 42
0.000000
  0
VERTEX
  8
0
 10
503.500000
 20
274.500000
 42
0.000000
  0
VERTEX
  8
0
 10
502.975020
 20
283.252253
 42
0.008122
  0
VERTEX
  8
0
 10
502.586698
 20
288.341547
 42
0.045919
  0
VERTEX
  8
0
 10
502.088740
 20
291.014689
 42
0.077197
  0
VERTEX
  8
0
 10
501.230535
 20
292.885803
 42
0.050362
  0
VERTEX
  8
0
 10
499.725020
 20
294.729526
 42
0.095519
  0
VERTEX
  8
0
 10
496.627448
 20
296.825753
 42
0.099981
  0
VERTEX
  8
0
 10
493.022806
 20
297.575908
 42
0.100585
  0
VERTEX
  8
0
 10
489.427098
 20
296.867157
 42
0.097883
  0
VERTEX
  8
0
 10
486.353602
 20
294.808147
 42
0.053830
  0
VERTEX
  8
0
 10
484.905129
 20
293.009022
 42
0.073718
  0
VERTEX
  8
0
 10
484.052646
 20
291.115935
 42
0.043747
  0
VERTEX
  8
0
 10
483.533149
 20
288.392785
 42
0.008206
  0
VERTEX
  8
0
 10
483.103602
 20
283.330874
 42
0.000000
  0
VERTEX
  8
0
 10
482.500000
 20
274.500000
 42
0.000000
  0
VERTEX
  8
0
 10
475.500000
 20
274.500000
 42
0.000000
  0
VERTEX
  8
0
 10
468.500000
 20
274.500000
 42
0.000000
  0
VERTEX
  8
0
 10
468.685968
 20
283.665772
 42
-0.029870
  0
VERTEX
  8
0
 10
469.276182
 20
291.026902
 42
-0.048402
  0
VERTEX
  8
0
 10
470.745850
 20
297.125957
 42
-0.058954
  0
VERTEX
  8
0
 10
473.033229
 20
301.849617
 42
-0.096116
  0
VERTEX
  8
0
 10
476.092254
 20
305.065691
 42
-0.072624
  0
VERTEX
  8
0
 10
482.358540
 20
308.278631
 42
-0.059495
  0
VERTEX
  8
0
 10
489.727103
 20
309.848717
 42
-0.059072
  0
VERTEX
  8
0
 10
497.313544
 20
309.644451
 42
-0.069183
  0
SEQEND
  0
POLYLINE
  8
0
 66
1
 70
1
  0
VERTEX
  8
0
 10
176.412668
 20
307.750000
 42
-0.033242
  0
VERTEX
  8
0
 10
176.593004
 20
306.889037
 42
-0.001810
  0
VERTEX
  8
0
 10
176.969808
 20
304.143589
 42
-0.002810
  0
VERTEX
  8
0
 10
177.388205
 20
300.870861
 42
-0.002048
  0
VERTEX
  8
0
 10
177.817968
 20
297.228174
 42
0.052336
  0
VERTEX
  8
0
 10
180.701215
 20
284.207334
 42
0.125241
  0
VERTEX
  8
0
 10
186.015683
 20
275.946546
 42
0.119497
  0
VERTEX
  8
0
 10
194.813094
 20
271.001705
 42
0.045402
  0
VERTEX
  8
0
 10
208.750000
 20
268.415733
 42
0.000000
  0
VERTEX
  8
0
 10
216.000000
 20
267.741579
 42
0.000000
  0
VERTEX
  8
0
 10
216.000000
 20
253.113584
 42
0.000000
  0
VERTEX
  8
0
 10
216.000000
 20
238.485588
 42
0.000000
  0
VERTEX
  8
0
 10
220.591990
 20
238.850804
 42
-0.023727
  0
VERTEX
  8
0
 10
222.433983
 20
238.909621
 42
-0.028522
  0
VERTEX
  8
0
 10
224.162313
 20
238.784001
 42
-0.029336
  0
VERTEX
  8
0
 10
225.574950
 20
238.514900
 42
-0.135445
  0
VERTEX
  8
0
 10
226.291990
 20
238.108010
 42
0.032488
  0
VERTEX
  8
0
 10
226.775009
 20
237.683988
 42
0.032355
  0
VERTEX
  8
0
 10
227.309522
 20
237.325478
 42
0.034138
  0
VERTEX
  8
0
 10
227.816404
 20
237.075688
 42
0.097714
  0
VERTEX
  8
0
 10
228.200000
 20
237.000000
 42
0.399217
  0
VERTEX
  8
0
 10
228.524588
 20
237.308297
 42
0.001874
  0
VERTEX
  8
0
 10
228.765898
 20
242.360938
 42
0.006844
  0
VERTEX
  8
0
 10
228.944385
 20
248.252148
 42
0.004108
  0
VERTEX
  8
0
 10
229.003058
 20
255.250000
 42
-0.002846
  0
VERTEX
  8
0
 10
229.051331
 20
263.488756
 42
-0.001741
  0
VERTEX
  8
0
 10
229.197431
 20
273.206250
 42
-0.001745
  0
VERTEX
  8
0
 10
229.409222
 20
282.828706
 42
-0.003104
  0
VERTEX
  8
0
 10
229.660458
 20
290.750000
 42
0.000000
  0
VERTEX
  8
0
 10
230.314801
 20
308.000000
 42
0.000000
  0
VERTEX
  8
0
 10
237.657400
 20
308.000000
 42
0.000000
  0
VERTEX
  8
0
 10
245.000000
 20
308.000000
 42
0.000000
  0
VERTEX
  8
0
 10
245.178281
 20
275.750000
 42
-0.000050
  0
VERTEX
  8
0
 10
245.246055
 20
263.263054
 42
-0.000077
  0
VERTEX
  8
0
 10
245.301936
 20
252.459375
 42
-0.000024
  0
VERTEX
  8
0
 10
245.348525
 20
243.084670
 42
-0.002328
  0
VERTEX
  8
0
 10
245.348880
 20
241.750000
 42
0.152999
  0
VERTEX
  8
0
 10
245.618510
 20
240.876051
 42
0.153640
  0
VERTEX
  8
0
 10
246.338259
 20
240.313978
 42
0.069469
  0
VERTEX
  8
0
 10
247.752747
 20
239.998574
 42
0.012884
  0
VERTEX
  8
0
 10
250.420599
 20
239.851940
 42
-0.002856
  0
VERTEX
  8
0
 10
252.475260
 20
239.780301
 42
-0.003219
  0
VERTEX
  8
0
 10
254.448551
 20
239.687483
 42
-0.002946
  0
VERTEX
  8
0
 10
256.125837
 20
239.587849
 42
-0.017469
  0
VERTEX
  8
0
 10
257.000000
 20
239.500000
 42
0.026767
  0
VERTEX
  8
0
 10
258.056524
 20
239.413627
 42
0.001048
  0
VERTEX
  8
0
 10
261.951562
 20
239.312517
 42
0.001859
  0
VERTEX
  8
0
 10
266.564728
 20
239.219605
 42
0.001312
  0
VERTEX
  8
0
 10
271.750000
 20
239.148060
 42
0.000000
  0
VERTEX
  8
0
 10
285.000000
 20
239.000000
 42
0.000000
  0
VERTEX
  8
0
 10
285.000000
 20
232.000000
 42
0.000000
  0
VERTEX
  8
0
 10
285.000000
 20
225.000000
 42
0.000000
  0
VERTEX
  8
0
 10
257.000000
 20
225.000000
 42
-0.001237
  0
VERTEX
  8
0
 10
239.935890
 20
225.042201
 42
-0.014305
  0
VERTEX
  8
0
 10
233.248896
 20
225.266661
 42
-0.033933
  0
VERTEX
  8
0
 10
229.787268
 20
225.719235
 42
-0.338832
  0
VERTEX
  8
0
 10
228.883999
 20
226.750000
 42
0.002113
  0
VERTEX
  8
0
 10
228.801199
 20
227.923939
 42
0.392517
  0
VERTEX
  8
0
 10
228.719237
 20
228.000000
 42
0.339035
  0
VERTEX
  8
0
 10
228.622879
 20
227.926177
 42
0.001923
  0
VERTEX
  8
0
 10
228.310674
 20
226.750000
 42
-0.234404
  0
VERTEX
  8
0
 10
227.477705
 20
225.792782
 42
-0.069501
  0
VERTEX
  8
0
 10
225.545019
 20
225.288115
 42
-0.026230
  0
VERTEX
  8
0
 10
221.835681
 20
225.049679
 42
-0.002936
  0
VERTEX
  8
0
 10
213.375298
 20
225.000000
 42
0.000000
  0
VERTEX
  8
0
 10
198.897243
 20
225.000000
 42
0.000000
  0
VERTEX
  8
0
 10
199.198622
 20
239.391910
 42
0.000000
  0
VERTEX
  8
0
 10
199.500000
 20
253.783820
 42
0.000000
  0
VERTEX
  8
0
 10
194.722196
 20
254.348088
 42
-0.078032
  0
VERTEX
  8
0
 10
187.431553
 20
256.391800
 42
-0.045220
  0
VERTEX
  8
0
 10
179.514332
 20
260.918918
 42
-0.045157
  0
VERTEX
  8
0
 10
172.519770
 20
266.811091
 42
-0.076295
  0
VERTEX
  8
0
 10
168.024517
 20
273.000000
 42
-0.018900
  0
VERTEX
  8
0
 10
167.222372
 20
274.712314
 42
-0.008451
  0
VERTEX
  8
0
 10
166.291587
 20
277.019897
 42
-0.008352
  0
VERTEX
  8
0
 10
165.388268
 20
279.496150
 42
-0.011221
  0
VERTEX
  8
0
 10
164.658312
 20
281.769862
 42
-0.032374
  0
VERTEX
  8
0
 10
163.329059
 20
287.618430
 42
-0.009816
  0
VERTEX
  8
0
 10
162.066918
 20
296.631760
 42
-0.004504
  0
VERTEX
  8
0
 10
161.033196
 20
305.949763
 42
-0.165243
  0
VERTEX
  8
0
 10
161.507495
 20
308.012128
 42
-0.249801
  0
VERTEX
  8
0
 10
163.123661
 20
308.953947
 42
-0.013911
  0
VERTEX
  8
0
 10
169.147875
 20
309.015611
 42
-0.012956
  0
VERTEX
  8
0
 10
175.181507
 20
308.753014
 42
-0.317149
  0
SEQEND
  0
POLYLINE
  8
0
 66
1
 70
1
  0
VERTEX
  8
0
 10
454.745962
 20
276.750000
 42
-0.003133
  0
VERTEX
  8
0
 10
454.322982
 20
253.901868
 42
-0.034157
  0
VERTEX
  8
0
 10
453.468393
 20
244.745734
 42
-0.081024
  0
VERTEX
  8
0
 10
451.532773
 20
238.963910
 42
-0.059330
  0
VERTEX
  8
0
 10
447.686957
 20
233.381704
 42
-0.040028
  0
VERTEX
  8
0
 10
442.902846
 20
228.752025
 42
-0.082911
  0
VERTEX
  8
0
 10
438.413460
 20
226.160442
 42
-0.068566
  0
VERTEX
  8
0
 10
432.782144
 20
224.894203
 42
-0.020691
  0
VERTEX
  8
0
 10
424.000000
 20
224.517350
 42
-0.005960
  0
VERTEX
  8
0
 10
417.139656
 20
224.588774
 42
-0.034086
  0
VERTEX
  8
0
 10
413.515083
 20
224.917605
 42
-0.053441
  0
VERTEX
  8
0
 10
410.728004
 20
225.675166
 42
-0.029066
  0
VERTEX
  8
0
 10
407.500000
 20
227.156753
 42
-0.061032
  0
VERTEX
  8
0
 10
400.789584
 20
231.850032
 42
-0.083207
  0
VERTEX
  8
0
 10
396.198904
 20
237.614485
 42
-0.074930
  0
VERTEX
  8
0
 10
393.431993
 20
245.034735
 42
-0.040223
  0
VERTEX
  8
0
 10
392.192144
 20
254.750000
 42
0.000000
  0
VERTEX
  8
0
 10
391.761441
 20
264.000000
 42
0.000000
  0
VERTEX
  8
0
 10
399.237828
 20
264.000000
 42
0.000000
  0
VERTEX
  8
0
 10
406.714214
 20
264.000000
 42
0.000000
  0
VERTEX
  8
0
 10
407.252022
 20
256.153553
 42
0.044860
  0
VERTEX
  8
0
 10
408.621186
 20
247.565419
 42
0.129108
  0
VERTEX
  8
0
 10
411.513976
 20
242.326990
 42
0.142576
  0
VERTEX
  8
0
 10
416.404677
 20
239.486297
 42
0.059524
  0
VERTEX
  8
0
 10
424.043979
 20
238.533695
 42
0.037910
  0
VERTEX
  8
0
 10
429.213271
 20
238.899433
 42
0.085486
  0
VERTEX
  8
0
 10
432.932593
 20
240.119505
 42
0.099986
  0
VERTEX
  8
0
 10
435.668949
 20
242.363431
 42
0.066622
  0
VERTEX
  8
0
 10
437.800584
 20
245.827781
 42
0.072058
  0
VERTEX
  8
0
 10
438.681914
 20
248.955215
 42
0.017488
  0
VERTEX
  8
0
 10
439.196940
 20
254.312401
 42
0.010156
  0
VERTEX
  8
0
 10
439.545617
 20
262.904516
 42
0.001874
  0
VERTEX
  8
0
 10
439.807063
 20
278.750000
 42
0.000000
  0
VERTEX
  8
0
 10
440.180011
 20
308.000000
 42
0.000000
  0
VERTEX
  8
0
 10
447.654310
 20
308.000000
 42
0.000000
  0
VERTEX
  8
0
 10
455.128610
 20
308.000000
 42
0.000000
  0
SEQEND
  0
POLYLINE
  8
0
 66
1
 70
1
  0
VERTEX
  8
0
 10
135.311557
 20
280.663303
 42
-0.062110
  0
VERTEX
  8
0
 10
141.582832
 20
275.854642
 42
-0.076299
  0
VERTEX
  8
0
 10
145.985768
 20
269.944515
 42
-0.072225
  0
VERTEX
  8
0
 10
148.572988
 20
262.717533
 42
-0.048884
  0
VERTEX
  8
0
 10
149.464300
 20
254.000000
 42
-0.011583
  0
VERTEX
  8
0
 10
149.372516
 20
249.160804
 42
-0.037826
  0
VERTEX
  8
0
 10
148.996498
 20
245.982116
 42
-0.044575
  0
VERTEX
  8
0
 10
148.183486
 20
243.180698
 42
-0.021232
  0
VERTEX
  8
0
 10
146.672387
 20
239.741693
 42
-0.042309
  0
VERTEX
  8
0
 10
143.984551
 20
235.268150
 42
-0.060490
  0
VERTEX
  8
0
 10
140.843905
 20
231.872668
 42
-0.057492
  0
VERTEX
  8
0
 10
136.856266
 20
229.210348
 42
-0.033972
  0
VERTEX
  8
0
 10
131.591236
 20
226.947600
 42
-0.046222
  0
VERTEX
  8
0
 10
127.191815
 20
225.844803
 42
-0.027312
  0
VERTEX
  8
0
 10
121.799509
 20
225.311285
 42
-0.011688
  0
VERTEX
  8
0
 10
112.952383
 20
225.128706
 42
-0.001296
  0
VERTEX
  8
0
 10
92.736675
 20
225.236536
 42
0.000000
  0
VERTEX
  8
0
 10
59.500000
 20
225.500000
 42
0.000000
  0
VERTEX
  8
0
 10
59.204310
 20
232.250000
 42
0.000000
  0
VERTEX
  8
0
 10
58.908620
 20
239.000000
 42
0.000000
  0
VERTEX
  8
0
 10
75.515583
 20
239.000000
 42
0.000000
  0
VERTEX
  8
0
 10
92.122546
 20
239.000000
 42
0.000000
  0
VERTEX
  8
0
 10
91.311273
 20
243.750000
 42
-0.019147
  0
VERTEX
  8
0
 10
90.998932
 20
246.122943
 42
-0.007261
  0
VERTEX
  8
0
 10
90.738311
 20
249.454688
 42
-0.007179
  0
VERTEX
  8
0
 10
90.559408
 20
253.088989
 42
-0.008708
  0
VERTEX
  8
0
 10
90.500000
 20
256.500000
 42
-0.039488
  0
VERTEX
  8
0
 10
91.023110
 20
263.113288
 42
-0.060743
  0
VERTEX
  8
0
 10
92.603494
 20
268.625668
 42
-0.064375
  0
VERTEX
  8
0
 10
95.375718
 20
273.366677
 42
-0.051335
  0
VERTEX
  8
0
 10
99.461013
 20
277.662615
 42
-0.050744
  0
VERTEX
  8
0
 10
103.897050
 20
280.740289
 42
-0.060645
  0
VERTEX
  8
0
 10
108.610943
 20
282.644995
 42
-0.051104
  0
VERTEX
  8
0
 10
114.269726
 20
283.562513
 42
-0.024217
  0
VERTEX
  8
0
 10
121.666954
 20
283.637958
 42
-0.009867
  0
VERTEX
  8
0
 10
126.726758
 20
283.344372
 42
-0.034253
  0
VERTEX
  8
0
 10
129.967412
 20
282.867280
 42
-0.046469
  0
VERTEX
  8
0
 10
132.563745
 20
282.042691
 42
-0.032436
  0
SEQEND
  0
POLYLINE
  8
0
 66
1
 70
1
  0
VERTEX
  8
0
 10
384.000000
 20
276.000000
 42
0.000000
  0
VERTEX
  8
0
 10
384.000000
 20
269.000000
 42
0.000000
  0
VERTEX
  8
0
 10
367.024751
 20
269.000000
 42
0.000000
  0
VERTEX
  8
0
 10
350.049502
 20
269.000000
 42
0.000000
  0
VERTEX
  8
0
 10
351.177447
 20
266.250000
 42
-0.062772
  0
VERTEX
  8
0
 10
351.622085
 20
264.604145
 42
-0.010669
  0
VERTEX
  8
0
 10
352.002642
 20
261.370313
 42
-0.011502
  0
VERTEX
  8
0
 10
352.282704
 20
257.530185
 42
-0.010018
  0
VERTEX
  8
0
 10
352.402696
 20
253.500000
 42
-0.007908
  0
VERTEX
  8
0
 10
352.367751
 20
247.757071
 42
-0.034427
  0
VERTEX
  8
0
 10
352.059694
 20
244.370954
 42
-0.049081
  0
VERTEX
  8
0
 10
351.348293
 20
241.671051
 42
-0.029121
  0
VERTEX
  8
0
 10
350.008366
 20
238.621093
 42
-0.049512
  0
VERTEX
  8
0
 10
347.230761
 20
234.298209
 42
-0.046889
  0
VERTEX
  8
0
 10
343.611284
 20
230.518609
 42
-0.047116
  0
VERTEX
  8
0
 10
339.369865
 20
227.495969
 42
-0.051124
  0
VERTEX
  8
0
 10
334.748877
 20
225.416590
 42
-0.061824
  0
VERTEX
  8
0
 10
328.967475
 20
224.261543
 42
-0.028784
  0
VERTEX
  8
0
 10
321.308918
 20
224.137871
 42
-0.028601
  0
VERTEX
  8
0
 10
313.802742
 20
224.880319
 42
-0.073054
  0
VERTEX
  8
0
 10
308.596598
 20
226.500050
 42
-0.068939
  0
VERTEX
  8
0
 10
302.678303
 20
230.421118
 42
-0.069282
  0
VERTEX
  8
0
 10
298.060304
 20
235.797541
 42
-0.065943
  0
VERTEX
  8
0
 10
294.918525
 20
242.477650
 42
-0.053756
  0
VERTEX
  8
0
 10
293.343091
 20
250.228836
 42
-0.070336
  0
VERTEX
  8
0
 10
293.870399
 20
261.361627
 42
-0.090726
  0
VERTEX
  8
0
 10
297.553096
 20
270.892425
 42
-0.098632
  0
VERTEX
  8
0
 10
304.063417
 20
277.932674
 42
-0.099405
  0
VERTEX
  8
0
 10
312.757278
 20
281.916688
 42
-0.049448
  0
VERTEX
  8
0
 10
315.417210
 20
282.271810
 42
-0.001925
  0
VERTEX
  8
0
 10
325.314638
 20
282.569397
 42
-0.003410
  0
VERTEX
  8
0
 10
337.047798
 20
282.796924
 42
-0.002398
  0
VERTEX
  8
0
 10
350.250000
 20
282.899549
 42
0.000000
  0
VERTEX
  8
0
 10
384.000000
 20
283.000000
 42
0.000000
  0
SEQEND
  0
POLYLINE
  8
0
 66
1
 70
1
  0
VERTEX
  8
0
 10
434.650043
 20
121.600378
 42
-0.014498
  0
VERTEX
  8
0
 10
442.845347
 20
114.513978
 42
-0.016870
  0
VERTEX
  8
0
 10
450.198655
 20
107.302031
 42
-0.015180
  0
VERTEX
  8
0
 10
455.978285
 20
100.856837
 42
-0.105729
  0
VERTEX
  8
0
 10
457.958877
 20
97.143387
 42
-0.036970
  0
VERTEX
  8
0
 10
458.395645
 20
95.046872
 42
-0.203207
  0
VERTEX
  8
0
 10
458.094743
 20
93.957381
 42
-0.113192
  0
VERTEX
  8
0
 10
456.987021
 20
93.070825
 42
-0.008285
  0
VERTEX
  8
0
 10
453.423544
 20
91.423768
 42
-0.027821
  0
VERTEX
  8
0
 10
449.944257
 20
90.111134
 42
-0.043367
  0
VERTEX
  8
0
 10
446.818528
 20
89.417235
 42
-0.028588
  0
VERTEX
  8
0
 10
442.799725
 20
89.116824
 42
-0.005948
  0
VERTEX
  8
0
 10
435.721487
 20
89.077504
 42
-0.007658
  0
VERTEX
  8
0
 10
429.693646
 20
89.208066
 42
-0.017242
  0
VERTEX
  8
0
 10
425.134485
 20
89.534379
 42
-0.022456
  0
VERTEX
  8
0
 10
421.522947
 20
90.083299
 42
-0.035410
  0
VERTEX
  8
0
 10
418.500000
 20
90.908650
 42
-0.014568
  0
VERTEX
  8
0
 10
415.362874
 20
92.112654
 42
-0.117779
  0
VERTEX
  8
0
 10
414.125947
 20
93.014645
 42
-0.139279
  0
VERTEX
  8
0
 10
413.529785
 20
94.316354
 42
-0.023186
  0
VERTEX
  8
0
 10
413.234682
 20
97.081146
 42
-0.018500
  0
VERTEX
  8
0
 10
413.177931
 20
99.550901
 42
-0.003881
  0
VERTEX
  8
0
 10
413.272113
 20
103.873837
 42
-0.004064
  0
VERTEX
  8
0
 10
413.461184
 20
108.890324
 42
-0.003837
  0
VERTEX
  8
0
 10
413.734682
 20
114.000000
 42
0.000000
  0
VERTEX
  8
0
 10
414.500000
 20
126.500000
 42
0.000000
  0
VERTEX
  8
0
 10
418.000000
 20
127.118359
 42
-0.025969
  0
VERTEX
  8
0
 10
423.040026
 20
127.741134
 42
-0.098071
  0
VERTEX
  8
0
 10
426.179977
 20
127.348174
 42
-0.078234
  0
VERTEX
  8
0
 10
429.290812
 20
125.743765
 42
-0.012913
  0
SEQEND
  0
POLYLINE
  8
0
 66
1
 70
1
  0
VERTEX
  8
0
 10
113.093664
 20
268.750322
 42
0.076802
  0
VERTEX
  8
0
 10
109.309554
 20
266.657961
 42
0.121300
  0
VERTEX
  8
0
 10
107.015155
 20
263.767744
 42
0.084266
  0
VERTEX
  8
0
 10
105.835365
 20
259.358088
 42
0.023326
  0
VERTEX
  8
0
 10
105.500000
 20
252.173449
 42
0.009372
  0
VERTEX
  8
0
 10
105.671943
 20
243.001004
 42
0.164002
  0
VERTEX
  8
0
 10
106.714226
 20
240.253605
 42
0.220018
  0
VERTEX
  8
0
 10
109.099002
 20
239.101762
 42
0.018446
  0
VERTEX
  8
0
 10
116.122451
 20
239.242728
 42
0.023382
  0
VERTEX
  8
0
 10
122.855897
 20
239.943572
 42
0.079299
  0
VERTEX
  8
0
 10
127.050661
 20
241.281415
 42
0.113448
  0
VERTEX
  8
0
 10
129.782939
 20
243.549955
 42
0.078891
  0
VERTEX
  8
0
 10
131.693558
 20
247.093664
 42
0.061489
  0
VERTEX
  8
0
 10
132.926240
 20
252.760169
 42
0.065297
  0
VERTEX
  8
0
 10
132.704501
 20
258.438345
 42
0.070429
  0
VERTEX
  8
0
 10
131.089450
 20
263.479068
 42
0.096432
  0
VERTEX
  8
0
 10
128.239525
 20
267.283233
 42
0.119035
  0
VERTEX
  8
0
 10
125.624167
 20
268.707292
 42
0.041297
  0
VERTEX
  8
0
 10
121.368479
 20
269.477782
 42
0.041277
  0
VERTEX
  8
0
 10
116.805428
 20
269.541924
 42
0.070953
  0
SEQEND
  0
POLYLINE
  8
0
 66
1
 70
1
  0
VERTEX
  8
0
 10
319.000000
 20
268.131685
 42
0.074964
  0
VERTEX
  8
0
 10
314.831704
 20
266.383382
 42
0.115333
  0
VERTEX
  8
0
 10
312.053228
 20
263.654237
 42
0.098111
  0
VERTEX
  8
0
 10
310.496051
 20
259.628822
 42
0.043405
  0
VERTEX
  8
0
 10
310.000000
 20
253.925377
 42
0.015416
  0
VERTEX
  8
0
 10
310.107806
 20
250.429695
 42
0.040656
  0
VERTEX
  8
0
 10
310.464358
 20
247.952071
 42
0.051343
  0
VERTEX
  8
0
 10
311.152998
 20
245.920343
 42
0.040759
  0
VERTEX
  8
0
 10
312.286557
 20
243.897883
 42
0.122682
  0
VERTEX
  8
0
 10
316.308093
 20
240.267510
 42
0.096151
  0
VERTEX
  8
0
 10
321.944239
 20
238.533503
 42
0.093623
  0
VERTEX
  8
0
 10
327.954120
 20
239.014999
 42
0.108639
  0
VERTEX
  8
0
 10
333.026051
 20
241.675374
 42
0.077897
  0
VERTEX
  8
0
 10
335.522081
 20
244.545425
 42
0.071952
  0
VERTEX
  8
0
 10
337.103565
 20
248.118686
 42
0.058143
  0
VERTEX
  8
0
 10
337.819497
 20
252.645264
 42
0.029573
  0
VERTEX
  8
0
 10
337.713207
 20
258.414636
 42
0.010924
  0
VERTEX
  8
0
 10
337.015785
 20
265.408050
 42
0.149289
  0
VERTEX
  8
0
 10
335.990733
 20
267.718093
 42
0.198926
  0
VERTEX
  8
0
 10
333.956644
 20
268.736157
 42
0.021975
  0
VERTEX
  8
0
 10
328.643011
 20
268.881685
 42
0.007423
  0
VERTEX
  8
0
 10
325.724983
 20
268.790004
 42
0.007842
  0
VERTEX
  8
0
 10
322.863885
 20
268.612568
 42
0.007549
  0
VERTEX
  8
0
 10
320.404768
 20
268.383908
 42
0.034934
  0
SEQEND
  0
ENDSEC
  0
EOF
