  0
SECTION
  2
HEADER
  9
$ACADVER
  1
AC1006
  9
$EXTMIN
 10
0.000000
 20
0.000000
 30
0.000000
  9
$EXTMAX
 10
1224.000000
 20
500.000000
 30
0.000000
  0
ENDSEC
  0
SECTION
  2
ENTITIES
  0
POLYLINE
  8
0
 66
1
 70
1
  0
VERTEX
  8
0
 10
309.000000
 20
417.123604
 42
0.055851
  0
VERTEX
  8
0
 10
301.917752
 20
413.882100
 42
0.038445
  0
VERTEX
  8
0
 10
294.715175
 20
408.765386
 42
0.034361
  0
VERTEX
  8
0
 10
287.576772
 20
401.936803
 42
0.025900
  0
VERTEX
  8
0
 10
280.687901
 20
393.540454
 42
-0.003968
  0
VERTEX
  8
0
 10
277.943998
 20
389.879922
 42
-0.001169
  0
VERTEX
  8
0
 10
273.679441
 20
384.310891
 42
-0.001174
  0
VERTEX
  8
0
 10
268.853950
 20
378.070133
 42
-0.001262
  0
VERTEX
  8
0
 10
264.114452
 20
372.001906
 42
-0.007310
  0
VERTEX
  8
0
 10
245.718865
 20
349.263665
 42
-0.035721
  0
VERTEX
  8
0
 10
234.250843
 20
337.347723
 42
-0.054584
  0
VERTEX
  8
0
 10
223.611921
 20
329.686797
 42
-0.034235
  0
VERTEX
  8
0
 10
209.767131
 20
323.057384
 42
0.018645
  0
VERTEX
  8
0
 10
192.939537
 20
315.634933
 42
0.009525
  0
VERTEX
  8
0
 10
172.368431
 20
305.140112
 42
0.008537
  0
VERTEX
  8
0
 10
149.160033
 20
292.222971
 42
0.006473
  0
VERTEX
  8
0
 10
124.139103
 20
277.296201
 42
0.006653
  0
VERTEX
  8
0
 10
110.770962
 20
268.837637
 42
0.000848
  0
VERTEX
  8
0
 10
82.290912
 20
250.213098
 42
0.000212
  0
VERTEX
  8
0
 10
51.118942
 20
229.733673
 42
0.039314
  0
VERTEX
  8
0
 10
48.073001
 20
227.368337
 42
0.345944
  0
VERTEX
  8
0
 10
48.032545
 20
227.126598
 42
0.048377
  0
VERTEX
  8
0
 10
48.337489
 20
226.677959
 42
0.038557
  0
VERTEX
  8
0
 10
48.864868
 20
226.134880
 42
0.022409
  0
VERTEX
  8
0
 10
49.573001
 20
225.564372
 42
-0.019494
  0
VERTEX
  8
0
 10
50.718059
 20
224.652808
 42
-0.309914
  0
VERTEX
  8
0
 10
50.838572
 20
224.196868
 42
-0.208957
  0
VERTEX
  8
0
 10
50.457865
 20
223.791981
 42
-0.009874
  0
VERTEX
  8
0
 10
48.684900
 20
223.074704
 42
-0.011234
  0
VERTEX
  8
0
 10
47.530023
 20
222.663295
 42
-0.012164
  0
VERTEX
  8
0
 10
46.387849
 20
222.315694
 42
-0.011725
  0
VERTEX
  8
0
 10
45.396881
 20
222.065136
 42
-0.056109
  0
VERTEX
  8
0
 10
44.818269
 20
222.000000
 42
0.207047
  0
VERTEX
  8
0
 10
44.459134
 20
221.844624
 42
0.120955
  0
VERTEX
  8
0
 10
44.224895
 20
221.429190
 42
0.082848
  0
VERTEX
  8
0
 10
44.157192
 20
220.800938
 42
0.049493
  0
VERTEX
  8
0
 10
44.274891
 20
220.056817
 42
-0.088654
  0
VERTEX
  8
0
 10
44.346355
 20
219.153313
 42
-0.066074
  0
VERTEX
  8
0
 10
44.118069
 20
218.177751
 42
-0.061454
  0
VERTEX
  8
0
 10
43.618187
 20
217.228206
 42
-0.057037
  0
VERTEX
  8
0
 10
42.891522
 20
216.401829
 42
0.018612
  0
VERTEX
  8
0
 10
42.167261
 20
215.695614
 42
0.023596
  0
VERTEX
  8
0
 10
41.555635
 20
214.989204
 42
0.022650
  0
VERTEX
  8
0
 10
41.109165
 20
214.365315
 42
0.144964
  0
VERTEX
  8
0
 10
41.000000
 20
213.996702
 42
0.304847
  0
VERTEX
  8
0
 10
41.778722
 20
212.838163
 42
0.029834
  0
VERTEX
  8
0
 10
45.135520
 20
211.697534
 42
0.035075
  0
VERTEX
  8
0
 10
48.806480
 20
210.961860
 42
0.097554
  0
VERTEX
  8
0
 10
51.418763
 20
211.136704
 42
-0.045805
  0
VERTEX
  8
0
 10
59.071708
 20
212.448647
 42
-0.008845
  0
VERTEX
  8
0
 10
73.108791
 20
213.299545
 42
-0.007544
  0
VERTEX
  8
0
 10
92.268366
 20
213.831675
 42
-0.003149
  0
VERTEX
  8
0
 10
118.113510
 20
213.996583
 42
0.002101
  0
VERTEX
  8
0
 10
134.976134
 20
214.068835
 42
0.003310
  0
VERTEX
  8
0
 10
149.450023
 20
214.287524
 42
0.002266
  0
VERTEX
  8
0
 10
161.259989
 20
214.597726
 42
0.039177
  0
VERTEX
  8
0
 10
165.092503
 20
215.017543
 42
0.037942
  0
VERTEX
  8
0
 10
167.785302
 20
215.743315
 42
0.015079
  0
VERTEX
  8
0
 10
171.357421
 20
217.125811
 42
0.014476
  0
VERTEX
  8
0
 10
175.241826
 20
218.899653
 42
0.014903
  0
VERTEX
  8
0
 10
178.978993
 20
220.879260
 42
-0.010460
  0
VERTEX
  8
0
 10
184.560735
 20
223.899758
 42
-0.052101
  0
VERTEX
  8
0
 10
187.877158
 20
225.189849
 42
-0.046038
  0
VERTEX
  8
0
 10
191.560450
 20
225.840592
 42
-0.007041
  0
VERTEX
  8
0
 10
199.000000
 20
226.353075
 42
-0.004496
  0
VERTEX
  8
0
 10
205.219470
 20
226.637533
 42
-0.001122
  0
VERTEX
  8
0
 10
215.387968
 20
226.988171
 42
-0.001146
  0
VERTEX
  8
0
 10
227.023058
 20
227.336543
 42
-0.001152
  0
VERTEX
  8
0
 10
238.639891
 20
227.630925
 42
0.000000
  0
VERTEX
  8
0
 10
266.779782
 20
228.279133
 42
0.000000
  0
VERTEX
  8
0
 10
267.359426
 20
225.389567
 42
-0.012522
  0
VERTEX
  8
0
 10
267.714878
 20
223.354609
 42
-0.000492
  0
VERTEX
  8
0
 10
268.824096
 20
215.858185
 42
-0.000872
  0
VERTEX
  8
0
 10
270.113106
 20
206.979373
 42
-0.000616
  0
VERTEX
  8
0
 10
271.531567
 20
197.000000
 42
0.002793
  0
VERTEX
  8
0
 10
273.119903
 20
186.164263
 42
0.002342
  0
VERTEX
  8
0
 10
274.922189
 20
174.691315
 42
0.002363
  0
VERTEX
  8
0
 10
276.667647
 20
164.223600
 42
0.006501
  0
VERTEX
  8
0
 10
278.029328
 20
156.864050
 42
0.027118
  0
VERTEX
  8
0
 10
285.081222
 20
129.266952
 42
0.063222
  0
VERTEX
  8
0
 10
293.970199
 20
109.919475
 42
0.090746
  0
VERTEX
  8
0
 10
304.924366
 20
97.873102
 42
0.131258
  0
VERTEX
  8
0
 10
318.159382
 20
92.419968
 42
0.035782
  0
VERTEX
  8
0
 10
320.723676
 20
92.270378
 42
0.068129
  0
VERTEX
  8
0
 10
322.762742
 20
92.577117
 42
0.051869
  0
VERTEX
  8
0
 10
324.984080
 20
93.487625
 42
0.013530
  0
VERTEX
  8
0
 10
328.335772
 20
95.405372
 42
0.052409
  0
VERTEX
  8
0
 10
340.890240
 20
104.978820
 42
0.049810
  0
VERTEX
  8
0
 10
351.420366
 20
117.105461
 42
0.045251
  0
VERTEX
  8
0
 10
360.141874
 20
132.160371
 42
0.031354
  0
VERTEX
  8
0
 10
367.296133
 20
150.500000
 42
0.018894
  0
VERTEX
  8
0
 10
371.291578
 20
164.854444
 42
0.014998
  0
VERTEX
  8
0
 10
374.547644
 20
180.617844
 42
0.011120
  0
VERTEX
  8
0
 10
377.588562
 20
200.541317
 42
0.004206
  0
VERTEX
  8
0
 10
380.982733
 20
228.500000
 42
-0.000669
  0
VERTEX
  8
0
 10
382.231632
 20
239.433462
 42
-0.000750
  0
VERTEX
  8
0
 10
383.464083
 20
249.957975
 42
-0.000688
  0
VERTEX
  8
0
 10
384.539527
 20
258.918613
 42
-0.004008
  0
VERTEX
  8
0
 10
385.150377
 20
263.633532
 42
0.016982
  0
VERTEX
  8
0
 10
385.671198
 20
268.677408
 42
0.033914
  0
VERTEX
  8
0
 10
385.675727
 20
272.686333
 42
0.024342
  0
VERTEX
  8
0
 10
385.126374
 20
277.427806
 42
0.005142
  0
VERTEX
  8
0
 10
383.681403
 20
285.633532
 42
-0.000766
  0
VERTEX
  8
0
 10
382.443276
 20
292.321401
 42
-0.000338
  0
VERTEX
  8
0
 10
380.826273
 20
301.164916
 42
-0.000335
  0
VERTEX
  8
0
 10
379.124898
 20
310.541187
 42
-0.000450
  0
VERTEX
  8
0
 10
377.597555
 20
319.034268
 42
0.001785
  0
VERTEX
  8
0
 10
376.205915
 20
326.655879
 42
0.002576
  0
VERTEX
  8
0
 10
374.916412
 20
333.385339
 42
0.001340
  0
VERTEX
  8
0
 10
373.779338
 20
339.077701
 42
0.041666
  0
VERTEX
  8
0
 10
373.377791
 20
340.457877
 42
-0.024330
  0
VERTEX
  8
0
 10
373.047568
 20
341.461894
 42
-0.275914
  0
VERTEX
  8
0
 10
373.154341
 20
341.848708
 42
-0.265952
  0
VERTEX
  8
0
 10
373.550655
 20
341.947024
 42
-0.022999
  0
VERTEX
  8
0
 10
374.576391
 20
341.604040
 42
0.041944
  0
VERTEX
  8
0
 10
375.760090
 20
341.257448
 42
0.005769
  0
VERTEX
  8
0
 10
378.284940
 20
340.773271
 42
0.006589
  0
VERTEX
  8
0
 10
381.296004
 20
340.272668
 42
0.005532
  0
VERTEX
  8
0
 10
384.500000
 20
339.819503
 42
-0.015043
  0
VERTEX
  8
0
 10
388.866549
 20
339.116955
 42
-0.003476
  0
VERTEX
  8
0
 10
396.171875
 20
337.662217
 42
-0.003587
  0
VERTEX
  8
0
 10
404.564844
 20
335.867272
 42
-0.003500
  0
VERTEX
  8
0
 10
413.000000
 20
333.937887
 42
0.012687
  0
VERTEX
  8
0
 10
473.425899
 20
321.280001
 42
0.015089
  0
VERTEX
  8
0
 10
531.027080
 20
312.518779
 42
0.015441
  0
VERTEX
  8
0
 10
587.867572
 20
307.395646
 42
0.014592
  0
VERTEX
  8
0
 10
646.000000
 20
305.661186
 42
0.005569
  0
VERTEX
  8
0
 10
674.047012
 20
305.955456
 42
0.010888
  0
VERTEX
  8
0
 10
696.375401
 20
306.925228
 42
0.011410
  0
VERTEX
  8
0
 10
717.949583
 20
308.828659
 42
0.006824
  0
VERTEX
  8
0
 10
743.500000
 20
312.025323
 42
-0.003186
  0
VERTEX
  8
0
 10
750.906094
 20
313.006696
 42
-0.000892
  0
VERTEX
  8
0
 10
762.493750
 20
314.446101
 42
-0.000900
  0
VERTEX
  8
0
 10
775.604711
 20
316.027026
 42
-0.000947
  0
VERTEX
  8
0
 10
788.500000
 20
317.533638
 42
0.004509
  0
VERTEX
  8
0
 10
833.005968
 20
323.055092
 42
0.004795
  0
VERTEX
  8
0
 10
876.499473
 20
329.274716
 42
0.005015
  0
VERTEX
  8
0
 10
917.752450
 20
336.002343
 42
0.006464
  0
VERTEX
  8
0
 10
955.500000
 20
343.051462
 42
0.005260
  0
VERTEX
  8
0
 10
989.986639
 20
350.332264
 42
0.006994
  0
VERTEX
  8
0
 10
1021.167471
 20
357.717658
 42
0.006783
  0
VERTEX
  8
0
 10
1052.870593
 20
366.155555
 42
0.004508
  0
VERTEX
  8
0
 10
1089.000000
 20
376.650616
 42
-0.004735
  0
VERTEX
  8
0
 10
1120.163905
 20
385.687980
 42
-0.006438
  0
VERTEX
  8
0
 10
1148.459027
 20
393.212297
 42
-0.001725
  0
VERTEX
  8
0
 10
1173.821086
 20
399.515214
 42
-0.262152
  0
VERTEX
  8
0
 10
1176.593181
 20
398.740152
 42
-0.403491
  0
VERTEX
  8
0
 10
1176.599312
 20
398.406516
 42
-0.002153
  0
VERTEX
  8
0
 10
1174.174512
 20
395.819041
 42
-0.007338
  0
VERTEX
  8
0
 10
1171.280053
 20
392.845581
 42
-0.004400
  0
VERTEX
  8
0
 10
1167.760013
 20
389.395345
 42
-0.029946
  0
VERTEX
  8
0
 10
1155.610743
 20
379.022020
 42
-0.021232
  0
VERTEX
  8
0
 10
1140.857797
 20
368.833900
 42
-0.021472
  0
VERTEX
  8
0
 10
1126.080339
 20
360.392866
 42
-0.047863
  0
VERTEX
  8
0
 10
1114.068499
 20
355.589747
 42
-0.031361
  0
VERTEX
  8
0
 10
1108.890793
 20
354.420837
 42
-0.045105
  0
VERTEX
  8
0
 10
1104.205131
 20
354.096133
 42
-0.045378
  0
VERTEX
  8
0
 10
1099.558522
 20
354.617117
 42
-0.032265
  0
VERTEX
  8
0
 10
1094.500000
 20
356.000000
 42
0.004634
  0
VERTEX
  8
0
 10
1089.213099
 20
357.764329
 42
0.151623
  0
VERTEX
  8
0
 10
1087.881062
 20
357.780146
 42
0.499762
  0
VERTEX
  8
0
 10
1087.621856
 20
357.080497
 42
0.019875
  0
VERTEX
  8
0
 10
1089.436691
 20
354.494115
 42
-0.017369
  0
VERTEX
  8
0
 10
1090.427699
 20
353.096740
 42
-0.025549
  0
VERTEX
  8
0
 10
1091.189873
 20
351.799036
 42
-0.023347
  0
VERTEX
  8
0
 10
1091.689725
 20
350.718486
 42
-0.239467
  0
VERTEX
  8
0
 10
1091.649894
 20
350.242534
 42
0.274596
  0
VERTEX
  8
0
 10
1091.640632
 20
349.716156
 42
0.008753
  0
VERTEX
  8
0
 10
1092.774416
 20
347.806975
 42
0.014675
  0
VERTEX
  8
0
 10
1094.266560
 20
345.543057
 42
0.009381
  0
VERTEX
  8
0
 10
1096.125226
 20
342.998419
 42
-0.085274
  0
VERTEX
  8
0
 10
1108.092938
 20
319.981395
 42
-0.062316
  0
VERTEX
  8
0
 10
1113.399440
 20
291.605789
 42
-0.049406
  0
VERTEX
  8
0
 10
1112.064234
 20
256.786098
 42
-0.025891
  0
VERTEX
  8
0
 10
1103.917291
 20
214.155668
 42
0.003421
  0
VERTEX
  8
0
 10
1101.713963
 20
204.902342
 42
0.020745
  0
VERTEX
  8
0
 10
1100.805527
 20
200.059621
 42
0.041213
  0
VERTEX
  8
0
 10
1100.610891
 20
196.902407
 42
0.074630
  0
VERTEX
  8
0
 10
1101.047376
 20
194.356449
 42
-0.068724
  0
VERTEX
  8
0
 10
1101.972442
 20
189.316946
 42
-0.019853
  0
VERTEX
  8
0
 10
1102.008997
 20
181.383769
 42
-0.019822
  0
VERTEX
  8
0
 10
1101.341229
 20
172.464880
 42
-0.021669
  0
VERTEX
  8
0
 10
1099.977792
 20
163.891024
 42
-0.017701
  0
VERTEX
  8
0
 10
1097.059126
 20
151.777317
 42
-0.014956
  0
VERTEX
  8
0
 10
1093.141715
 20
139.191019
 42
-0.012755
  0
VERTEX
  8
0
 10
1087.873719
 20
125.073857
 42
-0.007207
  0
VERTEX
  8
0
 10
1080.808657
 20
108.226477
 42
-0.009698
  0
VERTEX
  8
0
 10
1077.745872
 20
101.563876
 42
-0.192537
  0
VERTEX
  8
0
 10
1076.119060
 20
100.078176
 42
-0.353736
  0
VERTEX
  8
0
 10
1074.522907
 20
100.607699
 42
-0.025593
  0
VERTEX
  8
0
 10
1072.050372
 20
104.933102
 42
-0.057182
  0
VERTEX
  8
0
 10
1069.420852
 20
112.050726
 42
-0.021569
  0
VERTEX
  8
0
 10
1067.345322
 20
122.476051
 42
-0.013450
  0
VERTEX
  8
0
 10
1065.365060
 20
138.048240
 42
-0.003388
  0
VERTEX
  8
0
 10
1062.995956
 20
163.500000
 42
0.006721
  0
VERTEX
  8
0
 10
1061.393817
 20
179.551900
 42
0.010453
  0
VERTEX
  8
0
 10
1059.538083
 20
193.335788
 42
0.009958
  0
VERTEX
  8
0
 10
1057.606999
 20
204.280237
 42
0.069071
  0
VERTEX
  8
0
 10
1055.834526
 20
209.413305
 42
0.014492
  0
VERTEX
  8
0
 10
1055.204763
 20
210.567750
 42
0.002939
  0
VERTEX
  8
0
 10
1054.016871
 20
212.575543
 42
0.003097
  0
VERTEX
  8
0
 10
1052.606861
 20
214.894418
 42
0.002897
  0
VERTEX
  8
0
 10
1051.136741
 20
217.248117
 42
0.019986
  0
VERTEX
  8
0
 10
1048.846653
 20
220.566443
 42
0.061104
  0
VERTEX
  8
0
 10
1046.953862
 20
222.533745
 42
0.056877
  0
VERTEX
  8
0
 10
1044.568007
 20
224.059675
 42
0.015656
  0
VERTEX
  8
0
 10
1040.500000
 20
225.896226
 42
0.038249
  0
VERTEX
  8
0
 10
1013.046965
 20
234.881274
 42
0.031683
  0
VERTEX
  8
0
 10
982.757195
 20
240.283461
 42
0.021517
  0
VERTEX
  8
0
 10
942.623891
 20
243.102258
 42
0.006497
  0
VERTEX
  8
0
 10
881.500000
 20
243.964094
 42
-0.002264
  0
VERTEX
  8
0
 10
864.519533
 20
244.059744
 42
-0.002210
  0
VERTEX
  8
0
 10
847.403125
 20
244.309316
 42
-0.002176
  0
VERTEX
  8
0
 10
832.373698
 20
244.660344
 42
-0.008288
  0
VERTEX
  8
0
 10
823.000000
 20
245.075677
 42
0.000000
  0
VERTEX
  8
0
 10
805.500000
 20
246.141942
 42
0.000000
  0
VERTEX
  8
0
 10
764.500000
 20
238.600545
 42
-0.002945
  0
VERTEX
  8
0
 10
737.055535
 20
233.719443
 42
-0.002748
  0
VERTEX
  8
0
 10
708.914155
 20
229.044272
 42
-0.002710
  0
VERTEX
  8
0
 10
680.315826
 20
224.613369
 42
-0.002661
  0
VERTEX
  8
0
 10
651.500000
 20
220.465221
 42
-0.024590
  0
VERTEX
  8
0
 10
639.915388
 20
219.437542
 42
-0.019913
  0
VERTEX
  8
0
 10
627.435133
 20
219.443923
 42
-0.012445
  0
VERTEX
  8
0
 10
610.447877
 20
220.553414
 42
-0.003033
  0
VERTEX
  8
0
 10
582.500000
 20
223.249637
 42
0.003184
  0
VERTEX
  8
0
 10
564.805498
 20
224.951307
 42
0.008601
  0
VERTEX
  8
0
 10
552.217480
 20
225.863078
 42
0.009298
  0
VERTEX
  8
0
 10
540.168679
 20
226.303150
 42
0.004305
  0
VERTEX
  8
0
 10
524.500000
 20
226.448897
 42
0.002712
  0
VERTEX
  8
0
 10
510.231117
 20
226.381367
 42
0.009480
  0
VERTEX
  8
0
 10
501.032429
 20
226.113459
 42
0.014393
  0
VERTEX
  8
0
 10
494.233618
 20
225.589870
 42
0.020722
  0
VERTEX
  8
0
 10
488.264230
 20
224.705486
 42
0.020496
  0
VERTEX
  8
0
 10
472.172512
 20
220.946041
 42
0.025846
  0
VERTEX
  8
0
 10
457.667954
 20
216.104316
 42
0.028784
  0
VERTEX
  8
0
 10
445.677699
 20
210.584876
 42
0.062959
  0
VERTEX
  8
0
 10
437.431566
 20
204.763460
 42
0.070059
  0
VERTEX
  8
0
 10
431.016081
 20
196.997270
 42
0.056493
  0
VERTEX
  8
0
 10
426.424025
 20
187.184273
 42
0.035840
  0
VERTEX
  8
0
 10
422.740466
 20
172.946707
 42
0.009759
  0
VERTEX
  8
0
 10
418.990157
 20
150.000000
 42
-0.005420
  0
VERTEX
  8
0
 10
416.604856
 20
134.565064
 42
-0.013209
  0
VERTEX
  8
0
 10
414.424471
 20
123.263272
 42
-0.017510
  0
VERTEX
  8
0
 10
412.132240
 20
114.361005
 42
-0.024737
  0
VERTEX
  8
0
 10
409.429062
 20
106.633141
 42
0.003488
  0
VERTEX
  8
0
 10
408.498344
 20
104.296008
 42
0.005086
  0
VERTEX
  8
0
 10
407.713537
 20
102.222510
 42
0.002619
  0
VERTEX
  8
0
 10
407.076787
 20
100.458550
 42
0.085503
  0
VERTEX
  8
0
 10
407.000000
 20
100.012804
 42
0.278728
  0
VERTEX
  8
0
 10
407.488223
 20
99.205039
 42
0.013465
  0
VERTEX
  8
0
 10
410.427994
 20
97.761133
 42
0.021622
  0
VERTEX
  8
0
 10
413.714158
 20
96.424200
 42
0.031747
  0
VERTEX
  8
0
 10
416.711307
 20
95.563408
 42
0.031579
  0
VERTEX
  8
0
 10
418.627903
 20
95.267725
 42
0.162356
  0
VERTEX
  8
0
 10
419.659785
 20
95.511481
 42
0.136221
  0
VERTEX
  8
0
 10
420.436939
 20
96.352173
 42
0.019901
  0
VERTEX
  8
0
 10
421.427172
 20
98.479940
 42
0.043341
  0
VERTEX
  8
0
 10
423.632562
 20
105.384902
 42
0.020469
  0
VERTEX
  8
0
 10
425.323302
 20
114.592980
 42
0.011855
  0
VERTEX
  8
0
 10
426.952146
 20
128.456989
 42
0.002563
  0
VERTEX
  8
0
 10
429.076188
 20
152.500000
 42
-0.018566
  0
VERTEX
  8
0
 10
431.054490
 20
168.890576
 42
-0.049728
  0
VERTEX
  8
0
 10
434.035588
 20
180.251290
 42
-0.074395
  0
VERTEX
  8
0
 10
438.210160
 20
187.811566
 42
-0.127011
  0
VERTEX
  8
0
 10
443.851391
 20
192.236035
 42
0.014457
  0
VERTEX
  8
0
 10
446.118657
 20
193.307140
 42
0.005635
  0
VERTEX
  8
0
 10
449.190721
 20
194.912447
 42
0.005573
  0
VERTEX
  8
0
 10
452.479410
 20
196.725927
 42
0.006891
  0
VERTEX
  8
0
 10
455.500000
 20
198.491145
 42
-0.032958
  0
VERTEX
  8
0
 10
470.571824
 20
206.275636
 42
-0.036434
  0
VERTEX
  8
0
 10
486.047038
 20
211.715460
 42
-0.034171
  0
VERTEX
  8
0
 10
502.989195
 20
215.094727
 42
-0.023555
  0
VERTEX
  8
0
 10
522.500000
 20
216.687547
 42
-0.013306
  0
VERTEX
  8
0
 10
537.310241
 20
216.802235
 42
-0.014758
  0
VERTEX
  8
0
 10
551.601213
 20
216.110273
 42
-0.010624
  0
VERTEX
  8
0
 10
569.235029
 20
214.356241
 42
-0.003245
  0
VERTEX
  8
0
 10
595.824990
 20
210.964260
 42
0.002677
  0
VERTEX
  8
0
 10
625.005178
 20
207.208183
 42
0.026360
  0
VERTEX
  8
0
 10
637.362020
 20
206.342355
 42
0.044027
  0
VERTEX
  8
0
 10
647.389556
 20
207.053004
 42
0.014304
  0
VERTEX
  8
0
 10
662.000000
 20
209.822851
 42
-0.005313
  0
VERTEX
  8
0
 10
692.496914
 20
216.174540
 42
-0.004843
  0
VERTEX
  8
0
 10
724.077331
 20
222.085357
 42
-0.004907
  0
VERTEX
  8
0
 10
755.281026
 20
227.298132
 42
-0.005950
  0
VERTEX
  8
0
 10
784.638144
 20
231.549447
 42
-0.009666
  0
VERTEX
  8
0
 10
798.493344
 20
233.115907
 42
-0.015826
  0
VERTEX
  8
0
 10
810.283147
 20
233.843069
 42
-0.007148
  0
VERTEX
  8
0
 10
827.132514
 20
234.106844
 42
-0.000615
  0
VERTEX
  8
0
 10
870.187013
 20
234.112330
 42
-0.001379
  0
VERTEX
  8
0
 10
896.983523
 20
234.008841
 42
-0.002019
  0
VERTEX
  8
0
 10
920.568641
 20
233.757455
 42
-0.001637
  0
VERTEX
  8
0
 10
939.820615
 20
233.411482
 42
-0.017201
  0
VERTEX
  8
0
 10
947.687013
 20
232.973334
 42
-0.015079
  0
VERTEX
  8
0
 10
969.407803
 20
230.349930
 42
-0.021965
  0
VERTEX
  8
0
 10
988.330343
 20
226.626806
 42
-0.024103
  0
VERTEX
  8
0
 10
1005.402452
 20
221.599255
 42
-0.025798
  0
VERTEX
  8
0
 10
1021.518768
 20
215.046527
 42
-0.011193
  0
VERTEX
  8
0
 10
1031.200494
 20
210.247996
 42
-0.029451
  0
VERTEX
  8
0
 10
1037.836311
 20
206.257534
 42
-0.041623
  0
VERTEX
  8
0
 10
1042.312401
 20
202.611947
 42
-0.083282
  0
VERTEX
  8
0
 10
1045.022032
 20
198.956813
 42
-0.060078
  0
VERTEX
  8
0
 10
1048.277006
 20
190.087480
 42
-0.016330
  0
VERTEX
  8
0
 10
1051.236226
 20
175.418489
 42
-0.014231
  0
VERTEX
  8
0
 10
1053.859020
 20
156.525685
 42
-0.008040
  0
VERTEX
  8
0
 10
1056.015969
 20
133.500000
 42
0.014459
  0
VERTEX
  8
0
 10
1058.435588
 20
110.810453
 42
0.048403
  0
VERTEX
  8
0
 10
1061.869662
 20
96.267450
 42
0.087896
  0
VERTEX
  8
0
 10
1066.483789
 20
87.900224
 42
0.226639
  0
VERTEX
  8
0
 10
1072.553458
 20
85.000000
 42
0.067830
  0
VERTEX
  8
0
 10
1076.083432
 20
85.481087
 42
0.033431
  0
VERTEX
  8
0
 10
1080.364930
 20
86.984735
 42
0.027589
  0
VERTEX
  8
0
 10
1084.139178
 20
88.853470
 42
0.270280
  0
VERTEX
  8
0
 10
1085.000000
 20
90.329604
 42
-0.088449
  0
VERTEX
  8
0
 10
1085.124549
 20
91.028167
 42
-0.026845
  0
VERTEX
  8
0
 10
1085.551623
 20
92.020108
 42
-0.025962
  0
VERTEX
  8
0
 10
1086.159142
 20
93.100758
 42
-0.025620
  0
VERTEX
  8
0
 10
1086.877865
 20
94.117601
 42
0.082880
  0
VERTEX
  8
0
 10
1088.596151
 20
97.254432
 42
0.003294
  0
VERTEX
  8
0
 10
1092.830124
 20
109.649185
 42
0.004781
  0
VERTEX
  8
0
 10
1098.226060
 20
126.320938
 42
0.001855
  0
VERTEX
  8
0
 10
1105.389690
 20
149.500000
 42
0.004982
  0
VERTEX
  8
0
 10
1109.760382
 20
164.359379
 42
0.014239
  0
VERTEX
  8
0
 10
1112.400592
 20
174.802515
 42
0.018830
  0
VERTEX
  8
0
 10
1114.010578
 20
183.575406
 42
0.017144
  0
VERTEX
  8
0
 10
1115.016838
 20
192.723262
 42
-0.003864
  0
VERTEX
  8
0
 10
1115.380685
 20
197.096723
 42
-0.005730
  0
VERTEX
  8
0
 10
1115.772996
 20
200.922335
 42
-0.002745
  0
VERTEX
  8
0
 10
1116.160556
 20
204.159849
 42
-0.107648
  0
VERTEX
  8
0
 10
1116.399600
 20
204.837550
 42
0.094578
  0
VERTEX
  8
0
 10
1116.670524
 20
205.546593
 42
0.001018
  0
VERTEX
  8
0
 10
1117.579279
 20
210.705976
 42
0.003170
  0
VERTEX
  8
0
 10
1118.579731
 20
216.678357
 42
0.002052
  0
VERTEX
  8
0
 10
1119.665170
 20
223.601069
 42
0.007206
  0
VERTEX
  8
0
 10
1121.182694
 20
234.607519
 42
0.015537
  0
VERTEX
  8
0
 10
1121.964514
 20
243.125330
 42
0.011932
  0
VERTEX
  8
0
 10
1122.324275
 20
252.951476
 42
0.002762
  0
VERTEX
  8
0
 10
1122.443578
 20
269.500000
 42
0.002003
  0
VERTEX
  8
0
 10
1122.403172
 20
286.915764
 42
0.014703
  0
VERTEX
  8
0
 10
1122.105712
 20
295.237621
 42
0.025041
  0
VERTEX
  8
0
 10
1121.363967
 20
301.647604
 42
0.012882
  0
VERTEX
  8
0
 10
1119.829092
 20
309.583950
 42
0.012786
  0
VERTEX
  8
0
 10
1117.992952
 20
317.010708
 42
0.011627
  0
VERTEX
  8
0
 10
1115.725850
 20
324.574863
 42
0.011797
  0
VERTEX
  8
0
 10
1113.151500
 20
331.898003
 42
0.014496
  0
VERTEX
  8
0
 10
1110.392434
 20
338.598234
 42
-0.341179
  0
VERTEX
  8
0
 10
1110.527795
 20
339.156262
 42
-0.033590
  0
VERTEX
  8
0
 10
1111.738457
 20
339.998957
 42
-0.030726
  0
VERTEX
  8
0
 10
1113.525232
 20
340.928014
 42
-0.017107
  0
VERTEX
  8
0
 10
1115.801404
 20
341.847317
 42
0.047755
  0
VERTEX
  8
0
 10
1126.334996
 20
346.871799
 42
0.018299
  0
VERTEX
  8
0
 10
1139.952032
 20
355.737047
 42
0.015315
  0
VERTEX
  8
0
 10
1156.188054
 20
367.935054
 42
0.008695
  0
VERTEX
  8
0
 10
1175.109121
 20
383.626061
 42
0.003051
  0
VERTEX
  8
0
 10
1187.109961
 20
394.063545
 42
0.019097
  0
VERTEX
  8
0
 10
1193.003169
 20
399.666183
 42
0.036744
  0
VERTEX
  8
0
 10
1196.122655
 20
403.377101
 42
0.157681
  0
VERTEX
  8
0
 10
1197.000000
 20
406.089963
 42
0.076771
  0
VERTEX
  8
0
 10
1196.686011
 20
408.122891
 42
0.135626
  0
VERTEX
  8
0
 10
1195.767672
 20
409.536611
 42
0.086329
  0
VERTEX
  8
0
 10
1193.928133
 20
410.671721
 42
0.018929
  0
VERTEX
  8
0
 10
1190.414450
 20
411.925659
 42
0.115915
  0
VERTEX
  8
0
 10
1182.324065
 20
412.526507
 42
0.017846
  0
VERTEX
  8
0
 10
1166.398778
 20
409.424824
 42
0.014882
  0
VERTEX
  8
0
 10
1144.113376
 20
403.548726
 42
0.005297
  0
VERTEX
  8
0
 10
1112.633401
 20
393.874124
 42
-0.006756
  0
VERTEX
  8
0
 10
1068.486675
 20
380.447538
 42
-0.010921
  0
VERTEX
  8
0
 10
1030.542052
 20
370.357739
 42
-0.011083
  0
VERTEX
  8
0
 10
992.597281
 20
362.036223
 42
-0.007240
  0
VERTEX
  8
0
 10
948.500000
 20
354.046325
 42
-0.007503
  0
VERTEX
  8
0
 10
904.235702
 20
347.367354
 42
-0.004907
  0
VERTEX
  8
0
 10
853.016891
 20
340.934597
 42
-0.004855
  0
VERTEX
  8
0
 10
800.700180
 20
335.399066
 42
-0.006441
  0
VERTEX
  8
0
 10
753.000000
 20
331.439279
 42
0.015805
  0
VERTEX
  8
0
 10
748.516225
 20
330.982379
 42
0.007608
  0
VERTEX
  8
0
 10
742.801550
 20
330.128198
 42
0.007535
  0
VERTEX
  8
0
 10
736.863483
 20
329.055883
 42
0.010703
  0
VERTEX
  8
0
 10
731.622298
 20
327.910608
 42
-0.038828
  0
VERTEX
  8
0
 10
672.083826
 20
318.368184
 42
-0.027868
  0
VERTEX
  8
0
 10
604.701364
 20
316.643934
 42
-0.026362
  0
VERTEX
  8
0
 10
533.198501
 20
322.581502
 42
-0.024806
  0
VERTEX
  8
0
 10
461.228127
 20
336.062192
 42
-0.004408
  0
VERTEX
  8
0
 10
447.819259
 20
339.394505
 42
-0.005919
  0
VERTEX
  8
0
 10
435.734192
 20
342.664255
 42
-0.005763
  0
VERTEX
  8
0
 10
423.480685
 20
346.288841
 42
-0.003855
  0
VERTEX
  8
0
 10
409.541041
 20
350.705511
 42
0.003756
  0
VERTEX
  8
0
 10
400.955115
 20
353.427769
 42
0.029990
  0
VERTEX
  8
0
 10
396.920045
 20
354.413338
 42
0.059461
  0
VERTEX
  8
0
 10
393.983327
 20
354.592162
 42
0.042248
  0
VERTEX
  8
0
 10
390.714750
 20
354.123515
 42
-0.026483
  0
VERTEX
  8
0
 10
386.215064
 20
353.333033
 42
-0.029072
  0
VERTEX
  8
0
 10
381.795431
 20
353.055029
 42
-0.030600
  0
VERTEX
  8
0
 10
377.602188
 20
353.292149
 42
-0.038327
  0
VERTEX
  8
0
 10
373.780887
 20
354.044053
 42
-0.045217
  0
VERTEX
  8
0
 10
371.553799
 20
354.885569
 42
-0.127256
  0
VERTEX
  8
0
 10
370.295242
 20
355.955995
 42
-0.074297
  0
VERTEX
  8
0
 10
369.352986
 20
357.836371
 42
-0.008911
  0
VERTEX
  8
0
 10
367.983667
 20
362.288476
 42
0.015552
  0
VERTEX
  8
0
 10
364.141870
 20
374.213423
 42
0.024999
  0
VERTEX
  8
0
 10
360.054605
 20
384.079420
 42
0.027861
  0
VERTEX
  8
0
 10
355.379877
 20
392.668103
 42
0.027746
  0
VERTEX
  8
0
 10
349.773315
 20
400.696134
 42
0.038699
  0
VERTEX
  8
0
 10
345.482295
 20
405.372341
 42
0.024420
  0
VERTEX
  8
0
 10
339.823679
 20
410.159235
 42
0.020652
  0
VERTEX
  8
0
 10
334.249125
 20
414.072078
 42
0.143653
  0
VERTEX
  8
0
 10
331.086047
 20
415.000000
 42
-0.058038
  0
VERTEX
  8
0
 10
330.355314
 20
415.085107
 42
-0.038948
  0
VERTEX
  8
0
 10
329.553573
 20
415.341703
 42
-0.039071
  0
VERTEX
  8
0
 10
328.805359
 20
415.717739
 42
-0.060471
  0
VERTEX
  8
0
 10
328.236755
 20
416.163245
 42
0.174945
  0
VERTEX
  8
0
 10
326.204467
 20
417.117560
 42
0.010687
  0
VERTEX
  8
0
 10
319.411280
 20
417.602434
 42
0.015144
  0
VERTEX
  8
0
 10
312.686086
 20
417.734239
 42
0.076891
  0
SEQEND
  0
POLYLINE
  8
0
 66
1
 70
1
  0
VERTEX
  8
0
 10
333.804999
 20
399.876892
 42
-0.020870
  0
VERTEX
  8
0
 10
337.074572
 20
398.033196
 42
-0.030518
  0
VERTEX
  8
0
 10
339.770775
 20
396.123782
 42
-0.032414
  0
VERTEX
  8
0
 10
342.091042
 20
393.996557
 42
-0.028583
  0
VERTEX
  8
0
 10
344.223141
 20
391.500000
 42
-0.031787
  0
VERTEX
  8
0
 10
347.504911
 20
386.557189
 42
-0.008800
  0
VERTEX
  8
0
 10
352.013455
 20
378.400889
 42
-0.004801
  0
VERTEX
  8
0
 10
356.391350
 20
369.945644
 42
-0.117578
  0
VERTEX
  8
0
 10
357.000000
 20
367.393149
 42
-0.343527
  0
VERTEX
  8
0
 10
356.614477
 20
366.898244
 42
-0.016869
  0
VERTEX
  8
0
 10
354.453546
 20
366.429802
 42
-0.019564
  0
VERTEX
  8
0
 10
351.486133
 20
366.009756
 42
-0.008976
  0
VERTEX
  8
0
 10
347.591674
 20
365.683636
 42
0.017416
  0
VERTEX
  8
0
 10
338.561670
 20
364.773766
 42
0.026417
  0
VERTEX
  8
0
 10
330.810525
 20
363.298555
 42
0.030682
  0
VERTEX
  8
0
 10
324.323294
 20
361.275886
 42
0.049479
  0
VERTEX
  8
0
 10
319.148504
 20
358.696150
 42
0.000332
  0
VERTEX
  8
0
 10
316.777383
 20
357.202945
 42
0.000172
  0
VERTEX
  8
0
 10
313.817322
 20
355.334681
 42
0.000171
  0
VERTEX
  8
0
 10
310.777199
 20
353.412963
 42
0.000260
  0
VERTEX
  8
0
 10
308.137334
 20
351.741062
 42
-0.023164
  0
VERTEX
  8
0
 10
305.259865
 20
350.098245
 42
-0.020362
  0
VERTEX
  8
0
 10
302.118029
 20
348.650760
 42
-0.020713
  0
VERTEX
  8
0
 10
298.936572
 20
347.490919
 42
-0.027124
  0
VERTEX
  8
0
 10
295.941903
 20
346.713691
 42
0.000000
  0
VERTEX
  8
0
 10
289.674854
 20
345.445257
 42
0.000000
  0
VERTEX
  8
0
 10
285.787872
 20
334.972628
 42
0.019490
  0
VERTEX
  8
0
 10
278.595216
 20
313.005188
 42
0.013563
  0
VERTEX
  8
0
 10
272.129162
 20
287.716322
 42
0.013244
  0
VERTEX
  8
0
 10
267.388752
 20
263.930057
 42
0.042323
  0
VERTEX
  8
0
 10
266.005895
 20
247.820898
 42
0.000000
  0
VERTEX
  8
0
 10
266.000000
 20
242.141796
 42
0.000000
  0
VERTEX
  8
0
 10
260.750000
 20
241.112378
 42
-0.008222
  0
VERTEX
  8
0
 10
248.296410
 20
238.882472
 42
-0.014393
  0
VERTEX
  8
0
 10
237.912770
 20
237.504312
 42
-0.015198
  0
VERTEX
  8
0
 10
227.866455
 20
236.771883
 42
-0.010591
  0
VERTEX
  8
0
 10
216.500000
 20
236.530848
 42
-0.005930
  0
VERTEX
  8
0
 10
209.118611
 20
236.618224
 42
-0.008391
  0
VERTEX
  8
0
 10
202.552487
 20
236.884154
 42
-0.009031
  0
VERTEX
  8
0
 10
197.161590
 20
237.290980
 42
-0.032493
  0
VERTEX
  8
0
 10
193.757836
 20
237.834507
 42
0.000000
  0
VERTEX
  8
0
 10
188.015671
 20
239.138542
 42
0.000000
  0
VERTEX
  8
0
 10
181.277181
 20
233.421871
 42
-0.011620
  0
VERTEX
  8
0
 10
178.439339
 20
231.125593
 42
-0.011463
  0
VERTEX
  8
0
 10
175.485187
 20
228.952884
 42
-0.011397
  0
VERTEX
  8
0
 10
172.813094
 20
227.169866
 42
-0.042488
  0
VERTEX
  8
0
 10
171.022314
 20
226.235963
 42
-0.078054
  0
VERTEX
  8
0
 10
167.418806
 20
225.354176
 42
-0.036890
  0
VERTEX
  8
0
 10
162.620143
 20
225.304041
 42
-0.034479
  0
VERTEX
  8
0
 10
157.336430
 20
226.006810
 42
-0.034520
  0
VERTEX
  8
0
 10
152.201537
 20
227.428893
 42
0.024638
  0
VERTEX
  8
0
 10
149.645911
 20
228.191300
 42
0.058340
  0
VERTEX
  8
0
 10
147.678159
 20
228.436771
 42
0.049578
  0
VERTEX
  8
0
 10
145.521596
 20
228.238855
 42
0.013866
  0
VERTEX
  8
0
 10
142.211138
 20
227.504401
 42
-0.035588
  0
VERTEX
  8
0
 10
129.448342
 20
225.249060
 42
-0.011755
  0
VERTEX
  8
0
 10
110.461209
 20
223.722039
 42
-0.012090
  0
VERTEX
  8
0
 10
90.746089
 20
223.079814
 42
-0.023454
  0
VERTEX
  8
0
 10
75.000000
 20
223.686576
 42
0.000000
  0
VERTEX
  8
0
 10
65.500000
 20
224.500000
 42
0.000000
  0
VERTEX
  8
0
 10
79.000000
 20
234.623580
 42
-0.024183
  0
VERTEX
  8
0
 10
113.913729
 20
258.257844
 42
-0.020185
  0
VERTEX
  8
0
 10
153.080131
 20
279.978822
 42
-0.020720
  0
VERTEX
  8
0
 10
192.225547
 20
297.674388
 42
-0.033535
  0
VERTEX
  8
0
 10
226.941937
 20
309.028039
 42
0.008014
  0
VERTEX
  8
0
 10
231.442599
 20
310.249721
 42
0.011386
  0
VERTEX
  8
0
 10
235.398569
 20
311.490183
 42
0.007582
  0
VERTEX
  8
0
 10
238.639397
 20
312.643120
 42
0.141848
  0
VERTEX
  8
0
 10
239.500000
 20
313.282233
 42
-0.000574
  0
VERTEX
  8
0
 10
240.122059
 20
314.098208
 42
-0.000064
  0
VERTEX
  8
0
 10
241.544458
 20
315.959093
 42
-0.000078
  0
VERTEX
  8
0
 10
243.237996
 20
318.173401
 42
-0.000063
  0
VERTEX
  8
0
 10
245.055603
 20
320.548547
 42
0.014239
  0
VERTEX
  8
0
 10
249.491862
 20
326.699321
 42
0.010877
  0
VERTEX
  8
0
 10
254.002219
 20
333.665066
 42
0.007097
  0
VERTEX
  8
0
 10
259.721569
 20
343.235172
 42
0.001938
  0
VERTEX
  8
0
 10
268.473823
 20
358.500000
 42
-0.008119
  0
VERTEX
  8
0
 10
277.991727
 20
374.634642
 42
-0.030948
  0
VERTEX
  8
0
 10
284.694400
 20
384.202691
 42
-0.043028
  0
VERTEX
  8
0
 10
291.320919
 20
391.189200
 42
-0.028731
  0
VERTEX
  8
0
 10
299.979091
 20
398.025967
 42
-0.068458
  0
VERTEX
  8
0
 10
307.816539
 20
402.049006
 42
-0.070836
  0
VERTEX
  8
0
 10
316.357950
 20
403.745789
 42
-0.069522
  0
VERTEX
  8
0
 10
325.171890
 20
403.002285
 42
-0.062265
  0
SEQEND
  0
POLYLINE
  8
0
 66
1
 70
1
  0
VERTEX
  8
0
 10
359.306093
 20
353.036109
 42
-0.043974
  0
VERTEX
  8
0
 10
361.238273
 20
351.012833
 42
-0.074385
  0
VERTEX
  8
0
 10
362.412697
 20
348.989826
 42
-0.044496
  0
VERTEX
  8
0
 10
363.281702
 20
346.062279
 42
-0.007409
  0
VERTEX
  8
0
 10
364.361469
 20
340.286109
 42
-0.018721
  0
VERTEX
  8
0
 10
368.234590
 20
311.236617
 42
-0.014825
  0
VERTEX
  8
0
 10
370.307188
 20
279.620440
 42
-0.014076
  0
VERTEX
  8
0
 10
370.563738
 20
246.145047
 42
-0.012660
  0
VERTEX
  8
0
 10
368.975706
 20
211.500000
 42
-0.017443
  0
VERTEX
  8
0
 10
366.250229
 20
185.885868
 42
-0.026730
  0
VERTEX
  8
0
 10
361.940644
 20
163.989750
 42
-0.030977
  0
VERTEX
  8
0
 10
356.035368
 20
145.536639
 42
-0.046217
  0
VERTEX
  8
0
 10
348.457736
 20
130.395428
 42
-0.071526
  0
VERTEX
  8
0
 10
337.431722
 20
117.283508
 42
-0.117069
  0
VERTEX
  8
0
 10
324.724994
 20
110.412342
 42
-0.148087
  0
VERTEX
  8
0
 10
312.398208
 20
110.799526
 42
-0.143068
  0
VERTEX
  8
0
 10
302.161384
 20
117.948804
 42
-0.077232
  0
VERTEX
  8
0
 10
293.922226
 20
132.246214
 42
-0.040848
  0
VERTEX
  8
0
 10
288.114822
 20
151.923945
 42
-0.028019
  0
VERTEX
  8
0
 10
283.973611
 20
179.454185
 42
-0.009730
  0
VERTEX
  8
0
 10
281.011999
 20
219.500000
 42
0.003835
  0
VERTEX
  8
0
 10
280.569451
 20
226.625098
 42
0.004986
  0
VERTEX
  8
0
 10
280.048996
 20
233.143585
 42
0.003771
  0
VERTEX
  8
0
 10
279.518038
 20
238.589496
 42
0.044718
  0
VERTEX
  8
0
 10
279.109114
 20
240.669653
 42
-0.040851
  0
VERTEX
  8
0
 10
278.003393
 20
246.073585
 42
-0.019467
  0
VERTEX
  8
0
 10
277.427128
 20
253.151053
 42
-0.018837
  0
VERTEX
  8
0
 10
277.391602
 20
260.799466
 42
-0.021934
  0
VERTEX
  8
0
 10
277.949952
 20
268.047319
 42
-0.032501
  0
VERTEX
  8
0
 10
281.518189
 20
287.038557
 42
-0.026837
  0
VERTEX
  8
0
 10
287.692522
 20
306.694277
 42
-0.025508
  0
VERTEX
  8
0
 10
294.965111
 20
323.471519
 42
-0.120009
  0
VERTEX
  8
0
 10
301.673365
 20
331.453437
 42
0.023288
  0
VERTEX
  8
0
 10
303.659125
 20
333.057847
 42
0.005912
  0
VERTEX
  8
0
 10
306.725926
 20
335.846687
 42
0.006015
  0
VERTEX
  8
0
 10
310.156475
 20
339.119158
 42
0.006054
  0
VERTEX
  8
0
 10
313.500000
 20
342.466423
 42
-0.024572
  0
VERTEX
  8
0
 10
319.845258
 20
348.364962
 42
-0.079558
  0
VERTEX
  8
0
 10
324.760449
 20
351.318047
 42
-0.067716
  0
VERTEX
  8
0
 10
330.770358
 20
352.833477
 42
-0.014556
  0
VERTEX
  8
0
 10
341.500000
 20
353.722525
 42
0.007008
  0
VERTEX
  8
0
 10
345.439548
 20
353.989153
 42
0.009382
  0
VERTEX
  8
0
 10
349.003125
 20
354.347987
 42
0.006960
  0
VERTEX
  8
0
 10
351.958133
 20
354.743453
 42
0.091168
  0
VERTEX
  8
0
 10
353.000000
 20
355.098912
 42
-0.052176
  0
VERTEX
  8
0
 10
354.517535
 20
355.751937
 42
-0.155806
  0
VERTEX
  8
0
 10
355.634505
 20
355.744101
 42
-0.090334
  0
VERTEX
  8
0
 10
356.892764
 20
355.062711
 42
-0.011009
  0
SEQEND
  0
ENDSEC
  0
EOF
