  0
SECTION
  2
HEADER
  9
$ACADVER
  1
AC1006
  9
$EXTMIN
 10
0.000000
 20
0.000000
 30
0.000000
  9
$EXTMAX
 10
1024.000000
 20
1024.000000
 30
0.000000
  0
ENDSEC
  0
SECTION
  2
ENTITIES
  0
POLYLINE
  8
0
 66
1
 70
1
  0
VERTEX
  8
0
 10
0.000000
 20
1023.031385
 42
0.184534
  0
VERTEX
  8
0
 10
0.122486
 20
1022.710807
 42
0.147206
  0
VERTEX
  8
0
 10
0.440625
 20
1022.516384
 42
0.100118
  0
VERTEX
  8
0
 10
0.925634
 20
1022.488865
 42
0.055937
  0
VERTEX
  8
0
 10
1.500000
 20
1022.638374
 42
0.026838
  0
VERTEX
  8
0
 10
2.676766
 20
1023.163986
 42
0.281355
  0
VERTEX
  8
0
 10
2.940503
 20
1023.595573
 42
0.374586
  0
VERTEX
  8
0
 10
2.657343
 20
1023.920502
 42
0.034305
  0
VERTEX
  8
0
 10
1.500000
 20
1024.000000
 42
0.062722
  0
VERTEX
  8
0
 10
0.926468
 20
1023.927770
 42
0.080880
  0
VERTEX
  8
0
 10
0.440625
 20
1023.715469
 42
0.098158
  0
VERTEX
  8
0
 10
0.115494
 20
1023.400789
 42
0.152681
  0
SEQEND
  0
POLYLINE
  8
0
 66
1
 70
1
  0
VERTEX
  8
0
 10
432.654988
 20
817.171259
 42
0.080975
  0
VERTEX
  8
0
 10
431.943699
 20
816.071177
 42
0.043434
  0
VERTEX
  8
0
 10
431.425193
 20
814.535154
 42
0.036417
  0
VERTEX
  8
0
 10
431.104924
 20
812.622829
 42
0.023288
  0
VERTEX
  8
0
 10
431.000000
 20
810.371259
 42
-0.036091
  0
VERTEX
  8
0
 10
430.721882
 20
806.523225
 42
-0.146483
  0
VERTEX
  8
0
 10
429.742364
 20
804.416401
 42
-0.164157
  0
VERTEX
  8
0
 10
427.840413
 20
803.329211
 42
-0.048507
  0
VERTEX
  8
0
 10
424.454988
 20
803.000000
 42
0.064068
  0
VERTEX
  8
0
 10
421.300447
 20
802.594124
 42
0.109368
  0
VERTEX
  8
0
 10
418.947161
 20
801.387484
 42
0.123807
  0
VERTEX
  8
0
 10
417.508621
 20
799.425935
 42
0.096905
  0
VERTEX
  8
0
 10
417.000000
 20
796.826247
 42
0.112357
  0
VERTEX
  8
0
 10
417.543283
 20
794.439100
 42
0.118302
  0
VERTEX
  8
0
 10
419.060971
 20
792.574012
 42
0.100558
  0
VERTEX
  8
0
 10
421.486582
 20
791.396968
 42
0.062918
  0
VERTEX
  8
0
 10
424.628741
 20
791.000000
 42
-0.050295
  0
VERTEX
  8
0
 10
427.872124
 20
790.672923
 42
-0.159986
  0
VERTEX
  8
0
 10
429.740551
 20
789.607365
 42
-0.145582
  0
VERTEX
  8
0
 10
430.715882
 20
787.567943
 42
-0.039259
  0
VERTEX
  8
0
 10
431.000000
 20
783.954988
 42
0.055127
  0
VERTEX
  8
0
 10
431.383765
 20
780.484851
 42
0.110370
  0
VERTEX
  8
0
 10
432.553310
 20
778.001467
 42
0.131735
  0
VERTEX
  8
0
 10
434.502416
 20
776.523293
 42
0.097024
  0
VERTEX
  8
0
 10
437.173753
 20
776.000000
 42
0.112583
  0
VERTEX
  8
0
 10
439.628138
 20
776.559737
 42
0.125776
  0
VERTEX
  8
0
 10
441.482383
 20
778.117369
 42
0.101507
  0
VERTEX
  8
0
 10
442.623442
 20
780.675564
 42
0.054362
  0
VERTEX
  8
0
 10
443.000000
 20
784.128741
 42
-0.041726
  0
VERTEX
  8
0
 10
443.294266
 20
787.648742
 42
-0.149672
  0
VERTEX
  8
0
 10
444.292290
 20
789.643294
 42
-0.156681
  0
VERTEX
  8
0
 10
446.204148
 20
790.684960
 42
-0.047045
  0
VERTEX
  8
0
 10
449.545012
 20
791.000000
 42
0.064068
  0
VERTEX
  8
0
 10
452.699553
 20
791.405876
 42
0.109368
  0
VERTEX
  8
0
 10
455.052839
 20
792.612516
 42
0.123807
  0
VERTEX
  8
0
 10
456.491379
 20
794.574065
 42
0.096905
  0
VERTEX
  8
0
 10
457.000000
 20
797.173753
 42
0.112357
  0
VERTEX
  8
0
 10
456.456717
 20
799.560900
 42
0.118302
  0
VERTEX
  8
0
 10
454.939029
 20
801.425988
 42
0.100558
  0
VERTEX
  8
0
 10
452.513418
 20
802.603032
 42
0.062918
  0
VERTEX
  8
0
 10
449.371259
 20
803.000000
 42
-0.051901
  0
VERTEX
  8
0
 10
446.086847
 20
803.341852
 42
-0.167059
  0
VERTEX
  8
0
 10
444.226898
 20
804.452925
 42
-0.142169
  0
VERTEX
  8
0
 10
443.269077
 20
806.604638
 42
-0.034104
  0
VERTEX
  8
0
 10
443.000000
 20
810.545012
 42
0.019921
  0
VERTEX
  8
0
 10
442.900562
 20
813.039874
 42
0.045793
  0
VERTEX
  8
0
 10
442.580723
 20
814.889864
 42
0.061302
  0
VERTEX
  8
0
 10
442.016770
 20
816.280909
 42
0.082087
  0
VERTEX
  8
0
 10
441.171259
 20
817.345012
 42
0.098833
  0
VERTEX
  8
0
 10
439.160895
 20
818.546094
 42
0.090726
  0
VERTEX
  8
0
 10
436.780187
 20
818.931652
 42
0.093083
  0
VERTEX
  8
0
 10
434.469372
 20
818.448699
 42
0.111349
  0
SEQEND
  0
POLYLINE
  8
0
 66
1
 70
1
  0
VERTEX
  8
0
 10
584.556704
 20
816.777494
 42
0.069138
  0
VERTEX
  8
0
 10
583.956930
 20
815.605352
 42
0.027469
  0
VERTEX
  8
0
 10
583.456402
 20
813.864541
 42
0.026506
  0
VERTEX
  8
0
 10
583.114334
 20
811.896003
 42
0.029771
  0
VERTEX
  8
0
 10
583.000000
 20
809.977494
 42
-0.041475
  0
VERTEX
  8
0
 10
582.697709
 20
806.339525
 42
-0.156561
  0
VERTEX
  8
0
 10
581.662394
 20
804.333305
 42
-0.156076
  0
VERTEX
  8
0
 10
579.650624
 20
803.300908
 42
-0.041143
  0
VERTEX
  8
0
 10
576.000000
 20
803.000000
 42
0.038237
  0
VERTEX
  8
0
 10
572.531276
 20
802.734345
 42
0.129990
  0
VERTEX
  8
0
 10
570.470438
 20
801.835200
 42
0.159667
  0
VERTEX
  8
0
 10
569.364337
 20
800.162311
 42
0.066985
  0
VERTEX
  8
0
 10
569.000000
 20
797.454988
 42
0.093905
  0
VERTEX
  8
0
 10
569.526763
 20
794.674939
 42
0.134175
  0
VERTEX
  8
0
 10
571.020858
 20
792.673549
 42
0.105925
  0
VERTEX
  8
0
 10
573.629690
 20
791.407858
 42
0.044452
  0
VERTEX
  8
0
 10
577.507242
 20
790.814706
 42
0.000000
  0
VERTEX
  8
0
 10
582.500000
 20
790.500000
 42
0.000000
  0
VERTEX
  8
0
 10
582.810518
 20
785.011869
 42
0.038909
  0
VERTEX
  8
0
 10
583.364794
 20
780.909510
 42
0.097746
  0
VERTEX
  8
0
 10
584.553996
 20
778.150400
 42
0.134394
  0
VERTEX
  8
0
 10
586.425362
 20
776.568444
 42
0.109079
  0
VERTEX
  8
0
 10
589.000000
 20
776.000000
 42
0.106536
  0
VERTEX
  8
0
 10
591.553859
 20
776.550403
 42
0.128297
  0
VERTEX
  8
0
 10
593.457857
 20
778.089280
 42
0.104830
  0
VERTEX
  8
0
 10
594.618048
 20
780.639460
 42
0.054569
  0
VERTEX
  8
0
 10
595.000000
 20
784.128741
 42
-0.039585
  0
VERTEX
  8
0
 10
595.267758
 20
787.505515
 42
-0.129403
  0
VERTEX
  8
0
 10
596.165019
 20
789.538538
 42
-0.157705
  0
VERTEX
  8
0
 10
597.823006
 20
790.636582
 42
-0.068136
  0
VERTEX
  8
0
 10
600.477494
 20
791.000000
 42
0.072020
  0
VERTEX
  8
0
 10
603.439050
 20
791.428808
 42
0.094696
  0
VERTEX
  8
0
 10
605.860578
 20
792.678464
 42
0.107670
  0
VERTEX
  8
0
 10
607.437275
 20
794.584795
 42
0.119698
  0
VERTEX
  8
0
 10
608.000000
 20
796.901716
 42
0.100021
  0
VERTEX
  8
0
 10
607.520751
 20
799.273503
 42
0.102948
  0
VERTEX
  8
0
 10
606.160249
 20
801.245468
 42
0.100417
  0
VERTEX
  8
0
 10
604.093756
 20
802.545461
 42
0.090588
  0
VERTEX
  8
0
 10
601.605518
 20
803.000000
 42
-0.054128
  0
VERTEX
  8
0
 10
598.302939
 20
803.358575
 42
-0.157388
  0
VERTEX
  8
0
 10
596.344488
 20
804.502166
 42
-0.142187
  0
VERTEX
  8
0
 10
595.307649
 20
806.661899
 42
-0.041299
  0
VERTEX
  8
0
 10
595.000000
 20
810.380196
 42
0.018793
  0
VERTEX
  8
0
 10
594.902516
 20
812.972897
 42
0.045433
  0
VERTEX
  8
0
 10
594.585977
 20
814.862577
 42
0.061979
  0
VERTEX
  8
0
 10
594.023212
 20
816.269222
 42
0.082904
  0
VERTEX
  8
0
 10
593.171259
 20
817.345012
 42
0.100390
  0
VERTEX
  8
0
 10
591.038458
 20
818.610333
 42
0.100620
  0
VERTEX
  8
0
 10
588.582987
 20
818.943300
 42
0.105037
  0
VERTEX
  8
0
 10
586.276598
 20
818.292330
 42
0.119409
  0
SEQEND
  0
POLYLINE
  8
0
 66
1
 70
1
  0
VERTEX
  8
0
 10
273.249786
 20
815.750000
 42
0.038609
  0
VERTEX
  8
0
 10
272.575074
 20
814.753479
 42
0.000489
  0
VERTEX
  8
0
 10
268.798117
 20
808.110937
 42
0.001429
  0
VERTEX
  8
0
 10
264.455651
 20
800.405219
 42
0.000936
  0
VERTEX
  8
0
 10
259.492549
 20
791.500000
 42
-0.000838
  0
VERTEX
  8
0
 10
254.503465
 20
782.544040
 42
-0.001225
  0
VERTEX
  8
0
 10
250.078263
 20
774.676826
 42
-0.000585
  0
VERTEX
  8
0
 10
246.288173
 20
767.995428
 42
-0.022066
  0
VERTEX
  8
0
 10
245.365208
 20
766.527494
 42
0.184514
  0
VERTEX
  8
0
 10
244.433312
 20
762.727551
 42
0.083874
  0
VERTEX
  8
0
 10
245.928626
 20
757.749141
 42
0.019984
  0
VERTEX
  8
0
 10
250.947131
 20
748.543272
 42
0.000886
  0
VERTEX
  8
0
 10
269.662446
 20
717.380784
 42
-0.004458
  0
VERTEX
  8
0
 10
274.817605
 20
708.656420
 42
-0.006815
  0
VERTEX
  8
0
 10
279.116620
 20
700.991496
 42
-0.003496
  0
VERTEX
  8
0
 10
282.588515
 20
694.490611
 42
-0.121476
  0
VERTEX
  8
0
 10
283.000000
 20
692.821914
 42
-0.075488
  0
VERTEX
  8
0
 10
282.677647
 20
690.698960
 42
-0.083392
  0
VERTEX
  8
0
 10
281.741706
 20
688.846261
 42
-0.089296
  0
VERTEX
  8
0
 10
280.317535
 20
687.496723
 42
-0.104189
  0
VERTEX
  8
0
 10
278.584755
 20
686.819154
 42
-0.240145
  0
VERTEX
  8
0
 10
277.249057
 20
687.241489
 42
-0.036173
  0
VERTEX
  8
0
 10
275.337363
 20
689.417297
 42
-0.021876
  0
VERTEX
  8
0
 10
272.633468
 20
693.329035
 42
-0.004455
  0
VERTEX
  8
0
 10
268.215604
 20
700.500000
 42
-0.002250
  0
VERTEX
  8
0
 10
254.197993
 20
723.951553
 42
-0.003432
  0
VERTEX
  8
0
 10
242.264217
 20
744.442040
 42
-0.003574
  0
VERTEX
  8
0
 10
232.880402
 20
761.086170
 42
-0.016650
  0
VERTEX
  8
0
 10
227.861886
 20
770.894661
 42
0.010521
  0
VERTEX
  8
0
 10
224.011558
 20
778.653020
 42
0.045899
  0
VERTEX
  8
0
 10
221.233144
 20
782.955061
 42
0.085886
  0
VERTEX
  8
0
 10
218.730216
 20
785.214294
 42
0.141666
  0
VERTEX
  8
0
 10
216.012777
 20
786.000000
 42
0.151722
  0
VERTEX
  8
0
 10
213.294889
 20
785.155841
 42
0.065899
  0
VERTEX
  8
0
 10
210.455571
 20
782.594867
 42
0.031971
  0
VERTEX
  8
0
 10
206.725653
 20
777.599480
 42
0.005618
  0
VERTEX
  8
0
 10
200.434440
 20
767.702013
 42
-0.007375
  0
VERTEX
  8
0
 10
196.796936
 20
762.023613
 42
-0.004696
  0
VERTEX
  8
0
 10
192.405652
 20
755.519718
 42
-0.004717
  0
VERTEX
  8
0
 10
187.977024
 20
749.219575
 42
-0.008733
  0
VERTEX
  8
0
 10
184.244377
 20
744.202013
 42
0.002396
  0
VERTEX
  8
0
 10
180.834770
 20
739.737968
 42
0.002292
  0
VERTEX
  8
0
 10
177.416839
 20
735.174966
 42
0.002270
  0
VERTEX
  8
0
 10
174.436593
 20
731.119705
 42
0.008218
  0
VERTEX
  8
0
 10
172.594698
 20
728.500000
 42
-0.018932
  0
VERTEX
  8
0
 10
170.929928
 20
726.236864
 42
-0.009926
  0
VERTEX
  8
0
 10
168.699428
 20
723.544958
 42
-0.009859
  0
VERTEX
  8
0
 10
166.300717
 20
720.872692
 42
-0.014911
  0
VERTEX
  8
0
 10
164.100322
 20
718.653049
 42
0.030889
  0
VERTEX
  8
0
 10
160.471800
 20
714.751104
 42
0.129521
  0
VERTEX
  8
0
 10
159.148597
 20
711.863928
 42
0.190273
  0
VERTEX
  8
0
 10
159.670089
 20
709.342159
 42
0.081875
  0
VERTEX
  8
0
 10
162.034482
 20
706.770117
 42
0.000000
  0
VERTEX
  8
0
 10
165.068963
 20
704.395278
 42
0.000000
  0
VERTEX
  8
0
 10
162.181125
 20
700.408734
 42
-0.019691
  0
VERTEX
  8
0
 10
160.880726
 20
698.754773
 42
-0.015890
  0
VERTEX
  8
0
 10
159.360872
 20
697.081691
 42
-0.016178
  0
VERTEX
  8
0
 10
157.857088
 20
695.625793
 42
-0.039227
  0
VERTEX
  8
0
 10
156.635526
 20
694.680757
 42
0.029235
  0
VERTEX
  8
0
 10
155.178908
 20
693.599650
 42
0.005366
  0
VERTEX
  8
0
 10
152.632060
 20
691.420824
 42
0.005750
  0
VERTEX
  8
0
 10
149.705210
 20
688.802011
 42
0.005201
  0
VERTEX
  8
0
 10
146.738882
 20
686.028530
 42
0.012685
  0
VERTEX
  8
0
 10
143.076925
 20
682.350530
 42
0.028791
  0
VERTEX
  8
0
 10
140.549124
 20
679.351108
 42
0.035191
  0
VERTEX
  8
0
 10
138.707664
 20
676.493033
 42
0.031813
  0
VERTEX
  8
0
 10
137.214834
 20
673.308868
 42
0.000000
  0
VERTEX
  8
0
 10
134.929668
 20
667.500000
 42
0.000000
  0
VERTEX
  8
0
 10
135.364787
 20
556.500000
 42
0.000649
  0
VERTEX
  8
0
 10
135.731447
 20
486.236091
 42
0.004677
  0
VERTEX
  8
0
 10
136.268951
 20
452.369741
 42
0.004223
  0
VERTEX
  8
0
 10
136.979422
 20
431.275703
 42
0.161109
  0
VERTEX
  8
0
 10
138.634438
 20
426.899829
 42
-0.168249
  0
VERTEX
  8
0
 10
139.246437
 20
425.211102
 42
-0.000347
  0
VERTEX
  8
0
 10
139.633397
 20
396.782503
 42
-0.001728
  0
VERTEX
  8
0
 10
139.994065
 20
358.663516
 42
-0.000452
  0
VERTEX
  8
0
 10
140.306060
 20
297.500000
 42
0.000392
  0
VERTEX
  8
0
 10
140.764540
 20
205.437182
 42
0.008395
  0
VERTEX
  8
0
 10
141.378073
 20
178.238222
 42
0.029751
  0
VERTEX
  8
0
 10
142.801782
 20
163.879182
 42
0.071928
  0
VERTEX
  8
0
 10
145.965781
 20
153.719961
 42
0.026269
  0
VERTEX
  8
0
 10
147.149622
 20
151.542899
 42
0.013265
  0
VERTEX
  8
0
 10
148.854480
 20
148.924247
 42
0.013136
  0
VERTEX
  8
0
 10
150.763334
 20
146.305694
 42
0.019035
  0
VERTEX
  8
0
 10
152.594138
 20
144.106520
 42
-0.015431
  0
VERTEX
  8
0
 10
154.207817
 20
142.196320
 42
-0.024621
  0
VERTEX
  8
0
 10
155.451782
 20
140.458844
 42
-0.021596
  0
VERTEX
  8
0
 10
156.288779
 20
139.026847
 42
-0.314944
  0
VERTEX
  8
0
 10
156.219892
 20
138.476233
 42
0.050150
  0
VERTEX
  8
0
 10
156.032426
 20
138.221516
 42
0.533325
  0
VERTEX
  8
0
 10
156.078656
 20
138.124741
 42
0.150979
  0
VERTEX
  8
0
 10
156.298607
 20
138.158985
 42
0.017013
  0
VERTEX
  8
0
 10
156.750000
 20
138.398692
 42
-0.069688
  0
VERTEX
  8
0
 10
157.228325
 20
138.591428
 42
-0.139046
  0
VERTEX
  8
0
 10
157.632812
 20
138.578305
 42
-0.183333
  0
VERTEX
  8
0
 10
157.899154
 20
138.366691
 42
-0.135003
  0
VERTEX
  8
0
 10
158.000000
 20
138.000000
 42
0.101261
  0
VERTEX
  8
0
 10
158.077418
 20
137.621649
 42
0.177706
  0
VERTEX
  8
0
 10
158.293750
 20
137.391936
 42
0.167455
  0
VERTEX
  8
0
 10
158.618194
 20
137.348919
 42
0.088621
  0
VERTEX
  8
0
 10
159.000000
 20
137.500000
 42
-0.082592
  0
VERTEX
  8
0
 10
159.382100
 20
137.656512
 42
-0.161196
  0
VERTEX
  8
0
 10
159.706250
 20
137.625400
 42
-0.182303
  0
VERTEX
  8
0
 10
159.921712
 20
137.413961
 42
-0.108972
  0
VERTEX
  8
0
 10
160.000000
 20
137.059017
 42
0.071644
  0
VERTEX
  8
0
 10
160.056093
 20
136.669553
 42
0.109125
  0
VERTEX
  8
0
 10
160.220313
 20
136.371419
 42
0.135947
  0
VERTEX
  8
0
 10
160.464714
 20
136.211402
 42
0.145196
  0
VERTEX
  8
0
 10
160.750000
 20
136.205388
 42
-0.152982
  0
VERTEX
  8
0
 10
161.249727
 20
136.187234
 42
-0.008267
  0
VERTEX
  8
0
 10
162.748437
 20
135.629173
 42
-0.012275
  0
VERTEX
  8
0
 10
164.529922
 20
134.881142
 42
-0.008600
  0
VERTEX
  8
0
 10
166.500000
 20
133.955388
 42
0.000000
  0
VERTEX
  8
0
 10
171.500000
 20
131.500000
 42
0.000000
  0
VERTEX
  8
0
 10
248.000000
 20
131.200113
 42
0.000706
  0
VERTEX
  8
0
 10
277.546635
 20
131.126015
 42
0.001109
  0
VERTEX
  8
0
 10
302.936749
 20
131.154517
 42
0.000268
  0
VERTEX
  8
0
 10
325.168564
 20
131.240693
 42
0.044154
  0
VERTEX
  8
0
 10
327.593187
 20
131.466008
 42
0.062953
  0
VERTEX
  8
0
 10
329.450745
 20
132.054184
 42
0.006624
  0
VERTEX
  8
0
 10
333.569127
 20
134.021479
 42
0.008114
  0
VERTEX
  8
0
 10
338.424468
 20
136.519135
 42
0.006423
  0
VERTEX
  8
0
 10
343.593187
 20
139.370982
 42
-0.001701
  0
VERTEX
  8
0
 10
350.199303
 20
143.097733
 42
-0.000565
  0
VERTEX
  8
0
 10
359.905499
 20
148.515513
 42
-0.000563
  0
VERTEX
  8
0
 10
370.673557
 20
154.494186
 42
-0.000640
  0
VERTEX
  8
0
 10
381.000000
 20
160.195202
 42
0.000206
  0
VERTEX
  8
0
 10
398.708025
 20
169.951355
 42
0.001552
  0
VERTEX
  8
0
 10
407.060512
 20
174.591470
 42
0.002058
  0
VERTEX
  8
0
 10
414.478649
 20
178.782896
 42
0.000521
  0
VERTEX
  8
0
 10
426.500000
 20
185.657287
 42
0.003214
  0
VERTEX
  8
0
 10
441.246310
 20
194.236722
 42
0.016177
  0
VERTEX
  8
0
 10
449.297498
 20
199.348676
 42
0.028063
  0
VERTEX
  8
0
 10
454.689261
 20
203.483128
 42
0.032061
  0
VERTEX
  8
0
 10
459.334620
 20
208.027281
 42
0.112356
  0
VERTEX
  8
0
 10
465.167953
 20
218.491824
 42
0.189144
  0
VERTEX
  8
0
 10
464.285336
 20
228.370429
 42
0.121982
  0
VERTEX
  8
0
 10
455.969561
 20
238.128934
 42
0.036502
  0
VERTEX
  8
0
 10
439.177758
 20
248.408282
 42
-0.013633
  0
VERTEX
  8
0
 10
423.632276
 20
256.973788
 42
-0.041079
  0
VERTEX
  8
0
 10
413.739235
 20
263.932241
 42
-0.059397
  0
VERTEX
  8
0
 10
407.307450
 20
270.739472
 42
-0.068959
  0
VERTEX
  8
0
 10
403.033210
 20
278.550580
 42
-0.038477
  0
VERTEX
  8
0
 10
401.256798
 20
284.589868
 42
-0.061025
  0
VERTEX
  8
0
 10
400.787510
 20
289.954261
 42
-0.063283
  0
VERTEX
  8
0
 10
401.628647
 20
295.132298
 42
-0.045083
  0
VERTEX
  8
0
 10
403.797320
 20
300.600986
 42
-0.022030
  0
VERTEX
  8
0
 10
406.799381
 20
305.946661
 42
-0.039413
  0
VERTEX
  8
0
 10
409.784388
 20
310.001940
 42
-0.038805
  0
VERTEX
  8
0
 10
413.401559
 20
313.579620
 42
-0.020641
  0
VERTEX
  8
0
 10
418.375757
 20
317.448594
 42
-0.035583
  0
VERTEX
  8
0
 10
428.970102
 20
323.924364
 42
-0.025832
  0
VERTEX
  8
0
 10
441.560958
 20
329.635810
 42
-0.013507
  0
VERTEX
  8
0
 10
460.909588
 20
336.637122
 42
-0.002251
  0
VERTEX
  8
0
 10
498.500000
 20
348.914144
 42
0.008286
  0
VERTEX
  8
0
 10
511.413377
 20
353.304842
 42
0.024352
  0
VERTEX
  8
0
 10
520.084042
 20
356.899569
 42
0.034808
  0
VERTEX
  8
0
 10
526.371831
 20
360.427422
 42
0.047600
  0
VERTEX
  8
0
 10
531.433941
 20
364.487690
 42
0.014752
  0
VERTEX
  8
0
 10
534.134192
 20
367.271562
 42
0.075784
  0
VERTEX
  8
0
 10
535.326051
 20
369.054063
 42
0.086973
  0
VERTEX
  8
0
 10
535.852459
 20
370.997007
 42
0.022772
  0
VERTEX
  8
0
 10
536.000000
 20
374.234852
 42
0.022603
  0
VERTEX
  8
0
 10
535.865929
 20
377.199095
 42
0.060240
  0
VERTEX
  8
0
 10
535.423802
 20
379.265999
 42
0.063038
  0
VERTEX
  8
0
 10
534.515247
 20
381.113826
 42
0.026629
  0
VERTEX
  8
0
 10
532.869773
 20
383.341820
 42
0.067638
  0
VERTEX
  8
0
 10
527.090485
 20
388.686531
 42
0.055033
  0
VERTEX
  8
0
 10
519.688828
 20
392.742816
 42
0.024390
  0
VERTEX
  8
0
 10
507.223324
 20
397.188797
 42
0.002926
  0
VERTEX
  8
0
 10
479.194739
 20
405.491137
 42
-0.001419
  0
VERTEX
  8
0
 10
466.176094
 20
409.304756
 42
-0.001768
  0
VERTEX
  8
0
 10
454.100834
 20
412.925754
 42
-0.001433
  0
VERTEX
  8
0
 10
443.983416
 20
416.030378
 42
-0.013495
  0
VERTEX
  8
0
 10
439.680440
 20
417.492685
 42
-0.016635
  0
VERTEX
  8
0
 10
432.359373
 20
420.483639
 42
-0.011994
  0
VERTEX
  8
0
 10
424.395263
 20
424.282749
 42
-0.012067
  0
VERTEX
  8
0
 10
417.071585
 20
428.219479
 42
-0.028976
  0
VERTEX
  8
0
 10
411.904350
 20
431.570214
 42
-0.085831
  0
VERTEX
  8
0
 10
402.817453
 20
441.010482
 42
-0.108315
  0
VERTEX
  8
0
 10
398.339725
 20
452.244253
 42
-0.120929
  0
VERTEX
  8
0
 10
399.200818
 20
463.378535
 42
-0.126248
  0
VERTEX
  8
0
 10
405.127888
 20
472.645153
 42
-0.058156
  0
VERTEX
  8
0
 10
415.004525
 20
479.913229
 42
-0.038490
  0
VERTEX
  8
0
 10
427.752213
 20
485.934581
 42
-0.022184
  0
VERTEX
  8
0
 10
447.088263
 20
492.341887
 42
-0.004824
  0
VERTEX
  8
0
 10
481.000000
 20
501.580221
 42
0.002236
  0
VERTEX
  8
0
 10
504.790331
 20
507.929148
 42
0.018327
  0
VERTEX
  8
0
 10
515.513351
 20
511.268659
 42
0.040996
  0
VERTEX
  8
0
 10
521.995840
 20
514.167510
 42
0.057528
  0
VERTEX
  8
0
 10
527.160591
 20
517.834294
 42
0.014372
  0
VERTEX
  8
0
 10
529.839031
 20
520.385394
 42
0.063165
  0
VERTEX
  8
0
 10
531.165908
 20
522.113398
 42
0.088044
  0
VERTEX
  8
0
 10
531.795786
 20
523.822805
 42
0.044381
  0
VERTEX
  8
0
 10
532.000000
 20
526.118985
 42
0.043450
  0
VERTEX
  8
0
 10
531.805249
 20
528.355835
 42
0.076824
  0
VERTEX
  8
0
 10
531.211412
 20
530.106438
 42
0.059633
  0
VERTEX
  8
0
 10
530.003304
 20
531.874191
 42
0.017492
  0
VERTEX
  8
0
 10
527.749224
 20
534.276316
 42
0.049606
  0
VERTEX
  8
0
 10
522.973404
 20
538.162645
 42
0.039581
  0
VERTEX
  8
0
 10
517.159216
 20
541.375416
 42
0.026859
  0
VERTEX
  8
0
 10
509.035634
 20
544.544880
 42
0.008312
  0
VERTEX
  8
0
 10
496.500000
 20
548.445438
 42
-0.005849
  0
VERTEX
  8
0
 10
472.203877
 20
555.874286
 42
-0.020033
  0
VERTEX
  8
0
 10
456.685775
 20
561.512379
 42
-0.030869
  0
VERTEX
  8
0
 10
446.044125
 20
566.656487
 42
-0.058246
  0
VERTEX
  8
0
 10
438.339921
 20
572.254321
 42
-0.060952
  0
VERTEX
  8
0
 10
433.003093
 20
578.535019
 42
-0.093687
  0
VERTEX
  8
0
 10
430.260484
 20
585.099570
 42
-0.104292
  0
VERTEX
  8
0
 10
430.253318
 20
591.688346
 42
-0.091882
  0
VERTEX
  8
0
 10
432.870001
 20
598.054219
 42
-0.091014
  0
VERTEX
  8
0
 10
441.037904
 20
606.738392
 42
-0.058973
  0
VERTEX
  8
0
 10
453.060922
 20
613.569518
 42
-0.031355
  0
VERTEX
  8
0
 10
472.683904
 20
620.426839
 42
-0.006068
  0
VERTEX
  8
0
 10
509.000000
 20
630.140723
 42
0.004243
  0
VERTEX
  8
0
 10
534.130930
 20
636.764594
 42
0.021724
  0
VERTEX
  8
0
 10
547.872722
 20
641.161026
 42
0.039124
  0
VERTEX
  8
0
 10
556.019142
 20
644.909869
 42
0.143447
  0
VERTEX
  8
0
 10
559.957004
 20
648.919661
 42
0.083696
  0
VERTEX
  8
0
 10
561.036503
 20
652.129853
 42
0.101214
  0
VERTEX
  8
0
 10
560.895830
 20
655.299559
 42
0.088746
  0
VERTEX
  8
0
 10
559.467932
 20
658.470400
 42
0.050736
  0
VERTEX
  8
0
 10
556.750000
 20
661.687214
 42
0.032917
  0
VERTEX
  8
0
 10
552.902050
 20
664.941930
 42
0.038378
  0
VERTEX
  8
0
 10
548.844916
 20
667.482960
 42
0.030588
  0
VERTEX
  8
0
 10
543.743539
 20
669.771303
 42
0.012175
  0
VERTEX
  8
0
 10
536.500000
 20
672.302375
 42
0.002156
  0
VERTEX
  8
0
 10
530.811871
 20
674.108786
 42
0.004933
  0
VERTEX
  8
0
 10
526.504591
 20
675.409743
 42
0.002835
  0
VERTEX
  8
0
 10
520.969711
 20
676.988080
 42
0.000326
  0
VERTEX
  8
0
 10
508.500000
 20
680.458867
 42
-0.001358
  0
VERTEX
  8
0
 10
503.685613
 20
681.809605
 42
-0.001609
  0
VERTEX
  8
0
 10
499.143750
 20
683.113006
 42
-0.001399
  0
VERTEX
  8
0
 10
495.317331
 20
684.236050
 42
-0.010261
  0
VERTEX
  8
0
 10
493.500000
 20
684.815787
 42
0.008952
  0
VERTEX
  8
0
 10
483.865480
 20
687.917062
 42
0.007236
  0
VERTEX
  8
0
 10
473.419255
 20
690.910101
 42
0.007347
  0
VERTEX
  8
0
 10
463.133197
 20
693.535220
 42
0.010745
  0
VERTEX
  8
0
 10
454.000000
 20
695.517204
 42
-0.000010
  0
VERTEX
  8
0
 10
448.674765
 20
696.553656
 42
-0.000013
  0
VERTEX
  8
0
 10
443.843453
 20
697.494211
 42
-0.000009
  0
VERTEX
  8
0
 10
439.790406
 20
698.283447
 42
-0.000141
  0
VERTEX
  8
0
 10
438.381966
 20
698.558146
 42
-0.171119
  0
VERTEX
  8
0
 10
435.472531
 20
700.270099
 42
-0.005389
  0
VERTEX
  8
0
 10
426.589219
 20
711.050800
 42
-0.004168
  0
VERTEX
  8
0
 10
417.752388
 20
722.202740
 42
-0.262855
  0
VERTEX
  8
0
 10
417.396958
 20
724.592073
 42
-0.167000
  0
VERTEX
  8
0
 10
417.903112
 20
725.196238
 42
-0.065383
  0
VERTEX
  8
0
 10
418.913187
 20
725.637553
 42
-0.047408
  0
VERTEX
  8
0
 10
420.371136
 20
725.912799
 42
-0.022966
  0
VERTEX
  8
0
 10
422.268615
 20
726.000000
 42
0.095381
  0
VERTEX
  8
0
 10
427.185480
 20
726.946563
 42
0.314975
  0
VERTEX
  8
0
 10
428.898088
 20
729.559723
 42
0.128280
  0
VERTEX
  8
0
 10
427.496631
 20
734.338027
 42
0.017219
  0
VERTEX
  8
0
 10
421.750000
 20
743.207710
 42
-0.002661
  0
VERTEX
  8
0
 10
418.467794
 20
747.964290
 42
-0.001544
  0
VERTEX
  8
0
 10
414.573438
 20
753.710800
 42
-0.001543
  0
VERTEX
  8
0
 10
410.704855
 20
759.495889
 42
-0.002601
  0
VERTEX
  8
0
 10
407.500000
 20
764.375494
 42
0.002790
  0
VERTEX
  8
0
 10
404.489770
 20
768.955012
 42
0.002306
  0
VERTEX
  8
0
 10
401.232610
 20
773.801843
 42
0.002328
  0
VERTEX
  8
0
 10
398.203805
 20
778.219861
 42
0.006244
  0
VERTEX
  8
0
 10
395.993992
 20
781.327635
 42
0.010708
  0
VERTEX
  8
0
 10
393.261096
 20
784.907615
 42
0.062232
  0
VERTEX
  8
0
 10
391.564603
 20
786.562777
 42
0.097515
  0
VERTEX
  8
0
 10
389.866649
 20
787.392106
 42
0.046617
  0
VERTEX
  8
0
 10
387.462302
 20
787.796831
 42
0.110363
  0
VERTEX
  8
0
 10
383.905593
 20
787.272976
 42
0.119445
  0
VERTEX
  8
0
 10
381.026721
 20
785.287188
 42
0.042761
  0
VERTEX
  8
0
 10
377.531750
 20
780.629452
 42
0.003720
  0
VERTEX
  8
0
 10
369.774288
 20
768.000000
 42
-0.003459
  0
VERTEX
  8
0
 10
362.512125
 20
756.163083
 42
-0.005413
  0
VERTEX
  8
0
 10
356.084166
 20
746.091290
 42
-0.005242
  0
VERTEX
  8
0
 10
350.773682
 20
738.148876
 42
-0.033672
  0
VERTEX
  8
0
 10
347.784796
 20
734.354148
 42
0.053942
  0
VERTEX
  8
0
 10
346.996964
 20
733.266092
 42
0.051840
  0
VERTEX
  8
0
 10
346.447639
 20
732.020420
 42
0.051937
  0
VERTEX
  8
0
 10
346.167043
 20
730.690688
 42
0.054573
  0
VERTEX
  8
0
 10
346.173528
 20
729.354148
 42
0.053433
  0
VERTEX
  8
0
 10
346.539374
 20
727.723136
 42
0.171827
  0
VERTEX
  8
0
 10
347.218136
 20
726.862413
 42
0.102943
  0
VERTEX
  8
0
 10
348.517141
 20
726.377089
 42
0.013138
  0
VERTEX
  8
0
 10
351.491319
 20
726.000000
 42
-0.018493
  0
VERTEX
  8
0
 10
353.765922
 20
725.686827
 42
-0.048986
  0
VERTEX
  8
0
 10
355.345896
 20
725.246668
 42
-0.076146
  0
VERTEX
  8
0
 10
356.340563
 20
724.675060
 42
-0.179409
  0
VERTEX
  8
0
 10
356.775563
 20
723.952927
 42
-0.197343
  0
VERTEX
  8
0
 10
356.366688
 20
721.961991
 42
-0.006688
  0
VERTEX
  8
0
 10
351.719901
 20
715.250845
 42
-0.009799
  0
VERTEX
  8
0
 10
346.990769
 20
708.880243
 42
-0.100945
  0
VERTEX
  8
0
 10
344.522599
 20
706.752709
 42
-0.227415
  0
VERTEX
  8
0
 10
342.085111
 20
706.598991
 42
-0.020478
  0
VERTEX
  8
0
 10
336.358399
 20
709.192144
 42
-0.026532
  0
VERTEX
  8
0
 10
330.286254
 20
712.662354
 42
-0.036548
  0
VERTEX
  8
0
 10
325.268357
 20
716.440007
 42
-0.033457
  0
VERTEX
  8
0
 10
319.866500
 20
721.840439
 42
-0.008647
  0
VERTEX
  8
0
 10
311.916861
 20
731.252812
 42
-0.002546
  0
VERTEX
  8
0
 10
303.642786
 20
741.506403
 42
-0.316870
  0
VERTEX
  8
0
 10
303.548151
 20
743.077909
 42
-0.218419
  0
VERTEX
  8
0
 10
304.096404
 20
743.442728
 42
-0.011640
  0
VERTEX
  8
0
 10
306.224545
 20
743.729136
 42
-0.016506
  0
VERTEX
  8
0
 10
308.851541
 20
743.933105
 42
-0.011120
  0
VERTEX
  8
0
 10
311.859017
 20
744.000000
 42
0.017785
  0
VERTEX
  8
0
 10
317.542218
 20
744.202217
 42
0.117100
  0
VERTEX
  8
0
 10
320.239373
 20
745.049186
 42
0.194796
  0
VERTEX
  8
0
 10
321.570330
 20
746.805027
 42
0.066056
  0
VERTEX
  8
0
 10
322.000000
 20
750.043171
 42
0.064569
  0
VERTEX
  8
0
 10
321.720467
 20
752.198741
 42
0.047101
  0
VERTEX
  8
0
 10
320.886616
 20
754.468604
 42
0.032647
  0
VERTEX
  8
0
 10
319.337828
 20
757.228022
 42
0.011174
  0
VERTEX
  8
0
 10
316.750000
 20
761.018159
 42
-0.002398
  0
VERTEX
  8
0
 10
310.558285
 20
769.753318
 42
-0.004747
  0
VERTEX
  8
0
 10
305.745373
 20
776.753205
 42
-0.004379
  0
VERTEX
  8
0
 10
300.825005
 20
784.196805
 42
-0.001738
  0
VERTEX
  8
0
 10
294.194053
 20
794.500000
 42
0.002956
  0
VERTEX
  8
0
 10
286.002538
 20
807.160102
 42
0.021288
  0
VERTEX
  8
0
 10
281.762818
 20
813.064198
 42
0.045472
  0
VERTEX
  8
0
 10
278.889787
 20
816.109975
 42
0.182924
  0
VERTEX
  8
0
 10
276.538415
 20
817.000000
 42
0.048472
  0
VERTEX
  8
0
 10
275.587313
 20
816.907579
 42
0.042399
  0
VERTEX
  8
0
 10
274.626301
 20
816.632812
 42
0.044643
  0
VERTEX
  8
0
 10
273.796198
 20
816.229306
 42
0.089428
  0
SEQEND
  0
POLYLINE
  8
0
 66
1
 70
1
  0
VERTEX
  8
0
 10
266.480406
 20
681.369145
 42
-0.129780
  0
VERTEX
  8
0
 10
267.833700
 20
680.393743
 42
-0.011903
  0
VERTEX
  8
0
 10
270.410654
 20
677.103028
 42
-0.008458
  0
VERTEX
  8
0
 10
274.400594
 20
671.556839
 42
-0.001368
  0
VERTEX
  8
0
 10
281.950595
 20
660.614687
 42
0.009507
  0
VERTEX
  8
0
 10
286.378666
 20
654.415479
 42
0.001727
  0
VERTEX
  8
0
 10
294.847414
 20
643.105556
 42
0.001771
  0
VERTEX
  8
0
 10
303.403187
 20
631.844483
 42
0.008811
  0
VERTEX
  8
0
 10
308.341274
 20
625.622846
 42
-0.009529
  0
VERTEX
  8
0
 10
310.508911
 20
622.883714
 42
-0.013222
  0
VERTEX
  8
0
 10
312.337749
 20
620.343270
 42
-0.009713
  0
VERTEX
  8
0
 10
313.750022
 20
618.178633
 42
-0.140579
  0
VERTEX
  8
0
 10
314.000000
 20
617.307104
 42
-0.085596
  0
VERTEX
  8
0
 10
313.638357
 20
615.210089
 42
-0.102591
  0
VERTEX
  8
0
 10
312.600029
 20
613.501303
 42
-0.106619
  0
VERTEX
  8
0
 10
311.004794
 20
612.391399
 42
-0.099184
  0
VERTEX
  8
0
 10
309.051105
 20
612.000000
 42
-0.104774
  0
VERTEX
  8
0
 10
307.271923
 20
612.376962
 42
-0.068884
  0
VERTEX
  8
0
 10
305.486583
 20
613.484189
 42
-0.037713
  0
VERTEX
  8
0
 10
303.242800
 20
615.651502
 42
-0.008108
  0
VERTEX
  8
0
 10
299.711988
 20
619.750000
 42
-0.014760
  0
VERTEX
  8
0
 10
291.657593
 20
630.013237
 42
-0.003297
  0
VERTEX
  8
0
 10
278.551273
 20
648.016147
 42
-0.003023
  0
VERTEX
  8
0
 10
265.712119
 20
666.128899
 42
-0.019227
  0
VERTEX
  8
0
 10
259.607030
 20
675.608889
 42
-0.032788
  0
VERTEX
  8
0
 10
258.927712
 20
676.952393
 42
-0.035410
  0
VERTEX
  8
0
 10
258.449773
 20
678.339586
 42
-0.037941
  0
VERTEX
  8
0
 10
258.218270
 20
679.575529
 42
-0.119495
  0
VERTEX
  8
0
 10
258.325645
 20
680.406235
 42
-0.211378
  0
VERTEX
  8
0
 10
259.327106
 20
681.412448
 42
-0.063487
  0
VERTEX
  8
0
 10
261.472751
 20
681.947401
 42
-0.057022
  0
VERTEX
  8
0
 10
264.061986
 20
681.956761
 42
-0.064113
  0
SEQEND
  0
POLYLINE
  8
0
 66
1
 70
1
  0
VERTEX
  8
0
 10
357.355319
 20
661.301103
 42
-0.001647
  0
VERTEX
  8
0
 10
376.821332
 20
643.460694
 42
-0.009620
  0
VERTEX
  8
0
 10
386.849485
 20
633.845369
 42
-0.012243
  0
VERTEX
  8
0
 10
392.796328
 20
627.622071
 42
-0.173209
  0
VERTEX
  8
0
 10
393.964565
 20
624.821429
 42
-0.198785
  0
VERTEX
  8
0
 10
393.539905
 20
623.622001
 42
-0.060717
  0
VERTEX
  8
0
 10
392.059315
 20
622.331843
 42
-0.057924
  0
VERTEX
  8
0
 10
390.142994
 20
621.334739
 42
-0.091266
  0
VERTEX
  8
0
 10
388.324400
 20
621.000000
 42
-0.135741
  0
VERTEX
  8
0
 10
386.623527
 20
621.470424
 42
-0.028813
  0
VERTEX
  8
0
 10
384.057641
 20
623.215603
 42
-0.020830
  0
VERTEX
  8
0
 10
380.575128
 20
626.128349
 42
-0.006611
  0
VERTEX
  8
0
 10
375.628189
 20
630.750000
 42
0.000994
  0
VERTEX
  8
0
 10
370.668029
 20
635.489471
 42
0.000417
  0
VERTEX
  8
0
 10
363.975733
 20
641.847968
 42
0.000413
  0
VERTEX
  8
0
 10
356.808186
 20
648.635399
 42
0.000537
  0
VERTEX
  8
0
 10
350.232360
 20
654.838827
 42
-0.005509
  0
VERTEX
  8
0
 10
340.376520
 20
664.323497
 42
-0.045242
  0
VERTEX
  8
0
 10
336.349215
 20
669.074457
 42
-0.135533
  0
VERTEX
  8
0
 10
335.232926
 20
672.197338
 42
-0.218185
  0
VERTEX
  8
0
 10
336.200000
 20
674.800000
 42
-0.065155
  0
VERTEX
  8
0
 10
336.798198
 20
675.259750
 42
-0.039118
  0
VERTEX
  8
0
 10
337.607187
 20
675.647500
 42
-0.038547
  0
VERTEX
  8
0
 10
338.487833
 20
675.911927
 42
-0.053713
  0
VERTEX
  8
0
 10
339.305319
 20
676.000000
 42
-0.168382
  0
VERTEX
  8
0
 10
340.545217
 20
675.570262
 42
-0.004039
  0
VERTEX
  8
0
 10
345.373335
 20
671.702963
 42
-0.008358
  0
VERTEX
  8
0
 10
351.001740
 20
666.960858
 42
-0.005425
  0
SEQEND
  0
POLYLINE
  8
0
 66
1
 70
1
  0
VERTEX
  8
0
 10
373.646408
 20
608.715359
 42
-0.025378
  0
VERTEX
  8
0
 10
375.260375
 20
606.655188
 42
-0.003435
  0
VERTEX
  8
0
 10
378.391107
 20
602.146382
 42
-0.003953
  0
VERTEX
  8
0
 10
382.024814
 20
596.744557
 42
-0.003323
  0
VERTEX
  8
0
 10
385.791402
 20
590.965359
 42
0.000717
  0
VERTEX
  8
0
 10
389.963621
 20
584.490257
 42
0.000456
  0
VERTEX
  8
0
 10
394.838168
 20
576.964002
 42
0.000458
  0
VERTEX
  8
0
 10
399.634480
 20
569.588123
 42
0.000850
  0
VERTEX
  8
0
 10
403.541402
 20
563.614221
 42
-0.005940
  0
VERTEX
  8
0
 10
406.782228
 20
558.546960
 42
-0.008587
  0
VERTEX
  8
0
 10
409.515287
 20
553.987007
 42
-0.005024
  0
VERTEX
  8
0
 10
411.698992
 20
550.107941
 42
-0.126336
  0
VERTEX
  8
0
 10
412.000000
 20
548.935650
 42
-0.126325
  0
VERTEX
  8
0
 10
411.506286
 20
547.012698
 42
-0.105809
  0
VERTEX
  8
0
 10
410.124013
 20
545.415773
 42
-0.091652
  0
VERTEX
  8
0
 10
408.015280
 20
544.361277
 42
-0.070341
  0
VERTEX
  8
0
 10
405.459956
 20
544.000000
 42
-0.019826
  0
VERTEX
  8
0
 10
403.814828
 20
544.065257
 42
-0.097911
  0
VERTEX
  8
0
 10
402.926354
 20
544.315452
 42
-0.222257
  0
VERTEX
  8
0
 10
402.569474
 20
544.771791
 42
-0.149269
  0
VERTEX
  8
0
 10
402.616591
 20
545.443234
 42
0.230327
  0
VERTEX
  8
0
 10
402.518729
 20
546.573710
 42
0.001663
  0
VERTEX
  8
0
 10
397.482698
 20
554.928842
 42
0.005555
  0
VERTEX
  8
0
 10
391.319957
 20
564.827192
 42
0.002950
  0
VERTEX
  8
0
 10
383.478864
 20
576.956464
 42
-0.001034
  0
VERTEX
  8
0
 10
370.577650
 20
596.746461
 42
-0.017285
  0
VERTEX
  8
0
 10
366.541493
 20
603.463340
 42
-0.058606
  0
VERTEX
  8
0
 10
365.044290
 20
607.111541
 42
-0.216385
  0
VERTEX
  8
0
 10
365.416711
 20
609.513230
 42
-0.092643
  0
VERTEX
  8
0
 10
367.166733
 20
611.336881
 42
-0.181424
  0
VERTEX
  8
0
 10
369.083602
 20
611.851525
 42
-0.141180
  0
VERTEX
  8
0
 10
371.221018
 20
611.004858
 42
-0.049502
  0
SEQEND
  0
POLYLINE
  8
0
 66
1
 70
1
  0
VERTEX
  8
0
 10
288.407901
 20
593.396968
 42
-0.100393
  0
VERTEX
  8
0
 10
289.270392
 20
592.848359
 42
-0.010860
  0
VERTEX
  8
0
 10
290.943409
 20
591.165405
 42
-0.012979
  0
VERTEX
  8
0
 10
292.859227
 20
589.045027
 42
-0.010118
  0
VERTEX
  8
0
 10
294.832664
 20
586.646968
 42
0.017033
  0
VERTEX
  8
0
 10
297.762664
 20
583.185210
 42
0.002911
  0
VERTEX
  8
0
 10
303.593925
 20
576.828081
 42
0.003172
  0
VERTEX
  8
0
 10
310.535629
 20
569.442762
 42
0.002824
  0
VERTEX
  8
0
 10
317.842976
 20
561.852883
 42
-0.002648
  0
VERTEX
  8
0
 10
327.615810
 20
551.709320
 42
-0.015335
  0
VERTEX
  8
0
 10
332.580381
 20
546.170971
 42
-0.026259
  0
VERTEX
  8
0
 10
335.304866
 20
542.569543
 42
-0.149894
  0
VERTEX
  8
0
 10
336.000000
 20
540.302883
 42
-0.123612
  0
VERTEX
  8
0
 10
335.039368
 20
536.476572
 42
-0.274691
  0
VERTEX
  8
0
 10
332.559172
 20
534.980793
 42
-0.160748
  0
VERTEX
  8
0
 10
328.793690
 20
536.196283
 42
-0.049521
  0
VERTEX
  8
0
 10
324.290073
 20
540.226411
 42
0.003574
  0
VERTEX
  8
0
 10
321.603152
 20
543.116340
 42
0.000764
  0
VERTEX
  8
0
 10
316.893894
 20
548.094079
 42
0.000799
  0
VERTEX
  8
0
 10
311.419813
 20
553.844125
 42
0.000761
  0
VERTEX
  8
0
 10
305.838076
 20
559.670747
 42
-0.007465
  0
VERTEX
  8
0
 10
294.077823
 20
572.281135
 42
-0.014549
  0
VERTEX
  8
0
 10
285.148962
 20
582.743023
 42
-0.009009
  0
VERTEX
  8
0
 10
278.563847
 20
591.238589
 42
-0.372631
  0
VERTEX
  8
0
 10
278.718715
 20
593.385381
 42
-0.183439
  0
VERTEX
  8
0
 10
279.825764
 20
593.883155
 42
-0.014630
  0
VERTEX
  8
0
 10
283.090691
 20
593.982614
 42
-0.019838
  0
VERTEX
  8
0
 10
286.376257
 20
593.856141
 42
-0.072191
  0
SEQEND
  0
POLYLINE
  8
0
 66
1
 70
1
  0
VERTEX
  8
0
 10
310.379858
 20
515.750000
 42
-0.030699
  0
VERTEX
  8
0
 10
313.729631
 20
512.329043
 42
-0.004648
  0
VERTEX
  8
0
 10
319.931949
 20
505.027990
 42
-0.001398
  0
VERTEX
  8
0
 10
326.564305
 20
497.026599
 42
-0.174056
  0
VERTEX
  8
0
 10
327.000000
 20
495.812926
 42
-0.227911
  0
VERTEX
  8
0
 10
326.806384
 20
495.410227
 42
-0.016402
  0
VERTEX
  8
0
 10
325.787271
 20
494.648817
 42
-0.020419
  0
VERTEX
  8
0
 10
324.453355
 20
493.797524
 42
-0.013864
  0
VERTEX
  8
0
 10
322.871562
 20
492.934476
 42
-0.013566
  0
VERTEX
  8
0
 10
320.614825
 20
491.859303
 42
-0.069061
  0
VERTEX
  8
0
 10
319.280824
 20
491.476313
 42
-0.130357
  0
VERTEX
  8
0
 10
318.323053
 20
491.589445
 42
-0.108653
  0
VERTEX
  8
0
 10
317.470778
 20
492.164152
 42
-0.016972
  0
VERTEX
  8
0
 10
312.405701
 20
497.856929
 42
-0.005454
  0
VERTEX
  8
0
 10
305.275009
 20
506.634043
 42
-0.000965
  0
VERTEX
  8
0
 10
297.656569
 20
516.261482
 42
-0.315118
  0
VERTEX
  8
0
 10
297.604786
 20
517.169548
 42
-0.199183
  0
VERTEX
  8
0
 10
298.056649
 20
517.494874
 42
-0.019539
  0
VERTEX
  8
0
 10
299.402301
 20
517.756055
 42
-0.022324
  0
VERTEX
  8
0
 10
301.094548
 20
517.939520
 42
-0.015839
  0
VERTEX
  8
0
 10
303.003253
 20
518.000000
 42
-0.023904
  0
VERTEX
  8
0
 10
305.477536
 20
517.881642
 42
-0.050156
  0
VERTEX
  8
0
 10
307.364341
 20
517.507361
 42
-0.059493
  0
VERTEX
  8
0
 10
308.925255
 20
516.819824
 42
-0.050238
  0
SEQEND
  0
POLYLINE
  8
0
 66
1
 70
1
  0
VERTEX
  8
0
 10
365.250000
 20
511.337719
 42
-0.057986
  0
VERTEX
  8
0
 10
364.679992
 20
511.181385
 42
-0.037979
  0
VERTEX
  8
0
 10
364.000000
 20
511.129660
 42
-0.037979
  0
VERTEX
  8
0
 10
363.320008
 20
511.181385
 42
-0.057986
  0
VERTEX
  8
0
 10
362.750000
 20
511.337719
 42
-0.174857
  0
VERTEX
  8
0
 10
362.540618
 20
511.525001
 42
-0.447206
  0
VERTEX
  8
0
 10
362.601562
 20
511.693942
 42
-0.078554
  0
VERTEX
  8
0
 10
363.108560
 20
511.810911
 42
-0.017491
  0
VERTEX
  8
0
 10
364.000000
 20
511.842105
 42
-0.017491
  0
VERTEX
  8
0
 10
364.891440
 20
511.810911
 42
-0.078554
  0
VERTEX
  8
0
 10
365.398438
 20
511.693942
 42
-0.447206
  0
VERTEX
  8
0
 10
365.459382
 20
511.525001
 42
-0.174857
  0
SEQEND
  0
POLYLINE
  8
0
 66
1
 70
1
  0
VERTEX
  8
0
 10
355.296354
 20
489.172818
 42
0.092614
  0
VERTEX
  8
0
 10
355.503626
 20
485.141358
 42
0.060843
  0
VERTEX
  8
0
 10
357.134977
 20
480.775613
 42
0.047032
  0
VERTEX
  8
0
 10
360.261738
 20
475.930930
 42
0.023642
  0
VERTEX
  8
0
 10
365.035651
 20
470.426066
 42
-0.051080
  0
VERTEX
  8
0
 10
370.201656
 20
463.764368
 42
-0.095575
  0
VERTEX
  8
0
 10
372.640073
 20
457.420567
 42
-0.109018
  0
VERTEX
  8
0
 10
372.386468
 20
451.205409
 42
-0.081843
  0
VERTEX
  8
0
 10
369.578615
 20
444.939430
 42
-0.046730
  0
VERTEX
  8
0
 10
367.668254
 20
442.567354
 42
-0.062301
  0
VERTEX
  8
0
 10
365.510433
 20
440.840301
 42
-0.082877
  0
VERTEX
  8
0
 10
363.555742
 20
440.047877
 42
-0.256720
  0
VERTEX
  8
0
 10
362.234972
 20
440.431695
 42
-0.290674
  0
VERTEX
  8
0
 10
362.157675
 20
440.777943
 42
-0.071792
  0
VERTEX
  8
0
 10
362.444332
 20
441.316075
 42
-0.051324
  0
VERTEX
  8
0
 10
363.015491
 20
441.947465
 42
-0.030477
  0
VERTEX
  8
0
 10
363.810332
 20
442.579705
 42
0.070206
  0
VERTEX
  8
0
 10
364.904730
 20
443.601686
 42
0.089743
  0
VERTEX
  8
0
 10
365.565413
 20
444.809874
 42
0.062221
  0
VERTEX
  8
0
 10
365.903266
 20
446.501517
 42
0.018213
  0
VERTEX
  8
0
 10
366.000000
 20
449.156261
 42
0.031229
  0
VERTEX
  8
0
 10
365.803844
 20
452.293791
 42
0.090974
  0
VERTEX
  8
0
 10
365.151772
 20
454.355494
 42
0.061331
  0
VERTEX
  8
0
 10
363.669091
 20
456.475622
 42
0.008897
  0
VERTEX
  8
0
 10
360.069154
 20
460.335378
 42
0.011464
  0
VERTEX
  8
0
 10
357.742196
 20
462.635011
 42
0.018979
  0
VERTEX
  8
0
 10
355.664007
 20
464.452627
 42
0.013581
  0
VERTEX
  8
0
 10
353.934292
 20
465.777140
 42
0.368357
  0
VERTEX
  8
0
 10
353.401331
 20
465.734664
 42
0.137830
  0
VERTEX
  8
0
 10
353.089642
 20
465.179350
 42
0.012204
  0
VERTEX
  8
0
 10
352.746439
 20
463.593466
 42
0.015222
  0
VERTEX
  8
0
 10
352.435814
 20
461.647340
 42
0.011275
  0
VERTEX
  8
0
 10
352.206816
 20
459.480383
 42
-0.012582
  0
VERTEX
  8
0
 10
351.766318
 20
455.413838
 42
-0.133422
  0
VERTEX
  8
0
 10
351.125535
 20
453.891211
 42
-0.321289
  0
VERTEX
  8
0
 10
350.084806
 20
453.585814
 42
-0.068784
  0
VERTEX
  8
0
 10
348.309333
 20
454.495888
 42
-0.155081
  0
VERTEX
  8
0
 10
346.477860
 20
456.894735
 42
-0.033502
  0
VERTEX
  8
0
 10
345.030421
 20
461.978385
 42
-0.034575
  0
VERTEX
  8
0
 10
344.191285
 20
467.878196
 42
-0.043780
  0
VERTEX
  8
0
 10
344.275741
 20
473.382729
 42
-0.043152
  0
VERTEX
  8
0
 10
345.140225
 20
477.899766
 42
-0.036042
  0
VERTEX
  8
0
 10
346.803480
 20
482.493318
 42
-0.036398
  0
VERTEX
  8
0
 10
349.084973
 20
486.747958
 42
-0.047027
  0
VERTEX
  8
0
 10
351.797110
 20
490.250000
 42
-0.014586
  0
VERTEX
  8
0
 10
354.100426
 20
492.568476
 42
-0.270882
  0
VERTEX
  8
0
 10
355.067155
 20
492.795279
 42
-0.344657
  0
VERTEX
  8
0
 10
355.570846
 20
492.072077
 42
-0.019471
  0
SEQEND
  0
POLYLINE
  8
0
 66
1
 70
1
  0
VERTEX
  8
0
 10
199.718116
 20
467.115385
 42
0.007595
  0
VERTEX
  8
0
 10
196.646909
 20
460.833311
 42
0.043574
  0
VERTEX
  8
0
 10
195.368632
 20
457.357738
 42
0.050951
  0
VERTEX
  8
0
 10
194.805430
 20
453.944401
 42
0.012661
  0
VERTEX
  8
0
 10
194.599127
 20
448.278136
 42
0.012635
  0
VERTEX
  8
0
 10
194.680388
 20
442.554487
 42
0.052148
  0
VERTEX
  8
0
 10
195.175487
 20
439.132080
 42
0.043144
  0
VERTEX
  8
0
 10
196.404254
 20
435.592168
 42
0.006832
  0
VERTEX
  8
0
 10
199.500000
 20
428.912752
 42
-0.006874
  0
VERTEX
  8
0
 10
202.592684
 20
422.238457
 42
-0.043003
  0
VERTEX
  8
0
 10
203.825710
 20
418.687557
 42
-0.051760
  0
VERTEX
  8
0
 10
204.327179
 20
415.249443
 42
-0.012547
  0
VERTEX
  8
0
 10
204.420981
 20
409.500000
 42
-0.012439
  0
VERTEX
  8
0
 10
204.295224
 20
405.764857
 42
-0.014441
  0
VERTEX
  8
0
 10
203.984816
 20
402.222838
 42
-0.014580
  0
VERTEX
  8
0
 10
203.547960
 20
399.240615
 42
-0.060244
  0
VERTEX
  8
0
 10
203.019134
 20
397.500000
 42
0.000000
  0
VERTEX
  8
0
 10
201.696304
 20
394.500000
 42
0.000000
  0
VERTEX
  8
0
 10
200.507545
 20
399.500000
 42
0.026004
  0
VERTEX
  8
0
 10
199.212320
 20
403.914167
 42
0.031378
  0
VERTEX
  8
0
 10
197.529491
 20
407.892826
 42
0.028387
  0
VERTEX
  8
0
 10
195.217784
 20
411.933692
 42
0.016067
  0
VERTEX
  8
0
 10
191.992406
 20
416.562996
 42
-0.015030
  0
VERTEX
  8
0
 10
190.312467
 20
418.963538
 42
-0.007982
  0
VERTEX
  8
0
 10
188.370572
 20
422.029606
 42
-0.007937
  0
VERTEX
  8
0
 10
186.483774
 20
425.229702
 42
-0.012204
  0
VERTEX
  8
0
 10
184.963563
 20
428.062996
 42
0.000000
  0
VERTEX
  8
0
 10
181.709537
 20
434.500000
 42
0.000000
  0
VERTEX
  8
0
 10
180.264628
 20
430.500000
 42
0.045633
  0
VERTEX
  8
0
 10
179.598248
 20
427.948218
 42
0.027378
  0
VERTEX
  8
0
 10
179.255738
 20
424.832610
 42
0.019256
  0
VERTEX
  8
0
 10
179.188390
 20
420.687403
 42
0.006801
  0
VERTEX
  8
0
 10
179.401418
 20
414.750000
 42
-0.006367
  0
VERTEX
  8
0
 10
179.578324
 20
409.935927
 42
-0.013635
  0
VERTEX
  8
0
 10
179.566158
 20
406.218187
 42
-0.008421
  0
VERTEX
  8
0
 10
179.430826
 20
403.364201
 42
-0.395525
  0
VERTEX
  8
0
 10
179.042449
 20
403.000000
 42
-0.220046
  0
VERTEX
  8
0
 10
177.849088
 20
403.551913
 42
-0.016893
  0
VERTEX
  8
0
 10
175.594082
 20
406.394514
 42
-0.022164
  0
VERTEX
  8
0
 10
173.215398
 20
409.927767
 42
-0.020699
  0
VERTEX
  8
0
 10
171.100175
 20
413.737695
 42
-0.137468
  0
VERTEX
  8
0
 10
168.308537
 20
428.083046
 42
-0.082711
  0
VERTEX
  8
0
 10
172.561344
 20
445.015706
 42
-0.073957
  0
VERTEX
  8
0
 10
182.833961
 20
461.445960
 42
-0.072622
  0
VERTEX
  8
0
 10
197.500000
 20
474.293499
 42
-0.019870
  0
VERTEX
  8
0
 10
202.197394
 20
477.075362
 42
-0.472624
  0
VERTEX
  8
0
 10
203.444764
 20
476.565427
 42
-0.187313
  0
VERTEX
  8
0
 10
203.292510
 20
474.413394
 42
-0.007235
  0
SEQEND
  0
POLYLINE
  8
0
 66
1
 70
1
  0
VERTEX
  8
0
 10
358.020056
 20
450.475834
 42
-0.045266
  0
VERTEX
  8
0
 10
358.986027
 20
449.070684
 42
-0.475211
  0
VERTEX
  8
0
 10
358.762968
 20
448.504768
 42
-0.255106
  0
VERTEX
  8
0
 10
357.884466
 20
448.675050
 42
-0.036070
  0
VERTEX
  8
0
 10
356.505548
 20
449.993869
 42
-0.026836
  0
VERTEX
  8
0
 10
355.879557
 20
450.764969
 42
-0.064121
  0
VERTEX
  8
0
 10
355.526644
 20
451.410699
 42
-0.150719
  0
VERTEX
  8
0
 10
355.496726
 20
451.820241
 42
-0.349393
  0
VERTEX
  8
0
 10
355.722568
 20
452.000000
 42
-0.107497
  0
VERTEX
  8
0
 10
356.207094
 20
451.894612
 42
-0.039370
  0
VERTEX
  8
0
 10
356.823379
 20
451.552276
 42
-0.036800
  0
VERTEX
  8
0
 10
357.459787
 20
451.059062
 42
-0.036315
  0
SEQEND
  0
POLYLINE
  8
0
 66
1
 70
1
  0
VERTEX
  8
0
 10
315.000000
 20
445.864501
 42
-0.081336
  0
VERTEX
  8
0
 10
325.867073
 20
438.574067
 42
-0.085501
  0
VERTEX
  8
0
 10
333.621814
 20
428.309128
 42
-0.093686
  0
VERTEX
  8
0
 10
337.024832
 20
416.887540
 42
-0.125280
  0
VERTEX
  8
0
 10
335.452272
 20
406.231529
 42
-0.038088
  0
VERTEX
  8
0
 10
333.923787
 20
403.236743
 42
-0.039330
  0
VERTEX
  8
0
 10
331.973028
 20
400.542472
 42
-0.040039
  0
VERTEX
  8
0
 10
330.071557
 20
398.640752
 42
-0.325574
  0
VERTEX
  8
0
 10
328.914660
 20
398.552743
 42
-0.239369
  0
VERTEX
  8
0
 10
328.623818
 20
399.029978
 42
-0.011929
  0
VERTEX
  8
0
 10
328.522614
 20
400.917258
 42
-0.017049
  0
VERTEX
  8
0
 10
328.532803
 20
403.244825
 42
-0.011293
  0
VERTEX
  8
0
 10
328.695886
 20
405.912523
 42
0.021865
  0
VERTEX
  8
0
 10
328.973782
 20
412.870684
 42
0.096421
  0
VERTEX
  8
0
 10
328.178024
 20
416.877424
 42
0.498320
  0
VERTEX
  8
0
 10
326.722352
 20
417.261378
 42
0.128547
  0
VERTEX
  8
0
 10
324.989170
 20
414.973855
 42
-0.084293
  0
VERTEX
  8
0
 10
323.098066
 20
411.963436
 42
-0.024030
  0
VERTEX
  8
0
 10
319.213871
 20
408.014439
 42
-0.024646
  0
VERTEX
  8
0
 10
314.591622
 20
404.150016
 42
-0.034785
  0
VERTEX
  8
0
 10
310.095328
 20
401.220140
 42
0.000000
  0
VERTEX
  8
0
 10
306.000000
 20
398.940281
 42
0.000000
  0
VERTEX
  8
0
 10
306.000000
 20
401.044772
 42
-0.086670
  0
VERTEX
  8
0
 10
306.214860
 20
402.274994
 42
-0.011358
  0
VERTEX
  8
0
 10
307.175000
 20
404.761289
 42
-0.012923
  0
VERTEX
  8
0
 10
308.468386
 20
407.680334
 42
-0.010492
  0
VERTEX
  8
0
 10
310.000000
 20
410.741505
 42
0.012127
  0
VERTEX
  8
0
 10
312.111561
 20
414.996506
 42
0.036892
  0
VERTEX
  8
0
 10
313.255987
 20
418.012730
 42
0.045348
  0
VERTEX
  8
0
 10
313.817187
 20
420.806186
 42
0.026913
  0
VERTEX
  8
0
 10
314.000000
 20
424.200118
 42
0.053825
  0
VERTEX
  8
0
 10
313.455031
 20
429.247837
 42
0.048442
  0
VERTEX
  8
0
 10
311.840820
 20
434.254304
 42
0.045274
  0
VERTEX
  8
0
 10
309.165937
 20
439.160020
 42
0.036274
  0
VERTEX
  8
0
 10
305.464960
 20
443.907105
 42
-0.014478
  0
VERTEX
  8
0
 10
304.138080
 20
445.464145
 42
-0.018715
  0
VERTEX
  8
0
 10
303.017832
 20
446.970708
 42
-0.016684
  0
VERTEX
  8
0
 10
302.185888
 20
448.272700
 42
-0.134610
  0
VERTEX
  8
0
 10
302.000000
 20
448.950656
 42
-0.420552
  0
VERTEX
  8
0
 10
302.819177
 20
449.752335
 42
-0.052922
  0
VERTEX
  8
0
 10
305.550712
 20
449.402619
 42
-0.034523
  0
VERTEX
  8
0
 10
309.653748
 20
448.123956
 42
-0.014371
  0
SEQEND
  0
POLYLINE
  8
0
 66
1
 70
1
  0
VERTEX
  8
0
 10
409.809645
 20
405.936323
 42
-0.062221
  0
VERTEX
  8
0
 10
419.125626
 20
398.928026
 42
-0.053997
  0
VERTEX
  8
0
 10
426.944264
 20
389.525112
 42
-0.056498
  0
VERTEX
  8
0
 10
432.224040
 20
379.205323
 42
-0.090591
  0
VERTEX
  8
0
 10
433.983417
 20
369.500000
 42
-0.022864
  0
VERTEX
  8
0
 10
433.683848
 20
363.141243
 42
-0.087632
  0
VERTEX
  8
0
 10
432.639890
 20
359.333819
 42
-0.140034
  0
VERTEX
  8
0
 10
430.662054
 20
357.081895
 42
-0.099613
  0
VERTEX
  8
0
 10
427.516725
 20
355.850061
 42
-0.131436
  0
VERTEX
  8
0
 10
426.452473
 20
355.942527
 42
-0.245726
  0
VERTEX
  8
0
 10
425.884052
 20
356.563987
 42
-0.071082
  0
VERTEX
  8
0
 10
425.704502
 20
358.091287
 42
-0.005763
  0
VERTEX
  8
0
 10
425.851873
 20
362.135001
 42
0.015793
  0
VERTEX
  8
0
 10
425.905546
 20
365.413187
 42
0.030777
  0
VERTEX
  8
0
 10
425.705080
 20
368.020076
 42
0.037598
  0
VERTEX
  8
0
 10
425.233672
 20
370.195017
 42
0.045429
  0
VERTEX
  8
0
 10
424.460167
 20
372.135001
 42
0.011249
  0
VERTEX
  8
0
 10
422.275827
 20
376.203807
 42
0.242535
  0
VERTEX
  8
0
 10
421.171995
 20
376.926572
 42
0.302957
  0
VERTEX
  8
0
 10
420.111019
 20
376.368146
 42
0.016028
  0
VERTEX
  8
0
 10
418.304990
 20
372.776491
 42
-0.034527
  0
VERTEX
  8
0
 10
416.943975
 20
370.302199
 42
-0.014007
  0
VERTEX
  8
0
 10
414.770752
 20
367.125136
 42
-0.013782
  0
VERTEX
  8
0
 10
412.234090
 20
363.826177
 42
-0.017058
  0
VERTEX
  8
0
 10
409.687072
 20
360.905589
 42
0.003840
  0
VERTEX
  8
0
 10
407.193302
 20
358.194194
 42
0.004205
  0
VERTEX
  8
0
 10
404.816473
 20
355.524999
 42
0.003938
  0
VERTEX
  8
0
 10
402.821181
 20
353.209428
 42
0.020933
  0
VERTEX
  8
0
 10
401.794538
 20
351.890711
 42
0.000000
  0
VERTEX
  8
0
 10
400.089075
 20
349.500000
 42
0.000000
  0
VERTEX
  8
0
 10
399.889013
 20
353.500000
 42
-0.022708
  0
VERTEX
  8
0
 10
399.867967
 20
358.109216
 42
-0.048542
  0
VERTEX
  8
0
 10
400.356614
 20
361.631540
 42
-0.036657
  0
VERTEX
  8
0
 10
401.607666
 20
365.562274
 42
-0.008371
  0
VERTEX
  8
0
 10
404.315533
 20
372.000000
 42
0.009104
  0
VERTEX
  8
0
 10
406.653802
 20
377.581919
 42
0.034914
  0
VERTEX
  8
0
 10
407.797547
 20
381.168692
 42
0.042595
  0
VERTEX
  8
0
 10
408.315792
 20
384.512868
 42
0.018581
  0
VERTEX
  8
0
 10
408.457152
 20
389.006209
 42
0.014577
  0
VERTEX
  8
0
 10
408.308415
 20
393.271061
 42
0.042192
  0
VERTEX
  8
0
 10
407.872148
 20
396.190310
 42
0.045966
  0
VERTEX
  8
0
 10
406.975756
 20
398.854609
 42
0.019996
  0
VERTEX
  8
0
 10
405.328098
 20
402.210489
 42
-0.011256
  0
VERTEX
  8
0
 10
402.662179
 20
407.408691
 42
-0.344924
  0
VERTEX
  8
0
 10
402.950937
 20
408.744282
 42
-0.302538
  0
VERTEX
  8
0
 10
404.401534
 20
408.898643
 42
-0.009782
  0
SEQEND
  0
POLYLINE
  8
0
 66
1
 70
1
  0
VERTEX
  8
0
 10
229.409849
 20
397.497847
 42
-0.044182
  0
VERTEX
  8
0
 10
246.379476
 20
390.246369
 42
-0.050646
  0
VERTEX
  8
0
 10
260.993122
 20
380.390715
 42
-0.051848
  0
VERTEX
  8
0
 10
273.048349
 20
368.023910
 42
-0.050379
  0
VERTEX
  8
0
 10
282.434510
 20
353.327352
 42
-0.029292
  0
VERTEX
  8
0
 10
286.170314
 20
344.711388
 42
-0.037576
  0
VERTEX
  8
0
 10
288.519749
 20
336.398446
 42
-0.035731
  0
VERTEX
  8
0
 10
289.673261
 20
327.498580
 42
-0.022960
  0
VERTEX
  8
0
 10
289.793525
 20
317.084292
 42
-0.022199
  0
VERTEX
  8
0
 10
289.022309
 20
307.312177
 42
-0.039458
  0
VERTEX
  8
0
 10
287.403236
 20
299.407213
 42
-0.027521
  0
VERTEX
  8
0
 10
284.169781
 20
290.146570
 42
-0.005948
  0
VERTEX
  8
0
 10
277.517159
 20
274.535886
 42
0.017603
  0
VERTEX
  8
0
 10
273.189421
 20
263.686267
 42
0.032134
  0
VERTEX
  8
0
 10
270.555190
 20
254.528719
 42
0.036541
  0
VERTEX
  8
0
 10
269.324312
 20
245.967647
 42
0.032799
  0
VERTEX
  8
0
 10
269.286894
 20
237.000000
 42
0.027102
  0
VERTEX
  8
0
 10
270.175838
 20
229.343981
 42
0.050656
  0
VERTEX
  8
0
 10
271.844282
 20
223.339008
 42
0.056116
  0
VERTEX
  8
0
 10
274.543716
 20
218.208461
 42
0.042380
  0
VERTEX
  8
0
 10
278.556597
 20
213.257951
 42
0.011164
  0
VERTEX
  8
0
 10
281.847332
 20
209.985645
 42
0.077406
  0
VERTEX
  8
0
 10
283.710600
 20
208.695099
 42
0.093316
  0
VERTEX
  8
0
 10
285.735576
 20
208.145205
 42
0.019769
  0
VERTEX
  8
0
 10
289.406597
 20
208.000000
 42
0.016954
  0
VERTEX
  8
0
 10
292.821191
 20
208.115818
 42
0.071728
  0
VERTEX
  8
0
 10
294.817452
 20
208.543437
 42
0.081877
  0
VERTEX
  8
0
 10
296.478785
 20
209.489411
 42
0.026103
  0
VERTEX
  8
0
 10
298.600000
 20
211.400000
 42
0.087186
  0
VERTEX
  8
0
 10
301.241340
 20
215.167408
 42
0.124175
  0
VERTEX
  8
0
 10
302.011602
 20
219.162866
 42
0.078903
  0
VERTEX
  8
0
 10
300.885546
 20
224.341331
 42
0.019685
  0
VERTEX
  8
0
 10
297.414665
 20
232.306181
 42
-0.024671
  0
VERTEX
  8
0
 10
293.643927
 20
241.200107
 42
-0.066131
  0
VERTEX
  8
0
 10
292.148641
 20
247.899582
 42
-0.080351
  0
VERTEX
  8
0
 10
292.591108
 20
253.964009
 42
-0.050956
  0
VERTEX
  8
0
 10
294.925740
 20
260.670104
 42
-0.027885
  0
VERTEX
  8
0
 10
297.720500
 20
265.877198
 42
-0.040885
  0
VERTEX
  8
0
 10
300.781877
 20
270.075328
 42
-0.041781
  0
VERTEX
  8
0
 10
304.431768
 20
273.653570
 42
-0.030939
  0
VERTEX
  8
0
 10
309.000000
 20
276.985126
 42
-0.025620
  0
VERTEX
  8
0
 10
312.331504
 20
278.879485
 42
-0.030186
  0
VERTEX
  8
0
 10
315.665202
 20
280.310398
 42
-0.030327
  0
VERTEX
  8
0
 10
318.352903
 20
281.096241
 42
-0.481396
  0
VERTEX
  8
0
 10
319.000000
 20
280.579891
 42
-0.103613
  0
VERTEX
  8
0
 10
318.908712
 20
280.144099
 42
-0.003152
  0
VERTEX
  8
0
 10
318.153356
 20
278.449378
 42
-0.006099
  0
VERTEX
  8
0
 10
317.222167
 20
276.459980
 42
-0.004165
  0
VERTEX
  8
0
 10
316.117807
 20
274.221483
 42
0.031627
  0
VERTEX
  8
0
 10
313.464255
 20
268.004437
 42
0.041892
  0
VERTEX
  8
0
 10
311.904170
 20
262.054799
 42
0.044933
  0
VERTEX
  8
0
 10
311.424689
 20
256.284248
 42
0.046857
  0
VERTEX
  8
0
 10
311.997811
 20
250.603569
 42
0.015713
  0
VERTEX
  8
0
 10
313.073322
 20
245.917769
 42
0.046262
  0
VERTEX
  8
0
 10
314.204637
 20
242.813692
 42
0.031262
  0
VERTEX
  8
0
 10
316.102339
 20
239.376500
 42
0.004278
  0
VERTEX
  8
0
 10
320.564601
 20
232.498606
 42
-0.011056
  0
VERTEX
  8
0
 10
322.902692
 20
228.785508
 42
-0.006311
  0
VERTEX
  8
0
 10
325.569888
 20
224.204280
 42
-0.006300
  0
VERTEX
  8
0
 10
328.138670
 20
219.524499
 42
-0.010384
  0
VERTEX
  8
0
 10
330.176793
 20
215.498606
 42
0.000000
  0
VERTEX
  8
0
 10
334.500000
 20
206.500000
 42
0.000000
  0
VERTEX
  8
0
 10
334.460322
 20
194.500000
 42
-0.006401
  0
VERTEX
  8
0
 10
334.351487
 20
187.744117
 42
-0.026862
  0
VERTEX
  8
0
 10
334.016475
 20
183.698562
 42
-0.040109
  0
VERTEX
  8
0
 10
333.327887
 20
180.567997
 42
-0.030413
  0
VERTEX
  8
0
 10
332.097051
 20
177.272950
 42
-0.094657
  0
VERTEX
  8
0
 10
326.468948
 20
169.169550
 42
-0.062593
  0
VERTEX
  8
0
 10
317.420004
 20
162.290888
 42
-0.060192
  0
VERTEX
  8
0
 10
306.511628
 20
157.618199
 42
-0.070655
  0
VERTEX
  8
0
 10
295.386490
 20
156.011869
 42
-0.075608
  0
VERTEX
  8
0
 10
280.528994
 20
158.236194
 42
-0.071423
  0
VERTEX
  8
0
 10
266.685541
 20
164.789621
 42
-0.069241
  0
VERTEX
  8
0
 10
254.890260
 20
175.197715
 42
-0.064196
  0
VERTEX
  8
0
 10
246.028142
 20
188.685450
 42
-0.034427
  0
VERTEX
  8
0
 10
241.220680
 20
200.574074
 42
-0.044331
  0
VERTEX
  8
0
 10
238.571376
 20
212.052132
 42
-0.045002
  0
VERTEX
  8
0
 10
238.009529
 20
223.676618
 42
-0.037194
  0
VERTEX
  8
0
 10
239.445493
 20
236.000000
 42
-0.026344
  0
VERTEX
  8
0
 10
241.671760
 20
244.979429
 42
-0.029740
  0
VERTEX
  8
0
 10
244.761026
 20
253.308624
 42
-0.019998
  0
VERTEX
  8
0
 10
249.752708
 20
263.521402
 42
-0.005168
  0
VERTEX
  8
0
 10
258.619830
 20
279.563361
 42
0.015076
  0
VERTEX
  8
0
 10
265.089425
 20
291.836007
 42
0.031124
  0
VERTEX
  8
0
 10
269.239090
 20
301.852518
 42
0.036993
  0
VERTEX
  8
0
 10
271.663218
 20
311.092257
 42
0.033993
  0
VERTEX
  8
0
 10
272.787524
 20
320.854556
 42
0.021111
  0
VERTEX
  8
0
 10
272.826733
 20
329.591774
 42
0.041110
  0
VERTEX
  8
0
 10
271.993336
 20
336.509097
 42
0.042656
  0
VERTEX
  8
0
 10
270.066458
 20
343.029539
 42
0.024619
  0
VERTEX
  8
0
 10
266.714007
 20
350.500000
 42
0.048093
  0
VERTEX
  8
0
 10
261.624635
 20
358.489936
 42
0.026381
  0
VERTEX
  8
0
 10
254.002006
 20
367.250997
 42
0.026379
  0
VERTEX
  8
0
 10
245.653013
 20
375.017615
 42
0.057325
  0
VERTEX
  8
0
 10
238.349660
 20
379.823492
 42
-0.023290
  0
VERTEX
  8
0
 10
235.633744
 20
381.357142
 42
-0.027881
  0
VERTEX
  8
0
 10
233.237302
 20
383.054889
 42
-0.030271
  0
VERTEX
  8
0
 10
231.235538
 20
384.855853
 42
-0.042930
  0
VERTEX
  8
0
 10
229.708191
 20
386.699581
 42
0.017066
  0
VERTEX
  8
0
 10
228.398044
 20
388.458724
 42
0.008831
  0
VERTEX
  8
0
 10
226.648760
 20
390.569880
 42
0.008769
  0
VERTEX
  8
0
 10
224.772406
 20
392.678696
 42
0.013158
  0
VERTEX
  8
0
 10
223.055775
 20
394.445537
 42
-0.022041
  0
VERTEX
  8
0
 10
220.833571
 20
396.815534
 42
-0.086175
  0
VERTEX
  8
0
 10
219.810222
 20
398.533525
 42
-0.264973
  0
VERTEX
  8
0
 10
219.964036
 20
399.532714
 42
-0.228879
  0
VERTEX
  8
0
 10
220.931372
 20
400.000000
 42
-0.069665
  0
VERTEX
  8
0
 10
221.500512
 20
399.920315
 42
-0.002190
  0
VERTEX
  8
0
 10
223.757427
 20
399.264992
 42
-0.004226
  0
VERTEX
  8
0
 10
226.413894
 20
398.456550
 42
-0.002913
  0
SEQEND
  0
POLYLINE
  8
0
 66
1
 70
1
  0
VERTEX
  8
0
 10
386.000000
 20
384.253217
 42
0.026396
  0
VERTEX
  8
0
 10
381.357360
 20
380.331984
 42
0.012450
  0
VERTEX
  8
0
 10
375.772485
 20
374.817706
 42
0.012021
  0
VERTEX
  8
0
 10
370.620537
 20
369.207216
 42
0.038940
  0
VERTEX
  8
0
 10
367.599317
 20
365.157328
 42
0.048270
  0
VERTEX
  8
0
 10
365.144483
 20
360.284061
 42
0.034059
  0
VERTEX
  8
0
 10
363.318897
 20
354.425482
 42
0.033989
  0
VERTEX
  8
0
 10
362.301667
 20
348.355019
 42
0.047161
  0
VERTEX
  8
0
 10
362.280592
 20
342.842203
 42
0.033060
  0
VERTEX
  8
0
 10
362.736355
 20
339.954290
 42
0.017321
  0
VERTEX
  8
0
 10
363.662482
 20
336.434111
 42
0.016204
  0
VERTEX
  8
0
 10
364.943480
 20
332.623572
 42
0.015261
  0
VERTEX
  8
0
 10
366.492230
 20
328.825921
 42
-0.005816
  0
VERTEX
  8
0
 10
368.046780
 20
325.210864
 42
-0.004474
  0
VERTEX
  8
0
 10
369.662191
 20
321.230505
 42
-0.004525
  0
VERTEX
  8
0
 10
371.105671
 20
317.481533
 42
-0.010741
  0
VERTEX
  8
0
 10
372.093942
 20
314.660906
 42
-0.041088
  0
VERTEX
  8
0
 10
373.290836
 20
309.626173
 42
-0.025005
  0
VERTEX
  8
0
 10
373.909459
 20
303.538118
 42
-0.021807
  0
VERTEX
  8
0
 10
373.952737
 20
297.887163
 42
-0.132940
  0
VERTEX
  8
0
 10
373.096491
 20
295.121885
 42
-0.166504
  0
VERTEX
  8
0
 10
372.153345
 20
294.365099
 42
-0.239953
  0
VERTEX
  8
0
 10
371.111353
 20
294.495792
 42
-0.159684
  0
VERTEX
  8
0
 10
370.286052
 20
295.562862
 42
-0.085616
  0
VERTEX
  8
0
 10
370.000000
 20
297.221159
 42
0.110907
  0
VERTEX
  8
0
 10
369.405066
 20
299.870288
 42
0.022643
  0
VERTEX
  8
0
 10
367.142539
 20
304.141849
 42
0.020553
  0
VERTEX
  8
0
 10
363.759330
 20
309.379890
 42
0.011728
  0
VERTEX
  8
0
 10
359.271271
 20
315.432585
 42
-0.029568
  0
VERTEX
  8
0
 10
354.339712
 20
322.604431
 42
-0.040208
  0
VERTEX
  8
0
 10
350.834412
 20
329.628454
 42
-0.043976
  0
VERTEX
  8
0
 10
348.727564
 20
336.571558
 42
-0.049589
  0
VERTEX
  8
0
 10
347.979021
 20
343.500000
 42
0.004203
  0
VERTEX
  8
0
 10
347.925278
 20
346.673730
 42
0.116060
  0
VERTEX
  8
0
 10
347.715616
 20
347.473360
 42
0.502283
  0
VERTEX
  8
0
 10
347.307142
 20
347.536073
 42
0.033392
  0
VERTEX
  8
0
 10
346.388429
 20
346.500000
 42
0.040143
  0
VERTEX
  8
0
 10
343.942470
 20
342.753859
 42
0.025651
  0
VERTEX
  8
0
 10
341.694022
 20
338.062092
 42
0.025396
  0
VERTEX
  8
0
 10
339.904298
 20
333.079195
 42
0.034913
  0
VERTEX
  8
0
 10
338.846213
 20
328.440095
 42
0.031591
  0
VERTEX
  8
0
 10
338.439420
 20
323.996136
 42
0.029502
  0
VERTEX
  8
0
 10
338.580319
 20
319.432466
 42
0.027320
  0
VERTEX
  8
0
 10
339.283767
 20
314.597477
 42
0.020089
  0
VERTEX
  8
0
 10
340.567398
 20
309.335620
 42
-0.148749
  0
VERTEX
  8
0
 10
340.541090
 20
307.679600
 42
-0.160694
  0
VERTEX
  8
0
 10
339.592380
 20
306.378094
 42
-0.086395
  0
VERTEX
  8
0
 10
337.475649
 20
305.355881
 42
-0.023025
  0
VERTEX
  8
0
 10
333.817058
 20
304.493503
 42
-0.024625
  0
VERTEX
  8
0
 10
331.753343
 20
304.210661
 42
-0.104322
  0
VERTEX
  8
0
 10
330.522049
 20
304.360287
 42
-0.124409
  0
VERTEX
  8
0
 10
329.571367
 20
304.978217
 42
-0.041735
  0
VERTEX
  8
0
 10
328.543833
 20
306.292758
 42
-0.056614
  0
VERTEX
  8
0
 10
327.814453
 20
307.739619
 42
-0.012761
  0
VERTEX
  8
0
 10
326.924476
 20
310.352349
 42
-0.013069
  0
VERTEX
  8
0
 10
326.048294
 20
313.438274
 42
-0.012336
  0
VERTEX
  8
0
 10
325.315997
 20
316.625493
 42
-0.058157
  0
VERTEX
  8
0
 10
324.432205
 20
326.999532
 42
-0.057635
  0
VERTEX
  8
0
 10
325.955016
 20
337.331223
 42
-0.052737
  0
VERTEX
  8
0
 10
329.981960
 20
347.811151
 42
-0.036904
  0
VERTEX
  8
0
 10
336.557492
 20
358.632772
 42
-0.057540
  0
VERTEX
  8
0
 10
344.921943
 20
367.890732
 42
-0.042399
  0
VERTEX
  8
0
 10
356.045147
 20
376.109633
 42
-0.041996
  0
VERTEX
  8
0
 10
368.538230
 20
382.419078
 42
-0.052775
  0
VERTEX
  8
0
 10
381.000000
 20
385.979230
 42
-0.004743
  0
VERTEX
  8
0
 10
386.537137
 20
386.891766
 42
-0.122163
  0
VERTEX
  8
0
 10
388.040540
 20
386.757194
 42
-0.565191
  0
VERTEX
  8
0
 10
388.182147
 20
386.091306
 42
-0.025729
  0
SEQEND
  0
POLYLINE
  8
0
 66
1
 70
1
  0
VERTEX
  8
0
 10
215.865630
 20
346.739463
 42
-0.009585
  0
VERTEX
  8
0
 10
217.090919
 20
344.021233
 42
-0.007379
  0
VERTEX
  8
0
 10
218.326768
 20
341.010967
 42
-0.007469
  0
VERTEX
  8
0
 10
219.398715
 20
338.161953
 42
-0.017612
  0
VERTEX
  8
0
 10
220.090556
 20
336.000000
 42
-0.056186
  0
VERTEX
  8
0
 10
221.004235
 20
330.417707
 42
-0.011357
  0
VERTEX
  8
0
 10
221.278626
 20
320.358071
 42
-0.011552
  0
VERTEX
  8
0
 10
221.091747
 20
310.282204
 42
-0.052851
  0
VERTEX
  8
0
 10
220.234104
 20
304.500000
 42
0.001814
  0
VERTEX
  8
0
 10
219.789022
 20
302.751277
 42
0.001317
  0
VERTEX
  8
0
 10
219.305806
 20
300.801726
 42
0.001330
  0
VERTEX
  8
0
 10
218.856934
 20
298.948776
 42
0.002914
  0
VERTEX
  8
0
 10
218.525298
 20
297.527154
 42
0.004341
  0
VERTEX
  8
0
 10
218.082081
 20
295.494349
 42
0.285641
  0
VERTEX
  8
0
 10
218.200051
 20
295.171641
 42
0.358503
  0
VERTEX
  8
0
 10
218.508865
 20
295.179239
 42
0.005627
  0
VERTEX
  8
0
 10
219.925017
 20
296.432141
 42
-0.066813
  0
VERTEX
  8
0
 10
221.438663
 20
297.472435
 42
-0.677068
  0
VERTEX
  8
0
 10
221.839870
 20
297.119391
 42
-0.066389
  0
VERTEX
  8
0
 10
220.792687
 20
295.076898
 42
-0.010599
  0
VERTEX
  8
0
 10
218.150476
 20
291.434211
 42
0.026815
  0
VERTEX
  8
0
 10
205.429971
 20
272.644467
 42
0.046563
  0
VERTEX
  8
0
 10
197.268249
 20
255.680987
 42
0.053222
  0
VERTEX
  8
0
 10
193.080371
 20
239.213934
 42
0.051076
  0
VERTEX
  8
0
 10
192.380563
 20
222.000000
 42
0.011493
  0
VERTEX
  8
0
 10
192.722448
 20
217.959684
 42
0.009512
  0
VERTEX
  8
0
 10
193.267044
 20
213.675000
 42
0.009634
  0
VERTEX
  8
0
 10
193.917094
 20
209.764245
 42
0.025324
  0
VERTEX
  8
0
 10
194.577807
 20
207.000000
 42
-0.005188
  0
VERTEX
  8
0
 10
195.233702
 20
204.674291
 42
-0.004566
  0
VERTEX
  8
0
 10
195.870698
 20
202.234375
 42
-0.004591
  0
VERTEX
  8
0
 10
196.405023
 20
200.022786
 42
-0.013780
  0
VERTEX
  8
0
 10
196.714215
 20
198.500000
 42
0.000000
  0
VERTEX
  8
0
 10
197.237721
 20
195.500000
 42
0.000000
  0
VERTEX
  8
0
 10
193.509824
 20
199.000000
 42
-0.031443
  0
VERTEX
  8
0
 10
190.142859
 20
202.584948
 42
-0.031795
  0
VERTEX
  8
0
 10
187.265575
 20
206.551031
 42
-0.028731
  0
VERTEX
  8
0
 10
184.683484
 20
211.204232
 42
-0.018316
  0
VERTEX
  8
0
 10
182.201019
 20
216.876609
 42
-0.022425
  0
VERTEX
  8
0
 10
180.753877
 20
221.086991
 42
-0.039678
  0
VERTEX
  8
0
 10
179.999835
 20
224.679298
 42
-0.026280
  0
VERTEX
  8
0
 10
179.657715
 20
229.230082
 42
-0.005058
  0
VERTEX
  8
0
 10
179.555395
 20
237.500000
 42
-0.005645
  0
VERTEX
  8
0
 10
179.630486
 20
245.811314
 42
-0.025809
  0
VERTEX
  8
0
 10
179.977458
 20
250.626679
 42
-0.034113
  0
VERTEX
  8
0
 10
180.773729
 20
254.728627
 42
-0.015245
  0
VERTEX
  8
0
 10
182.349195
 20
260.000000
 42
-0.016057
  0
VERTEX
  8
0
 10
183.774257
 20
263.867672
 42
-0.008876
  0
VERTEX
  8
0
 10
185.748535
 20
268.500000
 42
-0.008842
  0
VERTEX
  8
0
 10
187.917927
 20
273.128255
 42
-0.014054
  0
VERTEX
  8
0
 10
189.953859
 20
277.000000
 42
0.009482
  0
VERTEX
  8
0
 10
198.047659
 20
292.056264
 42
0.024089
  0
VERTEX
  8
0
 10
203.176399
 20
303.354744
 42
0.028345
  0
VERTEX
  8
0
 10
206.705399
 20
313.958532
 42
0.018612
  0
VERTEX
  8
0
 10
209.607276
 20
326.500000
 42
0.033239
  0
VERTEX
  8
0
 10
210.424316
 20
333.070814
 42
0.017042
  0
VERTEX
  8
0
 10
210.616781
 20
341.374577
 42
0.015396
  0
VERTEX
  8
0
 10
210.288150
 20
349.251460
 42
0.073613
  0
VERTEX
  8
0
 10
209.311326
 20
353.631081
 42
-0.031055
  0
VERTEX
  8
0
 10
209.048191
 20
354.468895
 42
-0.395008
  0
VERTEX
  8
0
 10
209.195586
 20
354.732300
 42
-0.190839
  0
VERTEX
  8
0
 10
209.623343
 20
354.702780
 42
-0.011338
  0
VERTEX
  8
0
 10
210.802316
 20
354.105797
 42
-0.098665
  0
VERTEX
  8
0
 10
211.800433
 20
353.285215
 42
-0.020958
  0
VERTEX
  8
0
 10
213.158215
 20
351.477102
 42
-0.021162
  0
VERTEX
  8
0
 10
214.578720
 20
349.210727
 42
-0.018726
  0
SEQEND
  0
POLYLINE
  8
0
 66
1
 70
1
  0
VERTEX
  8
0
 10
744.462764
 20
812.250000
 42
0.001157
  0
VERTEX
  8
0
 10
742.844006
 20
809.827347
 42
0.000098
  0
VERTEX
  8
0
 10
738.693266
 20
803.581420
 42
0.000130
  0
VERTEX
  8
0
 10
733.745318
 20
796.128507
 42
0.000101
  0
VERTEX
  8
0
 10
728.358156
 20
788.005898
 42
-0.001692
  0
VERTEX
  8
0
 10
722.842148
 20
779.746228
 42
-0.001928
  0
VERTEX
  8
0
 10
717.503379
 20
771.875939
 42
-0.001746
  0
VERTEX
  8
0
 10
712.921357
 20
765.226906
 42
-0.010828
  0
VERTEX
  8
0
 10
710.484468
 20
761.874354
 42
0.007482
  0
VERTEX
  8
0
 10
707.035732
 20
757.195891
 42
0.032547
  0
VERTEX
  8
0
 10
705.221225
 20
754.270547
 42
0.054921
  0
VERTEX
  8
0
 10
704.308810
 20
751.988722
 42
0.067767
  0
VERTEX
  8
0
 10
704.000000
 20
749.720729
 42
0.122147
  0
VERTEX
  8
0
 10
704.666640
 20
747.032601
 42
0.155484
  0
VERTEX
  8
0
 10
706.480169
 20
745.252423
 42
0.092031
  0
VERTEX
  8
0
 10
709.820624
 20
744.277103
 42
0.025138
  0
VERTEX
  8
0
 10
715.328741
 20
744.000000
 42
-0.009367
  0
VERTEX
  8
0
 10
718.803209
 20
743.934904
 42
-0.029060
  0
VERTEX
  8
0
 10
721.136003
 20
743.711276
 42
-0.041932
  0
VERTEX
  8
0
 10
722.608356
 20
743.354883
 42
-0.322946
  0
VERTEX
  8
0
 10
723.000000
 20
742.811760
 42
-0.163336
  0
VERTEX
  8
0
 10
722.267393
 20
740.628959
 42
-0.003915
  0
VERTEX
  8
0
 10
715.654657
 20
732.028135
 42
-0.009058
  0
VERTEX
  8
0
 10
709.051847
 20
723.886390
 42
-0.029833
  0
VERTEX
  8
0
 10
704.294040
 20
718.872189
 42
-0.034129
  0
VERTEX
  8
0
 10
697.950901
 20
713.703283
 42
-0.032928
  0
VERTEX
  8
0
 10
690.889637
 20
709.377036
 42
-0.030256
  0
VERTEX
  8
0
 10
684.497717
 20
706.496776
 42
-0.233205
  0
VERTEX
  8
0
 10
681.322920
 20
706.800425
 42
-0.095609
  0
VERTEX
  8
0
 10
679.194928
 20
708.759973
 42
-0.008120
  0
VERTEX
  8
0
 10
674.855980
 20
714.841481
 42
-0.006314
  0
VERTEX
  8
0
 10
670.613352
 20
721.166477
 42
-0.145568
  0
VERTEX
  8
0
 10
670.000000
 20
723.228587
 42
-0.098332
  0
VERTEX
  8
0
 10
670.155497
 20
724.011619
 42
-0.138317
  0
VERTEX
  8
0
 10
670.593638
 20
724.568123
 42
-0.109760
  0
VERTEX
  8
0
 10
671.345805
 20
724.895311
 42
-0.047952
  0
VERTEX
  8
0
 10
672.434900
 20
725.000000
 42
0.049395
  0
VERTEX
  8
0
 10
675.463148
 20
725.299890
 42
0.079944
  0
VERTEX
  8
0
 10
677.882975
 20
726.202348
 42
0.105622
  0
VERTEX
  8
0
 10
679.439819
 20
727.587142
 42
0.159676
  0
VERTEX
  8
0
 10
680.000000
 20
729.296540
 42
0.128652
  0
VERTEX
  8
0
 10
679.372464
 20
731.695065
 42
0.005114
  0
VERTEX
  8
0
 10
674.823252
 20
739.603253
 42
0.009526
  0
VERTEX
  8
0
 10
670.137161
 20
747.224135
 42
0.032594
  0
VERTEX
  8
0
 10
666.685895
 20
751.903150
 42
-0.033343
  0
VERTEX
  8
0
 10
665.845867
 20
753.045584
 42
-0.001787
  0
VERTEX
  8
0
 10
663.440767
 20
756.849675
 42
-0.002791
  0
VERTEX
  8
0
 10
660.619423
 20
761.403919
 42
-0.002030
  0
VERTEX
  8
0
 10
657.530018
 20
766.500000
 42
0.005989
  0
VERTEX
  8
0
 10
650.398166
 20
778.056834
 42
0.033073
  0
VERTEX
  8
0
 10
646.086386
 20
783.958077
 42
0.067491
  0
VERTEX
  8
0
 10
642.753754
 20
786.994309
 42
0.152188
  0
VERTEX
  8
0
 10
639.526169
 20
788.000000
 42
0.159698
  0
VERTEX
  8
0
 10
636.187717
 20
786.905807
 42
0.058181
  0
VERTEX
  8
0
 10
632.499501
 20
783.472132
 42
0.026773
  0
VERTEX
  8
0
 10
627.335556
 20
776.698446
 42
0.004029
  0
VERTEX
  8
0
 10
617.833622
 20
762.500000
 42
-0.002630
  0
VERTEX
  8
0
 10
613.427076
 20
755.875411
 42
-0.002519
  0
VERTEX
  8
0
 10
608.887985
 20
749.201631
 42
-0.002494
  0
VERTEX
  8
0
 10
604.823891
 20
743.353204
 42
-0.009061
  0
VERTEX
  8
0
 10
602.155852
 20
739.697042
 42
0.030609
  0
VERTEX
  8
0
 10
597.845559
 20
733.222158
 42
0.170184
  0
VERTEX
  8
0
 10
597.072732
 20
729.181755
 42
0.285451
  0
VERTEX
  8
0
 10
599.097653
 20
726.798365
 42
0.077762
  0
VERTEX
  8
0
 10
604.200000
 20
726.000000
 42
-0.013392
  0
VERTEX
  8
0
 10
606.733628
 20
725.932129
 42
-0.074404
  0
VERTEX
  8
0
 10
608.063500
 20
725.659647
 42
-0.164808
  0
VERTEX
  8
0
 10
608.735792
 20
725.118974
 42
-0.144877
  0
VERTEX
  8
0
 10
608.984780
 20
724.250000
 42
-0.157184
  0
VERTEX
  8
0
 10
608.271774
 20
722.102121
 42
-0.004708
  0
VERTEX
  8
0
 10
602.543680
 20
714.436656
 42
-0.010019
  0
VERTEX
  8
0
 10
596.161812
 20
706.401128
 42
-0.012308
  0
VERTEX
  8
0
 10
589.875040
 20
699.172895
 42
0.015733
  0
VERTEX
  8
0
 10
587.655689
 20
696.585624
 42
0.034375
  0
VERTEX
  8
0
 10
586.162516
 20
694.443830
 42
0.045736
  0
VERTEX
  8
0
 10
585.285257
 20
692.621662
 42
0.089558
  0
VERTEX
  8
0
 10
585.000000
 20
691.041857
 42
0.106119
  0
VERTEX
  8
0
 10
585.593161
 20
688.278531
 42
0.178624
  0
VERTEX
  8
0
 10
587.235258
 20
686.606653
 42
0.100274
  0
VERTEX
  8
0
 10
590.374788
 20
685.835081
 42
0.021495
  0
VERTEX
  8
0
 10
596.012667
 20
685.845675
 42
-0.007892
  0
VERTEX
  8
0
 10
599.994624
 20
685.961497
 42
-0.037490
  0
VERTEX
  8
0
 10
602.268322
 20
685.821143
 42
-0.074397
  0
VERTEX
  8
0
 10
603.609135
 20
685.428147
 42
-0.195109
  0
VERTEX
  8
0
 10
604.281381
 20
684.709116
 42
-0.221897
  0
VERTEX
  8
0
 10
604.133333
 20
682.606976
 42
-0.018396
  0
VERTEX
  8
0
 10
601.225225
 20
677.797242
 42
-0.022976
  0
VERTEX
  8
0
 10
597.281085
 20
672.348335
 42
-0.019652
  0
VERTEX
  8
0
 10
592.651810
 20
666.981970
 42
0.014381
  0
VERTEX
  8
0
 10
588.128090
 20
661.848363
 42
0.005664
  0
VERTEX
  8
0
 10
582.186724
 20
654.534797
 42
0.002658
  0
VERTEX
  8
0
 10
576.301511
 20
647.038802
 42
0.081150
  0
VERTEX
  8
0
 10
575.166667
 20
644.953247
 42
0.444334
  0
VERTEX
  8
0
 10
575.379533
 20
644.563479
 42
0.020692
  0
VERTEX
  8
0
 10
577.033999
 20
644.239662
 42
0.022305
  0
VERTEX
  8
0
 10
579.312547
 20
643.994235
 42
0.011641
  0
VERTEX
  8
0
 10
582.166667
 20
643.881685
 42
-0.011318
  0
VERTEX
  8
0
 10
587.874738
 20
643.660288
 42
-0.029558
  0
VERTEX
  8
0
 10
591.949543
 20
643.166883
 42
-0.038935
  0
VERTEX
  8
0
 10
594.686215
 20
642.446399
 42
-0.232690
  0
VERTEX
  8
0
 10
595.692144
 20
641.426075
 42
-0.193887
  0
VERTEX
  8
0
 10
595.651268
 20
640.767340
 42
-0.017035
  0
VERTEX
  8
0
 10
594.865670
 20
639.254880
 42
-0.020351
  0
VERTEX
  8
0
 10
593.757808
 20
637.463325
 42
-0.014401
  0
VERTEX
  8
0
 10
592.377102
 20
635.542839
 42
-0.094798
  0
VERTEX
  8
0
 10
586.313383
 20
630.120196
 42
-0.043263
  0
VERTEX
  8
0
 10
576.726749
 20
625.440270
 42
-0.021381
  0
VERTEX
  8
0
 10
560.541294
 20
619.988200
 42
-0.003444
  0
VERTEX
  8
0
 10
528.500000
 20
610.938482
 42
0.004444
  0
VERTEX
  8
0
 10
513.545284
 20
606.682365
 42
0.025627
  0
VERTEX
  8
0
 10
505.786627
 20
603.960523
 42
0.047177
  0
VERTEX
  8
0
 10
500.685621
 20
601.285884
 42
0.049097
  0
VERTEX
  8
0
 10
496.250000
 20
597.733136
 42
0.017456
  0
VERTEX
  8
0
 10
493.959609
 20
595.335127
 42
0.062835
  0
VERTEX
  8
0
 10
492.764227
 20
593.595446
 42
0.079547
  0
VERTEX
  8
0
 10
492.186307
 20
591.838402
 42
0.039773
  0
VERTEX
  8
0
 10
492.000000
 20
589.500000
 42
0.039519
  0
VERTEX
  8
0
 10
492.185219
 20
587.160259
 42
0.080429
  0
VERTEX
  8
0
 10
492.761160
 20
585.413571
 42
0.063657
  0
VERTEX
  8
0
 10
493.954808
 20
583.691690
 42
0.017532
  0
VERTEX
  8
0
 10
496.250000
 20
581.316949
 42
0.015047
  0
VERTEX
  8
0
 10
498.097171
 20
579.639506
 42
0.012992
  0
VERTEX
  8
0
 10
500.132812
 20
577.989294
 42
0.013180
  0
VERTEX
  8
0
 10
502.057230
 20
576.589512
 42
0.036604
  0
VERTEX
  8
0
 10
503.500000
 20
575.745460
 42
0.031436
  0
VERTEX
  8
0
 10
508.078529
 20
573.845707
 42
0.005194
  0
VERTEX
  8
0
 10
517.157276
 20
570.836414
 42
0.005086
  0
VERTEX
  8
0
 10
528.884593
 20
567.215035
 42
0.002853
  0
VERTEX
  8
0
 10
543.205482
 20
563.040647
 42
-0.006949
  0
VERTEX
  8
0
 10
561.148005
 20
557.650735
 42
-0.017410
  0
VERTEX
  8
0
 10
574.032472
 20
553.085240
 42
-0.023681
  0
VERTEX
  8
0
 10
583.598654
 20
548.782161
 42
-0.043592
  0
VERTEX
  8
0
 10
590.837829
 20
544.271869
 42
-0.059770
  0
VERTEX
  8
0
 10
593.956009
 20
541.286063
 42
-0.025293
  0
VERTEX
  8
0
 10
597.407695
 20
536.621999
 42
-0.024936
  0
VERTEX
  8
0
 10
600.328301
 20
531.712720
 42
-0.072480
  0
VERTEX
  8
0
 10
601.649461
 20
528.002693
 42
-0.133448
  0
VERTEX
  8
0
 10
601.159830
 20
520.806297
 42
-0.082752
  0
VERTEX
  8
0
 10
597.085774
 20
513.320195
 42
-0.067486
  0
VERTEX
  8
0
 10
589.817008
 20
506.236452
 42
-0.046373
  0
VERTEX
  8
0
 10
579.962289
 20
500.261262
 42
-0.024340
  0
VERTEX
  8
0
 10
574.820469
 20
498.064825
 42
-0.006452
  0
VERTEX
  8
0
 10
566.409457
 20
495.069343
 42
-0.006061
  0
VERTEX
  8
0
 10
556.097398
 20
491.685115
 42
-0.004310
  0
VERTEX
  8
0
 10
544.462289
 20
488.132233
 42
0.002468
  0
VERTEX
  8
0
 10
518.109099
 20
480.191070
 42
0.021255
  0
VERTEX
  8
0
 10
506.525680
 20
476.092001
 42
0.047205
  0
VERTEX
  8
0
 10
499.400754
 20
472.410126
 42
0.050493
  0
VERTEX
  8
0
 10
493.265911
 20
467.527708
 42
0.008335
  0
VERTEX
  8
0
 10
489.448767
 20
463.676988
 42
0.060893
  0
VERTEX
  8
0
 10
487.894423
 20
461.601124
 42
0.095619
  0
VERTEX
  8
0
 10
487.209476
 20
459.604151
 42
0.034954
  0
VERTEX
  8
0
 10
487.000000
 20
456.611355
 42
0.064962
  0
VERTEX
  8
0
 10
487.548712
 20
452.405816
 42
0.085660
  0
VERTEX
  8
0
 10
489.159121
 20
448.897964
 42
0.069700
  0
VERTEX
  8
0
 10
492.141922
 20
445.634286
 42
0.029350
  0
VERTEX
  8
0
 10
496.946176
 20
442.113185
 42
0.044235
  0
VERTEX
  8
0
 10
503.570084
 20
438.619289
 42
0.019054
  0
VERTEX
  8
0
 10
512.927545
 20
435.109259
 42
0.011749
  0
VERTEX
  8
0
 10
526.912054
 20
430.825273
 42
0.002920
  0
VERTEX
  8
0
 10
550.000000
 20
424.487043
 42
-0.002763
  0
VERTEX
  8
0
 10
574.235123
 20
417.842068
 42
-0.010002
  0
VERTEX
  8
0
 10
589.543940
 20
413.221330
 42
-0.015253
  0
VERTEX
  8
0
 10
600.793641
 20
409.195681
 42
-0.019655
  0
VERTEX
  8
0
 10
610.845579
 20
404.785455
 42
-0.053812
  0
VERTEX
  8
0
 10
625.910981
 20
395.334375
 42
-0.089955
  0
VERTEX
  8
0
 10
635.787075
 20
384.154829
 42
-0.114051
  0
VERTEX
  8
0
 10
639.700630
 20
372.226590
 42
-0.132623
  0
VERTEX
  8
0
 10
637.641754
 20
360.500000
 42
-0.092819
  0
VERTEX
  8
0
 10
631.894990
 20
352.494659
 42
-0.061138
  0
VERTEX
  8
0
 10
622.783902
 20
345.697603
 42
-0.038764
  0
VERTEX
  8
0
 10
608.558584
 20
338.977383
 42
-0.011430
  0
VERTEX
  8
0
 10
585.815719
 20
330.907176
 42
0.002708
  0
VERTEX
  8
0
 10
576.433486
 20
327.761081
 42
0.003471
  0
VERTEX
  8
0
 10
567.834228
 20
324.758816
 42
0.002683
  0
VERTEX
  8
0
 10
560.661409
 20
322.155089
 42
0.029551
  0
VERTEX
  8
0
 10
557.860909
 20
320.929041
 42
0.036118
  0
VERTEX
  8
0
 10
555.822824
 20
319.696387
 42
0.013451
  0
VERTEX
  8
0
 10
553.142510
 20
317.688024
 42
0.013247
  0
VERTEX
  8
0
 10
550.327077
 20
315.333673
 42
0.015617
  0
VERTEX
  8
0
 10
547.795190
 20
312.955190
 42
0.009471
  0
VERTEX
  8
0
 10
544.305411
 20
309.330642
 42
0.062680
  0
VERTEX
  8
0
 10
542.843074
 20
307.292308
 42
0.092163
  0
VERTEX
  8
0
 10
542.195859
 20
305.294664
 42
0.032389
  0
VERTEX
  8
0
 10
542.000000
 20
302.274280
 42
0.057086
  0
VERTEX
  8
0
 10
542.431222
 20
298.509658
 42
0.073140
  0
VERTEX
  8
0
 10
543.704479
 20
295.266586
 42
0.059360
  0
VERTEX
  8
0
 10
546.091254
 20
292.052311
 42
0.024694
  0
VERTEX
  8
0
 10
550.000000
 20
288.306477
 42
0.039543
  0
VERTEX
  8
0
 10
554.039101
 20
285.326132
 42
0.026357
  0
VERTEX
  8
0
 10
559.077690
 20
282.547658
 42
0.015294
  0
VERTEX
  8
0
 10
566.631849
 20
279.168195
 42
0.003291
  0
VERTEX
  8
0
 10
579.927750
 20
273.803724
 42
-0.014235
  0
VERTEX
  8
0
 10
603.272825
 20
263.785230
 42
-0.042969
  0
VERTEX
  8
0
 10
618.287551
 20
255.193691
 42
-0.061128
  0
VERTEX
  8
0
 10
628.462290
 20
246.129786
 42
-0.063890
  0
VERTEX
  8
0
 10
635.968644
 20
235.000000
 42
-0.055265
  0
VERTEX
  8
0
 10
638.783196
 20
227.415440
 42
-0.070042
  0
VERTEX
  8
0
 10
639.566230
 20
219.990009
 42
-0.064976
  0
VERTEX
  8
0
 10
638.274420
 20
212.210910
 42
-0.039854
  0
VERTEX
  8
0
 10
634.873932
 20
203.546535
 42
-0.036116
  0
VERTEX
  8
0
 10
632.659067
 20
199.730257
 42
-0.006590
  0
VERTEX
  8
0
 10
627.967912
 20
193.035971
 42
-0.006768
  0
VERTEX
  8
0
 10
622.050618
 20
185.054469
 42
-0.005016
  0
VERTEX
  8
0
 10
615.303456
 20
176.388202
 42
0.002432
  0
VERTEX
  8
0
 10
604.093265
 20
162.142004
 42
0.008670
  0
VERTEX
  8
0
 10
597.122186
 20
152.866399
 42
0.013402
  0
VERTEX
  8
0
 10
592.446462
 20
146.037028
 42
0.025792
  0
VERTEX
  8
0
 10
589.140754
 20
140.289838
 42
0.027591
  0
VERTEX
  8
0
 10
587.812627
 20
137.277324
 42
0.050013
  0
VERTEX
  8
0
 10
587.120552
 20
134.677069
 42
0.068545
  0
VERTEX
  8
0
 10
587.074812
 20
132.715091
 42
0.236946
  0
VERTEX
  8
0
 10
587.750000
 20
131.682005
 42
0.117594
  0
VERTEX
  8
0
 10
588.373809
 20
131.494156
 42
0.000847
  0
VERTEX
  8
0
 10
593.860937
 20
131.182758
 42
0.003167
  0
VERTEX
  8
0
 10
600.162949
 20
130.875847
 42
0.002016
  0
VERTEX
  8
0
 10
607.500000
 20
130.594735
 42
0.004257
  0
VERTEX
  8
0
 10
616.438650
 20
130.364536
 42
0.009825
  0
VERTEX
  8
0
 10
623.158630
 20
130.380782
 42
0.012466
  0
VERTEX
  8
0
 10
628.187908
 20
130.617319
 42
0.040024
  0
VERTEX
  8
0
 10
631.500000
 20
131.124444
 42
-0.044003
  0
VERTEX
  8
0
 10
637.166280
 20
131.946018
 42
-0.020147
  0
VERTEX
  8
0
 10
644.641929
 20
132.063785
 42
-0.019091
  0
VERTEX
  8
0
 10
652.900595
 20
131.545174
 42
-0.019251
  0
VERTEX
  8
0
 10
661.072423
 20
130.398687
 42
0.018451
  0
VERTEX
  8
0
 10
666.075425
 20
129.688619
 42
0.016193
  0
VERTEX
  8
0
 10
671.340159
 20
129.310461
 42
0.012764
  0
VERTEX
  8
0
 10
677.666526
 20
129.223175
 42
0.005551
  0
VERTEX
  8
0
 10
686.072423
 20
129.415121
 42
-0.004822
  0
VERTEX
  8
0
 10
695.976573
 20
129.655711
 42
-0.000651
  0
VERTEX
  8
0
 10
716.768149
 20
129.933083
 42
-0.000751
  0
VERTEX
  8
0
 10
741.409023
 20
130.192684
 42
-0.000633
  0
VERTEX
  8
0
 10
767.500000
 20
130.395336
 42
0.001412
  0
VERTEX
  8
0
 10
820.836383
 20
130.892769
 42
0.011392
  0
VERTEX
  8
0
 10
845.322177
 20
131.748479
 42
0.021221
  0
VERTEX
  8
0
 10
859.387222
 20
133.161838
 42
0.150763
  0
VERTEX
  8
0
 10
865.510088
 20
136.058288
 42
-0.045975
  0
VERTEX
  8
0
 10
866.668028
 20
136.937185
 42
-0.011861
  0
VERTEX
  8
0
 10
868.689250
 20
138.131367
 42
-0.011969
  0
VERTEX
  8
0
 10
871.069477
 20
139.388709
 42
-0.011924
  0
VERTEX
  8
0
 10
873.510088
 20
140.532353
 42
0.023986
  0
VERTEX
  8
0
 10
878.282707
 20
142.910756
 42
0.054184
  0
VERTEX
  8
0
 10
881.568589
 20
145.249378
 42
0.055845
  0
VERTEX
  8
0
 10
884.215936
 20
148.193252
 42
0.026918
  0
VERTEX
  8
0
 10
886.944216
 20
152.477821
 42
0.061558
  0
VERTEX
  8
0
 10
889.572531
 20
158.867626
 42
0.038342
  0
VERTEX
  8
0
 10
891.109419
 20
166.831930
 42
0.022772
  0
VERTEX
  8
0
 10
891.905101
 20
178.438528
 42
0.005370
  0
VERTEX
  8
0
 10
892.141753
 20
197.879355
 42
-0.001098
  0
VERTEX
  8
0
 10
892.336798
 20
251.623663
 42
-0.001303
  0
VERTEX
  8
0
 10
892.764726
 20
302.384095
 42
-0.000171
  0
VERTEX
  8
0
 10
893.308620
 20
350.184575
 42
-0.085858
  0
VERTEX
  8
0
 10
893.855180
 20
353.137550
 42
0.067795
  0
VERTEX
  8
0
 10
894.113516
 20
354.298626
 42
0.022446
  0
VERTEX
  8
0
 10
894.181140
 20
356.046796
 42
0.021881
  0
VERTEX
  8
0
 10
894.082734
 20
358.014199
 42
0.023182
  0
VERTEX
  8
0
 10
893.812937
 20
359.927500
 42
-0.040638
  0
VERTEX
  8
0
 10
893.466995
 20
363.203393
 42
-0.001366
  0
VERTEX
  8
0
 10
893.190164
 20
376.228703
 42
-0.002577
  0
VERTEX
  8
0
 10
892.984476
 20
391.618319
 42
-0.001792
  0
VERTEX
  8
0
 10
892.904070
 20
409.000000
 42
0.000513
  0
VERTEX
  8
0
 10
892.854229
 20
433.104491
 42
0.000127
  0
VERTEX
  8
0
 10
892.721835
 20
472.652350
 42
0.000130
  0
VERTEX
  8
0
 10
892.547006
 20
517.937185
 42
0.000130
  0
VERTEX
  8
0
 10
892.348763
 20
563.199490
 42
0.000000
  0
VERTEX
  8
0
 10
891.839792
 20
672.898981
 42
0.000000
  0
VERTEX
  8
0
 10
888.674918
 20
677.699490
 42
0.023014
  0
VERTEX
  8
0
 10
887.011350
 20
679.986443
 42
0.009129
  0
VERTEX
  8
0
 10
884.528876
 20
682.974938
 42
0.009012
  0
VERTEX
  8
0
 10
881.727511
 20
686.108712
 42
0.011178
  0
VERTEX
  8
0
 10
879.005022
 20
688.917321
 42
-0.005329
  0
VERTEX
  8
0
 10
876.404561
 20
691.537992
 42
-0.006054
  0
VERTEX
  8
0
 10
873.970225
 20
694.105586
 42
-0.005539
  0
VERTEX
  8
0
 10
871.954787
 20
696.332553
 42
-0.033276
  0
VERTEX
  8
0
 10
871.000000
 20
697.567943
 42
0.009473
  0
VERTEX
  8
0
 10
870.225064
 20
698.675785
 42
0.003408
  0
VERTEX
  8
0
 10
869.081903
 20
700.223565
 42
0.003379
  0
VERTEX
  8
0
 10
867.805873
 20
701.903052
 42
0.004003
  0
VERTEX
  8
0
 10
866.576693
 20
703.472231
 42
-0.011809
  0
VERTEX
  8
0
 10
864.750756
 20
705.879724
 42
-0.113806
  0
VERTEX
  8
0
 10
864.255424
 20
707.055795
 42
-0.151629
  0
VERTEX
  8
0
 10
864.402160
 20
708.187187
 42
-0.025912
  0
VERTEX
  8
0
 10
865.419633
 20
710.133236
 42
0.037367
  0
VERTEX
  8
0
 10
866.138649
 20
711.588630
 42
0.047169
  0
VERTEX
  8
0
 10
866.567746
 20
713.027105
 42
0.051054
  0
VERTEX
  8
0
 10
866.698428
 20
714.419053
 42
0.059444
  0
VERTEX
  8
0
 10
866.529995
 20
715.736514
 42
0.103275
  0
VERTEX
  8
0
 10
865.790966
 20
717.259704
 42
0.008699
  0
VERTEX
  8
0
 10
863.046731
 20
720.688567
 42
0.011267
  0
VERTEX
  8
0
 10
859.578603
 20
724.683914
 42
0.008472
  0
VERTEX
  8
0
 10
855.593107
 20
728.924886
 42
-0.006887
  0
VERTEX
  8
0
 10
851.451901
 20
733.303640
 42
-0.007280
  0
VERTEX
  8
0
 10
847.510130
 20
737.715435
 42
-0.006997
  0
VERTEX
  8
0
 10
844.224373
 20
741.611385
 42
-0.032588
  0
VERTEX
  8
0
 10
842.513741
 20
744.000000
 42
0.003234
  0
VERTEX
  8
0
 10
840.980219
 20
746.430825
 42
0.000793
  0
VERTEX
  8
0
 10
838.425265
 20
750.409375
 42
0.000812
  0
VERTEX
  8
0
 10
835.483160
 20
754.958594
 42
0.000811
  0
VERTEX
  8
0
 10
832.525144
 20
759.500000
 42
-0.001779
  0
VERTEX
  8
0
 10
829.532031
 20
764.114797
 42
-0.001633
  0
VERTEX
  8
0
 10
826.484567
 20
768.884375
 42
-0.001631
  0
VERTEX
  8
0
 10
823.793509
 20
773.157360
 42
-0.005374
  0
VERTEX
  8
0
 10
822.058398
 20
776.000000
 42
0.014545
  0
VERTEX
  8
0
 10
818.994501
 20
780.818597
 42
0.045394
  0
VERTEX
  8
0
 10
816.561573
 20
783.789467
 42
0.071986
  0
VERTEX
  8
0
 10
814.391301
 20
785.439900
 42
0.127292
  0
VERTEX
  8
0
 10
812.226896
 20
786.000000
 42
0.168372
  0
VERTEX
  8
0
 10
809.343202
 20
785.000603
 42
0.061575
  0
VERTEX
  8
0
 10
806.262661
 20
781.890191
 42
0.036655
  0
VERTEX
  8
0
 10
802.608110
 20
776.364171
 42
0.010261
  0
VERTEX
  8
0
 10
797.725795
 20
767.221873
 42
-0.011435
  0
VERTEX
  8
0
 10
785.266702
 20
744.022988
 42
-0.006243
  0
VERTEX
  8
0
 10
768.985041
 20
716.119921
 42
-0.001292
  0
VERTEX
  8
0
 10
751.739230
 20
687.562065
 42
-0.261993
  0
VERTEX
  8
0
 10
748.962739
 20
686.000000
 42
-0.176639
  0
VERTEX
  8
0
 10
747.498456
 20
686.533959
 42
-0.051274
  0
VERTEX
  8
0
 10
745.800362
 20
688.288691
 42
-0.051322
  0
VERTEX
  8
0
 10
744.438601
 20
690.441627
 42
-0.115872
  0
VERTEX
  8
0
 10
744.000000
 20
692.308828
 42
-0.082911
  0
VERTEX
  8
0
 10
744.205632
 20
693.540386
 42
-0.018476
  0
VERTEX
  8
0
 10
744.975377
 20
695.537783
 42
-0.018697
  0
VERTEX
  8
0
 10
746.049390
 20
697.806321
 42
-0.017090
  0
VERTEX
  8
0
 10
747.320433
 20
700.058828
 42
0.000877
  0
VERTEX
  8
0
 10
751.156031
 20
706.369058
 42
0.000074
  0
VERTEX
  8
0
 10
761.003231
 20
722.639067
 42
0.000108
  0
VERTEX
  8
0
 10
771.087490
 20
739.314501
 42
0.000255
  0
VERTEX
  8
0
 10
778.611635
 20
751.776937
 42
0.011750
  0
VERTEX
  8
0
 10
780.291956
 20
754.717404
 42
0.014536
  0
VERTEX
  8
0
 10
781.710918
 20
757.534577
 42
0.012906
  0
VERTEX
  8
0
 10
782.762378
 20
759.942522
 42
0.096774
  0
VERTEX
  8
0
 10
783.000000
 20
761.158736
 42
0.111089
  0
VERTEX
  8
0
 10
782.689317
 20
762.539836
 42
0.005023
  0
VERTEX
  8
0
 10
780.550043
 20
766.939391
 42
0.008201
  0
VERTEX
  8
0
 10
777.854991
 20
772.128364
 42
0.005761
  0
VERTEX
  8
0
 10
774.659721
 20
777.881799
 42
-0.001427
  0
VERTEX
  8
0
 10
771.113937
 20
784.138000
 42
-0.001167
  0
VERTEX
  8
0
 10
767.355888
 20
790.849653
 42
-0.001178
  0
VERTEX
  8
0
 10
763.927270
 20
797.040888
 42
-0.003100
  0
VERTEX
  8
0
 10
761.507491
 20
801.500000
 42
0.005096
  0
VERTEX
  8
0
 10
756.874964
 20
809.955988
 42
0.040707
  0
VERTEX
  8
0
 10
754.392456
 20
813.641761
 42
0.098750
  0
VERTEX
  8
0
 10
752.324641
 20
815.382822
 42
0.126406
  0
VERTEX
  8
0
 10
749.922402
 20
816.000000
 42
0.063012
  0
VERTEX
  8
0
 10
748.354388
 20
815.801604
 42
0.087758
  0
VERTEX
  8
0
 10
747.069326
 20
815.217243
 42
0.068935
  0
VERTEX
  8
0
 10
745.853516
 20
814.108206
 42
0.025576
  0
SEQEND
  0
POLYLINE
  8
0
 66
1
 70
1
  0
VERTEX
  8
0
 10
769.250000
 20
681.323386
 42
-0.344797
  0
VERTEX
  8
0
 10
769.749646
 20
680.053173
 42
-0.054292
  0
VERTEX
  8
0
 10
768.636636
 20
677.404256
 42
-0.020453
  0
VERTEX
  8
0
 10
765.719353
 20
672.615542
 42
-0.002117
  0
VERTEX
  8
0
 10
758.347548
 20
661.659944
 42
-0.004865
  0
VERTEX
  8
0
 10
749.099760
 20
648.322305
 42
-0.006138
  0
VERTEX
  8
0
 10
740.273462
 20
636.172473
 42
-0.006774
  0
VERTEX
  8
0
 10
732.278202
 20
625.743904
 42
-0.013540
  0
VERTEX
  8
0
 10
725.626882
 20
617.761861
 42
-0.029941
  0
VERTEX
  8
0
 10
721.999353
 20
614.107052
 42
-0.087584
  0
VERTEX
  8
0
 10
718.991889
 20
612.244248
 42
-0.144497
  0
VERTEX
  8
0
 10
716.438631
 20
612.006550
 42
-0.148891
  0
VERTEX
  8
0
 10
714.200000
 20
613.200000
 42
-0.197496
  0
VERTEX
  8
0
 10
713.293342
 20
615.372100
 42
-0.115159
  0
VERTEX
  8
0
 10
713.929562
 20
618.166576
 42
-0.047736
  0
VERTEX
  8
0
 10
716.499218
 20
622.371352
 42
-0.007927
  0
VERTEX
  8
0
 10
722.319163
 20
629.873140
 42
0.002708
  0
VERTEX
  8
0
 10
730.929648
 20
640.735855
 42
0.007364
  0
VERTEX
  8
0
 10
736.872023
 20
648.550901
 42
0.007464
  0
VERTEX
  8
0
 10
742.537072
 20
656.478536
 42
0.002848
  0
VERTEX
  8
0
 10
750.198576
 20
667.681393
 42
-0.005563
  0
VERTEX
  8
0
 10
756.508056
 20
676.800632
 42
-0.044772
  0
VERTEX
  8
0
 10
759.812095
 20
680.676916
 42
-0.111655
  0
VERTEX
  8
0
 10
762.419736
 20
682.286650
 42
-0.136312
  0
VERTEX
  8
0
 10
765.271509
 20
682.457134
 42
-0.007587
  0
VERTEX
  8
0
 10
766.562582
 20
682.159711
 42
-0.009005
  0
VERTEX
  8
0
 10
767.771943
 20
681.838510
 42
-0.008008
  0
VERTEX
  8
0
 10
768.780148
 20
681.533662
 42
-0.055638
  0
SEQEND
  0
POLYLINE
  8
0
 66
1
 70
1
  0
VERTEX
  8
0
 10
689.498544
 20
674.001608
 42
-0.042029
  0
VERTEX
  8
0
 10
690.296593
 20
672.955208
 42
-0.086225
  0
VERTEX
  8
0
 10
690.692632
 20
672.006667
 42
-0.097412
  0
VERTEX
  8
0
 10
690.720412
 20
671.058349
 42
-0.065739
  0
VERTEX
  8
0
 10
690.403532
 20
670.020054
 42
-0.089204
  0
VERTEX
  8
0
 10
689.485807
 20
668.694151
 42
-0.001222
  0
VERTEX
  8
0
 10
682.496671
 20
661.710903
 42
-0.003405
  0
VERTEX
  8
0
 10
674.304154
 20
653.675419
 42
-0.002229
  0
VERTEX
  8
0
 10
664.755347
 20
644.518446
 42
-0.001901
  0
VERTEX
  8
0
 10
651.099533
 20
631.637817
 42
-0.012180
  0
VERTEX
  8
0
 10
644.003250
 20
625.312327
 42
-0.019777
  0
VERTEX
  8
0
 10
639.514280
 20
621.798654
 42
-0.157425
  0
VERTEX
  8
0
 10
637.040531
 20
621.000000
 42
-0.107070
  0
VERTEX
  8
0
 10
634.831588
 20
621.478511
 42
-0.122982
  0
VERTEX
  8
0
 10
633.145450
 20
622.818183
 42
-0.125993
  0
VERTEX
  8
0
 10
632.313160
 20
624.764960
 42
-0.115679
  0
VERTEX
  8
0
 10
632.480965
 20
626.940025
 42
-0.114867
  0
VERTEX
  8
0
 10
633.157035
 20
628.078016
 42
-0.004773
  0
VERTEX
  8
0
 10
636.486653
 20
631.482092
 42
-0.008054
  0
VERTEX
  8
0
 10
640.563986
 20
635.442090
 42
-0.005612
  0
VERTEX
  8
0
 10
645.286364
 20
639.784174
 42
0.001480
  0
VERTEX
  8
0
 10
650.933326
 20
644.890915
 42
0.000793
  0
VERTEX
  8
0
 10
657.877869
 20
651.228719
 42
0.000789
  0
VERTEX
  8
0
 10
664.943285
 20
657.717927
 42
0.001235
  0
VERTEX
  8
0
 10
671.000000
 20
663.326066
 42
-0.005292
  0
VERTEX
  8
0
 10
676.289056
 20
668.144286
 42
-0.008002
  0
VERTEX
  8
0
 10
681.002910
 20
672.214544
 42
-0.003776
  0
VERTEX
  8
0
 10
685.065889
 20
675.559035
 42
-0.162957
  0
VERTEX
  8
0
 10
686.095012
 20
675.944145
 42
-0.097715
  0
VERTEX
  8
0
 10
686.834892
 20
675.824890
 42
-0.041026
  0
VERTEX
  8
0
 10
687.752743
 20
675.396565
 42
-0.038555
  0
VERTEX
  8
0
 10
688.688702
 20
674.762131
 42
-0.040637
  0
SEQEND
  0
POLYLINE
  8
0
 66
1
 70
1
  0
VERTEX
  8
0
 10
660.800000
 20
610.800000
 42
-0.056371
  0
VERTEX
  8
0
 10
661.259462
 20
610.223352
 42
-0.038822
  0
VERTEX
  8
0
 10
661.647500
 20
609.482612
 42
-0.039117
  0
VERTEX
  8
0
 10
661.912534
 20
608.700556
 42
-0.062218
  0
VERTEX
  8
0
 10
662.000000
 20
608.000381
 42
-0.131533
  0
VERTEX
  8
0
 10
661.708513
 20
606.911514
 42
-0.002932
  0
VERTEX
  8
0
 10
658.945696
 20
602.185226
 42
-0.006430
  0
VERTEX
  8
0
 10
655.586903
 20
596.678691
 42
-0.004279
  0
VERTEX
  8
0
 10
651.602371
 20
590.450381
 42
-0.000006
  0
VERTEX
  8
0
 10
647.158096
 20
583.632855
 42
-0.000005
  0
VERTEX
  8
0
 10
642.401171
 20
576.336051
 42
-0.000005
  0
VERTEX
  8
0
 10
638.022376
 20
569.619546
 42
-0.000012
  0
VERTEX
  8
0
 10
634.880064
 20
564.800005
 42
-0.009242
  0
VERTEX
  8
0
 10
632.302438
 20
561.002081
 42
-0.011896
  0
VERTEX
  8
0
 10
629.788028
 20
557.614769
 42
-0.009781
  0
VERTEX
  8
0
 10
627.577860
 20
554.892294
 42
-0.094765
  0
VERTEX
  8
0
 10
626.426935
 20
553.960897
 42
-0.080473
  0
VERTEX
  8
0
 10
624.089927
 20
553.158333
 42
-0.097106
  0
VERTEX
  8
0
 10
621.773667
 20
553.212564
 42
-0.121832
  0
VERTEX
  8
0
 10
620.021787
 20
554.079406
 42
-0.183708
  0
VERTEX
  8
0
 10
619.206270
 20
555.552959
 42
-0.176632
  0
VERTEX
  8
0
 10
619.705230
 20
557.922451
 42
-0.001180
  0
VERTEX
  8
0
 10
631.059095
 20
576.049804
 42
-0.005195
  0
VERTEX
  8
0
 10
642.255177
 20
593.428667
 42
-0.010071
  0
VERTEX
  8
0
 10
651.622915
 20
607.038204
 42
-0.037526
  0
VERTEX
  8
0
 10
654.245644
 20
610.164663
 42
-0.102546
  0
VERTEX
  8
0
 10
656.625754
 20
611.770023
 42
-0.159077
  0
VERTEX
  8
0
 10
658.797338
 20
611.929949
 42
-0.136692
  0
SEQEND
  0
POLYLINE
  8
0
 66
1
 70
1
  0
VERTEX
  8
0
 10
578.009769
 20
599.690983
 42
0.097516
  0
VERTEX
  8
0
 10
578.739967
 20
596.067892
 42
0.028116
  0
VERTEX
  8
0
 10
581.234422
 20
590.897507
 42
0.027468
  0
VERTEX
  8
0
 10
584.729592
 20
585.330651
 42
0.028111
  0
VERTEX
  8
0
 10
588.789044
 20
580.225409
 42
-0.008815
  0
VERTEX
  8
0
 10
595.079599
 20
572.912090
 42
-0.032765
  0
VERTEX
  8
0
 10
598.644453
 20
567.994157
 42
-0.080902
  0
VERTEX
  8
0
 10
599.867487
 20
565.103531
 42
-0.486021
  0
VERTEX
  8
0
 10
599.000384
 20
564.000000
 42
-0.109257
  0
VERTEX
  8
0
 10
596.246045
 20
564.609131
 42
-0.004776
  0
VERTEX
  8
0
 10
587.307709
 20
568.870226
 42
-0.002312
  0
VERTEX
  8
0
 10
577.987867
 20
573.476448
 42
-0.379048
  0
VERTEX
  8
0
 10
577.593214
 20
574.457359
 42
0.157295
  0
VERTEX
  8
0
 10
577.610164
 20
575.020680
 42
0.035792
  0
VERTEX
  8
0
 10
577.275320
 20
575.928099
 42
0.033657
  0
VERTEX
  8
0
 10
576.718366
 20
576.966400
 42
0.027245
  0
VERTEX
  8
0
 10
575.989617
 20
578.000000
 42
0.016464
  0
VERTEX
  8
0
 10
574.865288
 20
579.330758
 42
0.128643
  0
VERTEX
  8
0
 10
574.192761
 20
579.771837
 42
0.256529
  0
VERTEX
  8
0
 10
573.628601
 20
579.670558
 42
0.076245
  0
VERTEX
  8
0
 10
573.017863
 20
579.000000
 42
0.052997
  0
VERTEX
  8
0
 10
572.670384
 20
578.333621
 42
0.045357
  0
VERTEX
  8
0
 10
572.448405
 20
577.573437
 42
0.047585
  0
VERTEX
  8
0
 10
572.375806
 20
576.837704
 42
0.088869
  0
VERTEX
  8
0
 10
572.479120
 20
576.250000
 42
-0.224786
  0
VERTEX
  8
0
 10
572.398360
 20
575.364340
 42
-0.349431
  0
VERTEX
  8
0
 10
571.717832
 20
575.104058
 42
-0.090274
  0
VERTEX
  8
0
 10
570.221989
 20
575.896344
 42
-0.029570
  0
VERTEX
  8
0
 10
568.349881
 20
577.559210
 42
-0.034641
  0
VERTEX
  8
0
 10
566.963376
 20
579.152403
 42
-0.099225
  0
VERTEX
  8
0
 10
566.329208
 20
580.468300
 42
-0.081621
  0
VERTEX
  8
0
 10
566.186894
 20
582.073950
 42
-0.018595
  0
VERTEX
  8
0
 10
566.492122
 20
584.796036
 42
-0.066752
  0
VERTEX
  8
0
 10
568.678725
 20
592.338884
 42
-0.060764
  0
VERTEX
  8
0
 10
572.824793
 20
599.305361
 42
-0.188729
  0
VERTEX
  8
0
 10
576.122892
 20
601.280121
 42
-0.462491
  0
SEQEND
  0
POLYLINE
  8
0
 66
1
 70
1
  0
VERTEX
  8
0
 10
749.000000
 20
593.430175
 42
-0.168088
  0
VERTEX
  8
0
 10
747.959732
 20
590.423185
 42
-0.007052
  0
VERTEX
  8
0
 10
740.736295
 20
581.494765
 42
-0.010932
  0
VERTEX
  8
0
 10
731.325739
 20
570.682472
 42
-0.006216
  0
VERTEX
  8
0
 10
719.500000
 20
558.000875
 42
0.001067
  0
VERTEX
  8
0
 10
714.560592
 20
552.812173
 42
0.001066
  0
VERTEX
  8
0
 10
709.642367
 20
547.601395
 42
0.001042
  0
VERTEX
  8
0
 10
705.367365
 20
543.033678
 42
0.004225
  0
VERTEX
  8
0
 10
702.793165
 20
540.224481
 42
-0.015862
  0
VERTEX
  8
0
 10
700.510754
 20
537.847215
 42
-0.036484
  0
VERTEX
  8
0
 10
698.616951
 20
536.248539
 42
-0.049903
  0
VERTEX
  8
0
 10
697.000743
 20
535.304970
 42
-0.107590
  0
VERTEX
  8
0
 10
695.599869
 20
535.000000
 42
-0.128487
  0
VERTEX
  8
0
 10
693.715002
 20
535.492492
 42
-0.074314
  0
VERTEX
  8
0
 10
691.851877
 20
536.936988
 42
-0.073469
  0
VERTEX
  8
0
 10
690.471592
 20
538.885758
 42
-0.117940
  0
VERTEX
  8
0
 10
690.000000
 20
540.857233
 42
-0.187086
  0
VERTEX
  8
0
 10
690.365580
 20
541.800073
 42
-0.001454
  0
VERTEX
  8
0
 10
695.982580
 20
547.918467
 42
-0.005063
  0
VERTEX
  8
0
 10
702.559327
 20
554.897481
 42
-0.003199
  0
VERTEX
  8
0
 10
710.366231
 20
562.912356
 42
0.004340
  0
VERTEX
  8
0
 10
718.456721
 20
571.256386
 42
0.006218
  0
VERTEX
  8
0
 10
725.471364
 20
578.803364
 42
0.004619
  0
VERTEX
  8
0
 10
731.113455
 20
585.143813
 42
0.061628
  0
VERTEX
  8
0
 10
732.859196
 20
587.724002
 42
-0.021100
  0
VERTEX
  8
0
 10
733.802487
 20
589.394905
 42
-0.021531
  0
VERTEX
  8
0
 10
734.877332
 20
590.968748
 42
-0.021902
  0
VERTEX
  8
0
 10
735.926109
 20
592.249776
 42
-0.078565
  0
VERTEX
  8
0
 10
736.742966
 20
592.915964
 42
-0.106949
  0
VERTEX
  8
0
 10
738.879340
 20
593.610345
 42
-0.014812
  0
VERTEX
  8
0
 10
743.559718
 20
593.945792
 42
-0.009012
  0
VERTEX
  8
0
 10
748.365760
 20
594.060697
 42
-0.415937
  0
SEQEND
  0
POLYLINE
  8
0
 66
1
 70
1
  0
VERTEX
  8
0
 10
657.161702
 20
549.250000
 42
-0.028476
  0
VERTEX
  8
0
 10
661.644178
 20
544.045007
 42
-0.044903
  0
VERTEX
  8
0
 10
664.794614
 20
539.067346
 42
-0.049952
  0
VERTEX
  8
0
 10
666.775736
 20
534.029963
 42
-0.048734
  0
VERTEX
  8
0
 10
667.739408
 20
528.657657
 42
-0.016455
  0
VERTEX
  8
0
 10
667.900275
 20
525.251449
 42
-0.042446
  0
VERTEX
  8
0
 10
667.726843
 20
522.797397
 42
-0.049330
  0
VERTEX
  8
0
 10
667.164254
 20
520.630091
 42
-0.029806
  0
VERTEX
  8
0
 10
666.100736
 20
518.197459
 42
-0.048634
  0
VERTEX
  8
0
 10
664.147930
 20
515.143653
 42
-0.169096
  0
VERTEX
  8
0
 10
662.203798
 20
513.898489
 42
-0.390285
  0
VERTEX
  8
0
 10
660.976544
 20
514.584289
 42
-0.116203
  0
VERTEX
  8
0
 10
660.775627
 20
516.924607
 42
0.070719
  0
VERTEX
  8
0
 10
660.787872
 20
519.630018
 42
0.031486
  0
VERTEX
  8
0
 10
660.079333
 20
523.132035
 42
0.024661
  0
VERTEX
  8
0
 10
659.051546
 20
526.319829
 42
0.311966
  0
VERTEX
  8
0
 10
658.067505
 20
527.000000
 42
0.181914
  0
VERTEX
  8
0
 10
657.585917
 20
526.818788
 42
0.005798
  0
VERTEX
  8
0
 10
656.007112
 20
525.401959
 42
0.010536
  0
VERTEX
  8
0
 10
654.172996
 20
523.644536
 42
0.007037
  0
VERTEX
  8
0
 10
652.145057
 20
521.559861
 42
0.012118
  0
VERTEX
  8
0
 10
649.297184
 20
518.398601
 42
0.054140
  0
VERTEX
  8
0
 10
647.888710
 20
516.343744
 42
0.078617
  0
VERTEX
  8
0
 10
647.219777
 20
514.427125
 42
0.044752
  0
VERTEX
  8
0
 10
647.000000
 20
511.976527
 42
-0.040784
  0
VERTEX
  8
0
 10
646.758102
 20
509.015860
 42
-0.372707
  0
VERTEX
  8
0
 10
645.840418
 20
508.251910
 42
-0.245691
  0
VERTEX
  8
0
 10
644.528032
 20
508.970787
 42
-0.026214
  0
VERTEX
  8
0
 10
642.695723
 20
512.059551
 42
-0.085843
  0
VERTEX
  8
0
 10
641.499521
 20
515.771681
 42
-0.068514
  0
VERTEX
  8
0
 10
641.484130
 20
519.983127
 42
-0.061556
  0
VERTEX
  8
0
 10
642.655352
 20
524.455700
 42
-0.047897
  0
VERTEX
  8
0
 10
644.955689
 20
528.930947
 42
0.020811
  0
VERTEX
  8
0
 10
647.953417
 20
534.060168
 42
0.041249
  0
VERTEX
  8
0
 10
649.807847
 20
538.387875
 42
0.048017
  0
VERTEX
  8
0
 10
650.754574
 20
542.497454
 42
0.041673
  0
VERTEX
  8
0
 10
650.963083
 20
546.915304
 42
-0.007783
  0
VERTEX
  8
0
 10
650.840235
 20
552.886815
 42
-0.313611
  0
VERTEX
  8
0
 10
651.543208
 20
553.908224
 42
-0.291580
  0
VERTEX
  8
0
 10
652.796553
 20
553.644730
 42
-0.007066
  0
SEQEND
  0
POLYLINE
  8
0
 66
1
 70
1
  0
VERTEX
  8
0
 10
728.999643
 20
515.750000
 42
-0.180761
  0
VERTEX
  8
0
 10
728.182522
 20
513.565531
 42
-0.001910
  0
VERTEX
  8
0
 10
717.347811
 20
501.197883
 42
-0.001697
  0
VERTEX
  8
0
 10
706.351786
 20
488.827270
 42
-0.213342
  0
VERTEX
  8
0
 10
704.501199
 20
488.000000
 42
-0.164120
  0
VERTEX
  8
0
 10
703.846768
 20
488.220757
 42
-0.033868
  0
VERTEX
  8
0
 10
702.917850
 20
489.032839
 42
-0.032268
  0
VERTEX
  8
0
 10
701.920171
 20
490.169935
 42
-0.025530
  0
VERTEX
  8
0
 10
700.990081
 20
491.516049
 42
0.000000
  0
VERTEX
  8
0
 10
698.817043
 20
495.032098
 42
0.000000
  0
VERTEX
  8
0
 10
706.064458
 20
503.266049
 42
-0.004136
  0
VERTEX
  8
0
 10
713.846343
 20
511.961120
 42
-0.044884
  0
VERTEX
  8
0
 10
717.310741
 20
515.142147
 42
-0.102738
  0
VERTEX
  8
0
 10
720.203294
 20
516.533409
 42
-0.060965
  0
VERTEX
  8
0
 10
724.015777
 20
517.000000
 42
-0.016360
  0
VERTEX
  8
0
 10
726.219509
 20
516.927876
 42
-0.045107
  0
VERTEX
  8
0
 10
727.753137
 20
516.687320
 42
-0.074377
  0
VERTEX
  8
0
 10
728.690695
 20
516.297298
 42
-0.262913
  0
SEQEND
  0
POLYLINE
  8
0
 66
1
 70
1
  0
VERTEX
  8
0
 10
619.134437
 20
495.250000
 42
-0.054655
  0
VERTEX
  8
0
 10
626.643276
 20
485.584182
 42
-0.064756
  0
VERTEX
  8
0
 10
631.376722
 20
475.039357
 42
-0.070227
  0
VERTEX
  8
0
 10
633.010616
 20
464.399482
 42
-0.085066
  0
VERTEX
  8
0
 10
631.428153
 20
454.440127
 42
0.007333
  0
VERTEX
  8
0
 10
630.848821
 20
452.647822
 42
0.011716
  0
VERTEX
  8
0
 10
630.412579
 20
451.098936
 42
0.005627
  0
VERTEX
  8
0
 10
630.094469
 20
449.798192
 42
0.296355
  0
VERTEX
  8
0
 10
630.178153
 20
449.567234
 42
0.012135
  0
VERTEX
  8
0
 10
630.420994
 20
449.392880
 42
0.000221
  0
VERTEX
  8
0
 10
631.734057
 20
448.498460
 42
0.000547
  0
VERTEX
  8
0
 10
633.266348
 20
447.458149
 42
0.000366
  0
VERTEX
  8
0
 10
635.022892
 20
446.270267
 42
-0.034771
  0
VERTEX
  8
0
 10
639.801164
 20
442.535742
 42
-0.032702
  0
VERTEX
  8
0
 10
644.121569
 20
438.102461
 42
-0.032041
  0
VERTEX
  8
0
 10
647.907802
 20
433.049541
 42
-0.030378
  0
VERTEX
  8
0
 10
651.091900
 20
427.465969
 42
-0.015006
  0
VERTEX
  8
0
 10
652.970417
 20
423.343004
 42
-0.043454
  0
VERTEX
  8
0
 10
653.928136
 20
420.359940
 42
-0.042415
  0
VERTEX
  8
0
 10
654.367956
 20
417.216706
 42
-0.013768
  0
VERTEX
  8
0
 10
654.493372
 20
412.522108
 42
-0.004883
  0
VERTEX
  8
0
 10
654.457916
 20
409.175085
 42
-0.004561
  0
VERTEX
  8
0
 10
654.356978
 20
405.752207
 42
-0.004546
  0
VERTEX
  8
0
 10
654.211967
 20
402.714081
 42
-0.015483
  0
VERTEX
  8
0
 10
654.038360
 20
400.740726
 42
-0.010528
  0
VERTEX
  8
0
 10
653.744065
 20
398.648874
 42
-0.125727
  0
VERTEX
  8
0
 10
653.420470
 20
397.906313
 42
-0.368388
  0
VERTEX
  8
0
 10
652.950167
 20
397.809134
 42
-0.070928
  0
VERTEX
  8
0
 10
652.197368
 20
398.374061
 42
-0.059849
  0
VERTEX
  8
0
 10
651.588873
 20
399.148710
 42
-0.113273
  0
VERTEX
  8
0
 10
651.339911
 20
399.898216
 42
-0.103093
  0
VERTEX
  8
0
 10
651.432028
 20
400.729649
 42
-0.043927
  0
VERTEX
  8
0
 10
651.873912
 20
401.764403
 42
0.137214
  0
VERTEX
  8
0
 10
652.199441
 20
403.229267
 42
0.061006
  0
VERTEX
  8
0
 10
651.850247
 20
405.193755
 42
0.032168
  0
VERTEX
  8
0
 10
650.741039
 20
408.122037
 42
0.006589
  0
VERTEX
  8
0
 10
648.385451
 20
413.131068
 42
0.016472
  0
VERTEX
  8
0
 10
644.901441
 20
419.731142
 42
0.017450
  0
VERTEX
  8
0
 10
641.052866
 20
425.958831
 42
0.010794
  0
VERTEX
  8
0
 10
637.399790
 20
431.185391
 42
0.239210
  0
VERTEX
  8
0
 10
635.794514
 20
432.000000
 42
0.305907
  0
VERTEX
  8
0
 10
635.486202
 20
431.791896
 42
0.039122
  0
VERTEX
  8
0
 10
635.233389
 20
430.989211
 42
0.034975
  0
VERTEX
  8
0
 10
635.057455
 20
429.877830
 42
0.021773
  0
VERTEX
  8
0
 10
635.000000
 20
428.559017
 42
-0.027458
  0
VERTEX
  8
0
 10
634.925062
 20
427.195454
 42
-0.033951
  0
VERTEX
  8
0
 10
634.700255
 20
425.943570
 42
-0.036186
  0
VERTEX
  8
0
 10
634.374018
 20
424.952139
 42
-0.158043
  0
VERTEX
  8
0
 10
633.979591
 20
424.487386
 42
-0.329476
  0
VERTEX
  8
0
 10
632.002516
 20
424.651812
 42
-0.008646
  0
VERTEX
  8
0
 10
625.072195
 20
430.939472
 42
-0.015548
  0
VERTEX
  8
0
 10
618.640454
 20
437.368695
 42
-0.081868
  0
VERTEX
  8
0
 10
615.867560
 20
441.500000
 42
-0.052901
  0
VERTEX
  8
0
 10
614.522671
 20
445.530604
 42
-0.061982
  0
VERTEX
  8
0
 10
614.150448
 20
449.541315
 42
-0.046832
  0
VERTEX
  8
0
 10
614.753945
 20
454.349531
 42
-0.016740
  0
VERTEX
  8
0
 10
616.479018
 20
461.051359
 42
0.002346
  0
VERTEX
  8
0
 10
617.430391
 20
464.350932
 42
0.003412
  0
VERTEX
  8
0
 10
618.235988
 20
467.270839
 42
0.001723
  0
VERTEX
  8
0
 10
618.893585
 20
469.753500
 42
0.057837
  0
VERTEX
  8
0
 10
618.979018
 20
470.360009
 42
0.692337
  0
VERTEX
  8
0
 10
618.792602
 20
470.435345
 42
0.009570
  0
VERTEX
  8
0
 10
617.661674
 20
469.157776
 42
0.011663
  0
VERTEX
  8
0
 10
616.204225
 20
467.363280
 42
0.006054
  0
VERTEX
  8
0
 10
614.464980
 20
465.059629
 42
-0.020350
  0
VERTEX
  8
0
 10
609.844488
 20
459.290376
 42
-0.026130
  0
VERTEX
  8
0
 10
605.120718
 20
454.401479
 42
-0.026335
  0
VERTEX
  8
0
 10
599.944231
 20
450.061979
 42
-0.021223
  0
VERTEX
  8
0
 10
593.962375
 20
445.946959
 42
0.000598
  0
VERTEX
  8
0
 10
590.992336
 20
444.079398
 42
0.000544
  0
VERTEX
  8
0
 10
587.932111
 20
442.145357
 42
0.000544
  0
VERTEX
  8
0
 10
585.199731
 20
440.410174
 42
0.001763
  0
VERTEX
  8
0
 10
583.391308
 20
439.250000
 42
-0.027404
  0
VERTEX
  8
0
 10
580.756814
 20
437.744610
 42
-0.077416
  0
VERTEX
  8
0
 10
578.744128
 20
437.100297
 42
-0.174343
  0
VERTEX
  8
0
 10
577.523180
 20
437.335012
 42
-0.265660
  0
VERTEX
  8
0
 10
577.003738
 20
438.250000
 42
-0.143460
  0
VERTEX
  8
0
 10
577.815308
 20
440.989955
 42
-0.027144
  0
VERTEX
  8
0
 10
580.907748
 20
445.256234
 42
-0.021093
  0
VERTEX
  8
0
 10
585.890805
 20
450.895868
 42
-0.007599
  0
VERTEX
  8
0
 10
593.429023
 20
458.500000
 42
0.007751
  0
VERTEX
  8
0
 10
598.323200
 20
463.439984
 42
0.010064
  0
VERTEX
  8
0
 10
602.644327
 20
468.124102
 42
0.009014
  0
VERTEX
  8
0
 10
606.070886
 20
472.135280
 42
0.065846
  0
VERTEX
  8
0
 10
607.405272
 20
474.275868
 42
0.040208
  0
VERTEX
  8
0
 10
609.211107
 20
479.292092
 42
0.020136
  0
VERTEX
  8
0
 10
610.715281
 20
485.866670
 42
0.019634
  0
VERTEX
  8
0
 10
611.660399
 20
492.321565
 42
0.059622
  0
VERTEX
  8
0
 10
611.602909
 20
496.750000
 42
-0.051008
  0
VERTEX
  8
0
 10
611.503655
 20
500.040242
 42
-0.451263
  0
VERTEX
  8
0
 10
612.525340
 20
500.818896
 42
-0.141572
  0
VERTEX
  8
0
 10
614.584198
 20
499.752612
 42
-0.010499
  0
SEQEND
  0
POLYLINE
  8
0
 66
1
 70
1
  0
VERTEX
  8
0
 10
684.296296
 20
487.093796
 42
-0.060254
  0
VERTEX
  8
0
 10
687.504924
 20
482.545211
 42
-0.055819
  0
VERTEX
  8
0
 10
689.636602
 20
477.246116
 42
-0.051808
  0
VERTEX
  8
0
 10
690.651361
 20
471.241594
 42
-0.040024
  0
VERTEX
  8
0
 10
690.544342
 20
464.600346
 42
-0.033027
  0
VERTEX
  8
0
 10
689.276331
 20
456.848939
 42
-0.170727
  0
VERTEX
  8
0
 10
686.980590
 20
453.238493
 42
-0.494126
  0
VERTEX
  8
0
 10
684.786242
 20
453.802643
 42
-0.072281
  0
VERTEX
  8
0
 10
683.420490
 20
459.000000
 42
0.016767
  0
VERTEX
  8
0
 10
683.076986
 20
461.332973
 42
0.028028
  0
VERTEX
  8
0
 10
682.613761
 20
463.261245
 42
0.027682
  0
VERTEX
  8
0
 10
682.101915
 20
464.675946
 42
0.302783
  0
VERTEX
  8
0
 10
681.620834
 20
464.991326
 42
0.181656
  0
VERTEX
  8
0
 10
679.803569
 20
464.292467
 42
0.017995
  0
VERTEX
  8
0
 10
676.364831
 20
461.007643
 42
0.023087
  0
VERTEX
  8
0
 10
673.140114
 20
457.376113
 42
0.071167
  0
VERTEX
  8
0
 10
671.461647
 20
454.562450
 42
0.077923
  0
VERTEX
  8
0
 10
670.829880
 20
451.983582
 42
0.041063
  0
VERTEX
  8
0
 10
670.821176
 20
448.678035
 42
0.038642
  0
VERTEX
  8
0
 10
671.383451
 20
445.119063
 42
0.040613
  0
VERTEX
  8
0
 10
672.481707
 20
441.750000
 42
-0.095804
  0
VERTEX
  8
0
 10
672.730770
 20
440.553784
 42
-0.408185
  0
VERTEX
  8
0
 10
672.275484
 20
440.075562
 42
-0.139862
  0
VERTEX
  8
0
 10
671.110114
 20
440.364508
 42
-0.022516
  0
VERTEX
  8
0
 10
669.114292
 20
441.632500
 42
-0.093170
  0
VERTEX
  8
0
 10
666.907571
 20
443.890202
 42
-0.042999
  0
VERTEX
  8
0
 10
664.922763
 20
447.504185
 42
-0.042073
  0
VERTEX
  8
0
 10
663.507175
 20
451.607665
 42
-0.060694
  0
VERTEX
  8
0
 10
663.021962
 20
455.412142
 42
-0.078536
  0
VERTEX
  8
0
 10
663.554233
 20
458.907075
 42
-0.041059
  0
VERTEX
  8
0
 10
665.232092
 20
462.989379
 42
-0.032323
  0
VERTEX
  8
0
 10
668.057617
 20
467.739018
 42
-0.016655
  0
VERTEX
  8
0
 10
672.160404
 20
473.312237
 42
0.037469
  0
VERTEX
  8
0
 10
675.039475
 20
477.584547
 42
0.052692
  0
VERTEX
  8
0
 10
676.881923
 20
481.791439
 42
0.061778
  0
VERTEX
  8
0
 10
677.606287
 20
485.681323
 42
0.099359
  0
VERTEX
  8
0
 10
677.146034
 20
489.010932
 42
-0.093832
  0
VERTEX
  8
0
 10
676.736635
 20
491.751027
 42
-0.481192
  0
VERTEX
  8
0
 10
677.802758
 20
492.536577
 42
-0.123607
  0
VERTEX
  8
0
 10
680.345320
 20
491.121288
 42
-0.020551
  0
SEQEND
  0
POLYLINE
  8
0
 66
1
 70
1
  0
VERTEX
  8
0
 10
844.353820
 20
473.100575
 42
-0.051796
  0
VERTEX
  8
0
 10
852.530435
 20
466.127257
 42
-0.034344
  0
VERTEX
  8
0
 10
860.411925
 20
456.626261
 42
-0.034535
  0
VERTEX
  8
0
 10
866.845854
 20
446.244300
 42
-0.056438
  0
VERTEX
  8
0
 10
870.614918
 20
436.612491
 42
-0.032431
  0
VERTEX
  8
0
 10
871.550026
 20
431.887961
 42
-0.027957
  0
VERTEX
  8
0
 10
871.927571
 20
426.840632
 42
-0.028762
  0
VERTEX
  8
0
 10
871.739080
 20
421.978269
 42
-0.043694
  0
VERTEX
  8
0
 10
870.967490
 20
417.822691
 42
-0.053168
  0
VERTEX
  8
0
 10
869.501502
 20
414.121780
 42
-0.022567
  0
VERTEX
  8
0
 10
866.807503
 20
409.508177
 42
-0.013999
  0
VERTEX
  8
0
 10
863.875610
 20
405.237680
 42
-0.306975
  0
VERTEX
  8
0
 10
862.521090
 20
404.750180
 42
-0.311524
  0
VERTEX
  8
0
 10
862.109867
 20
405.222280
 42
-0.006854
  0
VERTEX
  8
0
 10
861.794511
 20
408.400795
 42
-0.012608
  0
VERTEX
  8
0
 10
861.556123
 20
412.371219
 42
-0.006883
  0
VERTEX
  8
0
 10
861.453707
 20
417.250180
 42
0.008063
  0
VERTEX
  8
0
 10
861.332823
 20
422.426674
 42
0.012014
  0
VERTEX
  8
0
 10
861.045374
 20
426.947208
 42
0.012142
  0
VERTEX
  8
0
 10
860.638222
 20
430.573399
 42
0.065001
  0
VERTEX
  8
0
 10
860.116424
 20
432.489201
 42
0.000000
  0
VERTEX
  8
0
 10
858.867614
 20
435.478401
 42
0.000000
  0
VERTEX
  8
0
 10
854.950001
 20
427.489201
 42
-0.011565
  0
VERTEX
  8
0
 10
853.124415
 20
423.974327
 42
-0.007583
  0
VERTEX
  8
0
 10
850.867492
 20
420.008037
 42
-0.007629
  0
VERTEX
  8
0
 10
848.550590
 20
416.209978
 42
-0.014514
  0
VERTEX
  8
0
 10
846.553425
 20
413.240286
 42
0.018266
  0
VERTEX
  8
0
 10
843.885067
 20
409.207565
 42
0.036298
  0
VERTEX
  8
0
 10
842.132218
 20
405.802913
 42
0.033001
  0
VERTEX
  8
0
 10
840.791758
 20
401.975855
 42
0.012628
  0
VERTEX
  8
0
 10
839.418763
 20
396.500000
 42
0.000000
  0
VERTEX
  8
0
 10
838.746591
 20
393.500000
 42
0.000000
  0
VERTEX
  8
0
 10
837.446974
 20
396.500000
 42
-0.056923
  0
VERTEX
  8
0
 10
836.201839
 20
400.596495
 42
-0.026535
  0
VERTEX
  8
0
 10
835.490629
 20
406.109477
 42
-0.026526
  0
VERTEX
  8
0
 10
835.365061
 20
411.764602
 42
-0.048179
  0
VERTEX
  8
0
 10
835.950814
 20
416.347490
 42
-0.021177
  0
VERTEX
  8
0
 10
836.574836
 20
418.640056
 42
-0.009674
  0
VERTEX
  8
0
 10
837.572902
 20
421.578330
 42
-0.009560
  0
VERTEX
  8
0
 10
838.745093
 20
424.637511
 42
-0.012996
  0
VERTEX
  8
0
 10
839.926235
 20
427.347490
 42
0.032501
  0
VERTEX
  8
0
 10
844.302652
 20
438.563151
 42
0.066435
  0
VERTEX
  8
0
 10
845.938370
 20
447.848040
 42
0.070909
  0
VERTEX
  8
0
 10
845.037346
 20
456.839538
 42
0.041892
  0
VERTEX
  8
0
 10
841.584297
 20
467.081109
 42
-0.001336
  0
VERTEX
  8
0
 10
840.210312
 20
470.275056
 42
-0.002122
  0
VERTEX
  8
0
 10
839.052887
 20
473.017686
 42
-0.000454
  0
VERTEX
  8
0
 10
838.048612
 20
475.432059
 42
-0.098638
  0
VERTEX
  8
0
 10
838.000000
 20
475.676076
 42
-0.450746
  0
VERTEX
  8
0
 10
838.452403
 20
476.075954
 42
-0.065596
  0
VERTEX
  8
0
 10
839.798478
 20
475.726354
 42
-0.037884
  0
VERTEX
  8
0
 10
841.824006
 20
474.720694
 42
-0.016519
  0
SEQEND
  0
POLYLINE
  8
0
 66
1
 70
1
  0
VERTEX
  8
0
 10
730.300508
 20
449.366159
 42
-0.335153
  0
VERTEX
  8
0
 10
730.364713
 20
448.905969
 42
-0.017892
  0
VERTEX
  8
0
 10
729.552205
 20
447.562511
 42
-0.022121
  0
VERTEX
  8
0
 10
728.378027
 20
445.931451
 42
-0.013647
  0
VERTEX
  8
0
 10
726.863019
 20
444.116159
 42
0.045623
  0
VERTEX
  8
0
 10
720.699612
 20
435.690941
 42
0.098804
  0
VERTEX
  8
0
 10
718.009003
 20
428.166930
 42
0.098138
  0
VERTEX
  8
0
 10
718.403495
 20
420.153248
 42
0.044591
  0
VERTEX
  8
0
 10
721.858870
 20
410.194140
 42
-0.007222
  0
VERTEX
  8
0
 10
724.316478
 20
404.518551
 42
-0.027330
  0
VERTEX
  8
0
 10
725.604841
 20
400.871168
 42
-0.048968
  0
VERTEX
  8
0
 10
726.025115
 20
398.650515
 42
-0.440583
  0
VERTEX
  8
0
 10
725.430175
 20
398.000000
 42
-0.175656
  0
VERTEX
  8
0
 10
722.638169
 20
399.012092
 42
-0.011917
  0
VERTEX
  8
0
 10
716.178855
 20
404.670048
 42
-0.018047
  0
VERTEX
  8
0
 10
709.906713
 20
410.865947
 42
-0.042957
  0
VERTEX
  8
0
 10
705.842890
 20
416.000000
 42
0.000000
  0
VERTEX
  8
0
 10
704.191711
 20
418.500000
 42
0.000000
  0
VERTEX
  8
0
 10
703.095855
 20
415.684900
 42
0.059736
  0
VERTEX
  8
0
 10
702.315755
 20
412.653811
 42
0.031222
  0
VERTEX
  8
0
 10
702.042140
 20
408.759604
 42
0.030579
  0
VERTEX
  8
0
 10
702.260148
 20
404.682186
 42
0.041209
  0
VERTEX
  8
0
 10
702.982898
 20
401.059630
 42
-0.018603
  0
VERTEX
  8
0
 10
703.714178
 20
398.098274
 42
-0.340340
  0
VERTEX
  8
0
 10
703.317055
 20
397.278662
 42
-0.299116
  0
VERTEX
  8
0
 10
702.350323
 20
397.393045
 42
-0.016231
  0
VERTEX
  8
0
 10
699.952903
 20
399.545122
 42
-0.080319
  0
VERTEX
  8
0
 10
697.297170
 20
403.063918
 42
-0.050570
  0
VERTEX
  8
0
 10
695.358078
 20
407.846796
 42
-0.048501
  0
VERTEX
  8
0
 10
694.347032
 20
413.184624
 42
-0.055595
  0
VERTEX
  8
0
 10
694.454994
 20
418.372258
 42
-0.079694
  0
VERTEX
  8
0
 10
697.330689
 20
427.976082
 42
-0.073673
  0
VERTEX
  8
0
 10
703.119594
 20
436.491176
 42
-0.069662
  0
VERTEX
  8
0
 10
711.461739
 20
443.341942
 42
-0.059817
  0
VERTEX
  8
0
 10
721.797697
 20
448.069197
 42
-0.005324
  0
VERTEX
  8
0
 10
725.944830
 20
449.346689
 42
-0.034214
  0
VERTEX
  8
0
 10
728.085536
 20
449.824872
 42
-0.076327
  0
VERTEX
  8
0
 10
729.398631
 20
449.823571
 42
-0.159341
  0
SEQEND
  0
POLYLINE
  8
0
 66
1
 70
1
  0
VERTEX
  8
0
 10
816.000000
 20
398.000000
 42
-0.094079
  0
VERTEX
  8
0
 10
815.927536
 20
397.618285
 42
-0.096641
  0
VERTEX
  8
0
 10
815.720482
 20
397.293750
 42
-0.099022
  0
VERTEX
  8
0
 10
815.411529
 20
397.076519
 42
-0.104229
  0
VERTEX
  8
0
 10
815.048448
 20
397.000000
 42
0.196402
  0
VERTEX
  8
0
 10
814.469352
 20
396.763402
 42
0.005849
  0
VERTEX
  8
0
 10
812.583955
 20
394.870313
 42
0.010837
  0
VERTEX
  8
0
 10
810.402235
 20
392.528349
 42
0.007172
  0
VERTEX
  8
0
 10
807.994909
 20
389.750000
 42
-0.016014
  0
VERTEX
  8
0
 10
805.164923
 20
386.598218
 42
-0.018482
  0
VERTEX
  8
0
 10
802.266500
 20
383.786824
 42
-0.020092
  0
VERTEX
  8
0
 10
799.518570
 20
381.504874
 42
-0.041527
  0
VERTEX
  8
0
 10
797.169906
 20
380.000000
 42
0.035824
  0
VERTEX
  8
0
 10
788.212532
 20
374.403547
 42
0.037687
  0
VERTEX
  8
0
 10
780.306594
 20
367.671129
 42
0.038273
  0
VERTEX
  8
0
 10
773.608540
 20
359.934105
 42
0.039523
  0
VERTEX
  8
0
 10
768.247716
 20
351.345968
 42
0.023679
  0
VERTEX
  8
0
 10
764.921007
 20
344.124266
 42
0.032875
  0
VERTEX
  8
0
 10
762.690050
 20
337.360505
 42
0.034269
  0
VERTEX
  8
0
 10
761.427487
 20
330.590095
 42
0.029442
  0
VERTEX
  8
0
 10
761.014781
 20
323.355655
 42
0.040116
  0
VERTEX
  8
0
 10
761.894782
 20
312.657214
 42
0.043246
  0
VERTEX
  8
0
 10
764.471265
 20
302.511759
 42
0.032914
  0
VERTEX
  8
0
 10
769.393720
 20
290.899491
 42
0.012161
  0
VERTEX
  8
0
 10
777.780297
 20
275.216566
 42
-0.006195
  0
VERTEX
  8
0
 10
786.633431
 20
259.125847
 42
-0.027969
  0
VERTEX
  8
0
 10
791.148034
 20
249.402464
 42
-0.038143
  0
VERTEX
  8
0
 10
793.856622
 20
240.723647
 42
-0.018959
  0
VERTEX
  8
0
 10
796.015684
 20
229.396534
 42
-0.037054
  0
VERTEX
  8
0
 10
796.743431
 20
219.885043
 42
-0.043058
  0
VERTEX
  8
0
 10
795.984438
 20
210.846095
 42
-0.040226
  0
VERTEX
  8
0
 10
793.615806
 20
201.579178
 42
-0.026420
  0
VERTEX
  8
0
 10
789.492979
 20
191.360310
 42
-0.028985
  0
VERTEX
  8
0
 10
783.937389
 20
181.050642
 42
-0.047336
  0
VERTEX
  8
0
 10
777.957390
 20
173.132092
 42
-0.050829
  0
VERTEX
  8
0
 10
770.930268
 20
166.871042
 42
-0.040339
  0
VERTEX
  8
0
 10
762.234651
 20
161.592144
 42
-0.030348
  0
VERTEX
  8
0
 10
755.873924
 20
158.870625
 42
-0.035699
  0
VERTEX
  8
0
 10
749.562919
 20
157.108726
 42
-0.035650
  0
VERTEX
  8
0
 10
743.058039
 20
156.260884
 42
-0.030120
  0
VERTEX
  8
0
 10
736.117184
 20
156.273959
 42
-0.047062
  0
VERTEX
  8
0
 10
728.085883
 20
157.538428
 42
-0.050356
  0
VERTEX
  8
0
 10
720.622509
 20
160.269898
 42
-0.049651
  0
VERTEX
  8
0
 10
713.767109
 20
164.479488
 42
-0.043524
  0
VERTEX
  8
0
 10
707.540031
 20
170.130105
 42
-0.047506
  0
VERTEX
  8
0
 10
703.502963
 20
175.419065
 42
-0.073172
  0
VERTEX
  8
0
 10
701.207710
 20
180.686516
 42
-0.056508
  0
VERTEX
  8
0
 10
700.190242
 20
187.330795
 42
-0.018090
  0
VERTEX
  8
0
 10
700.161423
 20
197.335159
 42
-0.009801
  0
VERTEX
  8
0
 10
700.491137
 20
203.562328
 42
-0.040623
  0
VERTEX
  8
0
 10
701.067241
 20
207.280964
 42
-0.042161
  0
VERTEX
  8
0
 10
702.227425
 20
210.791629
 42
-0.011110
  0
VERTEX
  8
0
 10
704.672448
 20
216.184415
 42
-0.009237
  0
VERTEX
  8
0
 10
706.605324
 20
220.024077
 42
-0.005991
  0
VERTEX
  8
0
 10
708.974783
 20
224.394345
 42
-0.006023
  0
VERTEX
  8
0
 10
711.392073
 20
228.607967
 42
-0.011360
  0
VERTEX
  8
0
 10
713.459512
 20
231.937976
 42
0.015643
  0
VERTEX
  8
0
 10
717.380382
 20
238.375683
 42
0.030028
  0
VERTEX
  8
0
 10
720.039920
 20
243.801828
 42
0.035736
  0
VERTEX
  8
0
 10
721.721344
 20
248.804492
 42
0.037703
  0
VERTEX
  8
0
 10
722.636306
 20
253.906942
 42
0.048830
  0
VERTEX
  8
0
 10
722.658894
 20
258.948115
 42
0.028884
  0
VERTEX
  8
0
 10
721.754030
 20
264.900840
 42
0.028354
  0
VERTEX
  8
0
 10
720.122097
 20
270.907146
 42
0.037456
  0
VERTEX
  8
0
 10
717.930822
 20
276.135601
 42
-0.039685
  0
VERTEX
  8
0
 10
716.660727
 20
279.204346
 42
-0.378306
  0
VERTEX
  8
0
 10
717.182108
 20
280.403134
 42
-0.217241
  0
VERTEX
  8
0
 10
718.925250
 20
280.419493
 42
-0.019998
  0
VERTEX
  8
0
 10
722.899787
 20
278.458026
 42
-0.026142
  0
VERTEX
  8
0
 10
728.352262
 20
275.109803
 42
-0.045764
  0
VERTEX
  8
0
 10
732.419973
 20
271.722103
 42
-0.047858
  0
VERTEX
  8
0
 10
735.682745
 20
267.762799
 42
-0.031784
  0
VERTEX
  8
0
 10
738.660405
 20
262.681478
 42
-0.011790
  0
VERTEX
  8
0
 10
740.698653
 20
258.384777
 42
-0.048958
  0
VERTEX
  8
0
 10
741.604515
 20
255.665130
 42
-0.055750
  0
VERTEX
  8
0
 10
741.905650
 20
252.994938
 42
-0.018335
  0
VERTEX
  8
0
 10
741.764146
 20
249.038234
 42
-0.025545
  0
VERTEX
  8
0
 10
741.309201
 20
245.372992
 42
-0.033493
  0
VERTEX
  8
0
 10
740.502459
 20
242.098116
 42
-0.028238
  0
VERTEX
  8
0
 10
739.150662
 20
238.560046
 42
-0.012151
  0
VERTEX
  8
0
 10
736.971936
 20
234.000000
 42
0.011105
  0
VERTEX
  8
0
 10
734.822498
 20
229.525332
 42
0.028761
  0
VERTEX
  8
0
 10
733.535048
 20
226.187126
 42
0.037430
  0
VERTEX
  8
0
 10
732.840202
 20
223.294682
 42
0.036543
  0
VERTEX
  8
0
 10
732.577006
 20
220.307519
 42
0.021580
  0
VERTEX
  8
0
 10
732.662410
 20
217.293163
 42
0.074153
  0
VERTEX
  8
0
 10
733.087539
 20
215.387691
 42
0.076603
  0
VERTEX
  8
0
 10
734.042239
 20
213.722042
 42
0.024038
  0
VERTEX
  8
0
 10
735.946167
 20
211.557519
 42
0.023892
  0
VERTEX
  8
0
 10
738.018995
 20
209.612804
 42
0.075342
  0
VERTEX
  8
0
 10
739.633943
 20
208.610755
 42
0.076378
  0
VERTEX
  8
0
 10
741.460996
 20
208.139393
 42
0.025011
  0
VERTEX
  8
0
 10
744.245827
 20
208.000000
 42
0.111163
  0
VERTEX
  8
0
 10
751.839040
 20
209.709291
 42
0.110042
  0
VERTEX
  8
0
 10
757.999646
 20
214.510700
 42
0.088714
  0
VERTEX
  8
0
 10
762.463049
 20
222.441847
 42
0.049199
  0
VERTEX
  8
0
 10
765.081514
 20
233.267858
 42
0.045687
  0
VERTEX
  8
0
 10
765.582020
 20
243.756961
 42
0.048276
  0
VERTEX
  8
0
 10
764.142453
 20
253.964361
 42
0.033245
  0
VERTEX
  8
0
 10
760.227791
 20
266.483953
 42
0.009675
  0
VERTEX
  8
0
 10
752.562634
 20
285.191761
 42
-0.029785
  0
VERTEX
  8
0
 10
747.571879
 20
298.920979
 42
-0.038595
  0
VERTEX
  8
0
 10
744.754529
 20
312.013358
 42
-0.041755
  0
VERTEX
  8
0
 10
744.114348
 20
324.470867
 42
-0.047703
  0
VERTEX
  8
0
 10
745.630537
 20
336.302595
 42
-0.071747
  0
VERTEX
  8
0
 10
753.204519
 20
356.062187
 42
-0.064989
  0
VERTEX
  8
0
 10
766.256470
 20
373.626124
 42
-0.063685
  0
VERTEX
  8
0
 10
783.662599
 20
387.550572
 42
-0.063827
  0
VERTEX
  8
0
 10
804.000000
 20
396.633791
 42
-0.010303
  0
VERTEX
  8
0
 10
809.442091
 20
398.151406
 42
-0.034511
  0
VERTEX
  8
0
 10
813.081944
 20
398.822615
 42
-0.062067
  0
VERTEX
  8
0
 10
815.301849
 20
398.799055
 42
-0.375321
  0
SEQEND
  0
POLYLINE
  8
0
 66
1
 70
1
  0
VERTEX
  8
0
 10
668.281545
 20
383.910351
 42
-0.056541
  0
VERTEX
  8
0
 10
685.124782
 20
376.039534
 42
-0.058454
  0
VERTEX
  8
0
 10
699.570223
 20
364.668210
 42
-0.061505
  0
VERTEX
  8
0
 10
710.364732
 20
350.882009
 42
-0.077639
  0
VERTEX
  8
0
 10
716.462560
 20
335.896887
 42
-0.042581
  0
VERTEX
  8
0
 10
717.676735
 20
327.661737
 42
-0.038604
  0
VERTEX
  8
0
 10
717.539987
 20
319.060396
 42
-0.040736
  0
VERTEX
  8
0
 10
716.166226
 20
311.267605
 42
-0.081208
  0
VERTEX
  8
0
 10
713.630999
 20
305.559586
 42
0.000000
  0
VERTEX
  8
0
 10
711.981539
 20
303.042192
 42
0.000000
  0
VERTEX
  8
0
 10
707.240770
 20
304.817380
 42
-0.013902
  0
VERTEX
  8
0
 10
704.456202
 20
305.949286
 42
-0.102544
  0
VERTEX
  8
0
 10
703.293609
 20
306.776233
 42
-0.165691
  0
VERTEX
  8
0
 10
702.828175
 20
307.819146
 42
-0.052507
  0
VERTEX
  8
0
 10
702.851593
 20
309.546284
 42
0.017098
  0
VERTEX
  8
0
 10
702.996983
 20
311.267218
 42
0.002877
  0
VERTEX
  8
0
 10
703.143500
 20
314.569846
 42
0.003146
  0
VERTEX
  8
0
 10
703.268986
 20
318.454868
 42
0.002789
  0
VERTEX
  8
0
 10
703.351593
 20
322.500000
 42
0.016450
  0
VERTEX
  8
0
 10
703.226074
 20
329.450148
 42
0.047297
  0
VERTEX
  8
0
 10
702.527514
 20
334.218024
 42
0.055857
  0
VERTEX
  8
0
 10
701.025471
 20
338.312526
 42
0.030883
  0
VERTEX
  8
0
 10
698.352504
 20
342.927873
 42
0.031677
  0
VERTEX
  8
0
 10
696.701950
 20
345.098961
 42
0.456797
  0
VERTEX
  8
0
 10
695.846269
 20
345.099350
 42
0.148958
  0
VERTEX
  8
0
 10
695.251739
 20
343.762742
 42
0.006735
  0
VERTEX
  8
0
 10
694.697410
 20
338.711958
 42
-0.062780
  0
VERTEX
  8
0
 10
693.512107
 20
333.442053
 42
-0.029522
  0
VERTEX
  8
0
 10
690.752405
 20
327.016358
 42
-0.027850
  0
VERTEX
  8
0
 10
686.911164
 20
320.313257
 42
-0.028400
  0
VERTEX
  8
0
 10
682.371643
 20
314.124211
 42
0.021111
  0
VERTEX
  8
0
 10
678.907771
 20
309.543153
 42
0.018865
  0
VERTEX
  8
0
 10
675.702645
 20
304.514772
 42
0.019617
  0
VERTEX
  8
0
 10
673.100032
 20
299.641446
 42
0.039425
  0
VERTEX
  8
0
 10
671.514232
 20
295.582783
 42
-0.037041
  0
VERTEX
  8
0
 10
671.184853
 20
294.727791
 42
-0.169414
  0
VERTEX
  8
0
 10
670.817041
 20
294.354054
 42
-0.240191
  0
VERTEX
  8
0
 10
670.382070
 20
294.360016
 42
-0.075202
  0
VERTEX
  8
0
 10
669.841354
 20
294.758646
 42
-0.160918
  0
VERTEX
  8
0
 10
669.384039
 20
295.667247
 42
-0.020723
  0
VERTEX
  8
0
 10
669.150918
 20
297.863342
 42
-0.019652
  0
VERTEX
  8
0
 10
669.076478
 20
300.838320
 42
-0.009291
  0
VERTEX
  8
0
 10
669.202642
 20
304.675864
 42
-0.017632
  0
VERTEX
  8
0
 10
669.674829
 20
310.107984
 42
-0.038067
  0
VERTEX
  8
0
 10
670.500021
 20
314.219609
 42
-0.027800
  0
VERTEX
  8
0
 10
672.097020
 20
318.885845
 42
-0.005777
  0
VERTEX
  8
0
 10
675.447144
 20
326.878842
 42
0.004246
  0
VERTEX
  8
0
 10
679.129219
 20
335.588927
 42
0.036761
  0
VERTEX
  8
0
 10
680.445479
 20
339.588021
 42
0.056841
  0
VERTEX
  8
0
 10
680.903994
 20
343.070179
 42
0.017459
  0
VERTEX
  8
0
 10
680.810808
 20
348.378842
 42
0.014453
  0
VERTEX
  8
0
 10
680.438331
 20
352.946346
 42
0.037115
  0
VERTEX
  8
0
 10
679.830779
 20
356.202422
 42
0.039242
  0
VERTEX
  8
0
 10
678.770683
 20
359.227070
 42
0.017869
  0
VERTEX
  8
0
 10
676.942169
 20
363.000000
 42
0.028013
  0
VERTEX
  8
0
 10
675.114555
 20
366.028072
 42
0.012345
  0
VERTEX
  8
0
 10
672.381450
 20
369.826392
 42
0.012173
  0
VERTEX
  8
0
 10
669.277972
 20
373.721506
 42
0.016000
  0
VERTEX
  8
0
 10
666.250000
 20
377.111122
 42
-0.003918
  0
VERTEX
  8
0
 10
663.471116
 20
380.074578
 42
-0.006115
  0
VERTEX
  8
0
 10
661.129688
 20
382.674147
 42
-0.002142
  0
VERTEX
  8
0
 10
659.157480
 20
384.937871
 42
-0.180008
  0
VERTEX
  8
0
 10
659.000000
 20
385.361122
 42
-0.392597
  0
VERTEX
  8
0
 10
659.530639
 20
385.932765
 42
-0.057417
  0
VERTEX
  8
0
 10
661.261509
 20
385.862896
 42
-0.032575
  0
VERTEX
  8
0
 10
664.078100
 20
385.232520
 42
-0.009720
  0
SEQEND
  0
POLYLINE
  8
0
 66
1
 70
1
  0
VERTEX
  8
0
 10
824.297411
 20
349.250000
 42
0.053041
  0
VERTEX
  8
0
 10
823.180470
 20
341.922685
 42
0.026371
  0
VERTEX
  8
0
 10
823.250459
 20
332.517939
 42
0.025634
  0
VERTEX
  8
0
 10
824.362841
 20
322.576406
 42
0.031789
  0
VERTEX
  8
0
 10
826.450824
 20
313.505498
 42
0.019422
  0
VERTEX
  8
0
 10
829.024650
 20
305.957781
 42
0.016046
  0
VERTEX
  8
0
 10
832.331304
 20
298.127437
 42
0.012397
  0
VERTEX
  8
0
 10
836.897384
 20
288.828596
 42
0.005201
  0
VERTEX
  8
0
 10
843.480458
 20
276.535345
 42
-0.015321
  0
VERTEX
  8
0
 10
849.422127
 20
264.879001
 42
-0.036295
  0
VERTEX
  8
0
 10
852.926473
 20
255.795782
 42
-0.042762
  0
VERTEX
  8
0
 10
854.748119
 20
247.256683
 42
-0.030549
  0
VERTEX
  8
0
 10
855.369762
 20
237.500000
 42
-0.009386
  0
VERTEX
  8
0
 10
855.277227
 20
231.796165
 42
-0.020219
  0
VERTEX
  8
0
 10
854.946204
 20
227.415841
 42
-0.024264
  0
VERTEX
  8
0
 10
854.316789
 20
223.621316
 42
-0.022259
  0
VERTEX
  8
0
 10
853.308988
 20
219.792949
 42
-0.027588
  0
VERTEX
  8
0
 10
851.034529
 20
213.696337
 42
-0.020680
  0
VERTEX
  8
0
 10
847.894120
 20
207.254375
 42
-0.020636
  0
VERTEX
  8
0
 10
844.515283
 20
201.568897
 42
-0.060162
  0
VERTEX
  8
0
 10
841.586942
 20
198.075686
 42
-0.004868
  0
VERTEX
  8
0
 10
839.861443
 20
196.489931
 42
-0.154249
  0
VERTEX
  8
0
 10
839.344050
 20
196.254271
 42
-0.422776
  0
VERTEX
  8
0
 10
839.058847
 20
196.484271
 42
-0.023046
  0
VERTEX
  8
0
 10
839.000000
 20
197.760310
 42
-0.036296
  0
VERTEX
  8
0
 10
839.089575
 20
198.992641
 42
-0.005697
  0
VERTEX
  8
0
 10
839.469253
 20
201.398639
 42
-0.006306
  0
VERTEX
  8
0
 10
839.985856
 20
204.229234
 42
-0.005466
  0
VERTEX
  8
0
 10
840.597456
 20
207.184624
 42
0.034563
  0
VERTEX
  8
0
 10
841.831238
 20
215.581086
 42
0.019588
  0
VERTEX
  8
0
 10
842.218059
 20
225.856226
 42
0.019524
  0
VERTEX
  8
0
 10
841.796376
 20
236.240790
 42
0.031475
  0
VERTEX
  8
0
 10
840.539162
 20
245.000000
 42
0.036346
  0
VERTEX
  8
0
 10
838.251407
 20
253.011765
 42
0.024540
  0
VERTEX
  8
0
 10
834.549742
 20
261.770002
 42
0.020822
  0
VERTEX
  8
0
 10
829.326821
 20
271.548165
 42
0.012612
  0
VERTEX
  8
0
 10
822.384000
 20
282.685195
 42
-0.007819
  0
VERTEX
  8
0
 10
819.375237
 20
287.410066
 42
-0.015533
  0
VERTEX
  8
0
 10
817.168637
 20
291.260991
 42
-0.012505
  0
VERTEX
  8
0
 10
815.646473
 20
294.300647
 42
-0.204184
  0
VERTEX
  8
0
 10
815.605858
 20
295.415265
 42
0.116600
  0
VERTEX
  8
0
 10
815.731490
 20
296.345407
 42
0.018057
  0
VERTEX
  8
0
 10
815.481296
 20
298.201250
 42
0.019300
  0
VERTEX
  8
0
 10
815.013981
 20
300.407685
 42
0.015717
  0
VERTEX
  8
0
 10
814.349341
 20
302.730070
 42
-0.029596
  0
VERTEX
  8
0
 10
813.457700
 20
306.207599
 42
-0.023407
  0
VERTEX
  8
0
 10
812.896524
 20
310.050228
 42
-0.017586
  0
VERTEX
  8
0
 10
812.592436
 20
314.867516
 42
-0.006968
  0
VERTEX
  8
0
 10
812.500000
 20
321.500000
 42
-0.004925
  0
VERTEX
  8
0
 10
812.583146
 20
329.940210
 42
-0.039443
  0
VERTEX
  8
0
 10
812.965493
 20
333.807520
 42
-0.055012
  0
VERTEX
  8
0
 10
813.926836
 20
337.061033
 42
-0.014389
  0
VERTEX
  8
0
 10
816.179775
 20
342.025865
 42
-0.012455
  0
VERTEX
  8
0
 10
818.919703
 20
347.292924
 42
-0.022828
  0
VERTEX
  8
0
 10
821.449144
 20
351.416385
 42
-0.021887
  0
VERTEX
  8
0
 10
823.643609
 20
354.365937
 42
-0.225557
  0
VERTEX
  8
0
 10
824.977648
 20
355.000000
 42
-0.426504
  0
VERTEX
  8
0
 10
825.234813
 20
354.731861
 42
-0.018996
  0
VERTEX
  8
0
 10
825.121230
 20
353.310938
 42
-0.022141
  0
VERTEX
  8
0
 10
824.817893
 20
351.455241
 42
-0.012738
  0
SEQEND
  0
POLYLINE
  8
0
 66
1
 70
1
  0
VERTEX
  8
0
 10
508.265099
 20
789.750000
 42
0.087482
  0
VERTEX
  8
0
 10
507.128310
 20
787.986104
 42
0.059625
  0
VERTEX
  8
0
 10
506.469991
 20
785.686818
 42
0.028473
  0
VERTEX
  8
0
 10
506.087034
 20
781.975261
 42
0.004290
  0
VERTEX
  8
0
 10
505.808035
 20
774.500000
 42
-0.017401
  0
VERTEX
  8
0
 10
505.111907
 20
763.556095
 42
-0.081804
  0
VERTEX
  8
0
 10
503.488002
 20
757.489921
 42
-0.119285
  0
VERTEX
  8
0
 10
500.326808
 20
753.435709
 42
-0.057365
  0
VERTEX
  8
0
 10
494.694662
 20
749.932155
 42
-0.019774
  0
VERTEX
  8
0
 10
490.921459
 20
748.326456
 42
-0.044784
  0
VERTEX
  8
0
 10
487.936593
 20
747.489792
 42
-0.036470
  0
VERTEX
  8
0
 10
484.496527
 20
747.106809
 42
-0.009471
  0
VERTEX
  8
0
 10
478.924314
 20
747.000789
 42
0.005990
  0
VERTEX
  8
0
 10
473.252157
 20
746.932362
 42
0.042652
  0
VERTEX
  8
0
 10
470.523025
 20
746.632884
 42
0.085821
  0
VERTEX
  8
0
 10
468.755650
 20
745.955968
 42
0.070018
  0
VERTEX
  8
0
 10
467.174314
 20
744.685549
 42
0.093671
  0
VERTEX
  8
0
 10
465.580556
 20
742.184730
 42
0.098801
  0
VERTEX
  8
0
 10
465.048892
 20
739.322074
 42
0.100609
  0
VERTEX
  8
0
 10
465.658289
 20
736.516320
 42
0.100888
  0
VERTEX
  8
0
 10
467.314451
 20
734.174314
 42
0.066861
  0
VERTEX
  8
0
 10
468.924557
 20
733.023225
 42
0.072965
  0
VERTEX
  8
0
 10
470.735117
 20
732.379763
 42
0.041154
  0
VERTEX
  8
0
 10
473.396059
 20
732.076337
 42
0.007820
  0
VERTEX
  8
0
 10
478.276939
 20
732.000000
 42
-0.041681
  0
VERTEX
  8
0
 10
487.805981
 20
731.204257
 42
-0.075411
  0
VERTEX
  8
0
 10
495.227048
 20
728.768326
 42
-0.090105
  0
VERTEX
  8
0
 10
500.702730
 20
724.627886
 42
-0.087209
  0
VERTEX
  8
0
 10
504.446952
 20
718.782119
 42
-0.046956
  0
VERTEX
  8
0
 10
505.121120
 20
716.616904
 42
-0.021737
  0
VERTEX
  8
0
 10
505.604343
 20
713.706629
 42
-0.018537
  0
VERTEX
  8
0
 10
505.902700
 20
710.163185
 42
-0.011733
  0
VERTEX
  8
0
 10
506.000000
 20
706.017420
 42
0.000000
  0
VERTEX
  8
0
 10
506.000000
 20
696.970603
 42
0.000000
  0
VERTEX
  8
0
 10
509.250000
 20
694.989040
 42
0.026670
  0
VERTEX
  8
0
 10
512.026589
 20
693.493016
 42
0.128177
  0
VERTEX
  8
0
 10
513.777132
 20
693.163766
 42
0.130376
  0
VERTEX
  8
0
 10
515.449963
 20
693.733652
 42
0.027976
  0
VERTEX
  8
0
 10
517.923275
 20
695.588894
 42
0.041941
  0
VERTEX
  8
0
 10
519.744497
 20
697.402630
 42
0.111180
  0
VERTEX
  8
0
 10
520.591623
 20
699.021205
 42
0.059284
  0
VERTEX
  8
0
 10
520.931675
 20
701.394855
 42
0.005966
  0
VERTEX
  8
0
 10
521.000000
 20
707.121012
 42
-0.055930
  0
VERTEX
  8
0
 10
522.288646
 20
718.605222
 42
-0.146058
  0
VERTEX
  8
0
 10
526.328324
 20
725.767410
 42
-0.134581
  0
VERTEX
  8
0
 10
533.883033
 20
729.890921
 42
-0.044529
  0
VERTEX
  8
0
 10
546.500000
 20
731.708516
 42
0.007283
  0
VERTEX
  8
0
 10
551.850771
 20
732.076381
 42
0.031312
  0
VERTEX
  8
0
 10
555.008325
 20
732.540079
 42
0.053682
  0
VERTEX
  8
0
 10
557.121363
 20
733.230189
 42
0.079125
  0
VERTEX
  8
0
 10
558.750000
 20
734.299216
 42
0.107675
  0
VERTEX
  8
0
 10
560.417455
 20
736.647298
 42
0.102632
  0
VERTEX
  8
0
 10
560.994660
 20
739.517957
 42
0.101279
  0
VERTEX
  8
0
 10
560.383765
 20
742.412576
 42
0.102038
  0
VERTEX
  8
0
 10
558.685549
 20
744.825686
 42
0.069899
  0
VERTEX
  8
0
 10
557.034725
 20
745.990864
 42
0.073417
  0
VERTEX
  8
0
 10
555.153739
 20
746.631952
 42
0.038921
  0
VERTEX
  8
0
 10
552.317525
 20
746.928288
 42
0.006576
  0
VERTEX
  8
0
 10
546.864864
 20
747.000000
 42
-0.009086
  0
VERTEX
  8
0
 10
541.380899
 20
747.099666
 42
-0.036451
  0
VERTEX
  8
0
 10
538.048154
 20
747.465104
 42
-0.047680
  0
VERTEX
  8
0
 10
535.264215
 20
748.257723
 42
-0.024050
  0
VERTEX
  8
0
 10
531.929315
 20
749.750000
 42
-0.022846
  0
VERTEX
  8
0
 10
529.023220
 20
751.392862
 42
-0.053642
  0
VERTEX
  8
0
 10
527.067204
 20
752.934235
 42
-0.056244
  0
VERTEX
  8
0
 10
525.538606
 20
754.809683
 42
-0.027354
  0
VERTEX
  8
0
 10
524.009667
 20
757.500000
 42
-0.032945
  0
VERTEX
  8
0
 10
522.660374
 20
760.725187
 42
-0.043080
  0
VERTEX
  8
0
 10
521.887715
 20
763.825267
 42
-0.027201
  0
VERTEX
  8
0
 10
521.457051
 20
767.960683
 42
-0.005695
  0
VERTEX
  8
0
 10
521.180401
 20
775.239770
 42
0.003446
  0
VERTEX
  8
0
 10
520.910308
 20
783.301481
 42
0.038367
  0
VERTEX
  8
0
 10
520.534721
 20
786.494759
 42
0.097542
  0
VERTEX
  8
0
 10
519.761681
 20
788.384803
 42
0.080565
  0
VERTEX
  8
0
 10
518.285875
 20
789.989770
 42
0.076632
  0
VERTEX
  8
0
 10
515.693644
 20
791.451872
 42
0.096425
  0
VERTEX
  8
0
 10
512.981561
 20
791.912766
 42
0.102593
  0
VERTEX
  8
0
 10
510.423372
 20
791.318114
 42
0.098044
  0
SEQEND
  0
POLYLINE
  8
0
 66
1
 70
1
  0
VERTEX
  8
0
 10
147.000000
 20
147.154988
 42
0.142218
  0
VERTEX
  8
0
 10
147.128193
 20
146.713411
 42
0.024894
  0
VERTEX
  8
0
 10
147.632973
 20
145.998607
 42
0.025257
  0
VERTEX
  8
0
 10
148.329796
 20
145.196286
 42
0.020305
  0
VERTEX
  8
0
 10
149.154802
 20
144.404988
 42
0.000000
  0
VERTEX
  8
0
 10
151.309603
 20
142.500000
 42
0.000000
  0
VERTEX
  8
0
 10
149.539792
 20
145.250000
 42
0.010783
  0
VERTEX
  8
0
 10
148.316201
 20
147.064072
 42
0.078231
  0
VERTEX
  8
0
 10
147.585567
 20
147.815880
 42
0.422229
  0
VERTEX
  8
0
 10
147.190632
 20
147.753966
 42
0.155293
  0
SEQEND
  0
POLYLINE
  8
0
 66
1
 70
1
  0
VERTEX
  8
0
 10
195.750000
 20
129.337719
 42
0.057986
  0
VERTEX
  8
0
 10
196.320008
 20
129.181385
 42
0.037979
  0
VERTEX
  8
0
 10
197.000000
 20
129.129660
 42
0.037979
  0
VERTEX
  8
0
 10
197.679992
 20
129.181385
 42
0.057986
  0
VERTEX
  8
0
 10
198.250000
 20
129.337719
 42
0.174857
  0
VERTEX
  8
0
 10
198.459382
 20
129.525001
 42
0.447206
  0
VERTEX
  8
0
 10
198.398438
 20
129.693942
 42
0.078554
  0
VERTEX
  8
0
 10
197.891440
 20
129.810911
 42
0.017491
  0
VERTEX
  8
0
 10
197.000000
 20
129.842105
 42
0.017491
  0
VERTEX
  8
0
 10
196.108560
 20
129.810911
 42
0.078554
  0
VERTEX
  8
0
 10
195.601562
 20
129.693942
 42
0.447206
  0
VERTEX
  8
0
 10
195.540618
 20
129.525001
 42
0.174857
  0
SEQEND
  0
ENDSEC
  0
EOF
