  0
SECTION
  2
HEADER
  9
$ACADVER
  1
AC1006
  9
$EXTMIN
 10
0.000000
 20
0.000000
 30
0.000000
  9
$EXTMAX
 10
1024.000000
 20
1024.000000
 30
0.000000
  0
ENDSEC
  0
SECTION
  2
ENTITIES
  0
POLYLINE
  8
0
 66
1
 70
1
  0
VERTEX
  8
0
 10
-0.000000
 20
1022.940983
 42
0.108972
  0
VERTEX
  8
0
 10
0.078288
 20
1022.586039
 42
0.182303
  0
VERTEX
  8
0
 10
0.293750
 20
1022.374600
 42
0.161196
  0
VERTEX
  8
0
 10
0.617900
 20
1022.343488
 42
0.082592
  0
VERTEX
  8
0
 10
1.000000
 20
1022.500000
 42
0.029505
  0
VERTEX
  8
0
 10
1.382774
 20
1022.768994
 42
0.035638
  0
VERTEX
  8
0
 10
1.706250
 20
1023.066025
 42
0.038439
  0
VERTEX
  8
0
 10
1.934461
 20
1023.348290
 42
0.151918
  0
VERTEX
  8
0
 10
2.000000
 20
1023.559017
 42
0.210953
  0
VERTEX
  8
0
 10
1.925540
 20
1023.727648
 42
0.081139
  0
VERTEX
  8
0
 10
1.706250
 20
1023.870461
 42
0.061769
  0
VERTEX
  8
0
 10
1.382849
 20
1023.967655
 42
0.042167
  0
VERTEX
  8
0
 10
1.000000
 20
1024.000000
 42
0.105053
  0
VERTEX
  8
0
 10
0.618444
 20
1023.918938
 42
0.099167
  0
VERTEX
  8
0
 10
0.293750
 20
1023.688914
 42
0.096420
  0
VERTEX
  8
0
 10
0.076123
 20
1023.345238
 42
0.093332
  0
SEQEND
  0
POLYLINE
  8
0
 66
1
 70
1
  0
VERTEX
  8
0
 10
432.556704
 20
816.777494
 42
0.069138
  0
VERTEX
  8
0
 10
431.956930
 20
815.605352
 42
0.027469
  0
VERTEX
  8
0
 10
431.456402
 20
813.864541
 42
0.026506
  0
VERTEX
  8
0
 10
431.114334
 20
811.896003
 42
0.029771
  0
VERTEX
  8
0
 10
431.000000
 20
809.977494
 42
-0.040422
  0
VERTEX
  8
0
 10
430.709344
 20
806.388075
 42
-0.149046
  0
VERTEX
  8
0
 10
429.715453
 20
804.369427
 42
-0.158335
  0
VERTEX
  8
0
 10
427.805896
 20
803.318018
 42
-0.047346
  0
VERTEX
  8
0
 10
424.454988
 20
803.000000
 42
0.064256
  0
VERTEX
  8
0
 10
421.278917
 20
802.590143
 42
0.111572
  0
VERTEX
  8
0
 10
418.930085
 20
801.370607
 42
0.124990
  0
VERTEX
  8
0
 10
417.502609
 20
799.375243
 42
0.093343
  0
VERTEX
  8
0
 10
417.000000
 20
796.706443
 42
0.120068
  0
VERTEX
  8
0
 10
417.504444
 20
794.636074
 42
0.137393
  0
VERTEX
  8
0
 10
418.891096
 20
793.150768
 42
0.097406
  0
VERTEX
  8
0
 10
421.273656
 20
792.274415
 42
0.039586
  0
VERTEX
  8
0
 10
424.734259
 20
792.000000
 42
-0.053758
  0
VERTEX
  8
0
 10
427.949120
 20
791.653346
 42
-0.167268
  0
VERTEX
  8
0
 10
429.785089
 20
790.537042
 42
-0.140251
  0
VERTEX
  8
0
 10
430.733269
 20
788.381161
 42
-0.033929
  0
VERTEX
  8
0
 10
431.000000
 20
784.454988
 42
0.047820
  0
VERTEX
  8
0
 10
431.363367
 20
780.664345
 42
0.110337
  0
VERTEX
  8
0
 10
432.500402
 20
778.054809
 42
0.138852
  0
VERTEX
  8
0
 10
434.438482
 20
776.537709
 42
0.097360
  0
VERTEX
  8
0
 10
437.173753
 20
776.000000
 42
0.115432
  0
VERTEX
  8
0
 10
439.647112
 20
776.578721
 42
0.131373
  0
VERTEX
  8
0
 10
441.470499
 20
778.181003
 42
0.094541
  0
VERTEX
  8
0
 10
442.641867
 20
780.950916
 42
0.038780
  0
VERTEX
  8
0
 10
443.189482
 20
785.011869
 42
0.000000
  0
VERTEX
  8
0
 10
443.500000
 20
790.500000
 42
0.000000
  0
VERTEX
  8
0
 10
448.614345
 20
791.014972
 42
0.033872
  0
VERTEX
  8
0
 10
452.554250
 20
791.683465
 42
0.095668
  0
VERTEX
  8
0
 10
455.084461
 20
792.833309
 42
0.135734
  0
VERTEX
  8
0
 10
456.495740
 20
794.565451
 42
0.103835
  0
VERTEX
  8
0
 10
457.000000
 20
796.967457
 42
0.105262
  0
VERTEX
  8
0
 10
456.467015
 20
799.471113
 42
0.121140
  0
VERTEX
  8
0
 10
454.971363
 20
801.395824
 42
0.104510
  0
VERTEX
  8
0
 10
452.554103
 20
802.595925
 42
0.063223
  0
VERTEX
  8
0
 10
449.371259
 20
803.000000
 42
-0.052230
  0
VERTEX
  8
0
 10
446.079478
 20
803.344800
 42
-0.168361
  0
VERTEX
  8
0
 10
444.220960
 20
804.464727
 42
-0.141451
  0
VERTEX
  8
0
 10
443.266342
 20
806.638222
 42
-0.033214
  0
VERTEX
  8
0
 10
443.000000
 20
810.643296
 42
0.016835
  0
VERTEX
  8
0
 10
442.905768
 20
813.441199
 42
0.062220
  0
VERTEX
  8
0
 10
442.569808
 20
815.173008
 42
0.092037
  0
VERTEX
  8
0
 10
441.902058
 20
816.396913
 42
0.069305
  0
VERTEX
  8
0
 10
440.777494
 20
817.443296
 42
0.070690
  0
VERTEX
  8
0
 10
438.450791
 20
818.624794
 42
0.102743
  0
VERTEX
  8
0
 10
436.173399
 20
818.908542
 42
0.114856
  0
VERTEX
  8
0
 10
434.154264
 20
818.262818
 42
0.105780
  0
SEQEND
  0
POLYLINE
  8
0
 66
1
 70
1
  0
VERTEX
  8
0
 10
585.036294
 20
817.543731
 42
0.095094
  0
VERTEX
  8
0
 10
584.552460
 20
816.664582
 42
0.022631
  0
VERTEX
  8
0
 10
584.107678
 20
815.046363
 42
0.022466
  0
VERTEX
  8
0
 10
583.758874
 20
813.108152
 42
0.020524
  0
VERTEX
  8
0
 10
583.572225
 20
811.087026
 42
-0.035941
  0
VERTEX
  8
0
 10
583.063189
 20
806.965914
 42
-0.131124
  0
VERTEX
  8
0
 10
581.914154
 20
804.620314
 42
-0.156602
  0
VERTEX
  8
0
 10
579.883493
 20
803.392439
 42
-0.058357
  0
VERTEX
  8
0
 10
576.532543
 20
803.000000
 42
0.062557
  0
VERTEX
  8
0
 10
573.329381
 20
802.597663
 42
0.109606
  0
VERTEX
  8
0
 10
570.955651
 20
801.397128
 42
0.125094
  0
VERTEX
  8
0
 10
569.510918
 20
799.437610
 42
0.096907
  0
VERTEX
  8
0
 10
569.000000
 20
796.826247
 42
0.112861
  0
VERTEX
  8
0
 10
569.563560
 20
794.361352
 42
0.119623
  0
VERTEX
  8
0
 10
571.136209
 20
792.446768
 42
0.105188
  0
VERTEX
  8
0
 10
573.596796
 20
791.302111
 42
0.071778
  0
VERTEX
  8
0
 10
576.681195
 20
791.047057
 42
-0.015305
  0
VERTEX
  8
0
 10
580.805056
 20
791.171633
 42
-0.191882
  0
VERTEX
  8
0
 10
582.226722
 20
790.604519
 42
-0.190259
  0
VERTEX
  8
0
 10
582.875219
 20
789.212795
 42
-0.015008
  0
VERTEX
  8
0
 10
583.000000
 20
785.056704
 42
0.013165
  0
VERTEX
  8
0
 10
583.085790
 20
781.799089
 42
0.058926
  0
VERTEX
  8
0
 10
583.408969
 20
779.920597
 42
0.095545
  0
VERTEX
  8
0
 10
584.072450
 20
778.641809
 42
0.072796
  0
VERTEX
  8
0
 10
585.222506
 20
777.556704
 42
0.109949
  0
VERTEX
  8
0
 10
588.957629
 20
776.012648
 42
0.206666
  0
VERTEX
  8
0
 10
592.076379
 20
776.758090
 42
0.157841
  0
VERTEX
  8
0
 10
594.249768
 20
779.831681
 42
0.061545
  0
VERTEX
  8
0
 10
595.189482
 20
785.011869
 42
0.000000
  0
VERTEX
  8
0
 10
595.500000
 20
790.500000
 42
0.000000
  0
VERTEX
  8
0
 10
600.136520
 20
791.033375
 42
0.036647
  0
VERTEX
  8
0
 10
603.794248
 20
791.728474
 42
0.096650
  0
VERTEX
  8
0
 10
606.180658
 20
792.892331
 42
0.131825
  0
VERTEX
  8
0
 10
607.522839
 20
794.613896
 42
0.100349
  0
VERTEX
  8
0
 10
608.000000
 20
796.967457
 42
0.104480
  0
VERTEX
  8
0
 10
607.485563
 20
799.402469
 42
0.113505
  0
VERTEX
  8
0
 10
606.036659
 20
801.338565
 42
0.102928
  0
VERTEX
  8
0
 10
603.756915
 20
802.575623
 42
0.073139
  0
VERTEX
  8
0
 10
600.871259
 20
803.000000
 42
-0.062019
  0
VERTEX
  8
0
 10
597.907606
 20
803.369024
 42
-0.168574
  0
VERTEX
  8
0
 10
596.164241
 20
804.515628
 42
-0.132061
  0
VERTEX
  8
0
 10
595.255595
 20
806.711034
 42
-0.032465
  0
VERTEX
  8
0
 10
595.000000
 20
810.643296
 42
0.016835
  0
VERTEX
  8
0
 10
594.905768
 20
813.441199
 42
0.062220
  0
VERTEX
  8
0
 10
594.569808
 20
815.173008
 42
0.092037
  0
VERTEX
  8
0
 10
593.902058
 20
816.396913
 42
0.069305
  0
VERTEX
  8
0
 10
592.777494
 20
817.443296
 42
0.067168
  0
VERTEX
  8
0
 10
590.648844
 20
818.543062
 42
0.082630
  0
VERTEX
  8
0
 10
588.451146
 20
818.938116
 42
0.095163
  0
VERTEX
  8
0
 10
586.492142
 20
818.588147
 42
0.128586
  0
SEQEND
  0
POLYLINE
  8
0
 66
1
 70
1
  0
VERTEX
  8
0
 10
265.526486
 20
801.791455
 42
0.000833
  0
VERTEX
  8
0
 10
264.046903
 20
799.244371
 42
0.000941
  0
VERTEX
  8
0
 10
262.634989
 20
796.793807
 42
0.000857
  0
VERTEX
  8
0
 10
261.441866
 20
794.705662
 42
0.005160
  0
VERTEX
  8
0
 10
260.834865
 20
793.612995
 42
-0.002201
  0
VERTEX
  8
0
 10
260.305158
 20
792.646028
 42
-0.000712
  0
VERTEX
  8
0
 10
259.512576
 20
791.218980
 42
-0.000709
  0
VERTEX
  8
0
 10
258.626732
 20
789.634636
 42
-0.000797
  0
VERTEX
  8
0
 10
257.769919
 20
788.112995
 42
0.002275
  0
VERTEX
  8
0
 10
256.747254
 20
786.284189
 42
0.000801
  0
VERTEX
  8
0
 10
255.296489
 20
783.651942
 42
0.000795
  0
VERTEX
  8
0
 10
253.711029
 20
780.753458
 42
0.000933
  0
VERTEX
  8
0
 10
252.217237
 20
778.000000
 42
-0.004859
  0
VERTEX
  8
0
 10
250.700638
 20
775.256136
 42
-0.004122
  0
VERTEX
  8
0
 10
249.046549
 20
772.386498
 42
-0.004157
  0
VERTEX
  8
0
 10
247.496349
 20
769.797144
 42
-0.011637
  0
VERTEX
  8
0
 10
246.353283
 20
768.017865
 42
0.040425
  0
VERTEX
  8
0
 10
244.800579
 20
765.264695
 42
0.078802
  0
VERTEX
  8
0
 10
244.116637
 20
762.844539
 42
0.097482
  0
VERTEX
  8
0
 10
244.281354
 20
760.687355
 42
0.094018
  0
VERTEX
  8
0
 10
245.250000
 20
758.722616
 42
0.124023
  0
VERTEX
  8
0
 10
246.248629
 20
757.917567
 42
0.053398
  0
VERTEX
  8
0
 10
247.881087
 20
757.367510
 42
0.034350
  0
VERTEX
  8
0
 10
250.320853
 20
756.999686
 42
0.010862
  0
VERTEX
  8
0
 10
254.000000
 20
756.781487
 42
-0.006872
  0
VERTEX
  8
0
 10
258.353566
 20
756.558137
 42
-0.056426
  0
VERTEX
  8
0
 10
260.306216
 20
756.207385
 42
-0.146393
  0
VERTEX
  8
0
 10
261.300001
 20
755.554604
 42
-0.140094
  0
VERTEX
  8
0
 10
261.793082
 20
754.451986
 42
-0.124849
  0
VERTEX
  8
0
 10
261.674887
 20
753.343984
 42
-0.065430
  0
VERTEX
  8
0
 10
261.023894
 20
752.109729
 42
-0.047593
  0
VERTEX
  8
0
 10
259.831877
 20
750.726107
 42
-0.021902
  0
VERTEX
  8
0
 10
258.043082
 20
749.154863
 42
0.019694
  0
VERTEX
  8
0
 10
256.494964
 20
747.807082
 42
0.025260
  0
VERTEX
  8
0
 10
255.187655
 20
746.444159
 42
0.024572
  0
VERTEX
  8
0
 10
254.235323
 20
745.229500
 42
0.155176
  0
VERTEX
  8
0
 10
254.000000
 20
744.489513
 42
0.128039
  0
VERTEX
  8
0
 10
254.264811
 20
743.472367
 42
0.001094
  0
VERTEX
  8
0
 10
258.259375
 20
736.357338
 42
0.003754
  0
VERTEX
  8
0
 10
262.942137
 20
728.202732
 42
0.002400
  0
VERTEX
  8
0
 10
268.500000
 20
718.794276
 42
-0.003053
  0
VERTEX
  8
0
 10
274.057323
 20
709.358617
 42
-0.004694
  0
VERTEX
  8
0
 10
278.740625
 20
701.117576
 42
-0.001694
  0
VERTEX
  8
0
 10
282.674802
 20
693.984130
 42
-0.125812
  0
VERTEX
  8
0
 10
283.000000
 20
692.712185
 42
-0.158763
  0
VERTEX
  8
0
 10
282.262189
 20
690.447131
 42
-0.072387
  0
VERTEX
  8
0
 10
280.060817
 20
688.196424
 42
-0.056071
  0
VERTEX
  8
0
 10
276.637310
 20
686.144581
 42
-0.034230
  0
VERTEX
  8
0
 10
272.221838
 20
684.485229
 42
0.004662
  0
VERTEX
  8
0
 10
268.106814
 20
683.210659
 42
0.105459
  0
VERTEX
  8
0
 10
267.035644
 20
682.597591
 42
0.351354
  0
VERTEX
  8
0
 10
266.912822
 20
681.860283
 42
0.053989
  0
VERTEX
  8
0
 10
267.837186
 20
680.561561
 42
-0.024310
  0
VERTEX
  8
0
 10
268.934075
 20
679.199100
 42
-0.002308
  0
VERTEX
  8
0
 10
271.436716
 20
675.727459
 42
-0.002945
  0
VERTEX
  8
0
 10
274.378695
 20
671.554645
 42
-0.002316
  0
VERTEX
  8
0
 10
277.518650
 20
667.000000
 42
0.006710
  0
VERTEX
  8
0
 10
284.361138
 20
657.258938
 42
0.003364
  0
VERTEX
  8
0
 10
293.254468
 20
645.125510
 42
0.003365
  0
VERTEX
  8
0
 10
302.322987
 20
633.095981
 42
0.006616
  0
VERTEX
  8
0
 10
309.724317
 20
623.675236
 42
-0.006701
  0
VERTEX
  8
0
 10
312.652695
 20
619.946552
 42
-0.073159
  0
VERTEX
  8
0
 10
313.575328
 20
618.282653
 42
-0.157281
  0
VERTEX
  8
0
 10
313.640773
 20
616.926719
 42
-0.061921
  0
VERTEX
  8
0
 10
312.926009
 20
615.175236
 42
0.000000
  0
VERTEX
  8
0
 10
311.425565
 20
612.500000
 42
0.000000
  0
VERTEX
  8
0
 10
294.317039
 20
612.226834
 42
0.000000
  0
VERTEX
  8
0
 10
277.208514
 20
611.953667
 42
0.000000
  0
VERTEX
  8
0
 10
274.022959
 20
614.634135
 42
-0.053341
  0
VERTEX
  8
0
 10
272.251669
 20
616.480273
 42
-0.006053
  0
VERTEX
  8
0
 10
268.762926
 20
621.107571
 42
-0.007270
  0
VERTEX
  8
0
 10
264.746910
 20
626.740381
 42
-0.005853
  0
VERTEX
  8
0
 10
260.589796
 20
632.907301
 42
-0.000877
  0
VERTEX
  8
0
 10
247.642089
 20
652.683939
 42
-0.001934
  0
VERTEX
  8
0
 10
237.837439
 20
667.845092
 42
-0.002103
  0
VERTEX
  8
0
 10
230.606227
 20
679.227366
 42
-0.012833
  0
VERTEX
  8
0
 10
227.046893
 20
685.218036
 42
0.000000
  0
VERTEX
  8
0
 10
223.845162
 20
690.936071
 42
0.000000
  0
VERTEX
  8
0
 10
226.377127
 20
693.468036
 42
-0.070200
  0
VERTEX
  8
0
 10
228.324605
 20
694.933907
 42
-0.088604
  0
VERTEX
  8
0
 10
230.455770
 20
695.659865
 42
-0.034924
  0
VERTEX
  8
0
 10
233.952270
 20
695.946324
 42
-0.002981
  0
VERTEX
  8
0
 10
242.954545
 20
696.000000
 42
0.003712
  0
VERTEX
  8
0
 10
248.340208
 20
696.039989
 42
0.006186
  0
VERTEX
  8
0
 10
252.874148
 20
696.163438
 42
0.001534
  0
VERTEX
  8
0
 10
256.784056
 20
696.330335
 42
0.400883
  0
VERTEX
  8
0
 10
257.000000
 20
696.556386
 42
0.141583
  0
VERTEX
  8
0
 10
256.883254
 20
696.960410
 42
0.000531
  0
VERTEX
  8
0
 10
254.254996
 20
701.118708
 42
0.002696
  0
VERTEX
  8
0
 10
251.237621
 20
705.825108
 42
0.001684
  0
VERTEX
  8
0
 10
247.655307
 20
711.306386
 42
-0.001647
  0
VERTEX
  8
0
 10
239.109795
 20
724.379707
 42
-0.002930
  0
VERTEX
  8
0
 10
232.171386
 20
735.209596
 42
-0.003462
  0
VERTEX
  8
0
 10
226.749799
 20
743.914935
 42
-0.009706
  0
VERTEX
  8
0
 10
223.114525
 20
750.109790
 42
0.018179
  0
VERTEX
  8
0
 10
220.491605
 20
754.410871
 42
0.051131
  0
VERTEX
  8
0
 10
218.261470
 20
757.134305
 42
0.081126
  0
VERTEX
  8
0
 10
216.252213
 20
758.570507
 42
0.163674
  0
VERTEX
  8
0
 10
214.345341
 20
758.827990
 42
0.171652
  0
VERTEX
  8
0
 10
212.481135
 20
757.735110
 42
0.002547
  0
VERTEX
  8
0
 10
204.231442
 20
747.850185
 42
0.007369
  0
VERTEX
  8
0
 10
195.677847
 20
737.177819
 42
0.008225
  0
VERTEX
  8
0
 10
187.756737
 20
726.637175
 42
-0.018777
  0
VERTEX
  8
0
 10
182.658046
 20
720.142315
 42
-0.015392
  0
VERTEX
  8
0
 10
176.748006
 20
713.589648
 42
-0.012998
  0
VERTEX
  8
0
 10
171.150471
 20
708.050665
 42
-0.090608
  0
VERTEX
  8
0
 10
167.930629
 20
705.971266
 42
0.058712
  0
VERTEX
  8
0
 10
166.659764
 20
705.260417
 42
0.029851
  0
VERTEX
  8
0
 10
165.241949
 20
704.097468
 42
0.029179
  0
VERTEX
  8
0
 10
163.904695
 20
702.706767
 42
0.038492
  0
VERTEX
  8
0
 10
162.868189
 20
701.286726
 42
-0.031753
  0
VERTEX
  8
0
 10
161.785364
 20
699.760496
 42
-0.017739
  0
VERTEX
  8
0
 10
160.289862
 20
698.041618
 42
-0.017640
  0
VERTEX
  8
0
 10
158.648209
 20
696.404459
 42
-0.027286
  0
VERTEX
  8
0
 10
157.109346
 20
695.123493
 42
0.022627
  0
VERTEX
  8
0
 10
151.442880
 20
690.495309
 42
0.018024
  0
VERTEX
  8
0
 10
145.754370
 20
685.021429
 42
0.018070
  0
VERTEX
  8
0
 10
140.922156
 20
679.648287
 42
0.052680
  0
VERTEX
  8
0
 10
138.145727
 20
675.510983
 42
0.000000
  0
VERTEX
  8
0
 10
135.500000
 20
670.500000
 42
0.000000
  0
VERTEX
  8
0
 10
135.593373
 20
559.500000
 42
0.000609
  0
VERTEX
  8
0
 10
135.743481
 20
486.578743
 42
0.004884
  0
VERTEX
  8
0
 10
136.181360
 20
453.011193
 42
0.005796
  0
VERTEX
  8
0
 10
136.876055
 20
432.827116
 42
0.129330
  0
VERTEX
  8
0
 10
138.610000
 20
427.285183
 42
-0.135906
  0
VERTEX
  8
0
 10
139.436447
 20
424.518782
 42
-0.001753
  0
VERTEX
  8
0
 10
139.741301
 20
406.202173
 42
-0.002852
  0
VERTEX
  8
0
 10
139.951209
 20
377.958317
 42
-0.000432
  0
VERTEX
  8
0
 10
140.000000
 20
321.476166
 42
0.000756
  0
VERTEX
  8
0
 10
140.060971
 20
281.130381
 42
0.001350
  0
VERTEX
  8
0
 10
140.250800
 20
247.962905
 42
0.000090
  0
VERTEX
  8
0
 10
140.503252
 20
218.619910
 42
0.584436
  0
VERTEX
  8
0
 10
140.868192
 20
218.418538
 42
0.172671
  0
VERTEX
  8
0
 10
141.242825
 20
218.886340
 42
0.016574
  0
VERTEX
  8
0
 10
141.680920
 20
220.301907
 42
0.019568
  0
VERTEX
  8
0
 10
142.092250
 20
222.075751
 42
0.014212
  0
VERTEX
  8
0
 10
142.415763
 20
224.076523
 42
-0.048225
  0
VERTEX
  8
0
 10
145.260735
 20
236.323048
 42
-0.025636
  0
VERTEX
  8
0
 10
150.980787
 20
250.816593
 42
-0.023597
  0
VERTEX
  8
0
 10
158.932908
 20
266.304458
 42
-0.020827
  0
VERTEX
  8
0
 10
168.623663
 20
281.652871
 42
0.006378
  0
VERTEX
  8
0
 10
172.388050
 20
287.249994
 42
0.006150
  0
VERTEX
  8
0
 10
176.055385
 20
293.009314
 42
0.006096
  0
VERTEX
  8
0
 10
179.161087
 20
298.160876
 42
0.022240
  0
VERTEX
  8
0
 10
180.942996
 20
301.535176
 42
0.058614
  0
VERTEX
  8
0
 10
184.555313
 20
312.280964
 42
0.055117
  0
VERTEX
  8
0
 10
185.677136
 20
323.800681
 42
0.057712
  0
VERTEX
  8
0
 10
184.266268
 20
334.733350
 42
0.081544
  0
VERTEX
  8
0
 10
180.392447
 20
343.735586
 42
-0.003839
  0
VERTEX
  8
0
 10
179.092347
 20
345.802762
 42
-0.005819
  0
VERTEX
  8
0
 10
177.996531
 20
347.622177
 42
-0.002451
  0
VERTEX
  8
0
 10
177.088180
 20
349.188379
 42
-0.130905
  0
VERTEX
  8
0
 10
177.000000
 20
349.519417
 42
-0.440288
  0
VERTEX
  8
0
 10
177.512529
 20
349.988625
 42
-0.055946
  0
VERTEX
  8
0
 10
179.161492
 20
349.654408
 42
-0.027716
  0
VERTEX
  8
0
 10
181.971377
 20
348.573703
 42
-0.006433
  0
VERTEX
  8
0
 10
186.561999
 20
346.437984
 42
-0.054140
  0
VERTEX
  8
0
 10
193.328947
 20
342.228449
 42
-0.057761
  0
VERTEX
  8
0
 10
198.871968
 20
336.744287
 42
-0.054675
  0
VERTEX
  8
0
 10
203.244955
 20
329.862921
 42
-0.040945
  0
VERTEX
  8
0
 10
206.536982
 20
321.500000
 42
0.000000
  0
VERTEX
  8
0
 10
207.744464
 20
317.500000
 42
0.000000
  0
VERTEX
  8
0
 10
208.881455
 20
321.500000
 42
0.041197
  0
VERTEX
  8
0
 10
209.955405
 20
326.949016
 42
0.015602
  0
VERTEX
  8
0
 10
210.583920
 20
334.686866
 42
0.015798
  0
VERTEX
  8
0
 10
210.728449
 20
342.603749
 42
0.032860
  0
VERTEX
  8
0
 10
210.241196
 20
348.755940
 42
-0.002785
  0
VERTEX
  8
0
 10
209.652602
 20
352.958160
 42
-0.091659
  0
VERTEX
  8
0
 10
209.702723
 20
353.975772
 42
-0.517484
  0
VERTEX
  8
0
 10
210.128909
 20
354.147829
 42
-0.038862
  0
VERTEX
  8
0
 10
211.304435
 20
353.255940
 42
-0.090516
  0
VERTEX
  8
0
 10
213.932053
 20
349.894766
 42
-0.022289
  0
VERTEX
  8
0
 10
216.919403
 20
343.522930
 42
-0.023593
  0
VERTEX
  8
0
 10
219.496383
 20
336.389373
 42
-0.037195
  0
VERTEX
  8
0
 10
220.948826
 20
330.047064
 42
-0.028890
  0
VERTEX
  8
0
 10
221.539596
 20
323.713532
 42
-0.022799
  0
VERTEX
  8
0
 10
221.468347
 20
316.828168
 42
-0.021567
  0
VERTEX
  8
0
 10
220.746632
 20
309.566736
 42
-0.019192
  0
VERTEX
  8
0
 10
219.384058
 20
302.103027
 42
0.006749
  0
VERTEX
  8
0
 10
218.867142
 20
299.622551
 42
0.010480
  0
VERTEX
  8
0
 10
218.495213
 20
297.468701
 42
0.005040
  0
VERTEX
  8
0
 10
218.239686
 20
295.654848
 42
0.232897
  0
VERTEX
  8
0
 10
218.357086
 20
295.309581
 42
0.404083
  0
VERTEX
  8
0
 10
218.656903
 20
295.304377
 42
0.004223
  0
VERTEX
  8
0
 10
220.315724
 20
296.878271
 42
0.010322
  0
VERTEX
  8
0
 10
222.248345
 20
298.821844
 42
0.006177
  0
VERTEX
  8
0
 10
224.468038
 20
301.206554
 42
0.042448
  0
VERTEX
  8
0
 10
229.379763
 20
307.635860
 42
0.021853
  0
VERTEX
  8
0
 10
234.450630
 20
316.414150
 42
0.021812
  0
VERTEX
  8
0
 10
238.684300
 20
325.488959
 42
0.048036
  0
VERTEX
  8
0
 10
240.920820
 20
332.799221
 42
0.037455
  0
VERTEX
  8
0
 10
241.778593
 20
339.569417
 42
0.016339
  0
VERTEX
  8
0
 10
241.946066
 20
348.631899
 42
0.016346
  0
VERTEX
  8
0
 10
241.520876
 20
357.693821
 42
0.037095
  0
VERTEX
  8
0
 10
240.471195
 20
364.467970
 42
0.037934
  0
VERTEX
  8
0
 10
238.241536
 20
371.582024
 42
0.031250
  0
VERTEX
  8
0
 10
234.838293
 20
378.773029
 42
0.030325
  0
VERTEX
  8
0
 10
230.439212
 20
385.710171
 42
0.030295
  0
VERTEX
  8
0
 10
225.231935
 20
392.066668
 42
-0.007392
  0
VERTEX
  8
0
 10
222.782118
 20
394.792450
 42
-0.012220
  0
VERTEX
  8
0
 10
220.805334
 20
397.173453
 42
-0.005858
  0
VERTEX
  8
0
 10
219.246418
 20
399.195627
 42
-0.373675
  0
VERTEX
  8
0
 10
219.275463
 20
399.608796
 42
-0.282150
  0
VERTEX
  8
0
 10
220.973529
 20
400.016062
 42
-0.007423
  0
VERTEX
  8
0
 10
228.631680
 20
397.397629
 42
-0.015069
  0
VERTEX
  8
0
 10
236.951404
 20
394.128202
 42
-0.016053
  0
VERTEX
  8
0
 10
244.882444
 20
390.426613
 42
-0.034817
  0
VERTEX
  8
0
 10
257.252994
 20
383.038532
 42
-0.045148
  0
VERTEX
  8
0
 10
267.367374
 20
374.549995
 42
-0.045890
  0
VERTEX
  8
0
 10
275.669420
 20
364.503765
 42
-0.037844
  0
VERTEX
  8
0
 10
282.617281
 20
352.460158
 42
-0.026853
  0
VERTEX
  8
0
 10
286.314389
 20
343.565029
 42
-0.036469
  0
VERTEX
  8
0
 10
288.610422
 20
335.181276
 42
-0.035288
  0
VERTEX
  8
0
 10
289.711090
 20
326.340364
 42
-0.022949
  0
VERTEX
  8
0
 10
289.787529
 20
316.043365
 42
-0.024888
  0
VERTEX
  8
0
 10
288.979477
 20
306.908784
 42
-0.037376
  0
VERTEX
  8
0
 10
287.291039
 20
299.091280
 42
-0.025773
  0
VERTEX
  8
0
 10
284.001739
 20
289.761886
 42
-0.006062
  0
VERTEX
  8
0
 10
277.517159
 20
274.535886
 42
0.017735
  0
VERTEX
  8
0
 10
273.265361
 20
263.868473
 42
0.030900
  0
VERTEX
  8
0
 10
270.615765
 20
254.724269
 42
0.035135
  0
VERTEX
  8
0
 10
269.328769
 20
246.209389
 42
0.033962
  0
VERTEX
  8
0
 10
269.225380
 20
237.500000
 42
0.028795
  0
VERTEX
  8
0
 10
270.102676
 20
229.810801
 42
0.049129
  0
VERTEX
  8
0
 10
271.821519
 20
223.584608
 42
0.054193
  0
VERTEX
  8
0
 10
274.572430
 20
218.246194
 42
0.045308
  0
VERTEX
  8
0
 10
278.556597
 20
213.265061
 42
0.011518
  0
VERTEX
  8
0
 10
281.683721
 20
210.155649
 42
0.066726
  0
VERTEX
  8
0
 10
283.565909
 20
208.794040
 42
0.091679
  0
VERTEX
  8
0
 10
285.469054
 20
208.184053
 42
0.031842
  0
VERTEX
  8
0
 10
288.356257
 20
208.000000
 42
0.045279
  0
VERTEX
  8
0
 10
292.151466
 20
208.344389
 42
0.056706
  0
VERTEX
  8
0
 10
295.532207
 20
209.369024
 42
0.062150
  0
VERTEX
  8
0
 10
298.338744
 20
211.019879
 42
0.076129
  0
VERTEX
  8
0
 10
300.439296
 20
213.216795
 42
0.112787
  0
VERTEX
  8
0
 10
301.770953
 20
216.489973
 42
0.081292
  0
VERTEX
  8
0
 10
301.769116
 20
220.446631
 42
0.053529
  0
VERTEX
  8
0
 10
300.349968
 20
225.581434
 42
0.018433
  0
VERTEX
  8
0
 10
297.250000
 20
232.646780
 42
-0.008042
  0
VERTEX
  8
0
 10
294.546224
 20
238.476796
 42
-0.035957
  0
VERTEX
  8
0
 10
293.268505
 20
242.017971
 42
-0.047488
  0
VERTEX
  8
0
 10
292.687318
 20
245.221071
 42
-0.021501
  0
VERTEX
  8
0
 10
292.509825
 20
249.485908
 42
-0.017170
  0
VERTEX
  8
0
 10
292.654296
 20
253.526697
 42
-0.045427
  0
VERTEX
  8
0
 10
293.117204
 20
256.379431
 42
-0.044756
  0
VERTEX
  8
0
 10
294.092090
 20
259.125705
 42
-0.016266
  0
VERTEX
  8
0
 10
295.939665
 20
262.826013
 42
-0.022233
  0
VERTEX
  8
0
 10
297.546551
 20
265.506240
 42
-0.016369
  0
VERTEX
  8
0
 10
299.550660
 20
268.329749
 42
-0.016608
  0
VERTEX
  8
0
 10
301.626130
 20
270.879481
 42
-0.035108
  0
VERTEX
  8
0
 10
303.429840
 20
272.678798
 42
-0.034920
  0
VERTEX
  8
0
 10
307.149363
 20
275.472388
 42
-0.017879
  0
VERTEX
  8
0
 10
312.161247
 20
278.467226
 42
-0.008970
  0
VERTEX
  8
0
 10
317.189520
 20
281.116539
 42
-0.323744
  0
VERTEX
  8
0
 10
318.413290
 20
280.920043
 42
-0.288533
  0
VERTEX
  8
0
 10
318.501352
 20
280.532777
 42
-0.007804
  0
VERTEX
  8
0
 10
317.870744
 20
278.825519
 42
-0.013896
  0
VERTEX
  8
0
 10
317.013946
 20
276.783210
 42
-0.008787
  0
VERTEX
  8
0
 10
315.907474
 20
274.448599
 42
0.056128
  0
VERTEX
  8
0
 10
312.122585
 20
264.015792
 42
0.084535
  0
VERTEX
  8
0
 10
311.474311
 20
254.385377
 42
0.077741
  0
VERTEX
  8
0
 10
314.065552
 20
244.510688
 42
0.040622
  0
VERTEX
  8
0
 10
320.098521
 20
233.281215
 42
-0.009038
  0
VERTEX
  8
0
 10
322.689209
 20
229.113180
 42
-0.005808
  0
VERTEX
  8
0
 10
325.549675
 20
224.190967
 42
-0.005837
  0
VERTEX
  8
0
 10
328.237956
 20
219.306657
 42
-0.010898
  0
VERTEX
  8
0
 10
330.281104
 20
215.281215
 42
0.000000
  0
VERTEX
  8
0
 10
334.500000
 20
206.500000
 42
0.000000
  0
VERTEX
  8
0
 10
334.500000
 20
194.334845
 42
0.004789
  0
VERTEX
  8
0
 10
334.587423
 20
185.206690
 42
0.182967
  0
VERTEX
  8
0
 10
335.336531
 20
183.337052
 42
0.507608
  0
VERTEX
  8
0
 10
336.517226
 20
183.469424
 42
0.013098
  0
VERTEX
  8
0
 10
339.458459
 20
188.937186
 42
0.038768
  0
VERTEX
  8
0
 10
341.761571
 20
194.542815
 42
0.037820
  0
VERTEX
  8
0
 10
343.194694
 20
200.483183
 42
0.032682
  0
VERTEX
  8
0
 10
343.850390
 20
207.307874
 42
0.018393
  0
VERTEX
  8
0
 10
343.797602
 20
215.634227
 42
0.018928
  0
VERTEX
  8
0
 10
343.180225
 20
223.242112
 42
0.043958
  0
VERTEX
  8
0
 10
342.006649
 20
228.839207
 42
0.045518
  0
VERTEX
  8
0
 10
339.901368
 20
234.026930
 42
0.021656
  0
VERTEX
  8
0
 10
336.318818
 20
240.287011
 42
-0.016200
  0
VERTEX
  8
0
 10
335.409446
 20
241.836575
 42
-0.021705
  0
VERTEX
  8
0
 10
334.693673
 20
243.299994
 42
-0.019582
  0
VERTEX
  8
0
 10
334.211325
 20
244.535034
 42
-0.165211
  0
VERTEX
  8
0
 10
334.207962
 20
245.123885
 42
-0.488299
  0
VERTEX
  8
0
 10
335.483070
 20
245.575741
 42
-0.013211
  0
VERTEX
  8
0
 10
341.133426
 20
241.756839
 42
-0.021364
  0
VERTEX
  8
0
 10
346.988390
 20
237.179958
 42
-0.034308
  0
VERTEX
  8
0
 10
351.515474
 20
232.747846
 42
-0.023010
  0
VERTEX
  8
0
 10
356.198023
 20
226.973869
 42
-0.026968
  0
VERTEX
  8
0
 10
360.070147
 20
221.082558
 42
-0.026805
  0
VERTEX
  8
0
 10
363.304292
 20
214.777385
 42
-0.022241
  0
VERTEX
  8
0
 10
366.073101
 20
207.761215
 42
-0.046151
  0
VERTEX
  8
0
 10
369.535042
 20
193.562904
 42
-0.054771
  0
VERTEX
  8
0
 10
370.052146
 20
179.776788
 42
-0.056646
  0
VERTEX
  8
0
 10
367.584767
 20
166.600381
 42
-0.055363
  0
VERTEX
  8
0
 10
362.213487
 20
154.204828
 42
0.011138
  0
VERTEX
  8
0
 10
361.303094
 20
152.527370
 42
0.017533
  0
VERTEX
  8
0
 10
360.605261
 20
151.044702
 42
0.011885
  0
VERTEX
  8
0
 10
360.114173
 20
149.818993
 42
0.293709
  0
VERTEX
  8
0
 10
360.188195
 20
149.478472
 42
0.270817
  0
VERTEX
  8
0
 10
360.508515
 20
149.394476
 42
0.020717
  0
VERTEX
  8
0
 10
361.391255
 20
149.681066
 42
0.023951
  0
VERTEX
  8
0
 10
362.474810
 20
150.143337
 42
0.015671
  0
VERTEX
  8
0
 10
363.678227
 20
150.773644
 42
-0.001896
  0
VERTEX
  8
0
 10
365.702377
 20
151.905935
 42
-0.000133
  0
VERTEX
  8
0
 10
371.384968
 20
155.054509
 42
-0.000189
  0
VERTEX
  8
0
 10
378.163606
 20
158.804675
 42
-0.000142
  0
VERTEX
  8
0
 10
385.618538
 20
162.922556
 42
0.001062
  0
VERTEX
  8
0
 10
394.082978
 20
167.618399
 42
0.000669
  0
VERTEX
  8
0
 10
403.947320
 20
173.135614
 42
0.000672
  0
VERTEX
  8
0
 10
413.632266
 20
178.586646
 42
0.001235
  0
VERTEX
  8
0
 10
421.500000
 20
183.054483
 42
-0.000200
  0
VERTEX
  8
0
 10
428.302222
 20
186.935884
 42
-0.000243
  0
VERTEX
  8
0
 10
434.681250
 20
190.568303
 42
-0.000205
  0
VERTEX
  8
0
 10
440.052224
 20
193.620330
 42
-0.001692
  0
VERTEX
  8
0
 10
442.500000
 20
194.999009
 42
0.030813
  0
VERTEX
  8
0
 10
451.574353
 20
200.830417
 42
0.049129
  0
VERTEX
  8
0
 10
458.434670
 20
206.981716
 42
0.058415
  0
VERTEX
  8
0
 10
463.075602
 20
213.414764
 42
0.080879
  0
VERTEX
  8
0
 10
465.489695
 20
220.093376
 42
0.144734
  0
VERTEX
  8
0
 10
464.807934
 20
226.752333
 42
0.083991
  0
VERTEX
  8
0
 10
460.522752
 20
233.631737
 42
0.061699
  0
VERTEX
  8
0
 10
452.719813
 20
240.515286
 42
0.031965
  0
VERTEX
  8
0
 10
441.524436
 20
247.161282
 42
-0.012680
  0
VERTEX
  8
0
 10
423.735611
 20
256.814269
 42
-0.048822
  0
VERTEX
  8
0
 10
413.511271
 20
264.115114
 42
-0.071061
  0
VERTEX
  8
0
 10
406.947959
 20
271.731901
 42
-0.051507
  0
VERTEX
  8
0
 10
401.905571
 20
281.746780
 42
-0.114682
  0
VERTEX
  8
0
 10
400.770574
 20
290.093942
 42
-0.078766
  0
VERTEX
  8
0
 10
403.147606
 20
299.386523
 42
-0.070122
  0
VERTEX
  8
0
 10
408.690766
 20
308.475495
 42
-0.060508
  0
VERTEX
  8
0
 10
416.784698
 20
316.203310
 42
-0.004953
  0
VERTEX
  8
0
 10
422.011616
 20
320.026260
 42
-0.020224
  0
VERTEX
  8
0
 10
425.299028
 20
322.185430
 42
-0.018398
  0
VERTEX
  8
0
 10
428.890438
 20
324.165685
 42
-0.003607
  0
VERTEX
  8
0
 10
435.500000
 20
327.439582
 42
-0.022624
  0
VERTEX
  8
0
 10
442.885316
 20
330.627102
 42
-0.008089
  0
VERTEX
  8
0
 10
453.681521
 20
334.519545
 42
-0.004648
  0
VERTEX
  8
0
 10
470.459111
 20
340.089856
 42
-0.000929
  0
VERTEX
  8
0
 10
500.500000
 20
349.693056
 42
0.014060
  0
VERTEX
  8
0
 10
511.137401
 20
353.404090
 42
0.021736
  0
VERTEX
  8
0
 10
520.073680
 20
357.258875
 42
0.025359
  0
VERTEX
  8
0
 10
527.133608
 20
361.128763
 42
0.058384
  0
VERTEX
  8
0
 10
531.877926
 20
364.877926
 42
0.017940
  0
VERTEX
  8
0
 10
534.154270
 20
367.323758
 42
0.067581
  0
VERTEX
  8
0
 10
535.296991
 20
369.072924
 42
0.079755
  0
VERTEX
  8
0
 10
535.834291
 20
370.909881
 42
0.031356
  0
VERTEX
  8
0
 10
536.000000
 20
373.549660
 42
0.128063
  0
VERTEX
  8
0
 10
533.895129
 20
381.632990
 42
0.113955
  0
VERTEX
  8
0
 10
528.050840
 20
388.079889
 42
0.065001
  0
VERTEX
  8
0
 10
517.025257
 20
393.786848
 42
0.016916
  0
VERTEX
  8
0
 10
498.000000
 20
399.964949
 42
0.000339
  0
VERTEX
  8
0
 10
489.688027
 20
402.350445
 42
0.002219
  0
VERTEX
  8
0
 10
485.511595
 20
403.525967
 42
0.004151
  0
VERTEX
  8
0
 10
482.548924
 20
404.319266
 42
0.003856
  0
VERTEX
  8
0
 10
479.500000
 20
405.083555
 42
-0.013814
  0
VERTEX
  8
0
 10
466.053984
 20
408.740176
 42
-0.008953
  0
VERTEX
  8
0
 10
450.708990
 20
413.673501
 42
-0.008821
  0
VERTEX
  8
0
 10
436.376621
 20
418.850131
 42
-0.024743
  0
VERTEX
  8
0
 10
426.608270
 20
423.139029
 42
-0.018548
  0
VERTEX
  8
0
 10
416.134559
 20
428.864738
 42
-0.044369
  0
VERTEX
  8
0
 10
408.963920
 20
434.049782
 42
-0.056069
  0
VERTEX
  8
0
 10
403.873796
 20
439.579392
 42
-0.051522
  0
VERTEX
  8
0
 10
399.970845
 20
446.254970
 42
-0.076369
  0
VERTEX
  8
0
 10
398.229817
 20
452.457119
 42
-0.063995
  0
VERTEX
  8
0
 10
398.274869
 20
459.296992
 42
-0.065311
  0
VERTEX
  8
0
 10
400.027989
 20
465.761069
 42
-0.087734
  0
VERTEX
  8
0
 10
403.297728
 20
470.858999
 42
-0.035777
  0
VERTEX
  8
0
 10
406.427531
 20
473.797930
 42
-0.014734
  0
VERTEX
  8
0
 10
411.051058
 20
477.334455
 42
-0.014795
  0
VERTEX
  8
0
 10
416.071246
 20
480.724298
 42
-0.024103
  0
VERTEX
  8
0
 10
420.541427
 20
483.260846
 42
-0.029965
  0
VERTEX
  8
0
 10
427.724437
 20
486.365938
 42
-0.010081
  0
VERTEX
  8
0
 10
438.536585
 20
490.044600
 42
-0.008716
  0
VERTEX
  8
0
 10
452.160420
 20
494.115402
 42
-0.005199
  0
VERTEX
  8
0
 10
468.500000
 20
498.506308
 42
0.000438
  0
VERTEX
  8
0
 10
472.797145
 20
499.617306
 42
0.000203
  0
VERTEX
  8
0
 10
478.381250
 20
501.068674
 42
0.000201
  0
VERTEX
  8
0
 10
484.248062
 20
502.598574
 42
0.000279
  0
VERTEX
  8
0
 10
489.500000
 20
503.973516
 42
-0.000021
  0
VERTEX
  8
0
 10
494.460937
 20
505.275012
 42
-0.000021
  0
VERTEX
  8
0
 10
499.443750
 20
506.581801
 42
-0.000020
  0
VERTEX
  8
0
 10
503.807827
 20
507.725936
 42
-0.000080
  0
VERTEX
  8
0
 10
506.500000
 20
508.431168
 42
0.032492
  0
VERTEX
  8
0
 10
516.628870
 20
511.799021
 42
0.049897
  0
VERTEX
  8
0
 10
524.796558
 20
516.110282
 42
0.062598
  0
VERTEX
  8
0
 10
530.255723
 20
520.806549
 42
0.185936
  0
VERTEX
  8
0
 10
532.000000
 20
525.334914
 42
0.055109
  0
VERTEX
  8
0
 10
531.848568
 20
526.704663
 42
0.025845
  0
VERTEX
  8
0
 10
531.369147
 20
528.424274
 42
0.025235
  0
VERTEX
  8
0
 10
530.674649
 20
530.193668
 42
0.032282
  0
VERTEX
  8
0
 10
529.852416
 20
531.738795
 42
0.074637
  0
VERTEX
  8
0
 10
527.388497
 20
534.648837
 42
0.023753
  0
VERTEX
  8
0
 10
522.931157
 20
538.192748
 42
0.020798
  0
VERTEX
  8
0
 10
518.277150
 20
541.259516
 42
0.136094
  0
VERTEX
  8
0
 10
515.607054
 20
542.000000
 42
-0.055775
  0
VERTEX
  8
0
 10
514.995167
 20
542.068469
 42
-0.049662
  0
VERTEX
  8
0
 10
514.387854
 20
542.271150
 42
-0.052617
  0
VERTEX
  8
0
 10
513.874554
 20
542.569486
 42
-0.096699
  0
VERTEX
  8
0
 10
513.547549
 20
542.923063
 42
0.129179
  0
VERTEX
  8
0
 10
513.127264
 20
543.322753
 42
0.026202
  0
VERTEX
  8
0
 10
512.193326
 20
543.775001
 42
0.026026
  0
VERTEX
  8
0
 10
511.020194
 20
544.198618
 42
0.021815
  0
VERTEX
  8
0
 10
509.738532
 20
544.527061
 42
-0.015085
  0
VERTEX
  8
0
 10
507.837525
 20
544.987052
 42
-0.002289
  0
VERTEX
  8
0
 10
504.073194
 20
546.037604
 42
-0.002563
  0
VERTEX
  8
0
 10
499.640354
 20
547.321220
 42
-0.002216
  0
VERTEX
  8
0
 10
495.000000
 20
548.713130
 42
0.000922
  0
VERTEX
  8
0
 10
490.449579
 20
550.090911
 42
0.001211
  0
VERTEX
  8
0
 10
486.290625
 20
551.330823
 42
0.000879
  0
VERTEX
  8
0
 10
482.800052
 20
552.355599
 42
0.011586
  0
VERTEX
  8
0
 10
481.500000
 20
552.702319
 42
-0.026451
  0
VERTEX
  8
0
 10
469.401489
 20
556.317277
 42
-0.020597
  0
VERTEX
  8
0
 10
456.673765
 20
561.466327
 42
-0.020690
  0
VERTEX
  8
0
 10
445.402025
 20
567.149335
 42
-0.058667
  0
VERTEX
  8
0
 10
438.276040
 20
572.296704
 42
-0.062038
  0
VERTEX
  8
0
 10
433.347941
 20
578.098887
 42
-0.083211
  0
VERTEX
  8
0
 10
430.575774
 20
584.405205
 42
-0.092120
  0
VERTEX
  8
0
 10
430.166016
 20
590.759233
 42
-0.096663
  0
VERTEX
  8
0
 10
432.088754
 20
596.719584
 42
-0.041297
  0
VERTEX
  8
0
 10
434.519714
 20
600.371397
 42
-0.020131
  0
VERTEX
  8
0
 10
438.172310
 20
604.619841
 42
-0.018249
  0
VERTEX
  8
0
 10
441.952706
 20
608.389076
 42
-0.087533
  0
VERTEX
  8
0
 10
444.500000
 20
610.031915
 42
0.447271
  0
VERTEX
  8
0
 10
444.619733
 20
610.379833
 42
0.226903
  0
VERTEX
  8
0
 10
444.193740
 20
610.680639
 42
0.033219
  0
VERTEX
  8
0
 10
442.391797
 20
610.865374
 42
0.006771
  0
VERTEX
  8
0
 10
439.184259
 20
610.936614
 42
-0.012402
  0
VERTEX
  8
0
 10
436.244895
 20
611.035020
 42
-0.014479
  0
VERTEX
  8
0
 10
433.462690
 20
611.278314
 42
-0.013502
  0
VERTEX
  8
0
 10
431.136075
 20
611.613744
 42
-0.080475
  0
VERTEX
  8
0
 10
429.979747
 20
612.010839
 42
-0.097850
  0
VERTEX
  8
0
 10
428.860993
 20
612.927576
 42
-0.004542
  0
VERTEX
  8
0
 10
425.760342
 20
616.760623
 42
-0.007379
  0
VERTEX
  8
0
 10
422.168642
 20
621.423818
 42
-0.005218
  0
VERTEX
  8
0
 10
418.268131
 20
626.760839
 42
0.000388
  0
VERTEX
  8
0
 10
414.328220
 20
632.262545
 42
0.000466
  0
VERTEX
  8
0
 10
410.613594
 20
637.430993
 42
0.000398
  0
VERTEX
  8
0
 10
407.476419
 20
641.780114
 42
0.003121
  0
VERTEX
  8
0
 10
406.003919
 20
643.791476
 42
-0.078551
  0
VERTEX
  8
0
 10
404.227913
 20
647.191205
 42
-0.336331
  0
VERTEX
  8
0
 10
404.911351
 20
649.224441
 42
-0.126203
  0
VERTEX
  8
0
 10
408.177673
 20
650.404014
 42
-0.012394
  0
VERTEX
  8
0
 10
416.594245
 20
651.000000
 42
0.005277
  0
VERTEX
  8
0
 10
422.312833
 20
651.323215
 42
0.028707
  0
VERTEX
  8
0
 10
425.390679
 20
651.708123
 42
0.057708
  0
VERTEX
  8
0
 10
427.123249
 20
652.238565
 42
0.247351
  0
VERTEX
  8
0
 10
427.775038
 20
653.055474
 42
0.195088
  0
VERTEX
  8
0
 10
427.563088
 20
654.118165
 42
0.003361
  0
VERTEX
  8
0
 10
424.214224
 20
659.131482
 42
0.007990
  0
VERTEX
  8
0
 10
420.134432
 20
664.948647
 42
0.005168
  0
VERTEX
  8
0
 10
415.236497
 20
671.555474
 42
-0.000717
  0
VERTEX
  8
0
 10
404.792918
 20
685.383797
 42
-0.021000
  0
VERTEX
  8
0
 10
402.286378
 20
689.020898
 42
-0.108327
  0
VERTEX
  8
0
 10
401.582767
 20
690.975060
 42
-0.208578
  0
VERTEX
  8
0
 10
402.036355
 20
692.543805
 42
-0.148143
  0
VERTEX
  8
0
 10
403.106509
 20
693.250955
 42
-0.039641
  0
VERTEX
  8
0
 10
405.124229
 20
693.682151
 42
-0.025633
  0
VERTEX
  8
0
 10
408.217095
 20
693.930239
 42
-0.007197
  0
VERTEX
  8
0
 10
413.063428
 20
694.000000
 42
0.008993
  0
VERTEX
  8
0
 10
416.868442
 20
694.068444
 42
0.013660
  0
VERTEX
  8
0
 10
420.169359
 20
694.277636
 42
0.008246
  0
VERTEX
  8
0
 10
422.879847
 20
694.569040
 42
0.227201
  0
VERTEX
  8
0
 10
423.466097
 20
694.945144
 42
0.282075
  0
VERTEX
  8
0
 10
423.468484
 20
695.588618
 42
0.011688
  0
VERTEX
  8
0
 10
422.173176
 20
697.611578
 42
0.017290
  0
VERTEX
  8
0
 10
420.427395
 20
700.018686
 42
0.011072
  0
VERTEX
  8
0
 10
418.244395
 20
702.695144
 42
-0.004348
  0
VERTEX
  8
0
 10
410.926971
 20
711.424309
 42
-0.003931
  0
VERTEX
  8
0
 10
403.509578
 20
720.576350
 42
-0.002216
  0
VERTEX
  8
0
 10
396.883240
 20
728.961004
 42
-0.046346
  0
VERTEX
  8
0
 10
395.156308
 20
731.644995
 42
-0.166383
  0
VERTEX
  8
0
 10
394.836334
 20
733.771277
 42
-0.224441
  0
VERTEX
  8
0
 10
395.953944
 20
735.330332
 42
-0.101873
  0
VERTEX
  8
0
 10
398.869153
 20
736.245671
 42
-0.025304
  0
VERTEX
  8
0
 10
403.891474
 20
736.500000
 42
0.008772
  0
VERTEX
  8
0
 10
407.524650
 20
736.563744
 42
0.056098
  0
VERTEX
  8
0
 10
409.343402
 20
736.833348
 42
0.131136
  0
VERTEX
  8
0
 10
410.321694
 20
737.393515
 42
0.151011
  0
VERTEX
  8
0
 10
410.826394
 20
738.339211
 42
0.108960
  0
VERTEX
  8
0
 10
410.803093
 20
739.215231
 42
0.044657
  0
VERTEX
  8
0
 10
410.412236
 20
740.345593
 42
0.041418
  0
VERTEX
  8
0
 10
409.757945
 20
741.529291
 42
0.041636
  0
VERTEX
  8
0
 10
408.918524
 20
742.586727
 42
-0.032337
  0
VERTEX
  8
0
 10
407.590137
 20
744.197756
 42
-0.003126
  0
VERTEX
  8
0
 10
404.650477
 20
748.327385
 42
-0.003962
  0
VERTEX
  8
0
 10
401.212484
 20
753.304951
 42
-0.003121
  0
VERTEX
  8
0
 10
397.566108
 20
758.747516
 42
0.007826
  0
VERTEX
  8
0
 10
391.529563
 20
767.576845
 42
0.056422
  0
VERTEX
  8
0
 10
388.105452
 20
771.417887
 42
0.203537
  0
VERTEX
  8
0
 10
385.779997
 20
772.210285
 42
0.251499
  0
VERTEX
  8
0
 10
383.874868
 20
771.000000
 42
-0.009729
  0
VERTEX
  8
0
 10
381.353449
 20
766.711576
 42
-0.001488
  0
VERTEX
  8
0
 10
376.142166
 20
758.286668
 42
-0.001638
  0
VERTEX
  8
0
 10
370.862720
 20
749.869654
 42
-0.007299
  0
VERTEX
  8
0
 10
367.676105
 20
744.985399
 42
0.011429
  0
VERTEX
  8
0
 10
364.602544
 20
740.188315
 42
0.173685
  0
VERTEX
  8
0
 10
364.210611
 20
738.284439
 42
0.333270
  0
VERTEX
  8
0
 10
365.236766
 20
737.256033
 42
0.035792
  0
VERTEX
  8
0
 10
368.808870
 20
737.000000
 42
-0.039167
  0
VERTEX
  8
0
 10
372.733732
 20
736.692079
 42
-0.106472
  0
VERTEX
  8
0
 10
375.321153
 20
735.692286
 42
-0.168542
  0
VERTEX
  8
0
 10
376.589953
 20
734.043794
 42
-0.142945
  0
VERTEX
  8
0
 10
376.673980
 20
731.837169
 42
-0.073041
  0
VERTEX
  8
0
 10
376.053031
 20
730.333934
 42
-0.006097
  0
VERTEX
  8
0
 10
373.845855
 20
726.731871
 42
-0.008024
  0
VERTEX
  8
0
 10
371.079137
 20
722.490355
 42
-0.006109
  0
VERTEX
  8
0
 10
367.918277
 20
717.931578
 42
0.003791
  0
VERTEX
  8
0
 10
364.691172
 20
713.323028
 42
0.004528
  0
VERTEX
  8
0
 10
361.722353
 20
708.929525
 42
0.003923
  0
VERTEX
  8
0
 10
359.283840
 20
705.185952
 42
0.029398
  0
VERTEX
  8
0
 10
358.249055
 20
703.339145
 42
0.022381
  0
VERTEX
  8
0
 10
357.409563
 20
701.392704
 42
0.116885
  0
VERTEX
  8
0
 10
357.259583
 20
700.243036
 42
0.118275
  0
VERTEX
  8
0
 10
357.642521
 20
699.155116
 42
0.023157
  0
VERTEX
  8
0
 10
358.857298
 20
697.454287
 42
-0.100276
  0
VERTEX
  8
0
 10
360.889998
 20
693.419055
 42
-0.212421
  0
VERTEX
  8
0
 10
360.371203
 20
690.029287
 42
-0.179784
  0
VERTEX
  8
0
 10
357.346237
 20
687.755640
 42
-0.072319
  0
VERTEX
  8
0
 10
352.149235
 20
687.000000
 42
0.018599
  0
VERTEX
  8
0
 10
348.867294
 20
686.877877
 42
0.112268
  0
VERTEX
  8
0
 10
347.248167
 20
686.380592
 42
0.105764
  0
VERTEX
  8
0
 10
345.957977
 20
685.220552
 42
0.015638
  0
VERTEX
  8
0
 10
343.977976
 20
682.304219
 42
0.006437
  0
VERTEX
  8
0
 10
342.837085
 20
680.452953
 42
0.009150
  0
VERTEX
  8
0
 10
341.874780
 20
678.776639
 42
0.005756
  0
VERTEX
  8
0
 10
341.113674
 20
677.354220
 42
0.120530
  0
VERTEX
  8
0
 10
341.000000
 20
676.889511
 42
0.204550
  0
VERTEX
  8
0
 10
341.204516
 20
676.410512
 42
0.000684
  0
VERTEX
  8
0
 10
345.920313
 20
671.907157
 42
0.003550
  0
VERTEX
  8
0
 10
351.328513
 20
666.829468
 42
0.002199
  0
VERTEX
  8
0
 10
357.750000
 20
660.937863
 42
-0.002352
  0
VERTEX
  8
0
 10
380.012840
 20
640.499486
 42
-0.023024
  0
VERTEX
  8
0
 10
388.962155
 20
631.405024
 42
-0.065491
  0
VERTEX
  8
0
 10
392.617644
 20
626.067764
 42
-0.323982
  0
VERTEX
  8
0
 10
392.081201
 20
622.676784
 42
-0.142843
  0
VERTEX
  8
0
 10
391.197871
 20
622.190181
 42
-0.012896
  0
VERTEX
  8
0
 10
388.696295
 20
621.698805
 42
-0.015923
  0
VERTEX
  8
0
 10
385.623841
 20
621.277341
 42
-0.011776
  0
VERTEX
  8
0
 10
382.204417
 20
621.000000
 42
0.000000
  0
VERTEX
  8
0
 10
373.500000
 20
620.500000
 42
0.000000
  0
VERTEX
  8
0
 10
371.561378
 20
616.879327
 42
0.000000
  0
VERTEX
  8
0
 10
369.622756
 20
613.258654
 42
0.000000
  0
VERTEX
  8
0
 10
373.061378
 20
609.190276
 42
-0.025700
  0
VERTEX
  8
0
 10
375.188409
 20
606.394143
 42
-0.001799
  0
VERTEX
  8
0
 10
380.716985
 20
598.231542
 42
-0.002546
  0
VERTEX
  8
0
 10
387.228050
 20
588.436129
 42
-0.001914
  0
VERTEX
  8
0
 10
394.294316
 20
577.596988
 42
0.000000
  0
VERTEX
  8
0
 10
412.088633
 20
550.072077
 42
0.000000
  0
VERTEX
  8
0
 10
410.518636
 20
547.036038
 42
-0.027816
  0
VERTEX
  8
0
 10
409.827682
 20
545.864485
 42
-0.033761
  0
VERTEX
  8
0
 10
409.050182
 20
544.854338
 42
-0.035952
  0
VERTEX
  8
0
 10
408.298785
 20
544.117755
 42
-0.151053
  0
VERTEX
  8
0
 10
407.724320
 20
543.872345
 42
-0.016229
  0
VERTEX
  8
0
 10
406.804831
 20
543.806550
 42
-0.000243
  0
VERTEX
  8
0
 10
401.425269
 20
543.599375
 42
-0.000659
  0
VERTEX
  8
0
 10
395.178446
 20
543.370090
 42
-0.000436
  0
VERTEX
  8
0
 10
388.000000
 20
543.122345
 42
0.001817
  0
VERTEX
  8
0
 10
376.219614
 20
542.683176
 42
0.025819
  0
VERTEX
  8
0
 10
372.025530
 20
542.294016
 42
0.092094
  0
VERTEX
  8
0
 10
370.038184
 20
541.618141
 42
0.233483
  0
VERTEX
  8
0
 10
369.199230
 20
540.393314
 42
0.122784
  0
VERTEX
  8
0
 10
369.514023
 20
537.333934
 42
0.025982
  0
VERTEX
  8
0
 10
371.613120
 20
532.352871
 42
0.026901
  0
VERTEX
  8
0
 10
374.611234
 20
526.923994
 42
0.029174
  0
VERTEX
  8
0
 10
378.101979
 20
522.000000
 42
-0.008953
  0
VERTEX
  8
0
 10
380.138508
 20
519.360286
 42
-0.004325
  0
VERTEX
  8
0
 10
382.655313
 20
515.912500
 42
-0.004287
  0
VERTEX
  8
0
 10
385.217106
 20
512.273080
 42
-0.006142
  0
VERTEX
  8
0
 10
387.420400
 20
509.000000
 42
0.001858
  0
VERTEX
  8
0
 10
389.438870
 20
505.945300
 42
0.001977
  0
VERTEX
  8
0
 10
391.438663
 20
502.968750
 42
0.001879
  0
VERTEX
  8
0
 10
393.179140
 20
500.420845
 42
0.009160
  0
VERTEX
  8
0
 10
394.196437
 20
499.000000
 42
-0.009946
  0
VERTEX
  8
0
 10
398.093524
 20
493.538864
 42
-0.016587
  0
VERTEX
  8
0
 10
401.125740
 20
488.774013
 42
-0.010737
  0
VERTEX
  8
0
 10
403.340326
 20
484.834225
 42
-0.330285
  0
VERTEX
  8
0
 10
403.184474
 20
483.784474
 42
-0.181696
  0
VERTEX
  8
0
 10
402.455998
 20
483.453963
 42
-0.005507
  0
VERTEX
  8
0
 10
399.083008
 20
483.266758
 42
-0.010231
  0
VERTEX
  8
0
 10
395.045095
 20
483.169955
 42
-0.006816
  0
VERTEX
  8
0
 10
390.416821
 20
483.216821
 42
0.000000
  0
VERTEX
  8
0
 10
378.500000
 20
483.500000
 42
0.000000
  0
VERTEX
  8
0
 10
369.718626
 20
494.500000
 42
-0.006693
  0
VERTEX
  8
0
 10
366.310382
 20
498.888558
 42
-0.008883
  0
VERTEX
  8
0
 10
363.335806
 20
502.975392
 42
-0.006669
  0
VERTEX
  8
0
 10
360.964728
 20
506.455615
 42
-0.083697
  0
VERTEX
  8
0
 10
360.321167
 20
507.905591
 42
-0.145027
  0
VERTEX
  8
0
 10
360.408562
 20
510.245705
 42
-0.184176
  0
VERTEX
  8
0
 10
361.773630
 20
511.900857
 42
-0.113410
  0
VERTEX
  8
0
 10
364.545263
 20
512.731050
 42
-0.040682
  0
VERTEX
  8
0
 10
368.692449
 20
512.664080
 42
0.038682
  0
VERTEX
  8
0
 10
372.270809
 20
512.592001
 42
0.107785
  0
VERTEX
  8
0
 10
374.677577
 20
513.263087
 42
0.218630
  0
VERTEX
  8
0
 10
375.657415
 20
514.542302
 42
0.194575
  0
VERTEX
  8
0
 10
375.386864
 20
516.206195
 42
0.020235
  0
VERTEX
  8
0
 10
372.958962
 20
519.863892
 42
0.001649
  0
VERTEX
  8
0
 10
366.187262
 20
529.156101
 42
0.002359
  0
VERTEX
  8
0
 10
359.328941
 20
538.410402
 42
0.007828
  0
VERTEX
  8
0
 10
354.694541
 20
544.404602
 42
-0.013128
  0
VERTEX
  8
0
 10
352.619777
 20
547.147724
 42
-0.019181
  0
VERTEX
  8
0
 10
350.952557
 20
549.676187
 42
-0.015018
  0
VERTEX
  8
0
 10
349.747802
 20
551.807184
 42
-0.215999
  0
VERTEX
  8
0
 10
349.697700
 20
552.654602
 42
-0.253478
  0
VERTEX
  8
0
 10
350.495163
 20
553.337123
 42
-0.028647
  0
VERTEX
  8
0
 10
352.928287
 20
553.715095
 42
-0.019761
  0
VERTEX
  8
0
 10
356.855237
 20
553.940428
 42
-0.004450
  0
VERTEX
  8
0
 10
363.547972
 20
554.000000
 42
0.005997
  0
VERTEX
  8
0
 10
369.154409
 20
554.067248
 42
0.012779
  0
VERTEX
  8
0
 10
373.483706
 20
554.281922
 42
0.008706
  0
VERTEX
  8
0
 10
376.800233
 20
554.589629
 42
0.230795
  0
VERTEX
  8
0
 10
377.532289
 20
555.052245
 42
0.273727
  0
VERTEX
  8
0
 10
377.546001
 20
555.765961
 42
0.012913
  0
VERTEX
  8
0
 10
376.258110
 20
557.909733
 42
0.018218
  0
VERTEX
  8
0
 10
374.496036
 20
560.467553
 42
0.011768
  0
VERTEX
  8
0
 10
372.281439
 20
563.302245
 42
-0.005182
  0
VERTEX
  8
0
 10
369.176498
 20
567.170465
 42
-0.001391
  0
VERTEX
  8
0
 10
364.325524
 20
573.379409
 42
-0.001409
  0
VERTEX
  8
0
 10
358.854354
 20
580.463604
 42
-0.001457
  0
VERTEX
  8
0
 10
353.484225
 20
587.500000
 42
0.000815
  0
VERTEX
  8
0
 10
348.118119
 20
594.549877
 42
0.000784
  0
VERTEX
  8
0
 10
342.659009
 20
601.674528
 42
0.000775
  0
VERTEX
  8
0
 10
337.827316
 20
607.939766
 42
0.002850
  0
VERTEX
  8
0
 10
334.741757
 20
611.881371
 42
-0.011538
  0
VERTEX
  8
0
 10
332.241978
 20
615.191596
 42
-0.023870
  0
VERTEX
  8
0
 10
330.477320
 20
617.908712
 42
-0.028054
  0
VERTEX
  8
0
 10
329.380575
 20
620.056241
 42
-0.140367
  0
VERTEX
  8
0
 10
329.197664
 20
621.381371
 42
-0.160737
  0
VERTEX
  8
0
 10
329.780862
 20
622.557021
 42
-0.142386
  0
VERTEX
  8
0
 10
330.978286
 20
623.224745
 42
-0.045402
  0
VERTEX
  8
0
 10
333.439054
 20
623.559166
 42
-0.004095
  0
VERTEX
  8
0
 10
339.655725
 20
623.783942
 42
0.008479
  0
VERTEX
  8
0
 10
344.033188
 20
623.980666
 42
0.017976
  0
VERTEX
  8
0
 10
347.410507
 20
624.312080
 42
0.017666
  0
VERTEX
  8
0
 10
349.902696
 20
624.737553
 42
0.172313
  0
VERTEX
  8
0
 10
350.802550
 20
625.283942
 42
0.311077
  0
VERTEX
  8
0
 10
350.890288
 20
626.369446
 42
0.018132
  0
VERTEX
  8
0
 10
349.033871
 20
629.338496
 42
0.016885
  0
VERTEX
  8
0
 10
345.944632
 20
633.586079
 42
0.004750
  0
VERTEX
  8
0
 10
340.841464
 20
640.000000
 42
-0.002607
  0
VERTEX
  8
0
 10
332.826787
 20
649.985112
 42
-0.001174
  0
VERTEX
  8
0
 10
322.407891
 20
663.168560
 42
-0.001155
  0
VERTEX
  8
0
 10
311.370138
 20
677.269641
 42
-0.001479
  0
VERTEX
  8
0
 10
301.274250
 20
690.308414
 42
-0.052893
  0
VERTEX
  8
0
 10
298.276346
 20
695.195651
 42
-0.308930
  0
VERTEX
  8
0
 10
298.717202
 20
698.022215
 42
-0.184398
  0
VERTEX
  8
0
 10
302.038809
 20
699.635406
 42
-0.021857
  0
VERTEX
  8
0
 10
310.375242
 20
700.000000
 42
0.008275
  0
VERTEX
  8
0
 10
313.669081
 20
700.054518
 42
0.012666
  0
VERTEX
  8
0
 10
316.519877
 20
700.221284
 42
0.007164
  0
VERTEX
  8
0
 10
318.873460
 20
700.452893
 42
0.230139
  0
VERTEX
  8
0
 10
319.347535
 20
700.753307
 42
0.297236
  0
VERTEX
  8
0
 10
319.334613
 20
701.285760
 42
0.006579
  0
VERTEX
  8
0
 10
317.778479
 20
703.487484
 42
0.012736
  0
VERTEX
  8
0
 10
315.795329
 20
706.075236
 42
0.007990
  0
VERTEX
  8
0
 10
313.352289
 20
709.003307
 42
-0.014925
  0
VERTEX
  8
0
 10
306.434450
 20
717.532331
 42
-0.004140
  0
VERTEX
  8
0
 10
296.097903
 20
731.318985
 42
-0.002824
  0
VERTEX
  8
0
 10
285.910165
 20
745.308932
 42
-0.038379
  0
VERTEX
  8
0
 10
282.629689
 20
750.695169
 42
-0.014621
  0
VERTEX
  8
0
 10
281.676553
 20
752.714071
 42
-0.134951
  0
VERTEX
  8
0
 10
281.539459
 20
753.662429
 42
-0.180088
  0
VERTEX
  8
0
 10
281.933396
 20
754.417134
 42
-0.030598
  0
VERTEX
  8
0
 10
283.225180
 20
755.445169
 42
-0.084386
  0
VERTEX
  8
0
 10
284.770436
 20
756.177636
 42
-0.034977
  0
VERTEX
  8
0
 10
287.041514
 20
756.648284
 42
-0.024633
  0
VERTEX
  8
0
 10
290.213066
 20
756.919035
 42
-0.008977
  0
VERTEX
  8
0
 10
294.722506
 20
757.000000
 42
0.009007
  0
VERTEX
  8
0
 10
298.279662
 20
757.064085
 42
0.014925
  0
VERTEX
  8
0
 10
301.274736
 20
757.261675
 42
0.008617
  0
VERTEX
  8
0
 10
303.688141
 20
757.535455
 42
0.376575
  0
VERTEX
  8
0
 10
304.000000
 20
757.890809
 42
0.128086
  0
VERTEX
  8
0
 10
303.855128
 20
758.447056
 42
0.007792
  0
VERTEX
  8
0
 10
302.985832
 20
759.947330
 42
0.011215
  0
VERTEX
  8
0
 10
301.870073
 20
761.714535
 42
0.008037
  0
VERTEX
  8
0
 10
300.547514
 20
763.640809
 42
-0.003959
  0
VERTEX
  8
0
 10
298.508625
 20
766.559108
 42
-0.000566
  0
VERTEX
  8
0
 10
294.385494
 20
772.575886
 42
-0.000643
  0
VERTEX
  8
0
 10
289.525091
 20
779.705465
 42
-0.000549
  0
VERTEX
  8
0
 10
284.418596
 20
787.234547
 42
0.001907
  0
VERTEX
  8
0
 10
279.468489
 20
794.490563
 42
0.002868
  0
VERTEX
  8
0
 10
275.091777
 20
800.776288
 42
0.001151
  0
VERTEX
  8
0
 10
271.297078
 20
806.133774
 42
0.064965
  0
VERTEX
  8
0
 10
270.468669
 20
807.026003
 42
0.271601
  0
VERTEX
  8
0
 10
269.650401
 20
807.160000
 42
0.111971
  0
VERTEX
  8
0
 10
268.682641
 20
806.510480
 42
0.047248
  0
VERTEX
  8
0
 10
267.410069
 20
804.878387
 42
0.009977
  0
SEQEND
  0
POLYLINE
  8
0
 66
1
 70
1
  0
VERTEX
  8
0
 10
192.065741
 20
693.964816
 42
-0.208076
  0
VERTEX
  8
0
 10
193.508182
 20
692.140771
 42
-0.175082
  0
VERTEX
  8
0
 10
193.290364
 20
689.667664
 42
-0.063456
  0
VERTEX
  8
0
 10
190.899449
 20
685.864592
 42
-0.010495
  0
VERTEX
  8
0
 10
185.250000
 20
679.278185
 42
-0.002729
  0
VERTEX
  8
0
 10
176.618214
 20
669.737402
 42
-0.013903
  0
VERTEX
  8
0
 10
171.642282
 20
664.592258
 42
-0.016644
  0
VERTEX
  8
0
 10
168.341859
 20
661.572460
 42
-0.326213
  0
VERTEX
  8
0
 10
167.044846
 20
661.472284
 42
-0.257681
  0
VERTEX
  8
0
 10
165.986731
 20
663.351425
 42
-0.003311
  0
VERTEX
  8
0
 10
165.961108
 20
677.410699
 42
-0.003940
  0
VERTEX
  8
0
 10
166.137319
 20
691.307252
 42
-0.193574
  0
VERTEX
  8
0
 10
167.200000
 20
693.800000
 42
-0.189861
  0
VERTEX
  8
0
 10
169.508289
 20
694.803645
 42
-0.007065
  0
VERTEX
  8
0
 10
179.161042
 20
695.004041
 42
-0.009399
  0
VERTEX
  8
0
 10
188.607845
 20
694.889070
 42
-0.115618
  0
SEQEND
  0
POLYLINE
  8
0
 66
1
 70
1
  0
VERTEX
  8
0
 10
191.740923
 20
638.468911
 42
-0.174433
  0
VERTEX
  8
0
 10
193.009420
 20
636.670841
 42
-0.162380
  0
VERTEX
  8
0
 10
192.889855
 20
634.414841
 42
-0.055458
  0
VERTEX
  8
0
 10
190.996742
 20
630.828596
 42
-0.006505
  0
VERTEX
  8
0
 10
185.812479
 20
623.403410
 42
0.000039
  0
VERTEX
  8
0
 10
183.026772
 20
619.521497
 42
0.000027
  0
VERTEX
  8
0
 10
179.868898
 20
615.119738
 42
0.000027
  0
VERTEX
  8
0
 10
176.829802
 20
610.882576
 42
0.000055
  0
VERTEX
  8
0
 10
174.443346
 20
607.554178
 42
-0.012594
  0
VERTEX
  8
0
 10
172.401166
 20
604.851695
 42
-0.018060
  0
VERTEX
  8
0
 10
170.448101
 20
602.572165
 42
-0.014060
  0
VERTEX
  8
0
 10
168.744629
 20
600.824709
 42
-0.194920
  0
VERTEX
  8
0
 10
167.943346
 20
600.500000
 42
-0.354531
  0
VERTEX
  8
0
 10
167.152134
 20
601.141672
 42
-0.028710
  0
VERTEX
  8
0
 10
166.721650
 20
603.979098
 42
-0.016962
  0
VERTEX
  8
0
 10
166.426066
 20
608.962559
 42
-0.002616
  0
VERTEX
  8
0
 10
166.226978
 20
618.869797
 42
-0.003791
  0
VERTEX
  8
0
 10
166.165544
 20
627.308200
 42
-0.010962
  0
VERTEX
  8
0
 10
166.295393
 20
633.150118
 42
-0.009976
  0
VERTEX
  8
0
 10
166.562190
 20
637.306815
 42
-0.153354
  0
VERTEX
  8
0
 10
167.099423
 20
638.619797
 42
-0.211820
  0
VERTEX
  8
0
 10
169.737048
 20
639.928587
 42
-0.012315
  0
VERTEX
  8
0
 10
178.943366
 20
640.098973
 42
-0.014969
  0
VERTEX
  8
0
 10
188.043247
 20
639.770695
 42
-0.137104
  0
SEQEND
  0
POLYLINE
  8
0
 66
1
 70
1
  0
VERTEX
  8
0
 10
291.389972
 20
590.322875
 42
0.008575
  0
VERTEX
  8
0
 10
296.551082
 20
584.428702
 42
0.004051
  0
VERTEX
  8
0
 10
303.400936
 20
576.993382
 42
0.003460
  0
VERTEX
  8
0
 10
311.778318
 20
568.169705
 42
0.002149
  0
VERTEX
  8
0
 10
321.725749
 20
557.924963
 42
-0.004079
  0
VERTEX
  8
0
 10
328.763482
 20
550.620670
 42
-0.015970
  0
VERTEX
  8
0
 10
332.924429
 20
545.940332
 42
-0.021770
  0
VERTEX
  8
0
 10
335.409881
 20
542.679350
 42
-0.153109
  0
VERTEX
  8
0
 10
336.000000
 20
540.797408
 42
-0.170094
  0
VERTEX
  8
0
 10
335.006819
 20
537.962377
 42
-0.175102
  0
VERTEX
  8
0
 10
332.473445
 20
536.408531
 42
-0.049828
  0
VERTEX
  8
0
 10
326.883258
 20
535.825534
 42
-0.004079
  0
VERTEX
  8
0
 10
312.177067
 20
535.881686
 42
-0.002295
  0
VERTEX
  8
0
 10
304.093568
 20
536.015605
 42
-0.003276
  0
VERTEX
  8
0
 10
296.920501
 20
536.214408
 42
-0.001811
  0
VERTEX
  8
0
 10
290.864265
 20
536.443949
 42
-0.048917
  0
VERTEX
  8
0
 10
289.275703
 20
536.666617
 42
-0.159990
  0
VERTEX
  8
0
 10
285.224674
 20
539.174405
 42
-0.002068
  0
VERTEX
  8
0
 10
265.812284
 20
562.454014
 42
-0.001965
  0
VERTEX
  8
0
 10
246.528183
 20
585.962684
 42
-0.171070
  0
VERTEX
  8
0
 10
245.009092
 20
590.200310
 42
-0.262209
  0
VERTEX
  8
0
 10
246.093753
 20
592.150744
 42
-0.097952
  0
VERTEX
  8
0
 10
249.136315
 20
593.279048
 42
-0.035046
  0
VERTEX
  8
0
 10
255.258214
 20
593.830120
 42
-0.004546
  0
VERTEX
  8
0
 10
268.389972
 20
593.969591
 42
0.000000
  0
VERTEX
  8
0
 10
288.279943
 20
594.000000
 42
0.000000
  0
SEQEND
  0
POLYLINE
  8
0
 66
1
 70
1
  0
VERTEX
  8
0
 10
188.065741
 20
566.964816
 42
-0.064269
  0
VERTEX
  8
0
 10
188.805493
 20
566.436970
 42
-0.055009
  0
VERTEX
  8
0
 10
189.431812
 20
565.712359
 42
-0.057539
  0
VERTEX
  8
0
 10
189.857453
 20
564.910328
 42
-0.093510
  0
VERTEX
  8
0
 10
190.000000
 20
564.154794
 42
-0.154339
  0
VERTEX
  8
0
 10
189.062849
 20
561.191102
 42
-0.002959
  0
VERTEX
  8
0
 10
179.615003
 20
547.913411
 42
-0.002185
  0
VERTEX
  8
0
 10
169.846013
 20
534.479139
 42
-0.238815
  0
VERTEX
  8
0
 10
167.912936
 20
533.500000
 42
-0.346839
  0
VERTEX
  8
0
 10
167.155020
 20
534.097643
 42
-0.032343
  0
VERTEX
  8
0
 10
166.722582
 20
536.606148
 42
-0.018955
  0
VERTEX
  8
0
 10
166.423612
 20
540.986759
 42
-0.003211
  0
VERTEX
  8
0
 10
166.224017
 20
549.366229
 42
-0.004541
  0
VERTEX
  8
0
 10
166.163907
 20
556.598588
 42
-0.012441
  0
VERTEX
  8
0
 10
166.294935
 20
561.705394
 42
-0.012050
  0
VERTEX
  8
0
 10
166.567441
 20
565.349920
 42
-0.149600
  0
VERTEX
  8
0
 10
167.096462
 20
566.616229
 42
-0.206699
  0
VERTEX
  8
0
 10
169.259503
 20
567.716108
 42
-0.011534
  0
VERTEX
  8
0
 10
176.978245
 20
568.022621
 42
-0.015171
  0
VERTEX
  8
0
 10
184.590215
 20
567.918197
 42
-0.112303
  0
SEQEND
  0
POLYLINE
  8
0
 66
1
 70
1
  0
VERTEX
  8
0
 10
307.642640
 20
517.353239
 42
-0.144431
  0
VERTEX
  8
0
 10
309.839438
 20
516.085863
 42
-0.005300
  0
VERTEX
  8
0
 10
316.461873
 20
508.977765
 42
-0.009432
  0
VERTEX
  8
0
 10
322.667026
 20
501.911142
 42
-0.047531
  0
VERTEX
  8
0
 10
325.660145
 20
497.598650
 42
-0.103685
  0
VERTEX
  8
0
 10
326.054872
 20
496.345301
 42
-0.207495
  0
VERTEX
  8
0
 10
325.743304
 20
495.375021
 42
-0.080532
  0
VERTEX
  8
0
 10
324.498241
 20
494.347038
 42
-0.008252
  0
VERTEX
  8
0
 10
321.160145
 20
492.466830
 42
0.000310
  0
VERTEX
  8
0
 10
318.505998
 20
491.026912
 42
0.000156
  0
VERTEX
  8
0
 10
315.162962
 20
489.209224
 42
0.000155
  0
VERTEX
  8
0
 10
311.711359
 20
487.329715
 42
0.000231
  0
VERTEX
  8
0
 10
308.692491
 20
485.682815
 42
-0.011052
  0
VERTEX
  8
0
 10
305.397873
 20
483.976928
 42
-0.033741
  0
VERTEX
  8
0
 10
303.068547
 20
483.024314
 42
-0.051538
  0
VERTEX
  8
0
 10
301.385047
 20
482.651789
 42
-0.157532
  0
VERTEX
  8
0
 10
300.252226
 20
482.878723
 42
-0.094234
  0
VERTEX
  8
0
 10
299.259647
 20
483.711572
 42
-0.003383
  0
VERTEX
  8
0
 10
296.133223
 20
487.593595
 42
-0.006121
  0
VERTEX
  8
0
 10
292.509881
 20
492.271932
 42
-0.004240
  0
VERTEX
  8
0
 10
288.522896
 20
497.646230
 42
0.000000
  0
VERTEX
  8
0
 10
278.426322
 20
511.500000
 42
0.000000
  0
VERTEX
  8
0
 10
270.963161
 20
512.000000
 42
-0.013537
  0
VERTEX
  8
0
 10
267.959250
 20
512.283103
 42
-0.015438
  0
VERTEX
  8
0
 10
265.104804
 20
512.720097
 42
-0.014704
  0
VERTEX
  8
0
 10
262.718265
 20
513.234240
 42
-0.079351
  0
VERTEX
  8
0
 10
261.500000
 20
513.749265
 42
-0.014919
  0
VERTEX
  8
0
 10
260.236321
 20
514.592024
 42
-0.239703
  0
VERTEX
  8
0
 10
260.005462
 20
515.033024
 42
-0.221917
  0
VERTEX
  8
0
 10
260.216905
 20
515.500185
 42
-0.012808
  0
VERTEX
  8
0
 10
261.467504
 20
516.518551
 42
-0.125884
  0
VERTEX
  8
0
 10
263.333146
 20
517.323512
 42
-0.023643
  0
VERTEX
  8
0
 10
267.059120
 20
517.733548
 42
-0.014049
  0
VERTEX
  8
0
 10
273.146458
 20
517.942017
 42
-0.002539
  0
VERTEX
  8
0
 10
284.467504
 20
517.953987
 42
-0.002244
  0
VERTEX
  8
0
 10
292.681466
 20
517.884088
 42
-0.003230
  0
VERTEX
  8
0
 10
299.951105
 20
517.742626
 42
-0.001717
  0
VERTEX
  8
0
 10
306.100154
 20
517.562104
 42
-0.050948
  0
SEQEND
  0
POLYLINE
  8
0
 66
1
 70
1
  0
VERTEX
  8
0
 10
186.065741
 20
495.964816
 42
-0.238895
  0
VERTEX
  8
0
 10
187.473282
 20
493.952643
 42
-0.275308
  0
VERTEX
  8
0
 10
186.581485
 20
491.819046
 42
-0.086836
  0
VERTEX
  8
0
 10
182.377252
 20
489.713267
 42
-0.024709
  0
VERTEX
  8
0
 10
175.257462
 20
487.958119
 42
-0.026576
  0
VERTEX
  8
0
 10
170.759040
 20
487.328092
 42
-0.108382
  0
VERTEX
  8
0
 10
168.037952
 20
487.683594
 42
-0.190910
  0
VERTEX
  8
0
 10
166.550520
 20
488.996389
 42
-0.118146
  0
VERTEX
  8
0
 10
166.000000
 20
491.293704
 42
-0.117231
  0
VERTEX
  8
0
 10
166.634384
 20
493.962216
 42
-0.154941
  0
VERTEX
  8
0
 10
168.370960
 20
495.738015
 42
-0.095313
  0
VERTEX
  8
0
 10
171.548722
 20
496.717790
 42
-0.027262
  0
VERTEX
  8
0
 10
176.720729
 20
497.000000
 42
-0.012742
  0
VERTEX
  8
0
 10
179.699797
 20
496.924068
 42
-0.014841
  0
VERTEX
  8
0
 10
182.522762
 20
496.695915
 42
-0.013896
  0
VERTEX
  8
0
 10
184.884532
 20
496.367630
 42
-0.081553
  0
SEQEND
  0
POLYLINE
  8
0
 66
1
 70
1
  0
VERTEX
  8
0
 10
355.265789
 20
488.665714
 42
0.068498
  0
VERTEX
  8
0
 10
355.362191
 20
484.738264
 42
0.074021
  0
VERTEX
  8
0
 10
356.526247
 20
481.092942
 42
0.054257
  0
VERTEX
  8
0
 10
359.047624
 20
477.118012
 42
0.019392
  0
VERTEX
  8
0
 10
363.443552
 20
472.029056
 42
-0.011580
  0
VERTEX
  8
0
 10
367.668623
 20
467.289616
 42
-0.039321
  0
VERTEX
  8
0
 10
370.093764
 20
463.937649
 42
-0.054212
  0
VERTEX
  8
0
 10
371.537483
 20
460.866247
 42
-0.040952
  0
VERTEX
  8
0
 10
372.457519
 20
457.251444
 42
-0.089367
  0
VERTEX
  8
0
 10
372.409177
 20
452.813102
 42
-0.056764
  0
VERTEX
  8
0
 10
370.864764
 20
447.865298
 42
-0.057402
  0
VERTEX
  8
0
 10
368.285104
 20
443.468989
 42
-0.101303
  0
VERTEX
  8
0
 10
365.143191
 20
440.693464
 42
-0.006149
  0
VERTEX
  8
0
 10
363.059605
 20
439.529783
 42
-0.146913
  0
VERTEX
  8
0
 10
362.410742
 20
439.394662
 42
-0.353696
  0
VERTEX
  8
0
 10
362.077972
 20
439.714994
 42
-0.031138
  0
VERTEX
  8
0
 10
362.000000
 20
440.965807
 42
0.159791
  0
VERTEX
  8
0
 10
361.184820
 20
443.451452
 42
0.027826
  0
VERTEX
  8
0
 10
358.002344
 20
447.311803
 42
0.031012
  0
VERTEX
  8
0
 10
354.099889
 20
451.048555
 42
0.054303
  0
VERTEX
  8
0
 10
350.394996
 20
453.546427
 42
-0.037222
  0
VERTEX
  8
0
 10
348.291198
 20
454.862812
 42
-0.091173
  0
VERTEX
  8
0
 10
347.044228
 20
456.186860
 42
-0.070233
  0
VERTEX
  8
0
 10
346.170277
 20
458.075750
 42
-0.015777
  0
VERTEX
  8
0
 10
345.251459
 20
461.508107
 42
-0.057431
  0
VERTEX
  8
0
 10
344.336567
 20
469.409758
 42
-0.059595
  0
VERTEX
  8
0
 10
345.265411
 20
477.210531
 42
-0.060553
  0
VERTEX
  8
0
 10
347.982793
 20
484.462406
 42
-0.062908
  0
VERTEX
  8
0
 10
352.331894
 20
490.750000
 42
-0.021946
  0
VERTEX
  8
0
 10
354.239845
 20
492.699344
 42
-0.356531
  0
VERTEX
  8
0
 10
355.092312
 20
492.756785
 42
-0.256995
  0
VERTEX
  8
0
 10
355.529728
 20
491.851292
 42
-0.014789
  0
SEQEND
  0
POLYLINE
  8
0
 66
1
 70
1
  0
VERTEX
  8
0
 10
204.000000
 20
475.904370
 42
-0.101378
  0
VERTEX
  8
0
 10
203.877544
 20
475.306618
 42
-0.018324
  0
VERTEX
  8
0
 10
203.391155
 20
474.275539
 42
-0.019083
  0
VERTEX
  8
0
 10
202.720833
 20
473.092706
 42
-0.016260
  0
VERTEX
  8
0
 10
201.927337
 20
471.897955
 42
0.042972
  0
VERTEX
  8
0
 10
198.871160
 20
466.716227
 42
0.037821
  0
VERTEX
  8
0
 10
196.592431
 20
460.865249
 42
0.036531
  0
VERTEX
  8
0
 10
195.157285
 20
454.529413
 42
0.034086
  0
VERTEX
  8
0
 10
194.615491
 20
447.902778
 42
0.011805
  0
VERTEX
  8
0
 10
194.650781
 20
444.435132
 42
0.013499
  0
VERTEX
  8
0
 10
194.852216
 20
441.125173
 42
0.012693
  0
VERTEX
  8
0
 10
195.168878
 20
438.338876
 42
0.071395
  0
VERTEX
  8
0
 10
195.583543
 20
436.902778
 42
0.004075
  0
VERTEX
  8
0
 10
196.216346
 20
435.529501
 42
0.000738
  0
VERTEX
  8
0
 10
197.416044
 20
432.990572
 42
0.000795
  0
VERTEX
  8
0
 10
198.829848
 20
430.022123
 42
0.000720
  0
VERTEX
  8
0
 10
200.300273
 20
426.958743
 42
-0.017677
  0
VERTEX
  8
0
 10
201.770364
 20
423.609501
 42
-0.015307
  0
VERTEX
  8
0
 10
203.077833
 20
420.001371
 42
-0.015802
  0
VERTEX
  8
0
 10
204.077426
 20
416.595012
 42
-0.034223
  0
VERTEX
  8
0
 10
204.580271
 20
413.914150
 42
-0.066067
  0
VERTEX
  8
0
 10
204.450903
 20
405.261125
 42
-0.046090
  0
VERTEX
  8
0
 10
202.136689
 20
395.763598
 42
-0.046098
  0
VERTEX
  8
0
 10
198.122621
 20
386.852952
 42
-0.066186
  0
VERTEX
  8
0
 10
192.906313
 20
379.956426
 42
0.000000
  0
VERTEX
  8
0
 10
188.500000
 20
375.500000
 42
0.000000
  0
VERTEX
  8
0
 10
188.206096
 20
383.352189
 42
0.024689
  0
VERTEX
  8
0
 10
187.699707
 20
389.172815
 42
0.076346
  0
VERTEX
  8
0
 10
186.579894
 20
392.945398
 42
0.063924
  0
VERTEX
  8
0
 10
184.269460
 20
396.560998
 42
0.013789
  0
VERTEX
  8
0
 10
179.341318
 20
402.136236
 42
-0.035439
  0
VERTEX
  8
0
 10
175.436746
 20
406.958810
 42
-0.033858
  0
VERTEX
  8
0
 10
172.186294
 20
412.356208
 42
-0.035005
  0
VERTEX
  8
0
 10
169.799336
 20
417.933620
 42
-0.046421
  0
VERTEX
  8
0
 10
168.479087
 20
423.290888
 42
-0.114185
  0
VERTEX
  8
0
 10
169.514807
 20
436.451680
 42
-0.057650
  0
VERTEX
  8
0
 10
176.354572
 20
451.722897
 42
-0.055825
  0
VERTEX
  8
0
 10
186.954272
 20
465.729929
 42
-0.079243
  0
VERTEX
  8
0
 10
199.337006
 20
475.208084
 42
-0.010652
  0
VERTEX
  8
0
 10
201.801648
 20
476.471990
 42
-0.076227
  0
VERTEX
  8
0
 10
203.076832
 20
476.866989
 42
-0.253148
  0
VERTEX
  8
0
 10
203.722742
 20
476.632931
 42
-0.183847
  0
SEQEND
  0
POLYLINE
  8
0
 66
1
 70
1
  0
VERTEX
  8
0
 10
307.991253
 20
448.435388
 42
-0.034828
  0
VERTEX
  8
0
 10
312.951827
 20
446.612274
 42
-0.024018
  0
VERTEX
  8
0
 10
318.290766
 20
443.901265
 42
-0.024309
  0
VERTEX
  8
0
 10
323.161259
 20
440.803516
 42
-0.047857
  0
VERTEX
  8
0
 10
326.635552
 20
437.812813
 42
-0.055031
  0
VERTEX
  8
0
 10
332.712213
 20
429.893052
 42
-0.075693
  0
VERTEX
  8
0
 10
336.146608
 20
421.618534
 42
-0.083750
  0
VERTEX
  8
0
 10
336.768377
 20
413.367236
 42
-0.087410
  0
VERTEX
  8
0
 10
334.622576
 20
405.500000
 42
-0.030829
  0
VERTEX
  8
0
 10
332.619231
 20
401.852784
 42
-0.051154
  0
VERTEX
  8
0
 10
330.452574
 20
399.096241
 42
-0.040577
  0
VERTEX
  8
0
 10
327.429092
 20
396.437380
 42
-0.012729
  0
VERTEX
  8
0
 10
322.500000
 20
392.957355
 42
0.017715
  0
VERTEX
  8
0
 10
320.145361
 20
391.259508
 42
0.007735
  0
VERTEX
  8
0
 10
317.139132
 20
388.850184
 42
0.007643
  0
VERTEX
  8
0
 10
314.021911
 20
386.190425
 42
0.010117
  0
VERTEX
  8
0
 10
311.271513
 20
383.669484
 42
-0.015721
  0
VERTEX
  8
0
 10
306.328221
 20
379.239494
 42
-0.395509
  0
VERTEX
  8
0
 10
304.663924
 20
379.329463
 42
-0.205249
  0
VERTEX
  8
0
 10
303.877090
 20
381.428401
 42
-0.006371
  0
VERTEX
  8
0
 10
304.431190
 20
390.815667
 42
-0.011615
  0
VERTEX
  8
0
 10
304.981719
 20
396.597576
 42
-0.038567
  0
VERTEX
  8
0
 10
305.722261
 20
400.341958
 42
-0.038442
  0
VERTEX
  8
0
 10
307.030355
 20
403.934456
 42
-0.011484
  0
VERTEX
  8
0
 10
309.563378
 20
409.191492
 42
0.009783
  0
VERTEX
  8
0
 10
311.978161
 20
414.159835
 42
0.035669
  0
VERTEX
  8
0
 10
313.217487
 20
417.437068
 42
0.046429
  0
VERTEX
  8
0
 10
313.808610
 20
420.391963
 42
0.026169
  0
VERTEX
  8
0
 10
314.000000
 20
424.046265
 42
0.051481
  0
VERTEX
  8
0
 10
313.457917
 20
429.297151
 42
0.048983
  0
VERTEX
  8
0
 10
311.853005
 20
434.419436
 42
0.046239
  0
VERTEX
  8
0
 10
309.176515
 20
439.390190
 42
0.037110
  0
VERTEX
  8
0
 10
305.447247
 20
444.190071
 42
-0.017849
  0
VERTEX
  8
0
 10
303.102168
 20
446.979806
 42
-0.090689
  0
VERTEX
  8
0
 10
302.164367
 20
448.770476
 42
-0.381620
  0
VERTEX
  8
0
 10
302.523890
 20
449.559452
 42
-0.173220
  0
VERTEX
  8
0
 10
303.750000
 20
449.646735
 42
-0.001086
  0
VERTEX
  8
0
 10
304.595612
 20
449.408930
 42
-0.000473
  0
VERTEX
  8
0
 10
305.717743
 20
449.089585
 42
-0.000468
  0
VERTEX
  8
0
 10
306.909428
 20
448.748021
 42
-0.000624
  0
SEQEND
  0
POLYLINE
  8
0
 66
1
 70
1
  0
VERTEX
  8
0
 10
420.248203
 20
397.708319
 42
-0.040672
  0
VERTEX
  8
0
 10
424.592187
 20
392.593650
 42
-0.027598
  0
VERTEX
  8
0
 10
428.702708
 20
386.146906
 42
-0.027911
  0
VERTEX
  8
0
 10
431.930475
 20
379.576472
 42
-0.059766
  0
VERTEX
  8
0
 10
433.497255
 20
374.157022
 42
-0.026632
  0
VERTEX
  8
0
 10
433.721573
 20
372.103198
 42
-0.013210
  0
VERTEX
  8
0
 10
433.797894
 20
369.482897
 42
-0.013072
  0
VERTEX
  8
0
 10
433.733939
 20
366.755295
 42
-0.018680
  0
VERTEX
  8
0
 10
433.523746
 20
364.343757
 42
-0.017315
  0
VERTEX
  8
0
 10
433.041295
 20
361.333645
 42
-0.068210
  0
VERTEX
  8
0
 10
432.434604
 20
359.561031
 42
-0.093857
  0
VERTEX
  8
0
 10
431.482481
 20
358.316693
 42
-0.051559
  0
VERTEX
  8
0
 10
429.924440
 20
357.186735
 42
-0.000875
  0
VERTEX
  8
0
 10
428.404781
 20
356.311200
 42
-0.000265
  0
VERTEX
  8
0
 10
426.094246
 20
354.987016
 42
-0.000265
  0
VERTEX
  8
0
 10
423.501975
 20
353.505012
 42
-0.000288
  0
VERTEX
  8
0
 10
420.980066
 20
352.066935
 42
0.014609
  0
VERTEX
  8
0
 10
418.296842
 20
350.433322
 42
0.008762
  0
VERTEX
  8
0
 10
415.203922
 20
348.346173
 42
0.008770
  0
VERTEX
  8
0
 10
412.196989
 20
346.159817
 42
0.015087
  0
VERTEX
  8
0
 10
409.782199
 20
344.221410
 42
-0.006414
  0
VERTEX
  8
0
 10
406.589152
 20
341.565916
 42
-0.074606
  0
VERTEX
  8
0
 10
405.193085
 20
340.744219
 42
-0.222074
  0
VERTEX
  8
0
 10
404.232025
 20
340.796177
 42
-0.112562
  0
VERTEX
  8
0
 10
403.297164
 20
341.608281
 42
-0.068107
  0
VERTEX
  8
0
 10
401.920360
 20
344.156490
 42
-0.035081
  0
VERTEX
  8
0
 10
400.884268
 20
347.638273
 42
-0.031003
  0
VERTEX
  8
0
 10
400.226817
 20
351.788374
 42
-0.023549
  0
VERTEX
  8
0
 10
400.005577
 20
356.390469
 42
-0.035054
  0
VERTEX
  8
0
 10
400.289907
 20
360.496724
 42
-0.044719
  0
VERTEX
  8
0
 10
401.149396
 20
364.190951
 42
-0.031150
  0
VERTEX
  8
0
 10
402.904325
 20
368.581563
 42
-0.008371
  0
VERTEX
  8
0
 10
406.234479
 20
375.315435
 42
0.081865
  0
VERTEX
  8
0
 10
408.381545
 20
381.957643
 42
0.052391
  0
VERTEX
  8
0
 10
408.743849
 20
390.076720
 42
0.052391
  0
VERTEX
  8
0
 10
407.410749
 20
398.093670
 42
0.081874
  0
VERTEX
  8
0
 10
404.482834
 20
404.430157
 42
-0.016934
  0
VERTEX
  8
0
 10
403.635486
 20
405.774619
 42
-0.026249
  0
VERTEX
  8
0
 10
403.007018
 20
406.993627
 42
-0.024084
  0
VERTEX
  8
0
 10
402.615718
 20
407.986635
 42
-0.285555
  0
VERTEX
  8
0
 10
402.705655
 20
408.372322
 42
-0.331511
  0
VERTEX
  8
0
 10
404.365193
 20
408.614959
 42
-0.012792
  0
VERTEX
  8
0
 10
410.080132
 20
405.338086
 42
-0.021709
  0
VERTEX
  8
0
 10
415.874453
 20
401.461696
 42
-0.038111
  0
SEQEND
  0
POLYLINE
  8
0
 66
1
 70
1
  0
VERTEX
  8
0
 10
386.500000
 20
384.822592
 42
0.029368
  0
VERTEX
  8
0
 10
384.856956
 20
383.513966
 42
0.005314
  0
VERTEX
  8
0
 10
381.979137
 20
380.876065
 42
0.005710
  0
VERTEX
  8
0
 10
378.673338
 20
377.708947
 42
0.005145
  0
VERTEX
  8
0
 10
375.322596
 20
374.356268
 42
0.025432
  0
VERTEX
  8
0
 10
368.874839
 20
367.063327
 42
0.062780
  0
VERTEX
  8
0
 10
365.162623
 20
360.977416
 42
0.068385
  0
VERTEX
  8
0
 10
363.254909
 20
354.484338
 42
0.034952
  0
VERTEX
  8
0
 10
362.580398
 20
346.000000
 42
0.013102
  0
VERTEX
  8
0
 10
362.660435
 20
341.220683
 42
0.033396
  0
VERTEX
  8
0
 10
363.039801
 20
337.776820
 42
0.035613
  0
VERTEX
  8
0
 10
363.857249
 20
334.544115
 42
0.016781
  0
VERTEX
  8
0
 10
365.344613
 20
330.500000
 42
0.005599
  0
VERTEX
  8
0
 10
366.537203
 20
327.656993
 42
0.005977
  0
VERTEX
  8
0
 10
367.768182
 20
324.903010
 42
0.005701
  0
VERTEX
  8
0
 10
368.881442
 20
322.560814
 42
0.027604
  0
VERTEX
  8
0
 10
369.600496
 20
321.276205
 42
-0.063169
  0
VERTEX
  8
0
 10
371.143838
 20
317.992132
 42
-0.020420
  0
VERTEX
  8
0
 10
372.591743
 20
312.807161
 42
-0.020953
  0
VERTEX
  8
0
 10
373.656029
 20
307.260689
 42
-0.036937
  0
VERTEX
  8
0
 10
374.000000
 20
302.610899
 42
-0.060999
  0
VERTEX
  8
0
 10
373.133978
 20
295.538655
 42
-0.032499
  0
VERTEX
  8
0
 10
370.452026
 20
287.127632
 42
-0.032505
  0
VERTEX
  8
0
 10
366.706166
 20
279.142628
 42
-0.061520
  0
VERTEX
  8
0
 10
362.544747
 20
273.393044
 42
-0.015354
  0
VERTEX
  8
0
 10
358.394021
 20
269.198077
 42
-0.349085
  0
VERTEX
  8
0
 10
356.813454
 20
269.058188
 42
-0.236309
  0
VERTEX
  8
0
 10
355.868539
 20
270.696158
 42
-0.008845
  0
VERTEX
  8
0
 10
355.565598
 20
278.000000
 42
0.011053
  0
VERTEX
  8
0
 10
355.232562
 20
285.255593
 42
0.039307
  0
VERTEX
  8
0
 10
354.553495
 20
289.856155
 42
0.053537
  0
VERTEX
  8
0
 10
353.292455
 20
293.512773
 42
0.036057
  0
VERTEX
  8
0
 10
351.130356
 20
297.367690
 42
0.017692
  0
VERTEX
  8
0
 10
349.262721
 20
299.991444
 42
0.419047
  0
VERTEX
  8
0
 10
348.446975
 20
300.092428
 42
0.167859
  0
VERTEX
  8
0
 10
347.790539
 20
299.063119
 42
0.004504
  0
VERTEX
  8
0
 10
346.568419
 20
293.750000
 42
-0.047306
  0
VERTEX
  8
0
 10
346.229512
 20
292.697870
 42
-0.058725
  0
VERTEX
  8
0
 10
345.715781
 20
291.807813
 42
-0.070075
  0
VERTEX
  8
0
 10
345.114991
 20
291.201366
 42
-0.163988
  0
VERTEX
  8
0
 10
344.517534
 20
291.000000
 42
-0.186810
  0
VERTEX
  8
0
 10
341.785094
 20
292.057811
 42
-0.015070
  0
VERTEX
  8
0
 10
336.143428
 20
297.515925
 42
-0.020446
  0
VERTEX
  8
0
 10
330.853892
 20
303.415755
 42
-0.071061
  0
VERTEX
  8
0
 10
328.191617
 20
307.776211
 42
-0.035161
  0
VERTEX
  8
0
 10
325.968364
 20
314.142873
 42
-0.039084
  0
VERTEX
  8
0
 10
324.754821
 20
320.537614
 42
-0.039043
  0
VERTEX
  8
0
 10
324.550512
 20
327.049288
 42
-0.034949
  0
VERTEX
  8
0
 10
325.336752
 20
333.764658
 42
-0.086395
  0
VERTEX
  8
0
 10
332.110385
 20
351.827181
 42
-0.073953
  0
VERTEX
  8
0
 10
344.881307
 20
367.659397
 42
-0.071593
  0
VERTEX
  8
0
 10
362.147159
 20
379.508149
 42
-0.072256
  0
VERTEX
  8
0
 10
382.000000
 20
385.960433
 42
-0.003765
  0
VERTEX
  8
0
 10
386.836022
 20
386.753009
 42
-0.100986
  0
VERTEX
  8
0
 10
388.130689
 20
386.692929
 42
-0.603831
  0
VERTEX
  8
0
 10
388.249294
 20
386.201183
 42
-0.026792
  0
SEQEND
  0
POLYLINE
  8
0
 66
1
 70
1
  0
VERTEX
  8
0
 10
755.486119
 20
806.596312
 42
0.004231
  0
VERTEX
  8
0
 10
754.756336
 20
805.559659
 42
0.000064
  0
VERTEX
  8
0
 10
750.565686
 20
799.496900
 42
0.000173
  0
VERTEX
  8
0
 10
745.702557
 20
792.454116
 42
0.000114
  0
VERTEX
  8
0
 10
740.120472
 20
784.360208
 42
-0.001351
  0
VERTEX
  8
0
 10
734.475433
 20
776.218185
 42
-0.001926
  0
VERTEX
  8
0
 10
729.415479
 20
769.021254
 42
-0.001057
  0
VERTEX
  8
0
 10
725.101522
 20
762.962546
 42
-0.028827
  0
VERTEX
  8
0
 10
723.870472
 20
761.435549
 42
0.063595
  0
VERTEX
  8
0
 10
722.212185
 20
759.058465
 42
0.402319
  0
VERTEX
  8
0
 10
722.586450
 20
757.771008
 42
0.122651
  0
VERTEX
  8
0
 10
724.873998
 20
757.116179
 42
0.008680
  0
VERTEX
  8
0
 10
731.565741
 20
757.000000
 42
-0.013564
  0
VERTEX
  8
0
 10
738.062902
 20
756.823717
 42
-0.053248
  0
VERTEX
  8
0
 10
742.014840
 20
756.183337
 42
-0.108132
  0
VERTEX
  8
0
 10
744.200587
 20
755.038549
 42
-0.221757
  0
VERTEX
  8
0
 10
745.000000
 20
753.324731
 42
-0.138596
  0
VERTEX
  8
0
 10
744.707411
 20
752.289459
 42
-0.005486
  0
VERTEX
  8
0
 10
742.591125
 20
748.927732
 42
-0.009333
  0
VERTEX
  8
0
 10
739.941543
 20
744.983178
 42
-0.006426
  0
VERTEX
  8
0
 10
736.799573
 20
740.609915
 42
-0.000889
  0
VERTEX
  8
0
 10
724.711141
 20
724.293338
 42
-0.003545
  0
VERTEX
  8
0
 10
717.210903
 20
714.355213
 42
-0.004399
  0
VERTEX
  8
0
 10
712.123780
 20
707.832711
 42
-0.036568
  0
VERTEX
  8
0
 10
709.584612
 20
705.075686
 42
0.044461
  0
VERTEX
  8
0
 10
707.159081
 20
702.357299
 42
0.406993
  0
VERTEX
  8
0
 10
707.350328
 20
700.931910
 42
0.156675
  0
VERTEX
  8
0
 10
709.494912
 20
700.140420
 42
0.010684
  0
VERTEX
  8
0
 10
716.065741
 20
700.000000
 42
-0.014547
  0
VERTEX
  8
0
 10
722.269237
 20
699.819481
 42
-0.054987
  0
VERTEX
  8
0
 10
726.093306
 20
699.170743
 42
-0.109635
  0
VERTEX
  8
0
 10
728.220252
 20
698.018964
 42
-0.217352
  0
VERTEX
  8
0
 10
729.000000
 20
696.309956
 42
-0.147859
  0
VERTEX
  8
0
 10
728.699117
 20
695.314735
 42
-0.008390
  0
VERTEX
  8
0
 10
726.854487
 20
692.641237
 42
-0.012260
  0
VERTEX
  8
0
 10
724.494233
 20
689.505727
 42
-0.008646
  0
VERTEX
  8
0
 10
721.696124
 20
686.095140
 42
0.004768
  0
VERTEX
  8
0
 10
718.217898
 20
681.922000
 42
0.002115
  0
VERTEX
  8
0
 10
713.704649
 20
676.352947
 42
0.002093
  0
VERTEX
  8
0
 10
708.974223
 20
670.414434
 42
0.002824
  0
VERTEX
  8
0
 10
704.747610
 20
665.000000
 42
-0.001971
  0
VERTEX
  8
0
 10
700.295108
 20
659.276105
 42
-0.001106
  0
VERTEX
  8
0
 10
694.841149
 20
652.353125
 42
-0.001103
  0
VERTEX
  8
0
 10
689.300804
 20
645.384052
 42
-0.001800
  0
VERTEX
  8
0
 10
684.567024
 20
639.500000
 42
0.004324
  0
VERTEX
  8
0
 10
680.528009
 20
634.427316
 42
0.006606
  0
VERTEX
  8
0
 10
677.121447
 20
629.951563
 42
0.002750
  0
VERTEX
  8
0
 10
674.292074
 20
626.086161
 42
0.154700
  0
VERTEX
  8
0
 10
674.015539
 20
625.250000
 42
0.341108
  0
VERTEX
  8
0
 10
674.472668
 20
624.642436
 42
0.036880
  0
VERTEX
  8
0
 10
676.312146
 20
624.279937
 42
0.024185
  0
VERTEX
  8
0
 10
679.342148
 20
624.059918
 42
0.006032
  0
VERTEX
  8
0
 10
684.308870
 20
624.000000
 42
-0.007939
  0
VERTEX
  8
0
 10
689.138453
 20
623.923315
 42
-0.020390
  0
VERTEX
  8
0
 10
692.621720
 20
623.670234
 42
-0.026742
  0
VERTEX
  8
0
 10
695.102434
 20
623.252633
 42
-0.103145
  0
VERTEX
  8
0
 10
696.517661
 20
622.610745
 42
-0.282395
  0
VERTEX
  8
0
 10
697.244123
 20
620.838231
 42
-0.104498
  0
VERTEX
  8
0
 10
696.227682
 20
618.215519
 42
-0.018629
  0
VERTEX
  8
0
 10
692.527246
 20
612.979497
 42
-0.000625
  0
VERTEX
  8
0
 10
677.103538
 20
592.846952
 42
-0.001425
  0
VERTEX
  8
0
 10
662.218886
 20
573.582185
 42
-0.006982
  0
VERTEX
  8
0
 10
653.623610
 20
562.835969
 42
-0.008422
  0
VERTEX
  8
0
 10
647.897993
 20
556.113003
 42
-0.102114
  0
VERTEX
  8
0
 10
645.202947
 20
554.085493
 42
-0.081369
  0
VERTEX
  8
0
 10
643.719180
 20
553.660315
 42
-0.009325
  0
VERTEX
  8
0
 10
640.247778
 20
553.318864
 42
-0.011053
  0
VERTEX
  8
0
 10
636.072662
 20
553.079402
 42
-0.008797
  0
VERTEX
  8
0
 10
631.559936
 20
553.000000
 42
-0.009586
  0
VERTEX
  8
0
 10
623.264613
 20
553.159044
 42
-0.118280
  0
VERTEX
  8
0
 10
620.243603
 20
554.007528
 42
-0.322911
  0
VERTEX
  8
0
 10
619.413320
 20
555.785718
 42
-0.072478
  0
VERTEX
  8
0
 10
620.570588
 20
559.136503
 42
-0.023407
  0
VERTEX
  8
0
 10
621.761604
 20
561.197229
 42
-0.000889
  0
VERTEX
  8
0
 10
626.571476
 20
568.657880
 42
-0.001597
  0
VERTEX
  8
0
 10
632.307523
 20
577.458739
 42
-0.001124
  0
VERTEX
  8
0
 10
638.813511
 20
587.323157
 42
0.003132
  0
VERTEX
  8
0
 10
649.993837
 20
604.423901
 42
0.035752
  0
VERTEX
  8
0
 10
653.864760
 20
611.487768
 42
0.113320
  0
VERTEX
  8
0
 10
654.741652
 20
615.723290
 42
0.180430
  0
VERTEX
  8
0
 10
653.390125
 20
619.121410
 42
0.094551
  0
VERTEX
  8
0
 10
652.121355
 20
620.079326
 42
0.068166
  0
VERTEX
  8
0
 10
650.434717
 20
620.642056
 42
0.038142
  0
VERTEX
  8
0
 10
647.860119
 20
620.925517
 42
0.008353
  0
VERTEX
  8
0
 10
643.401716
 20
621.000000
 42
-0.007149
  0
VERTEX
  8
0
 10
638.625339
 20
621.068297
 42
-0.046889
  0
VERTEX
  8
0
 10
636.250365
 20
621.360227
 42
-0.095947
  0
VERTEX
  8
0
 10
634.774638
 20
621.996933
 42
-0.090534
  0
VERTEX
  8
0
 10
633.608124
 20
623.149094
 42
-0.162236
  0
VERTEX
  8
0
 10
632.888977
 20
625.564795
 42
-0.128072
  0
VERTEX
  8
0
 10
633.665848
 20
628.196101
 42
-0.063158
  0
VERTEX
  8
0
 10
636.303763
 20
631.539508
 42
-0.014081
  0
VERTEX
  8
0
 10
641.644548
 20
636.500000
 42
0.003429
  0
VERTEX
  8
0
 10
645.386255
 20
639.829682
 42
0.000777
  0
VERTEX
  8
0
 10
651.689562
 20
645.534622
 42
0.000805
  0
VERTEX
  8
0
 10
658.939796
 20
652.138432
 42
0.000781
  0
VERTEX
  8
0
 10
666.240426
 20
658.830629
 42
0.004159
  0
VERTEX
  8
0
 10
678.862713
 20
670.632571
 42
0.060902
  0
VERTEX
  8
0
 10
682.728095
 20
675.325510
 42
0.189664
  0
VERTEX
  8
0
 10
683.424671
 20
678.899803
 42
0.103170
  0
VERTEX
  8
0
 10
681.707029
 20
683.102117
 42
0.031387
  0
VERTEX
  8
0
 10
680.193030
 20
685.067525
 42
0.111232
  0
VERTEX
  8
0
 10
678.914912
 20
685.999631
 42
0.086197
  0
VERTEX
  8
0
 10
677.186966
 20
686.416240
 42
0.014459
  0
VERTEX
  8
0
 10
673.769706
 20
686.538291
 42
-0.018484
  0
VERTEX
  8
0
 10
671.024540
 20
686.658460
 42
-0.040424
  0
VERTEX
  8
0
 10
668.948393
 20
686.996734
 42
-0.052671
  0
VERTEX
  8
0
 10
667.342781
 20
687.578397
 42
-0.070807
  0
VERTEX
  8
0
 10
666.062677
 20
688.443278
 42
-0.079130
  0
VERTEX
  8
0
 10
664.576929
 20
690.290745
 42
-0.143164
  0
VERTEX
  8
0
 10
664.128734
 20
692.162924
 42
-0.105470
  0
VERTEX
  8
0
 10
664.718502
 20
694.383644
 42
-0.031632
  0
VERTEX
  8
0
 10
666.506383
 20
697.414268
 42
0.048224
  0
VERTEX
  8
0
 10
668.034052
 20
700.211595
 42
0.165275
  0
VERTEX
  8
0
 10
668.188926
 20
702.248314
 42
0.083577
  0
VERTEX
  8
0
 10
667.088158
 20
704.723472
 42
0.007080
  0
VERTEX
  8
0
 10
663.141433
 20
710.500000
 42
-0.003089
  0
VERTEX
  8
0
 10
656.500805
 20
720.054778
 42
-0.010035
  0
VERTEX
  8
0
 10
652.265387
 20
726.503655
 42
-0.010094
  0
VERTEX
  8
0
 10
649.508820
 20
731.093338
 42
-0.130909
  0
VERTEX
  8
0
 10
649.000000
 20
733.003451
 42
-0.162027
  0
VERTEX
  8
0
 10
649.554780
 20
734.670501
 42
-0.115169
  0
VERTEX
  8
0
 10
651.074074
 20
735.947443
 42
-0.079226
  0
VERTEX
  8
0
 10
653.549469
 20
736.744459
 42
-0.038362
  0
VERTEX
  8
0
 10
656.875242
 20
737.000000
 42
0.021496
  0
VERTEX
  8
0
 10
658.451443
 20
737.067797
 42
0.028440
  0
VERTEX
  8
0
 10
659.873268
 20
737.272279
 42
0.028411
  0
VERTEX
  8
0
 10
660.995688
 20
737.566675
 42
0.177816
  0
VERTEX
  8
0
 10
661.454825
 20
737.926906
 42
0.270448
  0
VERTEX
  8
0
 10
661.472606
 20
738.629113
 42
0.003472
  0
VERTEX
  8
0
 10
659.228522
 20
742.642067
 42
0.008924
  0
VERTEX
  8
0
 10
656.463417
 20
747.311114
 42
0.005595
  0
VERTEX
  8
0
 10
653.071478
 20
752.676906
 42
0.000994
  0
VERTEX
  8
0
 10
644.450210
 20
765.925248
 42
0.012265
  0
VERTEX
  8
0
 10
641.033053
 20
770.883676
 42
0.027493
  0
VERTEX
  8
0
 10
639.043373
 20
773.329519
 42
0.361204
  0
VERTEX
  8
0
 10
637.968626
 20
773.480610
 42
0.108115
  0
VERTEX
  8
0
 10
635.855728
 20
771.436024
 42
0.001332
  0
VERTEX
  8
0
 10
625.374218
 20
755.568685
 42
0.000636
  0
VERTEX
  8
0
 10
614.596318
 20
739.112178
 42
0.290842
  0
VERTEX
  8
0
 10
614.580789
 20
737.869281
 42
0.208628
  0
VERTEX
  8
0
 10
615.074537
 20
737.527221
 42
0.015613
  0
VERTEX
  8
0
 10
616.724694
 20
737.255351
 42
0.019522
  0
VERTEX
  8
0
 10
618.784442
 20
737.063188
 42
0.013497
  0
VERTEX
  8
0
 10
621.124758
 20
737.000000
 42
-0.037564
  0
VERTEX
  8
0
 10
628.127448
 20
736.473152
 42
-0.270800
  0
VERTEX
  8
0
 10
630.657563
 20
734.430899
 42
-0.238432
  0
VERTEX
  8
0
 10
630.293451
 20
730.987302
 42
-0.030541
  0
VERTEX
  8
0
 10
625.750000
 20
724.814779
 42
0.004025
  0
VERTEX
  8
0
 10
617.286485
 20
714.508679
 42
0.005590
  0
VERTEX
  8
0
 10
609.882904
 20
705.131251
 42
0.001825
  0
VERTEX
  8
0
 10
603.490085
 20
696.782402
 42
0.163902
  0
VERTEX
  8
0
 10
603.000000
 20
695.327514
 42
0.332289
  0
VERTEX
  8
0
 10
603.461206
 20
694.710158
 42
0.034517
  0
VERTEX
  8
0
 10
605.342020
 20
694.292442
 42
0.024003
  0
VERTEX
  8
0
 10
608.382165
 20
693.982673
 42
0.006430
  0
VERTEX
  8
0
 10
613.238273
 20
693.784983
 42
-0.005018
  0
VERTEX
  8
0
 10
618.928129
 20
693.569443
 42
-0.034836
  0
VERTEX
  8
0
 10
621.695201
 20
693.242690
 42
-0.085753
  0
VERTEX
  8
0
 10
623.162004
 20
692.693472
 42
-0.216356
  0
VERTEX
  8
0
 10
623.805128
 20
691.783594
 42
-0.193831
  0
VERTEX
  8
0
 10
623.565293
 20
690.561374
 42
-0.004417
  0
VERTEX
  8
0
 10
620.222964
 20
685.520762
 42
-0.008833
  0
VERTEX
  8
0
 10
615.961399
 20
679.449478
 42
-0.004917
  0
VERTEX
  8
0
 10
610.566855
 20
672.196682
 42
0.004105
  0
VERTEX
  8
0
 10
605.367335
 20
665.229750
 42
0.006279
  0
VERTEX
  8
0
 10
600.985264
 20
659.096427
 42
0.002551
  0
VERTEX
  8
0
 10
597.340233
 20
653.799378
 42
0.150524
  0
VERTEX
  8
0
 10
597.000000
 20
652.694823
 42
0.279683
  0
VERTEX
  8
0
 10
597.528532
 20
651.823856
 42
0.079804
  0
VERTEX
  8
0
 10
599.093828
 20
651.303970
 42
0.030352
  0
VERTEX
  8
0
 10
602.180558
 20
650.992036
 42
0.004014
  0
VERTEX
  8
0
 10
608.750000
 20
650.781735
 42
-0.014249
  0
VERTEX
  8
0
 10
618.488702
 20
650.270282
 42
-0.313200
  0
VERTEX
  8
0
 10
620.575378
 20
648.555040
 42
-0.222946
  0
VERTEX
  8
0
 10
620.071809
 20
645.492628
 42
-0.008097
  0
VERTEX
  8
0
 10
613.044286
 20
635.604802
 42
0.002653
  0
VERTEX
  8
0
 10
609.701161
 20
631.007799
 42
0.002377
  0
VERTEX
  8
0
 10
606.281654
 20
626.204926
 42
0.002383
  0
VERTEX
  8
0
 10
603.252750
 20
621.863788
 42
0.007456
  0
VERTEX
  8
0
 10
601.273652
 20
618.904863
 42
-0.017867
  0
VERTEX
  8
0
 10
599.665564
 20
616.605692
 42
-0.019533
  0
VERTEX
  8
0
 10
597.942230
 20
614.496809
 42
-0.019389
  0
VERTEX
  8
0
 10
596.337060
 20
612.817946
 42
-0.085592
  0
VERTEX
  8
0
 10
595.210526
 20
612.050061
 42
-0.093778
  0
VERTEX
  8
0
 10
592.175238
 20
611.305613
 42
-0.008653
  0
VERTEX
  8
0
 10
584.403494
 20
611.024137
 42
-0.005521
  0
VERTEX
  8
0
 10
576.356115
 20
610.960924
 42
-0.198084
  0
VERTEX
  8
0
 10
574.671451
 20
611.661882
 42
-0.346638
  0
VERTEX
  8
0
 10
574.554793
 20
612.645532
 42
-0.016485
  0
VERTEX
  8
0
 10
576.506077
 20
615.609110
 42
-0.019943
  0
VERTEX
  8
0
 10
579.375518
 20
619.343837
 42
-0.010076
  0
VERTEX
  8
0
 10
583.268393
 20
623.826009
 42
0.012247
  0
VERTEX
  8
0
 10
584.729645
 20
625.523293
 42
0.019985
  0
VERTEX
  8
0
 10
585.873602
 20
627.039545
 42
0.014885
  0
VERTEX
  8
0
 10
586.689921
 20
628.294750
 42
0.345950
  0
VERTEX
  8
0
 10
586.642447
 20
628.690886
 42
0.272209
  0
VERTEX
  8
0
 10
586.190301
 20
628.808199
 42
0.007117
  0
VERTEX
  8
0
 10
584.116970
 20
628.185169
 42
0.013089
  0
VERTEX
  8
0
 10
581.639470
 20
627.330130
 42
0.008336
  0
VERTEX
  8
0
 10
578.801789
 20
626.212586
 42
-0.017196
  0
VERTEX
  8
0
 10
571.778031
 20
623.589223
 42
-0.007093
  0
VERTEX
  8
0
 10
562.103570
 20
620.502170
 42
-0.004911
  0
VERTEX
  8
0
 10
548.572809
 20
616.539860
 42
-0.001595
  0
VERTEX
  8
0
 10
528.500000
 20
610.944343
 42
0.004435
  0
VERTEX
  8
0
 10
513.541121
 20
606.682685
 42
0.025603
  0
VERTEX
  8
0
 10
505.783523
 20
603.959440
 42
0.047154
  0
VERTEX
  8
0
 10
500.684135
 20
601.284931
 42
0.049080
  0
VERTEX
  8
0
 10
496.250000
 20
597.733136
 42
0.017456
  0
VERTEX
  8
0
 10
493.959609
 20
595.335127
 42
0.062835
  0
VERTEX
  8
0
 10
492.764227
 20
593.595446
 42
0.079547
  0
VERTEX
  8
0
 10
492.186307
 20
591.838402
 42
0.039773
  0
VERTEX
  8
0
 10
492.000000
 20
589.500000
 42
0.039519
  0
VERTEX
  8
0
 10
492.185219
 20
587.160259
 42
0.080429
  0
VERTEX
  8
0
 10
492.761160
 20
585.413571
 42
0.063657
  0
VERTEX
  8
0
 10
493.954808
 20
583.691690
 42
0.017532
  0
VERTEX
  8
0
 10
496.250000
 20
581.316949
 42
0.015047
  0
VERTEX
  8
0
 10
498.097171
 20
579.639506
 42
0.012992
  0
VERTEX
  8
0
 10
500.132812
 20
577.989294
 42
0.013180
  0
VERTEX
  8
0
 10
502.057230
 20
576.589512
 42
0.036604
  0
VERTEX
  8
0
 10
503.500000
 20
575.745460
 42
0.031436
  0
VERTEX
  8
0
 10
508.078529
 20
573.845707
 42
0.005194
  0
VERTEX
  8
0
 10
517.157276
 20
570.836414
 42
0.005086
  0
VERTEX
  8
0
 10
528.884593
 20
567.215035
 42
0.002853
  0
VERTEX
  8
0
 10
543.205482
 20
563.040647
 42
-0.004053
  0
VERTEX
  8
0
 10
557.250022
 20
558.910221
 42
-0.010669
  0
VERTEX
  8
0
 10
567.224660
 20
555.654774
 42
-0.014334
  0
VERTEX
  8
0
 10
575.079918
 20
552.648829
 42
-0.017730
  0
VERTEX
  8
0
 10
582.201980
 20
549.385983
 42
-0.024410
  0
VERTEX
  8
0
 10
588.199455
 20
546.000760
 42
-0.047120
  0
VERTEX
  8
0
 10
592.560960
 20
542.637778
 42
-0.051059
  0
VERTEX
  8
0
 10
595.989363
 20
538.711074
 42
-0.034365
  0
VERTEX
  8
0
 10
599.088119
 20
533.622915
 42
-0.010153
  0
VERTEX
  8
0
 10
601.119430
 20
529.502417
 42
-0.069128
  0
VERTEX
  8
0
 10
601.787299
 20
527.340876
 42
-0.079783
  0
VERTEX
  8
0
 10
601.792439
 20
525.206038
 42
-0.015837
  0
VERTEX
  8
0
 10
601.074376
 20
521.441742
 42
-0.026836
  0
VERTEX
  8
0
 10
600.139007
 20
518.111580
 42
-0.054582
  0
VERTEX
  8
0
 10
598.991018
 20
515.651029
 42
-0.046212
  0
VERTEX
  8
0
 10
597.212214
 20
513.251662
 42
-0.014558
  0
VERTEX
  8
0
 10
594.134542
 20
510.009808
 42
-0.053247
  0
VERTEX
  8
0
 10
587.018949
 20
504.304198
 42
-0.038669
  0
VERTEX
  8
0
 10
578.066088
 20
499.503827
 42
-0.024879
  0
VERTEX
  8
0
 10
565.159548
 20
494.570088
 42
-0.006908
  0
VERTEX
  8
0
 10
544.462289
 20
488.132233
 42
0.002468
  0
VERTEX
  8
0
 10
518.109099
 20
480.191070
 42
0.021255
  0
VERTEX
  8
0
 10
506.525680
 20
476.092001
 42
0.047205
  0
VERTEX
  8
0
 10
499.400754
 20
472.410126
 42
0.050493
  0
VERTEX
  8
0
 10
493.265911
 20
467.527708
 42
0.008335
  0
VERTEX
  8
0
 10
489.448767
 20
463.676988
 42
0.060893
  0
VERTEX
  8
0
 10
487.894423
 20
461.601124
 42
0.095619
  0
VERTEX
  8
0
 10
487.209476
 20
459.604151
 42
0.034954
  0
VERTEX
  8
0
 10
487.000000
 20
456.611355
 42
0.064962
  0
VERTEX
  8
0
 10
487.548712
 20
452.405816
 42
0.085660
  0
VERTEX
  8
0
 10
489.159121
 20
448.897964
 42
0.069700
  0
VERTEX
  8
0
 10
492.141922
 20
445.634286
 42
0.029350
  0
VERTEX
  8
0
 10
496.946176
 20
442.113185
 42
0.044235
  0
VERTEX
  8
0
 10
503.570084
 20
438.619289
 42
0.019054
  0
VERTEX
  8
0
 10
512.927545
 20
435.109259
 42
0.011749
  0
VERTEX
  8
0
 10
526.912054
 20
430.825273
 42
0.002920
  0
VERTEX
  8
0
 10
550.000000
 20
424.487043
 42
-0.002794
  0
VERTEX
  8
0
 10
574.462979
 20
417.777939
 42
-0.010363
  0
VERTEX
  8
0
 10
589.769761
 20
413.143661
 42
-0.015794
  0
VERTEX
  8
0
 10
601.107833
 20
409.052461
 42
-0.018592
  0
VERTEX
  8
0
 10
611.553228
 20
404.449581
 42
-0.010129
  0
VERTEX
  8
0
 10
617.528634
 20
401.395488
 42
-0.026578
  0
VERTEX
  8
0
 10
621.642926
 20
398.896163
 42
-0.031470
  0
VERTEX
  8
0
 10
625.054138
 20
396.237971
 42
-0.020201
  0
VERTEX
  8
0
 10
628.674691
 20
392.760261
 42
-0.042805
  0
VERTEX
  8
0
 10
635.552221
 20
384.247862
 42
-0.080899
  0
VERTEX
  8
0
 10
639.241583
 20
376.257485
 42
-0.095535
  0
VERTEX
  8
0
 10
639.872680
 20
368.446758
 42
-0.082094
  0
VERTEX
  8
0
 10
637.641754
 20
360.500000
 42
-0.092819
  0
VERTEX
  8
0
 10
631.894990
 20
352.494659
 42
-0.061138
  0
VERTEX
  8
0
 10
622.783902
 20
345.697603
 42
-0.038764
  0
VERTEX
  8
0
 10
608.558584
 20
338.977383
 42
-0.011430
  0
VERTEX
  8
0
 10
585.815719
 20
330.907176
 42
0.002963
  0
VERTEX
  8
0
 10
568.511244
 20
325.094731
 42
0.021341
  0
VERTEX
  8
0
 10
560.316107
 20
321.891096
 42
0.041535
  0
VERTEX
  8
0
 10
554.895994
 20
318.941669
 42
0.035309
  0
VERTEX
  8
0
 10
549.716469
 20
314.988111
 42
0.065853
  0
VERTEX
  8
0
 10
543.761368
 20
308.153382
 42
0.150072
  0
VERTEX
  8
0
 10
541.841952
 20
301.657211
 42
0.148502
  0
VERTEX
  8
0
 10
543.891835
 20
295.156780
 42
0.064020
  0
VERTEX
  8
0
 10
550.000000
 20
288.306477
 42
0.039598
  0
VERTEX
  8
0
 10
554.044238
 20
285.323018
 42
0.026375
  0
VERTEX
  8
0
 10
559.090700
 20
282.541867
 42
0.015286
  0
VERTEX
  8
0
 10
566.661154
 20
279.157597
 42
0.003280
  0
VERTEX
  8
0
 10
580.000000
 20
273.779442
 42
-0.008935
  0
VERTEX
  8
0
 10
596.695921
 20
266.827215
 42
-0.020116
  0
VERTEX
  8
0
 10
609.025497
 20
260.830823
 42
-0.026359
  0
VERTEX
  8
0
 10
618.290951
 20
255.206141
 42
-0.044961
  0
VERTEX
  8
0
 10
625.280107
 20
249.459312
 42
-0.035414
  0
VERTEX
  8
0
 10
630.364822
 20
243.684952
 42
-0.033315
  0
VERTEX
  8
0
 10
634.698443
 20
237.135936
 42
-0.035116
  0
VERTEX
  8
0
 10
637.853025
 20
230.567988
 42
-0.062570
  0
VERTEX
  8
0
 10
639.349285
 20
224.770674
 42
-0.080583
  0
VERTEX
  8
0
 10
639.032577
 20
215.238653
 42
-0.066692
  0
VERTEX
  8
0
 10
635.763591
 20
205.607572
 42
-0.042015
  0
VERTEX
  8
0
 10
628.601137
 20
193.776763
 42
-0.011509
  0
VERTEX
  8
0
 10
615.371590
 20
176.424010
 42
0.006330
  0
VERTEX
  8
0
 10
601.484798
 20
158.595178
 42
0.019575
  0
VERTEX
  8
0
 10
592.742439
 20
146.085011
 42
0.023224
  0
VERTEX
  8
0
 10
587.534607
 20
137.080387
 42
0.214271
  0
VERTEX
  8
0
 10
587.289477
 20
132.688019
 42
0.297309
  0
VERTEX
  8
0
 10
589.334447
 20
131.208196
 42
0.003193
  0
VERTEX
  8
0
 10
607.508223
 20
130.443377
 42
0.007746
  0
VERTEX
  8
0
 10
624.570708
 20
130.098973
 42
0.068916
  0
VERTEX
  8
0
 10
632.000000
 20
131.092360
 42
-0.053031
  0
VERTEX
  8
0
 10
637.188849
 20
131.954117
 42
-0.020387
  0
VERTEX
  8
0
 10
644.504002
 20
132.084683
 42
-0.019380
  0
VERTEX
  8
0
 10
652.750238
 20
131.575437
 42
-0.018915
  0
VERTEX
  8
0
 10
661.000000
 20
130.427526
 42
0.033932
  0
VERTEX
  8
0
 10
670.548558
 20
129.389905
 42
0.011605
  0
VERTEX
  8
0
 10
684.481152
 20
129.150292
 42
0.004161
  0
VERTEX
  8
0
 10
698.952029
 20
129.357726
 42
0.316827
  0
VERTEX
  8
0
 10
700.723275
 20
130.666336
 42
0.306877
  0
VERTEX
  8
0
 10
700.544799
 20
131.299731
 42
0.017998
  0
VERTEX
  8
0
 10
698.886519
 20
132.599103
 42
0.022193
  0
VERTEX
  8
0
 10
696.651999
 20
134.076762
 42
0.014017
  0
VERTEX
  8
0
 10
693.926176
 20
135.608133
 42
-0.031099
  0
VERTEX
  8
0
 10
686.183746
 20
140.312614
 42
-0.049254
  0
VERTEX
  8
0
 10
680.284163
 20
145.348829
 42
-0.049124
  0
VERTEX
  8
0
 10
675.472995
 20
151.451792
 42
-0.030741
  0
VERTEX
  8
0
 10
671.044698
 20
159.406662
 42
-0.034417
  0
VERTEX
  8
0
 10
666.519626
 20
170.812537
 42
-0.058014
  0
VERTEX
  8
0
 10
664.548002
 20
180.902136
 42
-0.056360
  0
VERTEX
  8
0
 10
664.920220
 20
191.377128
 42
-0.030566
  0
VERTEX
  8
0
 10
667.600562
 20
204.000000
 42
-0.032418
  0
VERTEX
  8
0
 10
669.864153
 20
210.498990
 42
-0.018146
  0
VERTEX
  8
0
 10
673.402343
 20
218.088088
 42
-0.018158
  0
VERTEX
  8
0
 10
677.437160
 20
225.320693
 42
-0.035958
  0
VERTEX
  8
0
 10
681.236915
 20
230.676392
 42
-0.032780
  0
VERTEX
  8
0
 10
686.017374
 20
235.761983
 42
-0.025285
  0
VERTEX
  8
0
 10
691.839860
 20
240.668397
 42
-0.017395
  0
VERTEX
  8
0
 10
697.379749
 20
244.580669
 42
-0.355281
  0
VERTEX
  8
0
 10
699.281958
 20
244.384708
 42
-0.293990
  0
VERTEX
  8
0
 10
699.378405
 20
243.939916
 42
-0.008520
  0
VERTEX
  8
0
 10
698.637322
 20
242.059293
 42
-0.014611
  0
VERTEX
  8
0
 10
697.626269
 20
239.805186
 42
-0.009225
  0
VERTEX
  8
0
 10
696.322238
 20
237.233613
 42
0.044598
  0
VERTEX
  8
0
 10
692.742752
 20
228.734647
 42
0.042228
  0
VERTEX
  8
0
 10
690.646519
 20
219.579042
 42
0.041511
  0
VERTEX
  8
0
 10
690.095992
 20
210.048038
 42
0.039981
  0
VERTEX
  8
0
 10
691.111123
 20
200.433659
 42
-0.000416
  0
VERTEX
  8
0
 10
691.548743
 20
198.085880
 42
-0.000545
  0
VERTEX
  8
0
 10
691.944418
 20
195.940250
 42
-0.000398
  0
VERTEX
  8
0
 10
692.272721
 20
194.140948
 42
-0.005158
  0
VERTEX
  8
0
 10
692.387571
 20
193.469321
 42
0.088679
  0
VERTEX
  8
0
 10
693.000797
 20
191.713132
 42
0.008135
  0
VERTEX
  8
0
 10
695.342143
 20
187.708924
 42
0.008870
  0
VERTEX
  8
0
 10
697.806493
 20
183.805330
 42
0.074342
  0
VERTEX
  8
0
 10
699.192364
 20
182.254449
 42
0.500664
  0
VERTEX
  8
0
 10
699.843248
 20
182.410452
 42
0.074982
  0
VERTEX
  8
0
 10
700.245793
 20
183.938942
 42
0.023583
  0
VERTEX
  8
0
 10
700.452769
 20
187.346038
 42
0.003379
  0
VERTEX
  8
0
 10
700.500000
 20
194.334171
 42
0.000000
  0
VERTEX
  8
0
 10
700.500000
 20
207.500000
 42
0.000000
  0
VERTEX
  8
0
 10
704.672448
 20
216.184415
 42
-0.009237
  0
VERTEX
  8
0
 10
706.605324
 20
220.024077
 42
-0.005991
  0
VERTEX
  8
0
 10
708.974783
 20
224.394345
 42
-0.006023
  0
VERTEX
  8
0
 10
711.392073
 20
228.607967
 42
-0.011360
  0
VERTEX
  8
0
 10
713.459512
 20
231.937976
 42
0.015648
  0
VERTEX
  8
0
 10
717.382554
 20
238.379384
 42
0.030083
  0
VERTEX
  8
0
 10
720.041497
 20
243.806072
 42
0.035824
  0
VERTEX
  8
0
 10
721.720128
 20
248.807278
 42
0.037826
  0
VERTEX
  8
0
 10
722.630188
 20
253.906942
 42
0.048903
  0
VERTEX
  8
0
 10
722.647804
 20
259.324986
 42
0.026993
  0
VERTEX
  8
0
 10
721.667520
 20
265.879866
 42
0.027020
  0
VERTEX
  8
0
 10
720.009519
 20
272.202714
 42
0.055699
  0
VERTEX
  8
0
 10
717.919106
 20
276.861678
 42
-0.014326
  0
VERTEX
  8
0
 10
717.184284
 20
278.192820
 42
-0.022186
  0
VERTEX
  8
0
 10
716.635427
 20
279.385224
 42
-0.018110
  0
VERTEX
  8
0
 10
716.278685
 20
280.360102
 42
-0.282144
  0
VERTEX
  8
0
 10
716.358174
 20
280.691508
 42
-0.323282
  0
VERTEX
  8
0
 10
717.395550
 20
280.858965
 42
-0.005070
  0
VERTEX
  8
0
 10
723.037755
 20
277.954109
 42
-0.012776
  0
VERTEX
  8
0
 10
728.380992
 20
274.957292
 42
-0.040725
  0
VERTEX
  8
0
 10
731.712673
 20
272.588316
 42
-0.049950
  0
VERTEX
  8
0
 10
733.122426
 20
271.138743
 42
-0.015448
  0
VERTEX
  8
0
 10
734.944395
 20
268.695539
 42
-0.015280
  0
VERTEX
  8
0
 10
736.824746
 20
265.821189
 42
-0.016233
  0
VERTEX
  8
0
 10
738.486486
 20
262.893762
 42
-0.011187
  0
VERTEX
  8
0
 10
740.671851
 20
258.498969
 42
-0.051330
  0
VERTEX
  8
0
 10
741.610898
 20
255.814577
 42
-0.058929
  0
VERTEX
  8
0
 10
741.919605
 20
253.170304
 42
-0.017727
  0
VERTEX
  8
0
 10
741.769730
 20
249.116273
 42
-0.024526
  0
VERTEX
  8
0
 10
741.323374
 20
245.458932
 42
-0.032431
  0
VERTEX
  8
0
 10
740.541105
 20
242.196301
 42
-0.028284
  0
VERTEX
  8
0
 10
739.252763
 20
238.739141
 42
-0.013352
  0
VERTEX
  8
0
 10
737.223857
 20
234.429174
 42
0.025252
  0
VERTEX
  8
0
 10
733.516652
 20
226.041846
 42
0.086643
  0
VERTEX
  8
0
 10
732.379424
 20
220.217670
 42
0.120978
  0
VERTEX
  8
0
 10
733.447674
 20
215.458611
 42
0.075207
  0
VERTEX
  8
0
 10
736.750710
 20
210.750000
 42
0.039546
  0
VERTEX
  8
0
 10
738.356586
 20
209.313194
 42
0.078718
  0
VERTEX
  8
0
 10
739.855309
 20
208.506605
 42
0.064575
  0
VERTEX
  8
0
 10
741.720195
 20
208.113708
 42
0.019671
  0
VERTEX
  8
0
 10
744.609352
 20
208.000000
 42
0.122939
  0
VERTEX
  8
0
 10
751.850070
 20
209.807661
 42
0.101966
  0
VERTEX
  8
0
 10
757.980414
 20
214.893408
 42
0.082736
  0
VERTEX
  8
0
 10
762.532136
 20
223.031994
 42
0.051690
  0
VERTEX
  8
0
 10
765.150838
 20
233.661430
 42
0.047461
  0
VERTEX
  8
0
 10
765.596152
 20
243.912207
 42
0.047075
  0
VERTEX
  8
0
 10
764.104282
 20
254.092088
 42
0.032440
  0
VERTEX
  8
0
 10
760.160950
 20
266.641611
 42
0.009727
  0
VERTEX
  8
0
 10
752.562634
 20
285.191761
 42
-0.047625
  0
VERTEX
  8
0
 10
745.833101
 20
305.982485
 42
-0.067698
  0
VERTEX
  8
0
 10
744.231143
 20
325.316121
 42
-0.070841
  0
VERTEX
  8
0
 10
747.844232
 20
343.709428
 42
-0.058487
  0
VERTEX
  8
0
 10
756.584481
 20
361.699519
 42
-0.053534
  0
VERTEX
  8
0
 10
765.787501
 20
373.172241
 42
-0.041114
  0
VERTEX
  8
0
 10
778.023982
 20
383.596349
 42
-0.041009
  0
VERTEX
  8
0
 10
791.843250
 20
391.907005
 42
-0.052316
  0
VERTEX
  8
0
 10
805.774312
 20
397.070157
 42
-0.005396
  0
VERTEX
  8
0
 10
812.754398
 20
398.775319
 42
-0.073587
  0
VERTEX
  8
0
 10
815.354836
 20
398.988758
 42
-0.575219
  0
VERTEX
  8
0
 10
815.730423
 20
398.234072
 42
-0.072395
  0
VERTEX
  8
0
 10
814.207451
 20
396.521105
 42
0.038260
  0
VERTEX
  8
0
 10
810.292130
 20
392.678786
 42
0.013530
  0
VERTEX
  8
0
 10
805.279843
 20
386.621431
 42
0.013611
  0
VERTEX
  8
0
 10
800.583532
 20
380.274013
 42
0.036088
  0
VERTEX
  8
0
 10
797.694658
 20
375.428602
 42
0.032592
  0
VERTEX
  8
0
 10
795.073958
 20
369.235605
 42
0.033870
  0
VERTEX
  8
0
 10
793.319562
 20
362.832918
 42
0.030711
  0
VERTEX
  8
0
 10
792.329090
 20
355.718279
 42
0.019507
  0
VERTEX
  8
0
 10
792.011869
 20
347.355655
 42
0.017778
  0
VERTEX
  8
0
 10
792.314830
 20
339.092221
 42
0.034020
  0
VERTEX
  8
0
 10
793.242199
 20
332.521609
 42
0.035652
  0
VERTEX
  8
0
 10
795.015839
 20
326.341976
 42
0.021731
  0
VERTEX
  8
0
 10
797.933883
 20
319.327594
 42
0.035454
  0
VERTEX
  8
0
 10
802.284671
 20
311.523124
 42
0.019120
  0
VERTEX
  8
0
 10
808.663175
 20
302.544466
 42
0.017358
  0
VERTEX
  8
0
 10
814.624821
 20
295.330366
 42
0.690119
  0
VERTEX
  8
0
 10
816.000000
 20
295.852182
 42
0.052707
  0
VERTEX
  8
0
 10
815.915039
 20
296.655918
 42
0.002947
  0
VERTEX
  8
0
 10
815.374297
 20
299.114117
 42
0.004514
  0
VERTEX
  8
0
 10
814.685879
 20
302.035204
 42
0.003289
  0
VERTEX
  8
0
 10
813.869946
 20
305.270400
 42
-0.040457
  0
VERTEX
  8
0
 10
812.281895
 20
314.370967
 42
-0.034275
  0
VERTEX
  8
0
 10
812.053698
 20
324.134440
 42
-0.035651
  0
VERTEX
  8
0
 10
813.114056
 20
333.200821
 42
-0.069062
  0
VERTEX
  8
0
 10
815.443801
 20
340.101363
 42
-0.012980
  0
VERTEX
  8
0
 10
818.195234
 20
345.266420
 42
-0.013661
  0
VERTEX
  8
0
 10
821.166730
 20
350.192910
 42
-0.006784
  0
VERTEX
  8
0
 10
823.990034
 20
354.468231
 42
-0.248322
  0
VERTEX
  8
0
 10
824.994732
 20
355.000000
 42
-0.430675
  0
VERTEX
  8
0
 10
825.230551
 20
354.750623
 42
-0.020896
  0
VERTEX
  8
0
 10
825.106883
 20
353.488337
 42
-0.023191
  0
VERTEX
  8
0
 10
824.794689
 20
351.827628
 42
-0.013241
  0
VERTEX
  8
0
 10
824.272441
 20
349.853912
 42
0.060704
  0
VERTEX
  8
0
 10
823.278754
 20
343.845275
 42
0.014467
  0
VERTEX
  8
0
 10
823.139667
 20
333.694455
 42
0.011590
  0
VERTEX
  8
0
 10
823.528727
 20
323.570264
 42
0.113728
  0
VERTEX
  8
0
 10
824.734798
 20
319.500000
 42
0.000000
  0
VERTEX
  8
0
 10
825.865501
 20
317.500000
 42
0.000000
  0
VERTEX
  8
0
 10
826.540422
 20
319.500000
 42
-0.043378
  0
VERTEX
  8
0
 10
830.637725
 20
328.871595
 42
-0.047829
  0
VERTEX
  8
0
 10
836.181180
 20
337.071741
 42
-0.051366
  0
VERTEX
  8
0
 10
842.741650
 20
343.537409
 42
-0.070520
  0
VERTEX
  8
0
 10
849.860557
 20
347.753306
 42
-0.022509
  0
VERTEX
  8
0
 10
853.604357
 20
349.115048
 42
-0.209977
  0
VERTEX
  8
0
 10
855.272548
 20
348.930642
 42
-0.385309
  0
VERTEX
  8
0
 10
855.644961
 20
347.772840
 42
-0.046775
  0
VERTEX
  8
0
 10
854.203840
 20
345.243176
 42
0.031254
  0
VERTEX
  8
0
 10
851.201043
 20
340.332573
 42
0.059309
  0
VERTEX
  8
0
 10
849.536691
 20
336.014100
 42
0.048413
  0
VERTEX
  8
0
 10
848.745550
 20
330.870970
 42
0.014816
  0
VERTEX
  8
0
 10
848.538918
 20
323.000000
 42
0.007012
  0
VERTEX
  8
0
 10
848.659306
 20
316.084697
 42
0.033884
  0
VERTEX
  8
0
 10
849.048266
 20
312.175506
 42
0.043858
  0
VERTEX
  8
0
 10
849.918356
 20
308.831837
 42
0.017133
  0
VERTEX
  8
0
 10
851.674296
 20
304.390422
 42
0.025085
  0
VERTEX
  8
0
 10
853.511282
 20
300.691236
 42
0.006689
  0
VERTEX
  8
0
 10
856.806373
 20
294.995222
 42
0.006764
  0
VERTEX
  8
0
 10
860.731426
 20
288.612783
 42
0.006929
  0
VERTEX
  8
0
 10
864.796974
 20
282.390422
 42
-0.012488
  0
VERTEX
  8
0
 10
872.908386
 20
269.669210
 42
-0.016318
  0
VERTEX
  8
0
 10
879.643635
 20
257.628821
 42
-0.018220
  0
VERTEX
  8
0
 10
884.791437
 20
246.721229
 42
-0.033943
  0
VERTEX
  8
0
 10
888.018698
 20
237.500000
 42
0.001830
  0
VERTEX
  8
0
 10
888.905336
 20
234.326713
 42
0.002337
  0
VERTEX
  8
0
 10
889.746734
 20
231.409375
 42
0.001812
  0
VERTEX
  8
0
 10
890.472295
 20
228.969892
 42
0.019697
  0
VERTEX
  8
0
 10
890.806789
 20
228.000000
 42
0.808244
  0
VERTEX
  8
0
 10
891.759580
 20
228.153948
 42
0.005488
  0
VERTEX
  8
0
 10
892.332260
 20
242.415092
 42
0.005657
  0
VERTEX
  8
0
 10
892.718141
 20
264.036569
 42
0.001673
  0
VERTEX
  8
0
 10
892.823546
 20
297.142715
 42
-0.001349
  0
VERTEX
  8
0
 10
892.881778
 20
320.108349
 42
-0.003181
  0
VERTEX
  8
0
 10
893.080416
 20
337.236168
 42
-0.001089
  0
VERTEX
  8
0
 10
893.355476
 20
350.893556
 42
-0.117811
  0
VERTEX
  8
0
 10
893.820804
 20
352.665169
 42
0.083247
  0
VERTEX
  8
0
 10
894.198512
 20
353.785079
 42
0.037458
  0
VERTEX
  8
0
 10
894.329549
 20
355.335899
 42
0.030854
  0
VERTEX
  8
0
 10
894.229162
 20
357.254534
 42
0.018244
  0
VERTEX
  8
0
 10
893.885363
 20
359.522454
 42
-0.040257
  0
VERTEX
  8
0
 10
893.508975
 20
363.044569
 42
-0.001566
  0
VERTEX
  8
0
 10
893.210287
 20
376.109721
 42
-0.002779
  0
VERTEX
  8
0
 10
892.990976
 20
391.589598
 42
-0.001957
  0
VERTEX
  8
0
 10
892.909267
 20
409.000000
 42
0.000533
  0
VERTEX
  8
0
 10
892.864800
 20
433.094664
 42
0.000132
  0
VERTEX
  8
0
 10
892.739334
 20
472.593750
 42
0.000135
  0
VERTEX
  8
0
 10
892.571539
 20
517.814063
 42
0.000135
  0
VERTEX
  8
0
 10
892.379430
 20
563.000000
 42
0.000000
  0
VERTEX
  8
0
 10
891.884242
 20
672.500000
 42
0.000000
  0
VERTEX
  8
0
 10
888.269788
 20
677.994168
 42
0.020199
  0
VERTEX
  8
0
 10
886.423112
 20
680.568441
 42
0.008886
  0
VERTEX
  8
0
 10
883.784890
 20
683.827926
 42
0.008778
  0
VERTEX
  8
0
 10
880.860680
 20
687.190572
 42
0.011647
  0
VERTEX
  8
0
 10
878.077667
 20
690.138555
 42
-0.011367
  0
VERTEX
  8
0
 10
872.916639
 20
695.599381
 42
-0.013599
  0
VERTEX
  8
0
 10
868.318238
 20
700.979114
 42
-0.008874
  0
VERTEX
  8
0
 10
864.600618
 20
705.746435
 42
-0.162550
  0
VERTEX
  8
0
 10
864.000000
 20
707.545105
 42
0.275209
  0
VERTEX
  8
0
 10
863.770027
 20
707.931274
 42
0.072666
  0
VERTEX
  8
0
 10
863.067096
 20
708.189040
 42
0.051364
  0
VERTEX
  8
0
 10
862.023724
 20
708.297690
 42
0.028841
  0
VERTEX
  8
0
 10
860.750000
 20
708.225590
 42
-0.113854
  0
VERTEX
  8
0
 10
858.515040
 20
708.478138
 42
-0.085457
  0
VERTEX
  8
0
 10
856.347170
 20
709.690054
 42
-0.033007
  0
VERTEX
  8
0
 10
853.292261
 20
712.514629
 42
-0.003415
  0
VERTEX
  8
0
 10
846.597134
 20
719.676391
 42
-0.006070
  0
VERTEX
  8
0
 10
841.632719
 20
725.192950
 42
-0.003325
  0
VERTEX
  8
0
 10
835.677563
 20
732.065877
 42
-0.003313
  0
VERTEX
  8
0
 10
829.722274
 20
739.126224
 42
-0.005280
  0
VERTEX
  8
0
 10
824.734534
 20
745.250000
 42
0.006209
  0
VERTEX
  8
0
 10
820.115385
 20
750.899757
 42
0.012232
  0
VERTEX
  8
0
 10
816.281435
 20
755.251271
 42
0.008276
  0
VERTEX
  8
0
 10
813.151192
 20
758.523225
 42
0.200363
  0
VERTEX
  8
0
 10
812.009177
 20
759.000000
 42
0.210754
  0
VERTEX
  8
0
 10
810.342159
 20
758.264677
 42
0.028127
  0
VERTEX
  8
0
 10
807.856309
 20
755.213803
 42
0.012933
  0
VERTEX
  8
0
 10
803.782844
 20
749.279992
 42
0.001230
  0
VERTEX
  8
0
 10
794.240951
 20
734.500000
 42
0.001470
  0
VERTEX
  8
0
 10
783.184046
 20
717.168637
 42
0.005338
  0
VERTEX
  8
0
 10
776.305998
 20
706.056690
 42
0.002525
  0
VERTEX
  8
0
 10
771.460681
 20
697.946499
 42
0.217300
  0
VERTEX
  8
0
 10
771.313884
 20
696.560685
 42
0.290749
  0
VERTEX
  8
0
 10
771.896199
 20
696.087389
 42
0.012547
  0
VERTEX
  8
0
 10
774.640500
 20
695.835585
 42
0.015550
  0
VERTEX
  8
0
 10
778.409434
 20
695.702453
 42
0.006186
  0
VERTEX
  8
0
 10
783.584113
 20
695.744674
 42
-0.013212
  0
VERTEX
  8
0
 10
792.719848
 20
695.690843
 42
-0.052569
  0
VERTEX
  8
0
 10
798.265417
 20
694.924293
 42
-0.103937
  0
VERTEX
  8
0
 10
801.433318
 20
693.395860
 42
-0.202134
  0
VERTEX
  8
0
 10
802.792769
 20
690.995122
 42
-0.151191
  0
VERTEX
  8
0
 10
802.412043
 20
688.946596
 42
-0.011009
  0
VERTEX
  8
0
 10
799.597076
 20
683.865120
 42
-0.010718
  0
VERTEX
  8
0
 10
795.151050
 20
676.602659
 42
-0.003037
  0
VERTEX
  8
0
 10
787.923707
 20
665.495122
 42
-0.000739
  0
VERTEX
  8
0
 10
769.282616
 20
637.313872
 42
-0.005387
  0
VERTEX
  8
0
 10
760.178723
 20
623.910575
 42
-0.007509
  0
VERTEX
  8
0
 10
754.502745
 20
616.000883
 42
-0.098658
  0
VERTEX
  8
0
 10
751.845708
 20
613.590992
 42
-0.085943
  0
VERTEX
  8
0
 10
749.738316
 20
612.777208
 42
-0.028594
  0
VERTEX
  8
0
 10
746.449623
 20
612.314171
 42
-0.016921
  0
VERTEX
  8
0
 10
741.364115
 20
612.065463
 42
-0.003757
  0
VERTEX
  8
0
 10
732.652412
 20
612.000000
 42
-0.002310
  0
VERTEX
  8
0
 10
722.269746
 20
612.047974
 42
-0.027332
  0
VERTEX
  8
0
 10
718.248667
 20
612.305239
 42
-0.079518
  0
VERTEX
  8
0
 10
716.066144
 20
612.926330
 42
-0.131713
  0
VERTEX
  8
0
 10
714.608124
 20
614.149094
 42
-0.038070
  0
VERTEX
  8
0
 10
713.835484
 20
615.453062
 42
-0.118136
  0
VERTEX
  8
0
 10
713.610297
 20
616.443220
 42
-0.096263
  0
VERTEX
  8
0
 10
713.837364
 20
617.543611
 42
-0.020458
  0
VERTEX
  8
0
 10
714.667963
 20
619.324805
 42
-0.032562
  0
VERTEX
  8
0
 10
715.650670
 20
620.955506
 42
-0.006704
  0
VERTEX
  8
0
 10
717.604466
 20
623.687300
 42
-0.007025
  0
VERTEX
  8
0
 10
719.965462
 20
626.803910
 42
-0.006560
  0
VERTEX
  8
0
 10
722.466733
 20
629.925710
 42
0.008958
  0
VERTEX
  8
0
 10
729.007998
 20
638.170478
 42
0.004401
  0
VERTEX
  8
0
 10
737.050457
 20
648.883138
 42
0.004266
  0
VERTEX
  8
0
 10
745.483615
 20
660.531377
 42
0.004933
  0
VERTEX
  8
0
 10
753.312571
 20
671.774878
 42
0.000000
  0
VERTEX
  8
0
 10
760.999333
 20
683.049755
 42
0.000000
  0
VERTEX
  8
0
 10
758.440957
 20
684.022448
 42
0.021365
  0
VERTEX
  8
0
 10
757.182116
 20
684.440450
 42
0.009121
  0
VERTEX
  8
0
 10
755.466957
 20
684.896047
 42
0.009005
  0
VERTEX
  8
0
 10
753.617843
 20
685.316116
 42
0.011703
  0
VERTEX
  8
0
 10
751.909315
 20
685.630492
 42
-0.075940
  0
VERTEX
  8
0
 10
748.982269
 20
686.568598
 42
-0.071493
  0
VERTEX
  8
0
 10
746.400890
 20
688.351657
 42
-0.077887
  0
VERTEX
  8
0
 10
744.613728
 20
690.616230
 42
-0.128869
  0
VERTEX
  8
0
 10
744.000000
 20
692.957899
 42
-0.106880
  0
VERTEX
  8
0
 10
744.217924
 20
693.965731
 42
-0.010864
  0
VERTEX
  8
0
 10
745.283464
 20
696.184971
 42
-0.013193
  0
VERTEX
  8
0
 10
746.695971
 20
698.796916
 42
-0.010151
  0
VERTEX
  8
0
 10
748.369240
 20
701.573040
 42
0.003461
  0
VERTEX
  8
0
 10
755.917514
 20
713.725621
 42
0.002767
  0
VERTEX
  8
0
 10
763.887276
 20
726.920700
 42
0.000967
  0
VERTEX
  8
0
 10
771.422597
 20
739.609696
 42
0.056715
  0
VERTEX
  8
0
 10
772.519838
 20
742.062505
 42
0.124011
  0
VERTEX
  8
0
 10
772.593158
 20
743.271524
 42
0.075780
  0
VERTEX
  8
0
 10
772.117287
 20
744.627721
 42
0.048241
  0
VERTEX
  8
0
 10
771.012841
 20
746.294700
 42
0.015792
  0
VERTEX
  8
0
 10
769.082749
 20
748.526055
 42
-0.008611
  0
VERTEX
  8
0
 10
767.518564
 20
750.282759
 42
-0.012361
  0
VERTEX
  8
0
 10
766.199307
 20
751.895782
 42
-0.008224
  0
VERTEX
  8
0
 10
765.163378
 20
753.274499
 42
-0.158285
  0
VERTEX
  8
0
 10
765.000000
 20
753.777657
 42
-0.201075
  0
VERTEX
  8
0
 10
765.591505
 20
755.189044
 42
-0.108741
  0
VERTEX
  8
0
 10
767.214024
 20
756.207295
 42
-0.063299
  0
VERTEX
  8
0
 10
769.973177
 20
756.816734
 42
-0.022744
  0
VERTEX
  8
0
 10
774.000000
 20
757.000000
 42
0.046063
  0
VERTEX
  8
0
 10
780.529403
 20
757.602807
 42
0.297672
  0
VERTEX
  8
0
 10
782.806934
 20
759.779491
 42
0.175791
  0
VERTEX
  8
0
 10
782.329668
 20
763.783719
 42
0.017404
  0
VERTEX
  8
0
 10
777.599048
 20
772.413063
 42
-0.002160
  0
VERTEX
  8
0
 10
773.506060
 20
779.367622
 42
-0.004293
  0
VERTEX
  8
0
 10
770.334491
 20
784.919241
 42
-0.004333
  0
VERTEX
  8
0
 10
767.277680
 20
790.490999
 42
-0.002246
  0
VERTEX
  8
0
 10
763.551498
 20
797.500000
 42
0.010465
  0
VERTEX
  8
0
 10
760.464713
 20
803.082929
 42
0.049893
  0
VERTEX
  8
0
 10
758.332514
 20
806.033894
 42
0.141062
  0
VERTEX
  8
0
 10
756.755381
 20
807.033970
 42
0.318617
  0
SEQEND
  0
POLYLINE
  8
0
 66
1
 70
1
  0
VERTEX
  8
0
 10
859.964816
 20
693.065741
 42
-0.100341
  0
VERTEX
  8
0
 10
860.375868
 20
691.695213
 42
-0.006691
  0
VERTEX
  8
0
 10
860.697222
 20
687.583180
 42
-0.009394
  0
VERTEX
  8
0
 10
860.924965
 20
682.616447
 42
-0.006759
  0
VERTEX
  8
0
 10
861.000000
 20
677.065741
 42
-0.002452
  0
VERTEX
  8
0
 10
860.956868
 20
668.270800
 42
-0.032393
  0
VERTEX
  8
0
 10
860.714939
 20
665.032593
 42
-0.122218
  0
VERTEX
  8
0
 10
860.122220
 20
663.559605
 42
-0.240746
  0
VERTEX
  8
0
 10
859.027348
 20
663.000000
 42
-0.204921
  0
VERTEX
  8
0
 10
856.735758
 20
663.980356
 42
-0.003623
  0
VERTEX
  8
0
 10
847.331901
 20
673.972835
 42
-0.007932
  0
VERTEX
  8
0
 10
838.660510
 20
683.624491
 42
-0.057025
  0
VERTEX
  8
0
 10
835.120602
 20
688.774865
 42
-0.027075
  0
VERTEX
  8
0
 10
834.401035
 20
690.327041
 42
-0.144155
  0
VERTEX
  8
0
 10
834.314565
 20
691.247963
 42
-0.146922
  0
VERTEX
  8
0
 10
834.741654
 20
692.059442
 42
-0.028484
  0
VERTEX
  8
0
 10
835.981386
 20
693.186011
 42
-0.083430
  0
VERTEX
  8
0
 10
837.620550
 20
694.111917
 42
-0.051210
  0
VERTEX
  8
0
 10
839.777650
 20
694.652111
 42
-0.029225
  0
VERTEX
  8
0
 10
843.022078
 20
694.927297
 42
-0.006545
  0
VERTEX
  8
0
 10
848.575600
 20
695.000000
 42
-0.004845
  0
VERTEX
  8
0
 10
854.578621
 20
694.941832
 42
-0.037229
  0
VERTEX
  8
0
 10
857.379761
 20
694.678302
 42
-0.089925
  0
VERTEX
  8
0
 10
858.961741
 20
694.105142
 42
-0.138994
  0
SEQEND
  0
POLYLINE
  8
0
 66
1
 70
1
  0
VERTEX
  8
0
 10
859.800000
 20
638.800000
 42
-0.196168
  0
VERTEX
  8
0
 10
861.059481
 20
635.804201
 42
-0.003790
  0
VERTEX
  8
0
 10
861.110502
 20
618.701756
 42
-0.002782
  0
VERTEX
  8
0
 10
860.933574
 20
601.291493
 42
-0.409615
  0
VERTEX
  8
0
 10
859.621610
 20
600.000000
 42
-0.239302
  0
VERTEX
  8
0
 10
857.071480
 20
601.294643
 42
-0.002919
  0
VERTEX
  8
0
 10
845.929214
 20
616.724612
 42
-0.003957
  0
VERTEX
  8
0
 10
835.225800
 20
631.984676
 42
-0.152095
  0
VERTEX
  8
0
 10
834.000000
 20
635.921184
 42
-0.077313
  0
VERTEX
  8
0
 10
834.129537
 20
636.753918
 42
-0.054961
  0
VERTEX
  8
0
 10
834.514063
 20
637.618574
 42
-0.054703
  0
VERTEX
  8
0
 10
835.080545
 20
638.383309
 42
-0.074268
  0
VERTEX
  8
0
 10
835.750000
 20
638.919901
 42
-0.124368
  0
VERTEX
  8
0
 10
838.978225
 20
639.848007
 42
-0.009367
  0
VERTEX
  8
0
 10
848.164204
 20
639.974305
 42
-0.007347
  0
VERTEX
  8
0
 10
857.521158
 20
639.790145
 42
-0.189994
  0
SEQEND
  0
POLYLINE
  8
0
 66
1
 70
1
  0
VERTEX
  8
0
 10
577.984687
 20
599.187050
 42
0.099848
  0
VERTEX
  8
0
 10
578.744127
 20
595.546503
 42
0.029889
  0
VERTEX
  8
0
 10
581.295527
 20
590.453967
 42
0.027747
  0
VERTEX
  8
0
 10
585.009249
 20
584.781827
 42
0.022724
  0
VERTEX
  8
0
 10
589.570310
 20
579.148629
 42
-0.017250
  0
VERTEX
  8
0
 10
593.944010
 20
573.866088
 42
-0.024535
  0
VERTEX
  8
0
 10
597.425117
 20
568.864093
 42
-0.025386
  0
VERTEX
  8
0
 10
599.620000
 20
564.923334
 42
-0.555497
  0
VERTEX
  8
0
 10
599.045366
 20
564.000000
 42
-0.089341
  0
VERTEX
  8
0
 10
598.395529
 20
564.117049
 42
-0.005087
  0
VERTEX
  8
0
 10
596.486790
 20
564.849909
 42
-0.007650
  0
VERTEX
  8
0
 10
594.225296
 20
565.784980
 42
-0.005532
  0
VERTEX
  8
0
 10
591.732950
 20
566.893307
 42
0.007970
  0
VERTEX
  8
0
 10
588.754118
 20
568.200613
 42
0.004060
  0
VERTEX
  8
0
 10
584.972226
 20
569.752954
 42
0.004032
  0
VERTEX
  8
0
 10
581.045793
 20
571.290854
 42
0.006030
  0
VERTEX
  8
0
 10
577.588592
 20
572.565335
 42
-0.069726
  0
VERTEX
  8
0
 10
569.656125
 20
576.698649
 42
-0.200624
  0
VERTEX
  8
0
 10
566.450338
 20
581.866660
 42
-0.151772
  0
VERTEX
  8
0
 10
567.449568
 20
588.855372
 42
-0.036142
  0
VERTEX
  8
0
 10
573.311267
 20
599.200410
 42
-0.023178
  0
VERTEX
  8
0
 10
575.477193
 20
602.145517
 42
-0.227086
  0
VERTEX
  8
0
 10
576.833063
 20
602.790039
 42
-0.363855
  0
VERTEX
  8
0
 10
577.729665
 20
602.033633
 42
-0.041389
  0
SEQEND
  0
POLYLINE
  8
0
 66
1
 70
1
  0
VERTEX
  8
0
 10
782.354042
 20
592.161282
 42
-0.042921
  0
VERTEX
  8
0
 10
783.240886
 20
590.994147
 42
-0.172598
  0
VERTEX
  8
0
 10
783.435233
 20
590.133766
 42
-0.113646
  0
VERTEX
  8
0
 10
783.075650
 20
589.136298
 42
-0.013992
  0
VERTEX
  8
0
 10
781.759029
 20
587.213031
 42
-0.018668
  0
VERTEX
  8
0
 10
773.746369
 20
577.007612
 42
-0.003618
  0
VERTEX
  8
0
 10
758.461784
 20
559.231602
 42
-0.001276
  0
VERTEX
  8
0
 10
741.916080
 20
540.365617
 42
-0.093414
  0
VERTEX
  8
0
 10
738.692129
 20
537.853201
 42
-0.075310
  0
VERTEX
  8
0
 10
736.132024
 20
536.989538
 42
-0.021940
  0
VERTEX
  8
0
 10
731.995849
 20
536.443923
 42
-0.013380
  0
VERTEX
  8
0
 10
725.605902
 20
536.056707
 42
-0.003002
  0
VERTEX
  8
0
 10
714.701749
 20
535.753923
 42
0.000000
  0
VERTEX
  8
0
 10
693.908045
 20
535.301443
 42
0.000000
  0
VERTEX
  8
0
 10
691.954023
 20
537.785580
 42
-0.017180
  0
VERTEX
  8
0
 10
691.205938
 20
538.806956
 42
-0.020401
  0
VERTEX
  8
0
 10
690.573994
 20
539.821655
 42
-0.019668
  0
VERTEX
  8
0
 10
690.115485
 20
540.709117
 42
-0.109826
  0
VERTEX
  8
0
 10
690.000000
 20
541.228536
 42
-0.190429
  0
VERTEX
  8
0
 10
690.257998
 20
541.881384
 42
-0.000665
  0
VERTEX
  8
0
 10
696.130376
 20
548.134189
 42
-0.003408
  0
VERTEX
  8
0
 10
702.868738
 20
555.192948
 42
-0.002116
  0
VERTEX
  8
0
 10
710.869364
 20
563.390715
 42
0.003266
  0
VERTEX
  8
0
 10
718.982729
 20
571.742357
 42
0.004625
  0
VERTEX
  8
0
 10
726.085674
 20
579.288627
 42
0.002698
  0
VERTEX
  8
0
 10
731.971724
 20
585.728480
 42
0.064553
  0
VERTEX
  8
0
 10
733.363653
 20
587.736333
 42
-0.082436
  0
VERTEX
  8
0
 10
736.051666
 20
591.333454
 42
-0.134337
  0
VERTEX
  8
0
 10
739.378939
 20
593.140238
 42
-0.053069
  0
VERTEX
  8
0
 10
745.165009
 20
593.863506
 42
-0.004579
  0
VERTEX
  8
0
 10
760.067519
 20
594.000000
 42
-0.002048
  0
VERTEX
  8
0
 10
772.324628
 20
593.949806
 42
-0.018534
  0
VERTEX
  8
0
 10
777.674528
 20
593.707537
 42
-0.044242
  0
VERTEX
  8
0
 10
780.661423
 20
593.192529
 42
-0.145019
  0
SEQEND
  0
POLYLINE
  8
0
 66
1
 70
1
  0
VERTEX
  8
0
 10
859.902888
 20
566.617013
 42
-0.174394
  0
VERTEX
  8
0
 10
860.879650
 20
563.919474
 42
-0.003499
  0
VERTEX
  8
0
 10
860.807218
 20
549.158268
 42
-0.002404
  0
VERTEX
  8
0
 10
860.554818
 20
534.058554
 42
-0.346863
  0
VERTEX
  8
0
 10
859.500000
 20
532.778624
 42
-0.297156
  0
VERTEX
  8
0
 10
857.765813
 20
533.439165
 42
-0.001905
  0
VERTEX
  8
0
 10
847.669328
 20
547.422430
 42
-0.002912
  0
VERTEX
  8
0
 10
837.957655
 20
561.149479
 42
-0.153670
  0
VERTEX
  8
0
 10
837.000000
 20
564.191850
 42
-0.172717
  0
VERTEX
  8
0
 10
837.664848
 20
566.059114
 42
-0.146341
  0
VERTEX
  8
0
 10
839.407119
 20
567.241016
 42
-0.064275
  0
VERTEX
  8
0
 10
842.793401
 20
567.846965
 42
-0.012174
  0
VERTEX
  8
0
 10
849.077555
 20
568.000000
 42
-0.007639
  0
VERTEX
  8
0
 10
853.713541
 20
567.929164
 42
-0.024132
  0
VERTEX
  8
0
 10
856.809975
 20
567.684623
 42
-0.034270
  0
VERTEX
  8
0
 10
858.879296
 20
567.274667
 42
-0.154712
  0
SEQEND
  0
POLYLINE
  8
0
 66
1
 70
1
  0
VERTEX
  8
0
 10
656.512215
 20
549.881975
 42
-0.054090
  0
VERTEX
  8
0
 10
660.623828
 20
545.175209
 42
-0.034003
  0
VERTEX
  8
0
 10
664.395272
 20
538.911318
 42
-0.034182
  0
VERTEX
  8
0
 10
667.145198
 20
532.508068
 42
-0.084526
  0
VERTEX
  8
0
 10
668.000000
 20
527.487767
 42
-0.046213
  0
VERTEX
  8
0
 10
667.677735
 20
524.008452
 42
-0.036452
  0
VERTEX
  8
0
 10
666.713733
 20
520.349226
 42
-0.037444
  0
VERTEX
  8
0
 10
665.347588
 20
517.165296
 42
-0.099805
  0
VERTEX
  8
0
 10
663.802181
 20
515.250788
 42
-0.049143
  0
VERTEX
  8
0
 10
663.114281
 20
514.785687
 42
-0.019856
  0
VERTEX
  8
0
 10
662.096301
 20
514.285631
 42
-0.019420
  0
VERTEX
  8
0
 10
660.949959
 20
513.830345
 42
-0.023334
  0
VERTEX
  8
0
 10
659.839235
 20
513.495787
 42
0.081000
  0
VERTEX
  8
0
 10
657.010946
 20
512.274748
 42
0.084052
  0
VERTEX
  8
0
 10
654.758194
 20
510.230521
 42
0.090153
  0
VERTEX
  8
0
 10
653.417763
 20
507.695289
 42
0.113551
  0
VERTEX
  8
0
 10
653.205091
 20
505.055987
 42
-0.061379
  0
VERTEX
  8
0
 10
653.254925
 20
502.901309
 42
-0.332793
  0
VERTEX
  8
0
 10
652.512800
 20
502.091815
 42
-0.189411
  0
VERTEX
  8
0
 10
651.065828
 20
502.367285
 42
-0.026007
  0
VERTEX
  8
0
 10
648.509566
 20
504.171136
 42
-0.079488
  0
VERTEX
  8
0
 10
646.166049
 20
506.708841
 42
-0.027635
  0
VERTEX
  8
0
 10
643.634150
 20
511.012933
 42
-0.027213
  0
VERTEX
  8
0
 10
641.607423
 20
515.526219
 42
-0.091055
  0
VERTEX
  8
0
 10
641.009769
 20
518.701445
 42
-0.093398
  0
VERTEX
  8
0
 10
641.256089
 20
520.041246
 42
-0.009107
  0
VERTEX
  8
0
 10
642.502276
 20
523.105219
 42
-0.011287
  0
VERTEX
  8
0
 10
644.150271
 20
526.726501
 42
-0.008703
  0
VERTEX
  8
0
 10
646.104361
 20
530.601625
 42
0.006584
  0
VERTEX
  8
0
 10
649.235166
 20
536.745376
 42
0.045138
  0
VERTEX
  8
0
 10
650.454679
 20
539.909166
 42
0.063530
  0
VERTEX
  8
0
 10
650.892581
 20
542.790888
 42
0.020093
  0
VERTEX
  8
0
 10
650.821672
 20
547.150180
 42
-0.011000
  0
VERTEX
  8
0
 10
650.731165
 20
549.776578
 42
-0.018350
  0
VERTEX
  8
0
 10
650.784796
 20
551.987865
 42
-0.012803
  0
VERTEX
  8
0
 10
650.935822
 20
553.728467
 42
-0.381733
  0
VERTEX
  8
0
 10
651.239654
 20
554.000000
 42
-0.159234
  0
VERTEX
  8
0
 10
651.734302
 20
553.838372
 42
-0.007858
  0
VERTEX
  8
0
 10
653.120545
 20
552.790330
 42
-0.012053
  0
VERTEX
  8
0
 10
654.742086
 20
551.459710
 42
-0.008360
  0
SEQEND
  0
POLYLINE
  8
0
 66
1
 70
1
  0
VERTEX
  8
0
 10
765.500000
 20
515.500000
 42
-0.155827
  0
VERTEX
  8
0
 10
765.154944
 20
514.419708
 42
-0.158997
  0
VERTEX
  8
0
 10
764.250000
 20
513.750000
 42
-0.057149
  0
VERTEX
  8
0
 10
762.341148
 20
513.347974
 42
-0.006709
  0
VERTEX
  8
0
 10
758.000000
 20
513.000000
 42
0.007272
  0
VERTEX
  8
0
 10
755.053872
 20
512.760508
 42
0.009921
  0
VERTEX
  8
0
 10
752.407573
 20
512.453500
 42
0.007106
  0
VERTEX
  8
0
 10
750.216781
 20
512.123401
 42
0.104281
  0
VERTEX
  8
0
 10
749.493866
 20
511.841700
 42
0.086221
  0
VERTEX
  8
0
 10
748.840330
 20
511.231157
 42
0.001086
  0
VERTEX
  8
0
 10
745.406961
 20
506.669566
 42
0.003150
  0
VERTEX
  8
0
 10
741.471771
 20
501.348024
 42
0.002054
  0
VERTEX
  8
0
 10
736.993866
 20
495.158854
 42
-0.005337
  0
VERTEX
  8
0
 10
732.438347
 20
488.948673
 42
-0.007670
  0
VERTEX
  8
0
 10
728.262272
 20
483.555702
 42
-0.004480
  0
VERTEX
  8
0
 10
724.650887
 20
479.118986
 42
-0.111204
  0
VERTEX
  8
0
 10
723.409614
 20
478.161317
 42
-0.228261
  0
VERTEX
  8
0
 10
718.927472
 20
478.220470
 42
-0.033048
  0
VERTEX
  8
0
 10
710.813448
 20
482.953931
 42
-0.035390
  0
VERTEX
  8
0
 10
703.279702
 20
488.860548
 42
-0.148339
  0
VERTEX
  8
0
 10
700.350731
 20
493.740229
 42
-0.158987
  0
VERTEX
  8
0
 10
700.459439
 20
495.307056
 42
-0.050445
  0
VERTEX
  8
0
 10
701.565981
 20
497.404743
 42
-0.028330
  0
VERTEX
  8
0
 10
703.809038
 20
500.399497
 42
-0.006313
  0
VERTEX
  8
0
 10
707.987724
 20
505.240229
 42
-0.004595
  0
VERTEX
  8
0
 10
711.249202
 20
508.855887
 42
-0.006228
  0
VERTEX
  8
0
 10
714.265260
 20
512.057343
 42
-0.004303
  0
VERTEX
  8
0
 10
716.843367
 20
514.680962
 42
-0.066941
  0
VERTEX
  8
0
 10
717.843679
 20
515.444344
 42
-0.081823
  0
VERTEX
  8
0
 10
721.070425
 20
516.640137
 42
-0.028409
  0
VERTEX
  8
0
 10
726.003231
 20
517.309200
 42
-0.017257
  0
VERTEX
  8
0
 10
733.503727
 20
517.635673
 42
-0.004110
  0
VERTEX
  8
0
 10
746.000000
 20
517.645285
 42
-0.001622
  0
VERTEX
  8
0
 10
758.433652
 20
517.512301
 42
-0.023913
  0
VERTEX
  8
0
 10
762.794339
 20
517.242655
 42
-0.090199
  0
VERTEX
  8
0
 10
764.795993
 20
516.646460
 42
-0.282527
  0
SEQEND
  0
POLYLINE
  8
0
 66
1
 70
1
  0
VERTEX
  8
0
 10
619.375732
 20
495.044932
 42
-0.056711
  0
VERTEX
  8
0
 10
626.482974
 20
485.666195
 42
-0.060170
  0
VERTEX
  8
0
 10
631.133515
 20
475.110389
 42
-0.064598
  0
VERTEX
  8
0
 10
632.910865
 20
464.486944
 42
-0.088446
  0
VERTEX
  8
0
 10
631.563632
 20
454.904734
 42
0.008376
  0
VERTEX
  8
0
 10
630.637077
 20
451.902671
 42
0.061215
  0
VERTEX
  8
0
 10
630.397220
 20
450.419552
 42
0.146247
  0
VERTEX
  8
0
 10
630.631073
 20
449.512706
 42
0.130173
  0
VERTEX
  8
0
 10
631.332464
 20
448.833820
 42
-0.038029
  0
VERTEX
  8
0
 10
634.463804
 20
446.754285
 42
-0.012163
  0
VERTEX
  8
0
 10
638.788781
 20
443.209586
 42
-0.011995
  0
VERTEX
  8
0
 10
642.917361
 20
439.478382
 42
-0.041476
  0
VERTEX
  8
0
 10
645.316054
 20
436.792745
 42
-0.019544
  0
VERTEX
  8
0
 10
646.498437
 20
435.090281
 42
-0.006991
  0
VERTEX
  8
0
 10
648.053898
 20
432.575718
 42
-0.006923
  0
VERTEX
  8
0
 10
649.684765
 20
429.767497
 42
-0.008132
  0
VERTEX
  8
0
 10
651.149549
 20
427.060764
 42
-0.017726
  0
VERTEX
  8
0
 10
653.130171
 20
422.900406
 42
-0.056089
  0
VERTEX
  8
0
 10
654.031286
 20
419.954119
 42
-0.040873
  0
VERTEX
  8
0
 10
654.396271
 20
416.424906
 42
-0.006251
  0
VERTEX
  8
0
 10
654.458858
 20
409.352955
 42
-0.006040
  0
VERTEX
  8
0
 10
654.390091
 20
404.981567
 42
-0.009129
  0
VERTEX
  8
0
 10
654.214818
 20
401.179543
 42
-0.004547
  0
VERTEX
  8
0
 10
653.980022
 20
397.987295
 42
-0.177552
  0
VERTEX
  8
0
 10
653.685857
 20
397.352524
 42
-0.278645
  0
VERTEX
  8
0
 10
653.281625
 20
397.252790
 42
-0.078760
  0
VERTEX
  8
0
 10
652.675281
 20
397.552301
 42
-0.055158
  0
VERTEX
  8
0
 10
651.970391
 20
398.178317
 42
-0.032800
  0
VERTEX
  8
0
 10
651.273314
 20
399.060332
 42
0.034246
  0
VERTEX
  8
0
 10
647.945587
 20
403.245999
 42
0.013728
  0
VERTEX
  8
0
 10
642.862098
 20
408.513507
 42
0.013815
  0
VERTEX
  8
0
 10
637.446013
 20
413.539856
 42
0.030741
  0
VERTEX
  8
0
 10
633.000000
 20
416.983339
 42
0.017156
  0
VERTEX
  8
0
 10
628.131521
 20
420.057603
 42
0.008774
  0
VERTEX
  8
0
 10
621.829267
 20
423.594219
 42
0.005060
  0
VERTEX
  8
0
 10
615.616916
 20
426.857783
 42
0.094025
  0
VERTEX
  8
0
 10
613.500000
 20
427.480496
 42
-0.045650
  0
VERTEX
  8
0
 10
612.793702
 20
427.616204
 42
-0.001318
  0
VERTEX
  8
0
 10
609.856250
 20
428.472654
 42
-0.002652
  0
VERTEX
  8
0
 10
606.404162
 20
429.508960
 42
-0.001822
  0
VERTEX
  8
0
 10
602.500000
 20
430.719160
 42
0.006493
  0
VERTEX
  8
0
 10
598.076583
 20
432.045148
 42
0.004500
  0
VERTEX
  8
0
 10
593.043046
 20
433.434187
 42
0.004538
  0
VERTEX
  8
0
 10
588.183010
 20
434.681271
 42
0.009304
  0
VERTEX
  8
0
 10
584.348668
 20
435.552791
 42
0.000000
  0
VERTEX
  8
0
 10
576.197335
 20
437.246669
 42
0.000000
  0
VERTEX
  8
0
 10
579.193077
 20
442.373334
 42
-0.040492
  0
VERTEX
  8
0
 10
581.072017
 20
445.063007
 42
-0.008770
  0
VERTEX
  8
0
 10
584.762762
 20
449.372167
 42
-0.009092
  0
VERTEX
  8
0
 10
589.225777
 20
454.221165
 42
-0.008585
  0
VERTEX
  8
0
 10
593.946919
 20
459.000000
 42
0.007224
  0
VERTEX
  8
0
 10
599.289741
 20
464.378746
 42
0.014502
  0
VERTEX
  8
0
 10
603.319241
 20
468.804235
 42
0.017801
  0
VERTEX
  8
0
 10
606.203809
 20
472.415450
 42
0.053364
  0
VERTEX
  8
0
 10
607.802997
 20
475.133770
 42
0.039763
  0
VERTEX
  8
0
 10
609.596476
 20
480.113985
 42
0.022485
  0
VERTEX
  8
0
 10
611.004957
 20
486.376747
 42
0.022363
  0
VERTEX
  8
0
 10
611.820167
 20
492.538521
 42
0.055094
  0
VERTEX
  8
0
 10
611.714202
 20
497.094119
 42
-0.062326
  0
VERTEX
  8
0
 10
611.687759
 20
500.084856
 42
-0.457560
  0
VERTEX
  8
0
 10
612.727884
 20
500.791719
 42
-0.127109
  0
VERTEX
  8
0
 10
614.853955
 20
499.590708
 42
-0.010488
  0
SEQEND
  0
POLYLINE
  8
0
 66
1
 70
1
  0
VERTEX
  8
0
 10
859.171259
 20
495.345012
 42
-0.108535
  0
VERTEX
  8
0
 10
860.123987
 20
494.007688
 42
-0.062971
  0
VERTEX
  8
0
 10
860.665811
 20
492.101988
 42
-0.031993
  0
VERTEX
  8
0
 10
860.933626
 20
489.040913
 42
-0.005826
  0
VERTEX
  8
0
 10
861.000000
 20
483.345012
 42
-0.007590
  0
VERTEX
  8
0
 10
860.883962
 20
475.700942
 42
-0.152842
  0
VERTEX
  8
0
 10
860.131198
 20
473.529456
 42
-0.373362
  0
VERTEX
  8
0
 10
858.615493
 20
473.191952
 42
-0.035029
  0
VERTEX
  8
0
 10
855.126241
 20
475.406862
 42
0.014073
  0
VERTEX
  8
0
 10
853.681083
 20
476.411515
 42
0.010496
  0
VERTEX
  8
0
 10
852.034403
 20
477.440124
 42
0.010629
  0
VERTEX
  8
0
 10
850.440199
 20
478.344678
 42
0.023628
  0
VERTEX
  8
0
 10
849.181962
 20
478.948758
 42
-0.071662
  0
VERTEX
  8
0
 10
847.933847
 20
479.702750
 42
-0.024055
  0
VERTEX
  8
0
 10
846.349994
 20
481.133381
 42
-0.023368
  0
VERTEX
  8
0
 10
844.726721
 20
482.906337
 42
-0.024690
  0
VERTEX
  8
0
 10
843.307379
 20
484.791896
 42
-0.010844
  0
VERTEX
  8
0
 10
840.316798
 20
489.414798
 42
-0.085483
  0
VERTEX
  8
0
 10
839.368350
 20
491.775978
 42
-0.188474
  0
VERTEX
  8
0
 10
839.643264
 20
493.466891
 42
-0.095695
  0
VERTEX
  8
0
 10
841.093909
 20
495.105723
 42
-0.125270
  0
VERTEX
  8
0
 10
844.530717
 20
496.583901
 42
-0.035942
  0
VERTEX
  8
0
 10
850.349690
 20
497.080234
 42
-0.035013
  0
VERTEX
  8
0
 10
856.110888
 20
496.752868
 42
-0.153387
  0
SEQEND
  0
POLYLINE
  8
0
 66
1
 70
1
  0
VERTEX
  8
0
 10
681.780026
 20
489.579769
 42
-0.048882
  0
VERTEX
  8
0
 10
685.774216
 20
485.191293
 42
-0.063322
  0
VERTEX
  8
0
 10
688.448713
 20
480.457097
 42
-0.059935
  0
VERTEX
  8
0
 10
689.948157
 20
474.997451
 42
-0.038227
  0
VERTEX
  8
0
 10
690.421676
 20
468.421955
 42
-0.022787
  0
VERTEX
  8
0
 10
690.116284
 20
462.330746
 42
-0.053259
  0
VERTEX
  8
0
 10
689.201627
 20
457.866279
 42
-0.078638
  0
VERTEX
  8
0
 10
687.712688
 20
454.901761
 42
-0.165815
  0
VERTEX
  8
0
 10
685.642454
 20
453.424564
 42
0.095313
  0
VERTEX
  8
0
 10
683.088466
 20
452.091134
 42
0.026967
  0
VERTEX
  8
0
 10
679.715837
 20
449.102299
 42
0.027781
  0
VERTEX
  8
0
 10
676.629928
 20
445.696688
 42
0.072110
  0
VERTEX
  8
0
 10
674.941240
 20
442.858141
 42
-0.037934
  0
VERTEX
  8
0
 10
673.937907
 20
440.875738
 42
-0.199397
  0
VERTEX
  8
0
 10
672.974119
 20
440.168881
 42
-0.177525
  0
VERTEX
  8
0
 10
671.719720
 20
440.310242
 42
-0.029116
  0
VERTEX
  8
0
 10
669.567400
 20
441.547795
 42
-0.107434
  0
VERTEX
  8
0
 10
667.500167
 20
443.651262
 42
-0.030474
  0
VERTEX
  8
0
 10
665.280970
 20
447.696765
 42
-0.031355
  0
VERTEX
  8
0
 10
663.538310
 20
452.083773
 42
-0.079021
  0
VERTEX
  8
0
 10
663.000000
 20
455.468625
 42
-0.092813
  0
VERTEX
  8
0
 10
663.585068
 20
458.593341
 42
-0.028057
  0
VERTEX
  8
0
 10
665.589574
 20
463.007211
 42
-0.025677
  0
VERTEX
  8
0
 10
668.559027
 20
468.032177
 42
-0.019583
  0
VERTEX
  8
0
 10
672.294409
 20
473.217898
 42
0.039875
  0
VERTEX
  8
0
 10
675.338537
 20
477.827056
 42
0.058164
  0
VERTEX
  8
0
 10
677.177212
 20
482.328475
 42
0.067804
  0
VERTEX
  8
0
 10
677.755790
 20
486.550642
 42
0.091279
  0
VERTEX
  8
0
 10
677.061691
 20
490.337740
 42
-0.063138
  0
VERTEX
  8
0
 10
676.580272
 20
492.329015
 42
-0.495817
  0
VERTEX
  8
0
 10
677.170000
 20
492.890994
 42
-0.131083
  0
VERTEX
  8
0
 10
678.716903
 20
492.200260
 42
-0.013519
  0
SEQEND
  0
POLYLINE
  8
0
 66
1
 70
1
  0
VERTEX
  8
0
 10
844.434410
 20
473.045127
 42
-0.042216
  0
VERTEX
  8
0
 10
849.989852
 20
468.487769
 42
-0.022059
  0
VERTEX
  8
0
 10
856.129669
 20
461.966519
 42
-0.021978
  0
VERTEX
  8
0
 10
861.768099
 20
454.808803
 42
-0.036184
  0
VERTEX
  8
0
 10
865.799717
 20
448.246861
 42
-0.055816
  0
VERTEX
  8
0
 10
870.827211
 20
435.171875
 42
-0.092795
  0
VERTEX
  8
0
 10
871.656384
 20
423.431415
 42
-0.096895
  0
VERTEX
  8
0
 10
868.194710
 20
412.540087
 42
-0.065590
  0
VERTEX
  8
0
 10
860.478734
 20
402.000000
 42
0.007003
  0
VERTEX
  8
0
 10
858.016571
 20
399.351253
 42
0.008192
  0
VERTEX
  8
0
 10
855.757425
 20
396.767749
 42
0.007360
  0
VERTEX
  8
0
 10
853.919389
 20
394.528974
 42
0.048646
  0
VERTEX
  8
0
 10
853.132332
 20
393.315741
 42
0.073732
  0
VERTEX
  8
0
 10
852.693140
 20
392.037966
 42
0.015516
  0
VERTEX
  8
0
 10
852.332623
 20
389.697547
 42
0.015944
  0
VERTEX
  8
0
 10
852.083171
 20
386.930993
 42
0.014511
  0
VERTEX
  8
0
 10
852.000000
 20
384.065741
 42
-0.008809
  0
VERTEX
  8
0
 10
851.937692
 20
380.529279
 42
-0.040659
  0
VERTEX
  8
0
 10
851.699900
 20
378.497508
 42
-0.086816
  0
VERTEX
  8
0
 10
851.267188
 20
377.385105
 42
-0.262443
  0
VERTEX
  8
0
 10
850.584029
 20
377.000000
 42
-0.214796
  0
VERTEX
  8
0
 10
848.606701
 20
377.890530
 42
-0.029240
  0
VERTEX
  8
0
 10
845.734193
 20
381.546144
 42
-0.028362
  0
VERTEX
  8
0
 10
842.584961
 20
386.673026
 42
-0.017663
  0
VERTEX
  8
0
 10
839.459659
 20
393.000000
 42
-0.010961
  0
VERTEX
  8
0
 10
837.317375
 20
398.044961
 42
-0.038273
  0
VERTEX
  8
0
 10
836.262442
 20
401.417807
 42
-0.042125
  0
VERTEX
  8
0
 10
835.785542
 20
404.743609
 42
-0.015395
  0
VERTEX
  8
0
 10
835.655016
 20
409.500000
 42
-0.017851
  0
VERTEX
  8
0
 10
835.846467
 20
414.400111
 42
-0.043302
  0
VERTEX
  8
0
 10
836.427412
 20
417.970456
 42
-0.033374
  0
VERTEX
  8
0
 10
837.704879
 20
421.896550
 42
-0.007181
  0
VERTEX
  8
0
 10
840.463045
 20
428.500000
 42
0.039675
  0
VERTEX
  8
0
 10
844.731617
 20
440.933209
 42
0.075030
  0
VERTEX
  8
0
 10
845.804291
 20
451.452194
 42
0.071438
  0
VERTEX
  8
0
 10
843.736496
 20
462.158538
 42
0.033025
  0
VERTEX
  8
0
 10
838.210046
 20
475.250000
 42
-0.461111
  0
VERTEX
  8
0
 10
838.454717
 20
475.830908
 42
-0.163558
  0
VERTEX
  8
0
 10
839.488215
 20
475.814169
 42
-0.047015
  0
VERTEX
  8
0
 10
841.656061
 20
474.808377
 42
-0.018571
  0
SEQEND
  0
POLYLINE
  8
0
 66
1
 70
1
  0
VERTEX
  8
0
 10
726.416813
 20
443.696252
 42
0.049827
  0
VERTEX
  8
0
 10
720.332546
 20
435.399352
 42
0.100721
  0
VERTEX
  8
0
 10
717.699505
 20
427.772026
 42
0.098290
  0
VERTEX
  8
0
 10
718.225951
 20
419.597760
 42
0.045848
  0
VERTEX
  8
0
 10
721.900926
 20
409.589118
 42
-0.011953
  0
VERTEX
  8
0
 10
724.303222
 20
404.204289
 42
-0.039348
  0
VERTEX
  8
0
 10
725.515248
 20
400.510617
 42
-0.036284
  0
VERTEX
  8
0
 10
726.183199
 20
396.520748
 42
-0.009046
  0
VERTEX
  8
0
 10
726.680667
 20
389.921965
 42
-0.005555
  0
VERTEX
  8
0
 10
726.916900
 20
384.794884
 42
-0.020208
  0
VERTEX
  8
0
 10
726.899040
 20
381.535243
 42
-0.025323
  0
VERTEX
  8
0
 10
726.696808
 20
379.446621
 42
-0.371740
  0
VERTEX
  8
0
 10
726.179104
 20
379.000000
 42
-0.155865
  0
VERTEX
  8
0
 10
725.528252
 20
379.207942
 42
-0.013204
  0
VERTEX
  8
0
 10
724.105224
 20
380.278309
 42
-0.016511
  0
VERTEX
  8
0
 10
722.449900
 20
381.684832
 42
-0.012016
  0
VERTEX
  8
0
 10
720.700942
 20
383.351690
 42
0.020145
  0
VERTEX
  8
0
 10
718.504023
 20
385.378368
 42
0.008517
  0
VERTEX
  8
0
 10
715.403572
 20
387.925803
 42
0.008411
  0
VERTEX
  8
0
 10
711.995601
 20
390.537796
 42
0.010878
  0
VERTEX
  8
0
 10
708.778225
 20
392.812256
 42
-0.016725
  0
VERTEX
  8
0
 10
702.955134
 20
397.031740
 42
-0.052318
  0
VERTEX
  8
0
 10
699.470978
 20
400.376858
 42
-0.065659
  0
VERTEX
  8
0
 10
697.194721
 20
403.927480
 42
-0.039031
  0
VERTEX
  8
0
 10
695.417555
 20
408.635605
 42
-0.124537
  0
VERTEX
  8
0
 10
694.992736
 20
420.729686
 42
-0.099864
  0
VERTEX
  8
0
 10
700.223202
 20
432.706389
 42
-0.091715
  0
VERTEX
  8
0
 10
710.200499
 20
442.518566
 42
-0.085924
  0
VERTEX
  8
0
 10
723.250674
 20
448.388883
 42
-0.014309
  0
VERTEX
  8
0
 10
728.353723
 20
449.544316
 42
-0.301492
  0
VERTEX
  8
0
 10
729.725659
 20
448.977806
 42
-0.326718
  0
VERTEX
  8
0
 10
729.671452
 20
447.552847
 42
-0.015681
  0
SEQEND
  0
POLYLINE
  8
0
 66
1
 70
1
  0
VERTEX
  8
0
 10
667.156504
 20
383.947277
 42
-0.015354
  0
VERTEX
  8
0
 10
670.120714
 20
382.846269
 42
-0.006127
  0
VERTEX
  8
0
 10
674.115096
 20
381.164062
 42
-0.006056
  0
VERTEX
  8
0
 10
678.381730
 20
379.243510
 42
-0.007589
  0
VERTEX
  8
0
 10
682.288617
 20
377.355048
 42
-0.072122
  0
VERTEX
  8
0
 10
698.021351
 20
366.372613
 42
-0.072077
  0
VERTEX
  8
0
 10
709.990752
 20
351.371885
 42
-0.076265
  0
VERTEX
  8
0
 10
716.706522
 20
334.426634
 42
-0.099053
  0
VERTEX
  8
0
 10
717.166969
 20
317.768119
 42
-0.041934
  0
VERTEX
  8
0
 10
715.182633
 20
310.113427
 42
-0.056403
  0
VERTEX
  8
0
 10
712.069138
 20
303.670513
 42
-0.058894
  0
VERTEX
  8
0
 10
707.719073
 20
298.296573
 42
-0.051916
  0
VERTEX
  8
0
 10
702.059664
 20
293.822883
 42
0.000000
  0
VERTEX
  8
0
 10
697.580015
 20
290.981974
 42
0.000000
  0
VERTEX
  8
0
 10
696.325443
 20
293.240987
 42
-0.034007
  0
VERTEX
  8
0
 10
695.842258
 20
294.270102
 42
-0.023085
  0
VERTEX
  8
0
 10
695.428992
 20
295.497352
 42
-0.023314
  0
VERTEX
  8
0
 10
695.138853
 20
296.725256
 42
-0.042442
  0
VERTEX
  8
0
 10
695.035435
 20
297.750000
 42
0.090437
  0
VERTEX
  8
0
 10
694.702679
 20
299.424783
 42
0.462159
  0
VERTEX
  8
0
 10
693.917841
 20
299.692244
 42
0.102518
  0
VERTEX
  8
0
 10
692.543293
 20
298.432824
 42
0.010282
  0
VERTEX
  8
0
 10
690.000988
 20
294.750000
 42
0.021809
  0
VERTEX
  8
0
 10
687.947752
 20
291.324855
 42
0.066594
  0
VERTEX
  8
0
 10
686.986446
 20
288.797181
 42
0.046351
  0
VERTEX
  8
0
 10
686.549967
 20
285.649588
 42
0.006686
  0
VERTEX
  8
0
 10
686.343635
 20
279.159955
 42
-0.005242
  0
VERTEX
  8
0
 10
686.227858
 20
275.154353
 42
-0.008008
  0
VERTEX
  8
0
 10
686.035388
 20
271.683515
 42
-0.003591
  0
VERTEX
  8
0
 10
685.804337
 20
268.749786
 42
-0.176711
  0
VERTEX
  8
0
 10
685.561641
 20
268.228308
 42
-0.411672
  0
VERTEX
  8
0
 10
684.129883
 20
268.222090
 42
-0.022999
  0
VERTEX
  8
0
 10
680.792350
 20
271.818406
 42
-0.029033
  0
VERTEX
  8
0
 10
677.368607
 20
276.378140
 42
-0.035949
  0
VERTEX
  8
0
 10
674.758166
 20
281.000000
 42
-0.018491
  0
VERTEX
  8
0
 10
672.119743
 20
287.149501
 42
-0.038092
  0
VERTEX
  8
0
 10
670.612652
 20
292.160155
 42
-0.036875
  0
VERTEX
  8
0
 10
669.855578
 20
297.444223
 42
-0.016275
  0
VERTEX
  8
0
 10
669.601153
 20
304.500000
 42
-0.014011
  0
VERTEX
  8
0
 10
669.750490
 20
310.588220
 42
-0.055617
  0
VERTEX
  8
0
 10
670.358998
 20
314.273004
 42
-0.036371
  0
VERTEX
  8
0
 10
671.856088
 20
318.406461
 42
-0.003617
  0
VERTEX
  8
0
 10
676.226129
 20
328.000000
 42
-0.001407
  0
VERTEX
  8
0
 10
677.100521
 20
329.869529
 42
-0.001338
  0
VERTEX
  8
0
 10
678.000056
 20
331.765625
 42
-0.001326
  0
VERTEX
  8
0
 10
678.804149
 20
333.437480
 42
-0.004744
  0
VERTEX
  8
0
 10
679.331156
 20
334.500000
 42
0.068739
  0
VERTEX
  8
0
 10
679.752577
 20
335.719718
 42
0.011340
  0
VERTEX
  8
0
 10
680.181606
 20
338.178852
 42
0.012276
  0
VERTEX
  8
0
 10
680.551994
 20
341.114766
 42
0.010574
  0
VERTEX
  8
0
 10
680.799928
 20
344.215241
 42
0.051012
  0
VERTEX
  8
0
 10
680.404251
 20
353.350627
 42
0.071923
  0
VERTEX
  8
0
 10
678.086143
 20
361.152337
 42
0.060000
  0
VERTEX
  8
0
 10
673.279723
 20
368.951919
 42
0.024958
  0
VERTEX
  8
0
 10
665.091105
 20
378.250000
 42
-0.005556
  0
VERTEX
  8
0
 10
659.549149
 20
384.071184
 42
-0.281476
  0
VERTEX
  8
0
 10
659.247799
 20
385.550458
 42
-0.398602
  0
VERTEX
  8
0
 10
660.376467
 20
386.115863
 42
-0.007685
  0
SEQEND
  0
POLYLINE
  8
0
 66
1
 70
1
  0
VERTEX
  8
0
 10
508.072580
 20
789.365141
 42
0.069023
  0
VERTEX
  8
0
 10
506.965725
 20
787.470352
 42
0.060656
  0
VERTEX
  8
0
 10
506.354928
 20
785.260783
 42
0.031729
  0
VERTEX
  8
0
 10
506.069289
 20
781.912252
 42
0.005415
  0
VERTEX
  8
0
 10
506.000000
 20
775.514365
 42
-0.023289
  0
VERTEX
  8
0
 10
505.519380
 20
765.201549
 42
-0.071996
  0
VERTEX
  8
0
 10
503.886818
 20
758.439130
 42
-0.099592
  0
VERTEX
  8
0
 10
500.774109
 20
753.679379
 42
-0.074791
  0
VERTEX
  8
0
 10
495.756044
 20
749.913456
 42
-0.039996
  0
VERTEX
  8
0
 10
493.037801
 20
748.717289
 42
-0.040413
  0
VERTEX
  8
0
 10
490.173136
 20
747.974154
 42
-0.026821
  0
VERTEX
  8
0
 10
486.352298
 20
747.515735
 42
-0.007178
  0
VERTEX
  8
0
 10
480.237370
 20
747.201012
 42
0.004411
  0
VERTEX
  8
0
 10
473.302280
 20
746.882537
 42
0.041008
  0
VERTEX
  8
0
 10
470.334048
 20
746.474287
 42
0.094778
  0
VERTEX
  8
0
 10
468.530012
 20
745.695249
 42
0.077064
  0
VERTEX
  8
0
 10
466.987370
 20
744.256814
 42
0.077347
  0
VERTEX
  8
0
 10
465.538587
 20
741.679630
 42
0.096308
  0
VERTEX
  8
0
 10
465.086157
 20
738.974547
 42
0.102290
  0
VERTEX
  8
0
 10
465.684256
 20
736.422164
 42
0.098371
  0
VERTEX
  8
0
 10
467.250000
 20
734.275416
 42
0.079576
  0
VERTEX
  8
0
 10
468.906160
 20
733.176785
 42
0.059341
  0
VERTEX
  8
0
 10
470.998371
 20
732.510399
 42
0.032211
  0
VERTEX
  8
0
 10
474.197944
 20
732.107034
 42
0.006296
  0
VERTEX
  8
0
 10
480.000000
 20
731.825905
 42
-0.025405
  0
VERTEX
  8
0
 10
488.017834
 20
731.129640
 42
-0.062782
  0
VERTEX
  8
0
 10
493.706874
 20
729.599029
 42
-0.075266
  0
VERTEX
  8
0
 10
498.207977
 20
726.910277
 42
-0.051175
  0
VERTEX
  8
0
 10
502.410608
 20
722.660453
 42
-0.035148
  0
VERTEX
  8
0
 10
504.214465
 20
720.064559
 42
-0.077340
  0
VERTEX
  8
0
 10
505.114331
 20
717.828786
 42
-0.043914
  0
VERTEX
  8
0
 10
505.552732
 20
714.729076
 42
-0.005429
  0
VERTEX
  8
0
 10
505.838618
 20
707.905087
 42
0.004848
  0
VERTEX
  8
0
 10
506.098593
 20
701.521983
 42
0.036579
  0
VERTEX
  8
0
 10
506.470374
 20
698.527589
 42
0.083485
  0
VERTEX
  8
0
 10
507.140629
 20
696.764241
 42
0.107906
  0
VERTEX
  8
0
 10
508.311125
 20
695.494633
 42
0.090162
  0
VERTEX
  8
0
 10
510.880128
 20
694.312782
 42
0.081086
  0
VERTEX
  8
0
 10
513.800634
 20
694.050645
 42
0.083416
  0
VERTEX
  8
0
 10
516.578871
 20
694.726840
 42
0.104692
  0
VERTEX
  8
0
 10
518.740547
 20
696.250000
 42
0.079306
  0
VERTEX
  8
0
 10
519.852645
 20
697.910696
 42
0.061340
  0
VERTEX
  8
0
 10
520.516417
 20
699.988129
 42
0.032684
  0
VERTEX
  8
0
 10
520.905954
 20
703.181281
 42
0.006096
  0
VERTEX
  8
0
 10
521.164861
 20
709.081280
 42
-0.006090
  0
VERTEX
  8
0
 10
521.444368
 20
715.452448
 42
-0.040255
  0
VERTEX
  8
0
 10
521.877756
 20
718.607973
 42
-0.069271
  0
VERTEX
  8
0
 10
522.720338
 20
720.878974
 42
-0.039635
  0
VERTEX
  8
0
 10
524.307932
 20
723.340511
 42
-0.061586
  0
VERTEX
  8
0
 10
527.986418
 20
727.095772
 42
-0.075725
  0
VERTEX
  8
0
 10
532.235736
 20
729.537506
 42
-0.058532
  0
VERTEX
  8
0
 10
537.855002
 20
730.993036
 42
-0.022173
  0
VERTEX
  8
0
 10
545.940358
 20
731.740511
 42
0.018520
  0
VERTEX
  8
0
 10
553.752171
 20
732.405196
 42
0.088695
  0
VERTEX
  8
0
 10
558.008577
 20
733.716475
 42
0.163847
  0
VERTEX
  8
0
 10
560.202393
 20
735.977941
 42
0.111814
  0
VERTEX
  8
0
 10
561.000000
 20
739.500000
 42
0.110481
  0
VERTEX
  8
0
 10
560.191812
 20
743.112947
 42
0.169391
  0
VERTEX
  8
0
 10
557.967236
 20
745.380937
 42
0.089748
  0
VERTEX
  8
0
 10
553.621399
 20
746.632713
 42
0.017740
  0
VERTEX
  8
0
 10
545.500000
 20
747.169140
 42
-0.006254
  0
VERTEX
  8
0
 10
538.962921
 20
747.450326
 42
-0.036587
  0
VERTEX
  8
0
 10
535.552736
 20
747.891442
 42
-0.059297
  0
VERTEX
  8
0
 10
533.011606
 20
748.734206
 42
-0.034302
  0
VERTEX
  8
0
 10
530.193907
 20
750.300210
 42
-0.074944
  0
VERTEX
  8
0
 10
526.058118
 20
753.967650
 42
-0.086828
  0
VERTEX
  8
0
 10
523.434508
 20
758.523240
 42
-0.058862
  0
VERTEX
  8
0
 10
521.893951
 20
765.052520
 42
-0.017265
  0
VERTEX
  8
0
 10
521.073366
 20
775.340656
 42
0.003799
  0
VERTEX
  8
0
 10
520.662674
 20
783.132057
 42
0.034085
  0
VERTEX
  8
0
 10
520.224677
 20
786.524391
 42
0.081835
  0
VERTEX
  8
0
 10
519.471169
 20
788.527145
 42
0.092003
  0
VERTEX
  8
0
 10
518.136372
 20
790.090656
 42
0.083284
  0
VERTEX
  8
0
 10
515.515782
 20
791.571939
 42
0.105453
  0
VERTEX
  8
0
 10
512.766767
 20
791.954183
 42
0.110357
  0
VERTEX
  8
0
 10
510.194739
 20
791.181637
 42
0.098483
  0
SEQEND
  0
POLYLINE
  8
0
 66
1
 70
1
  0
VERTEX
  8
0
 10
439.000000
 20
696.964817
 42
0.124169
  0
VERTEX
  8
0
 10
439.347915
 20
695.585442
 42
0.018420
  0
VERTEX
  8
0
 10
440.812699
 20
693.091076
 42
0.019534
  0
VERTEX
  8
0
 10
442.828340
 20
690.187889
 42
0.014786
  0
VERTEX
  8
0
 10
445.254158
 20
687.160421
 42
-0.073635
  0
VERTEX
  8
0
 10
447.250892
 20
683.961960
 42
-0.378324
  0
VERTEX
  8
0
 10
446.660139
 20
682.132156
 42
-0.123802
  0
VERTEX
  8
0
 10
443.463983
 20
681.182569
 42
-0.010612
  0
VERTEX
  8
0
 10
434.862996
 20
681.000000
 42
0.000000
  0
VERTEX
  8
0
 10
423.970882
 20
681.000000
 42
0.000000
  0
VERTEX
  8
0
 10
426.235441
 20
677.633918
 42
-0.001188
  0
VERTEX
  8
0
 10
427.368956
 20
675.940364
 42
-0.000429
  0
VERTEX
  8
0
 10
428.972159
 20
673.528221
 42
-0.000426
  0
VERTEX
  8
0
 10
430.723517
 20
670.883371
 42
-0.000506
  0
VERTEX
  8
0
 10
432.371908
 20
668.383918
 42
0.012068
  0
VERTEX
  8
0
 10
434.399028
 20
665.459628
 42
0.004228
  0
VERTEX
  8
0
 10
437.447997
 20
661.353750
 42
0.004195
  0
VERTEX
  8
0
 10
440.879318
 20
656.892006
 42
0.004894
  0
VERTEX
  8
0
 10
444.215064
 20
652.713954
 42
-0.008050
  0
VERTEX
  8
0
 10
447.585033
 20
648.437977
 42
-0.018309
  0
VERTEX
  8
0
 10
449.956860
 20
645.078439
 42
-0.017176
  0
VERTEX
  8
0
 10
451.520618
 20
642.491897
 42
-0.222526
  0
VERTEX
  8
0
 10
451.599016
 20
641.397436
 42
-0.209844
  0
VERTEX
  8
0
 10
450.835068
 20
640.625339
 42
-0.068727
  0
VERTEX
  8
0
 10
449.245145
 20
640.236633
 42
-0.031446
  0
VERTEX
  8
0
 10
446.432769
 20
640.125010
 42
-0.005197
  0
VERTEX
  8
0
 10
441.005859
 20
640.307398
 42
0.007540
  0
VERTEX
  8
0
 10
436.866744
 20
640.427096
 42
0.016720
  0
VERTEX
  8
0
 10
433.711121
 20
640.365223
 42
0.012701
  0
VERTEX
  8
0
 10
431.364627
 20
640.180783
 42
0.384116
  0
VERTEX
  8
0
 10
431.000000
 20
639.776180
 42
0.154490
  0
VERTEX
  8
0
 10
431.568513
 20
637.980126
 42
0.003581
  0
VERTEX
  8
0
 10
436.804591
 20
630.649988
 42
0.008781
  0
VERTEX
  8
0
 10
442.191916
 20
623.489231
 42
0.018539
  0
VERTEX
  8
0
 10
446.667179
 20
618.172053
 42
0.000000
  0
VERTEX
  8
0
 10
451.500000
 20
612.844107
 42
0.000000
  0
VERTEX
  8
0
 10
457.000000
 20
615.374925
 42
-0.013282
  0
VERTEX
  8
0
 10
459.539369
 20
616.462647
 42
-0.007672
  0
VERTEX
  8
0
 10
462.646875
 20
617.642238
 42
-0.007663
  0
VERTEX
  8
0
 10
465.803912
 20
618.731090
 42
-0.012737
  0
VERTEX
  8
0
 10
468.500000
 20
619.539522
 42
0.000427
  0
VERTEX
  8
0
 10
471.017152
 20
620.227246
 42
0.000387
  0
VERTEX
  8
0
 10
473.618750
 20
620.942595
 42
0.000387
  0
VERTEX
  8
0
 10
475.947675
 20
621.586847
 42
0.001237
  0
VERTEX
  8
0
 10
477.500000
 20
622.021700
 42
-0.003528
  0
VERTEX
  8
0
 10
487.013270
 20
624.639704
 42
-0.003178
  0
VERTEX
  8
0
 10
496.898840
 20
627.218054
 42
-0.002687
  0
VERTEX
  8
0
 10
505.657570
 20
629.393103
 42
-0.018475
  0
VERTEX
  8
0
 10
510.004205
 20
630.279124
 42
0.013647
  0
VERTEX
  8
0
 10
511.069647
 20
630.485612
 42
0.010855
  0
VERTEX
  8
0
 10
512.207485
 20
630.764583
 42
0.011009
  0
VERTEX
  8
0
 10
513.251146
 20
631.069397
 42
0.026917
  0
VERTEX
  8
0
 10
514.000000
 20
631.351263
 42
-0.032843
  0
VERTEX
  8
0
 10
515.009242
 20
631.717553
 42
-0.002402
  0
VERTEX
  8
0
 10
517.850000
 20
632.527312
 42
-0.003343
  0
VERTEX
  8
0
 10
521.252010
 20
633.454926
 42
-0.002526
  0
VERTEX
  8
0
 10
525.000000
 20
634.429762
 42
0.005927
  0
VERTEX
  8
0
 10
539.136986
 20
638.209581
 42
0.022833
  0
VERTEX
  8
0
 10
547.769522
 20
641.058549
 42
0.036908
  0
VERTEX
  8
0
 10
553.613099
 20
643.796837
 42
0.059913
  0
VERTEX
  8
0
 10
558.032966
 20
647.030794
 42
0.033781
  0
VERTEX
  8
0
 10
559.492359
 20
648.591389
 42
0.066443
  0
VERTEX
  8
0
 10
560.381247
 20
650.035770
 42
0.067971
  0
VERTEX
  8
0
 10
560.848334
 20
651.640464
 42
0.036896
  0
VERTEX
  8
0
 10
561.000000
 20
653.693002
 42
0.044131
  0
VERTEX
  8
0
 10
560.804602
 20
655.902542
 42
0.077479
  0
VERTEX
  8
0
 10
560.209569
 20
657.633759
 42
0.060021
  0
VERTEX
  8
0
 10
559.000833
 20
659.379477
 42
0.017639
  0
VERTEX
  8
0
 10
556.750000
 20
661.743949
 42
0.024184
  0
VERTEX
  8
0
 10
554.794566
 20
663.481200
 42
0.016685
  0
VERTEX
  8
0
 10
552.426563
 20
665.261481
 42
0.016859
  0
VERTEX
  8
0
 10
550.028814
 20
666.824114
 42
0.032723
  0
VERTEX
  8
0
 10
548.000000
 20
667.876312
 42
0.024031
  0
VERTEX
  8
0
 10
542.070933
 20
670.141693
 42
0.003072
  0
VERTEX
  8
0
 10
529.082781
 20
674.313156
 42
0.003867
  0
VERTEX
  8
0
 10
515.704533
 20
678.406002
 42
0.010070
  0
VERTEX
  8
0
 10
506.000000
 20
681.081556
 42
-0.005504
  0
VERTEX
  8
0
 10
502.871891
 20
681.913319
 42
-0.005066
  0
VERTEX
  8
0
 10
499.675000
 20
682.836150
 42
-0.005065
  0
VERTEX
  8
0
 10
496.841903
 20
683.716531
 42
-0.016676
  0
VERTEX
  8
0
 10
495.000000
 20
684.377977
 42
0.016021
  0
VERTEX
  8
0
 10
493.274342
 20
685.000232
 42
0.006696
  0
VERTEX
  8
0
 10
490.912500
 20
685.732507
 42
0.006617
  0
VERTEX
  8
0
 10
488.362020
 20
686.449423
 42
0.008528
  0
VERTEX
  8
0
 10
486.000000
 20
687.036796
 42
-0.005650
  0
VERTEX
  8
0
 10
483.784309
 20
687.574256
 42
-0.006428
  0
VERTEX
  8
0
 10
481.675000
 20
688.140189
 42
-0.005880
  0
VERTEX
  8
0
 10
479.897399
 20
688.664352
 42
-0.035421
  0
VERTEX
  8
0
 10
479.000000
 20
689.011717
 42
0.035029
  0
VERTEX
  8
0
 10
475.475372
 20
690.379200
 42
0.010526
  0
VERTEX
  8
0
 10
469.940973
 20
691.964774
 42
0.009292
  0
VERTEX
  8
0
 10
462.968790
 20
693.666448
 42
0.005678
  0
VERTEX
  8
0
 10
454.683862
 20
695.427518
 42
0.002073
  0
VERTEX
  8
0
 10
445.258782
 20
697.278718
 42
0.023027
  0
VERTEX
  8
0
 10
441.463759
 20
697.828047
 42
0.075726
  0
VERTEX
  8
0
 10
439.622295
 20
697.729513
 42
0.355475
  0
SEQEND
  0
POLYLINE
  8
0
 66
1
 70
1
  0
VERTEX
  8
0
 10
147.000000
 20
147.154988
 42
0.142218
  0
VERTEX
  8
0
 10
147.128193
 20
146.713411
 42
0.024894
  0
VERTEX
  8
0
 10
147.632973
 20
145.998607
 42
0.025257
  0
VERTEX
  8
0
 10
148.329796
 20
145.196286
 42
0.020305
  0
VERTEX
  8
0
 10
149.154802
 20
144.404988
 42
0.000000
  0
VERTEX
  8
0
 10
151.309603
 20
142.500000
 42
0.000000
  0
VERTEX
  8
0
 10
149.539792
 20
145.250000
 42
0.010783
  0
VERTEX
  8
0
 10
148.316201
 20
147.064072
 42
0.078231
  0
VERTEX
  8
0
 10
147.585567
 20
147.815880
 42
0.422229
  0
VERTEX
  8
0
 10
147.190632
 20
147.753966
 42
0.155293
  0
SEQEND
  0
POLYLINE
  8
0
 66
1
 70
1
  0
VERTEX
  8
0
 10
152.210573
 20
140.600859
 42
0.023968
  0
VERTEX
  8
0
 10
152.730077
 20
140.088723
 42
0.038420
  0
VERTEX
  8
0
 10
153.224083
 20
139.710420
 42
0.045304
  0
VERTEX
  8
0
 10
153.632938
 20
139.494344
 42
0.297152
  0
VERTEX
  8
0
 10
153.850136
 20
139.534328
 42
0.301864
  0
VERTEX
  8
0
 10
153.981063
 20
140.107085
 42
0.076948
  0
VERTEX
  8
0
 10
153.487692
 20
140.978461
 42
0.069007
  0
VERTEX
  8
0
 10
152.687482
 20
141.745464
 42
0.157897
  0
VERTEX
  8
0
 10
151.901556
 20
142.000000
 42
0.236389
  0
VERTEX
  8
0
 10
151.649322
 20
141.873691
 42
0.218285
  0
VERTEX
  8
0
 10
151.587911
 20
141.589002
 42
0.095760
  0
VERTEX
  8
0
 10
151.782662
 20
141.138842
 42
0.036357
  0
SEQEND
  0
POLYLINE
  8
0
 66
1
 70
1
  0
VERTEX
  8
0
 10
751.797482
 20
130.255245
 42
0.006295
  0
VERTEX
  8
0
 10
755.533582
 20
130.150299
 42
0.003909
  0
VERTEX
  8
0
 10
759.920193
 20
130.116635
 42
0.003921
  0
VERTEX
  8
0
 10
764.250287
 20
130.151213
 42
0.007070
  0
VERTEX
  8
0
 10
767.797482
 20
130.257546
 42
0.058571
  0
VERTEX
  8
0
 10
768.551330
 20
130.380065
 42
0.852078
  0
VERTEX
  8
0
 10
768.537385
 20
130.496971
 42
0.008418
  0
VERTEX
  8
0
 10
765.242314
 20
130.575527
 42
0.001786
  0
VERTEX
  8
0
 10
759.500000
 20
130.595210
 42
0.001734
  0
VERTEX
  8
0
 10
753.766482
 20
130.574501
 42
0.009257
  0
VERTEX
  8
0
 10
750.637385
 20
130.494396
 42
0.898123
  0
VERTEX
  8
0
 10
750.630083
 20
130.378893
 42
0.032437
  0
SEQEND
  0
POLYLINE
  8
0
 66
1
 70
1
  0
VERTEX
  8
0
 10
195.750000
 20
129.337719
 42
0.057986
  0
VERTEX
  8
0
 10
196.320008
 20
129.181385
 42
0.037979
  0
VERTEX
  8
0
 10
197.000000
 20
129.129660
 42
0.037979
  0
VERTEX
  8
0
 10
197.679992
 20
129.181385
 42
0.057986
  0
VERTEX
  8
0
 10
198.250000
 20
129.337719
 42
0.174857
  0
VERTEX
  8
0
 10
198.459382
 20
129.525001
 42
0.447206
  0
VERTEX
  8
0
 10
198.398438
 20
129.693942
 42
0.078554
  0
VERTEX
  8
0
 10
197.891440
 20
129.810911
 42
0.017491
  0
VERTEX
  8
0
 10
197.000000
 20
129.842105
 42
0.017491
  0
VERTEX
  8
0
 10
196.108560
 20
129.810911
 42
0.078554
  0
VERTEX
  8
0
 10
195.601562
 20
129.693942
 42
0.447206
  0
VERTEX
  8
0
 10
195.540618
 20
129.525001
 42
0.174857
  0
SEQEND
  0
ENDSEC
  0
EOF
