  0
SECTION
  2
HEADER
  9
$ACADVER
  1
AC1006
  9
$EXTMIN
 10
0.000000
 20
0.000000
 30
0.000000
  9
$EXTMAX
 10
1024.000000
 20
1024.000000
 30
0.000000
  0
ENDSEC
  0
SECTION
  2
ENTITIES
  0
POLYLINE
  8
0
 66
1
 70
1
  0
VERTEX
  8
0
 10
433.503861
 20
817.628026
 42
0.092684
  0
VERTEX
  8
0
 10
432.521023
 20
816.581618
 42
0.064809
  0
VERTEX
  8
0
 10
431.830293
 20
815.113676
 42
0.043281
  0
VERTEX
  8
0
 10
431.347748
 20
812.994254
 42
0.014492
  0
VERTEX
  8
0
 10
431.003861
 20
809.833434
 42
0.000000
  0
VERTEX
  8
0
 10
430.500000
 20
803.500000
 42
0.000000
  0
VERTEX
  8
0
 10
425.141619
 20
802.962023
 42
0.107654
  0
VERTEX
  8
0
 10
419.029304
 20
800.973402
 42
0.281587
  0
VERTEX
  8
0
 10
416.932349
 20
797.068488
 42
0.256888
  0
VERTEX
  8
0
 10
419.415228
 20
793.099863
 42
0.098909
  0
VERTEX
  8
0
 10
425.811768
 20
791.039113
 42
0.000000
  0
VERTEX
  8
0
 10
430.500000
 20
790.500000
 42
0.000000
  0
VERTEX
  8
0
 10
431.000000
 20
784.903585
 42
0.030932
  0
VERTEX
  8
0
 10
431.621327
 20
780.818805
 42
0.083935
  0
VERTEX
  8
0
 10
432.704817
 20
778.108242
 42
0.127343
  0
VERTEX
  8
0
 10
434.299195
 20
776.563082
 42
0.129822
  0
VERTEX
  8
0
 10
436.431315
 20
776.000000
 42
0.094794
  0
VERTEX
  8
0
 10
439.136674
 20
776.517553
 42
0.137097
  0
VERTEX
  8
0
 10
441.062773
 20
777.983427
 42
0.102302
  0
VERTEX
  8
0
 10
442.308527
 20
780.603249
 42
0.037843
  0
VERTEX
  8
0
 10
442.980372
 20
784.655037
 42
0.000000
  0
VERTEX
  8
0
 10
443.500000
 20
790.500000
 42
0.000000
  0
VERTEX
  8
0
 10
448.725567
 20
791.025457
 42
0.021515
  0
VERTEX
  8
0
 10
451.165055
 20
791.377304
 42
0.042521
  0
VERTEX
  8
0
 10
453.048793
 20
791.901193
 42
0.054696
  0
VERTEX
  8
0
 10
454.459046
 20
792.609641
 42
0.087395
  0
VERTEX
  8
0
 10
455.443764
 20
793.525457
 42
0.129502
  0
VERTEX
  8
0
 10
456.810666
 20
796.853458
 42
0.177587
  0
VERTEX
  8
0
 10
456.112399
 20
799.985460
 42
0.155437
  0
VERTEX
  8
0
 10
453.423183
 20
802.211861
 42
0.096073
  0
VERTEX
  8
0
 10
449.359281
 20
803.000000
 42
-0.032187
  0
VERTEX
  8
0
 10
445.730880
 20
803.233820
 42
-0.177715
  0
VERTEX
  8
0
 10
444.023236
 20
804.123844
 42
-0.160835
  0
VERTEX
  8
0
 10
443.202638
 20
805.963194
 42
-0.025179
  0
VERTEX
  8
0
 10
443.000000
 20
809.984544
 42
0.018006
  0
VERTEX
  8
0
 10
442.913742
 20
812.379059
 42
0.027568
  0
VERTEX
  8
0
 10
442.650458
 20
814.438752
 42
0.029943
  0
VERTEX
  8
0
 10
442.257091
 20
816.031507
 42
0.145023
  0
VERTEX
  8
0
 10
441.744406
 20
816.797161
 42
0.078691
  0
VERTEX
  8
0
 10
439.801839
 20
817.950176
 42
0.069642
  0
VERTEX
  8
0
 10
437.514369
 20
818.508858
 42
0.073409
  0
VERTEX
  8
0
 10
435.282814
 20
818.405980
 42
0.110256
  0
SEQEND
  0
POLYLINE
  8
0
 66
1
 70
1
  0
VERTEX
  8
0
 10
585.459974
 20
816.955772
 42
0.070111
  0
VERTEX
  8
0
 10
584.591323
 20
815.673923
 42
0.037705
  0
VERTEX
  8
0
 10
583.881294
 20
813.897295
 42
0.032266
  0
VERTEX
  8
0
 10
583.344024
 20
811.704857
 42
0.021723
  0
VERTEX
  8
0
 10
583.003726
 20
809.149129
 42
0.000000
  0
VERTEX
  8
0
 10
582.500000
 20
803.500000
 42
0.000000
  0
VERTEX
  8
0
 10
577.507242
 20
803.185294
 42
0.043655
  0
VERTEX
  8
0
 10
573.805218
 20
802.625014
 42
0.091291
  0
VERTEX
  8
0
 10
571.153347
 20
801.442236
 42
0.122007
  0
VERTEX
  8
0
 10
569.571219
 20
799.661368
 42
0.121482
  0
VERTEX
  8
0
 10
569.000000
 20
797.345012
 42
0.116702
  0
VERTEX
  8
0
 10
569.638310
 20
794.647468
 42
0.124079
  0
VERTEX
  8
0
 10
571.410142
 20
792.592733
 42
0.104476
  0
VERTEX
  8
0
 10
574.221881
 20
791.390328
 42
0.064638
  0
VERTEX
  8
0
 10
577.821153
 20
791.149505
 42
0.000000
  0
VERTEX
  8
0
 10
582.500000
 20
791.441316
 42
0.000000
  0
VERTEX
  8
0
 10
583.003861
 20
785.137224
 42
0.014769
  0
VERTEX
  8
0
 10
583.344307
 20
782.034615
 42
0.041876
  0
VERTEX
  8
0
 10
583.824401
 20
779.912924
 42
0.061836
  0
VERTEX
  8
0
 10
584.500393
 20
778.437983
 42
0.096841
  0
VERTEX
  8
0
 10
585.444990
 20
777.416566
 42
0.119445
  0
VERTEX
  8
0
 10
588.853833
 20
776.000948
 42
0.204052
  0
VERTEX
  8
0
 10
591.794252
 20
776.741538
 42
0.149416
  0
VERTEX
  8
0
 10
593.934087
 20
779.708359
 42
0.059958
  0
VERTEX
  8
0
 10
594.980372
 20
784.655037
 42
0.000000
  0
VERTEX
  8
0
 10
595.500000
 20
790.500000
 42
0.000000
  0
VERTEX
  8
0
 10
599.714016
 20
791.062447
 42
0.054602
  0
VERTEX
  8
0
 10
603.058069
 20
791.887113
 42
0.079413
  0
VERTEX
  8
0
 10
605.705460
 20
793.365768
 42
0.096513
  0
VERTEX
  8
0
 10
607.400453
 20
795.335762
 42
0.130248
  0
VERTEX
  8
0
 10
608.000000
 20
797.598284
 42
0.141481
  0
VERTEX
  8
0
 10
607.430408
 20
799.570950
 42
0.090490
  0
VERTEX
  8
0
 10
605.806059
 20
801.340357
 42
0.081173
  0
VERTEX
  8
0
 10
603.468667
 20
802.574020
 42
0.081088
  0
VERTEX
  8
0
 10
600.859281
 20
803.000000
 42
-0.038775
  0
VERTEX
  8
0
 10
597.592346
 20
803.253731
 42
-0.181392
  0
VERTEX
  8
0
 10
595.977544
 20
804.165280
 42
-0.151045
  0
VERTEX
  8
0
 10
595.194846
 20
806.025936
 42
-0.024596
  0
VERTEX
  8
0
 10
595.000000
 20
809.984544
 42
0.025224
  0
VERTEX
  8
0
 10
594.801659
 20
813.913705
 42
0.109328
  0
VERTEX
  8
0
 10
594.074685
 20
816.117279
 42
0.143075
  0
VERTEX
  8
0
 10
592.600031
 20
817.491393
 42
0.055054
  0
VERTEX
  8
0
 10
589.950654
 20
818.476249
 42
0.054835
  0
VERTEX
  8
0
 10
588.647563
 20
818.655027
 42
0.088544
  0
VERTEX
  8
0
 10
587.543464
 20
818.488337
 42
0.083467
  0
VERTEX
  8
0
 10
586.520788
 20
817.938882
 42
0.043945
  0
SEQEND
  0
POLYLINE
  8
0
 66
1
 70
1
  0
VERTEX
  8
0
 10
273.837375
 20
815.250000
 42
0.043131
  0
VERTEX
  8
0
 10
271.488973
 20
811.913607
 42
0.001624
  0
VERTEX
  8
0
 10
263.841111
 20
798.675264
 42
0.003028
  0
VERTEX
  8
0
 10
255.186608
 20
783.367370
 42
0.002483
  0
VERTEX
  8
0
 10
246.120645
 20
766.910910
 42
0.000000
  0
VERTEX
  8
0
 10
243.622116
 20
762.321820
 42
0.000000
  0
VERTEX
  8
0
 10
246.384362
 20
757.039125
 42
0.011307
  0
VERTEX
  8
0
 10
248.247717
 20
753.663670
 42
0.000936
  0
VERTEX
  8
0
 10
253.307415
 20
745.006038
 42
0.001251
  0
VERTEX
  8
0
 10
259.389015
 20
734.703499
 42
0.000964
  0
VERTEX
  8
0
 10
266.073304
 20
723.493678
 42
-0.003154
  0
VERTEX
  8
0
 10
273.088966
 20
711.610130
 42
-0.006390
  0
VERTEX
  8
0
 10
278.430550
 20
702.154545
 42
-0.003593
  0
VERTEX
  8
0
 10
282.511592
 20
694.581160
 42
-0.122372
  0
VERTEX
  8
0
 10
283.000000
 20
692.615463
 42
-0.106469
  0
VERTEX
  8
0
 10
282.571904
 20
690.627835
 42
-0.052009
  0
VERTEX
  8
0
 10
281.258800
 20
688.377464
 42
-0.052226
  0
VERTEX
  8
0
 10
279.605880
 20
686.554381
 42
-0.184542
  0
VERTEX
  8
0
 10
278.154988
 20
686.000000
 42
-0.229612
  0
VERTEX
  8
0
 10
276.792718
 20
686.660405
 42
-0.018794
  0
VERTEX
  8
0
 10
274.394289
 20
689.947064
 42
-0.011864
  0
VERTEX
  8
0
 10
270.633906
 20
695.825389
 42
-0.001564
  0
VERTEX
  8
0
 10
262.997603
 20
708.500000
 42
-0.002303
  0
VERTEX
  8
0
 10
251.619818
 20
727.719386
 42
-0.002733
  0
VERTEX
  8
0
 10
241.057509
 20
745.978308
 42
-0.002927
  0
VERTEX
  8
0
 10
232.113282
 20
761.851940
 42
-0.007878
  0
VERTEX
  8
0
 10
226.000000
 20
773.271542
 42
0.015303
  0
VERTEX
  8
0
 10
221.871191
 20
780.716335
 42
0.076362
  0
VERTEX
  8
0
 10
218.842150
 20
784.390941
 42
0.166464
  0
VERTEX
  8
0
 10
216.060392
 20
785.564006
 42
0.156451
  0
VERTEX
  8
0
 10
213.061757
 20
784.826320
 42
0.092495
  0
VERTEX
  8
0
 10
211.870664
 20
783.747302
 42
0.007491
  0
VERTEX
  8
0
 10
209.355352
 20
780.335482
 42
0.009884
  0
VERTEX
  8
0
 10
206.476067
 20
776.131643
 42
0.007435
  0
VERTEX
  8
0
 10
203.471110
 20
771.400854
 42
-0.004709
  0
VERTEX
  8
0
 10
197.815670
 20
762.389152
 42
-0.010301
  0
VERTEX
  8
0
 10
193.278565
 20
755.619621
 42
-0.010063
  0
VERTEX
  8
0
 10
188.401176
 20
748.946823
 42
-0.004293
  0
VERTEX
  8
0
 10
181.621411
 20
740.209376
 42
0.003535
  0
VERTEX
  8
0
 10
178.818398
 20
736.608272
 42
0.003601
  0
VERTEX
  8
0
 10
176.084191
 20
732.990196
 42
0.003499
  0
VERTEX
  8
0
 10
173.752918
 20
729.812484
 42
0.014895
  0
VERTEX
  8
0
 10
172.430598
 20
727.863631
 42
-0.025763
  0
VERTEX
  8
0
 10
171.191521
 20
726.120226
 42
-0.009750
  0
VERTEX
  8
0
 10
169.291389
 20
723.812814
 42
-0.009627
  0
VERTEX
  8
0
 10
167.123510
 20
721.378921
 42
-0.011594
  0
VERTEX
  8
0
 10
164.990879
 20
719.180007
 42
0.011850
  0
VERTEX
  8
0
 10
162.216223
 20
716.316183
 42
0.054751
  0
VERTEX
  8
0
 10
160.846949
 20
714.463581
 42
0.089138
  0
VERTEX
  8
0
 10
160.251301
 20
712.828222
 42
0.067643
  0
VERTEX
  8
0
 10
160.181691
 20
710.917225
 42
0.046325
  0
VERTEX
  8
0
 10
160.538298
 20
709.075436
 42
0.103182
  0
VERTEX
  8
0
 10
161.206458
 20
707.821172
 42
0.076996
  0
VERTEX
  8
0
 10
162.452348
 20
706.724027
 42
0.017869
  0
VERTEX
  8
0
 10
164.864068
 20
705.302599
 42
-0.452728
  0
VERTEX
  8
0
 10
165.089971
 20
704.309711
 42
-0.014558
  0
VERTEX
  8
0
 10
162.271288
 20
700.645017
 42
-0.021777
  0
VERTEX
  8
0
 10
158.680809
 20
696.619216
 42
-0.022166
  0
VERTEX
  8
0
 10
154.774058
 20
692.945844
 42
0.009340
  0
VERTEX
  8
0
 10
147.263642
 20
686.238500
 42
0.027508
  0
VERTEX
  8
0
 10
142.453124
 20
681.259004
 42
0.039154
  0
VERTEX
  8
0
 10
139.270818
 20
676.938735
 42
0.049685
  0
VERTEX
  8
0
 10
137.083956
 20
672.494847
 42
0.000000
  0
VERTEX
  8
0
 10
134.941463
 20
666.768522
 42
0.000000
  0
VERTEX
  8
0
 10
135.379247
 20
556.634261
 42
0.000648
  0
VERTEX
  8
0
 10
135.747372
 20
486.799201
 42
0.004682
  0
VERTEX
  8
0
 10
136.283060
 20
453.176988
 42
0.004237
  0
VERTEX
  8
0
 10
136.990151
 20
432.246138
 42
0.161276
  0
VERTEX
  8
0
 10
138.636254
 20
427.899829
 42
-0.168467
  0
VERTEX
  8
0
 10
139.249832
 20
426.208643
 42
-0.000355
  0
VERTEX
  8
0
 10
139.630691
 20
398.061844
 42
-0.001747
  0
VERTEX
  8
0
 10
139.983186
 20
360.267788
 42
-0.000455
  0
VERTEX
  8
0
 10
140.282411
 20
299.500000
 42
0.000496
  0
VERTEX
  8
0
 10
140.579890
 20
240.076128
 42
0.001633
  0
VERTEX
  8
0
 10
140.942928
 20
200.884872
 42
0.000885
  0
VERTEX
  8
0
 10
141.351986
 20
172.277245
 42
0.045557
  0
VERTEX
  8
0
 10
141.945625
 20
166.756562
 42
0.037614
  0
VERTEX
  8
0
 10
143.735222
 20
160.373855
 42
0.029402
  0
VERTEX
  8
0
 10
146.587502
 20
153.763356
 42
0.029975
  0
VERTEX
  8
0
 10
150.093536
 20
147.725155
 42
0.047775
  0
VERTEX
  8
0
 10
153.851461
 20
143.092045
 42
-0.009033
  0
VERTEX
  8
0
 10
155.569349
 20
141.280559
 42
-0.013702
  0
VERTEX
  8
0
 10
156.989944
 20
139.639172
 42
-0.008314
  0
VERTEX
  8
0
 10
158.099924
 20
138.236361
 42
-0.225776
  0
VERTEX
  8
0
 10
158.195284
 20
137.785988
 42
0.300600
  0
VERTEX
  8
0
 10
158.273349
 20
137.571172
 42
0.147098
  0
VERTEX
  8
0
 10
158.559599
 20
137.467940
 42
0.072452
  0
VERTEX
  8
0
 10
159.053751
 20
137.512852
 42
0.032791
  0
VERTEX
  8
0
 10
159.676041
 20
137.705927
 42
-0.023766
  0
VERTEX
  8
0
 10
160.447122
 20
137.960501
 42
-0.245566
  0
VERTEX
  8
0
 10
160.764146
 20
137.892851
 42
-0.334384
  0
VERTEX
  8
0
 10
160.828217
 20
137.623541
 42
-0.035451
  0
VERTEX
  8
0
 10
160.509536
 20
137.015430
 42
0.020277
  0
VERTEX
  8
0
 10
160.199025
 20
136.464231
 42
0.209685
  0
VERTEX
  8
0
 10
160.183979
 20
136.209918
 42
0.423333
  0
VERTEX
  8
0
 10
160.343051
 20
136.139720
 42
0.042088
  0
VERTEX
  8
0
 10
160.755976
 20
136.349185
 42
-0.199089
  0
VERTEX
  8
0
 10
161.453136
 20
136.462076
 42
-0.020931
  0
VERTEX
  8
0
 10
163.076610
 20
136.005143
 42
-0.023346
  0
VERTEX
  8
0
 10
165.037608
 20
135.260531
 42
-0.016643
  0
VERTEX
  8
0
 10
167.160485
 20
134.253694
 42
0.000000
  0
VERTEX
  8
0
 10
172.500000
 20
131.500000
 42
0.000000
  0
VERTEX
  8
0
 10
249.418075
 20
131.214453
 42
0.000000
  0
VERTEX
  8
0
 10
326.336149
 20
130.928905
 42
0.000000
  0
VERTEX
  8
0
 10
333.418075
 20
134.612411
 42
0.001955
  0
VERTEX
  8
0
 10
341.515416
 20
138.864370
 42
0.005356
  0
VERTEX
  8
0
 10
347.190702
 20
141.951181
 42
0.006007
  0
VERTEX
  8
0
 10
351.193476
 20
144.247675
 42
0.043424
  0
VERTEX
  8
0
 10
353.000000
 20
145.536505
 42
-0.044371
  0
VERTEX
  8
0
 10
353.927862
 20
146.195826
 42
-0.007513
  0
VERTEX
  8
0
 10
355.821875
 20
147.265433
 42
-0.008158
  0
VERTEX
  8
0
 10
358.092892
 20
148.455671
 42
-0.007178
  0
VERTEX
  8
0
 10
360.500000
 20
149.624588
 42
0.006263
  0
VERTEX
  8
0
 10
363.230718
 20
150.944488
 42
0.003568
  0
VERTEX
  8
0
 10
366.500000
 20
152.604773
 42
0.003562
  0
VERTEX
  8
0
 10
369.767916
 20
154.323412
 42
0.005885
  0
VERTEX
  8
0
 10
372.500000
 20
155.826818
 42
-0.001910
  0
VERTEX
  8
0
 10
375.332693
 20
157.415056
 42
-0.000945
  0
VERTEX
  8
0
 10
378.940625
 20
159.410967
 42
-0.000938
  0
VERTEX
  8
0
 10
382.690895
 20
161.467216
 42
-0.001372
  0
VERTEX
  8
0
 10
386.000000
 20
163.261743
 42
0.001894
  0
VERTEX
  8
0
 10
389.295091
 20
165.053118
 42
0.001319
  0
VERTEX
  8
0
 10
393.001676
 20
167.099162
 42
0.001330
  0
VERTEX
  8
0
 10
396.547343
 20
169.080957
 42
0.002754
  0
VERTEX
  8
0
 10
399.303576
 20
170.651195
 42
-0.002368
  0
VERTEX
  8
0
 10
401.552612
 20
171.934786
 42
-0.003698
  0
VERTEX
  8
0
 10
403.502126
 20
173.016289
 42
-0.001089
  0
VERTEX
  8
0
 10
405.202163
 20
173.938217
 42
-0.124318
  0
VERTEX
  8
0
 10
405.446808
 20
174.000000
 42
0.128531
  0
VERTEX
  8
0
 10
405.700280
 20
174.066252
 42
0.000261
  0
VERTEX
  8
0
 10
409.316491
 20
176.097765
 42
0.001802
  0
VERTEX
  8
0
 10
413.381469
 20
178.403511
 42
0.001115
  0
VERTEX
  8
0
 10
418.143232
 20
181.141327
 42
-0.000505
  0
VERTEX
  8
0
 10
423.204033
 20
184.059289
 42
-0.000530
  0
VERTEX
  8
0
 10
428.192074
 20
186.921561
 42
-0.000507
  0
VERTEX
  8
0
 10
432.504042
 20
189.384015
 42
-0.002360
  0
VERTEX
  8
0
 10
435.000000
 20
190.790475
 42
0.011607
  0
VERTEX
  8
0
 10
442.338877
 20
195.106624
 42
0.012815
  0
VERTEX
  8
0
 10
449.227011
 20
199.624254
 42
0.013236
  0
VERTEX
  8
0
 10
454.959046
 20
203.826261
 42
0.044287
  0
VERTEX
  8
0
 10
458.373579
 20
206.991747
 42
0.098832
  0
VERTEX
  8
0
 10
464.664077
 20
217.541104
 42
0.181803
  0
VERTEX
  8
0
 10
464.476582
 20
227.401875
 42
0.134702
  0
VERTEX
  8
0
 10
457.388393
 20
236.794358
 42
0.046187
  0
VERTEX
  8
0
 10
442.856083
 20
245.990927
 42
-0.006017
  0
VERTEX
  8
0
 10
431.374939
 20
252.025728
 42
-0.016698
  0
VERTEX
  8
0
 10
423.505135
 20
256.630058
 42
-0.022848
  0
VERTEX
  8
0
 10
417.551906
 20
260.777108
 42
-0.027340
  0
VERTEX
  8
0
 10
412.364977
 20
265.224587
 42
-0.077873
  0
VERTEX
  8
0
 10
404.060946
 20
276.105009
 42
-0.112005
  0
VERTEX
  8
0
 10
400.801050
 20
287.730460
 42
-0.114766
  0
VERTEX
  8
0
 10
402.905942
 20
299.415541
 42
-0.084691
  0
VERTEX
  8
0
 10
410.086397
 20
310.477903
 42
-0.042019
  0
VERTEX
  8
0
 10
415.154803
 20
315.125319
 42
-0.017838
  0
VERTEX
  8
0
 10
422.649146
 20
320.503181
 42
-0.017907
  0
VERTEX
  8
0
 10
430.748186
 20
325.479361
 42
-0.031124
  0
VERTEX
  8
0
 10
437.840056
 20
328.930651
 42
-0.014858
  0
VERTEX
  8
0
 10
445.319424
 20
331.754217
 42
-0.002377
  0
VERTEX
  8
0
 10
460.121542
 20
336.766598
 42
-0.002606
  0
VERTEX
  8
0
 10
477.752888
 20
342.541841
 42
-0.002188
  0
VERTEX
  8
0
 10
496.500000
 20
348.484135
 42
0.016716
  0
VERTEX
  8
0
 10
515.318054
 20
355.056299
 42
0.053758
  0
VERTEX
  8
0
 10
527.088888
 20
361.137200
 42
0.090482
  0
VERTEX
  8
0
 10
533.677595
 20
367.459035
 42
0.157274
  0
VERTEX
  8
0
 10
535.993411
 20
374.599962
 42
0.119122
  0
VERTEX
  8
0
 10
534.664677
 20
380.136972
 42
0.081367
  0
VERTEX
  8
0
 10
530.810089
 20
385.368252
 42
0.064524
  0
VERTEX
  8
0
 10
524.536042
 20
390.083870
 42
0.038153
  0
VERTEX
  8
0
 10
516.045672
 20
394.074644
 42
0.016621
  0
VERTEX
  8
0
 10
512.772894
 20
395.195218
 42
0.001255
  0
VERTEX
  8
0
 10
503.799910
 20
397.913289
 42
0.001731
  0
VERTEX
  8
0
 10
493.075216
 20
401.092182
 42
0.001316
  0
VERTEX
  8
0
 10
481.300777
 20
404.504314
 42
-0.002017
  0
VERTEX
  8
0
 10
469.158237
 20
408.041574
 42
-0.002158
  0
VERTEX
  8
0
 10
457.316478
 20
411.598748
 42
-0.002045
  0
VERTEX
  8
0
 10
447.164978
 20
414.741463
 42
-0.010141
  0
VERTEX
  8
0
 10
441.500000
 20
416.647717
 42
-0.031646
  0
VERTEX
  8
0
 10
422.481264
 20
424.872047
 42
-0.063104
  0
VERTEX
  8
0
 10
408.946016
 20
434.081674
 42
-0.085122
  0
VERTEX
  8
0
 10
400.823979
 20
444.177879
 42
-0.127852
  0
VERTEX
  8
0
 10
398.005577
 20
455.065724
 42
-0.030091
  0
VERTEX
  8
0
 10
398.358219
 20
460.821515
 42
-0.067448
  0
VERTEX
  8
0
 10
399.465085
 20
465.049509
 42
-0.070494
  0
VERTEX
  8
0
 10
401.620521
 20
468.715666
 42
-0.035484
  0
VERTEX
  8
0
 10
405.259409
 20
472.675474
 42
-0.053510
  0
VERTEX
  8
0
 10
415.202918
 20
480.230641
 42
-0.043510
  0
VERTEX
  8
0
 10
427.224108
 20
486.124751
 42
-0.023814
  0
VERTEX
  8
0
 10
445.607800
 20
492.243076
 42
-0.004419
  0
VERTEX
  8
0
 10
480.000000
 20
501.570066
 42
0.002868
  0
VERTEX
  8
0
 10
503.538462
 20
507.875222
 42
0.018413
  0
VERTEX
  8
0
 10
515.299214
 20
511.568461
 42
0.037349
  0
VERTEX
  8
0
 10
522.476604
 20
514.737289
 42
0.068510
  0
VERTEX
  8
0
 10
527.642607
 20
518.482049
 42
0.044137
  0
VERTEX
  8
0
 10
530.614053
 20
521.879969
 42
0.113965
  0
VERTEX
  8
0
 10
531.885156
 20
524.858351
 42
0.124794
  0
VERTEX
  8
0
 10
531.664682
 20
527.920312
 42
0.058414
  0
VERTEX
  8
0
 10
529.971608
 20
531.545940
 42
0.070893
  0
VERTEX
  8
0
 10
527.733620
 20
534.229419
 42
0.028530
  0
VERTEX
  8
0
 10
524.003947
 20
537.227482
 42
0.027423
  0
VERTEX
  8
0
 10
519.538238
 20
540.059719
 42
0.030334
  0
VERTEX
  8
0
 10
514.933865
 20
542.282293
 42
0.018589
  0
VERTEX
  8
0
 10
512.713631
 20
543.097518
 42
0.002225
  0
VERTEX
  8
0
 10
507.734709
 20
544.693902
 42
0.002649
  0
VERTEX
  8
0
 10
501.796116
 20
546.534338
 42
0.002174
  0
VERTEX
  8
0
 10
495.433865
 20
548.438996
 42
-0.005519
  0
VERTEX
  8
0
 10
470.516253
 20
556.080508
 42
-0.021927
  0
VERTEX
  8
0
 10
455.501777
 20
561.602950
 42
-0.035784
  0
VERTEX
  8
0
 10
445.378264
 20
566.717803
 42
-0.056265
  0
VERTEX
  8
0
 10
437.640620
 20
572.621780
 42
-0.031331
  0
VERTEX
  8
0
 10
434.015792
 20
576.560179
 42
-0.058320
  0
VERTEX
  8
0
 10
431.696506
 20
580.220235
 42
-0.064410
  0
VERTEX
  8
0
 10
430.426354
 20
584.057364
 42
-0.047792
  0
VERTEX
  8
0
 10
430.000000
 20
588.507719
 42
-0.060631
  0
VERTEX
  8
0
 10
430.518048
 20
592.764131
 42
-0.059265
  0
VERTEX
  8
0
 10
432.042704
 20
596.807119
 42
-0.050916
  0
VERTEX
  8
0
 10
434.708576
 20
600.869405
 42
-0.029163
  0
VERTEX
  8
0
 10
438.669226
 20
605.199995
 42
-0.075725
  0
VERTEX
  8
0
 10
446.516423
 20
610.808303
 42
-0.030379
  0
VERTEX
  8
0
 10
458.655657
 20
616.064435
 42
-0.019410
  0
VERTEX
  8
0
 10
476.922913
 20
621.897034
 42
-0.005386
  0
VERTEX
  8
0
 10
506.000000
 20
629.615752
 42
0.003637
  0
VERTEX
  8
0
 10
533.378150
 20
636.781033
 42
0.021603
  0
VERTEX
  8
0
 10
547.475142
 20
641.241534
 42
0.042139
  0
VERTEX
  8
0
 10
555.597369
 20
645.004730
 42
0.144861
  0
VERTEX
  8
0
 10
559.578638
 20
649.152069
 42
0.062903
  0
VERTEX
  8
0
 10
560.855592
 20
652.632904
 42
0.122395
  0
VERTEX
  8
0
 10
560.803802
 20
655.573590
 42
0.101385
  0
VERTEX
  8
0
 10
559.336358
 20
658.511268
 42
0.034625
  0
VERTEX
  8
0
 10
556.127257
 20
662.064376
 42
0.061681
  0
VERTEX
  8
0
 10
550.563346
 20
666.239886
 42
0.042590
  0
VERTEX
  8
0
 10
543.415012
 20
669.565641
 42
0.015513
  0
VERTEX
  8
0
 10
530.774877
 20
673.744785
 42
0.001237
  0
VERTEX
  8
0
 10
497.000000
 20
683.669861
 42
-0.001318
  0
VERTEX
  8
0
 10
492.963330
 20
684.856783
 42
-0.000624
  0
VERTEX
  8
0
 10
487.765625
 20
686.407050
 42
-0.000619
  0
VERTEX
  8
0
 10
482.332180
 20
688.042349
 42
-0.000876
  0
VERTEX
  8
0
 10
477.500000
 20
689.512452
 42
0.013162
  0
VERTEX
  8
0
 10
468.014318
 20
692.145501
 42
0.006482
  0
VERTEX
  8
0
 10
455.829018
 20
695.017613
 42
0.004532
  0
VERTEX
  8
0
 10
444.060510
 20
697.519218
 42
0.050139
  0
VERTEX
  8
0
 10
439.278034
 20
698.000000
 42
-0.177974
  0
VERTEX
  8
0
 10
437.750050
 20
698.561675
 42
-0.024053
  0
VERTEX
  8
0
 10
435.214948
 20
700.935796
 42
-0.018342
  0
VERTEX
  8
0
 10
431.716274
 20
704.818639
 42
-0.005178
  0
VERTEX
  8
0
 10
426.553836
 20
711.120109
 42
-0.005426
  0
VERTEX
  8
0
 10
422.558715
 20
716.213321
 42
-0.008755
  0
VERTEX
  8
0
 10
419.281422
 20
720.644654
 42
-0.003218
  0
VERTEX
  8
0
 10
416.591405
 20
724.470230
 42
-0.298409
  0
VERTEX
  8
0
 10
416.574232
 20
725.120109
 42
-0.186579
  0
VERTEX
  8
0
 10
417.026980
 20
725.463082
 42
-0.024802
  0
VERTEX
  8
0
 10
418.217303
 20
725.741532
 42
-0.025959
  0
VERTEX
  8
0
 10
419.722857
 20
725.935756
 42
-0.019100
  0
VERTEX
  8
0
 10
421.404029
 20
726.000000
 42
0.082311
  0
VERTEX
  8
0
 10
425.803148
 20
726.729131
 42
0.187255
  0
VERTEX
  8
0
 10
428.340650
 20
728.860921
 42
0.202584
  0
VERTEX
  8
0
 10
428.662961
 20
732.007133
 42
0.096002
  0
VERTEX
  8
0
 10
426.711780
 20
735.673275
 42
-0.010197
  0
VERTEX
  8
0
 10
424.573939
 20
738.427221
 42
-0.009244
  0
VERTEX
  8
0
 10
422.477240
 20
741.356516
 42
-0.003392
  0
VERTEX
  8
0
 10
419.198574
 20
746.190712
 42
-0.000245
  0
VERTEX
  8
0
 10
410.237193
 20
759.612871
 42
0.000169
  0
VERTEX
  8
0
 10
405.665339
 20
766.462767
 42
0.000187
  0
VERTEX
  8
0
 10
401.241850
 20
773.080169
 42
0.000173
  0
VERTEX
  8
0
 10
397.462293
 20
778.725465
 42
0.000968
  0
VERTEX
  8
0
 10
395.430603
 20
781.745151
 42
0.068366
  0
VERTEX
  8
0
 10
391.252556
 20
786.407201
 42
0.165911
  0
VERTEX
  8
0
 10
387.007588
 20
788.076899
 42
0.183529
  0
VERTEX
  8
0
 10
382.924376
 20
786.736914
 42
0.086180
  0
VERTEX
  8
0
 10
379.209437
 20
782.490574
 42
0.000648
  0
VERTEX
  8
0
 10
377.891429
 20
780.319065
 42
0.000271
  0
VERTEX
  8
0
 10
376.120897
 20
777.389863
 42
0.000268
  0
VERTEX
  8
0
 10
374.229771
 20
774.253509
 42
0.000348
  0
VERTEX
  8
0
 10
372.500000
 20
771.376738
 42
-0.004319
  0
VERTEX
  8
0
 10
366.259949
 20
761.183130
 42
-0.003876
  0
VERTEX
  8
0
 10
359.618648
 20
750.723007
 42
-0.003623
  0
VERTEX
  8
0
 10
353.599679
 20
741.550056
 42
-0.016880
  0
VERTEX
  8
0
 10
349.915253
 20
736.407629
 42
0.032310
  0
VERTEX
  8
0
 10
346.589374
 20
731.449525
 42
0.205689
  0
VERTEX
  8
0
 10
346.232958
 20
728.506997
 42
0.259952
  0
VERTEX
  8
0
 10
348.111806
 20
726.659562
 42
0.049364
  0
VERTEX
  8
0
 10
353.019619
 20
725.818755
 42
-0.017529
  0
VERTEX
  8
0
 10
355.174064
 20
725.589353
 42
-0.066136
  0
VERTEX
  8
0
 10
356.477984
 20
725.223969
 42
-0.129101
  0
VERTEX
  8
0
 10
357.170335
 20
724.684326
 42
-0.182078
  0
VERTEX
  8
0
 10
357.393162
 20
723.942305
 42
-0.143024
  0
VERTEX
  8
0
 10
356.425847
 20
721.313578
 42
-0.007461
  0
VERTEX
  8
0
 10
350.911585
 20
714.084597
 42
-0.005693
  0
VERTEX
  8
0
 10
345.088944
 20
706.853997
 42
-0.224002
  0
VERTEX
  8
0
 10
343.278369
 20
706.000000
 42
-0.121170
  0
VERTEX
  8
0
 10
340.030137
 20
706.798906
 42
-0.016780
  0
VERTEX
  8
0
 10
333.941690
 20
710.251738
 42
-0.020400
  0
VERTEX
  8
0
 10
327.778857
 20
714.380223
 42
-0.039412
  0
VERTEX
  8
0
 10
323.279592
 20
718.246041
 42
-0.016697
  0
VERTEX
  8
0
 10
317.030696
 20
724.969885
 42
-0.010499
  0
VERTEX
  8
0
 10
310.165036
 20
733.214096
 42
-0.003311
  0
VERTEX
  8
0
 10
303.590698
 20
741.567192
 42
-0.313107
  0
VERTEX
  8
0
 10
303.513123
 20
743.021233
 42
-0.212581
  0
VERTEX
  8
0
 10
304.079327
 20
743.407180
 42
-0.013992
  0
VERTEX
  8
0
 10
306.080602
 20
743.712487
 42
-0.018321
  0
VERTEX
  8
0
 10
308.568552
 20
743.928910
 42
-0.012534
  0
VERTEX
  8
0
 10
311.404029
 20
744.000000
 42
0.028041
  0
VERTEX
  8
0
 10
316.522086
 20
744.287260
 42
0.097731
  0
VERTEX
  8
0
 10
319.662210
 20
745.282681
 42
0.156077
  0
VERTEX
  8
0
 10
321.376926
 20
747.089259
 42
0.112891
  0
VERTEX
  8
0
 10
322.000000
 20
749.813718
 42
0.113923
  0
VERTEX
  8
0
 10
321.440697
 20
752.236596
 42
0.016645
  0
VERTEX
  8
0
 10
319.062307
 20
756.727747
 42
0.018850
  0
VERTEX
  8
0
 10
315.937405
 20
761.734175
 42
0.018752
  0
VERTEX
  8
0
 10
312.439144
 20
766.500000
 42
-0.020501
  0
VERTEX
  8
0
 10
308.300430
 20
772.179881
 42
-0.001631
  0
VERTEX
  8
0
 10
298.018142
 20
787.689058
 42
-0.001443
  0
VERTEX
  8
0
 10
287.733574
 20
803.410648
 42
-0.024796
  0
VERTEX
  8
0
 10
284.640847
 20
808.727632
 42
0.057029
  0
VERTEX
  8
0
 10
283.022097
 20
811.139098
 42
0.024384
  0
VERTEX
  8
0
 10
280.360490
 20
813.974018
 42
0.019215
  0
VERTEX
  8
0
 10
277.583371
 20
816.457991
 42
0.174569
  0
VERTEX
  8
0
 10
276.078262
 20
817.000000
 42
0.137511
  0
VERTEX
  8
0
 10
275.688862
 20
816.890843
 42
0.029107
  0
VERTEX
  8
0
 10
275.103083
 20
816.485937
 42
0.028420
  0
VERTEX
  8
0
 10
274.457525
 20
815.919926
 42
0.023656
  0
SEQEND
  0
POLYLINE
  8
0
 66
1
 70
1
  0
VERTEX
  8
0
 10
268.826923
 20
679.197049
 42
-0.030572
  0
VERTEX
  8
0
 10
270.425906
 20
677.300827
 42
-0.002686
  0
VERTEX
  8
0
 10
274.147953
 20
672.239269
 42
-0.003512
  0
VERTEX
  8
0
 10
278.516205
 20
666.142007
 42
-0.002726
  0
VERTEX
  8
0
 10
283.187383
 20
659.447049
 42
0.004383
  0
VERTEX
  8
0
 10
288.360635
 20
652.084623
 42
0.003168
  0
VERTEX
  8
0
 10
294.250617
 20
643.965657
 42
0.003200
  0
VERTEX
  8
0
 10
299.946245
 20
636.321360
 42
0.006955
  0
VERTEX
  8
0
 10
304.437383
 20
630.542420
 42
-0.006017
  0
VERTEX
  8
0
 10
308.099382
 20
625.848560
 42
-0.008941
  0
VERTEX
  8
0
 10
311.181639
 20
621.644294
 42
-0.004751
  0
VERTEX
  8
0
 10
313.671604
 20
618.045261
 42
-0.155317
  0
VERTEX
  8
0
 10
313.968197
 20
617.042420
 42
-0.105571
  0
VERTEX
  8
0
 10
313.496402
 20
615.036287
 42
-0.103618
  0
VERTEX
  8
0
 10
312.244684
 20
613.382333
 42
-0.103544
  0
VERTEX
  8
0
 10
310.433532
 20
612.369006
 42
-0.105271
  0
VERTEX
  8
0
 10
308.379117
 20
612.175358
 42
-0.123947
  0
VERTEX
  8
0
 10
306.561274
 20
612.864635
 42
-0.040056
  0
VERTEX
  8
0
 10
304.322385
 20
614.709198
 42
-0.024249
  0
VERTEX
  8
0
 10
301.303418
 20
617.929692
 42
-0.006003
  0
VERTEX
  8
0
 10
296.681483
 20
623.500000
 42
-0.002198
  0
VERTEX
  8
0
 10
293.096231
 20
627.968047
 42
-0.002471
  0
VERTEX
  8
0
 10
289.688649
 20
632.296875
 42
-0.002264
  0
VERTEX
  8
0
 10
286.823784
 20
636.008042
 42
-0.013334
  0
VERTEX
  8
0
 10
285.382942
 20
638.000000
 42
0.002327
  0
VERTEX
  8
0
 10
284.030922
 20
639.958543
 42
0.000475
  0
VERTEX
  8
0
 10
281.620079
 20
643.409375
 42
0.000501
  0
VERTEX
  8
0
 10
278.810114
 20
647.414831
 42
0.000470
  0
VERTEX
  8
0
 10
275.932379
 20
651.500000
 42
-0.003106
  0
VERTEX
  8
0
 10
267.585021
 20
663.483438
 42
-0.009765
  0
VERTEX
  8
0
 10
262.190456
 20
671.669341
 42
-0.009406
  0
VERTEX
  8
0
 10
258.634908
 20
677.542938
 42
-0.132143
  0
VERTEX
  8
0
 10
258.000000
 20
679.903335
 42
-0.085777
  0
VERTEX
  8
0
 10
258.188889
 20
680.996279
 42
-0.190641
  0
VERTEX
  8
0
 10
258.736120
 20
681.621431
 42
-0.102670
  0
VERTEX
  8
0
 10
259.836040
 20
681.926294
 42
-0.016441
  0
VERTEX
  8
0
 10
262.076923
 20
682.000000
 42
-0.033266
  0
VERTEX
  8
0
 10
264.215776
 20
681.857541
 42
-0.065235
  0
VERTEX
  8
0
 10
265.860454
 20
681.414206
 42
-0.067025
  0
VERTEX
  8
0
 10
267.306760
 20
680.571766
 42
-0.036973
  0
SEQEND
  0
POLYLINE
  8
0
 66
1
 70
1
  0
VERTEX
  8
0
 10
357.838418
 20
660.827249
 42
-0.001464
  0
VERTEX
  8
0
 10
373.562384
 20
646.423902
 42
-0.004803
  0
VERTEX
  8
0
 10
383.829611
 20
636.779577
 42
-0.004171
  0
VERTEX
  8
0
 10
390.930750
 20
629.865222
 42
-0.074886
  0
VERTEX
  8
0
 10
392.827316
 20
627.322663
 42
-0.151370
  0
VERTEX
  8
0
 10
393.233515
 20
625.221188
 42
-0.129992
  0
VERTEX
  8
0
 10
392.420411
 20
623.112664
 42
-0.119760
  0
VERTEX
  8
0
 10
390.597141
 20
621.558707
 42
-0.117394
  0
VERTEX
  8
0
 10
388.250322
 20
621.000000
 42
-0.130913
  0
VERTEX
  8
0
 10
386.480178
 20
621.471552
 42
-0.033589
  0
VERTEX
  8
0
 10
383.994181
 20
623.128319
 42
-0.022359
  0
VERTEX
  8
0
 10
380.586186
 20
625.997143
 42
-0.006370
  0
VERTEX
  8
0
 10
375.557026
 20
630.750000
 42
0.001615
  0
VERTEX
  8
0
 10
370.637201
 20
635.488899
 42
0.000674
  0
VERTEX
  8
0
 10
363.974564
 20
641.847968
 42
0.000667
  0
VERTEX
  8
0
 10
356.824856
 20
648.635352
 42
0.000865
  0
VERTEX
  8
0
 10
350.250000
 20
654.838827
 42
-0.005504
  0
VERTEX
  8
0
 10
340.381506
 20
664.324492
 42
-0.045244
  0
VERTEX
  8
0
 10
336.350300
 20
669.074317
 42
-0.135648
  0
VERTEX
  8
0
 10
335.232900
 20
672.196712
 42
-0.218222
  0
VERTEX
  8
0
 10
336.200000
 20
674.800000
 42
-0.064687
  0
VERTEX
  8
0
 10
336.797023
 20
675.259732
 42
-0.039124
  0
VERTEX
  8
0
 10
337.602223
 20
675.647500
 42
-0.038596
  0
VERTEX
  8
0
 10
338.477410
 20
675.911951
 42
-0.054125
  0
VERTEX
  8
0
 10
339.288418
 20
676.000000
 42
-0.169300
  0
VERTEX
  8
0
 10
340.515646
 20
675.572197
 42
-0.003686
  0
VERTEX
  8
0
 10
345.516452
 20
671.543005
 42
-0.008003
  0
VERTEX
  8
0
 10
351.316395
 20
666.641997
 42
-0.005267
  0
SEQEND
  0
POLYLINE
  8
0
 66
1
 70
1
  0
VERTEX
  8
0
 10
391.727605
 20
582.000000
 42
-0.001310
  0
VERTEX
  8
0
 10
399.155039
 20
570.563332
 42
-0.002023
  0
VERTEX
  8
0
 10
405.507815
 20
560.637180
 42
-0.000622
  0
VERTEX
  8
0
 10
410.972697
 20
551.998021
 42
-0.062193
  0
VERTEX
  8
0
 10
411.581003
 20
550.701037
 42
-0.150129
  0
VERTEX
  8
0
 10
411.618095
 20
548.425035
 42
-0.110273
  0
VERTEX
  8
0
 10
410.397704
 20
546.198511
 42
-0.102092
  0
VERTEX
  8
0
 10
408.245251
 20
544.574862
 42
-0.111150
  0
VERTEX
  8
0
 10
405.691233
 20
544.000000
 42
-0.027171
  0
VERTEX
  8
0
 10
404.111061
 20
544.085932
 42
-0.095865
  0
VERTEX
  8
0
 10
403.143834
 20
544.384919
 42
-0.155200
  0
VERTEX
  8
0
 10
402.614462
 20
544.928773
 42
-0.114952
  0
VERTEX
  8
0
 10
402.417786
 20
545.750000
 42
0.138725
  0
VERTEX
  8
0
 10
401.835937
 20
547.759421
 42
0.001171
  0
VERTEX
  8
0
 10
393.145689
 20
561.624182
 42
0.004173
  0
VERTEX
  8
0
 10
383.236217
 20
577.064954
 42
0.003078
  0
VERTEX
  8
0
 10
372.017754
 20
594.000000
 42
-0.003142
  0
VERTEX
  8
0
 10
366.529417
 20
602.287341
 42
-0.045797
  0
VERTEX
  8
0
 10
364.887512
 20
605.387007
 42
-0.140929
  0
VERTEX
  8
0
 10
364.646483
 20
607.463040
 42
-0.104278
  0
VERTEX
  8
0
 10
365.491544
 20
609.627438
 42
-0.045734
  0
VERTEX
  8
0
 10
366.405016
 20
610.777026
 42
-0.084763
  0
VERTEX
  8
0
 10
367.359247
 20
611.485750
 42
-0.089823
  0
VERTEX
  8
0
 10
368.455028
 20
611.813383
 42
-0.056869
  0
VERTEX
  8
0
 10
369.792146
 20
611.810380
 42
-0.187140
  0
VERTEX
  8
0
 10
371.901132
 20
610.696658
 42
-0.020143
  0
VERTEX
  8
0
 10
375.413473
 20
606.305439
 42
-0.012224
  0
VERTEX
  8
0
 10
380.888169
 20
598.471105
 42
-0.001719
  0
SEQEND
  0
POLYLINE
  8
0
 66
1
 70
1
  0
VERTEX
  8
0
 10
288.407901
 20
593.396968
 42
-0.100393
  0
VERTEX
  8
0
 10
289.270392
 20
592.848359
 42
-0.010860
  0
VERTEX
  8
0
 10
290.943409
 20
591.165405
 42
-0.012979
  0
VERTEX
  8
0
 10
292.859227
 20
589.045027
 42
-0.010118
  0
VERTEX
  8
0
 10
294.832664
 20
586.646968
 42
0.017033
  0
VERTEX
  8
0
 10
297.762664
 20
583.185210
 42
0.002911
  0
VERTEX
  8
0
 10
303.593925
 20
576.828081
 42
0.003172
  0
VERTEX
  8
0
 10
310.535629
 20
569.442762
 42
0.002824
  0
VERTEX
  8
0
 10
317.842976
 20
561.852883
 42
-0.003494
  0
VERTEX
  8
0
 10
326.221604
 20
553.126940
 42
-0.010833
  0
VERTEX
  8
0
 10
331.704064
 20
547.079598
 42
-0.009653
  0
VERTEX
  8
0
 10
335.392145
 20
542.660527
 42
-0.170671
  0
VERTEX
  8
0
 10
336.000000
 20
540.931624
 42
-0.101423
  0
VERTEX
  8
0
 10
335.586833
 20
538.915734
 42
-0.072484
  0
VERTEX
  8
0
 10
334.381731
 20
536.945863
 42
-0.076103
  0
VERTEX
  8
0
 10
332.743602
 20
535.494146
 42
-0.144296
  0
VERTEX
  8
0
 10
331.066988
 20
535.000000
 42
-0.199583
  0
VERTEX
  8
0
 10
329.201920
 20
535.775355
 42
-0.001037
  0
VERTEX
  8
0
 10
314.913894
 20
550.196961
 42
-0.005098
  0
VERTEX
  8
0
 10
301.319091
 20
564.259852
 42
-0.009681
  0
VERTEX
  8
0
 10
290.715137
 20
575.898399
 42
-0.011167
  0
VERTEX
  8
0
 10
286.132474
 20
581.369897
 42
-0.016303
  0
VERTEX
  8
0
 10
282.366533
 20
586.403869
 42
-0.013946
  0
VERTEX
  8
0
 10
279.575303
 20
590.647563
 42
-0.139368
  0
VERTEX
  8
0
 10
279.000000
 20
592.671445
 42
-0.350940
  0
VERTEX
  8
0
 10
279.712715
 20
593.561821
 42
-0.035961
  0
VERTEX
  8
0
 10
282.571621
 20
593.990561
 42
-0.039404
  0
VERTEX
  8
0
 10
285.822008
 20
593.984704
 42
-0.071581
  0
SEQEND
  0
POLYLINE
  8
0
 66
1
 70
1
  0
VERTEX
  8
0
 10
310.379858
 20
515.750000
 42
-0.031107
  0
VERTEX
  8
0
 10
314.338011
 20
511.701145
 42
-0.007768
  0
VERTEX
  8
0
 10
320.274328
 20
504.600753
 42
-0.002327
  0
VERTEX
  8
0
 10
326.476012
 20
496.871072
 42
-0.253546
  0
VERTEX
  8
0
 10
326.700382
 20
495.601147
 42
-0.157473
  0
VERTEX
  8
0
 10
326.355918
 20
495.132782
 42
-0.018871
  0
VERTEX
  8
0
 10
325.272248
 20
494.412614
 42
-0.020990
  0
VERTEX
  8
0
 10
323.878636
 20
493.638871
 42
-0.015811
  0
VERTEX
  8
0
 10
322.287998
 20
492.903128
 42
0.000000
  0
VERTEX
  8
0
 10
318.195606
 20
491.165085
 42
0.000000
  0
VERTEX
  8
0
 10
307.650681
 20
503.763593
 42
-0.005208
  0
VERTEX
  8
0
 10
303.644500
 20
508.652536
 42
-0.008431
  0
VERTEX
  8
0
 10
300.352007
 20
512.901856
 42
-0.002969
  0
VERTEX
  8
0
 10
297.635071
 20
516.578522
 42
-0.304970
  0
VERTEX
  8
0
 10
297.611895
 20
517.181051
 42
-0.200050
  0
VERTEX
  8
0
 10
298.059240
 20
517.501993
 42
-0.019177
  0
VERTEX
  8
0
 10
299.404389
 20
517.759434
 42
-0.022070
  0
VERTEX
  8
0
 10
301.095047
 20
517.940368
 42
-0.015621
  0
VERTEX
  8
0
 10
303.003253
 20
518.000000
 42
-0.023904
  0
VERTEX
  8
0
 10
305.477536
 20
517.881642
 42
-0.050156
  0
VERTEX
  8
0
 10
307.364341
 20
517.507361
 42
-0.059493
  0
VERTEX
  8
0
 10
308.925255
 20
516.819824
 42
-0.050238
  0
SEQEND
  0
POLYLINE
  8
0
 66
1
 70
1
  0
VERTEX
  8
0
 10
357.381647
 20
480.131053
 42
0.035304
  0
VERTEX
  8
0
 10
358.450196
 20
478.425187
 42
0.009790
  0
VERTEX
  8
0
 10
360.362108
 20
475.908944
 42
0.009833
  0
VERTEX
  8
0
 10
362.644684
 20
473.137711
 42
0.010158
  0
VERTEX
  8
0
 10
365.010442
 20
470.488775
 42
-0.026583
  0
VERTEX
  8
0
 10
368.680050
 20
466.097867
 42
-0.047660
  0
VERTEX
  8
0
 10
371.125142
 20
462.089602
 42
-0.055779
  0
VERTEX
  8
0
 10
372.516399
 20
458.169780
 42
-0.056892
  0
VERTEX
  8
0
 10
372.994423
 20
454.065724
 42
-0.087127
  0
VERTEX
  8
0
 10
372.469239
 20
451.033948
 42
-0.032918
  0
VERTEX
  8
0
 10
370.743963
 20
447.076899
 42
-0.032685
  0
VERTEX
  8
0
 10
368.533442
 20
443.408424
 42
-0.096069
  0
VERTEX
  8
0
 10
366.429674
 20
441.361964
 42
-0.064951
  0
VERTEX
  8
0
 10
364.423570
 20
440.392115
 42
-0.202538
  0
VERTEX
  8
0
 10
362.958804
 20
440.508177
 42
-0.438870
  0
VERTEX
  8
0
 10
362.718776
 20
441.392869
 42
-0.099728
  0
VERTEX
  8
0
 10
363.926556
 20
442.661112
 42
0.077216
  0
VERTEX
  8
0
 10
364.944965
 20
443.639069
 42
0.085711
  0
VERTEX
  8
0
 10
365.574808
 20
444.847326
 42
0.059036
  0
VERTEX
  8
0
 10
365.904251
 20
446.545786
 42
0.018415
  0
VERTEX
  8
0
 10
366.000000
 20
449.144645
 42
0.029819
  0
VERTEX
  8
0
 10
365.814820
 20
452.246958
 42
0.089537
  0
VERTEX
  8
0
 10
365.194433
 20
454.267963
 42
0.063939
  0
VERTEX
  8
0
 10
363.791788
 20
456.300099
 42
0.010183
  0
VERTEX
  8
0
 10
360.481309
 20
459.837941
 42
0.004971
  0
VERTEX
  8
0
 10
356.950277
 20
463.389371
 42
0.072567
  0
VERTEX
  8
0
 10
355.529177
 20
464.433059
 42
0.247154
  0
VERTEX
  8
0
 10
354.524389
 20
464.437059
 42
0.110025
  0
VERTEX
  8
0
 10
353.481309
 20
463.558870
 42
0.076062
  0
VERTEX
  8
0
 10
352.911453
 20
462.515784
 42
0.028874
  0
VERTEX
  8
0
 10
352.435135
 20
460.922217
 42
0.027790
  0
VERTEX
  8
0
 10
352.109079
 20
459.100951
 42
0.030406
  0
VERTEX
  8
0
 10
352.000000
 20
457.308870
 42
-0.007229
  0
VERTEX
  8
0
 10
351.953979
 20
454.125870
 42
-0.185804
  0
VERTEX
  8
0
 10
351.626505
 20
453.343334
 42
-0.283220
  0
VERTEX
  8
0
 10
350.924182
 20
453.160209
 42
-0.016601
  0
VERTEX
  8
0
 10
348.742930
 20
453.907638
 42
-0.098339
  0
VERTEX
  8
0
 10
347.456181
 20
454.713234
 42
-0.094678
  0
VERTEX
  8
0
 10
346.554283
 20
455.959123
 42
-0.052072
  0
VERTEX
  8
0
 10
345.832117
 20
458.042006
 42
-0.010801
  0
VERTEX
  8
0
 10
345.030398
 20
461.838898
 42
-0.045691
  0
VERTEX
  8
0
 10
344.235561
 20
470.164974
 42
-0.059863
  0
VERTEX
  8
0
 10
345.117211
 20
477.749344
 42
-0.064148
  0
VERTEX
  8
0
 10
347.680996
 20
484.490427
 42
-0.065081
  0
VERTEX
  8
0
 10
351.860018
 20
490.325291
 42
0.000000
  0
VERTEX
  8
0
 10
354.500000
 20
493.150582
 42
0.000000
  0
VERTEX
  8
0
 10
355.044457
 20
488.325291
 42
0.024129
  0
VERTEX
  8
0
 10
355.383656
 20
486.231496
 42
0.017250
  0
VERTEX
  8
0
 10
355.955596
 20
483.927801
 42
0.017476
  0
VERTEX
  8
0
 10
356.654888
 20
481.765563
 42
0.035335
  0
SEQEND
  0
POLYLINE
  8
0
 66
1
 70
1
  0
VERTEX
  8
0
 10
204.000000
 20
476.402248
 42
-0.106637
  0
VERTEX
  8
0
 10
203.907643
 20
475.974129
 42
-0.001533
  0
VERTEX
  8
0
 10
202.817855
 20
473.585363
 42
-0.004152
  0
VERTEX
  8
0
 10
201.518005
 20
470.819860
 42
-0.002717
  0
VERTEX
  8
0
 10
199.975675
 20
467.652248
 42
0.027369
  0
VERTEX
  8
0
 10
197.140941
 20
461.018378
 42
0.033810
  0
VERTEX
  8
0
 10
195.273760
 20
454.561785
 42
0.037006
  0
VERTEX
  8
0
 10
194.418081
 20
448.487025
 42
0.051436
  0
VERTEX
  8
0
 10
194.620223
 20
443.000000
 42
0.040254
  0
VERTEX
  8
0
 10
195.149348
 20
440.634599
 42
0.010481
  0
VERTEX
  8
0
 10
196.381520
 20
436.934961
 42
0.010586
  0
VERTEX
  8
0
 10
197.968448
 20
432.764895
 42
0.010635
  0
VERTEX
  8
0
 10
199.728162
 20
428.672207
 42
-0.023114
  0
VERTEX
  8
0
 10
202.843188
 20
420.898426
 42
-0.044016
  0
VERTEX
  8
0
 10
204.488092
 20
414.372754
 42
-0.049969
  0
VERTEX
  8
0
 10
204.850802
 20
408.241990
 42
-0.041006
  0
VERTEX
  8
0
 10
204.047321
 20
401.727946
 42
-0.014393
  0
VERTEX
  8
0
 10
203.060183
 20
397.577050
 42
-0.177258
  0
VERTEX
  8
0
 10
202.139336
 20
396.268270
 42
-0.488615
  0
VERTEX
  8
0
 10
201.265852
 20
396.540583
 42
-0.038256
  0
VERTEX
  8
0
 10
200.477587
 20
399.250000
 42
0.049798
  0
VERTEX
  8
0
 10
199.206692
 20
403.270571
 42
0.017963
  0
VERTEX
  8
0
 10
196.641393
 20
408.697129
 42
0.017884
  0
VERTEX
  8
0
 10
193.444656
 20
414.368371
 42
0.023060
  0
VERTEX
  8
0
 10
190.092370
 20
419.319666
 42
-0.011275
  0
VERTEX
  8
0
 10
188.446389
 20
421.631504
 42
-0.007945
  0
VERTEX
  8
0
 10
186.696905
 20
424.300152
 42
-0.008023
  0
VERTEX
  8
0
 10
185.104291
 20
426.907440
 42
-0.016666
  0
VERTEX
  8
0
 10
183.963911
 20
429.000000
 42
0.000000
  0
VERTEX
  8
0
 10
181.702677
 20
433.500000
 42
0.000000
  0
VERTEX
  8
0
 10
180.262320
 20
429.500000
 42
0.044842
  0
VERTEX
  8
0
 10
179.602019
 20
426.977409
 42
0.027734
  0
VERTEX
  8
0
 10
179.262513
 20
423.929534
 42
0.019796
  0
VERTEX
  8
0
 10
179.198762
 20
419.918489
 42
0.007252
  0
VERTEX
  8
0
 10
179.415390
 20
414.250000
 42
-0.006551
  0
VERTEX
  8
0
 10
179.600000
 20
409.590298
 42
-0.014624
  0
VERTEX
  8
0
 10
179.590245
 20
406.044018
 42
-0.009893
  0
VERTEX
  8
0
 10
179.451598
 20
403.368905
 42
-0.393404
  0
VERTEX
  8
0
 10
179.055299
 20
403.000000
 42
-0.219619
  0
VERTEX
  8
0
 10
177.854392
 20
403.554217
 42
-0.017062
  0
VERTEX
  8
0
 10
175.594666
 20
406.395229
 42
-0.021828
  0
VERTEX
  8
0
 10
173.163451
 20
409.993864
 42
-0.018377
  0
VERTEX
  8
0
 10
170.902771
 20
414.000000
 42
-0.031921
  0
VERTEX
  8
0
 10
169.717653
 20
416.703104
 42
-0.043709
  0
VERTEX
  8
0
 10
169.029799
 20
419.268075
 42
-0.033584
  0
VERTEX
  8
0
 10
168.693495
 20
422.384372
 42
-0.011029
  0
VERTEX
  8
0
 10
168.609009
 20
427.000000
 42
-0.056019
  0
VERTEX
  8
0
 10
169.782874
 20
437.102610
 42
-0.053241
  0
VERTEX
  8
0
 10
173.174424
 20
446.877210
 42
-0.049325
  0
VERTEX
  8
0
 10
178.840145
 20
456.352046
 42
-0.036991
  0
VERTEX
  8
0
 10
186.780896
 20
465.563504
 42
-0.029173
  0
VERTEX
  8
0
 10
191.977459
 20
470.186631
 42
-0.026741
  0
VERTEX
  8
0
 10
197.825136
 20
474.319713
 42
-0.025234
  0
VERTEX
  8
0
 10
202.829598
 20
477.127832
 42
-0.556632
  0
SEQEND
  0
POLYLINE
  8
0
 66
1
 70
1
  0
VERTEX
  8
0
 10
358.500000
 20
450.000000
 42
-0.026053
  0
VERTEX
  8
0
 10
359.126050
 20
449.231291
 42
-0.061723
  0
VERTEX
  8
0
 10
359.484545
 20
448.587500
 42
-0.143955
  0
VERTEX
  8
0
 10
359.525133
 20
448.178249
 42
-0.360419
  0
VERTEX
  8
0
 10
359.309975
 20
448.000000
 42
-0.125263
  0
VERTEX
  8
0
 10
358.807605
 20
448.127863
 42
-0.030037
  0
VERTEX
  8
0
 10
358.072045
 20
448.587500
 42
-0.028998
  0
VERTEX
  8
0
 10
357.266344
 20
449.234451
 42
-0.025182
  0
VERTEX
  8
0
 10
356.500000
 20
450.000000
 42
-0.026053
  0
VERTEX
  8
0
 10
355.873950
 20
450.768709
 42
-0.061723
  0
VERTEX
  8
0
 10
355.515455
 20
451.412500
 42
-0.143955
  0
VERTEX
  8
0
 10
355.474867
 20
451.821751
 42
-0.360419
  0
VERTEX
  8
0
 10
355.690025
 20
452.000000
 42
-0.125263
  0
VERTEX
  8
0
 10
356.192395
 20
451.872137
 42
-0.030037
  0
VERTEX
  8
0
 10
356.927955
 20
451.412500
 42
-0.028998
  0
VERTEX
  8
0
 10
357.733656
 20
450.765549
 42
-0.025182
  0
SEQEND
  0
POLYLINE
  8
0
 66
1
 70
1
  0
VERTEX
  8
0
 10
316.819375
 20
445.063055
 42
-0.080803
  0
VERTEX
  8
0
 10
326.868006
 20
437.695228
 42
-0.082556
  0
VERTEX
  8
0
 10
333.975661
 20
427.571676
 42
-0.089694
  0
VERTEX
  8
0
 10
337.031396
 20
416.464871
 42
-0.121937
  0
VERTEX
  8
0
 10
335.452272
 20
406.231529
 42
-0.038243
  0
VERTEX
  8
0
 10
334.019918
 20
403.427232
 42
-0.032090
  0
VERTEX
  8
0
 10
332.099047
 20
400.695410
 42
-0.029186
  0
VERTEX
  8
0
 10
330.145471
 20
398.535799
 42
-0.196755
  0
VERTEX
  8
0
 10
328.836591
 20
398.000000
 42
-0.398686
  0
VERTEX
  8
0
 10
328.531757
 20
398.289002
 42
-0.008069
  0
VERTEX
  8
0
 10
328.445782
 20
400.601099
 42
-0.014384
  0
VERTEX
  8
0
 10
328.467895
 20
403.459478
 42
-0.008590
  0
VERTEX
  8
0
 10
328.650341
 20
406.854806
 42
0.007196
  0
VERTEX
  8
0
 10
328.896666
 20
411.212136
 42
0.027166
  0
VERTEX
  8
0
 10
328.863229
 20
413.944060
 42
0.042972
  0
VERTEX
  8
0
 10
328.595755
 20
415.684980
 42
0.197220
  0
VERTEX
  8
0
 10
328.007759
 20
416.495204
 42
0.121455
  0
VERTEX
  8
0
 10
327.408399
 20
416.688418
 42
0.131164
  0
VERTEX
  8
0
 10
326.806593
 20
416.572231
 42
0.103134
  0
VERTEX
  8
0
 10
326.235518
 20
416.131665
 42
0.054735
  0
VERTEX
  8
0
 10
325.729698
 20
415.390398
 42
-0.071446
  0
VERTEX
  8
0
 10
323.607311
 20
412.492204
 42
-0.014331
  0
VERTEX
  8
0
 10
318.988949
 20
408.037153
 42
-0.015736
  0
VERTEX
  8
0
 10
313.999371
 20
403.772090
 42
-0.043931
  0
VERTEX
  8
0
 10
310.171383
 20
401.220140
 42
0.000000
  0
VERTEX
  8
0
 10
306.000000
 20
398.940281
 42
0.000000
  0
VERTEX
  8
0
 10
306.000000
 20
401.044772
 42
-0.086670
  0
VERTEX
  8
0
 10
306.214860
 20
402.274994
 42
-0.011358
  0
VERTEX
  8
0
 10
307.175000
 20
404.761289
 42
-0.012923
  0
VERTEX
  8
0
 10
308.468386
 20
407.680334
 42
-0.010492
  0
VERTEX
  8
0
 10
310.000000
 20
410.741505
 42
0.012198
  0
VERTEX
  8
0
 10
312.079069
 20
414.932519
 42
0.035524
  0
VERTEX
  8
0
 10
313.232036
 20
417.948955
 42
0.044383
  0
VERTEX
  8
0
 10
313.805248
 20
420.700774
 42
0.029611
  0
VERTEX
  8
0
 10
313.990231
 20
423.916874
 42
0.053288
  0
VERTEX
  8
0
 10
313.456977
 20
428.824925
 42
0.043112
  0
VERTEX
  8
0
 10
311.885786
 20
433.888569
 42
0.041663
  0
VERTEX
  8
0
 10
309.396498
 20
438.785234
 42
0.041759
  0
VERTEX
  8
0
 10
306.131533
 20
443.197411
 42
-0.019254
  0
VERTEX
  8
0
 10
304.932692
 20
444.673769
 42
-0.022743
  0
VERTEX
  8
0
 10
303.919888
 20
446.160394
 42
-0.022390
  0
VERTEX
  8
0
 10
303.189065
 20
447.473709
 42
-0.116276
  0
VERTEX
  8
0
 10
303.000000
 20
448.275718
 42
-0.413393
  0
VERTEX
  8
0
 10
303.967902
 20
449.246334
 42
-0.057869
  0
VERTEX
  8
0
 10
307.083934
 20
448.893321
 42
-0.039628
  0
VERTEX
  8
0
 10
311.548588
 20
447.474814
 42
-0.021145
  0
SEQEND
  0
POLYLINE
  8
0
 66
1
 70
1
  0
VERTEX
  8
0
 10
409.492526
 20
405.944867
 42
-0.056087
  0
VERTEX
  8
0
 10
415.079570
 20
402.383940
 42
-0.031815
  0
VERTEX
  8
0
 10
420.993159
 20
396.950611
 42
-0.031420
  0
VERTEX
  8
0
 10
426.311375
 20
390.652855
 42
-0.045277
  0
VERTEX
  8
0
 10
430.108620
 20
384.430926
 42
-0.015344
  0
VERTEX
  8
0
 10
432.011461
 20
380.246397
 42
-0.045646
  0
VERTEX
  8
0
 10
432.956052
 20
377.244629
 42
-0.041975
  0
VERTEX
  8
0
 10
433.381065
 20
373.987114
 42
-0.011460
  0
VERTEX
  8
0
 10
433.500000
 20
368.798805
 42
-0.020995
  0
VERTEX
  8
0
 10
433.245986
 20
362.751962
 42
-0.087851
  0
VERTEX
  8
0
 10
432.316230
 20
359.245882
 42
-0.134077
  0
VERTEX
  8
0
 10
430.471374
 20
357.060176
 42
-0.078641
  0
VERTEX
  8
0
 10
427.362613
 20
355.572860
 42
-0.089836
  0
VERTEX
  8
0
 10
426.163156
 20
355.440276
 42
-0.315715
  0
VERTEX
  8
0
 10
425.591962
 20
355.902862
 42
-0.084937
  0
VERTEX
  8
0
 10
425.448221
 20
357.216561
 42
-0.004904
  0
VERTEX
  8
0
 10
425.733673
 20
361.270895
 42
0.016078
  0
VERTEX
  8
0
 10
425.899344
 20
364.723685
 42
0.042430
  0
VERTEX
  8
0
 10
425.728777
 20
367.191140
 42
0.049665
  0
VERTEX
  8
0
 10
425.167316
 20
369.362136
 42
0.029864
  0
VERTEX
  8
0
 10
424.100736
 20
371.802541
 42
0.014613
  0
VERTEX
  8
0
 10
423.220166
 20
373.410707
 42
0.021370
  0
VERTEX
  8
0
 10
422.345217
 20
374.766996
 42
0.017728
  0
VERTEX
  8
0
 10
421.560399
 20
375.796996
 42
0.224731
  0
VERTEX
  8
0
 10
421.131550
 20
376.000000
 42
0.231235
  0
VERTEX
  8
0
 10
420.715226
 20
375.796586
 42
0.020299
  0
VERTEX
  8
0
 10
420.012442
 20
374.814749
 42
0.023327
  0
VERTEX
  8
0
 10
419.241506
 20
373.510968
 42
0.015932
  0
VERTEX
  8
0
 10
418.484264
 20
371.965104
 42
-0.043012
  0
VERTEX
  8
0
 10
417.417501
 20
370.056215
 42
-0.016301
  0
VERTEX
  8
0
 10
415.621523
 20
367.583522
 42
-0.016005
  0
VERTEX
  8
0
 10
413.483512
 20
365.007683
 42
-0.018836
  0
VERTEX
  8
0
 10
411.293784
 20
362.715104
 42
0.009162
  0
VERTEX
  8
0
 10
409.075303
 20
360.480596
 42
0.008157
  0
VERTEX
  8
0
 10
406.850921
 20
358.079256
 42
0.008213
  0
VERTEX
  8
0
 10
404.921236
 20
355.854188
 42
0.024892
  0
VERTEX
  8
0
 10
403.711394
 20
354.256833
 42
-0.014606
  0
VERTEX
  8
0
 10
402.809678
 20
353.014006
 42
-0.020527
  0
VERTEX
  8
0
 10
401.929285
 20
351.964339
 42
-0.017348
  0
VERTEX
  8
0
 10
401.154441
 20
351.171088
 42
-0.190592
  0
VERTEX
  8
0
 10
400.750000
 20
351.006833
 42
-0.360491
  0
VERTEX
  8
0
 10
400.453745
 20
351.247812
 42
-0.015846
  0
VERTEX
  8
0
 10
400.220312
 20
352.656145
 42
-0.020638
  0
VERTEX
  8
0
 10
400.054003
 20
354.472678
 42
-0.012508
  0
VERTEX
  8
0
 10
400.000000
 20
356.631107
 42
-0.033111
  0
VERTEX
  8
0
 10
400.217386
 20
359.910203
 42
-0.034863
  0
VERTEX
  8
0
 10
400.865727
 20
363.074528
 42
-0.026419
  0
VERTEX
  8
0
 10
402.112156
 20
366.778383
 42
-0.009651
  0
VERTEX
  8
0
 10
404.250000
 20
371.881107
 42
0.008784
  0
VERTEX
  8
0
 10
406.643998
 20
377.567556
 42
0.035384
  0
VERTEX
  8
0
 10
407.793348
 20
381.153476
 42
0.043680
  0
VERTEX
  8
0
 10
408.303992
 20
384.484169
 42
0.018574
  0
VERTEX
  8
0
 10
408.429028
 20
389.000000
 42
0.014860
  0
VERTEX
  8
0
 10
408.269333
 20
393.073707
 42
0.036033
  0
VERTEX
  8
0
 10
407.846733
 20
396.052359
 42
0.040810
  0
VERTEX
  8
0
 10
407.039823
 20
398.712192
 42
0.024581
  0
VERTEX
  8
0
 10
405.679028
 20
401.716756
 42
-0.011191
  0
VERTEX
  8
0
 10
404.008615
 20
405.156821
 42
-0.040550
  0
VERTEX
  8
0
 10
403.178255
 20
407.441491
 42
-0.140136
  0
VERTEX
  8
0
 10
403.189883
 20
408.507297
 42
-0.462692
  0
VERTEX
  8
0
 10
403.750000
 20
408.753884
 42
-0.000690
  0
VERTEX
  8
0
 10
404.252501
 20
408.509045
 42
-0.000042
  0
VERTEX
  8
0
 10
405.746242
 20
407.778523
 42
-0.000063
  0
VERTEX
  8
0
 10
407.525551
 20
406.907877
 42
-0.000047
  0
SEQEND
  0
POLYLINE
  8
0
 66
1
 70
1
  0
VERTEX
  8
0
 10
229.409849
 20
397.497847
 42
-0.056606
  0
VERTEX
  8
0
 10
250.639050
 20
387.797160
 42
-0.065144
  0
VERTEX
  8
0
 10
268.061098
 20
373.942979
 42
-0.067395
  0
VERTEX
  8
0
 10
280.879294
 20
356.520131
 42
-0.067546
  0
VERTEX
  8
0
 10
288.590633
 20
336.328906
 42
-0.023330
  0
VERTEX
  8
0
 10
289.321613
 20
332.385343
 42
-0.019194
  0
VERTEX
  8
0
 10
289.741530
 20
328.124904
 42
-0.015466
  0
VERTEX
  8
0
 10
289.888683
 20
323.039907
 42
-0.007383
  0
VERTEX
  8
0
 10
289.779025
 20
316.500000
 42
-0.021012
  0
VERTEX
  8
0
 10
289.043226
 20
306.514160
 42
-0.040734
  0
VERTEX
  8
0
 10
287.477988
 20
298.671589
 42
-0.028127
  0
VERTEX
  8
0
 10
284.290634
 20
289.505588
 42
-0.005586
  0
VERTEX
  8
0
 10
277.494593
 20
273.523664
 42
0.017509
  0
VERTEX
  8
0
 10
273.251469
 20
262.845241
 42
0.030536
  0
VERTEX
  8
0
 10
270.599988
 20
253.698737
 42
0.035297
  0
VERTEX
  8
0
 10
269.328553
 20
245.316688
 42
0.037379
  0
VERTEX
  8
0
 10
269.284887
 20
237.000000
 42
0.032881
  0
VERTEX
  8
0
 10
270.304375
 20
229.505977
 42
0.046190
  0
VERTEX
  8
0
 10
272.254417
 20
223.048206
 42
0.050415
  0
VERTEX
  8
0
 10
275.184270
 20
217.506297
 42
0.052636
  0
VERTEX
  8
0
 10
279.127779
 20
212.750000
 42
0.013719
  0
VERTEX
  8
0
 10
282.038633
 20
210.060244
 42
0.062934
  0
VERTEX
  8
0
 10
283.942165
 20
208.777983
 42
0.082763
  0
VERTEX
  8
0
 10
285.845974
 20
208.184995
 42
0.034214
  0
VERTEX
  8
0
 10
288.546343
 20
208.000000
 42
0.049080
  0
VERTEX
  8
0
 10
292.508195
 20
208.389838
 42
0.066952
  0
VERTEX
  8
0
 10
295.899022
 20
209.550785
 42
0.074506
  0
VERTEX
  8
0
 10
298.586315
 20
211.438244
 42
0.083317
  0
VERTEX
  8
0
 10
300.483073
 20
213.967267
 42
0.072911
  0
VERTEX
  8
0
 10
301.657080
 20
217.376030
 42
0.091758
  0
VERTEX
  8
0
 10
301.667470
 20
220.708957
 42
0.056701
  0
VERTEX
  8
0
 10
300.390362
 20
224.939685
 42
0.012920
  0
VERTEX
  8
0
 10
297.250000
 20
231.745951
 42
-0.008035
  0
VERTEX
  8
0
 10
294.431566
 20
237.700870
 42
-0.040950
  0
VERTEX
  8
0
 10
293.196069
 20
241.148193
 42
-0.049954
  0
VERTEX
  8
0
 10
292.656605
 20
244.439675
 42
-0.015658
  0
VERTEX
  8
0
 10
292.500000
 20
249.439267
 42
-0.012060
  0
VERTEX
  8
0
 10
292.611543
 20
254.063010
 42
-0.041978
  0
VERTEX
  8
0
 10
293.004885
 20
257.022256
 42
-0.049933
  0
VERTEX
  8
0
 10
293.847457
 20
259.600728
 42
-0.022579
  0
VERTEX
  8
0
 10
295.429829
 20
262.788401
 42
-0.024389
  0
VERTEX
  8
0
 10
296.862866
 20
265.101355
 42
-0.014956
  0
VERTEX
  8
0
 10
298.761445
 20
267.686995
 42
-0.014983
  0
VERTEX
  8
0
 10
300.798886
 20
270.139405
 42
-0.025727
  0
VERTEX
  8
0
 10
302.657271
 20
272.038203
 42
-0.038943
  0
VERTEX
  8
0
 10
306.599090
 20
275.141069
 42
-0.021264
  0
VERTEX
  8
0
 10
311.859761
 20
278.341122
 42
-0.012378
  0
VERTEX
  8
0
 10
317.058913
 20
281.042720
 42
-0.320291
  0
VERTEX
  8
0
 10
318.537531
 20
280.795803
 42
-0.279387
  0
VERTEX
  8
0
 10
318.653261
 20
280.323944
 42
-0.012002
  0
VERTEX
  8
0
 10
318.078694
 20
278.637508
 42
-0.017527
  0
VERTEX
  8
0
 10
317.244796
 20
276.593841
 42
-0.011253
  0
VERTEX
  8
0
 10
316.142218
 20
274.281733
 42
0.035233
  0
VERTEX
  8
0
 10
313.564133
 20
268.133361
 42
0.039045
  0
VERTEX
  8
0
 10
311.979499
 20
261.889859
 42
0.041860
  0
VERTEX
  8
0
 10
311.460343
 20
255.926298
 42
0.058612
  0
VERTEX
  8
0
 10
312.067764
 20
250.617681
 42
0.025868
  0
VERTEX
  8
0
 10
313.364467
 20
246.154364
 42
0.031162
  0
VERTEX
  8
0
 10
315.052090
 20
242.126540
 42
0.024352
  0
VERTEX
  8
0
 10
317.555004
 20
237.628394
 42
0.008935
  0
VERTEX
  8
0
 10
321.507549
 20
231.520269
 42
-0.021602
  0
VERTEX
  8
0
 10
328.433280
 20
220.198801
 42
-0.046712
  0
VERTEX
  8
0
 10
332.521385
 20
210.855568
 42
-0.053705
  0
VERTEX
  8
0
 10
334.471807
 20
201.784313
 42
-0.038888
  0
VERTEX
  8
0
 10
334.748431
 20
191.443102
 42
-0.023507
  0
VERTEX
  8
0
 10
333.939037
 20
183.210330
 42
-0.059142
  0
VERTEX
  8
0
 10
332.373666
 20
177.399702
 42
-0.068651
  0
VERTEX
  8
0
 10
329.658114
 20
172.639073
 42
-0.041583
  0
VERTEX
  8
0
 10
325.283187
 20
167.834134
 42
-0.048029
  0
VERTEX
  8
0
 10
317.828380
 20
162.130346
 42
-0.057999
  0
VERTEX
  8
0
 10
309.863458
 20
158.368423
 42
-0.056350
  0
VERTEX
  8
0
 10
301.057062
 20
156.465579
 42
-0.041764
  0
VERTEX
  8
0
 10
291.091540
 20
156.298702
 42
-0.021079
  0
VERTEX
  8
0
 10
284.267774
 20
157.044671
 42
-0.039150
  0
VERTEX
  8
0
 10
278.848230
 20
158.309613
 42
-0.039501
  0
VERTEX
  8
0
 10
273.724032
 20
160.395127
 42
-0.021882
  0
VERTEX
  8
0
 10
267.824448
 20
163.689218
 42
-0.072623
  0
VERTEX
  8
0
 10
255.805992
 20
173.770967
 42
-0.060221
  0
VERTEX
  8
0
 10
246.264894
 20
187.494574
 42
-0.058911
  0
VERTEX
  8
0
 10
240.096368
 20
203.420353
 42
-0.063050
  0
VERTEX
  8
0
 10
238.000171
 20
219.979901
 42
-0.027786
  0
VERTEX
  8
0
 10
238.684517
 20
232.280889
 42
-0.040528
  0
VERTEX
  8
0
 10
240.756707
 20
242.932332
 42
-0.037419
  0
VERTEX
  8
0
 10
244.667190
 20
253.713365
 42
-0.019589
  0
VERTEX
  8
0
 10
251.033205
 20
266.500000
 42
0.006181
  0
VERTEX
  8
0
 10
258.423729
 20
280.397606
 42
0.008658
  0
VERTEX
  8
0
 10
264.654488
 20
293.002916
 42
0.008965
  0
VERTEX
  8
0
 10
269.391437
 20
303.502047
 42
0.039313
  0
VERTEX
  8
0
 10
271.577188
 20
309.939625
 42
0.047135
  0
VERTEX
  8
0
 10
272.660706
 20
316.895351
 42
0.022509
  0
VERTEX
  8
0
 10
272.799480
 20
325.952205
 42
0.022343
  0
VERTEX
  8
0
 10
272.137180
 20
334.841712
 42
0.056183
  0
VERTEX
  8
0
 10
270.650165
 20
341.155788
 42
0.020478
  0
VERTEX
  8
0
 10
269.707954
 20
343.484351
 42
0.006945
  0
VERTEX
  8
0
 10
268.153589
 20
346.791749
 42
0.006893
  0
VERTEX
  8
0
 10
266.332920
 20
350.402697
 42
0.007873
  0
VERTEX
  8
0
 10
264.489972
 20
353.804122
 42
0.042415
  0
VERTEX
  8
0
 10
259.510638
 20
361.128467
 42
0.027314
  0
VERTEX
  8
0
 10
252.610786
 20
368.739063
 42
0.027530
  0
VERTEX
  8
0
 10
245.170274
 20
375.326785
 42
0.057001
  0
VERTEX
  8
0
 10
238.585908
 20
379.416033
 42
-0.028557
  0
VERTEX
  8
0
 10
235.963994
 20
380.844908
 42
-0.032904
  0
VERTEX
  8
0
 10
233.649374
 20
382.503841
 42
-0.032974
  0
VERTEX
  8
0
 10
231.576478
 20
384.448802
 42
-0.028906
  0
VERTEX
  8
0
 10
229.677602
 20
386.733154
 42
0.011420
  0
VERTEX
  8
0
 10
228.072946
 20
388.806923
 42
0.007709
  0
VERTEX
  8
0
 10
226.153176
 20
391.100972
 42
0.007768
  0
VERTEX
  8
0
 10
224.227256
 20
393.262744
 42
0.015299
  0
VERTEX
  8
0
 10
222.618979
 20
394.908452
 42
-0.026261
  0
VERTEX
  8
0
 10
220.648573
 20
397.015154
 42
-0.095139
  0
VERTEX
  8
0
 10
219.757098
 20
398.609781
 42
-0.268538
  0
VERTEX
  8
0
 10
219.954957
 20
399.563106
 42
-0.213524
  0
VERTEX
  8
0
 10
220.931372
 20
400.000000
 42
-0.069665
  0
VERTEX
  8
0
 10
221.500512
 20
399.920315
 42
-0.002190
  0
VERTEX
  8
0
 10
223.757427
 20
399.264992
 42
-0.004226
  0
VERTEX
  8
0
 10
226.413894
 20
398.456550
 42
-0.002913
  0
SEQEND
  0
POLYLINE
  8
0
 66
1
 70
1
  0
VERTEX
  8
0
 10
387.833333
 20
386.108933
 42
-0.113891
  0
VERTEX
  8
0
 10
387.489204
 20
385.589108
 42
-0.006508
  0
VERTEX
  8
0
 10
386.070413
 20
384.277394
 42
-0.009668
  0
VERTEX
  8
0
 10
384.316253
 20
382.757856
 42
-0.006930
  0
VERTEX
  8
0
 10
382.299987
 20
381.125192
 42
0.041813
  0
VERTEX
  8
0
 10
373.689163
 20
373.097402
 42
0.058066
  0
VERTEX
  8
0
 10
367.559066
 20
364.526109
 42
0.062833
  0
VERTEX
  8
0
 10
363.897990
 20
355.342509
 42
0.062094
  0
VERTEX
  8
0
 10
362.613065
 20
345.500000
 42
0.015341
  0
VERTEX
  8
0
 10
362.731581
 20
340.740375
 42
0.042206
  0
VERTEX
  8
0
 10
363.199569
 20
337.417966
 42
0.038362
  0
VERTEX
  8
0
 10
364.245494
 20
334.048533
 42
0.010942
  0
VERTEX
  8
0
 10
366.377335
 20
329.000000
 42
-0.005910
  0
VERTEX
  8
0
 10
367.975902
 20
325.318172
 42
-0.004609
  0
VERTEX
  8
0
 10
369.628440
 20
321.281641
 42
-0.004661
  0
VERTEX
  8
0
 10
371.098353
 20
317.492309
 42
-0.011298
  0
VERTEX
  8
0
 10
372.093942
 20
314.660906
 42
-0.041088
  0
VERTEX
  8
0
 10
373.290836
 20
309.626173
 42
-0.025005
  0
VERTEX
  8
0
 10
373.909459
 20
303.538118
 42
-0.021807
  0
VERTEX
  8
0
 10
373.952737
 20
297.887163
 42
-0.132940
  0
VERTEX
  8
0
 10
373.096491
 20
295.121885
 42
-0.164519
  0
VERTEX
  8
0
 10
372.213091
 20
294.407411
 42
-0.202002
  0
VERTEX
  8
0
 10
371.162099
 20
294.454409
 42
-0.166365
  0
VERTEX
  8
0
 10
370.311921
 20
295.283826
 42
-0.117549
  0
VERTEX
  8
0
 10
370.000000
 20
296.592261
 42
0.112595
  0
VERTEX
  8
0
 10
369.373498
 20
299.339105
 42
0.017110
  0
VERTEX
  8
0
 10
366.744818
 20
304.355142
 42
0.019371
  0
VERTEX
  8
0
 10
363.312757
 20
309.882523
 42
0.020581
  0
VERTEX
  8
0
 10
359.527846
 20
315.013508
 42
-0.025946
  0
VERTEX
  8
0
 10
354.345974
 20
322.198284
 42
-0.041577
  0
VERTEX
  8
0
 10
350.790964
 20
328.865714
 42
-0.047618
  0
VERTEX
  8
0
 10
348.720374
 20
335.294797
 42
-0.053517
  0
VERTEX
  8
0
 10
348.010824
 20
341.750000
 42
0.023299
  0
VERTEX
  8
0
 10
347.930726
 20
343.378767
 42
0.037198
  0
VERTEX
  8
0
 10
347.694951
 20
344.751562
 42
0.042973
  0
VERTEX
  8
0
 10
347.357758
 20
345.734895
 42
0.296932
  0
VERTEX
  8
0
 10
346.950710
 20
346.000000
 42
0.249141
  0
VERTEX
  8
0
 10
346.394111
 20
345.704303
 42
0.010818
  0
VERTEX
  8
0
 10
345.159373
 20
343.788418
 42
0.016239
  0
VERTEX
  8
0
 10
343.772190
 20
341.356471
 42
0.010633
  0
VERTEX
  8
0
 10
342.326013
 20
338.471211
 42
0.013324
  0
VERTEX
  8
0
 10
340.372086
 20
334.056984
 42
0.039618
  0
VERTEX
  8
0
 10
339.360772
 20
330.909378
 42
0.041482
  0
VERTEX
  8
0
 10
338.882984
 20
327.721466
 42
0.015739
  0
VERTEX
  8
0
 10
338.728229
 20
323.221211
 42
0.015860
  0
VERTEX
  8
0
 10
338.828265
 20
319.751077
 42
0.017846
  0
VERTEX
  8
0
 10
339.148927
 20
316.429008
 42
0.019305
  0
VERTEX
  8
0
 10
339.654949
 20
313.490308
 42
0.037846
  0
VERTEX
  8
0
 10
340.321513
 20
311.213306
 42
0.000000
  0
VERTEX
  8
0
 10
341.937175
 20
306.926612
 42
0.000000
  0
VERTEX
  8
0
 10
339.261851
 20
305.909456
 42
-0.028414
  0
VERTEX
  8
0
 10
337.984155
 20
305.505089
 42
-0.014252
  0
VERTEX
  8
0
 10
336.331569
 20
305.133470
 42
-0.014104
  0
VERTEX
  8
0
 10
334.595258
 20
304.845272
 42
-0.020247
  0
VERTEX
  8
0
 10
333.043263
 20
304.696150
 42
-0.033582
  0
VERTEX
  8
0
 10
331.016427
 20
304.720141
 42
-0.121993
  0
VERTEX
  8
0
 10
329.803435
 20
305.124484
 42
-0.112099
  0
VERTEX
  8
0
 10
328.863227
 20
306.069242
 42
-0.026176
  0
VERTEX
  8
0
 10
327.770028
 20
308.035692
 42
-0.037248
  0
VERTEX
  8
0
 10
327.025690
 20
309.896143
 42
-0.012296
  0
VERTEX
  8
0
 10
326.207251
 20
312.726074
 42
-0.012169
  0
VERTEX
  8
0
 10
325.450648
 20
315.920004
 42
-0.013509
  0
VERTEX
  8
0
 10
324.879258
 20
319.037937
 42
-0.014968
  0
VERTEX
  8
0
 10
324.341892
 20
323.338870
 42
-0.032161
  0
VERTEX
  8
0
 10
324.241499
 20
326.677215
 42
-0.029988
  0
VERTEX
  8
0
 10
324.568885
 20
330.142622
 42
-0.011443
  0
VERTEX
  8
0
 10
325.423113
 20
334.917305
 42
-0.019829
  0
VERTEX
  8
0
 10
327.006133
 20
341.398096
 42
-0.035805
  0
VERTEX
  8
0
 10
328.883276
 20
346.527720
 42
-0.033469
  0
VERTEX
  8
0
 10
331.563435
 20
351.561007
 42
-0.015073
  0
VERTEX
  8
0
 10
335.706479
 20
357.797842
 42
-0.057258
  0
VERTEX
  8
0
 10
344.258291
 20
367.336799
 42
-0.042260
  0
VERTEX
  8
0
 10
355.633300
 20
375.824568
 42
-0.041995
  0
VERTEX
  8
0
 10
368.371285
 20
382.337387
 42
-0.054022
  0
VERTEX
  8
0
 10
381.000000
 20
385.979230
 42
-0.003457
  0
VERTEX
  8
0
 10
385.195304
 20
386.681719
 42
-0.035018
  0
VERTEX
  8
0
 10
386.956596
 20
386.838864
 42
-0.157300
  0
VERTEX
  8
0
 10
387.672155
 20
386.622941
 42
-0.343546
  0
SEQEND
  0
POLYLINE
  8
0
 66
1
 70
1
  0
VERTEX
  8
0
 10
217.945187
 20
342.191590
 42
-0.045047
  0
VERTEX
  8
0
 10
220.422265
 20
333.427394
 42
-0.037985
  0
VERTEX
  8
0
 10
221.476006
 20
323.841228
 42
-0.032164
  0
VERTEX
  8
0
 10
221.135734
 20
312.781203
 42
-0.018263
  0
VERTEX
  8
0
 10
219.377992
 20
299.500000
 42
0.000000
  0
VERTEX
  8
0
 10
218.699164
 20
295.500000
 42
0.000000
  0
VERTEX
  8
0
 10
220.849582
 20
297.404988
 42
-0.054828
  0
VERTEX
  8
0
 10
222.403425
 20
298.503550
 42
-0.677928
  0
VERTEX
  8
0
 10
222.798797
 20
298.180113
 42
-0.075474
  0
VERTEX
  8
0
 10
221.918905
 20
296.390870
 42
-0.010229
  0
VERTEX
  8
0
 10
219.456119
 20
293.000000
 42
0.018871
  0
VERTEX
  8
0
 10
210.819594
 20
280.666117
 42
0.020023
  0
VERTEX
  8
0
 10
203.317488
 20
267.952609
 42
0.021428
  0
VERTEX
  8
0
 10
197.551265
 20
256.022015
 42
0.044238
  0
VERTEX
  8
0
 10
194.305475
 20
246.192757
 42
0.038486
  0
VERTEX
  8
0
 10
192.933201
 20
237.328536
 42
0.019967
  0
VERTEX
  8
0
 10
192.521686
 20
226.128834
 42
0.019753
  0
VERTEX
  8
0
 10
192.987650
 20
215.223800
 42
0.051212
  0
VERTEX
  8
0
 10
194.429399
 20
207.500000
 42
-0.004737
  0
VERTEX
  8
0
 10
196.859164
 20
198.966794
 42
-0.212080
  0
VERTEX
  8
0
 10
196.589733
 20
197.184563
 42
-0.477062
  0
VERTEX
  8
0
 10
195.411690
 20
197.051435
 42
-0.010261
  0
VERTEX
  8
0
 10
190.788627
 20
201.794888
 42
-0.029168
  0
VERTEX
  8
0
 10
188.581907
 20
204.448532
 42
-0.024954
  0
VERTEX
  8
0
 10
186.572521
 20
207.479110
 42
-0.022676
  0
VERTEX
  8
0
 10
184.705136
 20
210.978033
 42
-0.016200
  0
VERTEX
  8
0
 10
182.925431
 20
215.044888
 42
-0.013883
  0
VERTEX
  8
0
 10
180.907946
 20
220.531859
 42
-0.044635
  0
VERTEX
  8
0
 10
180.001273
 20
224.312608
 42
-0.031943
  0
VERTEX
  8
0
 10
179.631401
 20
228.796945
 42
-0.004590
  0
VERTEX
  8
0
 10
179.546261
 20
238.000000
 42
-0.005085
  0
VERTEX
  8
0
 10
179.636662
 20
246.950970
 42
-0.028631
  0
VERTEX
  8
0
 10
180.006816
 20
251.716663
 42
-0.037872
  0
VERTEX
  8
0
 10
180.882755
 20
255.816874
 42
-0.013156
  0
VERTEX
  8
0
 10
182.742288
 20
261.572651
 42
-0.015502
  0
VERTEX
  8
0
 10
184.377835
 20
265.791987
 42
-0.007687
  0
VERTEX
  8
0
 10
186.698841
 20
271.043244
 42
-0.007621
  0
VERTEX
  8
0
 10
189.274203
 20
276.418659
 42
-0.011077
  0
VERTEX
  8
0
 10
191.721922
 20
281.072651
 42
0.007576
  0
VERTEX
  8
0
 10
197.196344
 20
291.306905
 42
0.010257
  0
VERTEX
  8
0
 10
201.810199
 20
300.725170
 42
0.007600
  0
VERTEX
  8
0
 10
205.360126
 20
308.678499
 42
0.101499
  0
VERTEX
  8
0
 10
206.000000
 20
311.798142
 42
-0.044066
  0
VERTEX
  8
0
 10
206.097620
 20
312.903640
 42
-0.017396
  0
VERTEX
  8
0
 10
206.417610
 20
314.398053
 42
-0.017058
  0
VERTEX
  8
0
 10
206.877368
 20
315.997882
 42
-0.020460
  0
VERTEX
  8
0
 10
207.421651
 20
317.466726
 42
0.049935
  0
VERTEX
  8
0
 10
209.017717
 20
322.700571
 42
0.021142
  0
VERTEX
  8
0
 10
210.144510
 20
329.962903
 42
0.020601
  0
VERTEX
  8
0
 10
210.705484
 20
337.911888
 42
0.024666
  0
VERTEX
  8
0
 10
210.554957
 20
345.413502
 42
0.000000
  0
VERTEX
  8
0
 10
209.923472
 20
354.500000
 42
0.000000
  0
VERTEX
  8
0
 10
212.855445
 20
351.165093
 42
-0.035031
  0
VERTEX
  8
0
 10
214.133113
 20
349.488438
 42
-0.016295
  0
VERTEX
  8
0
 10
215.559996
 20
347.153477
 42
-0.016053
  0
VERTEX
  8
0
 10
216.904730
 20
344.594571
 42
-0.021568
  0
SEQEND
  0
POLYLINE
  8
0
 66
1
 70
1
  0
VERTEX
  8
0
 10
746.347972
 20
813.750000
 42
0.028663
  0
VERTEX
  8
0
 10
745.178919
 20
812.272866
 42
0.002985
  0
VERTEX
  8
0
 10
742.657427
 20
808.635938
 42
0.003698
  0
VERTEX
  8
0
 10
739.709242
 20
804.259781
 42
0.002953
  0
VERTEX
  8
0
 10
736.593847
 20
799.500000
 42
-0.002249
  0
VERTEX
  8
0
 10
733.120674
 20
794.177270
 42
-0.001484
  0
VERTEX
  8
0
 10
729.081857
 20
788.087500
 42
-0.001493
  0
VERTEX
  8
0
 10
725.118888
 20
782.188635
 42
-0.002890
  0
VERTEX
  8
0
 10
721.908968
 20
777.500000
 42
0.000506
  0
VERTEX
  8
0
 10
719.082745
 20
773.413753
 42
0.000539
  0
VERTEX
  8
0
 10
716.322533
 20
769.405063
 42
0.000512
  0
VERTEX
  8
0
 10
713.954300
 20
765.950131
 42
0.002495
  0
VERTEX
  8
0
 10
712.624786
 20
763.985320
 42
-0.011453
  0
VERTEX
  8
0
 10
711.615300
 20
762.549565
 42
-0.011003
  0
VERTEX
  8
0
 10
710.527938
 20
761.141892
 42
-0.010995
  0
VERTEX
  8
0
 10
709.515173
 20
759.943662
 42
-0.038612
  0
VERTEX
  8
0
 10
708.790475
 20
759.241073
 42
0.062488
  0
VERTEX
  8
0
 10
708.100370
 20
758.505118
 42
0.017139
  0
VERTEX
  8
0
 10
707.208728
 20
757.185361
 42
0.017044
  0
VERTEX
  8
0
 10
706.292868
 20
755.607111
 42
0.017024
  0
VERTEX
  8
0
 10
705.486261
 20
753.969531
 42
0.012594
  0
VERTEX
  8
0
 10
704.393865
 20
751.374544
 42
0.100952
  0
VERTEX
  8
0
 10
704.173040
 20
750.103652
 42
0.128300
  0
VERTEX
  8
0
 10
704.501420
 20
748.980276
 42
0.025069
  0
VERTEX
  8
0
 10
705.683486
 20
747.213779
 42
0.058131
  0
VERTEX
  8
0
 10
707.099254
 20
745.712168
 42
0.094821
  0
VERTEX
  8
0
 10
708.622714
 20
744.860793
 42
0.054784
  0
VERTEX
  8
0
 10
710.897745
 20
744.373337
 42
0.009110
  0
VERTEX
  8
0
 10
715.364161
 20
744.000000
 42
-0.012180
  0
VERTEX
  8
0
 10
718.302418
 20
743.736221
 42
-0.019742
  0
VERTEX
  8
0
 10
720.780626
 20
743.353125
 42
-0.014547
  0
VERTEX
  8
0
 10
722.715401
 20
742.916524
 42
-0.336724
  0
VERTEX
  8
0
 10
723.045505
 20
742.500000
 42
-0.173102
  0
VERTEX
  8
0
 10
722.329939
 20
740.356794
 42
-0.003606
  0
VERTEX
  8
0
 10
715.222056
 20
731.426574
 42
-0.008956
  0
VERTEX
  8
0
 10
708.141074
 20
722.974904
 42
-0.027158
  0
VERTEX
  8
0
 10
702.922717
 20
717.588934
 42
-0.033108
  0
VERTEX
  8
0
 10
698.051301
 20
713.643896
 42
-0.022534
  0
VERTEX
  8
0
 10
692.043491
 20
709.797688
 42
-0.020090
  0
VERTEX
  8
0
 10
686.279323
 20
706.765808
 42
-0.111470
  0
VERTEX
  8
0
 10
682.886963
 20
706.000000
 42
-0.099540
  0
VERTEX
  8
0
 10
682.084485
 20
706.161357
 42
-0.047248
  0
VERTEX
  8
0
 10
681.150746
 20
706.660938
 42
-0.044259
  0
VERTEX
  8
0
 10
680.239330
 20
707.389208
 42
-0.047671
  0
VERTEX
  8
0
 10
679.495099
 20
708.250000
 42
0.001709
  0
VERTEX
  8
0
 10
678.600241
 20
709.500677
 42
0.000364
  0
VERTEX
  8
0
 10
677.033769
 20
711.670947
 42
0.000380
  0
VERTEX
  8
0
 10
675.214429
 20
714.183668
 42
0.000362
  0
VERTEX
  8
0
 10
673.360482
 20
716.736204
 42
-0.012697
  0
VERTEX
  8
0
 10
671.652294
 20
719.214393
 42
-0.018194
  0
VERTEX
  8
0
 10
670.276639
 20
721.500378
 42
-0.014228
  0
VERTEX
  8
0
 10
669.281365
 20
723.426739
 42
-0.194961
  0
VERTEX
  8
0
 10
669.232483
 20
724.197448
 42
-0.187543
  0
VERTEX
  8
0
 10
669.631345
 20
724.678238
 42
-0.046208
  0
VERTEX
  8
0
 10
670.587522
 20
725.099674
 42
-0.040909
  0
VERTEX
  8
0
 10
671.851853
 20
725.410434
 42
-0.031142
  0
VERTEX
  8
0
 10
673.271959
 20
725.548585
 42
0.050552
  0
VERTEX
  8
0
 10
675.930004
 20
725.911593
 42
0.076136
  0
VERTEX
  8
0
 10
678.090062
 20
726.796283
 42
0.098153
  0
VERTEX
  8
0
 10
679.499215
 20
728.073654
 42
0.161055
  0
VERTEX
  8
0
 10
680.000000
 20
729.588034
 42
0.135600
  0
VERTEX
  8
0
 10
679.569328
 20
731.146865
 42
0.002423
  0
VERTEX
  8
0
 10
675.041199
 20
738.633613
 42
0.006719
  0
VERTEX
  8
0
 10
670.500668
 20
745.839965
 42
0.016297
  0
VERTEX
  8
0
 10
666.907508
 20
751.000000
 42
-0.017053
  0
VERTEX
  8
0
 10
665.826429
 20
752.557522
 42
-0.002172
  0
VERTEX
  8
0
 10
663.630097
 20
755.996875
 42
-0.002542
  0
VERTEX
  8
0
 10
661.060852
 20
760.105065
 42
-0.002113
  0
VERTEX
  8
0
 10
658.368875
 20
764.500000
 42
0.003518
  0
VERTEX
  8
0
 10
650.869584
 20
776.666495
 42
0.021396
  0
VERTEX
  8
0
 10
646.680897
 20
782.760219
 42
0.042378
  0
VERTEX
  8
0
 10
643.693805
 20
786.100118
 42
0.135876
  0
VERTEX
  8
0
 10
641.078274
 20
787.482808
 42
0.125081
  0
VERTEX
  8
0
 10
637.518118
 20
787.366474
 42
0.127003
  0
VERTEX
  8
0
 10
634.468717
 20
785.562587
 42
0.046219
  0
VERTEX
  8
0
 10
630.668333
 20
780.972778
 42
0.004513
  0
VERTEX
  8
0
 10
622.648655
 20
769.000000
 42
-0.001426
  0
VERTEX
  8
0
 10
614.565921
 20
756.770451
 42
-0.004465
  0
VERTEX
  8
0
 10
609.035000
 20
748.612540
 42
-0.006544
  0
VERTEX
  8
0
 10
604.853919
 20
742.728774
 42
-0.012684
  0
VERTEX
  8
0
 10
601.334041
 20
738.158332
 42
0.014790
  0
VERTEX
  8
0
 10
599.674515
 20
735.984620
 42
0.018531
  0
VERTEX
  8
0
 10
598.273124
 20
733.870734
 42
0.016942
  0
VERTEX
  8
0
 10
597.240119
 20
732.043248
 42
0.120732
  0
VERTEX
  8
0
 10
597.000000
 20
731.063319
 42
0.144620
  0
VERTEX
  8
0
 10
597.585231
 20
729.082297
 42
0.105071
  0
VERTEX
  8
0
 10
599.217471
 20
727.445066
 42
0.085073
  0
VERTEX
  8
0
 10
601.717225
 20
726.365089
 42
0.059589
  0
VERTEX
  8
0
 10
604.769724
 20
726.000000
 42
-0.022508
  0
VERTEX
  8
0
 10
606.389427
 20
725.927052
 42
-0.029440
  0
VERTEX
  8
0
 10
607.854927
 20
725.707245
 42
-0.029855
  0
VERTEX
  8
0
 10
609.011731
 20
725.390285
 42
-0.174256
  0
VERTEX
  8
0
 10
609.497907
 20
725.003387
 42
-0.303729
  0
VERTEX
  8
0
 10
609.445828
 20
723.564381
 42
-0.003859
  0
VERTEX
  8
0
 10
603.776972
 20
715.848587
 42
-0.011180
  0
VERTEX
  8
0
 10
597.670067
 20
708.040060
 42
-0.015272
  0
VERTEX
  8
0
 10
591.804279
 20
701.306339
 42
0.020977
  0
VERTEX
  8
0
 10
588.085319
 20
696.937467
 42
0.063838
  0
VERTEX
  8
0
 10
586.099028
 20
693.591762
 42
0.100748
  0
VERTEX
  8
0
 10
585.510826
 20
690.797043
 42
0.125152
  0
VERTEX
  8
0
 10
586.146398
 20
688.226452
 42
0.085273
  0
VERTEX
  8
0
 10
587.166621
 20
686.916059
 42
0.131500
  0
VERTEX
  8
0
 10
588.434656
 20
686.259720
 42
0.056085
  0
VERTEX
  8
0
 10
590.584735
 20
686.035129
 42
0.005831
  0
VERTEX
  8
0
 10
595.671841
 20
686.135030
 42
-0.008563
  0
VERTEX
  8
0
 10
598.893145
 20
686.180687
 42
-0.012534
  0
VERTEX
  8
0
 10
601.727433
 20
686.101251
 42
-0.007967
  0
VERTEX
  8
0
 10
604.068305
 20
685.939432
 42
-0.176924
  0
VERTEX
  8
0
 10
604.676781
 20
685.656553
 42
-0.321459
  0
VERTEX
  8
0
 10
604.924981
 20
684.150625
 42
-0.019233
  0
VERTEX
  8
0
 10
602.603575
 20
679.872535
 42
-0.025164
  0
VERTEX
  8
0
 10
599.385649
 20
675.024044
 42
-0.022606
  0
VERTEX
  8
0
 10
595.586263
 20
670.339731
 42
0.008960
  0
VERTEX
  8
0
 10
589.273756
 20
662.976962
 42
0.007114
  0
VERTEX
  8
0
 10
582.714534
 20
654.809131
 42
0.002429
  0
VERTEX
  8
0
 10
576.576278
 20
646.859399
 42
0.160854
  0
VERTEX
  8
0
 10
576.018386
 20
645.250000
 42
0.312720
  0
VERTEX
  8
0
 10
576.412850
 20
644.662716
 42
0.049634
  0
VERTEX
  8
0
 10
577.823310
 20
644.266313
 42
0.030994
  0
VERTEX
  8
0
 10
580.145813
 20
644.003161
 42
0.008994
  0
VERTEX
  8
0
 10
583.750000
 20
643.884650
 42
-0.002601
  0
VERTEX
  8
0
 10
586.791615
 20
643.823551
 42
-0.003607
  0
VERTEX
  8
0
 10
589.517188
 20
643.734936
 42
-0.002255
  0
VERTEX
  8
0
 10
591.806625
 20
643.633622
 42
-0.044918
  0
VERTEX
  8
0
 10
592.500000
 20
643.536965
 42
0.009836
  0
VERTEX
  8
0
 10
592.972185
 20
643.437005
 42
0.004906
  0
VERTEX
  8
0
 10
593.573437
 20
643.328135
 42
0.004868
  0
VERTEX
  8
0
 10
594.198485
 20
643.227533
 42
0.007148
  0
VERTEX
  8
0
 10
594.750000
 20
643.152314
 42
-0.277634
  0
VERTEX
  8
0
 10
595.708162
 20
642.404248
 42
-0.177620
  0
VERTEX
  8
0
 10
595.729564
 20
640.950071
 42
-0.066130
  0
VERTEX
  8
0
 10
594.500160
 20
638.523360
 42
-0.016977
  0
VERTEX
  8
0
 10
591.886490
 20
634.975615
 42
-0.086195
  0
VERTEX
  8
0
 10
585.872055
 20
629.593873
 42
-0.046945
  0
VERTEX
  8
0
 10
576.985253
 20
625.144895
 42
-0.022494
  0
VERTEX
  8
0
 10
562.000684
 20
620.090077
 42
-0.003394
  0
VERTEX
  8
0
 10
531.500000
 20
611.531140
 42
0.003398
  0
VERTEX
  8
0
 10
514.629892
 20
606.797029
 42
0.023233
  0
VERTEX
  8
0
 10
506.454750
 20
604.025695
 42
0.046526
  0
VERTEX
  8
0
 10
501.249895
 20
601.406118
 42
0.050785
  0
VERTEX
  8
0
 10
496.782807
 20
597.933838
 42
0.050048
  0
VERTEX
  8
0
 10
493.237406
 20
593.796939
 42
0.126665
  0
VERTEX
  8
0
 10
491.865143
 20
590.112745
 42
0.140136
  0
VERTEX
  8
0
 10
492.505906
 20
586.465170
 42
0.067146
  0
VERTEX
  8
0
 10
495.159980
 20
582.470574
 42
0.080198
  0
VERTEX
  8
0
 10
500.396929
 20
578.146487
 42
0.038704
  0
VERTEX
  8
0
 10
508.239794
 20
574.330969
 42
0.020132
  0
VERTEX
  8
0
 10
521.079076
 20
569.859083
 42
0.003571
  0
VERTEX
  8
0
 10
545.500000
 20
562.631218
 42
-0.012200
  0
VERTEX
  8
0
 10
569.706626
 20
555.010072
 42
-0.043678
  0
VERTEX
  8
0
 10
584.524200
 20
548.451295
 42
-0.069871
  0
VERTEX
  8
0
 10
593.960683
 20
541.373537
 42
-0.090254
  0
VERTEX
  8
0
 10
600.132659
 20
532.500000
 42
-0.074835
  0
VERTEX
  8
0
 10
601.822728
 20
526.585233
 42
-0.101322
  0
VERTEX
  8
0
 10
601.418248
 20
521.056076
 42
-0.086737
  0
VERTEX
  8
0
 10
598.754866
 20
515.514452
 42
-0.042265
  0
VERTEX
  8
0
 10
593.649749
 20
509.521138
 42
-0.048447
  0
VERTEX
  8
0
 10
586.572386
 20
503.751452
 42
-0.042427
  0
VERTEX
  8
0
 10
578.204602
 20
499.154674
 42
-0.026186
  0
VERTEX
  8
0
 10
566.046862
 20
494.506506
 42
-0.006255
  0
VERTEX
  8
0
 10
545.371321
 20
488.103918
 42
0.002456
  0
VERTEX
  8
0
 10
519.640320
 20
480.349533
 42
0.017514
  0
VERTEX
  8
0
 10
507.344407
 20
476.101517
 42
0.036798
  0
VERTEX
  8
0
 10
499.790480
 20
472.533906
 42
0.055035
  0
VERTEX
  8
0
 10
493.875525
 20
468.268580
 42
0.128089
  0
VERTEX
  8
0
 10
487.761025
 20
458.962127
 42
0.222976
  0
VERTEX
  8
0
 10
488.775445
 20
449.964767
 42
0.135864
  0
VERTEX
  8
0
 10
497.647169
 20
441.705249
 42
0.043059
  0
VERTEX
  8
0
 10
514.500000
 20
434.708010
 42
0.007641
  0
VERTEX
  8
0
 10
519.290888
 20
433.266910
 42
0.001105
  0
VERTEX
  8
0
 10
529.109375
 20
430.499824
 42
0.001252
  0
VERTEX
  8
0
 10
540.736076
 20
427.282226
 42
0.001071
  0
VERTEX
  8
0
 10
553.000000
 20
423.949558
 42
-0.005733
  0
VERTEX
  8
0
 10
585.439521
 20
414.808648
 42
-0.024684
  0
VERTEX
  8
0
 10
604.368543
 20
408.208760
 42
-0.041070
  0
VERTEX
  8
0
 10
617.196405
 20
401.741997
 42
-0.052719
  0
VERTEX
  8
0
 10
627.675925
 20
393.702895
 42
-0.026557
  0
VERTEX
  8
0
 10
633.485061
 20
387.566174
 42
-0.053674
  0
VERTEX
  8
0
 10
637.225829
 20
382.070471
 42
-0.064189
  0
VERTEX
  8
0
 10
639.296416
 20
376.605796
 42
-0.058563
  0
VERTEX
  8
0
 10
640.000000
 20
370.619380
 42
-0.048727
  0
VERTEX
  8
0
 10
639.468697
 20
365.180461
 42
-0.063893
  0
VERTEX
  8
0
 10
637.888813
 20
360.450517
 42
-0.058246
  0
VERTEX
  8
0
 10
635.030982
 20
355.955783
 42
-0.032653
  0
VERTEX
  8
0
 10
630.621452
 20
351.203307
 42
-0.048584
  0
VERTEX
  8
0
 10
624.078826
 20
346.120969
 42
-0.033367
  0
VERTEX
  8
0
 10
615.812085
 20
341.640889
 42
-0.021589
  0
VERTEX
  8
0
 10
603.938801
 20
336.805310
 42
-0.006087
  0
VERTEX
  8
0
 10
585.034500
 20
330.300328
 42
0.006675
  0
VERTEX
  8
0
 10
567.128814
 20
324.115405
 42
0.031025
  0
VERTEX
  8
0
 10
557.096008
 20
319.779068
 42
0.052905
  0
VERTEX
  8
0
 10
550.516849
 20
315.508850
 42
0.059110
  0
VERTEX
  8
0
 10
545.250000
 20
310.091301
 42
0.079579
  0
VERTEX
  8
0
 10
542.514349
 20
305.016261
 42
0.126381
  0
VERTEX
  8
0
 10
542.101835
 20
300.124971
 42
0.110082
  0
VERTEX
  8
0
 10
544.121445
 20
295.163461
 42
0.051142
  0
VERTEX
  8
0
 10
548.667579
 20
289.853458
 42
0.046249
  0
VERTEX
  8
0
 10
552.931729
 20
286.488210
 42
0.028543
  0
VERTEX
  8
0
 10
558.484626
 20
283.319031
 42
0.017103
  0
VERTEX
  8
0
 10
566.799512
 20
279.532354
 42
0.004032
  0
VERTEX
  8
0
 10
580.949855
 20
273.797053
 42
-0.011997
  0
VERTEX
  8
0
 10
600.260425
 20
265.609772
 42
-0.030277
  0
VERTEX
  8
0
 10
613.755740
 20
258.488768
 42
-0.040858
  0
VERTEX
  8
0
 10
623.596931
 20
251.347405
 42
-0.052991
  0
VERTEX
  8
0
 10
631.235329
 20
243.238052
 42
-0.027402
  0
VERTEX
  8
0
 10
635.170611
 20
237.421545
 42
-0.049586
  0
VERTEX
  8
0
 10
637.621736
 20
232.227808
 42
-0.051836
  0
VERTEX
  8
0
 10
638.936618
 20
226.814370
 42
-0.033092
  0
VERTEX
  8
0
 10
639.380590
 20
220.346969
 42
-0.013676
  0
VERTEX
  8
0
 10
639.258522
 20
215.459164
 42
-0.045294
  0
VERTEX
  8
0
 10
638.800791
 20
212.276568
 42
-0.044034
  0
VERTEX
  8
0
 10
637.770585
 20
209.182125
 42
-0.012408
  0
VERTEX
  8
0
 10
635.628889
 20
204.563614
 42
-0.030497
  0
VERTEX
  8
0
 10
633.058372
 20
200.074051
 42
-0.009696
  0
VERTEX
  8
0
 10
628.701966
 20
193.711249
 42
-0.008361
  0
VERTEX
  8
0
 10
622.940004
 20
185.915108
 42
-0.004823
  0
VERTEX
  8
0
 10
615.759056
 20
176.716645
 42
0.003975
  0
VERTEX
  8
0
 10
604.746542
 20
162.659324
 42
0.010521
  0
VERTEX
  8
0
 10
597.164027
 20
152.379950
 42
0.014442
  0
VERTEX
  8
0
 10
591.914236
 20
144.464506
 42
0.033808
  0
VERTEX
  8
0
 10
588.578729
 20
138.198257
 42
0.099269
  0
VERTEX
  8
0
 10
587.674555
 20
134.223482
 42
0.321122
  0
VERTEX
  8
0
 10
589.109415
 20
132.106489
 42
0.077217
  0
VERTEX
  8
0
 10
593.862782
 20
131.145068
 42
0.004170
  0
VERTEX
  8
0
 10
609.225908
 20
130.574834
 42
0.003149
  0
VERTEX
  8
0
 10
619.820421
 20
130.336822
 42
0.014036
  0
VERTEX
  8
0
 10
626.038886
 20
130.410861
 42
0.023946
  0
VERTEX
  8
0
 10
630.239633
 20
130.780889
 42
0.047925
  0
VERTEX
  8
0
 10
633.480665
 20
131.544955
 42
-0.064120
  0
VERTEX
  8
0
 10
638.019563
 20
132.461415
 42
-0.028133
  0
VERTEX
  8
0
 10
644.163782
 20
132.553077
 42
-0.022021
  0
VERTEX
  8
0
 10
652.018179
 20
131.880910
 42
-0.010633
  0
VERTEX
  8
0
 10
662.000000
 20
130.365443
 42
0.018474
  0
VERTEX
  8
0
 10
666.832686
 20
129.709066
 42
0.014582
  0
VERTEX
  8
0
 10
672.098640
 20
129.345727
 42
0.012051
  0
VERTEX
  8
0
 10
678.289566
 20
129.248985
 42
0.006299
  0
VERTEX
  8
0
 10
686.000000
 20
129.411497
 42
-0.004830
  0
VERTEX
  8
0
 10
695.465440
 20
129.638811
 42
-0.000601
  0
VERTEX
  8
0
 10
716.040625
 20
129.909338
 42
-0.000709
  0
VERTEX
  8
0
 10
740.476569
 20
130.166593
 42
-0.000587
  0
VERTEX
  8
0
 10
766.500000
 20
130.373112
 42
0.001339
  0
VERTEX
  8
0
 10
823.513623
 20
130.911354
 42
0.014950
  0
VERTEX
  8
0
 10
846.208743
 20
131.865479
 42
0.039178
  0
VERTEX
  8
0
 10
858.812969
 20
133.773390
 42
0.107116
  0
VERTEX
  8
0
 10
866.914110
 20
137.606720
 42
-0.018538
  0
VERTEX
  8
0
 10
868.740168
 20
138.905711
 42
-0.021297
  0
VERTEX
  8
0
 10
870.576705
 20
140.003224
 42
-0.020981
  0
VERTEX
  8
0
 10
872.195322
 20
140.793326
 42
-0.103405
  0
VERTEX
  8
0
 10
873.183981
 20
141.000000
 42
0.123245
  0
VERTEX
  8
0
 10
876.336233
 20
141.788986
 42
0.053917
  0
VERTEX
  8
0
 10
879.921332
 20
144.232418
 42
0.047895
  0
VERTEX
  8
0
 10
883.421482
 20
147.848463
 42
0.041958
  0
VERTEX
  8
0
 10
886.346588
 20
152.221636
 42
0.054060
  0
VERTEX
  8
0
 10
889.333832
 20
159.333703
 42
0.042025
  0
VERTEX
  8
0
 10
891.048302
 20
167.553307
 42
0.024819
  0
VERTEX
  8
0
 10
891.898198
 20
179.335862
 42
0.005546
  0
VERTEX
  8
0
 10
892.125803
 20
199.500000
 42
-0.001345
  0
VERTEX
  8
0
 10
892.277851
 20
252.209002
 42
-0.001509
  0
VERTEX
  8
0
 10
892.713670
 20
302.924637
 42
-0.000121
  0
VERTEX
  8
0
 10
893.291916
 20
351.706456
 42
-0.171819
  0
VERTEX
  8
0
 10
893.912928
 20
353.395084
 42
0.142427
  0
VERTEX
  8
0
 10
894.241807
 20
354.152240
 42
0.032626
  0
VERTEX
  8
0
 10
894.328579
 20
355.559242
 42
0.028632
  0
VERTEX
  8
0
 10
894.218193
 20
357.370016
 42
0.017119
  0
VERTEX
  8
0
 10
893.890716
 20
359.502593
 42
-0.040757
  0
VERTEX
  8
0
 10
893.515335
 20
363.059861
 42
-0.001480
  0
VERTEX
  8
0
 10
893.233017
 20
376.691387
 42
-0.002703
  0
VERTEX
  8
0
 10
893.033944
 20
392.821570
 42
-0.001892
  0
VERTEX
  8
0
 10
892.976675
 20
411.000000
 42
0.000554
  0
VERTEX
  8
0
 10
892.967971
 20
429.393131
 42
0.000726
  0
VERTEX
  8
0
 10
892.917032
 20
446.190625
 42
0.000529
  0
VERTEX
  8
0
 10
892.838982
 20
460.271761
 42
0.006906
  0
VERTEX
  8
0
 10
892.732246
 20
465.500000
 42
-0.007235
  0
VERTEX
  8
0
 10
892.616093
 20
471.379006
 42
-0.000153
  0
VERTEX
  8
0
 10
892.471483
 20
500.422457
 42
-0.000354
  0
VERTEX
  8
0
 10
892.336845
 20
534.385310
 42
-0.000239
  0
VERTEX
  8
0
 10
892.229172
 20
573.150916
 42
0.000000
  0
VERTEX
  8
0
 10
892.000000
 20
672.801832
 42
0.000000
  0
VERTEX
  8
0
 10
887.433490
 20
678.876632
 42
0.010802
  0
VERTEX
  8
0
 10
885.331997
 20
681.549985
 42
0.006899
  0
VERTEX
  8
0
 10
882.780491
 20
684.569406
 42
0.006931
  0
VERTEX
  8
0
 10
880.196401
 20
687.461216
 42
0.012818
  0
VERTEX
  8
0
 10
878.006039
 20
689.725716
 42
-0.014931
  0
VERTEX
  8
0
 10
875.781048
 20
692.045548
 42
-0.007303
  0
VERTEX
  8
0
 10
873.078808
 20
695.126111
 42
-0.007237
  0
VERTEX
  8
0
 10
870.360488
 20
698.413067
 42
-0.010415
  0
VERTEX
  8
0
 10
868.058491
 20
701.405726
 42
-0.006034
  0
VERTEX
  8
0
 10
865.099946
 20
705.525545
 42
-0.054082
  0
VERTEX
  8
0
 10
864.029147
 20
707.473302
 42
-0.145736
  0
VERTEX
  8
0
 10
863.890884
 20
708.783161
 42
-0.138704
  0
VERTEX
  8
0
 10
864.485942
 20
709.984467
 42
0.104336
  0
VERTEX
  8
0
 10
865.578867
 20
711.859908
 42
0.084054
  0
VERTEX
  8
0
 10
865.932926
 20
714.171144
 42
0.076904
  0
VERTEX
  8
0
 10
865.508410
 20
716.655933
 42
0.066963
  0
VERTEX
  8
0
 10
864.343903
 20
719.027494
 42
0.033007
  0
VERTEX
  8
0
 10
863.212728
 20
720.496603
 42
0.003521
  0
VERTEX
  8
0
 10
860.340593
 20
723.711201
 42
0.004328
  0
VERTEX
  8
0
 10
856.856323
 20
727.489836
 42
0.003467
  0
VERTEX
  8
0
 10
853.041197
 20
731.500000
 42
-0.008828
  0
VERTEX
  8
0
 10
849.100571
 20
735.732036
 42
-0.008354
  0
VERTEX
  8
0
 10
845.237140
 20
740.178125
 42
-0.008338
  0
VERTEX
  8
0
 10
841.949844
 20
744.226555
 42
-0.028775
  0
VERTEX
  8
0
 10
840.020496
 20
747.000000
 42
0.003210
  0
VERTEX
  8
0
 10
838.303753
 20
749.758513
 42
0.001145
  0
VERTEX
  8
0
 10
835.818762
 20
753.675000
 42
0.001136
  0
VERTEX
  8
0
 10
833.072665
 20
757.959655
 42
0.001342
  0
VERTEX
  8
0
 10
830.454807
 20
762.000000
 42
-0.001047
  0
VERTEX
  8
0
 10
827.800558
 20
766.091217
 42
-0.000826
  0
VERTEX
  8
0
 10
824.943996
 20
770.530607
 42
-0.000835
  0
VERTEX
  8
0
 10
822.304586
 20
774.662615
 42
-0.002070
  0
VERTEX
  8
0
 10
820.389184
 20
777.699939
 42
0.022096
  0
VERTEX
  8
0
 10
817.495411
 20
781.905560
 42
0.072420
  0
VERTEX
  8
0
 10
815.101525
 20
784.270649
 42
0.119145
  0
VERTEX
  8
0
 10
812.852887
 20
785.214969
 42
0.130148
  0
VERTEX
  8
0
 10
810.500000
 20
784.982632
 42
0.088978
  0
VERTEX
  8
0
 10
808.364987
 20
783.718013
 42
0.055096
  0
VERTEX
  8
0
 10
806.375698
 20
781.576099
 42
0.031093
  0
VERTEX
  8
0
 10
804.032809
 20
777.970456
 42
0.006870
  0
VERTEX
  8
0
 10
800.495314
 20
771.500000
 42
-0.001351
  0
VERTEX
  8
0
 10
794.195608
 20
759.668743
 42
-0.003332
  0
VERTEX
  8
0
 10
789.490935
 20
751.029094
 42
-0.003687
  0
VERTEX
  8
0
 10
784.960991
 20
742.981368
 42
-0.002041
  0
VERTEX
  8
0
 10
779.318020
 20
733.219599
 42
-0.000922
  0
VERTEX
  8
0
 10
774.099057
 20
724.313531
 42
-0.002197
  0
VERTEX
  8
0
 10
770.180599
 20
717.721358
 42
-0.002040
  0
VERTEX
  8
0
 10
766.037276
 20
710.883492
 42
-0.000697
  0
VERTEX
  8
0
 10
759.974255
 20
701.000000
 42
-0.006445
  0
VERTEX
  8
0
 10
756.249821
 20
695.118876
 42
-0.012554
  0
VERTEX
  8
0
 10
753.102151
 20
690.542862
 42
-0.010221
  0
VERTEX
  8
0
 10
750.516107
 20
687.127515
 42
-0.146158
  0
VERTEX
  8
0
 10
749.280351
 20
686.260117
 42
-0.234470
  0
VERTEX
  8
0
 10
747.809410
 20
686.465708
 42
-0.062561
  0
VERTEX
  8
0
 10
745.985995
 20
688.079366
 42
-0.060169
  0
VERTEX
  8
0
 10
744.496720
 20
690.250639
 42
-0.122193
  0
VERTEX
  8
0
 10
744.012045
 20
692.250000
 42
-0.098762
  0
VERTEX
  8
0
 10
744.486467
 20
694.563772
 42
-0.026963
  0
VERTEX
  8
0
 10
746.126267
 20
697.932242
 42
-0.009451
  0
VERTEX
  8
0
 10
749.626270
 20
703.962991
 42
-0.000634
  0
VERTEX
  8
0
 10
759.978749
 20
721.000000
 42
0.002094
  0
VERTEX
  8
0
 10
770.266763
 20
738.042794
 42
0.005787
  0
VERTEX
  8
0
 10
777.320364
 20
750.155008
 42
0.003567
  0
VERTEX
  8
0
 10
782.401413
 20
759.267879
 42
0.126036
  0
VERTEX
  8
0
 10
783.000000
 20
761.604818
 42
0.108593
  0
VERTEX
  8
0
 10
782.779248
 20
762.609248
 42
0.008181
  0
VERTEX
  8
0
 10
781.560754
 20
765.137922
 42
0.010990
  0
VERTEX
  8
0
 10
779.977093
 20
768.125800
 42
0.008131
  0
VERTEX
  8
0
 10
778.100438
 20
771.361123
 42
-0.003555
  0
VERTEX
  8
0
 10
775.735922
 20
775.352889
 42
-0.001474
  0
VERTEX
  8
0
 10
772.593860
 20
780.781080
 42
-0.001458
  0
VERTEX
  8
0
 10
769.260538
 20
786.618362
 42
-0.001881
  0
VERTEX
  8
0
 10
766.234875
 20
792.000000
 42
0.000979
  0
VERTEX
  8
0
 10
758.698377
 20
805.461677
 42
0.010617
  0
VERTEX
  8
0
 10
755.532163
 20
810.821647
 42
0.025497
  0
VERTEX
  8
0
 10
753.558165
 20
813.671541
 42
0.106054
  0
VERTEX
  8
0
 10
751.971817
 20
815.015083
 42
0.038663
  0
VERTEX
  8
0
 10
750.212834
 20
815.788203
 42
0.140435
  0
VERTEX
  8
0
 10
749.005820
 20
815.858019
 42
0.127118
  0
VERTEX
  8
0
 10
747.875669
 20
815.278034
 42
0.029250
  0
SEQEND
  0
POLYLINE
  8
0
 66
1
 70
1
  0
VERTEX
  8
0
 10
765.811072
 20
682.387786
 42
-0.039576
  0
VERTEX
  8
0
 10
767.024564
 20
682.043426
 42
-0.042265
  0
VERTEX
  8
0
 10
768.140901
 20
681.517745
 42
-0.046267
  0
VERTEX
  8
0
 10
769.010314
 20
680.900936
 42
-0.124354
  0
VERTEX
  8
0
 10
769.443879
 20
680.285652
 42
-0.246733
  0
VERTEX
  8
0
 10
769.009352
 20
676.601274
 42
-0.002517
  0
VERTEX
  8
0
 10
753.619421
 20
654.404009
 42
-0.008596
  0
VERTEX
  8
0
 10
738.233439
 20
633.233236
 42
-0.019037
  0
VERTEX
  8
0
 10
725.626882
 20
617.761861
 42
-0.030875
  0
VERTEX
  8
0
 10
721.639866
 20
613.759822
 42
-0.112439
  0
VERTEX
  8
0
 10
718.514807
 20
612.046048
 42
-0.205186
  0
VERTEX
  8
0
 10
716.032864
 20
612.363158
 42
-0.137753
  0
VERTEX
  8
0
 10
714.024264
 20
614.454663
 42
-0.139629
  0
VERTEX
  8
0
 10
713.525961
 20
616.748263
 42
-0.114382
  0
VERTEX
  8
0
 10
714.249151
 20
619.160229
 42
-0.037270
  0
VERTEX
  8
0
 10
716.749095
 20
622.865176
 42
-0.003048
  0
VERTEX
  8
0
 10
724.048611
 20
632.000000
 42
0.007037
  0
VERTEX
  8
0
 10
727.733832
 20
636.687992
 42
0.002927
  0
VERTEX
  8
0
 10
732.582526
 20
643.115625
 42
0.002895
  0
VERTEX
  8
0
 10
737.696374
 20
650.061517
 42
0.003739
  0
VERTEX
  8
0
 10
742.306186
 20
656.500000
 42
-0.000027
  0
VERTEX
  8
0
 10
746.650943
 20
662.664454
 42
-0.000028
  0
VERTEX
  8
0
 10
750.964217
 20
668.782812
 42
-0.000027
  0
VERTEX
  8
0
 10
754.710274
 20
674.095341
 42
-0.000116
  0
VERTEX
  8
0
 10
756.936091
 20
677.250000
 42
-0.009506
  0
VERTEX
  8
0
 10
758.555075
 20
679.453330
 42
-0.014178
  0
VERTEX
  8
0
 10
760.060514
 20
681.310938
 42
-0.009117
  0
VERTEX
  8
0
 10
761.368522
 20
682.779462
 42
-0.209202
  0
VERTEX
  8
0
 10
761.872547
 20
683.000000
 42
-0.033347
  0
VERTEX
  8
0
 10
762.386066
 20
682.965713
 42
-0.005217
  0
VERTEX
  8
0
 10
763.391438
 20
682.820162
 42
-0.005783
  0
VERTEX
  8
0
 10
764.574776
 20
682.622178
 42
-0.005014
  0
SEQEND
  0
POLYLINE
  8
0
 66
1
 70
1
  0
VERTEX
  8
0
 10
689.435145
 20
674.071664
 42
-0.053182
  0
VERTEX
  8
0
 10
690.112916
 20
673.140715
 42
-0.061232
  0
VERTEX
  8
0
 10
690.541263
 20
672.129623
 42
-0.065890
  0
VERTEX
  8
0
 10
690.691636
 20
671.112826
 42
-0.080817
  0
VERTEX
  8
0
 10
690.552081
 20
670.164094
 42
-0.117195
  0
VERTEX
  8
0
 10
689.781021
 20
668.879685
 42
-0.002034
  0
VERTEX
  8
0
 10
684.024291
 20
663.037720
 42
-0.005029
  0
VERTEX
  8
0
 10
677.194999
 20
656.300376
 42
-0.003314
  0
VERTEX
  8
0
 10
669.211949
 20
648.683447
 42
0.000868
  0
VERTEX
  8
0
 10
660.991357
 20
640.916338
 42
0.001100
  0
VERTEX
  8
0
 10
653.422956
 20
633.708838
 42
0.000865
  0
VERTEX
  8
0
 10
647.098826
 20
627.638714
 42
0.008981
  0
VERTEX
  8
0
 10
644.547052
 20
625.091017
 42
-0.021711
  0
VERTEX
  8
0
 10
642.637866
 20
623.279533
 42
-0.040147
  0
VERTEX
  8
0
 10
640.918105
 20
622.011144
 42
-0.050629
  0
VERTEX
  8
0
 10
639.361119
 20
621.251232
 42
-0.088450
  0
VERTEX
  8
0
 10
637.952040
 20
621.000000
 42
-0.106138
  0
VERTEX
  8
0
 10
635.622370
 20
621.500169
 42
-0.098080
  0
VERTEX
  8
0
 10
633.627367
 20
622.919920
 42
-0.108440
  0
VERTEX
  8
0
 10
632.463341
 20
624.858641
 42
-0.159332
  0
VERTEX
  8
0
 10
632.446231
 20
626.830589
 42
-0.113693
  0
VERTEX
  8
0
 10
633.152924
 20
628.026430
 42
-0.005210
  0
VERTEX
  8
0
 10
636.476450
 20
631.449945
 42
-0.008450
  0
VERTEX
  8
0
 10
640.561626
 20
635.434232
 42
-0.005938
  0
VERTEX
  8
0
 10
645.286364
 20
639.784174
 42
0.001480
  0
VERTEX
  8
0
 10
650.933326
 20
644.890915
 42
0.000793
  0
VERTEX
  8
0
 10
657.877869
 20
651.228719
 42
0.000789
  0
VERTEX
  8
0
 10
664.943285
 20
657.717927
 42
0.001235
  0
VERTEX
  8
0
 10
671.000000
 20
663.326066
 42
-0.005292
  0
VERTEX
  8
0
 10
676.289056
 20
668.144286
 42
-0.008002
  0
VERTEX
  8
0
 10
681.002910
 20
672.214544
 42
-0.003776
  0
VERTEX
  8
0
 10
685.065889
 20
675.559035
 42
-0.162957
  0
VERTEX
  8
0
 10
686.095012
 20
675.944145
 42
-0.095277
  0
VERTEX
  8
0
 10
686.830782
 20
675.829196
 42
-0.041521
  0
VERTEX
  8
0
 10
687.734119
 20
675.417144
 42
-0.039107
  0
VERTEX
  8
0
 10
688.649554
 20
674.805374
 42
-0.042009
  0
SEQEND
  0
POLYLINE
  8
0
 66
1
 70
1
  0
VERTEX
  8
0
 10
660.800000
 20
610.800000
 42
-0.167506
  0
VERTEX
  8
0
 10
661.725114
 20
608.901707
 42
-0.116316
  0
VERTEX
  8
0
 10
661.460805
 20
606.509755
 42
-0.051251
  0
VERTEX
  8
0
 10
659.761482
 20
602.937841
 42
-0.008845
  0
VERTEX
  8
0
 10
655.750000
 20
596.598168
 42
0.000929
  0
VERTEX
  8
0
 10
652.699282
 20
591.941689
 42
0.000381
  0
VERTEX
  8
0
 10
648.575387
 20
585.611044
 42
0.000377
  0
VERTEX
  8
0
 10
644.157973
 20
578.807293
 42
0.000483
  0
VERTEX
  8
0
 10
640.102381
 20
572.537248
 42
-0.004864
  0
VERTEX
  8
0
 10
632.654285
 20
561.240592
 42
-0.036025
  0
VERTEX
  8
0
 10
628.681066
 20
556.169957
 42
-0.086137
  0
VERTEX
  8
0
 10
625.664429
 20
553.817675
 42
-0.148034
  0
VERTEX
  8
0
 10
622.564140
 20
553.200503
 42
-0.037830
  0
VERTEX
  8
0
 10
621.120768
 20
553.452812
 42
-0.090857
  0
VERTEX
  8
0
 10
620.137635
 20
553.903575
 42
-0.116313
  0
VERTEX
  8
0
 10
619.524033
 20
554.591861
 42
-0.088832
  0
VERTEX
  8
0
 10
619.206270
 20
555.552959
 42
-0.176632
  0
VERTEX
  8
0
 10
619.705230
 20
557.922451
 42
-0.001180
  0
VERTEX
  8
0
 10
631.059095
 20
576.049804
 42
-0.005195
  0
VERTEX
  8
0
 10
642.255177
 20
593.428667
 42
-0.010071
  0
VERTEX
  8
0
 10
651.622915
 20
607.038204
 42
-0.037526
  0
VERTEX
  8
0
 10
654.245644
 20
610.164663
 42
-0.102546
  0
VERTEX
  8
0
 10
656.625754
 20
611.770023
 42
-0.159077
  0
VERTEX
  8
0
 10
658.797338
 20
611.929949
 42
-0.136692
  0
SEQEND
  0
POLYLINE
  8
0
 66
1
 70
1
  0
VERTEX
  8
0
 10
578.000000
 20
599.600705
 42
0.106634
  0
VERTEX
  8
0
 10
578.804844
 20
595.869763
 42
0.025777
  0
VERTEX
  8
0
 10
581.718094
 20
590.225417
 42
0.025620
  0
VERTEX
  8
0
 10
585.767835
 20
584.033993
 42
0.024672
  0
VERTEX
  8
0
 10
590.477676
 20
578.207461
 42
-0.011580
  0
VERTEX
  8
0
 10
595.029580
 20
572.868414
 42
-0.030436
  0
VERTEX
  8
0
 10
597.959934
 20
568.780818
 42
-0.041896
  0
VERTEX
  8
0
 10
599.483825
 20
565.834848
 42
-0.368107
  0
VERTEX
  8
0
 10
599.066925
 20
564.541362
 42
-0.246542
  0
VERTEX
  8
0
 10
597.095896
 20
564.402905
 42
-0.004884
  0
VERTEX
  8
0
 10
587.616642
 20
568.671157
 42
-0.004184
  0
VERTEX
  8
0
 10
578.136349
 20
573.148392
 42
-0.390056
  0
VERTEX
  8
0
 10
577.619777
 20
574.451538
 42
0.183203
  0
VERTEX
  8
0
 10
577.622183
 20
575.049991
 42
0.044382
  0
VERTEX
  8
0
 10
577.186908
 20
575.957853
 42
0.039712
  0
VERTEX
  8
0
 10
576.465623
 20
576.978593
 42
0.030525
  0
VERTEX
  8
0
 10
575.529473
 20
577.972311
 42
0.006857
  0
VERTEX
  8
0
 10
573.942284
 20
579.422939
 42
0.140332
  0
VERTEX
  8
0
 10
573.362893
 20
579.701330
 42
0.399982
  0
VERTEX
  8
0
 10
573.029624
 20
579.477266
 42
0.039131
  0
VERTEX
  8
0
 10
572.881579
 20
578.424314
 42
0.007612
  0
VERTEX
  8
0
 10
572.844945
 20
577.632585
 42
0.007754
  0
VERTEX
  8
0
 10
572.832730
 20
576.844955
 42
0.007577
  0
VERTEX
  8
0
 10
572.843104
 20
576.160499
 42
0.031584
  0
VERTEX
  8
0
 10
572.881579
 20
575.750000
 42
-0.350260
  0
VERTEX
  8
0
 10
572.536483
 20
575.143360
 42
-0.192221
  0
VERTEX
  8
0
 10
571.629758
 20
575.143393
 42
-0.069992
  0
VERTEX
  8
0
 10
570.094795
 20
576.021444
 42
-0.031520
  0
VERTEX
  8
0
 10
568.349881
 20
577.559210
 42
-0.034781
  0
VERTEX
  8
0
 10
566.964387
 20
579.152143
 42
-0.098897
  0
VERTEX
  8
0
 10
566.328613
 20
580.471071
 42
-0.081245
  0
VERTEX
  8
0
 10
566.183451
 20
582.081644
 42
-0.018576
  0
VERTEX
  8
0
 10
566.483026
 20
584.809210
 42
-0.068154
  0
VERTEX
  8
0
 10
568.653399
 20
592.282621
 42
-0.060783
  0
VERTEX
  8
0
 10
572.813447
 20
599.220244
 42
-0.188004
  0
VERTEX
  8
0
 10
576.120540
 20
601.191653
 42
-0.463679
  0
SEQEND
  0
POLYLINE
  8
0
 66
1
 70
1
  0
VERTEX
  8
0
 10
748.396757
 20
593.167050
 42
-0.310567
  0
VERTEX
  8
0
 10
748.279588
 20
590.761591
 42
-0.009555
  0
VERTEX
  8
0
 10
741.787888
 20
582.568049
 42
-0.013400
  0
VERTEX
  8
0
 10
732.470020
 20
571.856558
 42
-0.005171
  0
VERTEX
  8
0
 10
719.000000
 20
557.486193
 42
0.001165
  0
VERTEX
  8
0
 10
714.251998
 20
552.501467
 42
0.001142
  0
VERTEX
  8
0
 10
709.495492
 20
547.461438
 42
0.001123
  0
VERTEX
  8
0
 10
705.342727
 20
543.021000
 42
0.004330
  0
VERTEX
  8
0
 10
702.793165
 20
540.234520
 42
-0.029083
  0
VERTEX
  8
0
 10
699.336609
 20
536.813175
 42
-0.101994
  0
VERTEX
  8
0
 10
696.630178
 20
535.267727
 42
-0.158670
  0
VERTEX
  8
0
 10
694.228847
 20
535.265702
 42
-0.105815
  0
VERTEX
  8
0
 10
691.828741
 20
536.654988
 42
-0.051782
  0
VERTEX
  8
0
 10
691.128871
 20
537.434270
 42
-0.040558
  0
VERTEX
  8
0
 10
690.537193
 20
538.405371
 42
-0.041783
  0
VERTEX
  8
0
 10
690.132376
 20
539.411206
 42
-0.074919
  0
VERTEX
  8
0
 10
690.000000
 20
540.289715
 42
-0.181059
  0
VERTEX
  8
0
 10
690.534153
 20
541.716440
 42
-0.004121
  0
VERTEX
  8
0
 10
695.428602
 20
547.244105
 42
-0.007824
  0
VERTEX
  8
0
 10
701.827869
 20
554.132472
 42
-0.003599
  0
VERTEX
  8
0
 10
710.366231
 20
562.912356
 42
0.004340
  0
VERTEX
  8
0
 10
718.456721
 20
571.256386
 42
0.006218
  0
VERTEX
  8
0
 10
725.471364
 20
578.803364
 42
0.004619
  0
VERTEX
  8
0
 10
731.113455
 20
585.143813
 42
0.061628
  0
VERTEX
  8
0
 10
732.859196
 20
587.724002
 42
-0.021100
  0
VERTEX
  8
0
 10
733.802487
 20
589.394905
 42
-0.021531
  0
VERTEX
  8
0
 10
734.877332
 20
590.968748
 42
-0.021902
  0
VERTEX
  8
0
 10
735.926109
 20
592.249776
 42
-0.078565
  0
VERTEX
  8
0
 10
736.742966
 20
592.915964
 42
-0.103779
  0
VERTEX
  8
0
 10
739.003826
 20
593.666512
 42
-0.023046
  0
VERTEX
  8
0
 10
743.092332
 20
593.943423
 42
-0.017560
  0
VERTEX
  8
0
 10
747.174574
 20
593.888009
 42
-0.246979
  0
SEQEND
  0
POLYLINE
  8
0
 66
1
 70
1
  0
VERTEX
  8
0
 10
658.741607
 20
547.664497
 42
-0.031741
  0
VERTEX
  8
0
 10
662.586926
 20
542.921474
 42
-0.047122
  0
VERTEX
  8
0
 10
665.259425
 20
538.292737
 42
-0.049596
  0
VERTEX
  8
0
 10
666.926141
 20
533.431976
 42
-0.040655
  0
VERTEX
  8
0
 10
667.746835
 20
528.000000
 42
-0.013445
  0
VERTEX
  8
0
 10
667.901094
 20
524.311499
 42
-0.051590
  0
VERTEX
  8
0
 10
667.699039
 20
522.026028
 42
-0.067294
  0
VERTEX
  8
0
 10
667.065721
 20
520.150505
 42
-0.034634
  0
VERTEX
  8
0
 10
665.811831
 20
518.006922
 42
-0.036636
  0
VERTEX
  8
0
 10
663.713791
 20
515.368293
 42
-0.129537
  0
VERTEX
  8
0
 10
661.904499
 20
514.213298
 42
-0.391741
  0
VERTEX
  8
0
 10
660.900921
 20
514.681134
 42
-0.145190
  0
VERTEX
  8
0
 10
660.731683
 20
516.376723
 42
0.084468
  0
VERTEX
  8
0
 10
660.786912
 20
519.090675
 42
0.043624
  0
VERTEX
  8
0
 10
659.992840
 20
522.401693
 42
0.041276
  0
VERTEX
  8
0
 10
658.774890
 20
525.242102
 42
0.277623
  0
VERTEX
  8
0
 10
657.515117
 20
526.000000
 42
0.164146
  0
VERTEX
  8
0
 10
656.765927
 20
525.747236
 42
0.015233
  0
VERTEX
  8
0
 10
655.226864
 20
524.499480
 42
0.018328
  0
VERTEX
  8
0
 10
653.448737
 20
522.848411
 42
0.013368
  0
VERTEX
  8
0
 10
651.592669
 20
520.891846
 42
0.014637
  0
VERTEX
  8
0
 10
649.164588
 20
518.026834
 42
0.051454
  0
VERTEX
  8
0
 10
647.860087
 20
515.995869
 42
0.070330
  0
VERTEX
  8
0
 10
647.215051
 20
514.098468
 42
0.046852
  0
VERTEX
  8
0
 10
647.000000
 20
511.808513
 42
-0.044451
  0
VERTEX
  8
0
 10
646.747980
 20
508.979336
 42
-0.379650
  0
VERTEX
  8
0
 10
645.827770
 20
508.254144
 42
-0.234999
  0
VERTEX
  8
0
 10
644.508046
 20
509.009556
 42
-0.026580
  0
VERTEX
  8
0
 10
642.695723
 20
512.059551
 42
-0.089317
  0
VERTEX
  8
0
 10
641.439376
 20
516.052430
 42
-0.077314
  0
VERTEX
  8
0
 10
641.560910
 20
520.448050
 42
-0.060626
  0
VERTEX
  8
0
 10
643.135013
 20
525.481990
 42
-0.029899
  0
VERTEX
  8
0
 10
646.258920
 20
531.425049
 42
0.012791
  0
VERTEX
  8
0
 10
648.693571
 20
535.695578
 42
0.048847
  0
VERTEX
  8
0
 10
649.871381
 20
538.521047
 42
0.051699
  0
VERTEX
  8
0
 10
650.445204
 20
541.441274
 42
0.015516
  0
VERTEX
  8
0
 10
650.715877
 20
545.970399
 42
-0.000322
  0
VERTEX
  8
0
 10
650.801090
 20
548.877224
 42
-0.000507
  0
VERTEX
  8
0
 10
650.878363
 20
551.371952
 42
-0.000114
  0
VERTEX
  8
0
 10
650.948918
 20
553.561768
 42
-0.021666
  0
VERTEX
  8
0
 10
650.965877
 20
553.785184
 42
-0.557490
  0
VERTEX
  8
0
 10
651.482458
 20
554.024955
 42
-0.021069
  0
VERTEX
  8
0
 10
653.578448
 20
552.513605
 42
-0.022738
  0
VERTEX
  8
0
 10
656.132463
 20
550.308002
 42
-0.017074
  0
SEQEND
  0
POLYLINE
  8
0
 66
1
 70
1
  0
VERTEX
  8
0
 10
728.999643
 20
515.750000
 42
-0.180761
  0
VERTEX
  8
0
 10
728.182522
 20
513.565531
 42
-0.001910
  0
VERTEX
  8
0
 10
717.347811
 20
501.197883
 42
-0.001697
  0
VERTEX
  8
0
 10
706.351786
 20
488.827270
 42
-0.213342
  0
VERTEX
  8
0
 10
704.501199
 20
488.000000
 42
-0.164120
  0
VERTEX
  8
0
 10
703.846768
 20
488.220757
 42
-0.033868
  0
VERTEX
  8
0
 10
702.917850
 20
489.032839
 42
-0.032268
  0
VERTEX
  8
0
 10
701.920171
 20
490.169935
 42
-0.025530
  0
VERTEX
  8
0
 10
700.990081
 20
491.516049
 42
0.000000
  0
VERTEX
  8
0
 10
698.817043
 20
495.032098
 42
0.000000
  0
VERTEX
  8
0
 10
706.064458
 20
503.266049
 42
-0.004136
  0
VERTEX
  8
0
 10
713.846343
 20
511.961120
 42
-0.044884
  0
VERTEX
  8
0
 10
717.310741
 20
515.142147
 42
-0.102738
  0
VERTEX
  8
0
 10
720.203294
 20
516.533409
 42
-0.060965
  0
VERTEX
  8
0
 10
724.015777
 20
517.000000
 42
-0.016360
  0
VERTEX
  8
0
 10
726.219509
 20
516.927876
 42
-0.045107
  0
VERTEX
  8
0
 10
727.753137
 20
516.687320
 42
-0.074377
  0
VERTEX
  8
0
 10
728.690695
 20
516.297298
 42
-0.262913
  0
SEQEND
  0
POLYLINE
  8
0
 66
1
 70
1
  0
VERTEX
  8
0
 10
619.703925
 20
494.729816
 42
-0.013045
  0
VERTEX
  8
0
 10
622.157699
 20
492.037263
 42
-0.011825
  0
VERTEX
  8
0
 10
624.551721
 20
489.132427
 42
-0.011936
  0
VERTEX
  8
0
 10
626.570526
 20
486.430983
 42
-0.036711
  0
VERTEX
  8
0
 10
627.752122
 20
484.479816
 42
-0.045197
  0
VERTEX
  8
0
 10
630.852115
 20
476.736291
 42
-0.041872
  0
VERTEX
  8
0
 10
632.608952
 20
468.360957
 42
-0.044061
  0
VERTEX
  8
0
 10
632.889672
 20
460.344596
 42
-0.072523
  0
VERTEX
  8
0
 10
631.558727
 20
453.705734
 42
0.000000
  0
VERTEX
  8
0
 10
630.205240
 20
449.911468
 42
0.000000
  0
VERTEX
  8
0
 10
635.352620
 20
446.106736
 42
-0.026148
  0
VERTEX
  8
0
 10
640.495815
 20
441.872152
 42
-0.032285
  0
VERTEX
  8
0
 10
644.795792
 20
437.394463
 42
-0.033307
  0
VERTEX
  8
0
 10
648.375453
 20
432.526076
 42
-0.031249
  0
VERTEX
  8
0
 10
651.361793
 20
427.123378
 42
-0.017304
  0
VERTEX
  8
0
 10
653.111898
 20
423.073160
 42
-0.045470
  0
VERTEX
  8
0
 10
653.992845
 20
420.036900
 42
-0.038530
  0
VERTEX
  8
0
 10
654.386287
 20
416.615458
 42
-0.009685
  0
VERTEX
  8
0
 10
654.487931
 20
411.000000
 42
-0.009994
  0
VERTEX
  8
0
 10
654.345882
 20
404.318800
 42
-0.042418
  0
VERTEX
  8
0
 10
653.843727
 20
400.355513
 42
-0.140369
  0
VERTEX
  8
0
 10
652.985687
 20
398.745807
 42
-0.419129
  0
VERTEX
  8
0
 10
651.863593
 20
398.736407
 42
-0.088111
  0
VERTEX
  8
0
 10
651.452957
 20
399.324399
 42
-0.103423
  0
VERTEX
  8
0
 10
651.299712
 20
399.985590
 42
-0.087104
  0
VERTEX
  8
0
 10
651.415525
 20
400.740978
 42
-0.046109
  0
VERTEX
  8
0
 10
651.801414
 20
401.609629
 42
0.244278
  0
VERTEX
  8
0
 10
651.925634
 20
405.611230
 42
0.012523
  0
VERTEX
  8
0
 10
645.828537
 20
417.520123
 42
0.012197
  0
VERTEX
  8
0
 10
639.140416
 20
429.130463
 42
0.261684
  0
VERTEX
  8
0
 10
635.812909
 20
431.000000
 42
0.282338
  0
VERTEX
  8
0
 10
635.499099
 20
430.807450
 42
0.050147
  0
VERTEX
  8
0
 10
635.238792
 20
430.136086
 42
0.041317
  0
VERTEX
  8
0
 10
635.058936
 20
429.185976
 42
0.026131
  0
VERTEX
  8
0
 10
635.000000
 20
428.059017
 42
-0.032343
  0
VERTEX
  8
0
 10
634.924075
 20
426.886501
 42
-0.037814
  0
VERTEX
  8
0
 10
634.697178
 20
425.794793
 42
-0.041224
  0
VERTEX
  8
0
 10
634.366402
 20
424.923718
 42
-0.143959
  0
VERTEX
  8
0
 10
633.969116
 20
424.480912
 42
-0.329732
  0
VERTEX
  8
0
 10
632.093546
 20
424.637769
 42
-0.007221
  0
VERTEX
  8
0
 10
624.906322
 20
431.133322
 42
-0.013711
  0
VERTEX
  8
0
 10
618.250219
 20
437.675329
 42
-0.081066
  0
VERTEX
  8
0
 10
615.480958
 20
441.681370
 42
-0.086330
  0
VERTEX
  8
0
 10
614.380202
 20
445.645861
 42
-0.036050
  0
VERTEX
  8
0
 10
614.232554
 20
451.210184
 42
-0.034563
  0
VERTEX
  8
0
 10
614.931465
 20
457.280063
 42
-0.039821
  0
VERTEX
  8
0
 10
616.448211
 20
462.905989
 42
0.008485
  0
VERTEX
  8
0
 10
617.027157
 20
464.618709
 42
0.013205
  0
VERTEX
  8
0
 10
617.461700
 20
466.115263
 42
0.007368
  0
VERTEX
  8
0
 10
617.769395
 20
467.364778
 42
0.258570
  0
VERTEX
  8
0
 10
617.689290
 20
467.644043
 42
0.422449
  0
VERTEX
  8
0
 10
617.441439
 20
467.640569
 42
0.002979
  0
VERTEX
  8
0
 10
615.860115
 20
465.947915
 42
0.008627
  0
VERTEX
  8
0
 10
614.034121
 20
463.900089
 42
0.005142
  0
VERTEX
  8
0
 10
611.928613
 20
461.403685
 42
-0.029239
  0
VERTEX
  8
0
 10
607.141013
 20
456.252564
 42
-0.021980
  0
VERTEX
  8
0
 10
601.321141
 20
451.152839
 42
-0.021018
  0
VERTEX
  8
0
 10
594.762118
 20
446.334697
 42
-0.020330
  0
VERTEX
  8
0
 10
587.750031
 20
442.027092
 42
0.007259
  0
VERTEX
  8
0
 10
585.506832
 20
440.728562
 42
0.009882
  0
VERTEX
  8
0
 10
583.524896
 20
439.488684
 42
0.007110
  0
VERTEX
  8
0
 10
581.912542
 20
438.402089
 42
0.102859
  0
VERTEX
  8
0
 10
581.441014
 20
437.904559
 42
-0.188471
  0
VERTEX
  8
0
 10
580.480823
 20
437.182689
 42
-0.087667
  0
VERTEX
  8
0
 10
578.904404
 20
437.028987
 42
-0.099044
  0
VERTEX
  8
0
 10
577.507940
 20
437.423203
 42
-0.282474
  0
VERTEX
  8
0
 10
577.003738
 20
438.250000
 42
-0.142797
  0
VERTEX
  8
0
 10
577.809393
 20
440.983019
 42
-0.027843
  0
VERTEX
  8
0
 10
580.850103
 20
445.188552
 42
-0.021766
  0
VERTEX
  8
0
 10
585.729780
 20
450.694055
 42
-0.008133
  0
VERTEX
  8
0
 10
593.029909
 20
458.000000
 42
0.006449
  0
VERTEX
  8
0
 10
598.981326
 20
463.916182
 42
0.018573
  0
VERTEX
  8
0
 10
602.897883
 20
468.219974
 42
0.026519
  0
VERTEX
  8
0
 10
605.556054
 20
471.730019
 42
0.042814
  0
VERTEX
  8
0
 10
607.383251
 20
475.000000
 42
0.034406
  0
VERTEX
  8
0
 10
609.405380
 20
480.451496
 42
0.025029
  0
VERTEX
  8
0
 10
610.920390
 20
486.741225
 42
0.025336
  0
VERTEX
  8
0
 10
611.741821
 20
492.759133
 42
0.060966
  0
VERTEX
  8
0
 10
611.576720
 20
497.245587
 42
-0.075848
  0
VERTEX
  8
0
 10
611.556222
 20
500.109369
 42
-0.460663
  0
VERTEX
  8
0
 10
612.654675
 20
500.802914
 42
-0.115935
  0
VERTEX
  8
0
 10
614.982918
 20
499.435518
 42
-0.010950
  0
SEQEND
  0
POLYLINE
  8
0
 66
1
 70
1
  0
VERTEX
  8
0
 10
683.822349
 20
487.576902
 42
-0.055999
  0
VERTEX
  8
0
 10
687.318966
 20
482.809606
 42
-0.059152
  0
VERTEX
  8
0
 10
689.594011
 20
477.470092
 42
-0.055305
  0
VERTEX
  8
0
 10
690.655422
 20
471.435913
 42
-0.039956
  0
VERTEX
  8
0
 10
690.544342
 20
464.600346
 42
-0.024416
  0
VERTEX
  8
0
 10
689.785465
 20
459.401322
 42
-0.064546
  0
VERTEX
  8
0
 10
688.595422
 20
455.842209
 42
-0.104663
  0
VERTEX
  8
0
 10
686.973157
 20
453.752630
 42
-0.177343
  0
VERTEX
  8
0
 10
684.917930
 20
453.000000
 42
-0.042963
  0
VERTEX
  8
0
 10
684.176179
 20
453.063853
 42
-0.093351
  0
VERTEX
  8
0
 10
683.642789
 20
453.263349
 42
-0.171318
  0
VERTEX
  8
0
 10
683.401102
 20
453.557748
 42
-0.229301
  0
VERTEX
  8
0
 10
683.436038
 20
453.896507
 42
0.127512
  0
VERTEX
  8
0
 10
683.619529
 20
454.489854
 42
0.015063
  0
VERTEX
  8
0
 10
683.642001
 20
455.881941
 42
0.017232
  0
VERTEX
  8
0
 10
683.560258
 20
457.568074
 42
0.013329
  0
VERTEX
  8
0
 10
683.359131
 20
459.396507
 42
0.018508
  0
VERTEX
  8
0
 10
682.974084
 20
461.597012
 42
0.063313
  0
VERTEX
  8
0
 10
682.495113
 20
462.965414
 42
0.113169
  0
VERTEX
  8
0
 10
681.871194
 20
463.723639
 42
0.165714
  0
VERTEX
  8
0
 10
681.060243
 20
464.000000
 42
0.169125
  0
VERTEX
  8
0
 10
679.356531
 20
463.406751
 42
0.025184
  0
VERTEX
  8
0
 10
676.584905
 20
460.973313
 42
0.029188
  0
VERTEX
  8
0
 10
673.901278
 20
458.043461
 42
0.052399
  0
VERTEX
  8
0
 10
672.119994
 20
455.315741
 42
0.083892
  0
VERTEX
  8
0
 10
671.301414
 20
452.728343
 42
0.033985
  0
VERTEX
  8
0
 10
671.037887
 20
449.026644
 42
0.033866
  0
VERTEX
  8
0
 10
671.275905
 20
445.346178
 42
0.090019
  0
VERTEX
  8
0
 10
672.081020
 20
442.848612
 42
-0.048828
  0
VERTEX
  8
0
 10
672.806462
 20
441.102767
 42
-0.358421
  0
VERTEX
  8
0
 10
672.485427
 20
440.326347
 42
-0.240746
  0
VERTEX
  8
0
 10
671.441852
 20
440.307657
 42
-0.031372
  0
VERTEX
  8
0
 10
669.447414
 20
441.442499
 42
-0.093859
  0
VERTEX
  8
0
 10
667.106968
 20
443.699317
 42
-0.045591
  0
VERTEX
  8
0
 10
665.015753
 20
447.307223
 42
-0.044461
  0
VERTEX
  8
0
 10
663.532042
 20
451.431719
 42
-0.062751
  0
VERTEX
  8
0
 10
663.021962
 20
455.299660
 42
-0.060022
  0
VERTEX
  8
0
 10
663.412738
 20
458.709043
 42
-0.052105
  0
VERTEX
  8
0
 10
664.606728
 20
462.104523
 42
-0.038618
  0
VERTEX
  8
0
 10
666.826624
 20
465.986609
 42
-0.015024
  0
VERTEX
  8
0
 10
670.456622
 20
471.000000
 42
0.011926
  0
VERTEX
  8
0
 10
674.237980
 20
476.154903
 42
0.049735
  0
VERTEX
  8
0
 10
676.114810
 20
479.512999
 42
0.067511
  0
VERTEX
  8
0
 10
677.000056
 20
482.645206
 42
0.035171
  0
VERTEX
  8
0
 10
677.285714
 20
486.701190
 42
-0.027803
  0
VERTEX
  8
0
 10
677.512202
 20
490.771087
 42
-0.344323
  0
VERTEX
  8
0
 10
678.527089
 20
491.808543
 42
-0.228082
  0
VERTEX
  8
0
 10
680.209018
 20
491.259900
 42
-0.015570
  0
SEQEND
  0
POLYLINE
  8
0
 66
1
 70
1
  0
VERTEX
  8
0
 10
845.599962
 20
472.172374
 42
-0.039099
  0
VERTEX
  8
0
 10
850.910191
 20
467.649619
 42
-0.018316
  0
VERTEX
  8
0
 10
857.071207
 20
461.043183
 42
-0.018167
  0
VERTEX
  8
0
 10
862.653473
 20
454.105627
 42
-0.045975
  0
VERTEX
  8
0
 10
866.030689
 20
448.589227
 42
-0.033154
  0
VERTEX
  8
0
 10
869.457898
 20
440.279625
 42
-0.041473
  0
VERTEX
  8
0
 10
871.456123
 20
432.184402
 42
-0.045626
  0
VERTEX
  8
0
 10
871.971898
 20
424.601654
 42
-0.061990
  0
VERTEX
  8
0
 10
870.967490
 20
417.822691
 42
-0.053639
  0
VERTEX
  8
0
 10
869.596612
 20
414.371345
 42
-0.019197
  0
VERTEX
  8
0
 10
866.945078
 20
409.779353
 42
-0.013864
  0
VERTEX
  8
0
 10
864.055772
 20
405.461949
 42
-0.164065
  0
VERTEX
  8
0
 10
862.446857
 20
404.293620
 42
-0.459637
  0
VERTEX
  8
0
 10
861.961371
 20
404.597215
 42
-0.015494
  0
VERTEX
  8
0
 10
861.657562
 20
407.131972
 42
-0.016418
  0
VERTEX
  8
0
 10
861.451788
 20
410.837915
 42
-0.005581
  0
VERTEX
  8
0
 10
861.389895
 20
416.232286
 42
0.007852
  0
VERTEX
  8
0
 10
861.305985
 20
421.471151
 42
0.012382
  0
VERTEX
  8
0
 10
861.052168
 20
425.960154
 42
0.012784
  0
VERTEX
  8
0
 10
860.670300
 20
429.521708
 42
0.066887
  0
VERTEX
  8
0
 10
860.153287
 20
431.419654
 42
0.000000
  0
VERTEX
  8
0
 10
858.920497
 20
434.339309
 42
0.000000
  0
VERTEX
  8
0
 10
855.969291
 20
428.098986
 42
-0.015844
  0
VERTEX
  8
0
 10
854.587532
 20
425.401827
 42
-0.011127
  0
VERTEX
  8
0
 10
852.870617
 20
422.453836
 42
-0.011241
  0
VERTEX
  8
0
 10
851.098933
 20
419.702580
 42
-0.022974
  0
VERTEX
  8
0
 10
849.564862
 20
417.644460
 42
0.034219
  0
VERTEX
  8
0
 10
846.348543
 20
413.120722
 42
0.020977
  0
VERTEX
  8
0
 10
843.166084
 20
407.400438
 42
0.018772
  0
VERTEX
  8
0
 10
840.645841
 20
401.879206
 42
0.097981
  0
VERTEX
  8
0
 10
840.000000
 20
398.615104
 42
-0.036882
  0
VERTEX
  8
0
 10
839.926045
 20
397.613871
 42
-0.040923
  0
VERTEX
  8
0
 10
839.705700
 20
396.669661
 42
-0.044912
  0
VERTEX
  8
0
 10
839.383461
 20
395.909245
 42
-0.132424
  0
VERTEX
  8
0
 10
838.998127
 20
395.498843
 42
-0.430884
  0
VERTEX
  8
0
 10
837.738463
 20
395.834093
 42
-0.063513
  0
VERTEX
  8
0
 10
836.671681
 20
398.583359
 42
-0.039619
  0
VERTEX
  8
0
 10
835.920023
 20
403.123000
 42
-0.019248
  0
VERTEX
  8
0
 10
835.647131
 20
409.000000
 42
-0.012493
  0
VERTEX
  8
0
 10
835.729118
 20
413.801179
 42
-0.035125
  0
VERTEX
  8
0
 10
836.105355
 20
417.137962
 42
-0.038884
  0
VERTEX
  8
0
 10
836.919602
 20
420.195970
 42
-0.018351
  0
VERTEX
  8
0
 10
838.415452
 20
424.000000
 42
0.008804
  0
VERTEX
  8
0
 10
842.474071
 20
433.769443
 42
0.028571
  0
VERTEX
  8
0
 10
844.674077
 20
440.430207
 42
0.041351
  0
VERTEX
  8
0
 10
845.647816
 20
445.804794
 42
0.044795
  0
VERTEX
  8
0
 10
845.685280
 20
451.122077
 42
0.025940
  0
VERTEX
  8
0
 10
845.256669
 20
454.293009
 42
0.014475
  0
VERTEX
  8
0
 10
844.424629
 20
458.100017
 42
0.014134
  0
VERTEX
  8
0
 10
843.325348
 20
462.035445
 42
0.017580
  0
VERTEX
  8
0
 10
842.073510
 20
465.622077
 42
-0.002949
  0
VERTEX
  8
0
 10
840.898982
 20
468.695163
 42
-0.004357
  0
VERTEX
  8
0
 10
839.907993
 20
471.406173
 42
-0.002051
  0
VERTEX
  8
0
 10
839.095339
 20
473.720893
 42
-0.082033
  0
VERTEX
  8
0
 10
839.004603
 20
474.250000
 42
-0.364759
  0
VERTEX
  8
0
 10
839.546812
 20
474.902440
 42
-0.121355
  0
VERTEX
  8
0
 10
840.884790
 20
474.817170
 42
-0.056806
  0
VERTEX
  8
0
 10
842.994512
 20
473.878408
 42
-0.023798
  0
SEQEND
  0
POLYLINE
  8
0
 66
1
 70
1
  0
VERTEX
  8
0
 10
730.000000
 20
448.929406
 42
-0.138624
  0
VERTEX
  8
0
 10
729.819482
 20
448.290812
 42
-0.011007
  0
VERTEX
  8
0
 10
728.856773
 20
446.798724
 42
-0.014258
  0
VERTEX
  8
0
 10
727.598873
 20
445.049814
 42
-0.010432
  0
VERTEX
  8
0
 10
726.108165
 20
443.179406
 42
0.043863
  0
VERTEX
  8
0
 10
720.355327
 20
434.879603
 42
0.097872
  0
VERTEX
  8
0
 10
717.925245
 20
427.627007
 42
0.096425
  0
VERTEX
  8
0
 10
718.419351
 20
419.925625
 42
0.041714
  0
VERTEX
  8
0
 10
721.857143
 20
410.197975
 42
-0.007218
  0
VERTEX
  8
0
 10
724.315761
 20
404.520177
 42
-0.027322
  0
VERTEX
  8
0
 10
725.604605
 20
400.871791
 42
-0.048956
  0
VERTEX
  8
0
 10
726.025141
 20
398.650606
 42
-0.440612
  0
VERTEX
  8
0
 10
725.430175
 20
398.000000
 42
-0.162694
  0
VERTEX
  8
0
 10
723.577620
 20
398.619190
 42
-0.010912
  0
VERTEX
  8
0
 10
719.127179
 20
402.123018
 42
-0.016259
  0
VERTEX
  8
0
 10
714.376699
 20
406.300334
 42
-0.018812
  0
VERTEX
  8
0
 10
710.141976
 20
410.586365
 42
0.000000
  0
VERTEX
  8
0
 10
704.042738
 20
417.242608
 42
0.000000
  0
VERTEX
  8
0
 10
703.021369
 20
414.556204
 42
0.052554
  0
VERTEX
  8
0
 10
702.313413
 20
411.876716
 42
0.037330
  0
VERTEX
  8
0
 10
702.068984
 20
408.776298
 42
0.033330
  0
VERTEX
  8
0
 10
702.286216
 20
405.309792
 42
0.024656
  0
VERTEX
  8
0
 10
702.968598
 20
401.528075
 42
-0.012499
  0
VERTEX
  8
0
 10
703.288362
 20
399.973222
 42
-0.018257
  0
VERTEX
  8
0
 10
703.485266
 20
398.589196
 42
-0.013931
  0
VERTEX
  8
0
 10
703.572409
 20
397.458986
 42
-0.211703
  0
VERTEX
  8
0
 10
703.434310
 20
397.100977
 42
-0.417738
  0
VERTEX
  8
0
 10
702.073125
 20
397.109158
 42
-0.032284
  0
VERTEX
  8
0
 10
699.444094
 20
400.175079
 42
-0.035628
  0
VERTEX
  8
0
 10
696.902531
 20
404.113681
 42
-0.054786
  0
VERTEX
  8
0
 10
695.352637
 20
407.858916
 42
-0.114920
  0
VERTEX
  8
0
 10
694.695702
 20
419.995858
 42
-0.102099
  0
VERTEX
  8
0
 10
699.372517
 20
431.764668
 42
-0.092855
  0
VERTEX
  8
0
 10
708.830383
 20
441.578554
 42
-0.077461
  0
VERTEX
  8
0
 10
721.797697
 20
448.069197
 42
-0.006638
  0
VERTEX
  8
0
 10
726.186364
 20
449.408477
 42
-0.044636
  0
VERTEX
  8
0
 10
728.418574
 20
449.846356
 42
-0.138455
  0
VERTEX
  8
0
 10
729.544243
 20
449.652353
 42
-0.288900
  0
SEQEND
  0
POLYLINE
  8
0
 66
1
 70
1
  0
VERTEX
  8
0
 10
808.281552
 20
390.000000
 42
-0.005414
  0
VERTEX
  8
0
 10
805.260652
 20
386.550552
 42
-0.008373
  0
VERTEX
  8
0
 10
802.569817
 20
383.643750
 42
-0.003603
  0
VERTEX
  8
0
 10
800.232547
 20
381.237155
 42
-0.200838
  0
VERTEX
  8
0
 10
799.665949
 20
381.000000
 42
0.140244
  0
VERTEX
  8
0
 10
797.506104
 20
380.382034
 42
0.008535
  0
VERTEX
  8
0
 10
791.808171
 20
376.694279
 42
0.013806
  0
VERTEX
  8
0
 10
785.984085
 20
372.544400
 42
0.023445
  0
VERTEX
  8
0
 10
781.383997
 20
368.719985
 42
0.069393
  0
VERTEX
  8
0
 10
771.084457
 20
356.285573
 42
0.061400
  0
VERTEX
  8
0
 10
764.060641
 20
340.992872
 42
0.062486
  0
VERTEX
  8
0
 10
761.049861
 20
324.733454
 42
0.077866
  0
VERTEX
  8
0
 10
762.538063
 20
309.460099
 42
0.038663
  0
VERTEX
  8
0
 10
764.904831
 20
302.546676
 42
0.009952
  0
VERTEX
  8
0
 10
769.795103
 20
291.799538
 42
0.009879
  0
VERTEX
  8
0
 10
775.990254
 20
279.502877
 42
0.008897
  0
VERTEX
  8
0
 10
782.879050
 20
267.019105
 42
-0.016541
  0
VERTEX
  8
0
 10
788.074907
 20
257.253312
 42
-0.027475
  0
VERTEX
  8
0
 10
791.713639
 20
248.669424
 42
-0.029306
  0
VERTEX
  8
0
 10
794.232551
 20
240.147895
 42
-0.022533
  0
VERTEX
  8
0
 10
796.005658
 20
230.607584
 42
-0.032527
  0
VERTEX
  8
0
 10
796.806233
 20
219.760078
 42
-0.044788
  0
VERTEX
  8
0
 10
796.017091
 20
210.024100
 42
-0.042801
  0
VERTEX
  8
0
 10
793.460903
 20
200.255828
 42
-0.026403
  0
VERTEX
  8
0
 10
788.895247
 20
189.282708
 42
-0.012256
  0
VERTEX
  8
0
 10
786.076454
 20
183.755366
 42
-0.026944
  0
VERTEX
  8
0
 10
783.597431
 20
179.711804
 42
-0.028938
  0
VERTEX
  8
0
 10
780.813862
 20
176.137897
 42
-0.016457
  0
VERTEX
  8
0
 10
777.067645
 20
172.136610
 42
-0.045746
  0
VERTEX
  8
0
 10
767.870941
 20
164.484648
 42
-0.059064
  0
VERTEX
  8
0
 10
758.158352
 20
159.371855
 42
-0.059307
  0
VERTEX
  8
0
 10
747.552113
 20
156.685268
 42
-0.046652
  0
VERTEX
  8
0
 10
735.696589
 20
156.253856
 42
-0.012689
  0
VERTEX
  8
0
 10
730.793251
 20
156.658019
 42
-0.033703
  0
VERTEX
  8
0
 10
727.333849
 20
157.269661
 42
-0.037552
  0
VERTEX
  8
0
 10
724.206608
 20
158.297145
 42
-0.019295
  0
VERTEX
  8
0
 10
720.457574
 20
160.021535
 42
-0.042005
  0
VERTEX
  8
0
 10
715.363730
 20
163.170222
 42
-0.025092
  0
VERTEX
  8
0
 10
709.857235
 20
167.694445
 42
-0.025053
  0
VERTEX
  8
0
 10
705.017067
 20
172.560372
 42
-0.060623
  0
VERTEX
  8
0
 10
702.110247
 20
176.705690
 42
-0.101867
  0
VERTEX
  8
0
 10
700.611008
 20
181.777484
 42
-0.016558
  0
VERTEX
  8
0
 10
700.081919
 20
192.087801
 42
-0.018511
  0
VERTEX
  8
0
 10
700.279158
 20
202.544959
 42
-0.065237
  0
VERTEX
  8
0
 10
701.521234
 20
209.139576
 42
-0.019490
  0
VERTEX
  8
0
 10
703.496431
 20
214.460763
 42
-0.018108
  0
VERTEX
  8
0
 10
705.924668
 20
219.746798
 42
-0.017349
  0
VERTEX
  8
0
 10
708.837234
 20
225.058963
 42
-0.014745
  0
VERTEX
  8
0
 10
712.265756
 20
230.458815
 42
0.020531
  0
VERTEX
  8
0
 10
716.212259
 20
236.836323
 42
0.025457
  0
VERTEX
  8
0
 10
719.324321
 20
243.083336
 42
0.028155
  0
VERTEX
  8
0
 10
721.484065
 20
248.909704
 42
0.047743
  0
VERTEX
  8
0
 10
722.533275
 20
254.000000
 42
0.051297
  0
VERTEX
  8
0
 10
722.558032
 20
258.622738
 42
0.025782
  0
VERTEX
  8
0
 10
721.692345
 20
264.401426
 42
0.024251
  0
VERTEX
  8
0
 10
720.107978
 20
270.638948
 42
0.024046
  0
VERTEX
  8
0
 10
717.923363
 20
276.711835
 42
-0.022383
  0
VERTEX
  8
0
 10
717.459314
 20
277.988479
 42
-0.031278
  0
VERTEX
  8
0
 10
717.169126
 20
279.167406
 42
-0.032077
  0
VERTEX
  8
0
 10
717.059060
 20
280.122966
 42
-0.212083
  0
VERTEX
  8
0
 10
717.227657
 20
280.560991
 42
-0.323682
  0
VERTEX
  8
0
 10
718.489787
 20
280.763791
 42
-0.011096
  0
VERTEX
  8
0
 10
723.164287
 20
278.276766
 42
-0.019868
  0
VERTEX
  8
0
 10
728.004428
 20
275.303441
 42
-0.029344
  0
VERTEX
  8
0
 10
731.973583
 20
272.290616
 42
-0.039428
  0
VERTEX
  8
0
 10
733.736566
 20
270.522820
 42
-0.019556
  0
VERTEX
  8
0
 10
735.694809
 20
268.031248
 42
-0.019035
  0
VERTEX
  8
0
 10
737.568450
 20
265.226489
 42
-0.023356
  0
VERTEX
  8
0
 10
739.090174
 20
262.468395
 42
-0.014630
  0
VERTEX
  8
0
 10
740.880204
 20
258.546805
 42
-0.051236
  0
VERTEX
  8
0
 10
741.691098
 20
255.893184
 42
-0.050813
  0
VERTEX
  8
0
 10
741.948866
 20
253.118900
 42
-0.014223
  0
VERTEX
  8
0
 10
741.786057
 20
248.760369
 42
-0.019773
  0
VERTEX
  8
0
 10
741.360756
 20
244.737227
 42
-0.034233
  0
VERTEX
  8
0
 10
740.649272
 20
241.452409
 42
-0.031895
  0
VERTEX
  8
0
 10
739.457606
 20
238.141773
 42
-0.014763
  0
VERTEX
  8
0
 10
737.513785
 20
234.000000
 42
0.010111
  0
VERTEX
  8
0
 10
734.389010
 20
227.499820
 42
0.043005
  0
VERTEX
  8
0
 10
732.944560
 20
223.441311
 42
0.068678
  0
VERTEX
  8
0
 10
732.559787
 20
220.218516
 42
0.061257
  0
VERTEX
  8
0
 10
733.032810
 20
216.878152
 42
0.164591
  0
VERTEX
  8
0
 10
737.218028
 20
210.617815
 42
0.163420
  0
VERTEX
  8
0
 10
744.357676
 20
208.162159
 42
0.137103
  0
VERTEX
  8
0
 10
752.538088
 20
210.384045
 42
0.108010
  0
VERTEX
  8
0
 10
759.264296
 20
216.686775
 42
0.025343
  0
VERTEX
  8
0
 10
761.516791
 20
220.344028
 42
0.043879
  0
VERTEX
  8
0
 10
762.950723
 20
223.610558
 42
0.034757
  0
VERTEX
  8
0
 10
763.988183
 20
227.566758
 42
0.010447
  0
VERTEX
  8
0
 10
765.017704
 20
233.708494
 42
0.049654
  0
VERTEX
  8
0
 10
765.474270
 20
243.634709
 42
0.047069
  0
VERTEX
  8
0
 10
763.989128
 20
253.641940
 42
0.032450
  0
VERTEX
  8
0
 10
760.075390
 20
266.018248
 42
0.009942
  0
VERTEX
  8
0
 10
752.597050
 20
284.157728
 42
-0.038485
  0
VERTEX
  8
0
 10
746.688431
 20
301.186129
 42
-0.051083
  0
VERTEX
  8
0
 10
744.159144
 20
317.375702
 42
-0.054358
  0
VERTEX
  8
0
 10
745.025659
 20
332.913615
 42
-0.053377
  0
VERTEX
  8
0
 10
749.216725
 20
348.000000
 42
-0.062751
  0
VERTEX
  8
0
 10
757.927691
 20
363.833659
 42
-0.054176
  0
VERTEX
  8
0
 10
770.684082
 20
377.901532
 42
-0.053138
  0
VERTEX
  8
0
 10
786.437802
 20
389.144188
 42
-0.055329
  0
VERTEX
  8
0
 10
804.000000
 20
396.633791
 42
-0.005615
  0
VERTEX
  8
0
 10
812.786019
 20
399.172925
 42
-0.327995
  0
VERTEX
  8
0
 10
814.260491
 20
398.611567
 42
-0.325653
  0
VERTEX
  8
0
 10
814.171090
 20
397.030905
 42
-0.005572
  0
SEQEND
  0
POLYLINE
  8
0
 66
1
 70
1
  0
VERTEX
  8
0
 10
668.281545
 20
383.912349
 42
-0.024940
  0
VERTEX
  8
0
 10
677.324656
 20
380.365638
 42
-0.032921
  0
VERTEX
  8
0
 10
685.135980
 20
376.204668
 42
-0.032948
  0
VERTEX
  8
0
 10
692.328591
 20
371.057369
 42
-0.025045
  0
VERTEX
  8
0
 10
699.507990
 20
364.540065
 42
-0.011752
  0
VERTEX
  8
0
 10
703.159308
 20
360.699300
 42
-0.011244
  0
VERTEX
  8
0
 10
706.681767
 20
356.635222
 42
-0.011250
  0
VERTEX
  8
0
 10
709.627616
 20
352.910346
 42
-0.039056
  0
VERTEX
  8
0
 10
711.279842
 20
350.324523
 42
-0.038112
  0
VERTEX
  8
0
 10
713.741770
 20
344.726284
 42
-0.020819
  0
VERTEX
  8
0
 10
715.934606
 20
337.548401
 42
-0.020813
  0
VERTEX
  8
0
 10
717.500661
 20
330.316051
 42
-0.043701
  0
VERTEX
  8
0
 10
717.984379
 20
324.590037
 42
-0.032752
  0
VERTEX
  8
0
 10
717.640577
 20
319.582488
 42
-0.022488
  0
VERTEX
  8
0
 10
716.626619
 20
313.978482
 42
-0.022225
  0
VERTEX
  8
0
 10
715.219256
 20
308.861645
 42
-0.066897
  0
VERTEX
  8
0
 10
713.659327
 20
305.602819
 42
-0.036605
  0
VERTEX
  8
0
 10
712.675970
 20
304.317877
 42
-0.123969
  0
VERTEX
  8
0
 10
711.809597
 20
303.728049
 42
-0.122696
  0
VERTEX
  8
0
 10
710.761883
 20
303.615647
 42
-0.035516
  0
VERTEX
  8
0
 10
709.158483
 20
303.954548
 42
-0.020883
  0
VERTEX
  8
0
 10
705.201972
 20
305.270344
 42
-0.101998
  0
VERTEX
  8
0
 10
703.221134
 20
306.529154
 42
-0.171974
  0
VERTEX
  8
0
 10
702.435008
 20
308.112752
 42
-0.089820
  0
VERTEX
  8
0
 10
702.566502
 20
310.338941
 42
0.036576
  0
VERTEX
  8
0
 10
702.865793
 20
312.135907
 42
0.007405
  0
VERTEX
  8
0
 10
703.115055
 20
315.362064
 42
0.007776
  0
VERTEX
  8
0
 10
703.291382
 20
319.131128
 42
0.007210
  0
VERTEX
  8
0
 10
703.356300
 20
323.000000
 42
0.009122
  0
VERTEX
  8
0
 10
703.265634
 20
328.706896
 42
0.041494
  0
VERTEX
  8
0
 10
702.877829
 20
332.004316
 42
0.050539
  0
VERTEX
  8
0
 10
701.984984
 20
334.880400
 42
0.017912
  0
VERTEX
  8
0
 10
700.155672
 20
338.788202
 42
0.013107
  0
VERTEX
  8
0
 10
698.859402
 20
341.161850
 42
0.021926
  0
VERTEX
  8
0
 10
697.632375
 20
343.076570
 42
0.017861
  0
VERTEX
  8
0
 10
696.569194
 20
344.476651
 42
0.376169
  0
VERTEX
  8
0
 10
696.091682
 20
344.556662
 42
0.185753
  0
VERTEX
  8
0
 10
695.740012
 20
344.093970
 42
0.016313
  0
VERTEX
  8
0
 10
695.369321
 20
342.641985
 42
0.019641
  0
VERTEX
  8
0
 10
695.042225
 20
340.824451
 42
0.013997
  0
VERTEX
  8
0
 10
694.813503
 20
338.768460
 42
-0.052649
  0
VERTEX
  8
0
 10
693.783372
 20
333.353727
 42
-0.039214
  0
VERTEX
  8
0
 10
691.573317
 20
327.682448
 42
-0.034914
  0
VERTEX
  8
0
 10
688.201124
 20
321.789751
 42
-0.025148
  0
VERTEX
  8
0
 10
683.675348
 20
315.709420
 42
0.017407
  0
VERTEX
  8
0
 10
681.259270
 20
312.566192
 42
0.010727
  0
VERTEX
  8
0
 10
678.628355
 20
308.712947
 42
0.010753
  0
VERTEX
  8
0
 10
676.188114
 20
304.786912
 42
0.018901
  0
VERTEX
  8
0
 10
674.366643
 20
301.427347
 42
-0.010905
  0
VERTEX
  8
0
 10
672.724678
 20
298.279781
 42
-0.029250
  0
VERTEX
  8
0
 10
671.380415
 20
296.140965
 42
-0.041453
  0
VERTEX
  8
0
 10
670.324701
 20
294.893815
 42
-0.414237
  0
VERTEX
  8
0
 10
669.706209
 20
294.893791
 42
-0.173304
  0
VERTEX
  8
0
 10
669.342026
 20
295.662972
 42
-0.011573
  0
VERTEX
  8
0
 10
669.154284
 20
298.133299
 42
-0.015389
  0
VERTEX
  8
0
 10
669.087345
 20
301.184824
 42
-0.010298
  0
VERTEX
  8
0
 10
669.190144
 20
304.675864
 42
-0.016418
  0
VERTEX
  8
0
 10
669.638004
 20
310.068067
 42
-0.039377
  0
VERTEX
  8
0
 10
670.412332
 20
314.000679
 42
-0.030564
  0
VERTEX
  8
0
 10
671.909037
 20
318.310689
 42
-0.006731
  0
VERTEX
  8
0
 10
675.023518
 20
325.500000
 42
0.005825
  0
VERTEX
  8
0
 10
678.326683
 20
333.087164
 42
0.036516
  0
VERTEX
  8
0
 10
679.679942
 20
337.090621
 42
0.047855
  0
VERTEX
  8
0
 10
680.267261
 20
340.792861
 42
0.014246
  0
VERTEX
  8
0
 10
680.457509
 20
346.521027
 42
0.010576
  0
VERTEX
  8
0
 10
680.368577
 20
351.929932
 42
0.042485
  0
VERTEX
  8
0
 10
679.964795
 20
355.209334
 42
0.047280
  0
VERTEX
  8
0
 10
679.033277
 20
358.200336
 42
0.015266
  0
VERTEX
  8
0
 10
677.109593
 20
362.428950
 42
0.025984
  0
VERTEX
  8
0
 10
675.187386
 20
365.870055
 42
0.018407
  0
VERTEX
  8
0
 10
672.695694
 20
369.526337
 42
0.017134
  0
VERTEX
  8
0
 10
669.725839
 20
373.280616
 42
0.014766
  0
VERTEX
  8
0
 10
666.359593
 20
377.019045
 42
-0.003872
  0
VERTEX
  8
0
 10
663.538687
 20
380.017807
 42
-0.006049
  0
VERTEX
  8
0
 10
661.161880
 20
382.647100
 42
-0.002094
  0
VERTEX
  8
0
 10
659.158059
 20
384.937693
 42
-0.180557
  0
VERTEX
  8
0
 10
659.000000
 20
385.361122
 42
-0.392562
  0
VERTEX
  8
0
 10
659.530473
 20
385.932656
 42
-0.057395
  0
VERTEX
  8
0
 10
661.261107
 20
385.863085
 42
-0.032563
  0
VERTEX
  8
0
 10
664.077515
 20
385.233441
 42
-0.009712
  0
SEQEND
  0
POLYLINE
  8
0
 66
1
 70
1
  0
VERTEX
  8
0
 10
824.542218
 20
351.250000
 42
0.044267
  0
VERTEX
  8
0
 10
823.577306
 20
345.181318
 42
0.016337
  0
VERTEX
  8
0
 10
823.260571
 20
336.515052
 42
0.016439
  0
VERTEX
  8
0
 10
823.513597
 20
327.796679
 42
0.041135
  0
VERTEX
  8
0
 10
824.427357
 20
321.500000
 42
0.023896
  0
VERTEX
  8
0
 10
826.761168
 20
313.200404
 42
0.015913
  0
VERTEX
  8
0
 10
830.184419
 20
303.929645
 42
0.015601
  0
VERTEX
  8
0
 10
834.306725
 20
294.617352
 42
0.018917
  0
VERTEX
  8
0
 10
838.764958
 20
286.173279
 42
-0.009223
  0
VERTEX
  8
0
 10
844.027245
 20
276.657722
 42
-0.013038
  0
VERTEX
  8
0
 10
848.331635
 20
267.983764
 42
-0.014819
  0
VERTEX
  8
0
 10
851.609314
 20
260.336572
 42
-0.028425
  0
VERTEX
  8
0
 10
853.698327
 20
254.000000
 42
-0.043501
  0
VERTEX
  8
0
 10
855.025617
 20
246.478671
 42
-0.022931
  0
VERTEX
  8
0
 10
855.422899
 20
236.995519
 42
-0.022915
  0
VERTEX
  8
0
 10
854.955695
 20
227.623299
 42
-0.048639
  0
VERTEX
  8
0
 10
853.564804
 20
220.500000
 42
-0.035253
  0
VERTEX
  8
0
 10
850.446303
 20
212.227827
 42
-0.029616
  0
VERTEX
  8
0
 10
846.034086
 20
203.959796
 42
-0.025090
  0
VERTEX
  8
0
 10
841.588374
 20
197.455730
 42
-0.454524
  0
VERTEX
  8
0
 10
839.362155
 20
197.304512
 42
-0.223432
  0
VERTEX
  8
0
 10
839.164071
 20
197.854400
 42
-0.006728
  0
VERTEX
  8
0
 10
839.431722
 20
200.338180
 42
-0.012143
  0
VERTEX
  8
0
 10
839.866745
 20
203.315494
 42
-0.007947
  0
VERTEX
  8
0
 10
840.505751
 20
206.725121
 42
0.029832
  0
VERTEX
  8
0
 10
841.807534
 20
215.862855
 42
0.020464
  0
VERTEX
  8
0
 10
842.236278
 20
226.329288
 42
0.020648
  0
VERTEX
  8
0
 10
841.813159
 20
236.575327
 42
0.035673
  0
VERTEX
  8
0
 10
840.506449
 20
245.000000
 42
0.036737
  0
VERTEX
  8
0
 10
837.871926
 20
253.558020
 42
0.023434
  0
VERTEX
  8
0
 10
833.633935
 20
263.075196
 42
0.019063
  0
VERTEX
  8
0
 10
827.568470
 20
274.075245
 42
0.010125
  0
VERTEX
  8
0
 10
819.272767
 20
287.240005
 42
-0.013514
  0
VERTEX
  8
0
 10
817.596529
 20
289.940503
 42
-0.019163
  0
VERTEX
  8
0
 10
816.265464
 20
292.435011
 42
-0.015554
  0
VERTEX
  8
0
 10
815.328464
 20
294.529068
 42
-0.191293
  0
VERTEX
  8
0
 10
815.318494
 20
295.387599
 42
0.122788
  0
VERTEX
  8
0
 10
815.427394
 20
296.275392
 42
0.011021
  0
VERTEX
  8
0
 10
815.102233
 20
298.512462
 42
0.013817
  0
VERTEX
  8
0
 10
814.574794
 20
301.196820
 42
0.010354
  0
VERTEX
  8
0
 10
813.851740
 20
304.121658
 42
-0.045963
  0
VERTEX
  8
0
 10
812.385785
 20
312.600759
 42
-0.027395
  0
VERTEX
  8
0
 10
812.134078
 20
322.847433
 42
-0.027311
  0
VERTEX
  8
0
 10
812.967066
 20
332.644065
 42
-0.069218
  0
VERTEX
  8
0
 10
814.921066
 20
339.500000
 42
-0.024138
  0
VERTEX
  8
0
 10
818.473710
 20
346.596741
 42
-0.043456
  0
VERTEX
  8
0
 10
822.141701
 20
351.966817
 42
-0.293963
  0
VERTEX
  8
0
 10
823.802617
 20
352.504106
 42
-0.410470
  0
SEQEND
  0
POLYLINE
  8
0
 66
1
 70
1
  0
VERTEX
  8
0
 10
508.860784
 20
790.090954
 42
0.095757
  0
VERTEX
  8
0
 10
507.513552
 20
788.491046
 42
0.082582
  0
VERTEX
  8
0
 10
506.771149
 20
786.419672
 42
0.032438
  0
VERTEX
  8
0
 10
506.360112
 20
782.845676
 42
0.003246
  0
VERTEX
  8
0
 10
505.988942
 20
774.251216
 42
-0.004007
  0
VERTEX
  8
0
 10
505.605196
 20
765.668767
 42
-0.031951
  0
VERTEX
  8
0
 10
505.144162
 20
761.731929
 42
-0.061637
  0
VERTEX
  8
0
 10
504.287795
 20
758.998179
 42
-0.039498
  0
VERTEX
  8
0
 10
502.674574
 20
756.084434
 42
-0.073532
  0
VERTEX
  8
0
 10
498.907875
 20
751.887311
 42
-0.079261
  0
VERTEX
  8
0
 10
494.176917
 20
749.087312
 42
-0.063941
  0
VERTEX
  8
0
 10
487.978009
 20
747.514353
 42
-0.029958
  0
VERTEX
  8
0
 10
479.702251
 20
747.009769
 42
0.005447
  0
VERTEX
  8
0
 10
473.630861
 20
746.937572
 42
0.047714
  0
VERTEX
  8
0
 10
470.961315
 20
746.620717
 42
0.096869
  0
VERTEX
  8
0
 10
469.202827
 20
745.863455
 42
0.055963
  0
VERTEX
  8
0
 10
467.452251
 20
744.353977
 42
0.071217
  0
VERTEX
  8
0
 10
465.707227
 20
741.831608
 42
0.116333
  0
VERTEX
  8
0
 10
465.113667
 20
739.312407
 42
0.119412
  0
VERTEX
  8
0
 10
465.713233
 20
736.840223
 42
0.077597
  0
VERTEX
  8
0
 10
467.454545
 20
734.454545
 42
0.057741
  0
VERTEX
  8
0
 10
469.163316
 20
733.100640
 42
0.085747
  0
VERTEX
  8
0
 10
470.929991
 20
732.387591
 42
0.046269
  0
VERTEX
  8
0
 10
473.537377
 20
732.073016
 42
0.006899
  0
VERTEX
  8
0
 10
478.828819
 20
732.000000
 42
-0.024238
  0
VERTEX
  8
0
 10
485.949741
 20
731.654603
 42
-0.048467
  0
VERTEX
  8
0
 10
491.475411
 20
730.570163
 42
-0.058698
  0
VERTEX
  8
0
 10
495.958927
 20
728.632605
 42
-0.058838
  0
VERTEX
  8
0
 10
499.865516
 20
725.707468
 42
-0.049279
  0
VERTEX
  8
0
 10
502.941921
 20
722.143198
 42
-0.074188
  0
VERTEX
  8
0
 10
504.781161
 20
718.481512
 42
-0.058868
  0
VERTEX
  8
0
 10
505.719902
 20
713.845238
 42
-0.020547
  0
VERTEX
  8
0
 10
506.000000
 20
707.032119
 42
0.007263
  0
VERTEX
  8
0
 10
506.072786
 20
702.021641
 42
0.037590
  0
VERTEX
  8
0
 10
506.360716
 20
699.268299
 42
0.069375
  0
VERTEX
  8
0
 10
506.955672
 20
697.460060
 42
0.082437
  0
VERTEX
  8
0
 10
508.000000
 20
696.000000
 42
0.092454
  0
VERTEX
  8
0
 10
510.567576
 20
694.239600
 42
0.118817
  0
VERTEX
  8
0
 10
513.375120
 20
693.728404
 42
0.114564
  0
VERTEX
  8
0
 10
516.183931
 20
694.549953
 42
0.081723
  0
VERTEX
  8
0
 10
518.750000
 20
696.607142
 42
0.061364
  0
VERTEX
  8
0
 10
519.953362
 20
698.331206
 42
0.073043
  0
VERTEX
  8
0
 10
520.616136
 20
700.199099
 42
0.041284
  0
VERTEX
  8
0
 10
520.923662
 20
702.918247
 42
0.007524
  0
VERTEX
  8
0
 10
521.000000
 20
707.990664
 42
-0.015924
  0
VERTEX
  8
0
 10
521.202207
 20
714.338223
 42
-0.046784
  0
VERTEX
  8
0
 10
521.885918
 20
718.651911
 42
-0.064554
  0
VERTEX
  8
0
 10
523.192894
 20
721.927778
 42
-0.060244
  0
VERTEX
  8
0
 10
525.316612
 20
724.847318
 42
-0.061607
  0
VERTEX
  8
0
 10
528.872555
 20
727.833374
 42
-0.062783
  0
VERTEX
  8
0
 10
533.027010
 20
729.840441
 42
-0.048478
  0
VERTEX
  8
0
 10
538.417030
 20
731.089785
 42
-0.019976
  0
VERTEX
  8
0
 10
545.889594
 20
731.771219
 42
0.006011
  0
VERTEX
  8
0
 10
551.892843
 20
732.150017
 42
0.035747
  0
VERTEX
  8
0
 10
554.999111
 20
732.608371
 42
0.068746
  0
VERTEX
  8
0
 10
557.012724
 20
733.355377
 42
0.073352
  0
VERTEX
  8
0
 10
558.699236
 20
734.608327
 42
0.087791
  0
VERTEX
  8
0
 10
560.347296
 20
736.965007
 42
0.113131
  0
VERTEX
  8
0
 10
560.896040
 20
739.541704
 42
0.110999
  0
VERTEX
  8
0
 10
560.270330
 20
742.137146
 42
0.082119
  0
VERTEX
  8
0
 10
558.545455
 20
744.545455
 42
0.059852
  0
VERTEX
  8
0
 10
556.807945
 20
745.910270
 42
0.086474
  0
VERTEX
  8
0
 10
554.993556
 20
746.621860
 42
0.044310
  0
VERTEX
  8
0
 10
552.264619
 20
746.930654
 42
0.006029
  0
VERTEX
  8
0
 10
546.513336
 20
747.000000
 42
-0.029229
  0
VERTEX
  8
0
 10
537.320222
 20
747.537878
 42
-0.086275
  0
VERTEX
  8
0
 10
531.275707
 20
749.335116
 42
-0.107240
  0
VERTEX
  8
0
 10
526.949722
 20
752.796306
 42
-0.060880
  0
VERTEX
  8
0
 10
523.368034
 20
758.500000
 42
-0.031469
  0
VERTEX
  8
0
 10
522.121608
 20
761.655433
 42
-0.042382
  0
VERTEX
  8
0
 10
521.426051
 20
764.645393
 42
-0.028374
  0
VERTEX
  8
0
 10
521.088260
 20
768.512932
 42
-0.006693
  0
VERTEX
  8
0
 10
520.977966
 20
775.000000
 42
0.009262
  0
VERTEX
  8
0
 10
520.806078
 20
782.763070
 42
0.061489
  0
VERTEX
  8
0
 10
520.176741
 20
786.578252
 42
0.119338
  0
VERTEX
  8
0
 10
518.811206
 20
788.942008
 42
0.080170
  0
VERTEX
  8
0
 10
516.315741
 20
790.836657
 42
0.046325
  0
VERTEX
  8
0
 10
514.203137
 20
791.721905
 42
0.101324
  0
VERTEX
  8
0
 10
512.465478
 20
791.900224
 42
0.100446
  0
VERTEX
  8
0
 10
510.787896
 20
791.381442
 42
0.044995
  0
SEQEND
  0
POLYLINE
  8
0
 66
1
 70
1
  0
VERTEX
  8
0
 10
147.970194
 20
146.055694
 42
0.025697
  0
VERTEX
  8
0
 10
148.449235
 20
145.261545
 42
0.022480
  0
VERTEX
  8
0
 10
149.027730
 20
144.483125
 42
0.023106
  0
VERTEX
  8
0
 10
149.615119
 20
143.827118
 42
0.060260
  0
VERTEX
  8
0
 10
150.109104
 20
143.432570
 42
0.369416
  0
VERTEX
  8
0
 10
150.327804
 20
143.466554
 42
0.260080
  0
VERTEX
  8
0
 10
150.379934
 20
143.723698
 42
0.051980
  0
VERTEX
  8
0
 10
150.079745
 20
144.409241
 42
0.015861
  0
VERTEX
  8
0
 10
149.488717
 20
145.376876
 42
0.011834
  0
VERTEX
  8
0
 10
148.139212
 20
147.333834
 42
0.131512
  0
VERTEX
  8
0
 10
147.409001
 20
147.926625
 42
0.682750
  0
VERTEX
  8
0
 10
147.179304
 20
147.700423
 42
0.021591
  0
SEQEND
  0
POLYLINE
  8
0
 66
1
 70
1
  0
VERTEX
  8
0
 10
152.210573
 20
140.600859
 42
0.023968
  0
VERTEX
  8
0
 10
152.730077
 20
140.088723
 42
0.038420
  0
VERTEX
  8
0
 10
153.224083
 20
139.710420
 42
0.045304
  0
VERTEX
  8
0
 10
153.632938
 20
139.494344
 42
0.297152
  0
VERTEX
  8
0
 10
153.850136
 20
139.534328
 42
0.301864
  0
VERTEX
  8
0
 10
153.981063
 20
140.107085
 42
0.076948
  0
VERTEX
  8
0
 10
153.487692
 20
140.978461
 42
0.069007
  0
VERTEX
  8
0
 10
152.687482
 20
141.745464
 42
0.157897
  0
VERTEX
  8
0
 10
151.901556
 20
142.000000
 42
0.236389
  0
VERTEX
  8
0
 10
151.649322
 20
141.873691
 42
0.218285
  0
VERTEX
  8
0
 10
151.587911
 20
141.589002
 42
0.095760
  0
VERTEX
  8
0
 10
151.782662
 20
141.138842
 42
0.036357
  0
SEQEND
  0
ENDSEC
  0
EOF
