  0
SECTION
  2
HEADER
  9
$ACADVER
  1
AC1006
  9
$EXTMIN
 10
0.000000
 20
0.000000
 30
0.000000
  9
$EXTMAX
 10
1024.000000
 20
1024.000000
 30
0.000000
  0
ENDSEC
  0
SECTION
  2
ENTITIES
  0
POLYLINE
  8
0
 66
1
 70
1
  0
VERTEX
  8
0
 10
433.086658
 20
817.086658
 42
0.062893
  0
VERTEX
  8
0
 10
432.079109
 20
815.787848
 42
0.065618
  0
VERTEX
  8
0
 10
431.443459
 20
814.297329
 42
0.049300
  0
VERTEX
  8
0
 10
431.103169
 20
812.356174
 42
0.018757
  0
VERTEX
  8
0
 10
431.000000
 20
809.606989
 42
-0.028568
  0
VERTEX
  8
0
 10
430.785795
 20
805.861011
 42
-0.164473
  0
VERTEX
  8
0
 10
429.951262
 20
804.089589
 42
-0.171225
  0
VERTEX
  8
0
 10
428.233265
 20
803.226954
 42
-0.031555
  0
VERTEX
  8
0
 10
424.640719
 20
803.000000
 42
0.103258
  0
VERTEX
  8
0
 10
420.519845
 20
802.139802
 42
0.151859
  0
VERTEX
  8
0
 10
417.741764
 20
799.737485
 42
0.189585
  0
VERTEX
  8
0
 10
417.165412
 20
796.599918
 42
0.161938
  0
VERTEX
  8
0
 10
418.828741
 20
793.654988
 42
0.077170
  0
VERTEX
  8
0
 10
419.827322
 20
792.998563
 42
0.037402
  0
VERTEX
  8
0
 10
421.265040
 20
792.469309
 42
0.034890
  0
VERTEX
  8
0
 10
422.928415
 20
792.117895
 42
0.034627
  0
VERTEX
  8
0
 10
424.628741
 20
792.000000
 42
-0.050087
  0
VERTEX
  8
0
 10
427.866093
 20
791.674889
 42
-0.158970
  0
VERTEX
  8
0
 10
429.735829
 20
790.615541
 42
-0.146004
  0
VERTEX
  8
0
 10
430.713696
 20
788.591489
 42
-0.040046
  0
VERTEX
  8
0
 10
431.000000
 20
785.022506
 42
0.050929
  0
VERTEX
  8
0
 10
431.371514
 20
781.384588
 42
0.083434
  0
VERTEX
  8
0
 10
432.488954
 20
778.503758
 42
0.109149
  0
VERTEX
  8
0
 10
434.216306
 20
776.664162
 42
0.150987
  0
VERTEX
  8
0
 10
436.365574
 20
776.000000
 42
0.092757
  0
VERTEX
  8
0
 10
439.110545
 20
776.513651
 42
0.137928
  0
VERTEX
  8
0
 10
441.053855
 20
777.972944
 42
0.103473
  0
VERTEX
  8
0
 10
442.305768
 20
780.588865
 42
0.037888
  0
VERTEX
  8
0
 10
442.980372
 20
784.655037
 42
0.000000
  0
VERTEX
  8
0
 10
443.500000
 20
790.500000
 42
0.000000
  0
VERTEX
  8
0
 10
448.858381
 20
791.037977
 42
0.020497
  0
VERTEX
  8
0
 10
451.342983
 20
791.390780
 42
0.041267
  0
VERTEX
  8
0
 10
453.252151
 20
791.907928
 42
0.053766
  0
VERTEX
  8
0
 10
454.662878
 20
792.597134
 42
0.094670
  0
VERTEX
  8
0
 10
455.608381
 20
793.479107
 42
0.132806
  0
VERTEX
  8
0
 10
456.888645
 20
796.806491
 42
0.172704
  0
VERTEX
  8
0
 10
456.121790
 20
799.956550
 42
0.151208
  0
VERTEX
  8
0
 10
453.399268
 20
802.202734
 42
0.097729
  0
VERTEX
  8
0
 10
449.359281
 20
803.000000
 42
-0.031260
  0
VERTEX
  8
0
 10
445.786686
 20
803.223574
 42
-0.167755
  0
VERTEX
  8
0
 10
444.062711
 20
804.072166
 42
-0.166208
  0
VERTEX
  8
0
 10
443.220612
 20
805.808500
 42
-0.030550
  0
VERTEX
  8
0
 10
443.000000
 20
809.415859
 42
0.034452
  0
VERTEX
  8
0
 10
442.734506
 20
813.264350
 42
0.094680
  0
VERTEX
  8
0
 10
441.865108
 20
815.831400
 42
0.123371
  0
VERTEX
  8
0
 10
440.277643
 20
817.498787
 42
0.082216
  0
VERTEX
  8
0
 10
437.836658
 20
818.531925
 42
0.051373
  0
VERTEX
  8
0
 10
436.469721
 20
818.715734
 42
0.081776
  0
VERTEX
  8
0
 10
435.302840
 20
818.560593
 42
0.078615
  0
VERTEX
  8
0
 10
434.215621
 20
818.032353
 42
0.044082
  0
SEQEND
  0
POLYLINE
  8
0
 66
1
 70
1
  0
VERTEX
  8
0
 10
585.643756
 20
817.500899
 42
0.060682
  0
VERTEX
  8
0
 10
584.637205
 20
816.215114
 42
0.076585
  0
VERTEX
  8
0
 10
584.063394
 20
814.819555
 42
0.057963
  0
VERTEX
  8
0
 10
583.844696
 20
813.027411
 42
0.020482
  0
VERTEX
  8
0
 10
583.936186
 20
810.438396
 42
-0.043884
  0
VERTEX
  8
0
 10
583.924977
 20
809.457797
 42
-0.020227
  0
VERTEX
  8
0
 10
583.747219
 20
808.192672
 42
-0.019854
  0
VERTEX
  8
0
 10
583.451503
 20
806.868668
 42
-0.025975
  0
VERTEX
  8
0
 10
583.071628
 20
805.688396
 42
-0.054433
  0
VERTEX
  8
0
 10
582.317285
 20
804.210987
 42
-0.141403
  0
VERTEX
  8
0
 10
581.419075
 20
803.440488
 42
-0.091965
  0
VERTEX
  8
0
 10
580.000823
 20
803.086411
 42
-0.015312
  0
VERTEX
  8
0
 10
577.179738
 20
803.000000
 42
0.051819
  0
VERTEX
  8
0
 10
573.540702
 20
802.621844
 42
0.112888
  0
VERTEX
  8
0
 10
571.006075
 20
801.453535
 42
0.136412
  0
VERTEX
  8
0
 10
569.522537
 20
799.473038
 42
0.093208
  0
VERTEX
  8
0
 10
569.000000
 20
796.694312
 42
0.135414
  0
VERTEX
  8
0
 10
569.666260
 20
794.279343
 42
0.123574
  0
VERTEX
  8
0
 10
571.493799
 20
792.447731
 42
0.096093
  0
VERTEX
  8
0
 10
574.397537
 20
791.391035
 42
0.055517
  0
VERTEX
  8
0
 10
578.123824
 20
791.217663
 42
0.000000
  0
VERTEX
  8
0
 10
582.500000
 20
791.500000
 42
0.000000
  0
VERTEX
  8
0
 10
583.003861
 20
785.166566
 42
0.014639
  0
VERTEX
  8
0
 10
583.344328
 20
782.045692
 42
0.041826
  0
VERTEX
  8
0
 10
583.823754
 20
779.917184
 42
0.061953
  0
VERTEX
  8
0
 10
584.499377
 20
778.439717
 42
0.096998
  0
VERTEX
  8
0
 10
585.444990
 20
777.416566
 42
0.119451
  0
VERTEX
  8
0
 10
588.852653
 20
776.001486
 42
0.203897
  0
VERTEX
  8
0
 10
591.793178
 20
776.741246
 42
0.149427
  0
VERTEX
  8
0
 10
593.933584
 20
779.705420
 42
0.060058
  0
VERTEX
  8
0
 10
594.980372
 20
784.646444
 42
0.000000
  0
VERTEX
  8
0
 10
595.500000
 20
790.482814
 42
0.000000
  0
VERTEX
  8
0
 10
600.476489
 20
791.190907
 42
0.042870
  0
VERTEX
  8
0
 10
603.919511
 20
791.986277
 42
0.099202
  0
VERTEX
  8
0
 10
606.224284
 20
793.276898
 42
0.124777
  0
VERTEX
  8
0
 10
607.538296
 20
795.139859
 42
0.091763
  0
VERTEX
  8
0
 10
608.000000
 20
797.634426
 42
0.143084
  0
VERTEX
  8
0
 10
607.429290
 20
799.587914
 42
0.089719
  0
VERTEX
  8
0
 10
605.799422
 20
801.346474
 42
0.080429
  0
VERTEX
  8
0
 10
603.460540
 20
802.575703
 42
0.081021
  0
VERTEX
  8
0
 10
600.859281
 20
803.000000
 42
-0.038775
  0
VERTEX
  8
0
 10
597.592346
 20
803.253731
 42
-0.181392
  0
VERTEX
  8
0
 10
595.977544
 20
804.165280
 42
-0.151045
  0
VERTEX
  8
0
 10
595.194846
 20
806.025936
 42
-0.024596
  0
VERTEX
  8
0
 10
595.000000
 20
809.984544
 42
0.025280
  0
VERTEX
  8
0
 10
594.800631
 20
813.925169
 42
0.110435
  0
VERTEX
  8
0
 10
594.068550
 20
816.126334
 42
0.143294
  0
VERTEX
  8
0
 10
592.579667
 20
817.499773
 42
0.053685
  0
VERTEX
  8
0
 10
589.888162
 20
818.491934
 42
0.048285
  0
VERTEX
  8
0
 10
588.632890
 20
818.680891
 42
0.070692
  0
VERTEX
  8
0
 10
587.521712
 20
818.582593
 42
0.075299
  0
VERTEX
  8
0
 10
586.533679
 20
818.188307
 42
0.063933
  0
SEQEND
  0
POLYLINE
  8
0
 66
1
 70
1
  0
VERTEX
  8
0
 10
263.456737
 20
797.851193
 42
-0.000681
  0
VERTEX
  8
0
 10
260.746604
 20
793.004378
 42
-0.000346
  0
VERTEX
  8
0
 10
257.324854
 20
786.914310
 42
-0.000344
  0
VERTEX
  8
0
 10
253.785768
 20
780.635701
 42
-0.000514
  0
VERTEX
  8
0
 10
250.684023
 20
775.154968
 42
0.004411
  0
VERTEX
  8
0
 10
246.797744
 20
768.161363
 42
0.028415
  0
VERTEX
  8
0
 10
245.070798
 20
764.507943
 42
0.060440
  0
VERTEX
  8
0
 10
244.420982
 20
762.104128
 42
0.120575
  0
VERTEX
  8
0
 10
244.610070
 20
760.154968
 42
0.079862
  0
VERTEX
  8
0
 10
245.431910
 20
758.636499
 42
0.144747
  0
VERTEX
  8
0
 10
246.565635
 20
757.813650
 42
0.063108
  0
VERTEX
  8
0
 10
248.594857
 20
757.372047
 42
0.006415
  0
VERTEX
  8
0
 10
253.519691
 20
757.000000
 42
-0.006315
  0
VERTEX
  8
0
 10
258.217629
 20
756.646034
 42
-0.055277
  0
VERTEX
  8
0
 10
260.262541
 20
756.235184
 42
-0.146187
  0
VERTEX
  8
0
 10
261.293020
 20
755.531658
 42
-0.135782
  0
VERTEX
  8
0
 10
261.805453
 20
754.357580
 42
-0.097715
  0
VERTEX
  8
0
 10
261.747751
 20
753.273812
 42
-0.079985
  0
VERTEX
  8
0
 10
261.286933
 20
752.206658
 42
-0.063148
  0
VERTEX
  8
0
 10
260.396865
 20
751.135645
 42
-0.033137
  0
VERTEX
  8
0
 10
259.053419
 20
750.038038
 42
0.099267
  0
VERTEX
  8
0
 10
255.803497
 20
746.578272
 42
0.216871
  0
VERTEX
  8
0
 10
255.345217
 20
743.048744
 42
0.058080
  0
VERTEX
  8
0
 10
257.832546
 20
737.388511
 42
0.002771
  0
VERTEX
  8
0
 10
268.416620
 20
719.554435
 42
-0.003752
  0
VERTEX
  8
0
 10
274.005359
 20
710.095218
 42
-0.005667
  0
VERTEX
  8
0
 10
278.716132
 20
701.767702
 42
-0.002428
  0
VERTEX
  8
0
 10
282.614535
 20
694.608232
 42
-0.124072
  0
VERTEX
  8
0
 10
283.000000
 20
693.078749
 42
-0.086167
  0
VERTEX
  8
0
 10
282.528621
 20
690.363789
 42
-0.123145
  0
VERTEX
  8
0
 10
281.176594
 20
688.339576
 42
-0.082350
  0
VERTEX
  8
0
 10
278.578629
 20
686.665052
 42
-0.022856
  0
VERTEX
  8
0
 10
274.030344
 20
684.940062
 42
0.009352
  0
VERTEX
  8
0
 10
269.650051
 20
683.412732
 42
0.068151
  0
VERTEX
  8
0
 10
267.691574
 20
682.367360
 42
0.286539
  0
VERTEX
  8
0
 10
267.320718
 20
681.455538
 42
0.214550
  0
VERTEX
  8
0
 10
267.942953
 20
680.535257
 42
-0.095877
  0
VERTEX
  8
0
 10
268.537533
 20
679.987157
 42
-0.001629
  0
VERTEX
  8
0
 10
271.172638
 20
676.385338
 42
-0.004101
  0
VERTEX
  8
0
 10
274.200521
 20
672.145539
 42
-0.002709
  0
VERTEX
  8
0
 10
277.613477
 20
667.226240
 42
0.005379
  0
VERTEX
  8
0
 10
285.392622
 20
656.140572
 42
0.003957
  0
VERTEX
  8
0
 10
294.240913
 20
644.019163
 42
0.003976
  0
VERTEX
  8
0
 10
302.723765
 20
632.777335
 42
0.009792
  0
VERTEX
  8
0
 10
309.176817
 20
624.698084
 42
-0.013897
  0
VERTEX
  8
0
 10
312.311232
 20
620.707028
 42
-0.075034
  0
VERTEX
  8
0
 10
313.600933
 20
618.278399
 42
-0.129726
  0
VERTEX
  8
0
 10
313.765331
 20
616.237366
 42
-0.078601
  0
VERTEX
  8
0
 10
312.964816
 20
613.934259
 42
-0.180562
  0
VERTEX
  8
0
 10
311.726622
 20
612.843614
 42
-0.066029
  0
VERTEX
  8
0
 10
309.418730
 20
612.295965
 42
-0.023553
  0
VERTEX
  8
0
 10
305.047267
 20
612.059583
 42
-0.002180
  0
VERTEX
  8
0
 10
294.214816
 20
612.031803
 42
-0.003999
  0
VERTEX
  8
0
 10
285.998488
 20
612.112264
 42
-0.011775
  0
VERTEX
  8
0
 10
280.351717
 20
612.345822
 42
-0.011826
  0
VERTEX
  8
0
 10
276.383435
 20
612.698083
 42
-0.141573
  0
VERTEX
  8
0
 10
274.977260
 20
613.281803
 42
-0.060771
  0
VERTEX
  8
0
 10
271.825096
 20
616.502399
 42
-0.010306
  0
VERTEX
  8
0
 10
266.731867
 20
623.449066
 42
-0.007458
  0
VERTEX
  8
0
 10
259.408594
 20
634.219711
 42
-0.001872
  0
VERTEX
  8
0
 10
247.798413
 20
652.000000
 42
-0.000747
  0
VERTEX
  8
0
 10
231.746737
 20
676.865747
 42
-0.013601
  0
VERTEX
  8
0
 10
226.858114
 20
684.937985
 42
-0.045039
  0
VERTEX
  8
0
 10
224.863016
 20
689.319195
 42
-0.176968
  0
VERTEX
  8
0
 10
224.901018
 20
692.239658
 42
-0.044121
  0
VERTEX
  8
0
 10
225.385379
 20
693.238516
 42
-0.038822
  0
VERTEX
  8
0
 10
226.056123
 20
694.183444
 42
-0.040814
  0
VERTEX
  8
0
 10
226.801479
 20
694.942207
 42
-0.086797
  0
VERTEX
  8
0
 10
227.505183
 20
695.363615
 42
-0.077887
  0
VERTEX
  8
0
 10
228.686050
 20
695.616477
 42
-0.003663
  0
VERTEX
  8
0
 10
232.764897
 20
695.813062
 42
-0.005963
  0
VERTEX
  8
0
 10
237.629176
 20
695.953708
 42
-0.004245
  0
VERTEX
  8
0
 10
243.081787
 20
696.000000
 42
0.003844
  0
VERTEX
  8
0
 10
248.418654
 20
696.041026
 42
0.006404
  0
VERTEX
  8
0
 10
252.911525
 20
696.167674
 42
0.001643
  0
VERTEX
  8
0
 10
256.778977
 20
696.339013
 42
0.400351
  0
VERTEX
  8
0
 10
257.000000
 20
696.570806
 42
0.142801
  0
VERTEX
  8
0
 10
256.886701
 20
696.959418
 42
0.002589
  0
VERTEX
  8
0
 10
255.707366
 20
698.789076
 42
0.006202
  0
VERTEX
  8
0
 10
254.285982
 20
700.911367
 42
0.004074
  0
VERTEX
  8
0
 10
252.599543
 20
703.320806
 42
-0.010121
  0
VERTEX
  8
0
 10
247.736173
 20
710.451177
 42
-0.002789
  0
VERTEX
  8
0
 10
240.378568
 20
721.860416
 42
-0.002917
  0
VERTEX
  8
0
 10
232.549218
 20
734.310864
 42
-0.004119
  0
VERTEX
  8
0
 10
225.730859
 20
745.500000
 42
0.008482
  0
VERTEX
  8
0
 10
221.615390
 20
752.122864
 42
0.031461
  0
VERTEX
  8
0
 10
218.697072
 20
756.076413
 42
0.051996
  0
VERTEX
  8
0
 10
216.382770
 20
758.312094
 42
0.167599
  0
VERTEX
  8
0
 10
214.388173
 20
759.000000
 42
0.184462
  0
VERTEX
  8
0
 10
213.614914
 20
758.704677
 42
0.014956
  0
VERTEX
  8
0
 10
212.011296
 20
757.181867
 42
0.018559
  0
VERTEX
  8
0
 10
210.169356
 20
755.181600
 42
0.013160
  0
VERTEX
  8
0
 10
208.248957
 20
752.810610
 42
-0.002410
  0
VERTEX
  8
0
 10
205.748386
 20
749.583896
 42
-0.000710
  0
VERTEX
  8
0
 10
201.884069
 20
744.661167
 42
-0.000713
  0
VERTEX
  8
0
 10
197.522560
 20
739.137511
 42
-0.000767
  0
VERTEX
  8
0
 10
193.250000
 20
733.759309
 42
0.002684
  0
VERTEX
  8
0
 10
189.320943
 20
728.774384
 42
0.004240
  0
VERTEX
  8
0
 10
186.010938
 20
724.453110
 42
0.001151
  0
VERTEX
  8
0
 10
183.174551
 20
720.666267
 42
0.161525
  0
VERTEX
  8
0
 10
183.000000
 20
720.140040
 42
-0.199197
  0
VERTEX
  8
0
 10
182.244309
 20
718.318463
 42
-0.005824
  0
VERTEX
  8
0
 10
176.156021
 20
712.383414
 42
-0.007883
  0
VERTEX
  8
0
 10
170.053171
 20
706.752044
 42
-0.121485
  0
VERTEX
  8
0
 10
167.546032
 20
705.422197
 42
0.078616
  0
VERTEX
  8
0
 10
166.440530
 20
704.951128
 42
0.037057
  0
VERTEX
  8
0
 10
165.186743
 20
704.029652
 42
0.035546
  0
VERTEX
  8
0
 10
163.989221
 20
702.847494
 42
0.041829
  0
VERTEX
  8
0
 10
163.041290
 20
701.566809
 42
-0.040260
  0
VERTEX
  8
0
 10
161.866594
 20
699.969316
 42
-0.011576
  0
VERTEX
  8
0
 10
159.801189
 20
697.696749
 42
-0.011568
  0
VERTEX
  8
0
 10
157.344439
 20
695.232946
 42
-0.012068
  0
VERTEX
  8
0
 10
154.810084
 20
692.920892
 42
0.006802
  0
VERTEX
  8
0
 10
147.568582
 20
686.452985
 42
0.021338
  0
VERTEX
  8
0
 10
142.956404
 20
681.841686
 42
0.031399
  0
VERTEX
  8
0
 10
139.875573
 20
678.032271
 42
0.046236
  0
VERTEX
  8
0
 10
137.720575
 20
674.310599
 42
0.000000
  0
VERTEX
  8
0
 10
135.500000
 20
669.500000
 42
0.000000
  0
VERTEX
  8
0
 10
135.533074
 20
561.000000
 42
0.000714
  0
VERTEX
  8
0
 10
135.655049
 20
490.647576
 42
0.005031
  0
VERTEX
  8
0
 10
136.107882
 20
456.409142
 42
0.006687
  0
VERTEX
  8
0
 10
136.868453
 20
435.672855
 42
0.094967
  0
VERTEX
  8
0
 10
138.619231
 20
428.499984
 42
-0.101846
  0
VERTEX
  8
0
 10
139.418782
 20
425.019030
 42
-0.001897
  0
VERTEX
  8
0
 10
139.776860
 20
406.165589
 42
-0.002734
  0
VERTEX
  8
0
 10
140.058341
 20
377.232404
 42
-0.000453
  0
VERTEX
  8
0
 10
140.245316
 20
321.499984
 42
0.000372
  0
VERTEX
  8
0
 10
140.428547
 20
264.120516
 42
0.002965
  0
VERTEX
  8
0
 10
140.690023
 20
237.621518
 42
0.005571
  0
VERTEX
  8
0
 10
141.068823
 20
223.563299
 42
0.882024
  0
VERTEX
  8
0
 10
141.793500
 20
223.500000
 42
-0.029989
  0
VERTEX
  8
0
 10
146.266898
 20
239.520558
 42
-0.027935
  0
VERTEX
  8
0
 10
152.712676
 20
255.286349
 42
-0.027166
  0
VERTEX
  8
0
 10
161.076022
 20
270.658035
 42
-0.024914
  0
VERTEX
  8
0
 10
171.282754
 20
285.500000
 42
0.033554
  0
VERTEX
  8
0
 10
175.890759
 20
292.454850
 42
0.023280
  0
VERTEX
  8
0
 10
180.175487
 20
300.858285
 42
0.023565
  0
VERTEX
  8
0
 10
183.517313
 20
309.277751
 42
0.047811
  0
VERTEX
  8
0
 10
185.176057
 20
316.200467
 42
0.036773
  0
VERTEX
  8
0
 10
185.665484
 20
323.592410
 42
0.041869
  0
VERTEX
  8
0
 10
185.020326
 20
330.655693
 42
0.043786
  0
VERTEX
  8
0
 10
183.256441
 20
337.225643
 42
0.048561
  0
VERTEX
  8
0
 10
180.417247
 20
343.150727
 42
-0.004377
  0
VERTEX
  8
0
 10
179.107774
 20
345.359501
 42
-0.006510
  0
VERTEX
  8
0
 10
178.003816
 20
347.317590
 42
-0.003150
  0
VERTEX
  8
0
 10
177.101472
 20
348.992927
 42
-0.122546
  0
VERTEX
  8
0
 10
177.000000
 20
349.400727
 42
-0.525370
  0
VERTEX
  8
0
 10
178.561380
 20
350.476556
 42
-0.026942
  0
VERTEX
  8
0
 10
185.210011
 20
347.523211
 42
-0.029984
  0
VERTEX
  8
0
 10
192.347900
 20
343.323312
 42
-0.063223
  0
VERTEX
  8
0
 10
197.179562
 20
339.102082
 42
-0.038085
  0
VERTEX
  8
0
 10
200.388584
 20
334.883563
 42
-0.021054
  0
VERTEX
  8
0
 10
203.674986
 20
329.301186
 42
-0.018444
  0
VERTEX
  8
0
 10
206.333282
 20
323.841247
 42
-0.104319
  0
VERTEX
  8
0
 10
206.999211
 20
320.690983
 42
0.048150
  0
VERTEX
  8
0
 10
207.062706
 20
320.036154
 42
0.104775
  0
VERTEX
  8
0
 10
207.259154
 20
319.573674
 42
0.181802
  0
VERTEX
  8
0
 10
207.549042
 20
319.375072
 42
0.201293
  0
VERTEX
  8
0
 10
207.883017
 20
319.427700
 42
0.223185
  0
VERTEX
  8
0
 10
209.131919
 20
321.342069
 42
0.009910
  0
VERTEX
  8
0
 10
210.097014
 20
329.409951
 42
0.017345
  0
VERTEX
  8
0
 10
210.653828
 20
338.024244
 42
0.026817
  0
VERTEX
  8
0
 10
210.476692
 20
345.478287
 42
0.000000
  0
VERTEX
  8
0
 10
209.777197
 20
354.500000
 42
0.000000
  0
VERTEX
  8
0
 10
212.330005
 20
352.130732
 42
-0.085307
  0
VERTEX
  8
0
 10
214.899174
 20
348.768417
 42
-0.027713
  0
VERTEX
  8
0
 10
217.497624
 20
343.055305
 42
-0.026966
  0
VERTEX
  8
0
 10
219.706706
 20
336.333552
 42
-0.028998
  0
VERTEX
  8
0
 10
221.116731
 20
329.573323
 42
-0.029721
  0
VERTEX
  8
0
 10
221.604338
 20
324.060746
 42
-0.021242
  0
VERTEX
  8
0
 10
221.519612
 20
317.867230
 42
-0.015488
  0
VERTEX
  8
0
 10
220.832075
 20
309.996156
 42
-0.005790
  0
VERTEX
  8
0
 10
219.398042
 20
299.000000
 42
0.000000
  0
VERTEX
  8
0
 10
218.900319
 20
295.500000
 42
0.000000
  0
VERTEX
  8
0
 10
224.078356
 20
301.000000
 42
0.050905
  0
VERTEX
  8
0
 10
228.762589
 20
307.116837
 42
0.019411
  0
VERTEX
  8
0
 10
234.037140
 20
316.480608
 42
0.019483
  0
VERTEX
  8
0
 10
238.586196
 20
326.264675
 42
0.048469
  0
VERTEX
  8
0
 10
240.911855
 20
333.799221
 42
0.036086
  0
VERTEX
  8
0
 10
241.762275
 20
340.284574
 42
0.018064
  0
VERTEX
  8
0
 10
241.945307
 20
348.557221
 42
0.018066
  0
VERTEX
  8
0
 10
241.529872
 20
356.837158
 42
0.035421
  0
VERTEX
  8
0
 10
240.498002
 20
363.352384
 42
0.034280
  0
VERTEX
  8
0
 10
237.929939
 20
371.760750
 42
0.036655
  0
VERTEX
  8
0
 10
234.282005
 20
379.545166
 42
0.035376
  0
VERTEX
  8
0
 10
229.408895
 20
386.947064
 42
0.028085
  0
VERTEX
  8
0
 10
223.174358
 20
394.213625
 42
-0.025591
  0
VERTEX
  8
0
 10
219.869335
 20
398.027113
 42
-0.470318
  0
VERTEX
  8
0
 10
220.171078
 20
399.400156
 42
-0.190020
  0
VERTEX
  8
0
 10
222.420607
 20
399.625108
 42
-0.009909
  0
VERTEX
  8
0
 10
229.499822
 20
397.468476
 42
-0.055822
  0
VERTEX
  8
0
 10
250.336240
 20
387.986628
 42
-0.063968
  0
VERTEX
  8
0
 10
267.522846
 20
374.472430
 42
-0.066106
  0
VERTEX
  8
0
 10
280.300267
 20
357.477308
 42
-0.066338
  0
VERTEX
  8
0
 10
288.180949
 20
337.756299
 42
-0.017334
  0
VERTEX
  8
0
 10
289.212812
 20
332.985845
 42
-0.025558
  0
VERTEX
  8
0
 10
289.756535
 20
328.736111
 42
-0.020337
  0
VERTEX
  8
0
 10
289.931806
 20
323.797937
 42
-0.006848
  0
VERTEX
  8
0
 10
289.795686
 20
316.591712
 42
-0.021005
  0
VERTEX
  8
0
 10
289.041703
 20
306.501722
 42
-0.040325
  0
VERTEX
  8
0
 10
287.452986
 20
298.549932
 42
-0.028341
  0
VERTEX
  8
0
 10
284.245095
 20
289.319319
 42
-0.005902
  0
VERTEX
  8
0
 10
277.517159
 20
273.535886
 42
0.017601
  0
VERTEX
  8
0
 10
273.260834
 20
262.865445
 42
0.030692
  0
VERTEX
  8
0
 10
270.602275
 20
253.722864
 42
0.035450
  0
VERTEX
  8
0
 10
269.328261
 20
245.335767
 42
0.037355
  0
VERTEX
  8
0
 10
269.284887
 20
237.000000
 42
0.032881
  0
VERTEX
  8
0
 10
270.304375
 20
229.505977
 42
0.046190
  0
VERTEX
  8
0
 10
272.254417
 20
223.048206
 42
0.050415
  0
VERTEX
  8
0
 10
275.184270
 20
217.506297
 42
0.052636
  0
VERTEX
  8
0
 10
279.127779
 20
212.750000
 42
0.013873
  0
VERTEX
  8
0
 10
281.997769
 20
210.099641
 42
0.060564
  0
VERTEX
  8
0
 10
283.906187
 20
208.802661
 42
0.081344
  0
VERTEX
  8
0
 10
285.783021
 20
208.193999
 42
0.037836
  0
VERTEX
  8
0
 10
288.343045
 20
208.000000
 42
0.076276
  0
VERTEX
  8
0
 10
293.753236
 20
208.830163
 42
0.098840
  0
VERTEX
  8
0
 10
298.144645
 20
211.238069
 42
0.108755
  0
VERTEX
  8
0
 10
300.988855
 20
214.936715
 42
0.110163
  0
VERTEX
  8
0
 10
302.000000
 20
219.470322
 42
0.084345
  0
VERTEX
  8
0
 10
301.744888
 20
220.971877
 42
0.011208
  0
VERTEX
  8
0
 10
300.609887
 20
223.996450
 42
0.012719
  0
VERTEX
  8
0
 10
299.079698
 20
227.547657
 42
0.010369
  0
VERTEX
  8
0
 10
297.267702
 20
231.269982
 42
-0.008367
  0
VERTEX
  8
0
 10
294.408633
 20
237.084031
 42
-0.044821
  0
VERTEX
  8
0
 10
293.196297
 20
240.397926
 42
-0.051744
  0
VERTEX
  8
0
 10
292.676434
 20
243.666390
 42
-0.013417
  0
VERTEX
  8
0
 10
292.529701
 20
249.000000
 42
-0.010943
  0
VERTEX
  8
0
 10
292.626992
 20
253.585610
 42
-0.033240
  0
VERTEX
  8
0
 10
292.967800
 20
256.684019
 42
-0.043914
  0
VERTEX
  8
0
 10
293.648187
 20
259.203272
 42
-0.034189
  0
VERTEX
  8
0
 10
294.805310
 20
261.795060
 42
-0.035100
  0
VERTEX
  8
0
 10
297.467118
 20
266.055602
 42
-0.030041
  0
VERTEX
  8
0
 10
300.830458
 20
270.141862
 42
-0.029875
  0
VERTEX
  8
0
 10
304.681769
 20
273.819544
 42
-0.033587
  0
VERTEX
  8
0
 10
308.802783
 20
276.858831
 42
-0.024597
  0
VERTEX
  8
0
 10
312.235642
 20
278.820369
 42
-0.030020
  0
VERTEX
  8
0
 10
315.627952
 20
280.294441
 42
-0.030526
  0
VERTEX
  8
0
 10
318.343647
 20
281.101476
 42
-0.482632
  0
VERTEX
  8
0
 10
319.000000
 20
280.579891
 42
-0.103984
  0
VERTEX
  8
0
 10
318.908249
 20
280.143484
 42
-0.003094
  0
VERTEX
  8
0
 10
318.141293
 20
278.428974
 42
-0.006044
  0
VERTEX
  8
0
 10
317.196846
 20
276.417149
 42
-0.004121
  0
VERTEX
  8
0
 10
316.076742
 20
274.152026
 42
0.035827
  0
VERTEX
  8
0
 10
313.536392
 20
268.073432
 42
0.038896
  0
VERTEX
  8
0
 10
311.972619
 20
261.858016
 42
0.041542
  0
VERTEX
  8
0
 10
311.461322
 20
255.905784
 42
0.058484
  0
VERTEX
  8
0
 10
312.067764
 20
250.617681
 42
0.025868
  0
VERTEX
  8
0
 10
313.364467
 20
246.154364
 42
0.031162
  0
VERTEX
  8
0
 10
315.052090
 20
242.126540
 42
0.024352
  0
VERTEX
  8
0
 10
317.555004
 20
237.628394
 42
0.008935
  0
VERTEX
  8
0
 10
321.507549
 20
231.520269
 42
-0.021586
  0
VERTEX
  8
0
 10
328.376568
 20
220.292334
 42
-0.045859
  0
VERTEX
  8
0
 10
332.472979
 20
210.974965
 42
-0.052919
  0
VERTEX
  8
0
 10
334.457561
 20
201.965850
 42
-0.039821
  0
VERTEX
  8
0
 10
334.777137
 20
191.818855
 42
0.005384
  0
VERTEX
  8
0
 10
334.496047
 20
184.296210
 42
0.273890
  0
VERTEX
  8
0
 10
335.184157
 20
183.060494
 42
0.427365
  0
VERTEX
  8
0
 10
336.255055
 20
183.368092
 42
0.007752
  0
VERTEX
  8
0
 10
339.216535
 20
189.229412
 42
0.033181
  0
VERTEX
  8
0
 10
341.662697
 20
195.248648
 42
0.037667
  0
VERTEX
  8
0
 10
343.169305
 20
201.290787
 42
0.034068
  0
VERTEX
  8
0
 10
343.847138
 20
207.981968
 42
0.020244
  0
VERTEX
  8
0
 10
343.785938
 20
215.998376
 42
0.010134
  0
VERTEX
  8
0
 10
343.351052
 20
222.347915
 42
0.043462
  0
VERTEX
  8
0
 10
342.689408
 20
226.078713
 42
0.042329
  0
VERTEX
  8
0
 10
341.385400
 20
229.684630
 42
0.009284
  0
VERTEX
  8
0
 10
338.514469
 20
235.625296
 42
-0.007077
  0
VERTEX
  8
0
 10
336.724631
 20
239.287566
 42
-0.011330
  0
VERTEX
  8
0
 10
335.312736
 20
242.468208
 42
-0.005272
  0
VERTEX
  8
0
 10
334.223743
 20
245.158938
 42
-0.298256
  0
VERTEX
  8
0
 10
334.328708
 20
245.662042
 42
-0.354788
  0
VERTEX
  8
0
 10
335.830507
 20
245.818082
 42
-0.013602
  0
VERTEX
  8
0
 10
340.767406
 20
242.400264
 42
-0.021751
  0
VERTEX
  8
0
 10
346.050334
 20
238.160927
 42
-0.024808
  0
VERTEX
  8
0
 10
350.707122
 20
233.651350
 42
-0.051730
  0
VERTEX
  8
0
 10
360.150043
 20
221.190644
 42
-0.055654
  0
VERTEX
  8
0
 10
366.563480
 20
207.350043
 42
-0.055387
  0
VERTEX
  8
0
 10
369.787557
 20
192.375616
 42
-0.050387
  0
VERTEX
  8
0
 10
369.798917
 20
176.562360
 42
-0.015145
  0
VERTEX
  8
0
 10
369.141823
 20
171.546380
 42
-0.030156
  0
VERTEX
  8
0
 10
368.264727
 20
167.639542
 42
-0.028900
  0
VERTEX
  8
0
 10
366.897830
 20
163.762065
 42
-0.012777
  0
VERTEX
  8
0
 10
364.671150
 20
158.805980
 42
0.006488
  0
VERTEX
  8
0
 10
363.102286
 20
155.428322
 42
0.011353
  0
VERTEX
  8
0
 10
361.903732
 20
152.586756
 42
0.005674
  0
VERTEX
  8
0
 10
361.012468
 20
150.255036
 42
0.522056
  0
VERTEX
  8
0
 10
361.190157
 20
150.000000
 42
0.104035
  0
VERTEX
  8
0
 10
361.656427
 20
150.098078
 42
0.007956
  0
VERTEX
  8
0
 10
362.829643
 20
150.636934
 42
0.010655
  0
VERTEX
  8
0
 10
364.216988
 20
151.337789
 42
0.007915
  0
VERTEX
  8
0
 10
365.719584
 20
152.168285
 42
-0.002130
  0
VERTEX
  8
0
 10
367.482839
 20
153.169654
 42
-0.001121
  0
VERTEX
  8
0
 10
369.682112
 20
154.399800
 42
-0.001115
  0
VERTEX
  8
0
 10
371.940488
 20
155.649783
 42
-0.001716
  0
VERTEX
  8
0
 10
373.900372
 20
156.720104
 42
0.001633
  0
VERTEX
  8
0
 10
375.917056
 20
157.821008
 42
0.000918
  0
VERTEX
  8
0
 10
378.359276
 20
159.170432
 42
0.000916
  0
VERTEX
  8
0
 10
380.820133
 20
160.541962
 42
0.001498
  0
VERTEX
  8
0
 10
382.900372
 20
161.714558
 42
-0.003333
  0
VERTEX
  8
0
 10
385.120750
 20
162.955430
 42
-0.001490
  0
VERTEX
  8
0
 10
388.058234
 20
164.560077
 42
-0.001475
  0
VERTEX
  8
0
 10
391.175049
 20
166.238771
 42
-0.002001
  0
VERTEX
  8
0
 10
394.000000
 20
167.735034
 42
0.007919
  0
VERTEX
  8
0
 10
407.730546
 20
175.217007
 42
0.003150
  0
VERTEX
  8
0
 10
426.339694
 20
185.898299
 42
0.002236
  0
VERTEX
  8
0
 10
444.437787
 20
196.547059
 42
0.024182
  0
VERTEX
  8
0
 10
451.512087
 20
201.229247
 42
0.082425
  0
VERTEX
  8
0
 10
462.861712
 20
212.856922
 42
0.202669
  0
VERTEX
  8
0
 10
465.288846
 20
224.306131
 42
0.171361
  0
VERTEX
  8
0
 10
458.772400
 20
235.416522
 42
0.057317
  0
VERTEX
  8
0
 10
442.856083
 20
245.990927
 42
-0.006017
  0
VERTEX
  8
0
 10
431.374939
 20
252.025728
 42
-0.016698
  0
VERTEX
  8
0
 10
423.505135
 20
256.630058
 42
-0.022848
  0
VERTEX
  8
0
 10
417.551906
 20
260.777108
 42
-0.027340
  0
VERTEX
  8
0
 10
412.364977
 20
265.224587
 42
-0.084246
  0
VERTEX
  8
0
 10
403.674457
 20
276.915423
 42
-0.121504
  0
VERTEX
  8
0
 10
400.758164
 20
289.408756
 42
-0.121731
  0
VERTEX
  8
0
 10
403.987371
 20
301.808262
 42
-0.084756
  0
VERTEX
  8
0
 10
412.965163
 20
313.230356
 42
-0.049452
  0
VERTEX
  8
0
 10
424.203433
 20
321.540554
 42
-0.034613
  0
VERTEX
  8
0
 10
438.265478
 20
328.660539
 42
-0.020098
  0
VERTEX
  8
0
 10
459.388912
 20
336.594765
 42
-0.004359
  0
VERTEX
  8
0
 10
496.500000
 20
348.498843
 42
0.016811
  0
VERTEX
  8
0
 10
515.298173
 20
355.049218
 42
0.053822
  0
VERTEX
  8
0
 10
527.075741
 20
361.127827
 42
0.090432
  0
VERTEX
  8
0
 10
533.674367
 20
367.454642
 42
0.157391
  0
VERTEX
  8
0
 10
535.993411
 20
374.599962
 42
0.119122
  0
VERTEX
  8
0
 10
534.664677
 20
380.136972
 42
0.081367
  0
VERTEX
  8
0
 10
530.810089
 20
385.368252
 42
0.064524
  0
VERTEX
  8
0
 10
524.536042
 20
390.083870
 42
0.038153
  0
VERTEX
  8
0
 10
516.045672
 20
394.074644
 42
0.016527
  0
VERTEX
  8
0
 10
512.772993
 20
395.195870
 42
0.001248
  0
VERTEX
  8
0
 10
503.799910
 20
397.917795
 42
0.001721
  0
VERTEX
  8
0
 10
493.075217
 20
401.101646
 42
0.001308
  0
VERTEX
  8
0
 10
481.300777
 20
404.519653
 42
-0.001801
  0
VERTEX
  8
0
 10
469.164373
 20
408.055696
 42
-0.001935
  0
VERTEX
  8
0
 10
457.341061
 20
411.596556
 42
-0.001829
  0
VERTEX
  8
0
 10
447.211005
 20
414.713595
 42
-0.009191
  0
VERTEX
  8
0
 10
441.583688
 20
416.581840
 42
-0.033197
  0
VERTEX
  8
0
 10
422.751372
 20
424.661853
 42
-0.063022
  0
VERTEX
  8
0
 10
409.133818
 20
433.929101
 42
-0.083705
  0
VERTEX
  8
0
 10
400.868586
 20
444.142565
 42
-0.129043
  0
VERTEX
  8
0
 10
398.000000
 20
455.072326
 42
-0.028932
  0
VERTEX
  8
0
 10
398.303680
 20
460.316172
 42
-0.056116
  0
VERTEX
  8
0
 10
399.250396
 20
464.399781
 42
-0.062225
  0
VERTEX
  8
0
 10
400.998070
 20
467.890181
 42
-0.044692
  0
VERTEX
  8
0
 10
403.735560
 20
471.290457
 42
-0.030558
  0
VERTEX
  8
0
 10
407.437965
 20
474.688396
 42
-0.016327
  0
VERTEX
  8
0
 10
412.389028
 20
478.442819
 42
-0.016327
  0
VERTEX
  8
0
 10
417.572454
 20
481.864779
 42
-0.030674
  0
VERTEX
  8
0
 10
422.000000
 20
484.223610
 42
-0.027217
  0
VERTEX
  8
0
 10
429.400459
 20
487.126066
 42
-0.006838
  0
VERTEX
  8
0
 10
441.760536
 20
491.026385
 42
-0.005957
  0
VERTEX
  8
0
 10
457.865681
 20
495.658856
 42
-0.003125
  0
VERTEX
  8
0
 10
478.000000
 20
501.056303
 42
0.002635
  0
VERTEX
  8
0
 10
502.885595
 20
507.701285
 42
0.017848
  0
VERTEX
  8
0
 10
515.050970
 20
511.489751
 42
0.037099
  0
VERTEX
  8
0
 10
522.397944
 20
514.698286
 42
0.069643
  0
VERTEX
  8
0
 10
527.642607
 20
518.482049
 42
0.048564
  0
VERTEX
  8
0
 10
530.648078
 20
521.980780
 42
0.113713
  0
VERTEX
  8
0
 10
531.939447
 20
525.156636
 42
0.130861
  0
VERTEX
  8
0
 10
531.623971
 20
528.285267
 42
0.075088
  0
VERTEX
  8
0
 10
529.758613
 20
531.615141
 42
0.063078
  0
VERTEX
  8
0
 10
524.957140
 20
536.405898
 42
0.050351
  0
VERTEX
  8
0
 10
518.747206
 20
540.279133
 42
0.033238
  0
VERTEX
  8
0
 10
509.735213
 20
543.989962
 42
0.009844
  0
VERTEX
  8
0
 10
495.500000
 20
548.463232
 42
-0.005494
  0
VERTEX
  8
0
 10
470.476747
 20
556.087978
 42
-0.021976
  0
VERTEX
  8
0
 10
455.436686
 20
561.589998
 42
-0.035966
  0
VERTEX
  8
0
 10
445.307859
 20
566.691205
 42
-0.056457
  0
VERTEX
  8
0
 10
437.563605
 20
572.593648
 42
-0.033234
  0
VERTEX
  8
0
 10
434.022714
 20
576.469132
 42
-0.057612
  0
VERTEX
  8
0
 10
431.713490
 20
580.162470
 42
-0.062746
  0
VERTEX
  8
0
 10
430.431239
 20
584.053300
 42
-0.048293
  0
VERTEX
  8
0
 10
430.000000
 20
588.507719
 42
-0.061733
  0
VERTEX
  8
0
 10
430.545224
 20
592.906897
 42
-0.062455
  0
VERTEX
  8
0
 10
432.147543
 20
597.021357
 42
-0.052225
  0
VERTEX
  8
0
 10
434.997753
 20
601.183287
 42
-0.027117
  0
VERTEX
  8
0
 10
439.336414
 20
605.756844
 42
0.000000
  0
VERTEX
  8
0
 10
444.880279
 20
611.000000
 42
0.000000
  0
VERTEX
  8
0
 10
437.627231
 20
611.000000
 42
-0.048350
  0
VERTEX
  8
0
 10
431.992207
 20
611.546186
 42
-0.134145
  0
VERTEX
  8
0
 10
428.456122
 20
613.297904
 42
-0.053551
  0
VERTEX
  8
0
 10
424.675273
 20
617.462379
 42
-0.003082
  0
VERTEX
  8
0
 10
414.576122
 20
631.489987
 42
-0.005691
  0
VERTEX
  8
0
 10
410.121966
 20
637.911438
 42
-0.011893
  0
VERTEX
  8
0
 10
406.832625
 20
643.028872
 42
-0.009073
  0
VERTEX
  8
0
 10
404.480698
 20
647.048990
 42
-0.164861
  0
VERTEX
  8
0
 10
404.211898
 20
648.489987
 42
-0.188206
  0
VERTEX
  8
0
 10
404.839627
 20
649.600657
 42
-0.122825
  0
VERTEX
  8
0
 10
406.187826
 20
650.235179
 42
-0.038964
  0
VERTEX
  8
0
 10
408.950719
 20
650.561528
 42
-0.003654
  0
VERTEX
  8
0
 10
415.794111
 20
650.783164
 42
0.005343
  0
VERTEX
  8
0
 10
421.598108
 20
650.990761
 42
0.025522
  0
VERTEX
  8
0
 10
424.897412
 20
651.313372
 42
0.044878
  0
VERTEX
  8
0
 10
426.862745
 20
651.790576
 42
0.222699
  0
VERTEX
  8
0
 10
427.660820
 20
652.558493
 42
0.237994
  0
VERTEX
  8
0
 10
427.543129
 20
653.721091
 42
0.005591
  0
VERTEX
  8
0
 10
424.450797
 20
658.447548
 42
0.009974
  0
VERTEX
  8
0
 10
420.276576
 20
664.413675
 42
0.004457
  0
VERTEX
  8
0
 10
414.558533
 20
672.103990
 42
-0.005023
  0
VERTEX
  8
0
 10
409.253301
 20
679.256012
 42
-0.008251
  0
VERTEX
  8
0
 10
404.926015
 20
685.425415
 42
-0.003690
  0
VERTEX
  8
0
 10
401.434001
 20
690.665841
 42
-0.194791
  0
VERTEX
  8
0
 10
401.203551
 20
691.828660
 42
-0.225940
  0
VERTEX
  8
0
 10
401.852285
 20
692.711839
 42
-0.078496
  0
VERTEX
  8
0
 10
403.382823
 20
693.246664
 42
-0.033047
  0
VERTEX
  8
0
 10
406.239027
 20
693.572045
 42
-0.004979
  0
VERTEX
  8
0
 10
411.999333
 20
693.787606
 42
0.006784
  0
VERTEX
  8
0
 10
416.070433
 20
693.954675
 42
0.010080
  0
VERTEX
  8
0
 10
419.628287
 20
694.221092
 42
0.005596
  0
VERTEX
  8
0
 10
422.594085
 20
694.536930
 42
0.168599
  0
VERTEX
  8
0
 10
423.259429
 20
694.859429
 42
0.345818
  0
VERTEX
  8
0
 10
423.330773
 20
695.453554
 42
0.011439
  0
VERTEX
  8
0
 10
421.960219
 20
697.595310
 42
0.017342
  0
VERTEX
  8
0
 10
420.097267
 20
700.167561
 42
0.010639
  0
VERTEX
  8
0
 10
417.735344
 20
703.071823
 42
-0.003977
  0
VERTEX
  8
0
 10
409.425126
 20
713.016566
 42
-0.004467
  0
VERTEX
  8
0
 10
401.593233
 20
722.717266
 42
-0.001056
  0
VERTEX
  8
0
 10
394.416466
 20
731.810202
 42
-0.168069
  0
VERTEX
  8
0
 10
394.000000
 20
733.014179
 42
-0.234852
  0
VERTEX
  8
0
 10
394.806618
 20
734.636753
 42
-0.076160
  0
VERTEX
  8
0
 10
397.231601
 20
735.949219
 42
-0.058778
  0
VERTEX
  8
0
 10
400.715874
 20
736.752674
 42
-0.042500
  0
VERTEX
  8
0
 10
404.703908
 20
736.849455
 42
0.032395
  0
VERTEX
  8
0
 10
409.165935
 20
736.867667
 42
0.281914
  0
VERTEX
  8
0
 10
410.713459
 20
737.968758
 42
0.252497
  0
VERTEX
  8
0
 10
410.529591
 20
739.965224
 42
0.027384
  0
VERTEX
  8
0
 10
407.666142
 20
743.801141
 42
-0.017676
  0
VERTEX
  8
0
 10
405.963809
 20
745.991619
 42
-0.005371
  0
VERTEX
  8
0
 10
403.539273
 20
749.427112
 42
-0.005371
  0
VERTEX
  8
0
 10
400.903211
 20
753.338046
 42
-0.005833
  0
VERTEX
  8
0
 10
398.424582
 20
757.199354
 42
0.004234
  0
VERTEX
  8
0
 10
393.436130
 20
765.025523
 42
0.017596
  0
VERTEX
  8
0
 10
390.223950
 20
769.610447
 42
0.023794
  0
VERTEX
  8
0
 10
387.923962
 20
772.375182
 42
0.210354
  0
VERTEX
  8
0
 10
386.504518
 20
773.000000
 42
0.232141
  0
VERTEX
  8
0
 10
385.797609
 20
772.653100
 42
0.008103
  0
VERTEX
  8
0
 10
383.914909
 20
770.135937
 42
0.013595
  0
VERTEX
  8
0
 10
381.765871
 20
766.986532
 42
0.008913
  0
VERTEX
  8
0
 10
379.455524
 20
763.250000
 42
-0.003476
  0
VERTEX
  8
0
 10
376.885603
 20
758.990801
 42
-0.002466
  0
VERTEX
  8
0
 10
373.946215
 20
754.247641
 42
-0.002489
  0
VERTEX
  8
0
 10
371.094609
 20
749.746387
 42
-0.005279
  0
VERTEX
  8
0
 10
368.832317
 20
746.295160
 42
0.006244
  0
VERTEX
  8
0
 10
366.980903
 20
743.458829
 42
0.008989
  0
VERTEX
  8
0
 10
365.419493
 20
740.899726
 42
0.005398
  0
VERTEX
  8
0
 10
364.176240
 20
738.723647
 42
0.127757
  0
VERTEX
  8
0
 10
364.000000
 20
738.045160
 42
0.311724
  0
VERTEX
  8
0
 10
364.282976
 20
737.635377
 42
0.037035
  0
VERTEX
  8
0
 10
365.400271
 20
737.304335
 42
0.033444
  0
VERTEX
  8
0
 10
366.949736
 20
737.074672
 42
0.020074
  0
VERTEX
  8
0
 10
368.808870
 20
737.000000
 42
-0.061232
  0
VERTEX
  8
0
 10
374.278967
 20
736.327587
 42
-0.263094
  0
VERTEX
  8
0
 10
376.572041
 20
734.151834
 42
-0.192479
  0
VERTEX
  8
0
 10
376.263127
 20
730.446978
 42
-0.034624
  0
VERTEX
  8
0
 10
372.677441
 20
724.365109
 42
-0.000254
  0
VERTEX
  8
0
 10
370.977160
 20
721.892799
 42
-0.000087
  0
VERTEX
  8
0
 10
368.505253
 20
718.303741
 42
-0.000086
  0
VERTEX
  8
0
 10
365.773978
 20
714.341027
 42
-0.000099
  0
VERTEX
  8
0
 10
363.167602
 20
710.562521
 42
0.007647
  0
VERTEX
  8
0
 10
359.438805
 20
704.978314
 42
0.036063
  0
VERTEX
  8
0
 10
357.587893
 20
701.601144
 42
0.100905
  0
VERTEX
  8
0
 10
357.155596
 20
699.739197
 42
0.422145
  0
VERTEX
  8
0
 10
357.875097
 20
699.000000
 42
-0.205100
  0
VERTEX
  8
0
 10
358.304882
 20
698.815960
 42
-0.028339
  0
VERTEX
  8
0
 10
358.948842
 20
698.059065
 42
-0.028682
  0
VERTEX
  8
0
 10
359.643520
 20
697.023657
 42
-0.020646
  0
VERTEX
  8
0
 10
360.301541
 20
695.796818
 42
-0.026485
  0
VERTEX
  8
0
 10
360.998241
 20
694.140028
 42
-0.063796
  0
VERTEX
  8
0
 10
361.285010
 20
692.843560
 42
-0.079731
  0
VERTEX
  8
0
 10
361.206276
 20
691.701920
 42
-0.064104
  0
VERTEX
  8
0
 10
360.776740
 20
690.546818
 42
-0.056845
  0
VERTEX
  8
0
 10
359.505573
 20
688.679217
 42
-0.117139
  0
VERTEX
  8
0
 10
358.082122
 20
687.649193
 42
-0.080502
  0
VERTEX
  8
0
 10
355.995026
 20
687.154954
 42
-0.017237
  0
VERTEX
  8
0
 10
352.262545
 20
687.015313
 42
0.017244
  0
VERTEX
  8
0
 10
349.016843
 20
686.893839
 42
0.103021
  0
VERTEX
  8
0
 10
347.397123
 20
686.432968
 42
0.110532
  0
VERTEX
  8
0
 10
346.149946
 20
685.376717
 42
0.021211
  0
VERTEX
  8
0
 10
344.451953
 20
682.923889
 42
0.005050
  0
VERTEX
  8
0
 10
343.430813
 20
681.269514
 42
0.005804
  0
VERTEX
  8
0
 10
342.490471
 20
679.669343
 42
0.005254
  0
VERTEX
  8
0
 10
341.723957
 20
678.296344
 42
0.033077
  0
VERTEX
  8
0
 10
341.387905
 20
677.568482
 42
0.287296
  0
VERTEX
  8
0
 10
341.559390
 20
676.691558
 42
0.004582
  0
VERTEX
  8
0
 10
345.208860
 20
672.865667
 42
0.010096
  0
VERTEX
  8
0
 10
349.800266
 20
668.326838
 42
0.005599
  0
VERTEX
  8
0
 10
355.573748
 20
662.967125
 42
-0.001507
  0
VERTEX
  8
0
 10
380.767550
 20
639.959856
 42
-0.020766
  0
VERTEX
  8
0
 10
389.516717
 20
631.224526
 42
-0.070930
  0
VERTEX
  8
0
 10
392.916004
 20
626.288077
 42
-0.308510
  0
VERTEX
  8
0
 10
392.455701
 20
622.951050
 42
-0.097885
  0
VERTEX
  8
0
 10
391.173865
 20
621.996501
 42
-0.059667
  0
VERTEX
  8
0
 10
389.379378
 20
621.390372
 42
-0.034822
  0
VERTEX
  8
0
 10
386.655359
 20
621.015016
 42
-0.008513
  0
VERTEX
  8
0
 10
382.128644
 20
620.787163
 42
0.000000
  0
VERTEX
  8
0
 10
373.500000
 20
620.500000
 42
0.000000
  0
VERTEX
  8
0
 10
371.536599
 20
616.833094
 42
0.000000
  0
VERTEX
  8
0
 10
369.573197
 20
613.166189
 42
0.000000
  0
VERTEX
  8
0
 10
371.729042
 20
611.333094
 42
-0.069944
  0
VERTEX
  8
0
 10
373.975180
 20
608.805328
 42
-0.000442
  0
VERTEX
  8
0
 10
390.719800
 20
583.575131
 42
-0.001176
  0
VERTEX
  8
0
 10
406.331671
 20
559.885700
 42
-0.022240
  0
VERTEX
  8
0
 10
410.868406
 20
552.245885
 42
-0.096896
  0
VERTEX
  8
0
 10
411.531066
 20
550.090015
 42
-0.080263
  0
VERTEX
  8
0
 10
411.398424
 20
547.687924
 42
-0.086941
  0
VERTEX
  8
0
 10
410.552563
 20
545.623057
 42
-0.152212
  0
VERTEX
  8
0
 10
409.159753
 20
544.434467
 42
-0.082945
  0
VERTEX
  8
0
 10
407.915700
 20
544.131565
 42
-0.002342
  0
VERTEX
  8
0
 10
402.409664
 20
543.753047
 42
-0.004715
  0
VERTEX
  8
0
 10
395.907700
 20
543.398183
 42
-0.003217
  0
VERTEX
  8
0
 10
388.511446
 20
543.112109
 42
0.002144
  0
VERTEX
  8
0
 10
377.295810
 20
542.702405
 42
0.020606
  0
VERTEX
  8
0
 10
372.534870
 20
542.311089
 42
0.052271
  0
VERTEX
  8
0
 10
370.066376
 20
541.739194
 42
0.268607
  0
VERTEX
  8
0
 10
369.182019
 20
540.718310
 42
0.148404
  0
VERTEX
  8
0
 10
369.504591
 20
537.675657
 42
0.019501
  0
VERTEX
  8
0
 10
372.299718
 20
531.727277
 42
0.023300
  0
VERTEX
  8
0
 10
375.972895
 20
525.383727
 42
0.030664
  0
VERTEX
  8
0
 10
379.926799
 20
519.992238
 42
-0.006549
  0
VERTEX
  8
0
 10
381.870696
 20
517.593188
 42
-0.009631
  0
VERTEX
  8
0
 10
383.509747
 20
515.430927
 42
-0.005463
  0
VERTEX
  8
0
 10
384.825355
 20
513.581976
 42
-0.153055
  0
VERTEX
  8
0
 10
385.000000
 20
513.024809
 42
0.127948
  0
VERTEX
  8
0
 10
385.128262
 20
512.531788
 42
0.015848
  0
VERTEX
  8
0
 10
385.704260
 20
511.572447
 42
0.017869
  0
VERTEX
  8
0
 10
386.479395
 20
510.459010
 42
0.013907
  0
VERTEX
  8
0
 10
387.397480
 20
509.304207
 42
-0.020746
  0
VERTEX
  8
0
 10
388.473476
 20
507.912121
 42
-0.010029
  0
VERTEX
  8
0
 10
389.738740
 20
506.048639
 42
-0.009927
  0
VERTEX
  8
0
 10
390.981511
 20
504.051185
 42
-0.014058
  0
VERTEX
  8
0
 10
392.001050
 20
502.222489
 42
0.011528
  0
VERTEX
  8
0
 10
392.918707
 20
500.556774
 42
0.014287
  0
VERTEX
  8
0
 10
393.851752
 20
499.052436
 42
0.012631
  0
VERTEX
  8
0
 10
394.695221
 20
497.843038
 42
0.096034
  0
VERTEX
  8
0
 10
395.203399
 20
497.374292
 42
-0.108757
  0
VERTEX
  8
0
 10
396.905319
 20
495.723215
 42
-0.009261
  0
VERTEX
  8
0
 10
400.186727
 20
490.551293
 42
-0.005475
  0
VERTEX
  8
0
 10
403.439347
 20
485.074386
 42
-0.276363
  0
VERTEX
  8
0
 10
403.422171
 20
483.874070
 42
-0.235720
  0
VERTEX
  8
0
 10
402.856460
 20
483.523926
 42
-0.005213
  0
VERTEX
  8
0
 10
399.557887
 20
483.256758
 42
-0.010706
  0
VERTEX
  8
0
 10
395.609026
 20
483.063183
 42
-0.006892
  0
VERTEX
  8
0
 10
391.025749
 20
483.000000
 42
-0.013399
  0
VERTEX
  8
0
 10
382.140959
 20
483.238133
 42
-0.123195
  0
VERTEX
  8
0
 10
378.483269
 20
484.364569
 42
-0.086496
  0
VERTEX
  8
0
 10
375.277742
 20
487.156050
 42
-0.004878
  0
VERTEX
  8
0
 10
367.048765
 20
497.500000
 42
-0.020347
  0
VERTEX
  8
0
 10
361.217417
 20
505.641151
 42
-0.169463
  0
VERTEX
  8
0
 10
360.132824
 20
509.976468
 42
-0.329394
  0
VERTEX
  8
0
 10
362.257070
 20
512.364557
 42
-0.062039
  0
VERTEX
  8
0
 10
368.446112
 20
512.882441
 42
0.018645
  0
VERTEX
  8
0
 10
370.673784
 20
512.875424
 42
0.023521
  0
VERTEX
  8
0
 10
372.728116
 20
513.042538
 42
0.022618
  0
VERTEX
  8
0
 10
374.397013
 20
513.334911
 42
0.142641
  0
VERTEX
  8
0
 10
375.146131
 20
513.746131
 42
0.353837
  0
VERTEX
  8
0
 10
375.316450
 20
515.358842
 42
0.004826
  0
VERTEX
  8
0
 10
369.460383
 20
524.207850
 42
0.011627
  0
VERTEX
  8
0
 10
362.370801
 20
534.190898
 42
0.008669
  0
VERTEX
  8
0
 10
354.109314
 20
544.877459
 42
-0.009744
  0
VERTEX
  8
0
 10
352.152208
 20
547.420325
 42
-0.013403
  0
VERTEX
  8
0
 10
350.500861
 20
549.784724
 42
-0.010056
  0
VERTEX
  8
0
 10
349.230601
 20
551.798492
 42
-0.136498
  0
VERTEX
  8
0
 10
349.000000
 20
552.627459
 42
-0.344673
  0
VERTEX
  8
0
 10
349.558167
 20
553.340971
 42
-0.036259
  0
VERTEX
  8
0
 10
351.789266
 20
553.725387
 42
-0.020797
  0
VERTEX
  8
0
 10
355.680807
 20
553.945686
 42
-0.003740
  0
VERTEX
  8
0
 10
362.940983
 20
554.000000
 42
0.005861
  0
VERTEX
  8
0
 10
368.679495
 20
554.067272
 42
0.011591
  0
VERTEX
  8
0
 10
373.229239
 20
554.279561
 42
0.006921
  0
VERTEX
  8
0
 10
376.806841
 20
554.579520
 42
0.234073
  0
VERTEX
  8
0
 10
377.511607
 20
555.018781
 42
0.280087
  0
VERTEX
  8
0
 10
377.516790
 20
555.719521
 42
0.010811
  0
VERTEX
  8
0
 10
376.079904
 20
558.009340
 42
0.016539
  0
VERTEX
  8
0
 10
374.156294
 20
560.731934
 42
0.010588
  0
VERTEX
  8
0
 10
371.753547
 20
563.768781
 42
-0.005570
  0
VERTEX
  8
0
 10
368.450545
 20
567.858441
 42
-0.001626
  0
VERTEX
  8
0
 10
363.460088
 20
574.222704
 42
-0.001634
  0
VERTEX
  8
0
 10
357.888381
 20
581.424450
 42
-0.001750
  0
VERTEX
  8
0
 10
352.490458
 20
588.500000
 42
0.001017
  0
VERTEX
  8
0
 10
347.166277
 20
595.500146
 42
0.001018
  0
VERTEX
  8
0
 10
341.815929
 20
602.475583
 42
0.000994
  0
VERTEX
  8
0
 10
337.122086
 20
608.544371
 42
0.004054
  0
VERTEX
  8
0
 10
334.231970
 20
612.204113
 42
-0.012076
  0
VERTEX
  8
0
 10
331.817154
 20
615.364948
 42
-0.029075
  0
VERTEX
  8
0
 10
330.228529
 20
617.842856
 42
-0.039147
  0
VERTEX
  8
0
 10
329.326755
 20
619.789997
 42
-0.124723
  0
VERTEX
  8
0
 10
329.174436
 20
621.204113
 42
-0.135890
  0
VERTEX
  8
0
 10
329.739931
 20
622.501694
 42
-0.162186
  0
VERTEX
  8
0
 10
330.859445
 20
623.216288
 42
-0.050467
  0
VERTEX
  8
0
 10
333.183250
 20
623.557263
 42
-0.003958
  0
VERTEX
  8
0
 10
339.443989
 20
623.788552
 42
0.009325
  0
VERTEX
  8
0
 10
343.344025
 20
623.974563
 42
0.012878
  0
VERTEX
  8
0
 10
346.833711
 20
624.296742
 42
0.009485
  0
VERTEX
  8
0
 10
349.702993
 20
624.691685
 42
0.135055
  0
VERTEX
  8
0
 10
350.636591
 20
625.113361
 42
0.370600
  0
VERTEX
  8
0
 10
350.823978
 20
626.216526
 42
0.016419
  0
VERTEX
  8
0
 10
348.549603
 20
629.730792
 42
0.014589
  0
VERTEX
  8
0
 10
344.644471
 20
635.015356
 42
0.003229
  0
VERTEX
  8
0
 10
337.635871
 20
643.824809
 42
-0.001594
  0
VERTEX
  8
0
 10
328.259164
 20
655.532051
 42
-0.001362
  0
VERTEX
  8
0
 10
318.451741
 20
667.926518
 42
-0.001391
  0
VERTEX
  8
0
 10
309.008594
 20
679.996633
 42
-0.002022
  0
VERTEX
  8
0
 10
300.750000
 20
690.702479
 42
-0.058137
  0
VERTEX
  8
0
 10
298.022048
 20
695.285810
 42
-0.303238
  0
VERTEX
  8
0
 10
298.489388
 20
698.039405
 42
-0.181519
  0
VERTEX
  8
0
 10
301.737253
 20
699.627174
 42
-0.023897
  0
VERTEX
  8
0
 10
309.533333
 20
700.000000
 42
0.006497
  0
VERTEX
  8
0
 10
313.079393
 20
700.046078
 42
0.009755
  0
VERTEX
  8
0
 10
316.170560
 20
700.186810
 42
0.005137
  0
VERTEX
  8
0
 10
318.756456
 20
700.381840
 42
0.176769
  0
VERTEX
  8
0
 10
319.302615
 20
700.635948
 42
0.364868
  0
VERTEX
  8
0
 10
319.345789
 20
701.138604
 42
0.005238
  0
VERTEX
  8
0
 10
317.454751
 20
703.762339
 42
0.011530
  0
VERTEX
  8
0
 10
315.071326
 20
706.845766
 42
0.007000
  0
VERTEX
  8
0
 10
312.118982
 20
710.385948
 42
-0.012253
  0
VERTEX
  8
0
 10
304.723577
 20
719.445675
 42
-0.005608
  0
VERTEX
  8
0
 10
295.501160
 20
731.605497
 42
-0.004612
  0
VERTEX
  8
0
 10
286.886488
 20
743.459658
 42
-0.031095
  0
VERTEX
  8
0
 10
283.047803
 20
749.622889
 42
0.000000
  0
VERTEX
  8
0
 10
280.955467
 20
753.500000
 42
0.000000
  0
VERTEX
  8
0
 10
283.088518
 20
755.250000
 42
-0.085240
  0
VERTEX
  8
0
 10
284.622063
 20
756.121952
 42
-0.049090
  0
VERTEX
  8
0
 10
286.686862
 20
756.646609
 42
-0.029871
  0
VERTEX
  8
0
 10
289.721364
 20
756.923525
 42
-0.007820
  0
VERTEX
  8
0
 10
294.610784
 20
757.000000
 42
0.008892
  0
VERTEX
  8
0
 10
298.210784
 20
757.064024
 42
0.014736
  0
VERTEX
  8
0
 10
301.241918
 20
757.261435
 42
0.008409
  0
VERTEX
  8
0
 10
303.687672
 20
757.534838
 42
0.377160
  0
VERTEX
  8
0
 10
304.000000
 20
757.889991
 42
0.138958
  0
VERTEX
  8
0
 10
303.836646
 20
758.466424
 42
0.005238
  0
VERTEX
  8
0
 10
302.628668
 20
760.381370
 42
0.009095
  0
VERTEX
  8
0
 10
301.120339
 20
762.627118
 42
0.006239
  0
VERTEX
  8
0
 10
299.331637
 20
765.121505
 42
-0.006286
  0
VERTEX
  8
0
 10
296.815890
 20
768.630464
 42
-0.001456
  0
VERTEX
  8
0
 10
292.674880
 20
774.599386
 42
-0.001503
  0
VERTEX
  8
0
 10
287.947110
 20
781.500918
 42
-0.001470
  0
VERTEX
  8
0
 10
283.225912
 20
788.481514
 42
0.001406
  0
VERTEX
  8
0
 10
278.750509
 20
795.100511
 42
0.002059
  0
VERTEX
  8
0
 10
274.771928
 20
800.897733
 42
0.000980
  0
VERTEX
  8
0
 10
271.356841
 20
805.809611
 42
0.037343
  0
VERTEX
  8
0
 10
270.507368
 20
806.851193
 42
0.343036
  0
VERTEX
  8
0
 10
269.564942
 20
806.994662
 42
0.099430
  0
VERTEX
  8
0
 10
268.370910
 20
805.972401
 42
0.034053
  0
VERTEX
  8
0
 10
266.610913
 20
803.380169
 42
0.004974
  0
SEQEND
  0
POLYLINE
  8
0
 66
1
 70
1
  0
VERTEX
  8
0
 10
192.065741
 20
693.964816
 42
-0.297509
  0
VERTEX
  8
0
 10
193.465064
 20
691.409815
 42
-0.130090
  0
VERTEX
  8
0
 10
192.133048
 20
687.595887
 42
-0.035057
  0
VERTEX
  8
0
 10
186.844839
 20
680.849493
 42
-0.003456
  0
VERTEX
  8
0
 10
172.904104
 20
665.637433
 42
-0.016317
  0
VERTEX
  8
0
 10
170.969174
 20
663.686814
 42
-0.030571
  0
VERTEX
  8
0
 10
169.264062
 20
662.263163
 42
-0.034046
  0
VERTEX
  8
0
 10
167.882830
 20
661.384659
 42
-0.269236
  0
VERTEX
  8
0
 10
167.154104
 20
661.404759
 42
-0.256311
  0
VERTEX
  8
0
 10
166.027912
 20
663.392836
 42
-0.003750
  0
VERTEX
  8
0
 10
165.942915
 20
677.365535
 42
-0.004431
  0
VERTEX
  8
0
 10
166.084893
 20
691.179116
 42
-0.193943
  0
VERTEX
  8
0
 10
167.200000
 20
693.800000
 42
-0.189861
  0
VERTEX
  8
0
 10
169.508289
 20
694.803645
 42
-0.007065
  0
VERTEX
  8
0
 10
179.161042
 20
695.004041
 42
-0.009399
  0
VERTEX
  8
0
 10
188.607845
 20
694.889070
 42
-0.115618
  0
SEQEND
  0
POLYLINE
  8
0
 66
1
 70
1
  0
VERTEX
  8
0
 10
192.369123
 20
638.144618
 42
-0.146383
  0
VERTEX
  8
0
 10
193.301684
 20
636.188471
 42
-0.140019
  0
VERTEX
  8
0
 10
193.029213
 20
634.003614
 42
-0.050310
  0
VERTEX
  8
0
 10
191.202576
 20
630.682374
 42
-0.005409
  0
VERTEX
  8
0
 10
186.137784
 20
623.500000
 42
0.000659
  0
VERTEX
  8
0
 10
183.336762
 20
619.606942
 42
0.000506
  0
VERTEX
  8
0
 10
180.287947
 20
615.348588
 42
0.000512
  0
VERTEX
  8
0
 10
177.444786
 20
611.360344
 42
0.001218
  0
VERTEX
  8
0
 10
175.341892
 20
608.388811
 42
-0.008664
  0
VERTEX
  8
0
 10
172.039058
 20
603.866031
 42
-0.040244
  0
VERTEX
  8
0
 10
169.888039
 20
601.455277
 42
-0.084599
  0
VERTEX
  8
0
 10
168.308898
 20
600.391001
 42
-0.249442
  0
VERTEX
  8
0
 10
167.043805
 20
600.472927
 42
-0.258501
  0
VERTEX
  8
0
 10
165.964460
 20
602.396686
 42
-0.002361
  0
VERTEX
  8
0
 10
165.953459
 20
619.410192
 42
-0.002821
  0
VERTEX
  8
0
 10
166.117019
 20
636.241214
 42
-0.194924
  0
VERTEX
  8
0
 10
167.200000
 20
638.800000
 42
-0.155636
  0
VERTEX
  8
0
 10
168.246974
 20
639.340555
 42
-0.017729
  0
VERTEX
  8
0
 10
170.918042
 20
639.696164
 42
-0.016984
  0
VERTEX
  8
0
 10
174.603446
 20
639.928415
 42
-0.007243
  0
VERTEX
  8
0
 10
179.545012
 20
640.000000
 42
-0.005114
  0
VERTEX
  8
0
 10
185.782299
 20
639.936209
 42
-0.030817
  0
VERTEX
  8
0
 10
189.010062
 20
639.670716
 42
-0.063329
  0
VERTEX
  8
0
 10
190.986256
 20
639.123422
 42
-0.110084
  0
SEQEND
  0
POLYLINE
  8
0
 66
1
 70
1
  0
VERTEX
  8
0
 10
294.312866
 20
587.250000
 42
0.015277
  0
VERTEX
  8
0
 10
297.484913
 20
583.522878
 42
0.002964
  0
VERTEX
  8
0
 10
303.455199
 20
577.005222
 42
0.003149
  0
VERTEX
  8
0
 10
310.513011
 20
569.486965
 42
0.002906
  0
VERTEX
  8
0
 10
317.855459
 20
561.852883
 42
-0.002514
  0
VERTEX
  8
0
 10
327.875943
 20
551.450699
 42
-0.016271
  0
VERTEX
  8
0
 10
332.728213
 20
546.019313
 42
-0.030722
  0
VERTEX
  8
0
 10
335.302214
 20
542.527151
 42
-0.144431
  0
VERTEX
  8
0
 10
336.000000
 20
540.161900
 42
-0.036965
  0
VERTEX
  8
0
 10
335.909638
 20
538.941294
 42
-0.040976
  0
VERTEX
  8
0
 10
335.640425
 20
537.789940
 42
-0.044971
  0
VERTEX
  8
0
 10
335.246700
 20
536.862530
 42
-0.132227
  0
VERTEX
  8
0
 10
334.775914
 20
536.361507
 42
-0.140376
  0
VERTEX
  8
0
 10
332.702219
 20
535.777213
 42
-0.000773
  0
VERTEX
  8
0
 10
311.886402
 20
535.898609
 42
-0.001150
  0
VERTEX
  8
0
 10
291.505543
 20
536.095858
 42
-0.088840
  0
VERTEX
  8
0
 10
288.328387
 20
536.704228
 42
-0.124061
  0
VERTEX
  8
0
 10
286.497650
 20
537.992689
 42
-0.001018
  0
VERTEX
  8
0
 10
274.963842
 20
551.448595
 42
-0.004089
  0
VERTEX
  8
0
 10
263.411392
 20
565.208200
 42
-0.005495
  0
VERTEX
  8
0
 10
253.187146
 20
577.870993
 42
-0.015214
  0
VERTEX
  8
0
 10
245.342810
 20
588.454508
 42
-0.352490
  0
VERTEX
  8
0
 10
245.589332
 20
591.951799
 42
-0.202093
  0
VERTEX
  8
0
 10
249.615094
 20
593.768100
 42
-0.006253
  0
VERTEX
  8
0
 10
268.157407
 20
594.000000
 42
0.000000
  0
VERTEX
  8
0
 10
288.914814
 20
594.000000
 42
0.000000
  0
SEQEND
  0
POLYLINE
  8
0
 66
1
 70
1
  0
VERTEX
  8
0
 10
188.735608
 20
566.472634
 42
-0.157739
  0
VERTEX
  8
0
 10
190.006706
 20
564.789725
 42
-0.184606
  0
VERTEX
  8
0
 10
189.944788
 20
562.800589
 42
-0.052744
  0
VERTEX
  8
0
 10
188.160941
 20
559.547724
 42
-0.004176
  0
VERTEX
  8
0
 10
182.471914
 20
551.500000
 42
0.001679
  0
VERTEX
  8
0
 10
179.514021
 20
547.359766
 42
0.001666
  0
VERTEX
  8
0
 10
176.576305
 20
543.189062
 42
0.001632
  0
VERTEX
  8
0
 10
174.030953
 20
539.524292
 42
0.006491
  0
VERTEX
  8
0
 10
172.505518
 20
537.250000
 42
-0.025860
  0
VERTEX
  8
0
 10
171.266525
 20
535.549031
 42
-0.036973
  0
VERTEX
  8
0
 10
169.987424
 20
534.190126
 42
-0.042565
  0
VERTEX
  8
0
 10
168.798304
 20
533.273611
 42
-0.143874
  0
VERTEX
  8
0
 10
167.867114
 20
533.000000
 42
-0.280517
  0
VERTEX
  8
0
 10
166.826030
 20
533.633971
 42
-0.090948
  0
VERTEX
  8
0
 10
166.278637
 20
535.432513
 42
-0.026361
  0
VERTEX
  8
0
 10
166.043306
 20
539.264197
 42
-0.002158
  0
VERTEX
  8
0
 10
166.000000
 20
549.300000
 42
-0.004328
  0
VERTEX
  8
0
 10
166.065147
 20
556.825782
 42
-0.012789
  0
VERTEX
  8
0
 10
166.286810
 20
561.990976
 42
-0.012467
  0
VERTEX
  8
0
 10
166.626613
 20
565.618629
 42
-0.168330
  0
VERTEX
  8
0
 10
167.200000
 20
566.800000
 42
-0.187984
  0
VERTEX
  8
0
 10
169.807399
 20
567.944954
 42
-0.014335
  0
VERTEX
  8
0
 10
177.633634
 20
568.050367
 42
-0.016547
  0
VERTEX
  8
0
 10
185.402676
 20
567.674904
 42
-0.133187
  0
SEQEND
  0
POLYLINE
  8
0
 66
1
 70
1
  0
VERTEX
  8
0
 10
310.433684
 20
515.701668
 42
-0.028931
  0
VERTEX
  8
0
 10
314.098481
 20
511.977698
 42
-0.005835
  0
VERTEX
  8
0
 10
320.140424
 20
504.918013
 42
-0.001882
  0
VERTEX
  8
0
 10
326.515570
 20
497.231972
 42
-0.173890
  0
VERTEX
  8
0
 10
327.000000
 20
495.881175
 42
-0.232231
  0
VERTEX
  8
0
 10
326.749714
 20
495.371365
 42
-0.017359
  0
VERTEX
  8
0
 10
325.457812
 20
494.442544
 42
-0.021194
  0
VERTEX
  8
0
 10
323.761520
 20
493.411296
 42
-0.014361
  0
VERTEX
  8
0
 10
321.750000
 20
492.376480
 42
0.005724
  0
VERTEX
  8
0
 10
319.448037
 20
491.242096
 42
0.003952
  0
VERTEX
  8
0
 10
316.867188
 20
489.907608
 42
0.003984
  0
VERTEX
  8
0
 10
314.405811
 20
488.584970
 42
0.008138
  0
VERTEX
  8
0
 10
312.500000
 20
487.500523
 42
-0.010636
  0
VERTEX
  8
0
 10
307.579682
 20
484.733201
 42
-0.032367
  0
VERTEX
  8
0
 10
304.088890
 20
483.147643
 42
-0.048669
  0
VERTEX
  8
0
 10
301.582902
 20
482.469239
 42
-0.179985
  0
VERTEX
  8
0
 10
300.000000
 20
482.772090
 42
-0.087417
  0
VERTEX
  8
0
 10
299.072302
 20
483.585070
 42
-0.002700
  0
VERTEX
  8
0
 10
295.902969
 20
487.573847
 42
-0.005222
  0
VERTEX
  8
0
 10
292.230143
 20
492.349732
 42
-0.003582
  0
VERTEX
  8
0
 10
288.159043
 20
497.840935
 42
0.000000
  0
VERTEX
  8
0
 10
277.818087
 20
512.000000
 42
0.000000
  0
VERTEX
  8
0
 10
270.031488
 20
512.000000
 42
-0.010139
  0
VERTEX
  8
0
 10
266.261868
 20
512.076446
 42
-0.031017
  0
VERTEX
  8
0
 10
263.719516
 20
512.338129
 42
-0.046817
  0
VERTEX
  8
0
 10
262.003665
 20
512.791183
 42
-0.132354
  0
VERTEX
  8
0
 10
261.000000
 20
513.500000
 42
-0.045542
  0
VERTEX
  8
0
 10
260.431193
 20
514.328390
 42
-0.128955
  0
VERTEX
  8
0
 10
260.256267
 20
515.001678
 42
-0.128381
  0
VERTEX
  8
0
 10
260.433975
 20
515.676017
 42
-0.044952
  0
VERTEX
  8
0
 10
261.006936
 20
516.508358
 42
-0.184735
  0
VERTEX
  8
0
 10
262.472138
 20
517.333172
 42
-0.021819
  0
VERTEX
  8
0
 10
266.257334
 20
517.727253
 42
-0.013515
  0
VERTEX
  8
0
 10
272.617389
 20
517.937698
 42
-0.002132
  0
VERTEX
  8
0
 10
285.129807
 20
517.960025
 42
-0.001586
  0
VERTEX
  8
0
 10
299.709558
 20
517.877631
 42
-0.020050
  0
VERTEX
  8
0
 10
305.196383
 20
517.609008
 42
-0.057675
  0
VERTEX
  8
0
 10
308.242813
 20
516.978018
 42
-0.104402
  0
SEQEND
  0
POLYLINE
  8
0
 66
1
 70
1
  0
VERTEX
  8
0
 10
187.353108
 20
495.162314
 42
-0.025305
  0
VERTEX
  8
0
 10
188.285756
 20
494.020629
 42
-0.177339
  0
VERTEX
  8
0
 10
188.483449
 20
493.341669
 42
-0.170507
  0
VERTEX
  8
0
 10
188.199824
 20
492.680911
 42
-0.023006
  0
VERTEX
  8
0
 10
187.111672
 20
491.601061
 42
-0.117129
  0
VERTEX
  8
0
 10
184.363730
 20
490.091393
 42
-0.013430
  0
VERTEX
  8
0
 10
177.461044
 20
488.385246
 42
-0.012663
  0
VERTEX
  8
0
 10
170.459012
 20
487.037648
 42
-0.133590
  0
VERTEX
  8
0
 10
167.587397
 20
487.328089
 42
-0.230933
  0
VERTEX
  8
0
 10
166.465286
 20
488.531432
 42
-0.062802
  0
VERTEX
  8
0
 10
166.009715
 20
491.167468
 42
-0.061119
  0
VERTEX
  8
0
 10
166.225030
 20
493.980615
 42
-0.147793
  0
VERTEX
  8
0
 10
167.200000
 20
495.800000
 42
-0.146351
  0
VERTEX
  8
0
 10
168.154563
 20
496.315004
 42
-0.020711
  0
VERTEX
  8
0
 10
170.381640
 20
496.680596
 42
-0.019889
  0
VERTEX
  8
0
 10
173.345988
 20
496.922780
 42
-0.010437
  0
VERTEX
  8
0
 10
177.045012
 20
497.000000
 42
-0.007849
  0
VERTEX
  8
0
 10
181.686233
 20
496.927135
 42
-0.036272
  0
VERTEX
  8
0
 10
184.355570
 20
496.648763
 42
-0.065629
  0
VERTEX
  8
0
 10
186.086933
 20
496.098944
 42
-0.099494
  0
SEQEND
  0
POLYLINE
  8
0
 66
1
 70
1
  0
VERTEX
  8
0
 10
355.151819
 20
488.540766
 42
0.092117
  0
VERTEX
  8
0
 10
355.506069
 20
484.929110
 42
0.054516
  0
VERTEX
  8
0
 10
357.159004
 20
480.912621
 42
0.040712
  0
VERTEX
  8
0
 10
360.200971
 20
476.276843
 42
0.018541
  0
VERTEX
  8
0
 10
364.869117
 20
470.725327
 42
-0.035350
  0
VERTEX
  8
0
 10
369.719060
 20
464.547748
 42
-0.075890
  0
VERTEX
  8
0
 10
372.310946
 20
459.090777
 42
-0.093349
  0
VERTEX
  8
0
 10
372.864776
 20
453.874390
 42
-0.079013
  0
VERTEX
  8
0
 10
371.555026
 20
448.477453
 42
-0.048718
  0
VERTEX
  8
0
 10
369.974117
 20
445.535819
 42
-0.039750
  0
VERTEX
  8
0
 10
367.753718
 20
442.732919
 42
-0.039913
  0
VERTEX
  8
0
 10
365.432480
 20
440.606593
 42
-0.166981
  0
VERTEX
  8
0
 10
363.666775
 20
440.000000
 42
-0.155620
  0
VERTEX
  8
0
 10
363.036385
 20
440.201072
 42
-0.053702
  0
VERTEX
  8
0
 10
362.311929
 20
440.842685
 42
-0.047087
  0
VERTEX
  8
0
 10
361.614187
 20
441.770953
 42
-0.039460
  0
VERTEX
  8
0
 10
361.054380
 20
442.868714
 42
0.067744
  0
VERTEX
  8
0
 10
359.342318
 20
445.804316
 42
0.037599
  0
VERTEX
  8
0
 10
356.547041
 20
448.875367
 42
0.037054
  0
VERTEX
  8
0
 10
353.231381
 20
451.573859
 42
0.053536
  0
VERTEX
  8
0
 10
349.921382
 20
453.391131
 42
-0.042749
  0
VERTEX
  8
0
 10
347.812029
 20
454.490815
 42
-0.120870
  0
VERTEX
  8
0
 10
346.670771
 20
455.681500
 42
-0.074604
  0
VERTEX
  8
0
 10
345.918817
 20
457.593500
 42
-0.009819
  0
VERTEX
  8
0
 10
345.023950
 20
461.873072
 42
-0.045885
  0
VERTEX
  8
0
 10
344.236392
 20
470.156782
 42
-0.059353
  0
VERTEX
  8
0
 10
345.115504
 20
477.735295
 42
-0.063692
  0
VERTEX
  8
0
 10
347.657967
 20
484.464140
 42
-0.066204
  0
VERTEX
  8
0
 10
351.787116
 20
490.239569
 42
-0.023081
  0
VERTEX
  8
0
 10
353.784540
 20
492.183153
 42
-0.307457
  0
VERTEX
  8
0
 10
354.750519
 20
492.308476
 42
-0.283747
  0
VERTEX
  8
0
 10
355.280564
 20
491.444505
 42
-0.020820
  0
SEQEND
  0
POLYLINE
  8
0
 66
1
 70
1
  0
VERTEX
  8
0
 10
204.000000
 20
476.402248
 42
-0.106637
  0
VERTEX
  8
0
 10
203.907643
 20
475.974129
 42
-0.001533
  0
VERTEX
  8
0
 10
202.817855
 20
473.585363
 42
-0.004152
  0
VERTEX
  8
0
 10
201.518005
 20
470.819860
 42
-0.002717
  0
VERTEX
  8
0
 10
199.975675
 20
467.652248
 42
0.027369
  0
VERTEX
  8
0
 10
197.140941
 20
461.018378
 42
0.033810
  0
VERTEX
  8
0
 10
195.273760
 20
454.561785
 42
0.037006
  0
VERTEX
  8
0
 10
194.418081
 20
448.487025
 42
0.051436
  0
VERTEX
  8
0
 10
194.620223
 20
443.000000
 42
0.040118
  0
VERTEX
  8
0
 10
195.147979
 20
440.637702
 42
0.010521
  0
VERTEX
  8
0
 10
196.373331
 20
436.952825
 42
0.010617
  0
VERTEX
  8
0
 10
197.951242
 20
432.802431
 42
0.010696
  0
VERTEX
  8
0
 10
199.700286
 20
428.733023
 42
-0.012285
  0
VERTEX
  8
0
 10
201.574827
 20
424.333134
 42
-0.015030
  0
VERTEX
  8
0
 10
203.100028
 20
420.130398
 42
-0.016466
  0
VERTEX
  8
0
 10
204.192323
 20
416.404027
 42
-0.037358
  0
VERTEX
  8
0
 10
204.710537
 20
413.515687
 42
-0.059512
  0
VERTEX
  8
0
 10
204.576203
 20
405.141414
 42
-0.044988
  0
VERTEX
  8
0
 10
202.524096
 20
396.168799
 42
-0.045147
  0
VERTEX
  8
0
 10
198.913605
 20
387.746576
 42
-0.061466
  0
VERTEX
  8
0
 10
194.129567
 20
381.016930
 42
-0.015285
  0
VERTEX
  8
0
 10
190.434577
 20
377.216580
 42
-0.283058
  0
VERTEX
  8
0
 10
188.865790
 20
376.870376
 42
-0.308821
  0
VERTEX
  8
0
 10
187.948689
 20
378.109227
 42
-0.017159
  0
VERTEX
  8
0
 10
187.929048
 20
383.171866
 42
0.036253
  0
VERTEX
  8
0
 10
187.703095
 20
388.543650
 42
0.076877
  0
VERTEX
  8
0
 10
186.603407
 20
392.548817
 42
0.062735
  0
VERTEX
  8
0
 10
184.185566
 20
396.521593
 42
0.017843
  0
VERTEX
  8
0
 10
179.478379
 20
402.023518
 42
-0.016433
  0
VERTEX
  8
0
 10
177.215311
 20
404.653616
 42
-0.011932
  0
VERTEX
  8
0
 10
174.866340
 20
407.719262
 42
-0.012078
  0
VERTEX
  8
0
 10
172.774597
 20
410.739110
 42
-0.025701
  0
VERTEX
  8
0
 10
171.337893
 20
413.189813
 42
-0.023698
  0
VERTEX
  8
0
 10
169.864393
 20
416.390328
 42
-0.047318
  0
VERTEX
  8
0
 10
169.069447
 20
419.058993
 42
-0.038522
  0
VERTEX
  8
0
 10
168.701484
 20
422.164405
 42
-0.011114
  0
VERTEX
  8
0
 10
168.611007
 20
427.000000
 42
-0.055357
  0
VERTEX
  8
0
 10
169.748538
 20
436.924532
 42
-0.051951
  0
VERTEX
  8
0
 10
173.041306
 20
446.584057
 42
-0.048521
  0
VERTEX
  8
0
 10
178.508062
 20
455.929214
 42
-0.037829
  0
VERTEX
  8
0
 10
186.108593
 20
464.918329
 42
-0.026410
  0
VERTEX
  8
0
 10
191.795479
 20
470.115935
 42
-0.029266
  0
VERTEX
  8
0
 10
197.814369
 20
474.496591
 42
-0.032190
  0
VERTEX
  8
0
 10
202.716625
 20
477.214815
 42
-0.550438
  0
SEQEND
  0
POLYLINE
  8
0
 66
1
 70
1
  0
VERTEX
  8
0
 10
315.000000
 20
445.845237
 42
-0.063897
  0
VERTEX
  8
0
 10
323.810292
 20
440.397893
 42
-0.065745
  0
VERTEX
  8
0
 10
330.863852
 20
432.948503
 42
-0.069488
  0
VERTEX
  8
0
 10
335.433243
 20
424.341542
 42
-0.088438
  0
VERTEX
  8
0
 10
336.977249
 20
415.500000
 42
-0.061883
  0
VERTEX
  8
0
 10
336.099030
 20
408.629593
 42
-0.081805
  0
VERTEX
  8
0
 10
333.565081
 20
402.862560
 42
-0.071539
  0
VERTEX
  8
0
 10
329.011749
 20
397.671781
 42
-0.036214
  0
VERTEX
  8
0
 10
321.998295
 20
392.498924
 42
0.023787
  0
VERTEX
  8
0
 10
320.077327
 20
391.154431
 42
0.007577
  0
VERTEX
  8
0
 10
317.347589
 20
388.976732
 42
0.007543
  0
VERTEX
  8
0
 10
314.375674
 20
386.455091
 42
0.008340
  0
VERTEX
  8
0
 10
311.580556
 20
383.926475
 42
-0.014168
  0
VERTEX
  8
0
 10
306.373553
 20
379.325141
 42
-0.381904
  0
VERTEX
  8
0
 10
304.674693
 20
379.383311
 42
-0.215267
  0
VERTEX
  8
0
 10
303.854305
 20
381.420206
 42
-0.006389
  0
VERTEX
  8
0
 10
304.363006
 20
390.839446
 42
-0.011910
  0
VERTEX
  8
0
 10
304.887855
 20
396.619813
 42
-0.038363
  0
VERTEX
  8
0
 10
305.620519
 20
400.407839
 42
-0.037256
  0
VERTEX
  8
0
 10
306.934735
 20
404.096978
 42
-0.010752
  0
VERTEX
  8
0
 10
309.504318
 20
409.580664
 42
0.009657
  0
VERTEX
  8
0
 10
311.831645
 20
414.519167
 42
0.030271
  0
VERTEX
  8
0
 10
313.125440
 20
417.950622
 42
0.041106
  0
VERTEX
  8
0
 10
313.776350
 20
420.890825
 42
0.034390
  0
VERTEX
  8
0
 10
313.990231
 20
424.080664
 42
0.056161
  0
VERTEX
  8
0
 10
313.419561
 20
429.064543
 42
0.044721
  0
VERTEX
  8
0
 10
311.738406
 20
434.213459
 42
0.042553
  0
VERTEX
  8
0
 10
309.058206
 20
439.237929
 42
0.039927
  0
VERTEX
  8
0
 10
305.514860
 20
443.851871
 42
-0.052516
  0
VERTEX
  8
0
 10
302.572629
 20
447.889105
 42
-0.510641
  0
VERTEX
  8
0
 10
303.303162
 20
449.527587
 42
-0.144846
  0
VERTEX
  8
0
 10
306.917230
 20
449.235845
 42
-0.014476
  0
SEQEND
  0
POLYLINE
  8
0
 66
1
 70
1
  0
VERTEX
  8
0
 10
410.000000
 20
405.833065
 42
-0.057762
  0
VERTEX
  8
0
 10
418.247019
 20
399.753228
 42
-0.046100
  0
VERTEX
  8
0
 10
425.602606
 20
391.500723
 42
-0.047496
  0
VERTEX
  8
0
 10
431.066537
 20
382.404934
 42
-0.078305
  0
VERTEX
  8
0
 10
433.623178
 20
373.829008
 42
-0.023285
  0
VERTEX
  8
0
 10
433.814057
 20
371.637395
 42
-0.011922
  0
VERTEX
  8
0
 10
433.859520
 20
368.877471
 42
-0.011821
  0
VERTEX
  8
0
 10
433.771078
 20
366.026689
 42
-0.017412
  0
VERTEX
  8
0
 10
433.547262
 20
363.531977
 42
0.000000
  0
VERTEX
  8
0
 10
432.844335
 20
357.905938
 42
0.000000
  0
VERTEX
  8
0
 10
427.450602
 20
355.520573
 42
0.022628
  0
VERTEX
  8
0
 10
422.508387
 20
353.061881
 42
0.019220
  0
VERTEX
  8
0
 10
417.524385
 20
350.038179
 42
0.019384
  0
VERTEX
  8
0
 10
412.838655
 20
346.675170
 42
0.024489
  0
VERTEX
  8
0
 10
408.794565
 20
343.197430
 42
-0.044931
  0
VERTEX
  8
0
 10
405.864560
 20
340.878923
 42
-0.251104
  0
VERTEX
  8
0
 10
403.937103
 20
340.709690
 42
-0.202664
  0
VERTEX
  8
0
 10
402.446463
 20
342.257990
 42
-0.029969
  0
VERTEX
  8
0
 10
401.107336
 20
346.488009
 42
-0.033838
  0
VERTEX
  8
0
 10
399.975344
 20
352.743391
 42
-0.052593
  0
VERTEX
  8
0
 10
399.940912
 20
358.220544
 42
-0.050623
  0
VERTEX
  8
0
 10
401.057990
 20
363.732339
 42
-0.028737
  0
VERTEX
  8
0
 10
403.449132
 20
370.112440
 42
0.004516
  0
VERTEX
  8
0
 10
404.944055
 20
373.580334
 42
0.004557
  0
VERTEX
  8
0
 10
406.371507
 20
377.064279
 42
0.004447
  0
VERTEX
  8
0
 10
407.560049
 20
380.120891
 42
0.018369
  0
VERTEX
  8
0
 10
408.193677
 20
382.000000
 42
0.069457
  0
VERTEX
  8
0
 10
408.840407
 20
386.284982
 42
0.036127
  0
VERTEX
  8
0
 10
408.509549
 20
391.691886
 42
0.035377
  0
VERTEX
  8
0
 10
407.362844
 20
397.233006
 42
0.048597
  0
VERTEX
  8
0
 10
405.514939
 20
401.970519
 42
-0.009438
  0
VERTEX
  8
0
 10
402.895446
 20
407.391220
 42
-0.334474
  0
VERTEX
  8
0
 10
403.175945
 20
408.680153
 42
-0.308334
  0
VERTEX
  8
0
 10
404.539786
 20
408.834639
 42
-0.008624
  0
SEQEND
  0
POLYLINE
  8
0
 66
1
 70
1
  0
VERTEX
  8
0
 10
387.833333
 20
386.108933
 42
-0.113891
  0
VERTEX
  8
0
 10
387.489204
 20
385.589108
 42
-0.006508
  0
VERTEX
  8
0
 10
386.070413
 20
384.277394
 42
-0.009668
  0
VERTEX
  8
0
 10
384.316253
 20
382.757856
 42
-0.006930
  0
VERTEX
  8
0
 10
382.299987
 20
381.125192
 42
0.041813
  0
VERTEX
  8
0
 10
373.689163
 20
373.097402
 42
0.058066
  0
VERTEX
  8
0
 10
367.559066
 20
364.526109
 42
0.062833
  0
VERTEX
  8
0
 10
363.897990
 20
355.342509
 42
0.062094
  0
VERTEX
  8
0
 10
362.613065
 20
345.500000
 42
0.015341
  0
VERTEX
  8
0
 10
362.731581
 20
340.740375
 42
0.042206
  0
VERTEX
  8
0
 10
363.199569
 20
337.417966
 42
0.038362
  0
VERTEX
  8
0
 10
364.245494
 20
334.048533
 42
0.010942
  0
VERTEX
  8
0
 10
366.377335
 20
329.000000
 42
-0.026548
  0
VERTEX
  8
0
 10
371.996109
 20
314.442575
 42
-0.069946
  0
VERTEX
  8
0
 10
373.945002
 20
303.458924
 42
-0.078677
  0
VERTEX
  8
0
 10
372.689400
 20
293.140210
 42
-0.040604
  0
VERTEX
  8
0
 10
368.105672
 20
280.935876
 42
-0.052500
  0
VERTEX
  8
0
 10
365.667495
 20
276.917272
 42
-0.026695
  0
VERTEX
  8
0
 10
361.838988
 20
272.405229
 42
-0.018444
  0
VERTEX
  8
0
 10
357.882969
 20
268.515823
 42
-0.335167
  0
VERTEX
  8
0
 10
356.225185
 20
268.360828
 42
-0.226329
  0
VERTEX
  8
0
 10
355.859092
 20
268.929400
 42
-0.016957
  0
VERTEX
  8
0
 10
355.683606
 20
270.811014
 42
-0.020230
  0
VERTEX
  8
0
 10
355.638860
 20
273.212592
 42
-0.012402
  0
VERTEX
  8
0
 10
355.770855
 20
276.041470
 42
0.027755
  0
VERTEX
  8
0
 10
355.855240
 20
281.337513
 42
0.040022
  0
VERTEX
  8
0
 10
355.296607
 20
285.987466
 42
0.038858
  0
VERTEX
  8
0
 10
353.986955
 20
290.589680
 42
0.024233
  0
VERTEX
  8
0
 10
351.784658
 20
295.750000
 42
0.020589
  0
VERTEX
  8
0
 10
349.798866
 20
299.446217
 42
0.381271
  0
VERTEX
  8
0
 10
348.632725
 20
299.817333
 42
0.242629
  0
VERTEX
  8
0
 10
347.676073
 20
298.620515
 42
0.012083
  0
VERTEX
  8
0
 10
346.777451
 20
293.511484
 42
-0.201479
  0
VERTEX
  8
0
 10
345.750528
 20
291.827387
 42
-0.246779
  0
VERTEX
  8
0
 10
343.949354
 20
291.570448
 42
-0.085018
  0
VERTEX
  8
0
 10
340.985673
 20
293.235308
 42
-0.017392
  0
VERTEX
  8
0
 10
336.436452
 20
297.195037
 42
-0.027312
  0
VERTEX
  8
0
 10
331.506770
 20
302.328243
 42
-0.056360
  0
VERTEX
  8
0
 10
328.378040
 20
306.921546
 42
-0.056071
  0
VERTEX
  8
0
 10
326.344531
 20
312.112965
 42
-0.026776
  0
VERTEX
  8
0
 10
324.864097
 20
319.135455
 42
-0.015379
  0
VERTEX
  8
0
 10
324.338265
 20
323.372323
 42
-0.032043
  0
VERTEX
  8
0
 10
324.242973
 20
326.696568
 42
-0.029688
  0
VERTEX
  8
0
 10
324.572311
 20
330.161437
 42
-0.011449
  0
VERTEX
  8
0
 10
325.423113
 20
334.917305
 42
-0.019759
  0
VERTEX
  8
0
 10
327.000299
 20
341.378148
 42
-0.035548
  0
VERTEX
  8
0
 10
328.869915
 20
346.499812
 42
-0.033446
  0
VERTEX
  8
0
 10
331.527850
 20
351.507678
 42
-0.015404
  0
VERTEX
  8
0
 10
335.609900
 20
357.662499
 42
-0.055801
  0
VERTEX
  8
0
 10
344.267622
 20
367.377617
 42
-0.043394
  0
VERTEX
  8
0
 10
355.588383
 20
375.888824
 42
-0.043198
  0
VERTEX
  8
0
 10
368.273720
 20
382.357937
 42
-0.053698
  0
VERTEX
  8
0
 10
381.000000
 20
385.989251
 42
-0.003389
  0
VERTEX
  8
0
 10
385.209839
 20
386.685412
 42
-0.034912
  0
VERTEX
  8
0
 10
386.963714
 20
386.838932
 42
-0.158212
  0
VERTEX
  8
0
 10
387.673822
 20
386.622137
 42
-0.342143
  0
SEQEND
  0
POLYLINE
  8
0
 66
1
 70
1
  0
VERTEX
  8
0
 10
741.031231
 20
785.448510
 42
-0.001916
  0
VERTEX
  8
0
 10
734.984663
 20
776.705848
 42
-0.002818
  0
VERTEX
  8
0
 10
729.599161
 20
769.074462
 42
-0.001320
  0
VERTEX
  8
0
 10
724.961675
 20
762.617128
 42
-0.052492
  0
VERTEX
  8
0
 10
723.795520
 20
761.314948
 42
0.080409
  0
VERTEX
  8
0
 10
722.079283
 20
759.169736
 42
0.416374
  0
VERTEX
  8
0
 10
722.450391
 20
757.853417
 42
0.116605
  0
VERTEX
  8
0
 10
724.980281
 20
757.140277
 42
0.010649
  0
VERTEX
  8
0
 10
731.565741
 20
757.000000
 42
-0.009952
  0
VERTEX
  8
0
 10
735.370212
 20
756.924267
 42
-0.012492
  0
VERTEX
  8
0
 10
738.889735
 20
756.695915
 42
-0.010698
  0
VERTEX
  8
0
 10
741.809440
 20
756.369989
 42
-0.089950
  0
VERTEX
  8
0
 10
743.065741
 20
755.964816
 42
-0.290243
  0
VERTEX
  8
0
 10
744.439255
 20
753.534670
 42
-0.122121
  0
VERTEX
  8
0
 10
743.305720
 20
749.784941
 42
-0.024998
  0
VERTEX
  8
0
 10
738.415044
 20
742.426373
 42
-0.001287
  0
VERTEX
  8
0
 10
721.375779
 20
719.500000
 42
-0.004666
  0
VERTEX
  8
0
 10
718.003216
 20
715.073273
 42
-0.005199
  0
VERTEX
  8
0
 10
714.666603
 20
710.868479
 42
-0.004819
  0
VERTEX
  8
0
 10
711.752128
 20
707.343088
 42
-0.027106
  0
VERTEX
  8
0
 10
710.078184
 20
705.562909
 42
0.034581
  0
VERTEX
  8
0
 10
707.223142
 20
702.434323
 42
0.408146
  0
VERTEX
  8
0
 10
707.378991
 20
700.947508
 42
0.165228
  0
VERTEX
  8
0
 10
709.519745
 20
700.132317
 42
0.009087
  0
VERTEX
  8
0
 10
716.800000
 20
700.000000
 42
-0.020607
  0
VERTEX
  8
0
 10
726.182574
 20
699.613138
 42
-0.284396
  0
VERTEX
  8
0
 10
728.800403
 20
697.677939
 42
-0.259016
  0
VERTEX
  8
0
 10
728.370656
 20
694.307890
 42
-0.017817
  0
VERTEX
  8
0
 10
722.192976
 20
686.500000
 42
0.004932
  0
VERTEX
  8
0
 10
718.954448
 20
682.616815
 42
0.002194
  0
VERTEX
  8
0
 10
714.758631
 20
677.437466
 42
0.002171
  0
VERTEX
  8
0
 10
710.364720
 20
671.915729
 42
0.002934
  0
VERTEX
  8
0
 10
706.443079
 20
666.882862
 42
-0.002222
  0
VERTEX
  8
0
 10
702.182469
 20
661.398884
 42
-0.001070
  0
VERTEX
  8
0
 10
696.675467
 20
654.406154
 42
-0.001061
  0
VERTEX
  8
0
 10
690.901506
 20
647.138381
 42
-0.001520
  0
VERTEX
  8
0
 10
685.750000
 20
640.722390
 42
0.003320
  0
VERTEX
  8
0
 10
681.246272
 20
635.071645
 42
0.005183
  0
VERTEX
  8
0
 10
677.451563
 20
630.140732
 42
0.001694
  0
VERTEX
  8
0
 10
674.239194
 20
625.845560
 42
0.161064
  0
VERTEX
  8
0
 10
674.000000
 20
625.122279
 42
0.364780
  0
VERTEX
  8
0
 10
674.401747
 20
624.644883
 42
0.013010
  0
VERTEX
  8
0
 10
676.953054
 20
624.270624
 42
0.016564
  0
VERTEX
  8
0
 10
680.443616
 20
623.967903
 42
0.007004
  0
VERTEX
  8
0
 10
685.143347
 20
623.782751
 42
-0.005479
  0
VERTEX
  8
0
 10
691.011279
 20
623.569491
 42
-0.027183
  0
VERTEX
  8
0
 10
694.295231
 20
623.234560
 42
-0.050527
  0
VERTEX
  8
0
 10
696.275208
 20
622.714287
 42
-0.164240
  0
VERTEX
  8
0
 10
697.313295
 20
621.868801
 42
-0.086078
  0
VERTEX
  8
0
 10
697.688003
 20
620.957197
 42
-0.108245
  0
VERTEX
  8
0
 10
697.690377
 20
620.046437
 42
-0.080630
  0
VERTEX
  8
0
 10
697.288502
 20
619.022350
 42
-0.030095
  0
VERTEX
  8
0
 10
696.419947
 20
617.739180
 42
0.000392
  0
VERTEX
  8
0
 10
695.131445
 20
616.059732
 42
0.000024
  0
VERTEX
  8
0
 10
691.270753
 20
611.018995
 42
0.000035
  0
VERTEX
  8
0
 10
686.673011
 20
605.014453
 42
0.000026
  0
VERTEX
  8
0
 10
681.586872
 20
598.370378
 42
-0.002401
  0
VERTEX
  8
0
 10
666.406819
 20
578.734471
 42
-0.006658
  0
VERTEX
  8
0
 10
655.483053
 20
565.121262
 42
-0.004042
  0
VERTEX
  8
0
 10
647.136549
 20
555.164069
 42
-0.151917
  0
VERTEX
  8
0
 10
644.680669
 20
553.612156
 42
-0.049647
  0
VERTEX
  8
0
 10
643.277708
 20
553.381690
 42
-0.004794
  0
VERTEX
  8
0
 10
639.826665
 20
553.195097
 42
-0.006056
  0
VERTEX
  8
0
 10
635.698250
 20
553.061628
 42
-0.004749
  0
VERTEX
  8
0
 10
631.218615
 20
553.013655
 42
-0.009517
  0
VERTEX
  8
0
 10
623.237051
 20
553.155928
 42
-0.101220
  0
VERTEX
  8
0
 10
620.096079
 20
553.919950
 42
-0.299580
  0
VERTEX
  8
0
 10
619.103347
 20
555.545367
 42
-0.098737
  0
VERTEX
  8
0
 10
619.775237
 20
558.406045
 42
-0.038525
  0
VERTEX
  8
0
 10
621.174555
 20
560.940077
 42
-0.000203
  0
VERTEX
  8
0
 10
636.734932
 20
584.589185
 42
-0.000487
  0
VERTEX
  8
0
 10
651.515429
 20
606.985606
 42
-0.014560
  0
VERTEX
  8
0
 10
655.415527
 20
612.525247
 42
0.149763
  0
VERTEX
  8
0
 10
655.682026
 20
613.266278
 42
0.068284
  0
VERTEX
  8
0
 10
655.590218
 20
614.301613
 42
0.050331
  0
VERTEX
  8
0
 10
655.154033
 20
615.594519
 42
0.025421
  0
VERTEX
  8
0
 10
654.363910
 20
617.124192
 42
0.000000
  0
VERTEX
  8
0
 10
652.396765
 20
620.500000
 42
0.000000
  0
VERTEX
  8
0
 10
642.968771
 20
621.000000
 42
-0.004517
  0
VERTEX
  8
0
 10
636.859739
 20
621.379350
 42
-0.059790
  0
VERTEX
  8
0
 10
634.645716
 20
621.806271
 42
-0.155453
  0
VERTEX
  8
0
 10
633.440458
 20
622.663740
 42
-0.076897
  0
VERTEX
  8
0
 10
632.546508
 20
624.337689
 42
-0.185663
  0
VERTEX
  8
0
 10
632.623765
 20
626.900862
 42
-0.092173
  0
VERTEX
  8
0
 10
634.435885
 20
629.660105
 42
-0.016376
  0
VERTEX
  8
0
 10
639.434908
 20
634.537848
 42
-0.000415
  0
VERTEX
  8
0
 10
662.775212
 20
655.829978
 42
0.003498
  0
VERTEX
  8
0
 10
670.911250
 20
663.344476
 42
0.005540
  0
VERTEX
  8
0
 10
677.765219
 20
669.908341
 42
0.001652
  0
VERTEX
  8
0
 10
683.605342
 20
675.664579
 42
0.199934
  0
VERTEX
  8
0
 10
684.000000
 20
676.612097
 42
0.084576
  0
VERTEX
  8
0
 10
683.595164
 20
678.988307
 42
0.036934
  0
VERTEX
  8
0
 10
682.312268
 20
681.929253
 42
0.036401
  0
VERTEX
  8
0
 10
680.655398
 20
684.584148
 42
0.112646
  0
VERTEX
  8
0
 10
679.070644
 20
685.962193
 42
0.067917
  0
VERTEX
  8
0
 10
678.019902
 20
686.352630
 42
0.032798
  0
VERTEX
  8
0
 10
676.598956
 20
686.574036
 42
0.031552
  0
VERTEX
  8
0
 10
675.050016
 20
686.614188
 42
0.037086
  0
VERTEX
  8
0
 10
673.591283
 20
686.451147
 42
-0.113898
  0
VERTEX
  8
0
 10
668.423465
 20
686.665080
 42
-0.191832
  0
VERTEX
  8
0
 10
665.009723
 20
689.245453
 42
-0.195828
  0
VERTEX
  8
0
 10
664.346037
 20
693.418459
 42
-0.118162
  0
VERTEX
  8
0
 10
666.621192
 20
697.961659
 42
0.000000
  0
VERTEX
  8
0
 10
669.242384
 20
701.076769
 42
0.000000
  0
VERTEX
  8
0
 10
664.690624
 20
707.788385
 42
0.000946
  0
VERTEX
  8
0
 10
662.550898
 20
710.930620
 42
0.000479
  0
VERTEX
  8
0
 10
659.846084
 20
714.878463
 42
0.000476
  0
VERTEX
  8
0
 10
657.046446
 20
718.948004
 42
0.000711
  0
VERTEX
  8
0
 10
654.590408
 20
722.500000
 42
-0.022538
  0
VERTEX
  8
0
 10
649.980922
 20
729.830704
 42
-0.156967
  0
VERTEX
  8
0
 10
649.130580
 20
733.923298
 42
-0.300252
  0
VERTEX
  8
0
 10
651.038414
 20
736.235315
 42
-0.074515
  0
VERTEX
  8
0
 10
656.140983
 20
737.000000
 42
0.016924
  0
VERTEX
  8
0
 10
657.995749
 20
737.062797
 42
0.023567
  0
VERTEX
  8
0
 10
659.645709
 20
737.253072
 42
0.021326
  0
VERTEX
  8
0
 10
660.954518
 20
737.524633
 42
0.194912
  0
VERTEX
  8
0
 10
661.414415
 20
737.861521
 42
0.269649
  0
VERTEX
  8
0
 10
661.431618
 20
738.503120
 42
0.004678
  0
VERTEX
  8
0
 10
659.663888
 20
741.668461
 42
0.010434
  0
VERTEX
  8
0
 10
657.444058
 20
745.375551
 42
0.006587
  0
VERTEX
  8
0
 10
654.707479
 20
749.611521
 42
-0.001607
  0
VERTEX
  8
0
 10
651.621574
 20
754.285427
 42
-0.001296
  0
VERTEX
  8
0
 10
648.334810
 20
759.326969
 42
-0.001309
  0
VERTEX
  8
0
 10
645.324109
 20
763.998071
 42
-0.003365
  0
VERTEX
  8
0
 10
643.179230
 20
767.395182
 42
0.011457
  0
VERTEX
  8
0
 10
641.276299
 20
770.303739
 42
0.030675
  0
VERTEX
  8
0
 10
639.751890
 20
772.253373
 42
0.043506
  0
VERTEX
  8
0
 10
638.581864
 20
773.362989
 42
0.381362
  0
VERTEX
  8
0
 10
637.925730
 20
773.325730
 42
0.049996
  0
VERTEX
  8
0
 10
635.116178
 20
769.890155
 42
0.001599
  0
VERTEX
  8
0
 10
625.227366
 20
754.874814
 42
0.000390
  0
VERTEX
  8
0
 10
614.672669
 20
738.708712
 42
0.289400
  0
VERTEX
  8
0
 10
614.659039
 20
737.750000
 42
0.222577
  0
VERTEX
  8
0
 10
615.109292
 20
737.452693
 42
0.010446
  0
VERTEX
  8
0
 10
616.963368
 20
737.220312
 42
0.015560
  0
VERTEX
  8
0
 10
619.242647
 20
737.054373
 42
0.010390
  0
VERTEX
  8
0
 10
621.859017
 20
737.000000
 42
-0.038481
  0
VERTEX
  8
0
 10
628.222984
 20
736.509487
 42
-0.244871
  0
VERTEX
  8
0
 10
630.751125
 20
734.650101
 42
-0.249258
  0
VERTEX
  8
0
 10
630.651005
 20
731.541450
 42
-0.039638
  0
VERTEX
  8
0
 10
627.092425
 20
726.339798
 42
0.000726
  0
VERTEX
  8
0
 10
614.231378
 20
710.363103
 42
0.004397
  0
VERTEX
  8
0
 10
607.649113
 20
702.012511
 42
0.003310
  0
VERTEX
  8
0
 10
603.475251
 20
696.546100
 42
0.157360
  0
VERTEX
  8
0
 10
603.026471
 20
695.250000
 42
0.343921
  0
VERTEX
  8
0
 10
603.480678
 20
694.641635
 42
0.036760
  0
VERTEX
  8
0
 10
605.329225
 20
694.279432
 42
0.024050
  0
VERTEX
  8
0
 10
608.379392
 20
694.059714
 42
0.005955
  0
VERTEX
  8
0
 10
613.393011
 20
694.000000
 42
-0.005521
  0
VERTEX
  8
0
 10
618.862586
 20
693.939606
 42
-0.029058
  0
VERTEX
  8
0
 10
621.855132
 20
693.699140
 42
-0.057016
  0
VERTEX
  8
0
 10
623.592721
 20
693.251401
 42
-0.212695
  0
VERTEX
  8
0
 10
624.372378
 20
692.471982
 42
-0.237278
  0
VERTEX
  8
0
 10
624.251179
 20
691.258325
 42
-0.006153
  0
VERTEX
  8
0
 10
621.181466
 20
686.550154
 42
-0.010215
  0
VERTEX
  8
0
 10
616.944797
 20
680.495027
 42
-0.004227
  0
VERTEX
  8
0
 10
610.979367
 20
672.472737
 42
0.003652
  0
VERTEX
  8
0
 10
605.621473
 20
665.284733
 42
0.005638
  0
VERTEX
  8
0
 10
601.106439
 20
658.986585
 42
0.002075
  0
VERTEX
  8
0
 10
597.318913
 20
653.527362
 42
0.151747
  0
VERTEX
  8
0
 10
597.000000
 20
652.500754
 42
0.301395
  0
VERTEX
  8
0
 10
597.515186
 20
651.723723
 42
0.067054
  0
VERTEX
  8
0
 10
599.132387
 20
651.283203
 42
0.028620
  0
VERTEX
  8
0
 10
602.194381
 20
651.053697
 42
0.004397
  0
VERTEX
  8
0
 10
608.300000
 20
651.000000
 42
-0.009715
  0
VERTEX
  8
0
 10
615.823598
 20
650.853808
 42
-0.063131
  0
VERTEX
  8
0
 10
619.552813
 20
650.233029
 42
-0.195212
  0
VERTEX
  8
0
 10
621.088925
 20
648.999398
 42
-0.221386
  0
VERTEX
  8
0
 10
621.225502
 20
647.128145
 42
-0.055424
  0
VERTEX
  8
0
 10
620.700489
 20
646.103787
 42
-0.003623
  0
VERTEX
  8
0
 10
618.839878
 20
643.334518
 42
-0.005228
  0
VERTEX
  8
0
 10
616.558801
 20
640.065962
 42
-0.003877
  0
VERTEX
  8
0
 10
613.972350
 20
636.500000
 42
0.002985
  0
VERTEX
  8
0
 10
611.059210
 20
632.498666
 42
0.002020
  0
VERTEX
  8
0
 10
607.784652
 20
627.904962
 42
0.002035
  0
VERTEX
  8
0
 10
604.656343
 20
623.440250
 42
0.004063
  0
VERTEX
  8
0
 10
602.225002
 20
619.878593
 42
-0.010184
  0
VERTEX
  8
0
 10
600.147419
 20
616.913746
 42
-0.013545
  0
VERTEX
  8
0
 10
598.133180
 20
614.311325
 42
-0.010816
  0
VERTEX
  8
0
 10
596.364707
 20
612.242965
 42
-0.119403
  0
VERTEX
  8
0
 10
595.474512
 20
611.628593
 42
-0.086557
  0
VERTEX
  8
0
 10
592.776308
 20
611.099246
 42
-0.005363
  0
VERTEX
  8
0
 10
584.589895
 20
611.014794
 42
-0.003034
  0
VERTEX
  8
0
 10
576.041019
 20
611.070175
 42
-0.195654
  0
VERTEX
  8
0
 10
574.696212
 20
611.637122
 42
-0.337287
  0
VERTEX
  8
0
 10
574.559387
 20
612.646072
 42
-0.020844
  0
VERTEX
  8
0
 10
576.262403
 20
615.377565
 42
-0.021787
  0
VERTEX
  8
0
 10
578.926421
 20
618.935156
 42
-0.009729
  0
VERTEX
  8
0
 10
582.721989
 20
623.388965
 42
0.007576
  0
VERTEX
  8
0
 10
584.356550
 20
625.290354
 42
0.012486
  0
VERTEX
  8
0
 10
585.672605
 20
626.951655
 42
0.006110
  0
VERTEX
  8
0
 10
586.705523
 20
628.360134
 42
0.366713
  0
VERTEX
  8
0
 10
586.681417
 20
628.651916
 42
0.282157
  0
VERTEX
  8
0
 10
586.364746
 20
628.727863
 42
0.005941
  0
VERTEX
  8
0
 10
584.772821
 20
628.188782
 42
0.011956
  0
VERTEX
  8
0
 10
582.882135
 20
627.472140
 42
0.007543
  0
VERTEX
  8
0
 10
580.709241
 20
626.550117
 42
-0.024476
  0
VERTEX
  8
0
 10
574.478681
 20
624.151803
 42
-0.005666
  0
VERTEX
  8
0
 10
563.765913
 20
620.753588
 42
-0.004675
  0
VERTEX
  8
0
 10
549.170357
 20
616.453837
 42
-0.001976
  0
VERTEX
  8
0
 10
529.500000
 20
610.942361
 42
0.006868
  0
VERTEX
  8
0
 10
514.783690
 20
606.663240
 42
0.024734
  0
VERTEX
  8
0
 10
505.593249
 20
603.348350
 42
0.039286
  0
VERTEX
  8
0
 10
499.469216
 20
600.205472
 42
0.074737
  0
VERTEX
  8
0
 10
495.250000
 20
596.638066
 42
0.063334
  0
VERTEX
  8
0
 10
492.792769
 20
592.993532
 42
0.115602
  0
VERTEX
  8
0
 10
491.956554
 20
589.524446
 42
0.116817
  0
VERTEX
  8
0
 10
492.751632
 20
586.070079
 42
0.065525
  0
VERTEX
  8
0
 10
495.159980
 20
582.470574
 42
0.082537
  0
VERTEX
  8
0
 10
500.470769
 20
578.126859
 42
0.038088
  0
VERTEX
  8
0
 10
508.553283
 20
574.275018
 42
0.018633
  0
VERTEX
  8
0
 10
522.130417
 20
569.604433
 42
0.002876
  0
VERTEX
  8
0
 10
549.445198
 20
561.503627
 42
-0.014260
  0
VERTEX
  8
0
 10
571.199159
 20
554.509443
 42
-0.045065
  0
VERTEX
  8
0
 10
585.103553
 20
548.138287
 42
-0.068317
  0
VERTEX
  8
0
 10
594.174200
 20
541.154256
 42
-0.087852
  0
VERTEX
  8
0
 10
600.132659
 20
532.500000
 42
-0.074835
  0
VERTEX
  8
0
 10
601.822728
 20
526.585233
 42
-0.101322
  0
VERTEX
  8
0
 10
601.418248
 20
521.056076
 42
-0.086737
  0
VERTEX
  8
0
 10
598.754866
 20
515.514452
 42
-0.042265
  0
VERTEX
  8
0
 10
593.649749
 20
509.521138
 42
-0.048447
  0
VERTEX
  8
0
 10
586.572386
 20
503.751452
 42
-0.042427
  0
VERTEX
  8
0
 10
578.204602
 20
499.154674
 42
-0.026186
  0
VERTEX
  8
0
 10
566.046862
 20
494.506506
 42
-0.006255
  0
VERTEX
  8
0
 10
545.371321
 20
488.103918
 42
0.002456
  0
VERTEX
  8
0
 10
519.640320
 20
480.349533
 42
0.017514
  0
VERTEX
  8
0
 10
507.344407
 20
476.101517
 42
0.036798
  0
VERTEX
  8
0
 10
499.790480
 20
472.533906
 42
0.055035
  0
VERTEX
  8
0
 10
493.875525
 20
468.268580
 42
0.091326
  0
VERTEX
  8
0
 10
488.022041
 20
460.631286
 42
0.185769
  0
VERTEX
  8
0
 10
487.245544
 20
453.223399
 42
0.153806
  0
VERTEX
  8
0
 10
491.724506
 20
446.206772
 42
0.058359
  0
VERTEX
  8
0
 10
501.548863
 20
439.758090
 42
0.029155
  0
VERTEX
  8
0
 10
507.773957
 20
437.082169
 42
0.012100
  0
VERTEX
  8
0
 10
516.458214
 20
434.170659
 42
0.007413
  0
VERTEX
  8
0
 10
529.413500
 20
430.382660
 42
0.001784
  0
VERTEX
  8
0
 10
551.000000
 20
424.499707
 42
-0.005387
  0
VERTEX
  8
0
 10
584.755748
 20
415.038461
 42
-0.024416
  0
VERTEX
  8
0
 10
604.066995
 20
408.361937
 42
-0.041515
  0
VERTEX
  8
0
 10
617.034838
 20
401.861402
 42
-0.053064
  0
VERTEX
  8
0
 10
627.637350
 20
393.739537
 42
-0.026390
  0
VERTEX
  8
0
 10
633.471247
 20
387.580789
 42
-0.053681
  0
VERTEX
  8
0
 10
637.221713
 20
382.078584
 42
-0.064323
  0
VERTEX
  8
0
 10
639.295362
 20
376.611992
 42
-0.058590
  0
VERTEX
  8
0
 10
640.000000
 20
370.619380
 42
-0.049000
  0
VERTEX
  8
0
 10
639.463029
 20
365.153203
 42
-0.064583
  0
VERTEX
  8
0
 10
637.866259
 20
360.411608
 42
-0.058308
  0
VERTEX
  8
0
 10
634.963170
 20
355.885385
 42
-0.031631
  0
VERTEX
  8
0
 10
630.450552
 20
351.041678
 42
-0.051437
  0
VERTEX
  8
0
 10
623.879729
 20
345.997123
 42
-0.029655
  0
VERTEX
  8
0
 10
615.083985
 20
341.275348
 42
-0.022205
  0
VERTEX
  8
0
 10
603.249695
 20
336.424954
 42
-0.009418
  0
VERTEX
  8
0
 10
587.000000
 20
330.936310
 42
0.007897
  0
VERTEX
  8
0
 10
568.424645
 20
324.725018
 42
0.032481
  0
VERTEX
  8
0
 10
557.518310
 20
320.069752
 42
0.053392
  0
VERTEX
  8
0
 10
550.324315
 20
315.407199
 42
0.065591
  0
VERTEX
  8
0
 10
544.826132
 20
309.599962
 42
0.063352
  0
VERTEX
  8
0
 10
542.762934
 20
305.828140
 42
0.089471
  0
VERTEX
  8
0
 10
542.020457
 20
302.079573
 42
0.089688
  0
VERTEX
  8
0
 10
542.635101
 20
298.314616
 42
0.063964
  0
VERTEX
  8
0
 10
544.568238
 20
294.494584
 42
0.062492
  0
VERTEX
  8
0
 10
549.013397
 20
289.437125
 42
0.051975
  0
VERTEX
  8
0
 10
554.840575
 20
285.267664
 42
0.029206
  0
VERTEX
  8
0
 10
564.024955
 20
280.730832
 42
0.005834
  0
VERTEX
  8
0
 10
580.949855
 20
273.798464
 42
-0.011990
  0
VERTEX
  8
0
 10
600.262529
 20
265.609016
 42
-0.030272
  0
VERTEX
  8
0
 10
613.757444
 20
258.487684
 42
-0.040857
  0
VERTEX
  8
0
 10
623.597608
 20
251.346804
 42
-0.052987
  0
VERTEX
  8
0
 10
631.235329
 20
243.238052
 42
-0.027398
  0
VERTEX
  8
0
 10
635.160762
 20
237.436183
 42
-0.049276
  0
VERTEX
  8
0
 10
637.614264
 20
232.245912
 42
-0.051669
  0
VERTEX
  8
0
 10
638.934198
 20
226.848933
 42
-0.033564
  0
VERTEX
  8
0
 10
639.380590
 20
220.437357
 42
-0.060829
  0
VERTEX
  8
0
 10
638.338753
 20
211.731259
 42
-0.063413
  0
VERTEX
  8
0
 10
635.234312
 20
203.661932
 42
-0.037090
  0
VERTEX
  8
0
 10
628.831462
 20
193.629982
 42
-0.007625
  0
VERTEX
  8
0
 10
615.992306
 20
177.000000
 42
0.003916
  0
VERTEX
  8
0
 10
604.820670
 20
162.749713
 42
0.010572
  0
VERTEX
  8
0
 10
597.183855
 20
152.404557
 42
0.014632
  0
VERTEX
  8
0
 10
591.914204
 20
144.457075
 42
0.033674
  0
VERTEX
  8
0
 10
588.546457
 20
138.126691
 42
0.008654
  0
VERTEX
  8
0
 10
587.384472
 20
135.410865
 42
0.087831
  0
VERTEX
  8
0
 10
587.127457
 20
134.215398
 42
0.181887
  0
VERTEX
  8
0
 10
587.407828
 20
133.378567
 42
0.064163
  0
VERTEX
  8
0
 10
588.340428
 20
132.493023
 42
0.125236
  0
VERTEX
  8
0
 10
589.892941
 20
131.868971
 42
0.009711
  0
VERTEX
  8
0
 10
594.380846
 20
131.356935
 42
0.010451
  0
VERTEX
  8
0
 10
600.599977
 20
130.900393
 42
0.003968
  0
VERTEX
  8
0
 10
609.293971
 20
130.513770
 42
0.003039
  0
VERTEX
  8
0
 10
620.003227
 20
130.187811
 42
0.015825
  0
VERTEX
  8
0
 10
625.911008
 20
130.230929
 42
0.028751
  0
VERTEX
  8
0
 10
629.896429
 20
130.616447
 42
0.044355
  0
VERTEX
  8
0
 10
633.254757
 20
131.447435
 42
-0.062617
  0
VERTEX
  8
0
 10
637.965269
 20
132.432497
 42
-0.029628
  0
VERTEX
  8
0
 10
644.180593
 20
132.568260
 42
-0.023757
  0
VERTEX
  8
0
 10
651.939335
 20
131.907919
 42
-0.012492
  0
VERTEX
  8
0
 10
661.500000
 20
130.390592
 42
0.036278
  0
VERTEX
  8
0
 10
670.330845
 20
129.416605
 42
0.010031
  0
VERTEX
  8
0
 10
684.293154
 20
129.175535
 42
0.003276
  0
VERTEX
  8
0
 10
699.074663
 20
129.313716
 42
0.330578
  0
VERTEX
  8
0
 10
700.620859
 20
130.500000
 42
0.305628
  0
VERTEX
  8
0
 10
700.433815
 20
131.073243
 42
0.009071
  0
VERTEX
  8
0
 10
698.308234
 20
132.669190
 42
0.015188
  0
VERTEX
  8
0
 10
695.607685
 20
134.499009
 42
0.009533
  0
VERTEX
  8
0
 10
692.347599
 20
136.480220
 42
-0.052674
  0
VERTEX
  8
0
 10
681.597454
 20
144.355581
 42
-0.064095
  0
VERTEX
  8
0
 10
673.512690
 20
153.852113
 42
-0.063182
  0
VERTEX
  8
0
 10
668.014612
 20
165.203294
 42
-0.049188
  0
VERTEX
  8
0
 10
664.931502
 20
178.577668
 42
-0.011853
  0
VERTEX
  8
0
 10
664.374176
 20
183.888199
 42
-0.032326
  0
VERTEX
  8
0
 10
664.312886
 20
187.664000
 42
-0.030071
  0
VERTEX
  8
0
 10
664.737988
 20
191.565845
 42
-0.009138
  0
VERTEX
  8
0
 10
665.843797
 20
197.412770
 42
-0.028261
  0
VERTEX
  8
0
 10
668.136514
 20
205.972725
 42
-0.026312
  0
VERTEX
  8
0
 10
671.425395
 20
214.431719
 42
-0.026473
  0
VERTEX
  8
0
 10
675.560015
 20
222.444649
 42
-0.029595
  0
VERTEX
  8
0
 10
680.381932
 20
229.670263
 42
-0.040534
  0
VERTEX
  8
0
 10
685.731911
 20
235.664553
 42
-0.030213
  0
VERTEX
  8
0
 10
692.510372
 20
241.382123
 42
-0.032302
  0
VERTEX
  8
0
 10
698.414626
 20
245.214348
 42
-0.573203
  0
VERTEX
  8
0
 10
700.000000
 20
244.285810
 42
-0.109026
  0
VERTEX
  8
0
 10
699.890164
 20
243.788085
 42
-0.002405
  0
VERTEX
  8
0
 10
698.835115
 20
241.542358
 42
-0.005351
  0
VERTEX
  8
0
 10
697.554071
 20
238.921986
 42
-0.003577
  0
VERTEX
  8
0
 10
696.034435
 20
235.949304
 42
0.049629
  0
VERTEX
  8
0
 10
692.275282
 20
226.552475
 42
0.048422
  0
VERTEX
  8
0
 10
690.402128
 20
216.520919
 42
0.046783
  0
VERTEX
  8
0
 10
690.461753
 20
205.998029
 42
0.040627
  0
VERTEX
  8
0
 10
692.441132
 20
195.143526
 42
0.037165
  0
VERTEX
  8
0
 10
693.862052
 20
191.073356
 42
0.024526
  0
VERTEX
  8
0
 10
696.059733
 20
186.628862
 42
0.017189
  0
VERTEX
  8
0
 10
698.406953
 20
182.736392
 42
0.252951
  0
VERTEX
  8
0
 10
699.764188
 20
181.997962
 42
0.398897
  0
VERTEX
  8
0
 10
700.052628
 20
182.270107
 42
0.004284
  0
VERTEX
  8
0
 10
700.191818
 20
185.243448
 42
0.010402
  0
VERTEX
  8
0
 10
700.253931
 20
188.811103
 42
0.006236
  0
VERTEX
  8
0
 10
700.186681
 20
193.049287
 42
-0.033215
  0
VERTEX
  8
0
 10
700.571943
 20
203.164768
 42
-0.051240
  0
VERTEX
  8
0
 10
702.368048
 20
211.723096
 42
-0.047438
  0
VERTEX
  8
0
 10
705.989849
 20
220.193461
 42
-0.024030
  0
VERTEX
  8
0
 10
712.027867
 20
230.110308
 42
0.015354
  0
VERTEX
  8
0
 10
715.709593
 20
235.927599
 42
0.021212
  0
VERTEX
  8
0
 10
718.623323
 20
241.375443
 42
0.023846
  0
VERTEX
  8
0
 10
720.763917
 20
246.423949
 42
0.035536
  0
VERTEX
  8
0
 10
722.099727
 20
251.029408
 42
0.056470
  0
VERTEX
  8
0
 10
722.612278
 20
256.219275
 42
0.034039
  0
VERTEX
  8
0
 10
722.102575
 20
262.388632
 42
0.032661
  0
VERTEX
  8
0
 10
720.698004
 20
268.796553
 42
0.036404
  0
VERTEX
  8
0
 10
718.505939
 20
274.730650
 42
-0.017140
  0
VERTEX
  8
0
 10
717.643803
 20
276.814081
 42
-0.028844
  0
VERTEX
  8
0
 10
717.083993
 20
278.621219
 42
-0.029197
  0
VERTEX
  8
0
 10
716.821716
 20
280.027753
 42
-0.293844
  0
VERTEX
  8
0
 10
717.067104
 20
280.541472
 42
-0.258163
  0
VERTEX
  8
0
 10
718.705650
 20
280.620644
 42
-0.014472
  0
VERTEX
  8
0
 10
723.374161
 20
278.154724
 42
-0.022049
  0
VERTEX
  8
0
 10
728.297186
 20
275.075184
 42
-0.029686
  0
VERTEX
  8
0
 10
732.441488
 20
271.842590
 42
-0.033804
  0
VERTEX
  8
0
 10
734.391169
 20
269.877364
 42
-0.024675
  0
VERTEX
  8
0
 10
736.288418
 20
267.455394
 42
-0.023784
  0
VERTEX
  8
0
 10
738.016478
 20
264.745117
 42
-0.024558
  0
VERTEX
  8
0
 10
739.459379
 20
261.911166
 42
-0.016812
  0
VERTEX
  8
0
 10
740.955210
 20
258.253574
 42
-0.045606
  0
VERTEX
  8
0
 10
741.684023
 20
255.551359
 42
-0.044363
  0
VERTEX
  8
0
 10
741.921368
 20
252.719714
 42
-0.015220
  0
VERTEX
  8
0
 10
741.775232
 20
248.602946
 42
-0.021183
  0
VERTEX
  8
0
 10
741.343648
 20
244.632696
 42
-0.034398
  0
VERTEX
  8
0
 10
740.605452
 20
241.322350
 42
-0.030751
  0
VERTEX
  8
0
 10
739.356139
 20
237.896201
 42
-0.013327
  0
VERTEX
  8
0
 10
737.298328
 20
233.500000
 42
0.010586
  0
VERTEX
  8
0
 10
734.195885
 20
226.965645
 42
0.044188
  0
VERTEX
  8
0
 10
732.770016
 20
222.853699
 42
0.071634
  0
VERTEX
  8
0
 10
732.439672
 20
219.640445
 42
0.069662
  0
VERTEX
  8
0
 10
733.022429
 20
216.432040
 42
0.114719
  0
VERTEX
  8
0
 10
736.115094
 20
211.356101
 42
0.132768
  0
VERTEX
  8
0
 10
740.983620
 20
208.496033
 42
0.121629
  0
VERTEX
  8
0
 10
746.977457
 20
208.345638
 42
0.087268
  0
VERTEX
  8
0
 10
753.197349
 20
210.910201
 42
0.080350
  0
VERTEX
  8
0
 10
757.294904
 20
214.544318
 42
0.052724
  0
VERTEX
  8
0
 10
760.756920
 20
219.833533
 42
0.046604
  0
VERTEX
  8
0
 10
763.409324
 20
226.453694
 42
0.035747
  0
VERTEX
  8
0
 10
765.083892
 20
234.068373
 42
0.050797
  0
VERTEX
  8
0
 10
765.504126
 20
243.723509
 42
0.046731
  0
VERTEX
  8
0
 10
764.005044
 20
253.548910
 42
0.031566
  0
VERTEX
  8
0
 10
760.089914
 20
265.859721
 42
0.009299
  0
VERTEX
  8
0
 10
752.562634
 20
284.191761
 42
-0.037916
  0
VERTEX
  8
0
 10
746.586507
 20
301.502341
 42
-0.052840
  0
VERTEX
  8
0
 10
744.122530
 20
317.691429
 42
-0.055824
  0
VERTEX
  8
0
 10
745.157553
 20
333.333362
 42
-0.049820
  0
VERTEX
  8
0
 10
749.614480
 20
349.000000
 42
-0.070749
  0
VERTEX
  8
0
 10
758.941619
 20
365.366669
 42
-0.055894
  0
VERTEX
  8
0
 10
773.157722
 20
380.000558
 42
-0.054949
  0
VERTEX
  8
0
 10
790.549442
 20
391.355777
 42
-0.062694
  0
VERTEX
  8
0
 10
809.256159
 20
398.044808
 42
-0.016946
  0
VERTEX
  8
0
 10
813.299876
 20
398.798596
 42
-0.110338
  0
VERTEX
  8
0
 10
815.350976
 20
398.656060
 42
-0.504412
  0
VERTEX
  8
0
 10
815.640693
 20
397.855639
 42
-0.093453
  0
VERTEX
  8
0
 10
814.346751
 20
396.530320
 42
0.063869
  0
VERTEX
  8
0
 10
810.971916
 20
393.457586
 42
0.013320
  0
VERTEX
  8
0
 10
805.939930
 20
387.209648
 42
0.014740
  0
VERTEX
  8
0
 10
801.082644
 20
380.433093
 42
0.032976
  0
VERTEX
  8
0
 10
797.900273
 20
374.957709
 42
0.027038
  0
VERTEX
  8
0
 10
795.136255
 20
368.536900
 42
0.035248
  0
VERTEX
  8
0
 10
793.356609
 20
362.393641
 42
0.032777
  0
VERTEX
  8
0
 10
792.375151
 20
355.718002
 42
0.019210
  0
VERTEX
  8
0
 10
792.035622
 20
347.644345
 42
0.023100
  0
VERTEX
  8
0
 10
792.388602
 20
339.358845
 42
0.035869
  0
VERTEX
  8
0
 10
793.531261
 20
332.299561
 42
0.035735
  0
VERTEX
  8
0
 10
795.675049
 20
325.457113
 42
0.022708
  0
VERTEX
  8
0
 10
799.084728
 20
317.831485
 42
0.024232
  0
VERTEX
  8
0
 10
803.411388
 20
310.174493
 42
0.020999
  0
VERTEX
  8
0
 10
808.657071
 20
302.584986
 42
0.012956
  0
VERTEX
  8
0
 10
813.735413
 20
296.210194
 42
0.439873
  0
VERTEX
  8
0
 10
815.468269
 20
296.134935
 42
0.246626
  0
VERTEX
  8
0
 10
815.583074
 20
296.503722
 42
0.004302
  0
VERTEX
  8
0
 10
815.173904
 20
298.626581
 42
0.009771
  0
VERTEX
  8
0
 10
814.617251
 20
301.132845
 42
0.006220
  0
VERTEX
  8
0
 10
813.876477
 20
304.027436
 42
-0.018679
  0
VERTEX
  8
0
 10
812.885152
 20
308.346276
 42
-0.025491
  0
VERTEX
  8
0
 10
812.338657
 20
312.301462
 42
-0.021174
  0
VERTEX
  8
0
 10
812.140122
 20
316.811693
 42
-0.008447
  0
VERTEX
  8
0
 10
812.234466
 20
323.000000
 42
-0.007121
  0
VERTEX
  8
0
 10
812.562363
 20
330.064824
 42
-0.037321
  0
VERTEX
  8
0
 10
813.086440
 20
333.916683
 42
-0.046544
  0
VERTEX
  8
0
 10
814.131676
 20
337.261788
 42
-0.014982
  0
VERTEX
  8
0
 10
816.280894
 20
342.000000
 42
-0.011636
  0
VERTEX
  8
0
 10
820.694271
 20
350.496560
 42
-0.108365
  0
VERTEX
  8
0
 10
823.397090
 20
353.589226
 42
-0.631408
  0
VERTEX
  8
0
 10
824.651761
 20
352.920465
 42
-0.043743
  0
VERTEX
  8
0
 10
823.950879
 20
347.671110
 42
0.047386
  0
VERTEX
  8
0
 10
823.201846
 20
341.732213
 42
0.015192
  0
VERTEX
  8
0
 10
823.198489
 20
332.831861
 42
0.011885
  0
VERTEX
  8
0
 10
823.669602
 20
324.079291
 42
0.108592
  0
VERTEX
  8
0
 10
824.767871
 20
320.450348
 42
0.024252
  0
VERTEX
  8
0
 10
825.457568
 20
319.347102
 42
0.367375
  0
VERTEX
  8
0
 10
825.862319
 20
319.239666
 42
0.186627
  0
VERTEX
  8
0
 10
826.250056
 20
319.649989
 42
0.008335
  0
VERTEX
  8
0
 10
826.970641
 20
321.500000
 42
-0.047071
  0
VERTEX
  8
0
 10
831.145890
 20
330.169372
 42
-0.043319
  0
VERTEX
  8
0
 10
836.971053
 20
338.167420
 42
-0.045653
  0
VERTEX
  8
0
 10
843.653830
 20
344.563565
 42
-0.077010
  0
VERTEX
  8
0
 10
850.377153
 20
348.399934
 42
-0.018646
  0
VERTEX
  8
0
 10
853.981212
 20
349.624439
 42
-0.190726
  0
VERTEX
  8
0
 10
855.521976
 20
349.490530
 42
-0.384311
  0
VERTEX
  8
0
 10
855.915214
 20
348.486698
 42
-0.047740
  0
VERTEX
  8
0
 10
854.790749
 20
346.193301
 42
0.016967
  0
VERTEX
  8
0
 10
851.306328
 20
340.069899
 42
0.053695
  0
VERTEX
  8
0
 10
849.575818
 20
335.688001
 42
0.051634
  0
VERTEX
  8
0
 10
848.783192
 20
330.947141
 42
0.014830
  0
VERTEX
  8
0
 10
848.538660
 20
323.500000
 42
0.007696
  0
VERTEX
  8
0
 10
848.620760
 20
316.784413
 42
0.036877
  0
VERTEX
  8
0
 10
849.007931
 20
312.976839
 42
0.044003
  0
VERTEX
  8
0
 10
849.922453
 20
309.580180
 42
0.014013
  0
VERTEX
  8
0
 10
851.862061
 20
304.709582
 42
0.015554
  0
VERTEX
  8
0
 10
853.517345
 20
301.176196
 42
0.008621
  0
VERTEX
  8
0
 10
855.743641
 20
296.966438
 42
0.008591
  0
VERTEX
  8
0
 10
858.147561
 20
292.776426
 42
0.013698
  0
VERTEX
  8
0
 10
860.360143
 20
289.289678
 42
-0.007558
  0
VERTEX
  8
0
 10
871.719825
 20
271.864918
 42
-0.017740
  0
VERTEX
  8
0
 10
879.535752
 20
258.437310
 42
-0.023153
  0
VERTEX
  8
0
 10
884.956309
 20
247.081809
 42
-0.031002
  0
VERTEX
  8
0
 10
888.729974
 20
236.313973
 42
0.000000
  0
VERTEX
  8
0
 10
891.500000
 20
226.500000
 42
0.000000
  0
VERTEX
  8
0
 10
892.192443
 20
236.000000
 42
0.014529
  0
VERTEX
  8
0
 10
892.462785
 20
242.181687
 42
0.001160
  0
VERTEX
  8
0
 10
892.664407
 20
258.533537
 42
0.001569
  0
VERTEX
  8
0
 10
892.798469
 20
278.044633
 42
0.001203
  0
VERTEX
  8
0
 10
892.826761
 20
299.369487
 42
-0.000860
  0
VERTEX
  8
0
 10
892.845316
 20
328.337679
 42
-0.005379
  0
VERTEX
  8
0
 10
893.039674
 20
343.151903
 42
-0.003728
  0
VERTEX
  8
0
 10
893.339786
 20
352.726832
 42
-0.244541
  0
VERTEX
  8
0
 10
894.134318
 20
354.119487
 42
0.032611
  0
VERTEX
  8
0
 10
894.814449
 20
354.623625
 42
0.215807
  0
VERTEX
  8
0
 10
894.991166
 20
354.996441
 42
0.222694
  0
VERTEX
  8
0
 10
894.825172
 20
355.367454
 42
0.034705
  0
VERTEX
  8
0
 10
894.164880
 20
355.861624
 42
-0.243394
  0
VERTEX
  8
0
 10
893.401413
 20
357.194458
 42
-0.004012
  0
VERTEX
  8
0
 10
893.095394
 20
366.019545
 42
-0.005779
  0
VERTEX
  8
0
 10
892.891651
 20
379.530191
 42
-0.000999
  0
VERTEX
  8
0
 10
892.852678
 20
405.111624
 42
0.000709
  0
VERTEX
  8
0
 10
892.828402
 20
430.841424
 42
0.000193
  0
VERTEX
  8
0
 10
892.716691
 20
471.527227
 42
0.000195
  0
VERTEX
  8
0
 10
892.554190
 20
517.687570
 42
0.000202
  0
VERTEX
  8
0
 10
892.357559
 20
563.257658
 42
0.000000
  0
VERTEX
  8
0
 10
891.839522
 20
673.015315
 42
0.000000
  0
VERTEX
  8
0
 10
887.521728
 20
678.757658
 42
0.011348
  0
VERTEX
  8
0
 10
885.449433
 20
681.387239
 42
0.005909
  0
VERTEX
  8
0
 10
882.753271
 20
684.575687
 42
0.005872
  0
VERTEX
  8
0
 10
879.907228
 20
687.784877
 42
0.008917
  0
VERTEX
  8
0
 10
877.351967
 20
690.500000
 42
-0.011015
  0
VERTEX
  8
0
 10
874.819522
 20
693.213607
 42
-0.007417
  0
VERTEX
  8
0
 10
872.044015
 20
696.416594
 42
-0.007472
  0
VERTEX
  8
0
 10
869.449630
 20
699.597167
 42
-0.014680
  0
VERTEX
  8
0
 10
867.500000
 20
702.216066
 42
0.017025
  0
VERTEX
  8
0
 10
865.858531
 20
704.399567
 42
0.023658
  0
VERTEX
  8
0
 10
864.234375
 20
706.229178
 42
0.021475
  0
VERTEX
  8
0
 10
862.799538
 20
707.578153
 42
0.193802
  0
VERTEX
  8
0
 10
862.000000
 20
707.850911
 42
-0.033842
  0
VERTEX
  8
0
 10
859.519538
 20
707.884560
 42
-0.083346
  0
VERTEX
  8
0
 10
857.759230
 20
708.329415
 42
-0.079756
  0
VERTEX
  8
0
 10
856.194936
 20
709.338744
 42
-0.029099
  0
VERTEX
  8
0
 10
854.334766
 20
711.217510
 42
0.005982
  0
VERTEX
  8
0
 10
852.958920
 20
712.741957
 42
0.002729
  0
VERTEX
  8
0
 10
851.127004
 20
714.701974
 42
0.002702
  0
VERTEX
  8
0
 10
849.174185
 20
716.746381
 42
0.003716
  0
VERTEX
  8
0
 10
847.395461
 20
718.561309
 42
-0.015933
  0
VERTEX
  8
0
 10
842.237975
 20
724.087600
 42
-0.004411
  0
VERTEX
  8
0
 10
834.499113
 20
733.087445
 42
-0.004656
  0
VERTEX
  8
0
 10
826.494513
 20
742.745169
 42
-0.008028
  0
VERTEX
  8
0
 10
820.038279
 20
750.949715
 42
0.008542
  0
VERTEX
  8
0
 10
816.927606
 20
754.894375
 42
0.030687
  0
VERTEX
  8
0
 10
814.751940
 20
757.247765
 42
0.049456
  0
VERTEX
  8
0
 10
813.101324
 20
758.540577
 42
0.181587
  0
VERTEX
  8
0
 10
811.824289
 20
758.807887
 42
0.176071
  0
VERTEX
  8
0
 10
810.564187
 20
758.117057
 42
0.016055
  0
VERTEX
  8
0
 10
808.252834
 20
755.308760
 42
0.016142
  0
VERTEX
  8
0
 10
805.317626
 20
751.234016
 42
0.006528
  0
VERTEX
  8
0
 10
801.569791
 20
745.500000
 42
-0.000151
  0
VERTEX
  8
0
 10
797.640795
 20
739.318092
 42
-0.000072
  0
VERTEX
  8
0
 10
792.565876
 20
731.341042
 42
-0.000071
  0
VERTEX
  8
0
 10
787.250806
 20
722.991757
 42
-0.000100
  0
VERTEX
  8
0
 10
782.512820
 20
715.554611
 42
0.003359
  0
VERTEX
  8
0
 10
778.366180
 20
708.951094
 42
0.005079
  0
VERTEX
  8
0
 10
774.853966
 20
703.142494
 42
0.002111
  0
VERTEX
  8
0
 10
771.926568
 20
698.140015
 42
0.114263
  0
VERTEX
  8
0
 10
771.606324
 20
697.096250
 42
0.319136
  0
VERTEX
  8
0
 10
772.081113
 20
696.317798
 42
0.075414
  0
VERTEX
  8
0
 10
773.640611
 20
695.911713
 42
0.028610
  0
VERTEX
  8
0
 10
776.721059
 20
695.766853
 42
0.003845
  0
VERTEX
  8
0
 10
783.208137
 20
695.883007
 42
-0.019069
  0
VERTEX
  8
0
 10
793.948747
 20
695.748323
 42
-0.082935
  0
VERTEX
  8
0
 10
800.144559
 20
694.387754
 42
-0.206408
  0
VERTEX
  8
0
 10
802.731563
 20
691.783332
 42
-0.202007
  0
VERTEX
  8
0
 10
802.643827
 20
688.082818
 42
-0.037779
  0
VERTEX
  8
0
 10
801.646783
 20
686.248492
 42
-0.000549
  0
VERTEX
  8
0
 10
794.916323
 20
675.851232
 42
-0.001506
  0
VERTEX
  8
0
 10
787.054129
 20
663.814394
 42
-0.000993
  0
VERTEX
  8
0
 10
777.943655
 20
650.017540
 42
-0.002049
  0
VERTEX
  8
0
 10
766.771941
 20
633.320905
 42
-0.006768
  0
VERTEX
  8
0
 10
759.218302
 20
622.451343
 42
-0.005348
  0
VERTEX
  8
0
 10
753.691391
 20
614.895669
 42
-0.125915
  0
VERTEX
  8
0
 10
751.646602
 20
613.248750
 42
-0.078320
  0
VERTEX
  8
0
 10
749.608875
 20
612.682145
 42
-0.012540
  0
VERTEX
  8
0
 10
745.480181
 20
612.310357
 42
-0.011284
  0
VERTEX
  8
0
 10
739.860439
 20
612.073277
 42
-0.004899
  0
VERTEX
  8
0
 10
732.381518
 20
612.000000
 42
-0.005807
  0
VERTEX
  8
0
 10
721.036307
 20
612.131775
 42
-0.053530
  0
VERTEX
  8
0
 10
716.166135
 20
612.769413
 42
-0.163747
  0
VERTEX
  8
0
 10
713.887257
 20
614.203738
 42
-0.176179
  0
VERTEX
  8
0
 10
713.023918
 20
616.678571
 42
-0.145206
  0
VERTEX
  8
0
 10
713.386212
 20
617.843466
 42
-0.005539
  0
VERTEX
  8
0
 10
715.980828
 20
621.627882
 42
-0.009536
  0
VERTEX
  8
0
 10
719.219825
 20
626.059545
 42
-0.006532
  0
VERTEX
  8
0
 10
723.056406
 20
630.969538
 42
0.005273
  0
VERTEX
  8
0
 10
727.590175
 20
636.741758
 42
0.002965
  0
VERTEX
  8
0
 10
732.979477
 20
643.840943
 42
0.002958
  0
VERTEX
  8
0
 10
738.336305
 20
651.073696
 42
0.004832
  0
VERTEX
  8
0
 10
742.782487
 20
657.276673
 42
-0.000323
  0
VERTEX
  8
0
 10
746.815785
 20
663.012147
 42
-0.000313
  0
VERTEX
  8
0
 10
750.898737
 20
668.802562
 42
-0.000309
  0
VERTEX
  8
0
 10
754.497153
 20
673.892359
 42
-0.001157
  0
VERTEX
  8
0
 10
756.766403
 20
677.082225
 42
0.011206
  0
VERTEX
  8
0
 10
758.586149
 20
679.752243
 42
0.034359
  0
VERTEX
  8
0
 10
759.648922
 20
681.665080
 42
0.058174
  0
VERTEX
  8
0
 10
760.074679
 20
682.940335
 42
0.379051
  0
VERTEX
  8
0
 10
759.766403
 20
683.480466
 42
0.014878
  0
VERTEX
  8
0
 10
758.969662
 20
683.724989
 42
0.001611
  0
VERTEX
  8
0
 10
757.112506
 20
684.228596
 42
0.001976
  0
VERTEX
  8
0
 10
754.896509
 20
684.812480
 42
0.001592
  0
VERTEX
  8
0
 10
752.510214
 20
685.423061
 42
-0.060625
  0
VERTEX
  8
0
 10
746.840362
 20
687.611852
 42
-0.190004
  0
VERTEX
  8
0
 10
744.239066
 20
690.664439
 42
-0.178953
  0
VERTEX
  8
0
 10
744.338278
 20
694.807350
 42
-0.052988
  0
VERTEX
  8
0
 10
747.337790
 20
700.513348
 42
0.010615
  0
VERTEX
  8
0
 10
751.789876
 20
707.480291
 42
0.001270
  0
VERTEX
  8
0
 10
761.262840
 20
723.111003
 42
0.000440
  0
VERTEX
  8
0
 10
771.421221
 20
740.002792
 42
0.043564
  0
VERTEX
  8
0
 10
772.638846
 20
742.501230
 42
0.208030
  0
VERTEX
  8
0
 10
772.604122
 20
743.293466
 42
0.026129
  0
VERTEX
  8
0
 10
771.752286
 20
744.829813
 42
0.027176
  0
VERTEX
  8
0
 10
770.485110
 20
746.631935
 42
0.019385
  0
VERTEX
  8
0
 10
768.884458
 20
748.509522
 42
-0.034176
  0
VERTEX
  8
0
 10
765.611032
 20
752.587524
 42
-0.288039
  0
VERTEX
  8
0
 10
765.504837
 20
754.837280
 42
-0.233064
  0
VERTEX
  8
0
 10
767.565179
 20
756.244167
 42
-0.024344
  0
VERTEX
  8
0
 10
773.562705
 20
756.800438
 42
0.040648
  0
VERTEX
  8
0
 10
780.574553
 20
757.681930
 42
0.305810
  0
VERTEX
  8
0
 10
782.787290
 20
759.959647
 42
0.167768
  0
VERTEX
  8
0
 10
782.145804
 20
764.063237
 42
0.013118
  0
VERTEX
  8
0
 10
776.619982
 20
773.855917
 42
-0.003439
  0
VERTEX
  8
0
 10
773.766142
 20
778.692242
 42
-0.002079
  0
VERTEX
  8
0
 10
770.449288
 20
784.457676
 42
-0.002083
  0
VERTEX
  8
0
 10
767.202847
 20
790.210979
 42
-0.003657
  0
VERTEX
  8
0
 10
764.572540
 20
795.000000
 42
0.003783
  0
VERTEX
  8
0
 10
762.312980
 20
799.111542
 42
0.005176
  0
VERTEX
  8
0
 10
760.212473
 20
802.776519
 42
0.003437
  0
VERTEX
  8
0
 10
758.399935
 20
805.816443
 42
0.059088
  0
VERTEX
  8
0
 10
757.688269
 20
806.728575
 42
0.432431
  0
VERTEX
  8
0
 10
756.569609
 20
806.699368
 42
0.016067
  0
VERTEX
  8
0
 10
753.561564
 20
803.100911
 42
0.013247
  0
VERTEX
  8
0
 10
749.012541
 20
796.960957
 42
0.002477
  0
SEQEND
  0
POLYLINE
  8
0
 66
1
 70
1
  0
VERTEX
  8
0
 10
859.800000
 20
693.800000
 42
-0.193340
  0
VERTEX
  8
0
 10
860.867309
 20
691.299527
 42
-0.004273
  0
VERTEX
  8
0
 10
861.040360
 20
677.903366
 42
-0.003599
  0
VERTEX
  8
0
 10
861.002056
 20
664.349061
 42
-0.257260
  0
VERTEX
  8
0
 10
859.936987
 20
662.461056
 42
-0.171059
  0
VERTEX
  8
0
 10
859.381152
 20
662.339829
 42
-0.059451
  0
VERTEX
  8
0
 10
858.573597
 20
662.539903
 42
-0.050626
  0
VERTEX
  8
0
 10
857.664913
 20
662.993272
 42
-0.040299
  0
VERTEX
  8
0
 10
856.788401
 20
663.652039
 42
-0.030444
  0
VERTEX
  8
0
 10
852.134990
 20
668.310440
 42
-0.004814
  0
VERTEX
  8
0
 10
843.659040
 20
678.084959
 42
-0.001446
  0
VERTEX
  8
0
 10
834.601465
 20
688.798306
 42
-0.176539
  0
VERTEX
  8
0
 10
834.000000
 20
690.448708
 42
-0.115887
  0
VERTEX
  8
0
 10
834.155362
 20
691.110022
 42
-0.044275
  0
VERTEX
  8
0
 10
834.652861
 20
691.921496
 42
-0.040839
  0
VERTEX
  8
0
 10
835.372125
 20
692.741396
 42
-0.039532
  0
VERTEX
  8
0
 10
836.222506
 20
693.443296
 42
-0.135282
  0
VERTEX
  8
0
 10
839.705977
 20
694.683690
 42
-0.014506
  0
VERTEX
  8
0
 10
848.352329
 20
695.065577
 42
-0.012428
  0
VERTEX
  8
0
 10
857.083490
 20
694.980647
 42
-0.189940
  0
SEQEND
  0
POLYLINE
  8
0
 66
1
 70
1
  0
VERTEX
  8
0
 10
860.771140
 20
619.750000
 42
-0.002216
  0
VERTEX
  8
0
 10
860.872861
 20
608.808203
 42
-0.016279
  0
VERTEX
  8
0
 10
860.728053
 20
603.579918
 42
-0.029598
  0
VERTEX
  8
0
 10
860.378572
 20
600.667429
 42
-0.362819
  0
VERTEX
  8
0
 10
859.579867
 20
600.000000
 42
-0.213634
  0
VERTEX
  8
0
 10
857.935841
 20
600.736034
 42
-0.013980
  0
VERTEX
  8
0
 10
854.493717
 20
604.814749
 42
-0.012958
  0
VERTEX
  8
0
 10
849.633709
 20
611.246623
 42
-0.003241
  0
VERTEX
  8
0
 10
842.042687
 20
622.000000
 42
-0.012516
  0
VERTEX
  8
0
 10
834.618209
 20
633.254047
 42
-0.230319
  0
VERTEX
  8
0
 10
834.180516
 20
637.391221
 42
-0.300842
  0
VERTEX
  8
0
 10
837.155322
 20
639.601474
 42
-0.019438
  0
VERTEX
  8
0
 10
848.478941
 20
639.778941
 42
0.000000
  0
VERTEX
  8
0
 10
860.500000
 20
639.500000
 42
0.000000
  0
SEQEND
  0
POLYLINE
  8
0
 66
1
 70
1
  0
VERTEX
  8
0
 10
578.056201
 20
599.425235
 42
0.046228
  0
VERTEX
  8
0
 10
579.477139
 20
594.785613
 42
0.034290
  0
VERTEX
  8
0
 10
581.849954
 20
589.973862
 42
0.029035
  0
VERTEX
  8
0
 10
585.279219
 20
584.793456
 42
0.017261
  0
VERTEX
  8
0
 10
589.918871
 20
579.024389
 42
-0.009676
  0
VERTEX
  8
0
 10
594.593439
 20
573.389107
 42
-0.022553
  0
VERTEX
  8
0
 10
597.814426
 20
568.953131
 42
-0.022729
  0
VERTEX
  8
0
 10
599.820597
 20
565.587142
 42
-0.330676
  0
VERTEX
  8
0
 10
599.629925
 20
564.296591
 42
-0.294791
  0
VERTEX
  8
0
 10
598.709089
 20
564.098343
 42
-0.001067
  0
VERTEX
  8
0
 10
587.848407
 20
568.228810
 42
-0.005643
  0
VERTEX
  8
0
 10
577.879118
 20
572.174190
 42
-0.017851
  0
VERTEX
  8
0
 10
571.334825
 20
575.126764
 42
-0.143732
  0
VERTEX
  8
0
 10
567.413781
 20
578.743384
 42
-0.151426
  0
VERTEX
  8
0
 10
566.170929
 20
583.829046
 42
-0.095881
  0
VERTEX
  8
0
 10
567.920127
 20
590.621088
 42
-0.035266
  0
VERTEX
  8
0
 10
572.807275
 20
599.281983
 42
-0.030890
  0
VERTEX
  8
0
 10
574.763966
 20
601.877358
 42
-0.212032
  0
VERTEX
  8
0
 10
576.173061
 20
602.549637
 42
-0.303409
  0
VERTEX
  8
0
 10
577.270585
 20
601.858672
 42
-0.053791
  0
SEQEND
  0
POLYLINE
  8
0
 66
1
 70
1
  0
VERTEX
  8
0
 10
783.363952
 20
591.786035
 42
-0.224534
  0
VERTEX
  8
0
 10
783.581557
 20
589.991630
 42
-0.080748
  0
VERTEX
  8
0
 10
782.357706
 20
587.653451
 42
-0.013767
  0
VERTEX
  8
0
 10
778.761878
 20
583.122975
 42
-0.000322
  0
VERTEX
  8
0
 10
761.255603
 20
562.299203
 42
-0.003343
  0
VERTEX
  8
0
 10
753.682185
 20
553.423500
 42
-0.004819
  0
VERTEX
  8
0
 10
746.854790
 20
545.681694
 42
-0.002608
  0
VERTEX
  8
0
 10
740.993887
 20
539.231539
 42
-0.075244
  0
VERTEX
  8
0
 10
739.255603
 20
537.832158
 42
-0.089670
  0
VERTEX
  8
0
 10
736.915375
 20
536.981260
 42
-0.020609
  0
VERTEX
  8
0
 10
732.730498
 20
536.439840
 42
-0.012887
  0
VERTEX
  8
0
 10
726.171253
 20
536.034783
 42
-0.002800
  0
VERTEX
  8
0
 10
714.834500
 20
535.691129
 42
-0.001665
  0
VERTEX
  8
0
 10
701.293039
 20
535.401626
 42
-0.019614
  0
VERTEX
  8
0
 10
696.027500
 20
535.513149
 42
-0.055021
  0
VERTEX
  8
0
 10
693.171550
 20
536.004365
 42
-0.139640
  0
VERTEX
  8
0
 10
691.402108
 20
537.108170
 42
-0.045027
  0
VERTEX
  8
0
 10
690.593602
 20
538.181543
 42
-0.092000
  0
VERTEX
  8
0
 10
690.211614
 20
539.160313
 42
-0.092868
  0
VERTEX
  8
0
 10
690.208059
 20
540.204845
 42
-0.046539
  0
VERTEX
  8
0
 10
690.567608
 20
541.480086
 42
-0.091950
  0
VERTEX
  8
0
 10
691.530865
 20
543.046947
 42
-0.002470
  0
VERTEX
  8
0
 10
697.007165
 20
549.050123
 42
-0.005068
  0
VERTEX
  8
0
 10
703.571535
 20
556.031672
 42
-0.003441
  0
VERTEX
  8
0
 10
711.180187
 20
563.852798
 42
0.004523
  0
VERTEX
  8
0
 10
718.868528
 20
571.790135
 42
0.006063
  0
VERTEX
  8
0
 10
725.685261
 20
579.132481
 42
0.004306
  0
VERTEX
  8
0
 10
731.256172
 20
585.388237
 42
0.061879
  0
VERTEX
  8
0
 10
732.923153
 20
587.849367
 42
-0.021609
  0
VERTEX
  8
0
 10
733.841970
 20
589.473053
 42
-0.021715
  0
VERTEX
  8
0
 10
734.896119
 20
591.008653
 42
-0.022149
  0
VERTEX
  8
0
 10
735.929636
 20
592.262670
 42
-0.076502
  0
VERTEX
  8
0
 10
736.742966
 20
592.926446
 42
-0.120003
  0
VERTEX
  8
0
 10
738.239963
 20
593.377940
 42
-0.005023
  0
VERTEX
  8
0
 10
743.843718
 20
593.624744
 42
-0.007541
  0
VERTEX
  8
0
 10
751.074162
 20
593.761314
 42
-0.003578
  0
VERTEX
  8
0
 10
760.391797
 20
593.730073
 42
-0.001972
  0
VERTEX
  8
0
 10
773.078593
 20
593.546702
 42
-0.016509
  0
VERTEX
  8
0
 10
778.805615
 20
593.252014
 42
-0.034884
  0
VERTEX
  8
0
 10
781.993173
 20
592.756678
 42
-0.198672
  0
SEQEND
  0
POLYLINE
  8
0
 66
1
 70
1
  0
VERTEX
  8
0
 10
860.500000
 20
550.083333
 42
-0.004394
  0
VERTEX
  8
0
 10
860.436115
 20
542.814547
 42
-0.009683
  0
VERTEX
  8
0
 10
860.230994
 20
537.264674
 42
-0.004666
  0
VERTEX
  8
0
 10
859.944625
 20
532.908233
 42
-0.304534
  0
VERTEX
  8
0
 10
859.500000
 20
532.342607
 42
-0.306261
  0
VERTEX
  8
0
 10
858.488252
 20
532.634636
 42
-0.010027
  0
VERTEX
  8
0
 10
855.718463
 20
536.092479
 42
-0.009194
  0
VERTEX
  8
0
 10
851.410061
 20
541.916478
 42
-0.001345
  0
VERTEX
  8
0
 10
842.920134
 20
553.913814
 42
-0.017799
  0
VERTEX
  8
0
 10
837.401456
 20
562.382172
 42
-0.258790
  0
VERTEX
  8
0
 10
837.279064
 20
565.829102
 42
-0.268905
  0
VERTEX
  8
0
 10
840.125708
 20
567.671583
 42
-0.018955
  0
VERTEX
  8
0
 10
849.981484
 20
567.781484
 42
0.000000
  0
VERTEX
  8
0
 10
860.500000
 20
567.500000
 42
0.000000
  0
SEQEND
  0
POLYLINE
  8
0
 66
1
 70
1
  0
VERTEX
  8
0
 10
657.744511
 20
548.676626
 42
-0.028367
  0
VERTEX
  8
0
 10
662.033497
 20
543.592920
 42
-0.046186
  0
VERTEX
  8
0
 10
664.990921
 20
538.788494
 42
-0.050673
  0
VERTEX
  8
0
 10
666.833913
 20
533.865558
 42
-0.044243
  0
VERTEX
  8
0
 10
667.756749
 20
528.441620
 42
-0.042340
  0
VERTEX
  8
0
 10
667.730984
 20
522.754420
 42
-0.092612
  0
VERTEX
  8
0
 10
666.557177
 20
518.575909
 42
-0.110022
  0
VERTEX
  8
0
 10
664.123742
 20
515.552613
 42
-0.077431
  0
VERTEX
  8
0
 10
660.320793
 20
513.378410
 42
0.049735
  0
VERTEX
  8
0
 10
656.896400
 20
511.663862
 42
0.086543
  0
VERTEX
  8
0
 10
654.548506
 20
509.536158
 42
0.108423
  0
VERTEX
  8
0
 10
653.387996
 20
507.108344
 42
0.119514
  0
VERTEX
  8
0
 10
653.408816
 20
504.507285
 42
-0.398333
  0
VERTEX
  8
0
 10
652.392724
 20
502.700239
 42
-0.235927
  0
VERTEX
  8
0
 10
649.752664
 20
503.134298
 42
-0.070505
  0
VERTEX
  8
0
 10
645.497913
 20
507.236216
 42
-0.067031
  0
VERTEX
  8
0
 10
642.463581
 20
512.426341
 42
-0.070228
  0
VERTEX
  8
0
 10
641.429482
 20
516.394029
 42
-0.066491
  0
VERTEX
  8
0
 10
641.504885
 20
520.570197
 42
-0.060400
  0
VERTEX
  8
0
 10
642.716395
 20
524.922410
 42
-0.043284
  0
VERTEX
  8
0
 10
645.044993
 20
529.409895
 42
0.019332
  0
VERTEX
  8
0
 10
648.019710
 20
534.527721
 42
0.041055
  0
VERTEX
  8
0
 10
649.827200
 20
538.734716
 42
0.048577
  0
VERTEX
  8
0
 10
650.740778
 20
542.696229
 42
0.040862
  0
VERTEX
  8
0
 10
650.947065
 20
547.000000
 42
-0.009356
  0
VERTEX
  8
0
 10
650.857752
 20
552.925550
 42
-0.344014
  0
VERTEX
  8
0
 10
651.643320
 20
553.924674
 42
-0.263040
  0
VERTEX
  8
0
 10
653.023704
 20
553.538777
 42
-0.006561
  0
SEQEND
  0
POLYLINE
  8
0
 66
1
 70
1
  0
VERTEX
  8
0
 10
765.853762
 20
516.676206
 42
-0.227385
  0
VERTEX
  8
0
 10
766.233718
 20
515.160114
 42
-0.237266
  0
VERTEX
  8
0
 10
765.282644
 20
513.953524
 42
-0.086538
  0
VERTEX
  8
0
 10
762.537619
 20
513.209429
 42
-0.023020
  0
VERTEX
  8
0
 10
757.991130
 20
513.000000
 42
0.016409
  0
VERTEX
  8
0
 10
755.282026
 20
512.911069
 42
0.021432
  0
VERTEX
  8
0
 10
752.817749
 20
512.642673
 42
0.021742
  0
VERTEX
  8
0
 10
750.819765
 20
512.248421
 42
0.107610
  0
VERTEX
  8
0
 10
749.795012
 20
511.750000
 42
0.061819
  0
VERTEX
  8
0
 10
748.789142
 20
510.733671
 42
0.001960
  0
VERTEX
  8
0
 10
745.253348
 20
506.109727
 42
0.003776
  0
VERTEX
  8
0
 10
741.139871
 20
500.600466
 42
0.002607
  0
VERTEX
  8
0
 10
736.562928
 20
494.304389
 42
-0.005161
  0
VERTEX
  8
0
 10
731.972912
 20
488.057673
 42
-0.007707
  0
VERTEX
  8
0
 10
727.821202
 20
482.701972
 42
-0.003818
  0
VERTEX
  8
0
 10
724.214255
 20
478.264160
 42
-0.144326
  0
VERTEX
  8
0
 10
723.156186
 20
477.549571
 42
-0.194811
  0
VERTEX
  8
0
 10
719.190462
 20
477.857415
 42
-0.028012
  0
VERTEX
  8
0
 10
711.985116
 20
481.966510
 42
-0.032254
  0
VERTEX
  8
0
 10
704.965983
 20
487.179248
 42
-0.074625
  0
VERTEX
  8
0
 10
700.654993
 20
492.108800
 42
0.000000
  0
VERTEX
  8
0
 10
698.809987
 20
494.989909
 42
0.000000
  0
VERTEX
  8
0
 10
708.491591
 20
505.939752
 42
-0.014371
  0
VERTEX
  8
0
 10
716.022552
 20
513.979328
 42
-0.119423
  0
VERTEX
  8
0
 10
720.245863
 20
516.577923
 42
-0.073000
  0
VERTEX
  8
0
 10
725.878413
 20
517.533955
 42
-0.003456
  0
VERTEX
  8
0
 10
745.127555
 20
517.831897
 42
-0.002919
  0
VERTEX
  8
0
 10
755.071965
 20
517.859004
 42
-0.013148
  0
VERTEX
  8
0
 10
760.881534
 20
517.688110
 42
-0.016274
  0
VERTEX
  8
0
 10
764.602413
 20
517.358899
 42
-0.191615
  0
SEQEND
  0
POLYLINE
  8
0
 66
1
 70
1
  0
VERTEX
  8
0
 10
619.703925
 20
494.729816
 42
-0.013045
  0
VERTEX
  8
0
 10
622.157699
 20
492.037263
 42
-0.011825
  0
VERTEX
  8
0
 10
624.551721
 20
489.132427
 42
-0.011936
  0
VERTEX
  8
0
 10
626.570526
 20
486.430983
 42
-0.036711
  0
VERTEX
  8
0
 10
627.752122
 20
484.479816
 42
-0.045196
  0
VERTEX
  8
0
 10
630.847646
 20
476.747497
 42
-0.041711
  0
VERTEX
  8
0
 10
632.606927
 20
468.374083
 42
-0.043886
  0
VERTEX
  8
0
 10
632.895444
 20
460.363327
 42
-0.072895
  0
VERTEX
  8
0
 10
631.573579
 20
453.748936
 42
0.000000
  0
VERTEX
  8
0
 10
630.234945
 20
449.997872
 42
0.000000
  0
VERTEX
  8
0
 10
635.070135
 20
446.448516
 42
-0.029423
  0
VERTEX
  8
0
 10
639.968912
 20
442.388417
 42
-0.026928
  0
VERTEX
  8
0
 10
644.512795
 20
437.665376
 42
-0.027369
  0
VERTEX
  8
0
 10
648.444553
 20
432.573134
 42
-0.033621
  0
VERTEX
  8
0
 10
651.509104
 20
427.408814
 42
-0.022009
  0
VERTEX
  8
0
 10
653.223473
 20
423.614088
 42
-0.053002
  0
VERTEX
  8
0
 10
654.057638
 20
420.650980
 42
-0.036143
  0
VERTEX
  8
0
 10
654.413240
 20
416.968029
 42
-0.005982
  0
VERTEX
  8
0
 10
654.499131
 20
409.833175
 42
-0.006650
  0
VERTEX
  8
0
 10
654.439207
 20
405.302149
 42
-0.009960
  0
VERTEX
  8
0
 10
654.255490
 20
401.349272
 42
-0.005341
  0
VERTEX
  8
0
 10
654.000528
 20
398.046534
 42
-0.176233
  0
VERTEX
  8
0
 10
653.668496
 20
397.335005
 42
-0.292132
  0
VERTEX
  8
0
 10
653.195895
 20
397.230880
 42
-0.069500
  0
VERTEX
  8
0
 10
652.450942
 20
397.628579
 42
-0.050232
  0
VERTEX
  8
0
 10
651.573786
 20
398.412806
 42
-0.029940
  0
VERTEX
  8
0
 10
650.691273
 20
399.501830
 42
0.033841
  0
VERTEX
  8
0
 10
645.003667
 20
406.409588
 42
0.029156
  0
VERTEX
  8
0
 10
638.160436
 20
412.862068
 42
0.028532
  0
VERTEX
  8
0
 10
630.446450
 20
418.613537
 42
0.028848
  0
VERTEX
  8
0
 10
622.155311
 20
423.426394
 42
0.033129
  0
VERTEX
  8
0
 10
616.346386
 20
425.896288
 42
0.006843
  0
VERTEX
  8
0
 10
605.797484
 20
429.416824
 42
0.007630
  0
VERTEX
  8
0
 10
594.379888
 20
432.863395
 42
0.012431
  0
VERTEX
  8
0
 10
584.581379
 20
435.397190
 42
-0.004573
  0
VERTEX
  8
0
 10
581.896437
 20
436.046655
 42
-0.006790
  0
VERTEX
  8
0
 10
579.558221
 20
436.668817
 42
-0.003346
  0
VERTEX
  8
0
 10
577.592317
 20
437.234824
 42
-0.125243
  0
VERTEX
  8
0
 10
577.196777
 20
437.469890
 42
-0.341968
  0
VERTEX
  8
0
 10
576.954146
 20
439.379288
 42
-0.029406
  0
VERTEX
  8
0
 10
579.881768
 20
443.738516
 42
-0.025491
  0
VERTEX
  8
0
 10
584.785150
 20
449.546209
 42
-0.010203
  0
VERTEX
  8
0
 10
592.049792
 20
457.000000
 42
0.007569
  0
VERTEX
  8
0
 10
597.189329
 20
462.218069
 42
0.009759
  0
VERTEX
  8
0
 10
601.741384
 20
467.171870
 42
0.009257
  0
VERTEX
  8
0
 10
605.354240
 20
471.416833
 42
0.054588
  0
VERTEX
  8
0
 10
606.947000
 20
473.860971
 42
0.043787
  0
VERTEX
  8
0
 10
609.005800
 20
479.001216
 42
0.024177
  0
VERTEX
  8
0
 10
610.648914
 20
485.570337
 42
0.023968
  0
VERTEX
  8
0
 10
611.619547
 20
492.043968
 42
0.062216
  0
VERTEX
  8
0
 10
611.509541
 20
496.750000
 42
-0.060604
  0
VERTEX
  8
0
 10
611.421864
 20
500.047351
 42
-0.458026
  0
VERTEX
  8
0
 10
612.538857
 20
500.840244
 42
-0.130807
  0
VERTEX
  8
0
 10
614.842050
 20
499.576467
 42
-0.010922
  0
SEQEND
  0
POLYLINE
  8
0
 66
1
 70
1
  0
VERTEX
  8
0
 10
859.800000
 20
495.800000
 42
-0.154505
  0
VERTEX
  8
0
 10
860.337578
 20
494.764406
 42
-0.018141
  0
VERTEX
  8
0
 10
860.694444
 20
492.155556
 42
-0.017348
  0
VERTEX
  8
0
 10
860.927779
 20
488.569501
 42
-0.007571
  0
VERTEX
  8
0
 10
861.000000
 20
483.800000
 42
-0.003681
  0
VERTEX
  8
0
 10
860.952216
 20
477.310036
 42
-0.039371
  0
VERTEX
  8
0
 10
860.706538
 20
474.688040
 42
-0.133659
  0
VERTEX
  8
0
 10
860.135903
 20
473.469207
 42
-0.220258
  0
VERTEX
  8
0
 10
859.122445
 20
473.000000
 42
-0.070755
  0
VERTEX
  8
0
 10
858.307235
 20
473.115941
 42
-0.044600
  0
VERTEX
  8
0
 10
857.409898
 20
473.465733
 42
-0.043977
  0
VERTEX
  8
0
 10
856.570914
 20
473.978654
 42
-0.060434
  0
VERTEX
  8
0
 10
855.929064
 20
474.585473
 42
0.062602
  0
VERTEX
  8
0
 10
855.169058
 20
475.297806
 42
0.020475
  0
VERTEX
  8
0
 10
853.888081
 20
476.150019
 42
0.020039
  0
VERTEX
  8
0
 10
852.374134
 20
476.988980
 42
0.021339
  0
VERTEX
  8
0
 10
850.828791
 20
477.685181
 42
-0.088634
  0
VERTEX
  8
0
 10
847.786374
 20
479.581692
 42
-0.032437
  0
VERTEX
  8
0
 10
844.237152
 20
483.229344
 42
-0.032536
  0
VERTEX
  8
0
 10
841.028853
 20
487.522067
 42
-0.053414
  0
VERTEX
  8
0
 10
838.976323
 20
491.562276
 42
-0.045823
  0
VERTEX
  8
0
 10
838.601540
 20
492.907358
 42
-0.155045
  0
VERTEX
  8
0
 10
838.716061
 20
493.800805
 42
-0.131227
  0
VERTEX
  8
0
 10
839.344166
 20
494.552467
 42
-0.029136
  0
VERTEX
  8
0
 10
840.780765
 20
495.444144
 42
-0.098511
  0
VERTEX
  8
0
 10
844.382940
 20
496.561772
 42
-0.021441
  0
VERTEX
  8
0
 10
850.906862
 20
496.964044
 42
-0.017476
  0
VERTEX
  8
0
 10
857.419345
 20
496.858267
 42
-0.185642
  0
SEQEND
  0
POLYLINE
  8
0
 66
1
 70
1
  0
VERTEX
  8
0
 10
683.044922
 20
488.240792
 42
-0.054456
  0
VERTEX
  8
0
 10
687.030827
 20
483.277280
 42
-0.066979
  0
VERTEX
  8
0
 10
689.526989
 20
477.891901
 42
-0.061294
  0
VERTEX
  8
0
 10
690.647419
 20
471.658162
 42
-0.036792
  0
VERTEX
  8
0
 10
690.510772
 20
464.128961
 42
-0.023283
  0
VERTEX
  8
0
 10
689.794103
 20
458.978309
 42
-0.069550
  0
VERTEX
  8
0
 10
688.665047
 20
455.612876
 42
-0.117125
  0
VERTEX
  8
0
 10
687.067916
 20
453.700258
 42
-0.161856
  0
VERTEX
  8
0
 10
684.961375
 20
453.000000
 42
0.183301
  0
VERTEX
  8
0
 10
683.039898
 20
452.271091
 42
0.022015
  0
VERTEX
  8
0
 10
679.722912
 20
449.060004
 42
0.026793
  0
VERTEX
  8
0
 10
676.628085
 20
445.415547
 42
0.071905
  0
VERTEX
  8
0
 10
674.980124
 20
442.447723
 42
-0.340642
  0
VERTEX
  8
0
 10
672.060958
 20
440.654562
 42
-0.180840
  0
VERTEX
  8
0
 10
668.045180
 20
442.662182
 42
-0.092938
  0
VERTEX
  8
0
 10
664.342489
 20
448.515330
 42
-0.093501
  0
VERTEX
  8
0
 10
663.021962
 20
455.299660
 42
-0.060022
  0
VERTEX
  8
0
 10
663.412738
 20
458.709043
 42
-0.052105
  0
VERTEX
  8
0
 10
664.606728
 20
462.104523
 42
-0.038618
  0
VERTEX
  8
0
 10
666.826624
 20
465.986609
 42
-0.015024
  0
VERTEX
  8
0
 10
670.456622
 20
471.000000
 42
0.005542
  0
VERTEX
  8
0
 10
672.165832
 20
473.268748
 42
0.005827
  0
VERTEX
  8
0
 10
673.795528
 20
475.537494
 42
0.005599
  0
VERTEX
  8
0
 10
675.156256
 20
477.526175
 42
0.025886
  0
VERTEX
  8
0
 10
675.869202
 20
478.723383
 42
0.072011
  0
VERTEX
  8
0
 10
676.753807
 20
481.211653
 42
0.033039
  0
VERTEX
  8
0
 10
677.207134
 20
484.632611
 42
0.033051
  0
VERTEX
  8
0
 10
677.205800
 20
488.101498
 42
0.068419
  0
VERTEX
  8
0
 10
676.660404
 20
490.750000
 42
-0.142406
  0
VERTEX
  8
0
 10
676.567430
 20
492.385041
 42
-0.458367
  0
VERTEX
  8
0
 10
677.410080
 20
492.829221
 42
-0.087518
  0
VERTEX
  8
0
 10
679.569258
 20
491.508208
 42
-0.015438
  0
SEQEND
  0
POLYLINE
  8
0
 66
1
 70
1
  0
VERTEX
  8
0
 10
844.418996
 20
473.055732
 42
-0.041691
  0
VERTEX
  8
0
 10
849.719696
 20
468.716650
 42
-0.017327
  0
VERTEX
  8
0
 10
856.144140
 20
462.049235
 42
-0.017271
  0
VERTEX
  8
0
 10
862.068980
 20
454.981412
 42
-0.043702
  0
VERTEX
  8
0
 10
865.717029
 20
449.361544
 42
-0.047183
  0
VERTEX
  8
0
 10
869.707195
 20
439.767117
 42
-0.052398
  0
VERTEX
  8
0
 10
871.652152
 20
429.926348
 42
-0.057045
  0
VERTEX
  8
0
 10
871.435456
 20
420.722541
 42
-0.083842
  0
VERTEX
  8
0
 10
869.012268
 20
413.020184
 42
-0.032598
  0
VERTEX
  8
0
 10
867.740271
 20
410.884958
 42
-0.012522
  0
VERTEX
  8
0
 10
865.711652
 20
408.087885
 42
-0.012336
  0
VERTEX
  8
0
 10
863.352268
 20
405.153452
 42
-0.014856
  0
VERTEX
  8
0
 10
860.988224
 20
402.520184
 42
0.018963
  0
VERTEX
  8
0
 10
856.218519
 20
397.118715
 42
0.060819
  0
VERTEX
  8
0
 10
853.656702
 20
393.068246
 42
0.073481
  0
VERTEX
  8
0
 10
852.403731
 20
388.956205
 42
0.037285
  0
VERTEX
  8
0
 10
852.000000
 20
383.549660
 42
-0.009711
  0
VERTEX
  8
0
 10
851.936485
 20
380.279632
 42
-0.044169
  0
VERTEX
  8
0
 10
851.695301
 20
378.392608
 42
-0.095153
  0
VERTEX
  8
0
 10
851.254591
 20
377.364982
 42
-0.248941
  0
VERTEX
  8
0
 10
850.566950
 20
377.000000
 42
-0.214600
  0
VERTEX
  8
0
 10
848.538675
 20
377.912562
 42
-0.024694
  0
VERTEX
  8
0
 10
845.333083
 20
381.910513
 42
-0.027395
  0
VERTEX
  8
0
 10
841.969827
 20
387.138201
 42
-0.023142
  0
VERTEX
  8
0
 10
838.987528
 20
393.000000
 42
-0.014016
  0
VERTEX
  8
0
 10
837.126096
 20
397.448132
 42
-0.039778
  0
VERTEX
  8
0
 10
836.169266
 20
400.668786
 42
-0.039001
  0
VERTEX
  8
0
 10
835.724644
 20
404.035352
 42
-0.013058
  0
VERTEX
  8
0
 10
835.589408
 20
409.000000
 42
-0.012729
  0
VERTEX
  8
0
 10
835.705362
 20
413.763661
 42
-0.034120
  0
VERTEX
  8
0
 10
836.104602
 20
417.131146
 42
-0.037674
  0
VERTEX
  8
0
 10
836.931154
 20
420.219175
 42
-0.018629
  0
VERTEX
  8
0
 10
838.415452
 20
424.000000
 42
0.005674
  0
VERTEX
  8
0
 10
839.681260
 20
426.993881
 42
0.003214
  0
VERTEX
  8
0
 10
841.149758
 20
430.646875
 42
0.003208
  0
VERTEX
  8
0
 10
842.582827
 20
434.348428
 42
0.005275
  0
VERTEX
  8
0
 10
843.741878
 20
437.500000
 42
0.047189
  0
VERTEX
  8
0
 10
845.470132
 20
444.338023
 42
0.055893
  0
VERTEX
  8
0
 10
845.747063
 20
450.994634
 42
0.049889
  0
VERTEX
  8
0
 10
844.523183
 20
458.133567
 42
0.028091
  0
VERTEX
  8
0
 10
841.707947
 20
466.470775
 42
-0.005499
  0
VERTEX
  8
0
 10
838.891779
 20
473.713892
 42
-0.189826
  0
VERTEX
  8
0
 10
838.919406
 20
475.511607
 42
-0.458946
  0
VERTEX
  8
0
 10
840.030428
 20
475.879424
 42
-0.015453
  0
SEQEND
  0
POLYLINE
  8
0
 66
1
 70
1
  0
VERTEX
  8
0
 10
730.000000
 20
448.929406
 42
-0.138624
  0
VERTEX
  8
0
 10
729.819482
 20
448.290812
 42
-0.011007
  0
VERTEX
  8
0
 10
728.856773
 20
446.798724
 42
-0.014258
  0
VERTEX
  8
0
 10
727.598873
 20
445.049814
 42
-0.010432
  0
VERTEX
  8
0
 10
726.108165
 20
443.179406
 42
0.043878
  0
VERTEX
  8
0
 10
720.344938
 20
434.864095
 42
0.098325
  0
VERTEX
  8
0
 10
717.921125
 20
427.607182
 42
0.096490
  0
VERTEX
  8
0
 10
718.431834
 20
419.886829
 42
0.041184
  0
VERTEX
  8
0
 10
721.905619
 20
410.090315
 42
-0.011111
  0
VERTEX
  8
0
 10
724.237947
 20
404.587074
 42
-0.033270
  0
VERTEX
  8
0
 10
725.492013
 20
400.700581
 42
-0.034081
  0
VERTEX
  8
0
 10
726.203636
 20
396.733032
 42
-0.012123
  0
VERTEX
  8
0
 10
726.693499
 20
390.990086
 42
-0.005986
  0
VERTEX
  8
0
 10
727.145279
 20
381.753815
 42
-0.170692
  0
VERTEX
  8
0
 10
726.447313
 20
379.507221
 42
-0.431454
  0
VERTEX
  8
0
 10
724.921018
 20
379.328139
 42
-0.021890
  0
VERTEX
  8
0
 10
720.817490
 20
383.087272
 42
0.017604
  0
VERTEX
  8
0
 10
718.345836
 20
385.390754
 42
0.009811
  0
VERTEX
  8
0
 10
715.185617
 20
388.027649
 42
0.009777
  0
VERTEX
  8
0
 10
711.880209
 20
390.572890
 42
0.015614
  0
VERTEX
  8
0
 10
708.949336
 20
392.601395
 42
-0.023572
  0
VERTEX
  8
0
 10
703.233309
 20
396.693566
 42
-0.049011
  0
VERTEX
  8
0
 10
699.287793
 20
400.491971
 42
-0.059808
  0
VERTEX
  8
0
 10
696.664455
 20
404.435747
 42
-0.058079
  0
VERTEX
  8
0
 10
695.017518
 20
408.926978
 42
-0.111052
  0
VERTEX
  8
0
 10
694.849182
 20
420.739356
 42
-0.095864
  0
VERTEX
  8
0
 10
699.667771
 20
432.197286
 42
-0.089058
  0
VERTEX
  8
0
 10
708.817371
 20
441.692103
 42
-0.080110
  0
VERTEX
  8
0
 10
721.028730
 20
447.839636
 42
-0.005518
  0
VERTEX
  8
0
 10
725.940411
 20
449.334658
 42
-0.040911
  0
VERTEX
  8
0
 10
728.333222
 20
449.826331
 42
-0.132586
  0
VERTEX
  8
0
 10
729.522018
 20
449.655465
 42
-0.299614
  0
SEQEND
  0
POLYLINE
  8
0
 66
1
 70
1
  0
VERTEX
  8
0
 10
668.281545
 20
383.912349
 42
-0.024940
  0
VERTEX
  8
0
 10
677.324656
 20
380.365638
 42
-0.032921
  0
VERTEX
  8
0
 10
685.135980
 20
376.204668
 42
-0.032948
  0
VERTEX
  8
0
 10
692.328591
 20
371.057369
 42
-0.025045
  0
VERTEX
  8
0
 10
699.507990
 20
364.540065
 42
-0.018718
  0
VERTEX
  8
0
 10
706.109265
 20
357.399725
 42
-0.040496
  0
VERTEX
  8
0
 10
710.498562
 20
351.351908
 42
-0.045027
  0
VERTEX
  8
0
 10
713.571364
 20
345.100696
 42
-0.029129
  0
VERTEX
  8
0
 10
716.021852
 20
337.414560
 42
-0.036385
  0
VERTEX
  8
0
 10
717.537316
 20
328.973939
 42
-0.040273
  0
VERTEX
  8
0
 10
717.739627
 20
320.687666
 42
-0.043225
  0
VERTEX
  8
0
 10
716.646952
 20
313.071161
 42
-0.060922
  0
VERTEX
  8
0
 10
714.293569
 20
306.635641
 42
-0.050876
  0
VERTEX
  8
0
 10
712.137190
 20
303.300388
 42
-0.020544
  0
VERTEX
  8
0
 10
708.572688
 20
299.209005
 42
-0.020674
  0
VERTEX
  8
0
 10
704.633927
 20
295.376801
 42
-0.044221
  0
VERTEX
  8
0
 10
701.238387
 20
292.838314
 42
-0.009589
  0
VERTEX
  8
0
 10
698.983831
 20
291.503983
 42
-0.113140
  0
VERTEX
  8
0
 10
698.014453
 20
291.214817
 42
-0.208705
  0
VERTEX
  8
0
 10
697.276211
 20
291.481729
 42
-0.045279
  0
VERTEX
  8
0
 10
696.359649
 20
292.522828
 42
-0.056627
  0
VERTEX
  8
0
 10
695.838192
 20
293.437303
 42
-0.030433
  0
VERTEX
  8
0
 10
695.399397
 20
294.661157
 42
-0.029884
  0
VERTEX
  8
0
 10
695.099523
 20
295.979481
 42
-0.041000
  0
VERTEX
  8
0
 10
695.000000
 20
297.191130
 42
0.049692
  0
VERTEX
  8
0
 10
694.783333
 20
299.365840
 42
0.450604
  0
VERTEX
  8
0
 10
694.052977
 20
299.789344
 42
0.156649
  0
VERTEX
  8
0
 10
692.868586
 20
298.922142
 42
0.013190
  0
VERTEX
  8
0
 10
690.697178
 20
295.759331
 42
0.039054
  0
VERTEX
  8
0
 10
688.269056
 20
291.284839
 42
0.050616
  0
VERTEX
  8
0
 10
686.810395
 20
286.853143
 42
0.045884
  0
VERTEX
  8
0
 10
686.185655
 20
281.886235
 42
0.025160
  0
VERTEX
  8
0
 10
686.289305
 20
275.750000
 42
-0.011538
  0
VERTEX
  8
0
 10
686.553086
 20
269.775746
 42
-0.249025
  0
VERTEX
  8
0
 10
685.785496
 20
268.253617
 42
-0.348385
  0
VERTEX
  8
0
 10
684.332699
 20
268.333408
 42
-0.017993
  0
VERTEX
  8
0
 10
680.699102
 20
271.796101
 42
-0.055892
  0
VERTEX
  8
0
 10
676.229347
 20
277.533638
 42
-0.045203
  0
VERTEX
  8
0
 10
672.762524
 20
284.534231
 42
-0.042041
  0
VERTEX
  8
0
 10
670.405545
 20
292.566167
 42
-0.035181
  0
VERTEX
  8
0
 10
669.244166
 20
301.375963
 42
-0.031454
  0
VERTEX
  8
0
 10
669.257218
 20
307.454974
 42
-0.045246
  0
VERTEX
  8
0
 10
670.090070
 20
312.768932
 42
-0.035054
  0
VERTEX
  8
0
 10
672.048503
 20
318.759337
 42
-0.011398
  0
VERTEX
  8
0
 10
675.752581
 20
327.308587
 42
0.007725
  0
VERTEX
  8
0
 10
678.569225
 20
333.680887
 42
0.039971
  0
VERTEX
  8
0
 10
679.783106
 20
337.333570
 42
0.046633
  0
VERTEX
  8
0
 10
680.311300
 20
340.882531
 42
0.012901
  0
VERTEX
  8
0
 10
680.473430
 20
346.521027
 42
0.010627
  0
VERTEX
  8
0
 10
680.374562
 20
351.920702
 42
0.042231
  0
VERTEX
  8
0
 10
679.964937
 20
355.207872
 42
0.046977
  0
VERTEX
  8
0
 10
679.030000
 20
358.206123
 42
0.015329
  0
VERTEX
  8
0
 10
677.109593
 20
362.428950
 42
0.025984
  0
VERTEX
  8
0
 10
675.187386
 20
365.870055
 42
0.018407
  0
VERTEX
  8
0
 10
672.695694
 20
369.526337
 42
0.017134
  0
VERTEX
  8
0
 10
669.725839
 20
373.280616
 42
0.014766
  0
VERTEX
  8
0
 10
666.359593
 20
377.019045
 42
-0.003872
  0
VERTEX
  8
0
 10
663.538687
 20
380.017807
 42
-0.006049
  0
VERTEX
  8
0
 10
661.161880
 20
382.647100
 42
-0.002094
  0
VERTEX
  8
0
 10
659.158059
 20
384.937693
 42
-0.180557
  0
VERTEX
  8
0
 10
659.000000
 20
385.361122
 42
-0.392562
  0
VERTEX
  8
0
 10
659.530473
 20
385.932656
 42
-0.057395
  0
VERTEX
  8
0
 10
661.261107
 20
385.863085
 42
-0.032563
  0
VERTEX
  8
0
 10
664.077515
 20
385.233441
 42
-0.009712
  0
SEQEND
  0
POLYLINE
  8
0
 66
1
 70
1
  0
VERTEX
  8
0
 10
508.454545
 20
789.545455
 42
0.068913
  0
VERTEX
  8
0
 10
507.057037
 20
787.698662
 42
0.086790
  0
VERTEX
  8
0
 10
506.349068
 20
785.678219
 42
0.037217
  0
VERTEX
  8
0
 10
506.058358
 20
782.438280
 42
0.003772
  0
VERTEX
  8
0
 10
506.000000
 20
774.702738
 42
-0.005350
  0
VERTEX
  8
0
 10
505.923154
 20
767.520844
 42
-0.029031
  0
VERTEX
  8
0
 10
505.614161
 20
763.639648
 42
-0.048981
  0
VERTEX
  8
0
 10
504.936076
 20
760.812181
 42
-0.038012
  0
VERTEX
  8
0
 10
503.676115
 20
757.907284
 42
-0.037923
  0
VERTEX
  8
0
 10
502.442584
 20
755.944327
 42
-0.025707
  0
VERTEX
  8
0
 10
500.764307
 20
753.903642
 42
-0.025481
  0
VERTEX
  8
0
 10
498.860005
 20
752.019094
 42
-0.034023
  0
VERTEX
  8
0
 10
496.940848
 20
750.525896
 42
-0.030557
  0
VERTEX
  8
0
 10
494.096052
 20
748.851060
 42
-0.061725
  0
VERTEX
  8
0
 10
491.654810
 20
747.966273
 42
-0.040847
  0
VERTEX
  8
0
 10
488.484941
 20
747.510626
 42
-0.007324
  0
VERTEX
  8
0
 10
482.514733
 20
747.232996
 42
0.005678
  0
VERTEX
  8
0
 10
473.997514
 20
746.865019
 42
0.050569
  0
VERTEX
  8
0
 10
470.295987
 20
746.284432
 42
0.118151
  0
VERTEX
  8
0
 10
468.148796
 20
745.134047
 42
0.091879
  0
VERTEX
  8
0
 10
466.518189
 20
743.035173
 42
0.032294
  0
VERTEX
  8
0
 10
465.387920
 20
740.453620
 42
0.099337
  0
VERTEX
  8
0
 10
465.104098
 20
738.576851
 42
0.111695
  0
VERTEX
  8
0
 10
465.578864
 20
736.864072
 42
0.046896
  0
VERTEX
  8
0
 10
466.910316
 20
734.860784
 42
0.085982
  0
VERTEX
  8
0
 10
468.418950
 20
733.540445
 42
0.083035
  0
VERTEX
  8
0
 10
470.301765
 20
732.784702
 42
0.037252
  0
VERTEX
  8
0
 10
473.404519
 20
732.342571
 42
0.004710
  0
VERTEX
  8
0
 10
480.163992
 20
731.952426
 42
-0.022089
  0
VERTEX
  8
0
 10
488.830996
 20
731.149264
 42
-0.063582
  0
VERTEX
  8
0
 10
494.648932
 20
729.579312
 42
-0.083151
  0
VERTEX
  8
0
 10
498.970058
 20
726.891304
 42
-0.060668
  0
VERTEX
  8
0
 10
502.736256
 20
722.659127
 42
-0.038235
  0
VERTEX
  8
0
 10
504.274560
 20
720.031168
 42
-0.059471
  0
VERTEX
  8
0
 10
505.135109
 20
717.554015
 42
-0.036086
  0
VERTEX
  8
0
 10
505.624272
 20
714.166471
 42
-0.006377
  0
VERTEX
  8
0
 10
506.000000
 20
707.752866
 42
0.005437
  0
VERTEX
  8
0
 10
506.343177
 20
701.700053
 42
0.031976
  0
VERTEX
  8
0
 10
506.759886
 20
698.547991
 42
0.065702
  0
VERTEX
  8
0
 10
507.401219
 20
696.654558
 42
0.121167
  0
VERTEX
  8
0
 10
508.441130
 20
695.417323
 42
0.095321
  0
VERTEX
  8
0
 10
510.849411
 20
694.281755
 42
0.088438
  0
VERTEX
  8
0
 10
513.573819
 20
694.079438
 42
0.086280
  0
VERTEX
  8
0
 10
516.257447
 20
694.834961
 42
0.084912
  0
VERTEX
  8
0
 10
518.545455
 20
696.454545
 42
0.058245
  0
VERTEX
  8
0
 10
519.902137
 20
698.170362
 42
0.085952
  0
VERTEX
  8
0
 10
520.614802
 20
699.948460
 42
0.045789
  0
VERTEX
  8
0
 10
520.927917
 20
702.585105
 42
0.006672
  0
VERTEX
  8
0
 10
521.000000
 20
707.986664
 42
-0.021102
  0
VERTEX
  8
0
 10
521.298426
 20
715.054654
 42
-0.062804
  0
VERTEX
  8
0
 10
522.306122
 20
719.786236
 42
-0.081400
  0
VERTEX
  8
0
 10
524.273909
 20
723.407830
 42
-0.055371
  0
VERTEX
  8
0
 10
527.547857
 20
726.778835
 42
-0.062344
  0
VERTEX
  8
0
 10
531.307667
 20
729.161513
 42
-0.049329
  0
VERTEX
  8
0
 10
535.846341
 20
730.775913
 42
-0.039990
  0
VERTEX
  8
0
 10
541.478300
 20
731.703461
 42
-0.020826
  0
VERTEX
  8
0
 10
548.594676
 20
732.000000
 42
0.009672
  0
VERTEX
  8
0
 10
552.900984
 20
732.083311
 42
0.050832
  0
VERTEX
  8
0
 10
555.241122
 20
732.413719
 42
0.082834
  0
VERTEX
  8
0
 10
556.905785
 20
733.131562
 42
0.053295
  0
VERTEX
  8
0
 10
558.545455
 20
734.454545
 42
0.046014
  0
VERTEX
  8
0
 10
559.484854
 20
735.584818
 42
0.037190
  0
VERTEX
  8
0
 10
560.278977
 20
736.949148
 42
0.038507
  0
VERTEX
  8
0
 10
560.823919
 20
738.330305
 42
0.074846
  0
VERTEX
  8
0
 10
561.000000
 20
739.500000
 42
0.074846
  0
VERTEX
  8
0
 10
560.823919
 20
740.669695
 42
0.038507
  0
VERTEX
  8
0
 10
560.278977
 20
742.050852
 42
0.037190
  0
VERTEX
  8
0
 10
559.484854
 20
743.415182
 42
0.046014
  0
VERTEX
  8
0
 10
558.545455
 20
744.545455
 42
0.059852
  0
VERTEX
  8
0
 10
556.807945
 20
745.910270
 42
0.086474
  0
VERTEX
  8
0
 10
554.993556
 20
746.621860
 42
0.044310
  0
VERTEX
  8
0
 10
552.264619
 20
746.930654
 42
0.006029
  0
VERTEX
  8
0
 10
546.513336
 20
747.000000
 42
-0.029229
  0
VERTEX
  8
0
 10
537.320222
 20
747.537878
 42
-0.086275
  0
VERTEX
  8
0
 10
531.275707
 20
749.335116
 42
-0.107240
  0
VERTEX
  8
0
 10
526.949722
 20
752.796306
 42
-0.060880
  0
VERTEX
  8
0
 10
523.368034
 20
758.500000
 42
-0.030489
  0
VERTEX
  8
0
 10
522.133699
 20
761.606993
 42
-0.042058
  0
VERTEX
  8
0
 10
521.440476
 20
764.526450
 42
-0.029437
  0
VERTEX
  8
0
 10
521.106275
 20
768.221163
 42
-0.007610
  0
VERTEX
  8
0
 10
521.009769
 20
774.202947
 42
0.012986
  0
VERTEX
  8
0
 10
520.805503
 20
781.799381
 42
0.055022
  0
VERTEX
  8
0
 10
520.069215
 20
786.282382
 42
0.098859
  0
VERTEX
  8
0
 10
518.649969
 20
789.077768
 42
0.119665
  0
VERTEX
  8
0
 10
516.342675
 20
790.889728
 42
0.040947
  0
VERTEX
  8
0
 10
513.905829
 20
791.767330
 42
0.108580
  0
VERTEX
  8
0
 10
512.066722
 20
791.854785
 42
0.110880
  0
VERTEX
  8
0
 10
510.383760
 20
791.163677
 42
0.043749
  0
SEQEND
  0
POLYLINE
  8
0
 66
1
 70
1
  0
VERTEX
  8
0
 10
439.000000
 20
697.460162
 42
0.120894
  0
VERTEX
  8
0
 10
439.344907
 20
696.054527
 42
0.009696
  0
VERTEX
  8
0
 10
441.190932
 20
692.680468
 42
0.010143
  0
VERTEX
  8
0
 10
443.163520
 20
689.391989
 42
0.110796
  0
VERTEX
  8
0
 10
444.242966
 20
688.303627
 42
-0.050070
  0
VERTEX
  8
0
 10
446.085595
 20
686.847166
 42
-0.089834
  0
VERTEX
  8
0
 10
447.206707
 20
685.285643
 42
-0.124278
  0
VERTEX
  8
0
 10
447.503709
 20
683.791381
 42
-0.161800
  0
VERTEX
  8
0
 10
447.000000
 20
682.500000
 42
-0.149173
  0
VERTEX
  8
0
 10
445.864691
 20
681.753078
 42
-0.040739
  0
VERTEX
  8
0
 10
443.740589
 20
681.312953
 42
-0.024711
  0
VERTEX
  8
0
 10
440.393754
 20
681.066626
 42
-0.006014
  0
VERTEX
  8
0
 10
434.854502
 20
681.000000
 42
0.000000
  0
VERTEX
  8
0
 10
423.953894
 20
681.000000
 42
0.000000
  0
VERTEX
  8
0
 10
425.659089
 20
678.250000
 42
0.012423
  0
VERTEX
  8
0
 10
426.467308
 20
677.016102
 42
0.007214
  0
VERTEX
  8
0
 10
427.495415
 20
675.573437
 42
0.007208
  0
VERTEX
  8
0
 10
428.568308
 20
674.156257
 42
0.012055
  0
VERTEX
  8
0
 10
429.515881
 20
673.000000
 42
-0.018741
  0
VERTEX
  8
0
 10
430.493620
 20
671.773859
 42
-0.008801
  0
VERTEX
  8
0
 10
431.668927
 20
670.120867
 42
-0.008706
  0
VERTEX
  8
0
 10
432.841257
 20
668.343435
 42
-0.012104
  0
VERTEX
  8
0
 10
433.824006
 20
666.709336
 42
0.026242
  0
VERTEX
  8
0
 10
435.146907
 20
664.644122
 42
0.005249
  0
VERTEX
  8
0
 10
437.734559
 20
661.115010
 42
0.005536
  0
VERTEX
  8
0
 10
440.838436
 20
657.067896
 42
0.005139
  0
VERTEX
  8
0
 10
444.108211
 20
652.987883
 42
-0.008608
  0
VERTEX
  8
0
 10
450.631461
 20
644.731455
 42
-0.171979
  0
VERTEX
  8
0
 10
451.599353
 20
641.718411
 42
-0.389445
  0
VERTEX
  8
0
 10
450.078364
 20
640.157836
 42
-0.030303
  0
VERTEX
  8
0
 10
443.726674
 20
640.190185
 42
0.009475
  0
VERTEX
  8
0
 10
440.751230
 20
640.329332
 42
0.009612
  0
VERTEX
  8
0
 10
437.786899
 20
640.354703
 42
0.009442
  0
VERTEX
  8
0
 10
435.209537
 20
640.278522
 42
0.038408
  0
VERTEX
  8
0
 10
433.654257
 20
640.082759
 42
0.000000
  0
VERTEX
  8
0
 10
430.808515
 20
639.500000
 42
0.000000
  0
VERTEX
  8
0
 10
435.558512
 20
632.500000
 42
0.009200
  0
VERTEX
  8
0
 10
437.769143
 20
629.367843
 42
0.005511
  0
VERTEX
  8
0
 10
440.504215
 20
625.725022
 42
0.005517
  0
VERTEX
  8
0
 10
443.307116
 20
622.158480
 42
0.009553
  0
VERTEX
  8
0
 10
445.724742
 20
619.266031
 42
0.000000
  0
VERTEX
  8
0
 10
451.140974
 20
613.032063
 42
0.000000
  0
VERTEX
  8
0
 10
454.820487
 20
614.657592
 42
-0.026901
  0
VERTEX
  8
0
 10
461.661388
 20
617.249784
 42
-0.006192
  0
VERTEX
  8
0
 10
473.467752
 20
620.850702
 42
-0.005534
  0
VERTEX
  8
0
 10
488.789090
 20
625.133649
 42
-0.002983
  0
VERTEX
  8
0
 10
507.756692
 20
630.089151
 42
0.002213
  0
VERTEX
  8
0
 10
529.366563
 20
635.699433
 42
0.010563
  0
VERTEX
  8
0
 10
541.621594
 20
639.217577
 42
0.018162
  0
VERTEX
  8
0
 10
549.475746
 20
641.969436
 42
0.050602
  0
VERTEX
  8
0
 10
554.666673
 20
644.635319
 42
0.069488
  0
VERTEX
  8
0
 10
559.252448
 20
648.611438
 42
0.159873
  0
VERTEX
  8
0
 10
561.012783
 20
652.767275
 42
0.156936
  0
VERTEX
  8
0
 10
559.982684
 20
657.212208
 42
0.066280
  0
VERTEX
  8
0
 10
556.127257
 20
662.064376
 42
0.061681
  0
VERTEX
  8
0
 10
550.563346
 20
666.239886
 42
0.042590
  0
VERTEX
  8
0
 10
543.415012
 20
669.565641
 42
0.015513
  0
VERTEX
  8
0
 10
530.774877
 20
673.744785
 42
0.001237
  0
VERTEX
  8
0
 10
497.000000
 20
683.669861
 42
-0.001318
  0
VERTEX
  8
0
 10
492.963330
 20
684.856783
 42
-0.000624
  0
VERTEX
  8
0
 10
487.765625
 20
686.407050
 42
-0.000619
  0
VERTEX
  8
0
 10
482.332180
 20
688.042349
 42
-0.000876
  0
VERTEX
  8
0
 10
477.500000
 20
689.512452
 42
0.013125
  0
VERTEX
  8
0
 10
468.709650
 20
691.953187
 42
0.005156
  0
VERTEX
  8
0
 10
456.477954
 20
694.872417
 42
0.003073
  0
VERTEX
  8
0
 10
444.292809
 20
697.569389
 42
0.052968
  0
VERTEX
  8
0
 10
440.239413
 20
698.000000
 42
0.041631
  0
VERTEX
  8
0
 10
439.764889
 20
697.960421
 42
0.061164
  0
VERTEX
  8
0
 10
439.364078
 20
697.841423
 42
0.080386
  0
VERTEX
  8
0
 10
439.092099
 20
697.666629
 42
0.212923
  0
SEQEND
  0
POLYLINE
  8
0
 66
1
 70
1
  0
VERTEX
  8
0
 10
147.000000
 20
147.154988
 42
0.142218
  0
VERTEX
  8
0
 10
147.128193
 20
146.713411
 42
0.024894
  0
VERTEX
  8
0
 10
147.632973
 20
145.998607
 42
0.025257
  0
VERTEX
  8
0
 10
148.329796
 20
145.196286
 42
0.020305
  0
VERTEX
  8
0
 10
149.154802
 20
144.404988
 42
0.000000
  0
VERTEX
  8
0
 10
151.309603
 20
142.500000
 42
0.000000
  0
VERTEX
  8
0
 10
149.539792
 20
145.250000
 42
0.010783
  0
VERTEX
  8
0
 10
148.316201
 20
147.064072
 42
0.078231
  0
VERTEX
  8
0
 10
147.585567
 20
147.815880
 42
0.422229
  0
VERTEX
  8
0
 10
147.190632
 20
147.753966
 42
0.155293
  0
SEQEND
  0
POLYLINE
  8
0
 66
1
 70
1
  0
VERTEX
  8
0
 10
152.210573
 20
140.600859
 42
0.023968
  0
VERTEX
  8
0
 10
152.730077
 20
140.088723
 42
0.038420
  0
VERTEX
  8
0
 10
153.224083
 20
139.710420
 42
0.045304
  0
VERTEX
  8
0
 10
153.632938
 20
139.494344
 42
0.297152
  0
VERTEX
  8
0
 10
153.850136
 20
139.534328
 42
0.301864
  0
VERTEX
  8
0
 10
153.981063
 20
140.107085
 42
0.076948
  0
VERTEX
  8
0
 10
153.487692
 20
140.978461
 42
0.069007
  0
VERTEX
  8
0
 10
152.687482
 20
141.745464
 42
0.157897
  0
VERTEX
  8
0
 10
151.901556
 20
142.000000
 42
0.236389
  0
VERTEX
  8
0
 10
151.649322
 20
141.873691
 42
0.218285
  0
VERTEX
  8
0
 10
151.587911
 20
141.589002
 42
0.095760
  0
VERTEX
  8
0
 10
151.782662
 20
141.138842
 42
0.036357
  0
SEQEND
  0
POLYLINE
  8
0
 66
1
 70
1
  0
VERTEX
  8
0
 10
751.797482
 20
130.255245
 42
0.006295
  0
VERTEX
  8
0
 10
755.533582
 20
130.150299
 42
0.003909
  0
VERTEX
  8
0
 10
759.920193
 20
130.116635
 42
0.003921
  0
VERTEX
  8
0
 10
764.250287
 20
130.151213
 42
0.007070
  0
VERTEX
  8
0
 10
767.797482
 20
130.257546
 42
0.058571
  0
VERTEX
  8
0
 10
768.551330
 20
130.380065
 42
0.852078
  0
VERTEX
  8
0
 10
768.537385
 20
130.496971
 42
0.008418
  0
VERTEX
  8
0
 10
765.242314
 20
130.575527
 42
0.001786
  0
VERTEX
  8
0
 10
759.500000
 20
130.595210
 42
0.001734
  0
VERTEX
  8
0
 10
753.766482
 20
130.574501
 42
0.009257
  0
VERTEX
  8
0
 10
750.637385
 20
130.494396
 42
0.898123
  0
VERTEX
  8
0
 10
750.630083
 20
130.378893
 42
0.032437
  0
SEQEND
  0
POLYLINE
  8
0
 66
1
 70
1
  0
VERTEX
  8
0
 10
195.750000
 20
129.337719
 42
0.057986
  0
VERTEX
  8
0
 10
196.320008
 20
129.181385
 42
0.037979
  0
VERTEX
  8
0
 10
197.000000
 20
129.129660
 42
0.037979
  0
VERTEX
  8
0
 10
197.679992
 20
129.181385
 42
0.057986
  0
VERTEX
  8
0
 10
198.250000
 20
129.337719
 42
0.174857
  0
VERTEX
  8
0
 10
198.459382
 20
129.525001
 42
0.447206
  0
VERTEX
  8
0
 10
198.398438
 20
129.693942
 42
0.078554
  0
VERTEX
  8
0
 10
197.891440
 20
129.810911
 42
0.017491
  0
VERTEX
  8
0
 10
197.000000
 20
129.842105
 42
0.017491
  0
VERTEX
  8
0
 10
196.108560
 20
129.810911
 42
0.078554
  0
VERTEX
  8
0
 10
195.601562
 20
129.693942
 42
0.447206
  0
VERTEX
  8
0
 10
195.540618
 20
129.525001
 42
0.174857
  0
SEQEND
  0
ENDSEC
  0
EOF
