  0
SECTION
  2
HEADER
  9
$ACADVER
  1
AC1006
  9
$EXTMIN
 10
0.000000
 20
0.000000
 30
0.000000
  9
$EXTMAX
 10
3470.000000
 20
2452.000000
 30
0.000000
  0
ENDSEC
  0
SECTION
  2
ENTITIES
  0
POLYLINE
  8
0
 66
1
 70
1
  0
VERTEX
  8
0
 10
1201.724045
 20
2281.463158
 42
0.000000
  0
VERTEX
  8
0
 10
1076.948090
 20
2261.130056
 42
0.000000
  0
VERTEX
  8
0
 10
996.303145
 20
2231.953540
 42
0.001474
  0
VERTEX
  8
0
 10
949.352194
 20
2214.810443
 42
0.003994
  0
VERTEX
  8
0
 10
916.186685
 20
2202.288039
 42
0.004044
  0
VERTEX
  8
0
 10
883.454597
 20
2189.324330
 42
0.001544
  0
VERTEX
  8
0
 10
838.079100
 20
2170.763823
 42
0.003158
  0
VERTEX
  8
0
 10
783.767747
 20
2147.949632
 42
0.001630
  0
VERTEX
  8
0
 10
716.108409
 20
2118.763083
 42
0.000534
  0
VERTEX
  8
0
 10
647.650274
 20
2088.879885
 42
0.034065
  0
VERTEX
  8
0
 10
636.068715
 20
2082.839243
 42
0.082019
  0
VERTEX
  8
0
 10
633.602948
 20
2080.708959
 42
0.000015
  0
VERTEX
  8
0
 10
524.243802
 20
1949.430594
 42
0.000071
  0
VERTEX
  8
0
 10
418.451623
 20
1822.389852
 42
0.016854
  0
VERTEX
  8
0
 10
409.190851
 20
1810.470855
 42
0.062347
  0
VERTEX
  8
0
 10
407.727017
 20
1807.805955
 42
0.000361
  0
VERTEX
  8
0
 10
397.259582
 20
1781.372996
 42
0.001524
  0
VERTEX
  8
0
 10
385.424188
 20
1751.153242
 42
0.000968
  0
VERTEX
  8
0
 10
371.816401
 20
1715.891336
 42
0.000000
  0
VERTEX
  8
0
 10
336.751101
 20
1624.500000
 42
0.000000
  0
VERTEX
  8
0
 10
336.361651
 20
1615.000000
 42
0.005050
  0
VERTEX
  8
0
 10
335.909857
 20
1600.370481
 42
0.000067
  0
VERTEX
  8
0
 10
334.034527
 20
1509.522983
 42
0.000134
  0
VERTEX
  8
0
 10
332.288604
 20
1423.264579
 42
0.002136
  0
VERTEX
  8
0
 10
331.829171
 20
1394.000000
 42
0.000000
  0
VERTEX
  8
0
 10
331.652054
 20
1378.500000
 42
0.000000
  0
VERTEX
  8
0
 10
355.859520
 20
1320.500000
 42
-0.002475
  0
VERTEX
  8
0
 10
366.332194
 20
1295.054318
 42
-0.001774
  0
VERTEX
  8
0
 10
377.797070
 20
1266.511036
 42
-0.001791
  0
VERTEX
  8
0
 10
388.521547
 20
1239.250642
 42
-0.003854
  0
VERTEX
  8
0
 10
396.547077
 20
1218.154590
 42
0.000000
  0
VERTEX
  8
0
 10
413.027167
 20
1173.809180
 42
0.000000
  0
VERTEX
  8
0
 10
453.526491
 20
1099.902529
 42
0.000000
  0
VERTEX
  8
0
 10
494.025815
 20
1025.995878
 42
0.000000
  0
VERTEX
  8
0
 10
486.357531
 20
1012.950574
 42
-0.005120
  0
VERTEX
  8
0
 10
482.533124
 20
1006.594382
 42
-0.021324
  0
VERTEX
  8
0
 10
480.029005
 20
1002.890867
 42
-0.030444
  0
VERTEX
  8
0
 10
478.229216
 20
1000.745592
 42
-0.303399
  0
VERTEX
  8
0
 10
477.141445
 20
1000.499217
 42
-0.041165
  0
VERTEX
  8
0
 10
475.941986
 20
1001.076685
 42
-0.000043
  0
VERTEX
  8
0
 10
450.772055
 20
1015.859991
 42
-0.000421
  0
VERTEX
  8
0
 10
422.647900
 20
1032.413562
 42
-0.000259
  0
VERTEX
  8
0
 10
389.546821
 20
1051.957158
 42
0.000494
  0
VERTEX
  8
0
 10
356.448599
 20
1071.478113
 42
0.000806
  0
VERTEX
  8
0
 10
328.335629
 20
1087.960505
 42
0.000076
  0
VERTEX
  8
0
 10
303.136995
 20
1102.674609
 42
0.087051
  0
VERTEX
  8
0
 10
302.000000
 20
1103.095710
 42
0.047715
  0
VERTEX
  8
0
 10
300.806865
 20
1103.198185
 42
0.000169
  0
VERTEX
  8
0
 10
286.533906
 20
1103.055195
 42
0.000908
  0
VERTEX
  8
0
 10
270.364783
 20
1102.858355
 42
0.000570
  0
VERTEX
  8
0
 10
251.455849
 20
1102.572239
 42
0.001210
  0
VERTEX
  8
0
 10
227.601178
 20
1102.126322
 42
0.004765
  0
VERTEX
  8
0
 10
212.906864
 20
1101.675934
 42
0.002878
  0
VERTEX
  8
0
 10
202.596896
 20
1101.202112
 42
0.145946
  0
VERTEX
  8
0
 10
200.714013
 20
1100.532832
 42
0.135393
  0
VERTEX
  8
0
 10
198.188373
 20
1097.346723
 42
0.003770
  0
VERTEX
  8
0
 10
191.382962
 20
1080.958210
 42
0.003403
  0
VERTEX
  8
0
 10
184.763126
 20
1064.347733
 42
0.155828
  0
VERTEX
  8
0
 10
184.533476
 20
1060.722643
 42
0.227262
  0
VERTEX
  8
0
 10
186.128633
 20
1058.801037
 42
0.003598
  0
VERTEX
  8
0
 10
199.422409
 20
1052.803204
 42
0.004679
  0
VERTEX
  8
0
 10
220.883925
 20
1043.544717
 42
0.000601
  0
VERTEX
  8
0
 10
267.101979
 20
1024.182522
 42
0.000000
  0
VERTEX
  8
0
 10
349.091190
 20
989.950477
 42
0.000000
  0
VERTEX
  8
0
 10
384.795595
 20
964.215221
 42
-0.006986
  0
VERTEX
  8
0
 10
430.251954
 20
930.475966
 42
-0.005482
  0
VERTEX
  8
0
 10
478.616851
 20
892.671906
 42
-0.004872
  0
VERTEX
  8
0
 10
531.697619
 20
849.381591
 42
-0.003279
  0
VERTEX
  8
0
 10
591.500000
 20
798.963960
 42
0.000283
  0
VERTEX
  8
0
 10
620.013259
 20
774.631470
 42
0.000455
  0
VERTEX
  8
0
 10
644.350845
 20
753.924399
 42
0.000068
  0
VERTEX
  8
0
 10
665.976588
 20
735.563603
 42
0.029931
  0
VERTEX
  8
0
 10
667.502878
 20
734.417821
 42
0.101831
  0
VERTEX
  8
0
 10
673.511748
 20
732.009856
 42
0.010108
  0
VERTEX
  8
0
 10
688.925903
 20
729.554567
 42
0.010342
  0
VERTEX
  8
0
 10
710.050111
 20
727.070382
 42
0.004284
  0
VERTEX
  8
0
 10
738.702248
 20
724.547946
 42
0.000000
  0
VERTEX
  8
0
 10
781.500000
 20
721.149408
 42
0.000000
  0
VERTEX
  8
0
 10
818.001228
 20
712.658500
 42
0.000000
  0
VERTEX
  8
0
 10
854.502456
 20
704.167592
 42
0.000000
  0
VERTEX
  8
0
 10
890.501228
 20
690.210838
 42
-0.004404
  0
VERTEX
  8
0
 10
912.436003
 20
681.483695
 42
-0.008508
  0
VERTEX
  8
0
 10
929.801230
 20
674.049678
 42
-0.006445
  0
VERTEX
  8
0
 10
949.745819
 20
664.796308
 42
-0.001568
  0
VERTEX
  8
0
 10
982.414606
 20
648.998476
 42
0.000000
  0
VERTEX
  8
0
 10
1038.329211
 20
621.742868
 42
0.000000
  0
VERTEX
  8
0
 10
1202.759807
 20
569.101524
 42
0.000000
  0
VERTEX
  8
0
 10
1367.190402
 20
516.460179
 42
0.000000
  0
VERTEX
  8
0
 10
1376.644055
 20
487.078944
 42
-0.002981
  0
VERTEX
  8
0
 10
1380.211023
 20
475.762113
 42
-0.004862
  0
VERTEX
  8
0
 10
1383.086035
 20
466.115404
 42
-0.001041
  0
VERTEX
  8
0
 10
1385.496729
 20
457.663325
 42
-0.284690
  0
VERTEX
  8
0
 10
1385.298854
 20
456.972456
 42
-0.008529
  0
VERTEX
  8
0
 10
1384.646272
 20
456.399996
 42
-0.000010
  0
VERTEX
  8
0
 10
1370.896029
 20
444.747376
 42
-0.000092
  0
VERTEX
  8
0
 10
1355.508774
 20
431.712880
 42
-0.000057
  0
VERTEX
  8
0
 10
1337.389756
 20
416.373602
 42
0.000000
  0
VERTEX
  8
0
 10
1290.279511
 20
376.500000
 42
0.000000
  0
VERTEX
  8
0
 10
1274.389756
 20
372.631248
 42
0.009863
  0
VERTEX
  8
0
 10
1265.308282
 20
370.229452
 42
0.015433
  0
VERTEX
  8
0
 10
1257.609480
 20
367.770614
 42
0.013243
  0
VERTEX
  8
0
 10
1249.287730
 20
364.576508
 42
0.005218
  0
VERTEX
  8
0
 10
1238.000000
 20
359.758746
 42
-0.007285
  0
VERTEX
  8
0
 10
1228.562386
 20
355.776675
 42
-0.004164
  0
VERTEX
  8
0
 10
1217.059375
 20
351.230516
 42
-0.004158
  0
VERTEX
  8
0
 10
1205.409606
 20
346.849109
 42
-0.006888
  0
VERTEX
  8
0
 10
1195.500000
 20
343.370041
 42
0.004642
  0
VERTEX
  8
0
 10
1183.366102
 20
339.171199
 42
0.014297
  0
VERTEX
  8
0
 10
1175.271942
 20
336.022273
 42
0.018191
  0
VERTEX
  8
0
 10
1168.490522
 20
332.862879
 42
0.012339
  0
VERTEX
  8
0
 10
1161.000000
 20
328.799498
 42
0.002471
  0
VERTEX
  8
0
 10
1156.133049
 20
325.969649
 42
0.003562
  0
VERTEX
  8
0
 10
1151.857591
 20
323.414195
 42
0.001888
  0
VERTEX
  8
0
 10
1148.264504
 20
321.213085
 42
0.056536
  0
VERTEX
  8
0
 10
1147.430096
 20
320.556954
 42
0.052770
  0
VERTEX
  8
0
 10
1146.724611
 20
319.695249
 42
0.000881
  0
VERTEX
  8
0
 10
1143.344481
 20
314.522980
 42
0.002261
  0
VERTEX
  8
0
 10
1139.445816
 20
308.474593
 42
0.001500
  0
VERTEX
  8
0
 10
1135.024039
 20
301.500000
 42
0.009643
  0
VERTEX
  8
0
 10
1128.443556
 20
290.590193
 42
0.010664
  0
VERTEX
  8
0
 10
1122.513861
 20
279.790834
 42
0.007932
  0
VERTEX
  8
0
 10
1115.786326
 20
266.379312
 42
0.002636
  0
VERTEX
  8
0
 10
1106.343943
 20
246.519239
 42
0.002556
  0
VERTEX
  8
0
 10
1099.354825
 20
231.416713
 42
0.004671
  0
VERTEX
  8
0
 10
1093.831955
 20
219.015399
 42
0.002211
  0
VERTEX
  8
0
 10
1089.453893
 20
208.808996
 42
0.100535
  0
VERTEX
  8
0
 10
1089.000000
 20
206.574420
 42
0.058410
  0
VERTEX
  8
0
 10
1089.244347
 20
204.489911
 42
0.001863
  0
VERTEX
  8
0
 10
1091.244939
 20
196.210955
 42
0.003583
  0
VERTEX
  8
0
 10
1093.714208
 20
186.458983
 42
0.002476
  0
VERTEX
  8
0
 10
1096.642347
 20
175.456831
 42
0.002640
  0
VERTEX
  8
0
 10
1100.345248
 20
162.095213
 42
0.009126
  0
VERTEX
  8
0
 10
1102.946486
 20
153.500052
 42
0.007759
  0
VERTEX
  8
0
 10
1104.957814
 20
147.582578
 42
0.168927
  0
VERTEX
  8
0
 10
1106.090778
 20
146.175381
 42
0.134303
  0
VERTEX
  8
0
 10
1107.851955
 20
145.647447
 42
0.008875
  0
VERTEX
  8
0
 10
1113.196131
 20
145.612810
 42
0.008780
  0
VERTEX
  8
0
 10
1121.103386
 20
145.840813
 42
0.002301
  0
VERTEX
  8
0
 10
1133.771694
 20
146.487296
 42
0.001958
  0
VERTEX
  8
0
 10
1143.808008
 20
147.085209
 42
0.002966
  0
VERTEX
  8
0
 10
1152.533466
 20
147.691315
 42
0.001129
  0
VERTEX
  8
0
 10
1160.025021
 20
148.273405
 42
0.071774
  0
VERTEX
  8
0
 10
1161.306684
 20
148.564191
 42
0.116070
  0
VERTEX
  8
0
 10
1162.427362
 20
149.326805
 42
0.000530
  0
VERTEX
  8
0
 10
1172.100478
 20
159.896923
 42
0.002472
  0
VERTEX
  8
0
 10
1183.044855
 20
172.001303
 42
0.001554
  0
VERTEX
  8
0
 10
1195.720230
 20
186.249105
 42
0.001972
  0
VERTEX
  8
0
 10
1215.626521
 20
208.945177
 42
0.009973
  0
VERTEX
  8
0
 10
1226.428979
 20
221.871816
 42
0.012877
  0
VERTEX
  8
0
 10
1235.437300
 20
233.711364
 42
0.004811
  0
VERTEX
  8
0
 10
1247.486809
 20
250.767708
 42
-0.003412
  0
VERTEX
  8
0
 10
1258.067402
 20
265.834091
 42
-0.010582
  0
VERTEX
  8
0
 10
1265.487358
 20
275.795047
 42
-0.013698
  0
VERTEX
  8
0
 10
1272.202780
 20
283.951714
 42
-0.009867
  0
VERTEX
  8
0
 10
1280.118447
 20
292.692189
 42
0.000000
  0
VERTEX
  8
0
 10
1293.736894
 20
307.145919
 42
0.000000
  0
VERTEX
  8
0
 10
1351.617487
 20
346.705480
 42
-0.001449
  0
VERTEX
  8
0
 10
1387.105853
 20
370.810118
 42
-0.006849
  0
VERTEX
  8
0
 10
1407.677374
 20
384.289453
 42
-0.008270
  0
VERTEX
  8
0
 10
1426.823938
 20
396.023423
 42
-0.002789
  0
VERTEX
  8
0
 10
1455.104247
 20
412.506031
 42
0.002854
  0
VERTEX
  8
0
 10
1474.314278
 20
423.705569
 42
0.002479
  0
VERTEX
  8
0
 10
1494.321865
 20
435.657805
 42
0.002494
  0
VERTEX
  8
0
 10
1512.325630
 20
446.657408
 42
0.007328
  0
VERTEX
  8
0
 10
1524.568329
 20
454.471531
 42
0.000000
  0
VERTEX
  8
0
 10
1548.426243
 20
470.196041
 42
0.000000
  0
VERTEX
  8
0
 10
1599.463122
 20
481.496536
 42
0.000000
  0
VERTEX
  8
0
 10
1650.500000
 20
492.797031
 42
0.000000
  0
VERTEX
  8
0
 10
1779.661993
 20
531.398516
 42
-0.000342
  0
VERTEX
  8
0
 10
1829.307253
 20
546.198565
 42
-0.000560
  0
VERTEX
  8
0
 10
1871.387749
 20
558.660814
 42
-0.000044
  0
VERTEX
  8
0
 10
1909.178818
 20
569.803077
 42
-0.071779
  0
VERTEX
  8
0
 10
1910.543470
 20
570.000000
 42
-0.130537
  0
VERTEX
  8
0
 10
1911.790208
 20
569.668865
 42
-0.000793
  0
VERTEX
  8
0
 10
1922.073921
 20
563.769871
 42
-0.003202
  0
VERTEX
  8
0
 10
1933.795597
 20
556.920955
 42
-0.002026
  0
VERTEX
  8
0
 10
1947.381477
 20
548.791051
 42
0.000000
  0
VERTEX
  8
0
 10
1982.500000
 20
527.582101
 42
0.000000
  0
VERTEX
  8
0
 10
2015.500000
 20
496.924849
 42
-0.004517
  0
VERTEX
  8
0
 10
2031.157685
 20
482.112944
 42
-0.002069
  0
VERTEX
  8
0
 10
2051.327995
 20
462.522307
 42
-0.002049
  0
VERTEX
  8
0
 10
2072.395476
 20
441.720370
 42
-0.002827
  0
VERTEX
  8
0
 10
2091.127217
 20
422.860424
 42
0.000000
  0
VERTEX
  8
0
 10
2133.754435
 20
379.453251
 42
0.000000
  0
VERTEX
  8
0
 10
2189.127217
 20
294.446201
 42
0.000133
  0
VERTEX
  8
0
 10
2210.463162
 20
261.710801
 42
0.000214
  0
VERTEX
  8
0
 10
2228.674870
 20
233.811225
 42
0.000032
  0
VERTEX
  8
0
 10
2244.851953
 20
209.055253
 42
0.013889
  0
VERTEX
  8
0
 10
2246.000000
 20
207.400860
 42
0.114564
  0
VERTEX
  8
0
 10
2249.287220
 20
204.585443
 42
0.001320
  0
VERTEX
  8
0
 10
2274.998562
 20
191.282484
 42
0.001023
  0
VERTEX
  8
0
 10
2301.128814
 20
177.917632
 42
0.155348
  0
VERTEX
  8
0
 10
2304.396394
 20
177.381915
 42
0.132213
  0
VERTEX
  8
0
 10
2307.080997
 20
178.544353
 42
0.001498
  0
VERTEX
  8
0
 10
2322.522621
 20
190.892185
 42
0.001905
  0
VERTEX
  8
0
 10
2337.643707
 20
203.153349
 42
0.098885
  0
VERTEX
  8
0
 10
2340.025848
 20
206.048298
 42
0.174161
  0
VERTEX
  8
0
 10
2340.456400
 20
208.965490
 42
0.000618
  0
VERTEX
  8
0
 10
2333.392313
 20
243.891420
 42
0.000561
  0
VERTEX
  8
0
 10
2326.220397
 20
278.925020
 42
0.197449
  0
VERTEX
  8
0
 10
2324.746925
 20
281.111803
 42
-0.063733
  0
VERTEX
  8
0
 10
2324.412062
 20
281.402714
 42
-0.063989
  0
VERTEX
  8
0
 10
2324.161783
 20
281.768214
 42
-0.070103
  0
VERTEX
  8
0
 10
2324.029991
 20
282.149691
 42
-0.117162
  0
VERTEX
  8
0
 10
2324.043703
 20
282.487264
 42
0.265527
  0
VERTEX
  8
0
 10
2323.907271
 20
283.032436
 42
0.000051
  0
VERTEX
  8
0
 10
2303.227596
 20
304.599557
 42
0.001041
  0
VERTEX
  8
0
 10
2280.233034
 20
328.476373
 42
0.000628
  0
VERTEX
  8
0
 10
2252.879113
 20
356.690788
 42
0.000000
  0
VERTEX
  8
0
 10
2181.500000
 20
430.130656
 42
0.000000
  0
VERTEX
  8
0
 10
2151.250000
 20
477.304548
 42
0.000000
  0
VERTEX
  8
0
 10
2121.000000
 20
524.478441
 42
0.000000
  0
VERTEX
  8
0
 10
2121.000000
 20
533.870063
 42
0.000000
  0
VERTEX
  8
0
 10
2121.000000
 20
543.261685
 42
0.000000
  0
VERTEX
  8
0
 10
2124.250000
 20
542.726307
 42
-0.004586
  0
VERTEX
  8
0
 10
2126.803630
 20
542.281550
 42
-0.000018
  0
VERTEX
  8
0
 10
2155.589173
 20
536.994534
 42
-0.000093
  0
VERTEX
  8
0
 10
2188.236787
 20
530.990706
 42
-0.000058
  0
VERTEX
  8
0
 10
2226.372717
 20
523.965695
 42
0.000000
  0
VERTEX
  8
0
 10
2325.245434
 20
505.740460
 42
0.000000
  0
VERTEX
  8
0
 10
2486.960972
 20
515.402168
 42
0.000000
  0
VERTEX
  8
0
 10
2648.676509
 20
525.063876
 42
0.000000
  0
VERTEX
  8
0
 10
2684.088255
 20
515.424043
 42
0.000000
  0
VERTEX
  8
0
 10
2719.500000
 20
505.784209
 42
0.000000
  0
VERTEX
  8
0
 10
2768.047009
 20
506.740248
 42
0.001133
  0
VERTEX
  8
0
 10
2793.002869
 20
507.288288
 42
0.005445
  0
VERTEX
  8
0
 10
2807.213072
 20
507.787453
 42
0.005425
  0
VERTEX
  8
0
 10
2816.498375
 20
508.315914
 42
0.104214
  0
VERTEX
  8
0
 10
2819.266746
 20
509.098143
 42
0.079751
  0
VERTEX
  8
0
 10
2821.055011
 20
510.435778
 42
0.001169
  0
VERTEX
  8
0
 10
2830.236673
 20
519.960345
 42
0.003165
  0
VERTEX
  8
0
 10
2840.815241
 20
531.126063
 42
0.002080
  0
VERTEX
  8
0
 10
2852.857984
 20
544.107287
 42
0.000000
  0
VERTEX
  8
0
 10
2883.776494
 20
577.714573
 42
0.000000
  0
VERTEX
  8
0
 10
2911.385696
 20
621.107287
 42
0.000000
  0
VERTEX
  8
0
 10
2938.994898
 20
664.500000
 42
0.000000
  0
VERTEX
  8
0
 10
2958.497449
 20
713.250958
 42
0.000000
  0
VERTEX
  8
0
 10
2978.000000
 20
762.001916
 42
0.000000
  0
VERTEX
  8
0
 10
2977.909814
 20
783.750958
 42
0.002041
  0
VERTEX
  8
0
 10
2977.823319
 20
794.263228
 42
0.000890
  0
VERTEX
  8
0
 10
2977.626710
 20
808.217469
 42
0.000881
  0
VERTEX
  8
0
 10
2977.365365
 20
823.040280
 42
0.001175
  0
VERTEX
  8
0
 10
2977.072702
 20
836.500000
 42
0.000000
  0
VERTEX
  8
0
 10
2976.325777
 20
867.500000
 42
0.000000
  0
VERTEX
  8
0
 10
2966.010760
 20
905.264538
 42
-0.001572
  0
VERTEX
  8
0
 10
2962.094314
 20
919.782502
 42
-0.002583
  0
VERTEX
  8
0
 10
2958.882901
 20
932.092865
 42
-0.000310
  0
VERTEX
  8
0
 10
2956.090772
 20
943.055287
 42
-0.264463
  0
VERTEX
  8
0
 10
2956.230627
 20
943.563960
 42
-0.169459
  0
VERTEX
  8
0
 10
2956.707132
 20
943.793944
 42
-0.002850
  0
VERTEX
  8
0
 10
2959.653767
 20
944.114140
 42
-0.006965
  0
VERTEX
  8
0
 10
2963.120708
 20
944.422155
 42
-0.004531
  0
VERTEX
  8
0
 10
2967.132755
 20
944.685799
 42
0.000000
  0
VERTEX
  8
0
 10
2977.500000
 20
945.272754
 42
0.000000
  0
VERTEX
  8
0
 10
3007.000000
 20
927.024870
 42
0.000000
  0
VERTEX
  8
0
 10
3036.500000
 20
908.776985
 42
0.000000
  0
VERTEX
  8
0
 10
3097.394701
 20
880.818908
 42
0.000724
  0
VERTEX
  8
0
 10
3132.927390
 20
864.567347
 42
0.006658
  0
VERTEX
  8
0
 10
3148.451342
 20
857.742478
 42
0.007135
  0
VERTEX
  8
0
 10
3157.776316
 20
853.946240
 42
0.297799
  0
VERTEX
  8
0
 10
3159.798481
 20
854.369909
 42
0.261192
  0
VERTEX
  8
0
 10
3160.347875
 20
856.321355
 42
0.012406
  0
VERTEX
  8
0
 10
3158.525353
 20
863.135308
 42
0.008824
  0
VERTEX
  8
0
 10
3154.881161
 20
874.758982
 42
0.000975
  0
VERTEX
  8
0
 10
3146.022368
 20
901.189494
 42
0.001029
  0
VERTEX
  8
0
 10
3140.074632
 20
918.701546
 42
0.001598
  0
VERTEX
  8
0
 10
3134.864924
 20
933.779982
 42
0.000455
  0
VERTEX
  8
0
 10
3130.277444
 20
946.882936
 42
0.053308
  0
VERTEX
  8
0
 10
3129.503892
 20
948.508317
 42
0.131959
  0
VERTEX
  8
0
 10
3128.222548
 20
949.720525
 42
0.003197
  0
VERTEX
  8
0
 10
3120.957898
 20
953.584981
 42
0.006408
  0
VERTEX
  8
0
 10
3111.967421
 20
958.148142
 42
0.003550
  0
VERTEX
  8
0
 10
3100.885304
 20
963.498102
 42
0.000000
  0
VERTEX
  8
0
 10
3073.500000
 20
976.479569
 42
0.000000
  0
VERTEX
  8
0
 10
3019.500000
 20
1016.840827
 42
0.000000
  0
VERTEX
  8
0
 10
2965.500000
 20
1057.202085
 42
0.000000
  0
VERTEX
  8
0
 10
2934.266527
 20
1087.351042
 42
0.000000
  0
VERTEX
  8
0
 10
2903.033054
 20
1117.500000
 42
0.000000
  0
VERTEX
  8
0
 10
2847.946918
 20
1223.360518
 42
0.000000
  0
VERTEX
  8
0
 10
2792.860782
 20
1329.221036
 42
0.000000
  0
VERTEX
  8
0
 10
2755.471881
 20
1436.360518
 42
0.000000
  0
VERTEX
  8
0
 10
2718.082981
 20
1543.500000
 42
0.000000
  0
VERTEX
  8
0
 10
2662.720163
 20
1665.092333
 42
0.000000
  0
VERTEX
  8
0
 10
2607.357345
 20
1786.684665
 42
0.000000
  0
VERTEX
  8
0
 10
2531.039918
 20
1883.592333
 42
0.000519
  0
VERTEX
  8
0
 10
2501.595034
 20
1920.901646
 42
0.000831
  0
VERTEX
  8
0
 10
2476.373682
 20
1952.682558
 42
0.000139
  0
VERTEX
  8
0
 10
2453.991580
 20
1980.773704
 42
0.048886
  0
VERTEX
  8
0
 10
2452.111245
 20
1982.709992
 42
0.031119
  0
VERTEX
  8
0
 10
2449.919369
 20
1984.342436
 42
0.000052
  0
VERTEX
  8
0
 10
2410.322300
 20
2010.162158
 42
0.000405
  0
VERTEX
  8
0
 10
2365.838232
 20
2039.110527
 42
0.000251
  0
VERTEX
  8
0
 10
2313.517862
 20
2073.060782
 42
0.000000
  0
VERTEX
  8
0
 10
2177.535725
 20
2161.201579
 42
0.000000
  0
VERTEX
  8
0
 10
1943.517862
 20
2219.637642
 42
0.000000
  0
VERTEX
  8
0
 10
1709.500000
 20
2278.073706
 42
0.000000
  0
VERTEX
  8
0
 10
1520.000000
 20
2290.036338
 42
0.000112
  0
VERTEX
  8
0
 10
1447.199426
 20
2294.615667
 42
0.000184
  0
VERTEX
  8
0
 10
1385.578125
 20
2298.455173
 42
0.000012
  0
VERTEX
  8
0
 10
1330.124977
 20
2301.888533
 42
0.028119
  0
VERTEX
  8
0
 10
1328.500000
 20
2301.897614
 42
0.027275
  0
VERTEX
  8
0
 10
1326.896079
 20
2301.728304
 42
0.000026
  0
VERTEX
  8
0
 10
1290.434563
 20
2295.853184
 42
0.000267
  0
VERTEX
  8
0
 10
1249.706369
 20
2289.266040
 42
0.000164
  0
SEQEND
  0
POLYLINE
  8
0
 66
1
 70
1
  0
VERTEX
  8
0
 10
1523.814923
 20
2285.452306
 42
0.000000
  0
VERTEX
  8
0
 10
1707.129847
 20
2273.977943
 42
0.000000
  0
VERTEX
  8
0
 10
1941.314923
 20
2215.584842
 42
0.000000
  0
VERTEX
  8
0
 10
2175.500000
 20
2157.191741
 42
0.000000
  0
VERTEX
  8
0
 10
2312.923094
 20
2068.070227
 42
0.000000
  0
VERTEX
  8
0
 10
2450.346189
 20
1978.948713
 42
0.000000
  0
VERTEX
  8
0
 10
2527.288326
 20
1881.341649
 42
0.000000
  0
VERTEX
  8
0
 10
2604.230464
 20
1783.734585
 42
0.000000
  0
VERTEX
  8
0
 10
2659.979930
 20
1661.117292
 42
0.000000
  0
VERTEX
  8
0
 10
2715.729397
 20
1538.500000
 42
0.000000
  0
VERTEX
  8
0
 10
2752.448682
 20
1433.000000
 42
0.000000
  0
VERTEX
  8
0
 10
2789.167966
 20
1327.500000
 42
0.000000
  0
VERTEX
  8
0
 10
2843.727346
 20
1222.500000
 42
0.000226
  0
VERTEX
  8
0
 10
2864.742250
 20
1182.101245
 42
0.000365
  0
VERTEX
  8
0
 10
2882.659702
 20
1147.756250
 42
0.000046
  0
VERTEX
  8
0
 10
2898.653445
 20
1117.160065
 42
0.028947
  0
VERTEX
  8
0
 10
2899.647725
 20
1115.500000
 42
0.047363
  0
VERTEX
  8
0
 10
2900.814559
 20
1114.092474
 42
0.000538
  0
VERTEX
  8
0
 10
2909.493587
 20
1105.456847
 42
0.001653
  0
VERTEX
  8
0
 10
2919.563920
 20
1095.524309
 42
0.001077
  0
VERTEX
  8
0
 10
2931.254362
 20
1084.119055
 42
0.000000
  0
VERTEX
  8
0
 10
2961.500000
 20
1054.738110
 42
0.000000
  0
VERTEX
  8
0
 10
3016.427713
 20
1013.619055
 42
0.000000
  0
VERTEX
  8
0
 10
3071.355425
 20
972.500000
 42
0.000000
  0
VERTEX
  8
0
 10
3098.876152
 20
959.444167
 42
0.000000
  0
VERTEX
  8
0
 10
3126.396879
 20
946.388334
 42
0.000000
  0
VERTEX
  8
0
 10
3141.137339
 20
902.966400
 42
-0.000549
  0
VERTEX
  8
0
 10
3146.774186
 20
886.301456
 42
-0.000912
  0
VERTEX
  8
0
 10
3151.485528
 20
872.237398
 42
-0.000037
  0
VERTEX
  8
0
 10
3155.713787
 20
859.535373
 42
-0.283949
  0
VERTEX
  8
0
 10
3155.665846
 20
859.332513
 42
-0.312435
  0
VERTEX
  8
0
 10
3155.467142
 20
859.296407
 42
-0.000020
  0
VERTEX
  8
0
 10
3138.485426
 20
867.001367
 42
-0.000687
  0
VERTEX
  8
0
 10
3119.723136
 20
875.546230
 42
-0.000413
  0
VERTEX
  8
0
 10
3097.476946
 20
885.736887
 42
0.000000
  0
VERTEX
  8
0
 10
3039.500000
 20
912.353214
 42
0.000000
  0
VERTEX
  8
0
 10
3010.000000
 20
930.553276
 42
0.000000
  0
VERTEX
  8
0
 10
2980.500000
 20
948.753338
 42
0.000000
  0
VERTEX
  8
0
 10
2967.000000
 20
948.911076
 42
0.003065
  0
VERTEX
  8
0
 10
2958.724385
 20
948.957031
 42
0.031770
  0
VERTEX
  8
0
 10
2955.325366
 20
948.738871
 42
0.087792
  0
VERTEX
  8
0
 10
2953.460875
 20
948.156498
 42
0.135545
  0
VERTEX
  8
0
 10
2952.229989
 20
947.015932
 42
0.183061
  0
VERTEX
  8
0
 10
2951.792731
 20
944.765465
 42
0.013181
  0
VERTEX
  8
0
 10
2953.054538
 20
938.429208
 42
0.009213
  0
VERTEX
  8
0
 10
2955.650595
 20
927.882786
 42
0.001254
  0
VERTEX
  8
0
 10
2961.542573
 20
905.936755
 42
0.000000
  0
VERTEX
  8
0
 10
2972.125169
 20
866.910460
 42
0.000000
  0
VERTEX
  8
0
 10
2973.136336
 20
815.705230
 42
0.000000
  0
VERTEX
  8
0
 10
2974.147503
 20
764.500000
 42
0.000000
  0
VERTEX
  8
0
 10
2954.752287
 20
715.888927
 42
0.000000
  0
VERTEX
  8
0
 10
2935.357072
 20
667.277854
 42
0.000000
  0
VERTEX
  8
0
 10
2907.928536
 20
624.007377
 42
0.000000
  0
VERTEX
  8
0
 10
2880.500000
 20
580.736899
 42
0.000000
  0
VERTEX
  8
0
 10
2849.621509
 20
547.118450
 42
0.000031
  0
VERTEX
  8
0
 10
2837.738023
 20
534.178874
 42
0.000051
  0
VERTEX
  8
0
 10
2827.628437
 20
523.167225
 42
0.000006
  0
VERTEX
  8
0
 10
2818.621934
 20
513.354840
 42
0.003936
  0
VERTEX
  8
0
 10
2818.112762
 20
512.791253
 42
-0.204189
  0
VERTEX
  8
0
 10
2817.480036
 20
512.492520
 42
-0.000268
  0
VERTEX
  8
0
 10
2803.536161
 20
511.966140
 42
-0.002207
  0
VERTEX
  8
0
 10
2787.865049
 20
511.452252
 42
-0.001351
  0
VERTEX
  8
0
 10
2769.375333
 20
510.977621
 42
0.000000
  0
VERTEX
  8
0
 10
2721.268161
 20
509.872737
 42
0.000000
  0
VERTEX
  8
0
 10
2685.603106
 20
519.604747
 42
0.000000
  0
VERTEX
  8
0
 10
2649.938051
 20
529.336758
 42
0.000000
  0
VERTEX
  8
0
 10
2488.074999
 20
519.673906
 42
0.000000
  0
VERTEX
  8
0
 10
2326.211947
 20
510.011054
 42
0.000000
  0
VERTEX
  8
0
 10
2223.100378
 20
529.010506
 42
0.000469
  0
VERTEX
  8
0
 10
2166.158863
 20
539.447431
 42
0.003301
  0
VERTEX
  8
0
 10
2138.406226
 20
544.318321
 42
0.001987
  0
VERTEX
  8
0
 10
2120.517713
 20
547.263298
 42
0.178275
  0
VERTEX
  8
0
 10
2117.925686
 20
546.754980
 42
0.074257
  0
VERTEX
  8
0
 10
2116.861968
 20
545.868553
 42
0.123553
  0
VERTEX
  8
0
 10
2116.324188
 20
544.840499
 42
0.073134
  0
VERTEX
  8
0
 10
2116.185696
 20
543.307441
 42
0.013819
  0
VERTEX
  8
0
 10
2116.420813
 20
540.500000
 42
-0.008302
  0
VERTEX
  8
0
 10
2116.646587
 20
538.120170
 42
-0.003932
  0
VERTEX
  8
0
 10
2116.862504
 20
535.045919
 42
-0.003896
  0
VERTEX
  8
0
 10
2117.038069
 20
531.825506
 42
-0.005502
  0
VERTEX
  8
0
 10
2117.140518
 20
528.954192
 42
0.000000
  0
VERTEX
  8
0
 10
2117.301973
 20
522.408384
 42
0.000000
  0
VERTEX
  8
0
 10
2147.901944
 20
474.717595
 42
0.000000
  0
VERTEX
  8
0
 10
2178.501915
 20
427.026806
 42
0.000000
  0
VERTEX
  8
0
 10
2250.000958
 20
353.451493
 42
0.000000
  0
VERTEX
  8
0
 10
2321.500000
 20
279.876181
 42
0.000000
  0
VERTEX
  8
0
 10
2326.721044
 20
255.188091
 42
0.000052
  0
VERTEX
  8
0
 10
2328.896174
 20
244.908136
 42
0.000049
  0
VERTEX
  8
0
 10
2331.114222
 20
234.435847
 42
0.000049
  0
VERTEX
  8
0
 10
2333.079588
 20
225.165571
 42
0.000173
  0
VERTEX
  8
0
 10
2334.344863
 20
219.210537
 42
0.000000
  0
VERTEX
  8
0
 10
2336.747637
 20
207.921074
 42
0.000000
  0
VERTEX
  8
0
 10
2321.623819
 20
195.647994
 42
-0.001108
  0
VERTEX
  8
0
 10
2315.726497
 20
190.883921
 42
-0.001637
  0
VERTEX
  8
0
 10
2310.529050
 20
186.732187
 42
-0.000735
  0
VERTEX
  8
0
 10
2306.077124
 20
183.210444
 42
-0.031944
  0
VERTEX
  8
0
 10
2305.092095
 20
182.530849
 42
-0.241916
  0
VERTEX
  8
0
 10
2303.777004
 20
182.444781
 42
-0.004692
  0
VERTEX
  8
0
 10
2297.384304
 20
185.289941
 42
-0.008283
  0
VERTEX
  8
0
 10
2288.837446
 20
189.362722
 42
-0.002818
  0
VERTEX
  8
0
 10
2276.553942
 20
195.554357
 42
0.000000
  0
VERTEX
  8
0
 10
2249.423694
 20
209.421931
 42
0.000000
  0
VERTEX
  8
0
 10
2192.743508
 20
296.460965
 42
0.000000
  0
VERTEX
  8
0
 10
2136.063322
 20
383.500000
 42
0.000000
  0
VERTEX
  8
0
 10
2085.781661
 20
434.151958
 42
0.003131
  0
VERTEX
  8
0
 10
2052.508886
 20
467.252561
 42
0.003641
  0
VERTEX
  8
0
 10
2020.444345
 20
498.298535
 42
0.002293
  0
VERTEX
  8
0
 10
1992.398575
 20
524.815848
 42
0.040729
  0
VERTEX
  8
0
 10
1982.658934
 20
532.554228
 42
0.010314
  0
VERTEX
  8
0
 10
1980.366326
 20
534.021621
 42
0.000314
  0
VERTEX
  8
0
 10
1970.740495
 20
539.898084
 42
0.000620
  0
VERTEX
  8
0
 10
1959.386471
 20
546.800515
 42
0.000429
  0
VERTEX
  8
0
 10
1946.521477
 20
554.584608
 42
0.002359
  0
VERTEX
  8
0
 10
1931.583728
 20
563.509462
 42
0.006630
  0
VERTEX
  8
0
 10
1921.019998
 20
569.565988
 42
0.004253
  0
VERTEX
  8
0
 10
1913.112422
 20
573.873757
 42
0.141610
  0
VERTEX
  8
0
 10
1911.021477
 20
574.317155
 42
0.053450
  0
VERTEX
  8
0
 10
1909.034291
 20
573.957217
 42
0.000069
  0
VERTEX
  8
0
 10
1870.906309
 20
562.740101
 42
0.000609
  0
VERTEX
  8
0
 10
1828.213392
 20
550.116996
 42
0.000375
  0
VERTEX
  8
0
 10
1778.000000
 20
535.162669
 42
0.000000
  0
VERTEX
  8
0
 10
1647.500000
 20
496.191028
 42
0.000000
  0
VERTEX
  8
0
 10
1597.098141
 20
485.108517
 42
0.000000
  0
VERTEX
  8
0
 10
1546.696283
 20
474.026005
 42
0.000000
  0
VERTEX
  8
0
 10
1522.098141
 20
457.869825
 42
-0.006995
  0
VERTEX
  8
0
 10
1509.563934
 20
449.886037
 42
-0.002459
  0
VERTEX
  8
0
 10
1491.360079
 20
438.769094
 42
-0.002441
  0
VERTEX
  8
0
 10
1471.223463
 20
426.741194
 42
-0.002859
  0
VERTEX
  8
0
 10
1452.000000
 20
415.533459
 42
0.002808
  0
VERTEX
  8
0
 10
1423.886000
 20
399.146168
 42
0.008152
  0
VERTEX
  8
0
 10
1404.699944
 20
387.392076
 42
0.006784
  0
VERTEX
  8
0
 10
1384.107150
 20
373.914142
 42
0.001478
  0
VERTEX
  8
0
 10
1349.000000
 20
350.098850
 42
0.000000
  0
VERTEX
  8
0
 10
1291.500000
 20
310.844426
 42
0.000000
  0
VERTEX
  8
0
 10
1277.500000
 20
296.256979
 42
0.009451
  0
VERTEX
  8
0
 10
1269.180551
 20
287.253843
 42
0.015490
  0
VERTEX
  8
0
 10
1262.524129
 20
279.287767
 42
0.011576
  0
VERTEX
  8
0
 10
1255.169745
 20
269.450063
 42
0.003074
  0
VERTEX
  8
0
 10
1243.901621
 20
253.418369
 42
-0.004533
  0
VERTEX
  8
0
 10
1231.507720
 20
235.893855
 42
-0.012723
  0
VERTEX
  8
0
 10
1222.413141
 20
223.932349
 42
-0.010108
  0
VERTEX
  8
0
 10
1211.649107
 20
211.041632
 42
-0.002036
  0
VERTEX
  8
0
 10
1191.951042
 20
188.583603
 42
-0.001115
  0
VERTEX
  8
0
 10
1172.987222
 20
167.235624
 42
-0.009887
  0
VERTEX
  8
0
 10
1164.419879
 20
158.008348
 42
-0.017144
  0
VERTEX
  8
0
 10
1159.242376
 20
153.003859
 42
-0.180179
  0
VERTEX
  8
0
 10
1156.549421
 20
151.935777
 42
0.007473
  0
VERTEX
  8
0
 10
1154.469040
 20
151.860846
 42
0.000389
  0
VERTEX
  8
0
 10
1147.786392
 20
151.514869
 42
0.000616
  0
VERTEX
  8
0
 10
1139.840980
 20
151.087494
 42
0.000448
  0
VERTEX
  8
0
 10
1131.000000
 20
150.593081
 42
-0.001251
  0
VERTEX
  8
0
 10
1122.348009
 20
150.123183
 42
-0.002040
  0
VERTEX
  8
0
 10
1115.004969
 20
149.772837
 42
-0.000253
  0
VERTEX
  8
0
 10
1108.468528
 20
149.491007
 42
-0.179996
  0
VERTEX
  8
0
 10
1108.144574
 20
149.596063
 42
-0.160847
  0
VERTEX
  8
0
 10
1107.607293
 20
150.412449
 42
-0.000102
  0
VERTEX
  8
0
 10
1100.366701
 20
177.316411
 42
-0.000232
  0
VERTEX
  8
0
 10
1093.297784
 20
203.652428
 42
-0.065536
  0
VERTEX
  8
0
 10
1093.000000
 20
205.914594
 42
-0.105648
  0
VERTEX
  8
0
 10
1093.226863
 20
206.976289
 42
-0.000462
  0
VERTEX
  8
0
 10
1098.023498
 20
217.661206
 42
-0.002208
  0
VERTEX
  8
0
 10
1103.545695
 20
229.788611
 42
-0.001388
  0
VERTEX
  8
0
 10
1110.101271
 20
243.915123
 42
-0.002720
  0
VERTEX
  8
0
 10
1119.418757
 20
263.568703
 42
-0.007943
  0
VERTEX
  8
0
 10
1126.134852
 20
276.988122
 42
-0.010480
  0
VERTEX
  8
0
 10
1132.128352
 20
287.936414
 42
-0.009118
  0
VERTEX
  8
0
 10
1138.851271
 20
299.150212
 42
0.000000
  0
VERTEX
  8
0
 10
1150.500000
 20
317.800424
 42
0.000000
  0
VERTEX
  8
0
 10
1162.841355
 20
325.043594
 42
-0.012143
  0
VERTEX
  8
0
 10
1170.316270
 20
329.189967
 42
-0.019990
  0
VERTEX
  8
0
 10
1176.848566
 20
332.282725
 42
-0.015549
  0
VERTEX
  8
0
 10
1184.660567
 20
335.322760
 42
-0.004557
  0
VERTEX
  8
0
 10
1196.841355
 20
339.507339
 42
0.007150
  0
VERTEX
  8
0
 10
1206.548188
 20
342.898397
 42
0.004424
  0
VERTEX
  8
0
 10
1217.859605
 20
347.146261
 42
0.004437
  0
VERTEX
  8
0
 10
1228.959550
 20
351.540690
 42
0.007964
  0
VERTEX
  8
0
 10
1237.978577
 20
355.372648
 42
-0.006083
  0
VERTEX
  8
0
 10
1248.613766
 20
359.938570
 42
-0.012575
  0
VERTEX
  8
0
 10
1257.051491
 20
363.193893
 42
-0.013575
  0
VERTEX
  8
0
 10
1265.218930
 20
365.863504
 42
-0.008470
  0
VERTEX
  8
0
 10
1274.918418
 20
368.567002
 42
0.001869
  0
VERTEX
  8
0
 10
1281.685852
 20
370.357338
 42
0.002833
  0
VERTEX
  8
0
 10
1287.557446
 20
371.969914
 42
0.001071
  0
VERTEX
  8
0
 10
1292.592818
 20
373.395209
 42
0.069007
  0
VERTEX
  8
0
 10
1293.424822
 20
373.762554
 42
0.038542
  0
VERTEX
  8
0
 10
1299.229483
 20
378.000338
 42
0.000313
  0
VERTEX
  8
0
 10
1342.378463
 20
414.960151
 42
0.000135
  0
VERTEX
  8
0
 10
1386.857951
 20
453.128700
 42
0.093380
  0
VERTEX
  8
0
 10
1388.816442
 20
455.574918
 42
0.157265
  0
VERTEX
  8
0
 10
1389.248136
 20
457.989412
 42
0.028732
  0
VERTEX
  8
0
 10
1388.368518
 20
462.502277
 42
0.013449
  0
VERTEX
  8
0
 10
1386.137600
 20
470.353723
 42
0.001485
  0
VERTEX
  8
0
 10
1380.496258
 20
488.166390
 42
0.002369
  0
VERTEX
  8
0
 10
1376.713222
 20
499.799114
 42
0.003673
  0
VERTEX
  8
0
 10
1373.326665
 20
509.800131
 42
0.001168
  0
VERTEX
  8
0
 10
1370.313835
 20
518.421806
 42
0.112187
  0
VERTEX
  8
0
 10
1369.621413
 20
519.521444
 42
0.118217
  0
VERTEX
  8
0
 10
1368.440970
 20
520.245270
 42
0.000045
  0
VERTEX
  8
0
 10
1320.589076
 20
535.817820
 42
0.000718
  0
VERTEX
  8
0
 10
1267.388767
 20
553.041179
 42
0.000436
  0
VERTEX
  8
0
 10
1204.441596
 20
573.259692
 42
0.000000
  0
VERTEX
  8
0
 10
1040.500000
 20
625.759719
 42
0.000000
  0
VERTEX
  8
0
 10
984.000000
 20
653.259173
 42
0.001543
  0
VERTEX
  8
0
 10
951.122602
 20
669.135838
 42
0.006324
  0
VERTEX
  8
0
 10
931.031719
 20
678.450926
 42
0.008457
  0
VERTEX
  8
0
 10
913.692434
 20
685.875737
 42
0.004581
  0
VERTEX
  8
0
 10
892.131952
 20
694.450014
 42
0.000000
  0
VERTEX
  8
0
 10
856.763903
 20
708.141402
 42
0.000000
  0
VERTEX
  8
0
 10
823.131952
 20
715.977420
 42
0.000788
  0
VERTEX
  8
0
 10
809.813324
 20
719.058441
 42
0.001028
  0
VERTEX
  8
0
 10
797.616886
 20
721.833218
 42
0.000760
  0
VERTEX
  8
0
 10
787.385412
 20
724.122504
 42
0.009529
  0
VERTEX
  8
0
 10
783.500000
 20
724.908282
 42
0.021347
  0
VERTEX
  8
0
 10
779.454891
 20
725.469253
 42
0.001317
  0
VERTEX
  8
0
 10
767.365625
 20
726.590445
 42
0.001953
  0
VERTEX
  8
0
 10
752.950239
 20
727.832355
 42
0.001445
  0
VERTEX
  8
0
 10
737.000000
 20
729.097351
 42
-0.002103
  0
VERTEX
  8
0
 10
716.943635
 20
730.714550
 42
-0.005525
  0
VERTEX
  8
0
 10
702.577193
 20
732.093850
 42
-0.007580
  0
VERTEX
  8
0
 10
691.769616
 20
733.418128
 42
-0.015570
  0
VERTEX
  8
0
 10
683.362991
 20
734.845787
 42
0.000000
  0
VERTEX
  8
0
 10
670.225982
 20
737.500000
 42
0.000000
  0
VERTEX
  8
0
 10
595.362991
 20
801.469680
 42
0.003269
  0
VERTEX
  8
0
 10
534.555652
 20
852.744936
 42
0.004913
  0
VERTEX
  8
0
 10
480.790560
 20
896.596800
 42
0.005553
  0
VERTEX
  8
0
 10
432.010247
 20
934.710940
 42
0.007186
  0
VERTEX
  8
0
 10
386.380384
 20
968.527402
 42
0.000000
  0
VERTEX
  8
0
 10
350.260767
 20
994.500000
 42
0.000000
  0
VERTEX
  8
0
 10
269.657397
 20
1028.000000
 42
-0.000980
  0
VERTEX
  8
0
 10
238.749466
 20
1040.916913
 42
-0.001623
  0
VERTEX
  8
0
 10
212.723404
 20
1051.953125
 42
-0.000116
  0
VERTEX
  8
0
 10
189.411259
 20
1061.934344
 42
-0.292777
  0
VERTEX
  8
0
 10
189.027263
 20
1062.500000
 42
-0.099582
  0
VERTEX
  8
0
 10
189.154731
 20
1063.234842
 42
-0.001062
  0
VERTEX
  8
0
 10
191.036813
 20
1068.053125
 42
-0.003317
  0
VERTEX
  8
0
 10
193.261136
 20
1073.603647
 42
-0.002145
  0
VERTEX
  8
0
 10
195.905867
 20
1080.000000
 42
0.000000
  0
VERTEX
  8
0
 10
202.811234
 20
1096.500000
 42
0.000000
  0
VERTEX
  8
0
 10
209.155617
 20
1097.125010
 42
-0.016665
  0
VERTEX
  8
0
 10
213.420785
 20
1097.402083
 42
-0.001020
  0
VERTEX
  8
0
 10
226.166222
 20
1097.778239
 42
-0.001518
  0
VERTEX
  8
0
 10
241.354148
 20
1098.149343
 42
-0.001123
  0
VERTEX
  8
0
 10
258.154926
 20
1098.471095
 42
0.000000
  0
VERTEX
  8
0
 10
300.809852
 20
1099.192169
 42
0.000000
  0
VERTEX
  8
0
 10
388.819852
 20
1047.151825
 42
0.001004
  0
VERTEX
  8
0
 10
424.643475
 20
1026.066254
 42
0.002009
  0
VERTEX
  8
0
 10
453.055567
 20
1009.572790
 42
0.000322
  0
VERTEX
  8
0
 10
477.256283
 20
995.674505
 42
0.150073
  0
VERTEX
  8
0
 10
479.015271
 20
995.276103
 42
0.235801
  0
VERTEX
  8
0
 10
481.866115
 20
996.978512
 42
0.006791
  0
VERTEX
  8
0
 10
489.538788
 20
1009.333148
 42
0.008581
  0
VERTEX
  8
0
 10
496.699305
 20
1021.695500
 42
0.155529
  0
VERTEX
  8
0
 10
497.591726
 20
1026.114939
 42
0.095187
  0
VERTEX
  8
0
 10
497.016536
 20
1027.980078
 42
0.000306
  0
VERTEX
  8
0
 10
485.496612
 20
1049.601138
 42
0.001706
  0
VERTEX
  8
0
 10
472.353579
 20
1074.031095
 42
0.001066
  0
VERTEX
  8
0
 10
456.802227
 20
1102.557429
 42
0.000000
  0
VERTEX
  8
0
 10
416.287150
 20
1176.500000
 42
0.000000
  0
VERTEX
  8
0
 10
400.546286
 20
1219.000000
 42
0.003856
  0
VERTEX
  8
0
 10
392.787330
 20
1239.463065
 42
0.001689
  0
VERTEX
  8
0
 10
382.204089
 20
1266.467418
 42
0.001672
  0
VERTEX
  8
0
 10
370.777773
 20
1295.055760
 42
0.002237
  0
VERTEX
  8
0
 10
360.208956
 20
1320.910361
 42
0.000000
  0
VERTEX
  8
0
 10
335.612490
 20
1380.320721
 42
0.000000
  0
VERTEX
  8
0
 10
338.148726
 20
1500.936982
 42
0.000000
  0
VERTEX
  8
0
 10
340.684962
 20
1621.553244
 42
0.000000
  0
VERTEX
  8
0
 10
376.029589
 20
1714.020685
 42
0.000000
  0
VERTEX
  8
0
 10
411.374215
 20
1806.488125
 42
0.000000
  0
VERTEX
  8
0
 10
524.678469
 20
1943.039375
 42
0.000000
  0
VERTEX
  8
0
 10
637.982724
 20
2079.590625
 42
0.000000
  0
VERTEX
  8
0
 10
699.241362
 20
2106.950031
 42
-0.002658
  0
VERTEX
  8
0
 10
728.289224
 20
2119.738643
 42
-0.001288
  0
VERTEX
  8
0
 10
765.564650
 20
2135.799528
 42
-0.001277
  0
VERTEX
  8
0
 10
804.474375
 20
2152.328394
 42
-0.001840
  0
VERTEX
  8
0
 10
839.000000
 20
2166.741493
 42
-0.001494
  0
VERTEX
  8
0
 10
885.082125
 20
2185.619167
 42
-0.004101
  0
VERTEX
  8
0
 10
917.759543
 20
2198.580448
 42
-0.004097
  0
VERTEX
  8
0
 10
950.665407
 20
2211.011948
 42
-0.001488
  0
VERTEX
  8
0
 10
997.525485
 20
2228.119612
 42
0.000000
  0
VERTEX
  8
0
 10
1077.550969
 20
2257.065676
 42
0.000000
  0
VERTEX
  8
0
 10
1202.525485
 20
2277.448574
 42
-0.000457
  0
VERTEX
  8
0
 10
1267.650609
 20
2288.009179
 42
-0.002350
  0
VERTEX
  8
0
 10
1303.776423
 20
2293.659369
 42
-0.002132
  0
VERTEX
  8
0
 10
1327.421471
 20
2297.140717
 42
-0.052901
  0
VERTEX
  8
0
 10
1334.000000
 20
2297.379070
 42
0.001677
  0
VERTEX
  8
0
 10
1339.096315
 20
2297.041532
 42
0.000008
  0
VERTEX
  8
0
 10
1392.439384
 20
2293.688967
 42
0.000037
  0
VERTEX
  8
0
 10
1453.076282
 20
2289.883387
 42
0.000023
  0
SEQEND
  0
POLYLINE
  8
0
 66
1
 70
1
  0
VERTEX
  8
0
 10
1457.000000
 20
2267.285079
 42
0.000000
  0
VERTEX
  8
0
 10
1389.500000
 20
2265.869888
 42
0.000000
  0
VERTEX
  8
0
 10
1289.500000
 20
2250.951093
 42
0.000000
  0
VERTEX
  8
0
 10
1189.500000
 20
2236.032298
 42
0.000000
  0
VERTEX
  8
0
 10
1130.333849
 20
2220.106085
 42
0.000000
  0
VERTEX
  8
0
 10
1071.167698
 20
2204.179873
 42
0.000000
  0
VERTEX
  8
0
 10
944.833849
 20
2148.550008
 42
0.000000
  0
VERTEX
  8
0
 10
818.500000
 20
2092.920143
 42
0.000000
  0
VERTEX
  8
0
 10
760.814214
 20
2056.838877
 42
0.000000
  0
VERTEX
  8
0
 10
703.128427
 20
2020.757611
 42
0.000000
  0
VERTEX
  8
0
 10
636.314214
 20
1962.103675
 42
0.000000
  0
VERTEX
  8
0
 10
569.500000
 20
1903.449738
 42
0.000000
  0
VERTEX
  8
0
 10
537.152618
 20
1855.474869
 42
0.000195
  0
VERTEX
  8
0
 10
523.103075
 20
1834.620274
 42
0.000145
  0
VERTEX
  8
0
 10
507.620718
 20
1811.605118
 42
0.000147
  0
VERTEX
  8
0
 10
493.039543
 20
1789.902258
 42
0.000334
  0
VERTEX
  8
0
 10
482.042474
 20
1773.500000
 42
0.000000
  0
VERTEX
  8
0
 10
459.279712
 20
1739.500000
 42
0.000000
  0
VERTEX
  8
0
 10
424.023407
 20
1648.000000
 42
0.000000
  0
VERTEX
  8
0
 10
388.767103
 20
1556.500000
 42
0.000000
  0
VERTEX
  8
0
 10
384.865125
 20
1487.000000
 42
0.000928
  0
VERTEX
  8
0
 10
383.403534
 20
1460.074116
 42
0.001423
  0
VERTEX
  8
0
 10
382.246947
 20
1436.740625
 42
0.000467
  0
VERTEX
  8
0
 10
381.322315
 20
1416.543393
 42
0.040368
  0
VERTEX
  8
0
 10
381.431551
 20
1413.500000
 42
0.043240
  0
VERTEX
  8
0
 10
382.022357
 20
1410.629672
 42
0.000995
  0
VERTEX
  8
0
 10
386.017816
 20
1397.309375
 42
0.002213
  0
VERTEX
  8
0
 10
390.801548
 20
1381.725049
 42
0.001497
  0
VERTEX
  8
0
 10
396.386608
 20
1364.000000
 42
-0.000889
  0
VERTEX
  8
0
 10
405.131755
 20
1336.363246
 42
-0.009608
  0
VERTEX
  8
0
 10
408.430440
 20
1325.123592
 42
-0.018470
  0
VERTEX
  8
0
 10
409.906285
 20
1318.801046
 42
-0.194365
  0
VERTEX
  8
0
 10
409.410686
 20
1316.245587
 42
0.123322
  0
VERTEX
  8
0
 10
408.622810
 20
1313.946133
 42
0.015499
  0
VERTEX
  8
0
 10
408.338195
 20
1308.651204
 42
0.009646
  0
VERTEX
  8
0
 10
408.308077
 20
1299.832993
 42
0.001472
  0
VERTEX
  8
0
 10
408.638854
 20
1282.259360
 42
0.001993
  0
VERTEX
  8
0
 10
409.027791
 20
1267.159118
 42
0.007109
  0
VERTEX
  8
0
 10
409.452612
 20
1257.500582
 42
0.004878
  0
VERTEX
  8
0
 10
409.915657
 20
1250.694596
 42
0.178797
  0
VERTEX
  8
0
 10
410.558460
 20
1249.298683
 42
0.149756
  0
VERTEX
  8
0
 10
411.597499
 20
1248.747011
 42
0.016419
  0
VERTEX
  8
0
 10
414.296392
 20
1248.317119
 42
0.016665
  0
VERTEX
  8
0
 10
417.925946
 20
1247.982999
 42
0.008028
  0
VERTEX
  8
0
 10
422.593474
 20
1247.784910
 42
0.000000
  0
VERTEX
  8
0
 10
433.399626
 20
1247.500000
 42
0.000000
  0
VERTEX
  8
0
 10
439.557013
 20
1227.916378
 42
0.001815
  0
VERTEX
  8
0
 10
441.981177
 20
1220.303022
 42
0.002683
  0
VERTEX
  8
0
 10
444.167928
 20
1213.643131
 42
0.001218
  0
VERTEX
  8
0
 10
446.076269
 20
1207.980569
 42
0.051974
  0
VERTEX
  8
0
 10
446.607200
 20
1206.827005
 42
0.020595
  0
VERTEX
  8
0
 10
447.378095
 20
1205.641043
 42
0.000015
  0
VERTEX
  8
0
 10
468.534615
 20
1175.855531
 42
0.000179
  0
VERTEX
  8
0
 10
492.139226
 20
1142.650774
 42
0.000109
  0
VERTEX
  8
0
 10
520.000000
 20
1103.506660
 42
0.000000
  0
VERTEX
  8
0
 10
592.500000
 20
1001.692067
 42
0.000000
  0
VERTEX
  8
0
 10
697.500000
 20
908.996283
 42
-0.000509
  0
VERTEX
  8
0
 10
756.849635
 20
856.493882
 42
-0.003109
  0
VERTEX
  8
0
 10
787.303058
 20
829.158577
 42
-0.006000
  0
VERTEX
  8
0
 10
806.374006
 20
811.402452
 42
-0.013548
  0
VERTEX
  8
0
 10
820.281173
 20
797.400250
 42
0.000602
  0
VERTEX
  8
0
 10
827.186523
 20
790.077993
 42
0.000914
  0
VERTEX
  8
0
 10
833.207999
 20
783.731651
 42
0.000327
  0
VERTEX
  8
0
 10
838.414261
 20
778.271727
 42
0.023377
  0
VERTEX
  8
0
 10
839.318086
 20
777.409626
 42
0.068147
  0
VERTEX
  8
0
 10
840.434348
 20
776.679968
 42
0.000047
  0
VERTEX
  8
0
 10
873.094109
 20
761.193806
 42
0.000561
  0
VERTEX
  8
0
 10
909.519473
 20
743.976323
 42
0.000343
  0
VERTEX
  8
0
 10
952.536913
 20
723.737997
 42
0.000000
  0
VERTEX
  8
0
 10
1064.500000
 20
671.156741
 42
0.000000
  0
VERTEX
  8
0
 10
1205.000000
 20
636.459085
 42
0.000000
  0
VERTEX
  8
0
 10
1345.500000
 20
601.761429
 42
0.000000
  0
VERTEX
  8
0
 10
1495.000000
 20
592.833855
 42
0.000000
  0
VERTEX
  8
0
 10
1644.500000
 20
583.906281
 42
0.000000
  0
VERTEX
  8
0
 10
1757.500000
 20
611.150047
 42
0.000571
  0
VERTEX
  8
0
 10
1800.852194
 20
621.654432
 42
0.000946
  0
VERTEX
  8
0
 10
1837.404777
 20
630.628696
 42
0.000045
  0
VERTEX
  8
0
 10
1870.351481
 20
638.786877
 42
0.238125
  0
VERTEX
  8
0
 10
1870.835410
 20
639.203137
 42
-0.096307
  0
VERTEX
  8
0
 10
1871.017675
 20
639.478376
 42
-0.113588
  0
VERTEX
  8
0
 10
1871.280557
 20
639.646008
 42
-0.117223
  0
VERTEX
  8
0
 10
1871.583580
 20
639.678885
 42
-0.107477
  0
VERTEX
  8
0
 10
1871.879803
 20
639.574286
 42
0.319890
  0
VERTEX
  8
0
 10
1872.790949
 20
639.634173
 42
0.000010
  0
VERTEX
  8
0
 10
1965.794049
 20
715.592621
 42
0.000127
  0
VERTEX
  8
0
 10
2054.398421
 20
787.999149
 42
0.018704
  0
VERTEX
  8
0
 10
2064.357358
 20
796.783148
 42
0.077329
  0
VERTEX
  8
0
 10
2066.311418
 20
799.320525
 42
0.000495
  0
VERTEX
  8
0
 10
2080.013063
 20
824.347211
 42
0.001896
  0
VERTEX
  8
0
 10
2096.048307
 20
853.971665
 42
0.001029
  0
VERTEX
  8
0
 10
2115.545121
 20
890.500000
 42
0.000000
  0
VERTEX
  8
0
 10
2163.875526
 20
981.500000
 42
0.000000
  0
VERTEX
  8
0
 10
2261.452550
 20
1110.042398
 42
0.000358
  0
VERTEX
  8
0
 10
2298.994385
 20
1159.571494
 42
0.000576
  0
VERTEX
  8
0
 10
2330.913487
 20
1201.846356
 42
0.000085
  0
VERTEX
  8
0
 10
2359.205888
 20
1239.421152
 42
0.038323
  0
VERTEX
  8
0
 10
2360.892258
 20
1242.060161
 42
0.020891
  0
VERTEX
  8
0
 10
2362.062813
 20
1244.481968
 42
0.001084
  0
VERTEX
  8
0
 10
2365.486844
 20
1252.440670
 42
0.001717
  0
VERTEX
  8
0
 10
2369.506021
 20
1261.928758
 42
0.001246
  0
VERTEX
  8
0
 10
2373.917718
 20
1272.517763
 42
0.000000
  0
VERTEX
  8
0
 10
2385.080495
 20
1299.500000
 42
0.000000
  0
VERTEX
  8
0
 10
2442.290247
 20
1322.183903
 42
0.000000
  0
VERTEX
  8
0
 10
2499.500000
 20
1344.867806
 42
0.000000
  0
VERTEX
  8
0
 10
2557.000000
 20
1345.919040
 42
0.000000
  0
VERTEX
  8
0
 10
2614.500000
 20
1346.970274
 42
0.000000
  0
VERTEX
  8
0
 10
2648.849061
 20
1360.012769
 42
0.001826
  0
VERTEX
  8
0
 10
2662.104482
 20
1365.101376
 42
0.002855
  0
VERTEX
  8
0
 10
2673.471717
 20
1369.587663
 42
0.000792
  0
VERTEX
  8
0
 10
2683.334988
 20
1373.563766
 42
0.100491
  0
VERTEX
  8
0
 10
2684.436017
 20
1374.293160
 42
0.191669
  0
VERTEX
  8
0
 10
2685.097509
 20
1375.829161
 42
0.004826
  0
VERTEX
  8
0
 10
2685.238726
 20
1383.563214
 42
0.006326
  0
VERTEX
  8
0
 10
2685.191624
 20
1395.203979
 42
0.001281
  0
VERTEX
  8
0
 10
2684.793718
 20
1415.862201
 42
0.000000
  0
VERTEX
  8
0
 10
2683.913524
 20
1456.193347
 42
0.000000
  0
VERTEX
  8
0
 10
2674.088336
 20
1495.596673
 42
0.000000
  0
VERTEX
  8
0
 10
2664.263148
 20
1535.000000
 42
0.000000
  0
VERTEX
  8
0
 10
2668.703003
 20
1535.000000
 42
0.080494
  0
VERTEX
  8
0
 10
2672.962759
 20
1535.690238
 42
0.232357
  0
VERTEX
  8
0
 10
2675.035083
 20
1537.731686
 42
0.080013
  0
VERTEX
  8
0
 10
2675.843875
 20
1542.263616
 42
0.005189
  0
VERTEX
  8
0
 10
2675.931628
 20
1555.678571
 42
0.002794
  0
VERTEX
  8
0
 10
2675.853440
 20
1563.974172
 42
0.001466
  0
VERTEX
  8
0
 10
2675.668279
 20
1574.290582
 42
0.001458
  0
VERTEX
  8
0
 10
2675.416674
 20
1584.862105
 42
0.002241
  0
VERTEX
  8
0
 10
2675.131133
 20
1594.012773
 42
0.000000
  0
VERTEX
  8
0
 10
2674.399010
 20
1614.525546
 42
0.000000
  0
VERTEX
  8
0
 10
2666.514620
 20
1637.425533
 42
0.003014
  0
VERTEX
  8
0
 10
2661.725047
 20
1651.068979
 42
0.018839
  0
VERTEX
  8
0
 10
2658.972316
 20
1657.934717
 42
0.032822
  0
VERTEX
  8
0
 10
2656.406349
 20
1662.808508
 42
0.023384
  0
VERTEX
  8
0
 10
2652.936854
 20
1667.912760
 42
0.014540
  0
VERTEX
  8
0
 10
2646.654084
 20
1675.797116
 42
0.024285
  0
VERTEX
  8
0
 10
2640.870011
 20
1682.000121
 42
0.028556
  0
VERTEX
  8
0
 10
2635.326891
 20
1686.809842
 42
0.038753
  0
VERTEX
  8
0
 10
2629.786664
 20
1690.440514
 42
0.005571
  0
VERTEX
  8
0
 10
2627.165106
 20
1691.843890
 42
0.008395
  0
VERTEX
  8
0
 10
2624.847131
 20
1693.002659
 42
0.004101
  0
VERTEX
  8
0
 10
2622.869009
 20
1693.930493
 42
0.164065
  0
VERTEX
  8
0
 10
2622.398468
 20
1693.980152
 42
-0.119817
  0
VERTEX
  8
0
 10
2622.095226
 20
1693.985736
 42
-0.062400
  0
VERTEX
  8
0
 10
2621.742130
 20
1694.127402
 42
-0.056590
  0
VERTEX
  8
0
 10
2621.395967
 20
1694.374137
 42
-0.055678
  0
VERTEX
  8
0
 10
2621.111803
 20
1694.693432
 42
0.133691
  0
VERTEX
  8
0
 10
2619.379918
 20
1696.119857
 42
0.007464
  0
VERTEX
  8
0
 10
2612.911657
 20
1698.917703
 42
0.011689
  0
VERTEX
  8
0
 10
2606.428255
 20
1701.431953
 42
0.047336
  0
VERTEX
  8
0
 10
2602.328732
 20
1702.487316
 42
-0.028273
  0
VERTEX
  8
0
 10
2599.955449
 20
1703.002832
 42
-0.102389
  0
VERTEX
  8
0
 10
2598.588028
 20
1703.705177
 42
-0.101082
  0
VERTEX
  8
0
 10
2597.602299
 20
1704.897667
 42
-0.027174
  0
VERTEX
  8
0
 10
2596.561856
 20
1707.137011
 42
0.073582
  0
VERTEX
  8
0
 10
2594.791139
 20
1710.176471
 42
0.000397
  0
VERTEX
  8
0
 10
2573.493954
 20
1736.772737
 42
0.001651
  0
VERTEX
  8
0
 10
2548.271963
 20
1768.007194
 42
0.000888
  0
VERTEX
  8
0
 10
2516.975033
 20
1806.364540
 42
0.000000
  0
VERTEX
  8
0
 10
2438.983818
 20
1901.604251
 42
0.000000
  0
VERTEX
  8
0
 10
2340.421446
 20
1985.552126
 42
0.000279
  0
VERTEX
  8
0
 10
2302.374094
 20
2017.921361
 42
0.000441
  0
VERTEX
  8
0
 10
2269.730907
 20
2045.611984
 42
0.000092
  0
VERTEX
  8
0
 10
2240.976638
 20
2069.951041
 42
0.020559
  0
VERTEX
  8
0
 10
2238.179537
 20
2072.126970
 42
0.000000
  0
VERTEX
  8
0
 10
2234.500000
 20
2074.753940
 42
0.000000
  0
VERTEX
  8
0
 10
2196.000000
 20
2073.896757
 42
0.001114
  0
VERTEX
  8
0
 10
2181.090836
 20
2073.531580
 42
0.001712
  0
VERTEX
  8
0
 10
2168.185963
 20
2073.142506
 42
0.000552
  0
VERTEX
  8
0
 10
2157.012653
 20
2072.755004
 42
0.049699
  0
VERTEX
  8
0
 10
2155.377745
 20
2072.532797
 42
0.159632
  0
VERTEX
  8
0
 10
2153.958188
 20
2071.660514
 42
0.005542
  0
VERTEX
  8
0
 10
2149.766344
 20
2066.603487
 42
0.008770
  0
VERTEX
  8
0
 10
2144.535423
 20
2059.912022
 42
0.004020
  0
VERTEX
  8
0
 10
2137.938431
 20
2051.013010
 42
0.000000
  0
VERTEX
  8
0
 10
2122.621372
 20
2030.000000
 42
0.000000
  0
VERTEX
  8
0
 10
2111.560686
 20
2029.994743
 42
0.004253
  0
VERTEX
  8
0
 10
2104.203607
 20
2029.928668
 42
0.000280
  0
VERTEX
  8
0
 10
2083.001546
 20
2029.545982
 42
0.000406
  0
VERTEX
  8
0
 10
2057.729440
 20
2029.055112
 42
0.000303
  0
VERTEX
  8
0
 10
2029.870108
 20
2028.474429
 42
0.000000
  0
VERTEX
  8
0
 10
1959.240217
 20
2026.959372
 42
0.000000
  0
VERTEX
  8
0
 10
1858.229808
 20
2084.729686
 42
0.000000
  0
VERTEX
  8
0
 10
1757.219399
 20
2142.500000
 42
0.000000
  0
VERTEX
  8
0
 10
1736.909146
 20
2193.276510
 42
0.001632
  0
VERTEX
  8
0
 10
1729.007428
 20
2212.845669
 42
0.002581
  0
VERTEX
  8
0
 10
1722.091720
 20
2229.565761
 42
0.000607
  0
VERTEX
  8
0
 10
1715.944417
 20
2244.163889
 42
0.109296
  0
VERTEX
  8
0
 10
1714.987624
 20
2245.511200
 42
0.143189
  0
VERTEX
  8
0
 10
1713.183830
 20
2246.385021
 42
0.000939
  0
VERTEX
  8
0
 10
1695.651614
 20
2249.300694
 42
0.002941
  0
VERTEX
  8
0
 10
1672.718844
 20
2252.931870
 42
0.000980
  0
VERTEX
  8
0
 10
1639.103233
 20
2257.984690
 42
0.000000
  0
VERTEX
  8
0
 10
1564.830113
 20
2269.000000
 42
0.000000
  0
VERTEX
  8
0
 10
1544.665056
 20
2268.850135
 42
0.002228
  0
VERTEX
  8
0
 10
1532.957393
 20
2268.710949
 42
0.000377
  0
VERTEX
  8
0
 10
1510.595360
 20
2268.328580
 42
0.000412
  0
VERTEX
  8
0
 10
1484.321314
 20
2267.837873
 42
0.000366
  0
SEQEND
  0
POLYLINE
  8
0
 66
1
 70
1
  0
VERTEX
  8
0
 10
1636.226479
 20
2254.000000
 42
0.000201
  0
VERTEX
  8
0
 10
1664.754142
 20
2249.782618
 42
0.000327
  0
VERTEX
  8
0
 10
1688.953301
 20
2246.231250
 42
0.000030
  0
VERTEX
  8
0
 10
1710.643128
 20
2243.063955
 42
0.036252
  0
VERTEX
  8
0
 10
1711.524072
 20
2243.000000
 42
-0.301334
  0
VERTEX
  8
0
 10
1712.134280
 20
2242.595519
 42
-0.000359
  0
VERTEX
  8
0
 10
1718.258728
 20
2228.083820
 42
-0.002875
  0
VERTEX
  8
0
 10
1725.052472
 20
2211.691116
 42
-0.001743
  0
VERTEX
  8
0
 10
1732.911482
 20
2192.221514
 42
0.000835
  0
VERTEX
  8
0
 10
1740.772675
 20
2172.644141
 42
0.001324
  0
VERTEX
  8
0
 10
1747.579672
 20
2155.901556
 42
0.000279
  0
VERTEX
  8
0
 10
1753.612880
 20
2141.197433
 42
0.061415
  0
VERTEX
  8
0
 10
1754.351441
 20
2139.885063
 42
0.102531
  0
VERTEX
  8
0
 10
1755.488053
 20
2138.865475
 42
0.000105
  0
VERTEX
  8
0
 10
1784.824706
 20
2121.809583
 42
0.001025
  0
VERTEX
  8
0
 10
1817.680398
 20
2102.807043
 42
0.000629
  0
VERTEX
  8
0
 10
1856.477347
 20
2080.539293
 42
0.000000
  0
VERTEX
  8
0
 10
1957.454694
 20
2022.751488
 42
0.000000
  0
VERTEX
  8
0
 10
2040.477347
 20
2024.453979
 42
0.000939
  0
VERTEX
  8
0
 10
2073.710771
 20
2025.197892
 42
0.001822
  0
VERTEX
  8
0
 10
2100.256190
 20
2025.938755
 42
0.000158
  0
VERTEX
  8
0
 10
2123.267650
 20
2026.672176
 42
0.307090
  0
VERTEX
  8
0
 10
2123.835410
 20
2027.084465
 42
-0.100626
  0
VERTEX
  8
0
 10
2124.027123
 20
2027.398987
 42
-0.120619
  0
VERTEX
  8
0
 10
2124.315891
 20
2027.589311
 42
-0.121617
  0
VERTEX
  8
0
 10
2124.658001
 20
2027.623850
 42
-0.103403
  0
VERTEX
  8
0
 10
2125.000087
 20
2027.499946
 42
0.378891
  0
VERTEX
  8
0
 10
2125.560987
 20
2027.596679
 42
0.001373
  0
VERTEX
  8
0
 10
2130.077058
 20
2033.262935
 42
0.005842
  0
VERTEX
  8
0
 10
2135.196727
 20
2039.880222
 42
0.003522
  0
VERTEX
  8
0
 10
2141.118890
 20
2047.838335
 42
0.000000
  0
VERTEX
  8
0
 10
2156.408426
 20
2068.689238
 42
0.000000
  0
VERTEX
  8
0
 10
2182.454213
 20
2069.342572
 42
-0.001192
  0
VERTEX
  8
0
 10
2193.379410
 20
2069.590556
 42
-0.001081
  0
VERTEX
  8
0
 10
2204.667800
 20
2069.795442
 42
-0.001082
  0
VERTEX
  8
0
 10
2214.771499
 20
2069.935112
 42
-0.003475
  0
VERTEX
  8
0
 10
2221.500000
 20
2069.966808
 42
0.000000
  0
VERTEX
  8
0
 10
2234.500000
 20
2069.937711
 42
0.000000
  0
VERTEX
  8
0
 10
2335.698901
 20
1983.718855
 42
0.000000
  0
VERTEX
  8
0
 10
2436.897803
 20
1897.500000
 42
0.000000
  0
VERTEX
  8
0
 10
2514.341709
 20
1802.875412
 42
-0.000576
  0
VERTEX
  8
0
 10
2558.046997
 20
1749.348463
 42
-0.003606
  0
VERTEX
  8
0
 10
2580.172950
 20
1721.782825
 42
-0.004285
  0
VERTEX
  8
0
 10
2593.066084
 20
1705.190202
 42
-0.832246
  0
VERTEX
  8
0
 10
2592.282492
 20
1704.325411
 42
0.096177
  0
VERTEX
  8
0
 10
2591.548256
 20
1704.603298
 42
0.002173
  0
VERTEX
  8
0
 10
2587.827601
 20
1705.225519
 42
0.004807
  0
VERTEX
  8
0
 10
2583.445899
 20
1705.895557
 42
0.003225
  0
VERTEX
  8
0
 10
2578.425358
 20
1706.580942
 42
0.037317
  0
VERTEX
  8
0
 10
2558.060834
 20
1707.694512
 42
0.021519
  0
VERTEX
  8
0
 10
2533.544834
 20
1706.147875
 42
0.021326
  0
VERTEX
  8
0
 10
2508.723252
 20
1702.429974
 42
0.031148
  0
VERTEX
  8
0
 10
2487.330000
 20
1696.885285
 42
0.000000
  0
VERTEX
  8
0
 10
2478.160001
 20
1693.888377
 42
0.000000
  0
VERTEX
  8
0
 10
2473.330000
 20
1697.194188
 42
0.007803
  0
VERTEX
  8
0
 10
2471.370791
 20
1698.490710
 42
0.009237
  0
VERTEX
  8
0
 10
2469.478188
 20
1699.652421
 42
0.008246
  0
VERTEX
  8
0
 10
2467.851409
 20
1700.574267
 42
0.056505
  0
VERTEX
  8
0
 10
2467.000000
 20
1700.920435
 42
0.035423
  0
VERTEX
  8
0
 10
2465.786607
 20
1701.169512
 42
0.000076
  0
VERTEX
  8
0
 10
2446.993750
 20
1703.654957
 42
0.000523
  0
VERTEX
  8
0
 10
2425.835221
 20
1706.427507
 42
0.000325
  0
VERTEX
  8
0
 10
2401.000000
 20
1709.639047
 42
0.000000
  0
VERTEX
  8
0
 10
2336.500000
 20
1717.937223
 42
0.000000
  0
VERTEX
  8
0
 10
2294.500000
 20
1730.364454
 42
0.000000
  0
VERTEX
  8
0
 10
2252.500000
 20
1742.791684
 42
0.000000
  0
VERTEX
  8
0
 10
2227.000000
 20
1742.399287
 42
0.001053
  0
VERTEX
  8
0
 10
2216.089108
 20
1742.208395
 42
0.000854
  0
VERTEX
  8
0
 10
2204.388187
 20
1741.959022
 42
0.000863
  0
VERTEX
  8
0
 10
2193.601077
 20
1741.692060
 42
0.002240
  0
VERTEX
  8
0
 10
2185.832127
 20
1741.451538
 42
0.000000
  0
VERTEX
  8
0
 10
2170.164254
 20
1740.896186
 42
0.000000
  0
VERTEX
  8
0
 10
2091.575883
 20
1816.736606
 42
0.000000
  0
VERTEX
  8
0
 10
2012.987511
 20
1892.577027
 42
0.000000
  0
VERTEX
  8
0
 10
1850.243756
 20
1971.325271
 42
0.000000
  0
VERTEX
  8
0
 10
1687.500000
 20
2050.073515
 42
0.000000
  0
VERTEX
  8
0
 10
1454.500000
 20
2109.644008
 42
0.000000
  0
VERTEX
  8
0
 10
1221.500000
 20
2169.214502
 42
0.000000
  0
VERTEX
  8
0
 10
1120.000000
 20
2172.491471
 42
-0.000109
  0
VERTEX
  8
0
 10
1081.045648
 20
2173.757615
 42
-0.000180
  0
VERTEX
  8
0
 10
1048.168750
 20
2174.845242
 42
-0.000006
  0
VERTEX
  8
0
 10
1018.416667
 20
2175.840570
 42
-0.057239
  0
VERTEX
  8
0
 10
1018.000000
 20
2175.902609
 42
-0.703360
  0
VERTEX
  8
0
 10
1017.988376
 20
2176.042883
 42
-0.000191
  0
VERTEX
  8
0
 10
1025.725000
 20
2179.564315
 42
-0.001724
  0
VERTEX
  8
0
 10
1034.489562
 20
2183.513171
 42
-0.001013
  0
VERTEX
  8
0
 10
1045.000000
 20
2188.179587
 42
0.000000
  0
VERTEX
  8
0
 10
1072.500000
 20
2200.322396
 42
0.000000
  0
VERTEX
  8
0
 10
1131.500000
 20
2216.197830
 42
0.000000
  0
VERTEX
  8
0
 10
1190.500000
 20
2232.073264
 42
0.000000
  0
VERTEX
  8
0
 10
1287.500000
 20
2246.665987
 42
0.000000
  0
VERTEX
  8
0
 10
1384.500000
 20
2261.258710
 42
0.000000
  0
VERTEX
  8
0
 10
1460.500000
 20
2262.979359
 42
-0.000169
  0
VERTEX
  8
0
 10
1490.539381
 20
2263.649315
 42
-0.000222
  0
VERTEX
  8
0
 10
1517.923969
 20
2264.238629
 42
-0.000160
  0
VERTEX
  8
0
 10
1540.884272
 20
2264.715168
 42
-0.002170
  0
VERTEX
  8
0
 10
1549.262448
 20
2264.850004
 42
-0.023052
  0
VERTEX
  8
0
 10
1559.194210
 20
2264.508776
 42
-0.010921
  0
VERTEX
  8
0
 10
1571.940639
 20
2263.200487
 42
-0.005096
  0
VERTEX
  8
0
 10
1592.522538
 20
2260.419309
 42
-0.000667
  0
SEQEND
  0
POLYLINE
  8
0
 66
1
 70
1
  0
VERTEX
  8
0
 10
1124.000000
 20
2167.962248
 42
0.000000
  0
VERTEX
  8
0
 10
1219.500000
 20
2165.041163
 42
0.000000
  0
VERTEX
  8
0
 10
1452.374438
 20
2105.566840
 42
0.000000
  0
VERTEX
  8
0
 10
1685.248875
 20
2046.092517
 42
0.000000
  0
VERTEX
  8
0
 10
1848.081870
 20
1967.304029
 42
0.000000
  0
VERTEX
  8
0
 10
2010.914866
 20
1888.515541
 42
0.000000
  0
VERTEX
  8
0
 10
2088.617561
 20
1813.507770
 42
0.000832
  0
VERTEX
  8
0
 10
2118.565423
 20
1784.694724
 42
0.001348
  0
VERTEX
  8
0
 10
2144.140301
 20
1760.302783
 42
0.000178
  0
VERTEX
  8
0
 10
2166.961039
 20
1738.670172
 42
0.104089
  0
VERTEX
  8
0
 10
2168.516718
 20
1737.714470
 42
0.085766
  0
VERTEX
  8
0
 10
2170.230862
 20
1737.416083
 42
0.001023
  0
VERTEX
  8
0
 10
2181.639783
 20
1737.425341
 42
0.003044
  0
VERTEX
  8
0
 10
2194.849666
 20
1737.543493
 42
0.001980
  0
VERTEX
  8
0
 10
2210.106590
 20
1737.833286
 42
0.000000
  0
VERTEX
  8
0
 10
2249.500000
 20
1738.737633
 42
0.000000
  0
VERTEX
  8
0
 10
2290.034385
 20
1726.937507
 42
0.000478
  0
VERTEX
  8
0
 10
2305.888542
 20
1722.338566
 42
0.000681
  0
VERTEX
  8
0
 10
2319.973568
 20
1718.288189
 42
0.000371
  0
VERTEX
  8
0
 10
2331.896595
 20
1714.886684
 42
0.010288
  0
VERTEX
  8
0
 10
2335.034385
 20
1714.063411
 42
0.025359
  0
VERTEX
  8
0
 10
2338.385536
 20
1713.435210
 42
0.000440
  0
VERTEX
  8
0
 10
2356.761757
 20
1710.963206
 42
0.001114
  0
VERTEX
  8
0
 10
2378.175081
 20
1708.150375
 42
0.000742
  0
VERTEX
  8
0
 10
2402.729044
 20
1705.017650
 42
-0.000716
  0
VERTEX
  8
0
 10
2439.466507
 20
1700.332390
 42
-0.006009
  0
VERTEX
  8
0
 10
2456.028071
 20
1697.993438
 42
-0.010029
  0
VERTEX
  8
0
 10
2465.629289
 20
1696.321835
 42
-0.095895
  0
VERTEX
  8
0
 10
2469.466666
 20
1694.772930
 42
-0.012135
  0
VERTEX
  8
0
 10
2470.811803
 20
1693.854429
 42
-0.017632
  0
VERTEX
  8
0
 10
2471.948234
 20
1692.974916
 42
-0.013315
  0
VERTEX
  8
0
 10
2472.826202
 20
1692.204058
 42
-0.203954
  0
VERTEX
  8
0
 10
2472.987621
 20
1691.843805
 42
-0.217019
  0
VERTEX
  8
0
 10
2472.821074
 20
1691.459086
 42
-0.007200
  0
VERTEX
  8
0
 10
2471.537290
 20
1690.332128
 42
-0.012515
  0
VERTEX
  8
0
 10
2469.935548
 20
1689.034184
 42
-0.008249
  0
VERTEX
  8
0
 10
2468.032940
 20
1687.619133
 42
0.043173
  0
VERTEX
  8
0
 10
2465.120278
 20
1685.119259
 42
0.024242
  0
VERTEX
  8
0
 10
2462.019562
 20
1681.631696
 42
0.017013
  0
VERTEX
  8
0
 10
2458.283199
 20
1676.657649
 42
0.005974
  0
VERTEX
  8
0
 10
2453.251313
 20
1669.275328
 42
0.002826
  0
VERTEX
  8
0
 10
2449.394738
 20
1663.397643
 42
0.003656
  0
VERTEX
  8
0
 10
2445.926245
 20
1657.959003
 42
0.002774
  0
VERTEX
  8
0
 10
2443.080165
 20
1653.367114
 42
0.032341
  0
VERTEX
  8
0
 10
2442.097068
 20
1651.500000
 42
0.025938
  0
VERTEX
  8
0
 10
2438.761317
 20
1642.851593
 42
0.017550
  0
VERTEX
  8
0
 10
2435.828881
 20
1632.698197
 42
0.014531
  0
VERTEX
  8
0
 10
2433.130138
 20
1620.457747
 42
0.008012
  0
VERTEX
  8
0
 10
2430.508277
 20
1605.358010
 42
0.041590
  0
VERTEX
  8
0
 10
2430.389484
 20
1603.728374
 42
0.000516
  0
VERTEX
  8
0
 10
2430.508923
 20
1593.247649
 42
0.001521
  0
VERTEX
  8
0
 10
2430.696535
 20
1581.120703
 42
0.000995
  0
VERTEX
  8
0
 10
2430.983236
 20
1567.139152
 42
0.001390
  0
VERTEX
  8
0
 10
2431.471606
 20
1547.820025
 42
0.008183
  0
VERTEX
  8
0
 10
2431.921732
 20
1537.693193
 42
0.009344
  0
VERTEX
  8
0
 10
2432.425164
 20
1531.371833
 42
0.173520
  0
VERTEX
  8
0
 10
2433.268564
 20
1529.588579
 42
0.178962
  0
VERTEX
  8
0
 10
2435.060687
 20
1528.764017
 42
0.013136
  0
VERTEX
  8
0
 10
2440.560338
 20
1528.484503
 42
0.009240
  0
VERTEX
  8
0
 10
2449.781758
 20
1528.428898
 42
0.001289
  0
VERTEX
  8
0
 10
2468.871134
 20
1528.715790
 42
0.001435
  0
VERTEX
  8
0
 10
2486.832450
 20
1529.083593
 42
0.008379
  0
VERTEX
  8
0
 10
2496.278520
 20
1529.462588
 42
0.007062
  0
VERTEX
  8
0
 10
2502.294726
 20
1529.890348
 42
0.389501
  0
VERTEX
  8
0
 10
2503.000000
 20
1530.658352
 42
-0.070175
  0
VERTEX
  8
0
 10
2503.072321
 20
1531.171106
 42
-0.085953
  0
VERTEX
  8
0
 10
2503.283272
 20
1531.605891
 42
-0.100154
  0
VERTEX
  8
0
 10
2503.596594
 20
1531.896580
 42
-0.137941
  0
VERTEX
  8
0
 10
2503.964329
 20
1532.000000
 42
0.407794
  0
VERTEX
  8
0
 10
2504.409059
 20
1532.435066
 42
0.000891
  0
VERTEX
  8
0
 10
2504.617471
 20
1542.758772
 42
0.004185
  0
VERTEX
  8
0
 10
2504.745346
 20
1555.504162
 42
0.001731
  0
VERTEX
  8
0
 10
2504.714329
 20
1572.750000
 42
0.000000
  0
VERTEX
  8
0
 10
2504.500000
 20
1613.500000
 42
0.000000
  0
VERTEX
  8
0
 10
2507.370079
 20
1620.284318
 42
-0.046545
  0
VERTEX
  8
0
 10
2511.870745
 20
1628.656805
 42
-0.039938
  0
VERTEX
  8
0
 10
2518.054141
 20
1636.524539
 42
-0.041400
  0
VERTEX
  8
0
 10
2525.080407
 20
1642.967429
 42
-0.066764
  0
VERTEX
  8
0
 10
2532.090664
 20
1647.037554
 42
-0.080304
  0
VERTEX
  8
0
 10
2534.549526
 20
1647.619600
 42
-0.105682
  0
VERTEX
  8
0
 10
2536.826565
 20
1647.302405
 42
-0.071616
  0
VERTEX
  8
0
 10
2539.392646
 20
1645.927154
 42
-0.020483
  0
VERTEX
  8
0
 10
2542.923416
 20
1643.095655
 42
-0.117917
  0
VERTEX
  8
0
 10
2544.910163
 20
1640.307772
 42
-0.042214
  0
VERTEX
  8
0
 10
2546.362407
 20
1635.613520
 42
-0.013292
  0
VERTEX
  8
0
 10
2548.097581
 20
1626.545575
 42
-0.000808
  0
VERTEX
  8
0
 10
2552.523453
 20
1599.271029
 42
0.000000
  0
VERTEX
  8
0
 10
2559.145382
 20
1558.042057
 42
0.000000
  0
VERTEX
  8
0
 10
2544.454315
 20
1504.771029
 42
0.000000
  0
VERTEX
  8
0
 10
2529.763248
 20
1451.500000
 42
0.000000
  0
VERTEX
  8
0
 10
2509.965705
 20
1413.500000
 42
0.001959
  0
VERTEX
  8
0
 10
2495.213886
 20
1384.912083
 42
0.043689
  0
VERTEX
  8
0
 10
2491.711285
 20
1376.271817
 42
0.104320
  0
VERTEX
  8
0
 10
2491.084772
 20
1369.323538
 42
0.027562
  0
VERTEX
  8
0
 10
2493.015765
 20
1358.278121
 42
-0.004654
  0
VERTEX
  8
0
 10
2493.893684
 20
1354.331348
 42
-0.007445
  0
VERTEX
  8
0
 10
2494.561612
 20
1350.943891
 42
-0.002497
  0
VERTEX
  8
0
 10
2495.075415
 20
1348.034453
 42
-0.260335
  0
VERTEX
  8
0
 10
2494.944787
 20
1347.664658
 42
-0.085337
  0
VERTEX
  8
0
 10
2494.540141
 20
1347.415671
 42
-0.000032
  0
VERTEX
  8
0
 10
2478.260754
 20
1340.889234
 42
-0.000513
  0
VERTEX
  8
0
 10
2460.171460
 20
1333.660075
 42
-0.000312
  0
VERTEX
  8
0
 10
2438.772674
 20
1325.149265
 42
0.000000
  0
VERTEX
  8
0
 10
2383.045348
 20
1303.025455
 42
0.000000
  0
VERTEX
  8
0
 10
2352.772674
 20
1302.493365
 42
0.000940
  0
VERTEX
  8
0
 10
2340.559264
 20
1302.255713
 42
0.001079
  0
VERTEX
  8
0
 10
2328.895723
 20
1301.981620
 42
0.000970
  0
VERTEX
  8
0
 10
2319.005736
 20
1301.708638
 42
0.006216
  0
VERTEX
  8
0
 10
2314.000000
 20
1301.498445
 42
-0.002383
  0
VERTEX
  8
0
 10
2308.475264
 20
1301.224022
 42
-0.060873
  0
VERTEX
  8
0
 10
2306.977489
 20
1301.339173
 42
-0.540558
  0
VERTEX
  8
0
 10
2306.786840
 20
1301.814647
 42
-0.072730
  0
VERTEX
  8
0
 10
2307.683738
 20
1302.767808
 42
-0.026815
  0
VERTEX
  8
0
 10
2308.987315
 20
1303.692508
 42
-0.004813
  0
VERTEX
  8
0
 10
2311.522030
 20
1305.259608
 42
-0.005183
  0
VERTEX
  8
0
 10
2314.531148
 20
1307.037864
 42
-0.004664
  0
VERTEX
  8
0
 10
2317.683738
 20
1308.818093
 42
0.020887
  0
VERTEX
  8
0
 10
2322.305910
 20
1311.629700
 42
0.037972
  0
VERTEX
  8
0
 10
2325.785589
 20
1314.353607
 42
0.028137
  0
VERTEX
  8
0
 10
2329.435056
 20
1318.083786
 42
0.006892
  0
VERTEX
  8
0
 10
2335.000000
 20
1324.631785
 42
-0.000379
  0
VERTEX
  8
0
 10
2338.716679
 20
1329.122261
 42
-0.000542
  0
VERTEX
  8
0
 10
2342.020542
 20
1333.099030
 42
-0.000291
  0
VERTEX
  8
0
 10
2344.823043
 20
1336.460905
 42
-0.008353
  0
VERTEX
  8
0
 10
2345.559292
 20
1337.313692
 42
0.053445
  0
VERTEX
  8
0
 10
2346.214655
 20
1338.227604
 42
0.001761
  0
VERTEX
  8
0
 10
2348.414589
 20
1342.144029
 42
0.003344
  0
VERTEX
  8
0
 10
2350.966601
 20
1346.797892
 42
0.002318
  0
VERTEX
  8
0
 10
2353.791937
 20
1352.091512
 42
0.007783
  0
VERTEX
  8
0
 10
2358.270215
 20
1360.906311
 42
0.031760
  0
VERTEX
  8
0
 10
2360.558626
 20
1366.457763
 42
0.026277
  0
VERTEX
  8
0
 10
2362.324665
 20
1372.718129
 42
0.004170
  0
VERTEX
  8
0
 10
2365.035337
 20
1385.186671
 42
0.000000
  0
VERTEX
  8
0
 10
2369.105386
 20
1404.690316
 42
0.000000
  0
VERTEX
  8
0
 10
2365.791540
 20
1549.177740
 42
0.000294
  0
VERTEX
  8
0
 10
2363.894895
 20
1629.805593
 42
0.002199
  0
VERTEX
  8
0
 10
2362.804466
 20
1668.047984
 42
0.000884
  0
VERTEX
  8
0
 10
2361.939964
 20
1692.970974
 42
0.195830
  0
VERTEX
  8
0
 10
2360.988847
 20
1695.082582
 42
0.196556
  0
VERTEX
  8
0
 10
2357.182887
 20
1696.570439
 42
0.001490
  0
VERTEX
  8
0
 10
2323.147648
 20
1695.941302
 42
0.001517
  0
VERTEX
  8
0
 10
2289.148874
 20
1695.108258
 42
0.191767
  0
VERTEX
  8
0
 10
2285.315295
 20
1693.458152
 42
0.199835
  0
VERTEX
  8
0
 10
2284.331484
 20
1691.071053
 42
0.001456
  0
VERTEX
  8
0
 10
2284.473265
 20
1669.121701
 42
0.002491
  0
VERTEX
  8
0
 10
2284.984419
 20
1633.513003
 42
0.000248
  0
VERTEX
  8
0
 10
2286.676584
 20
1548.198995
 42
-0.000216
  0
VERTEX
  8
0
 10
2288.504893
 20
1456.320113
 42
-0.002979
  0
VERTEX
  8
0
 10
2288.954107
 20
1423.064986
 42
-0.006891
  0
VERTEX
  8
0
 10
2288.841396
 20
1404.982143
 42
-0.047460
  0
VERTEX
  8
0
 10
2287.824326
 20
1396.166472
 42
-0.066705
  0
VERTEX
  8
0
 10
2282.530487
 20
1381.339027
 42
-0.082039
  0
VERTEX
  8
0
 10
2273.768809
 20
1369.567445
 42
-0.074749
  0
VERTEX
  8
0
 10
2260.980434
 20
1360.475972
 42
-0.045243
  0
VERTEX
  8
0
 10
2243.682621
 20
1353.599685
 42
-0.020035
  0
VERTEX
  8
0
 10
2238.644217
 20
1352.324535
 42
-0.023652
  0
VERTEX
  8
0
 10
2233.790574
 20
1351.538655
 42
-0.016682
  0
VERTEX
  8
0
 10
2227.685876
 20
1351.050054
 42
-0.004714
  0
VERTEX
  8
0
 10
2218.150921
 20
1350.696360
 42
-0.006418
  0
VERTEX
  8
0
 10
2210.234569
 20
1350.579077
 42
-0.007495
  0
VERTEX
  8
0
 10
2202.717411
 20
1350.676889
 42
-0.008141
  0
VERTEX
  8
0
 10
2196.020340
 20
1350.973650
 42
-0.015492
  0
VERTEX
  8
0
 10
2190.650921
 20
1351.466585
 42
-0.013978
  0
VERTEX
  8
0
 10
2184.435272
 20
1352.409066
 42
-0.036482
  0
VERTEX
  8
0
 10
2180.059876
 20
1353.532673
 42
-0.029039
  0
VERTEX
  8
0
 10
2175.361731
 20
1355.422056
 42
-0.006306
  0
VERTEX
  8
0
 10
2167.500000
 20
1359.249201
 42
0.000000
  0
VERTEX
  8
0
 10
2154.500000
 20
1365.781769
 42
0.000000
  0
VERTEX
  8
0
 10
2147.418160
 20
1376.140884
 42
-0.012244
  0
VERTEX
  8
0
 10
2143.926987
 20
1381.526106
 42
-0.016924
  0
VERTEX
  8
0
 10
2141.081459
 20
1386.532555
 42
-0.017600
  0
VERTEX
  8
0
 10
2138.666927
 20
1391.559251
 42
-0.015140
  0
VERTEX
  8
0
 10
2136.479152
 20
1397.000000
 42
0.000000
  0
VERTEX
  8
0
 10
2132.621984
 20
1407.500000
 42
0.000000
  0
VERTEX
  8
0
 10
2132.012861
 20
1438.119560
 42
0.001384
  0
VERTEX
  8
0
 10
2131.607762
 20
1455.995334
 42
0.011874
  0
VERTEX
  8
0
 10
2131.214729
 20
1463.981818
 42
0.023265
  0
VERTEX
  8
0
 10
2130.671567
 20
1468.507727
 42
0.156109
  0
VERTEX
  8
0
 10
2129.647860
 20
1470.494997
 42
0.165037
  0
VERTEX
  8
0
 10
2127.592480
 20
1471.508916
 42
0.025729
  0
VERTEX
  8
0
 10
2123.013927
 20
1471.874612
 42
0.011453
  0
VERTEX
  8
0
 10
2114.638013
 20
1471.919428
 42
0.001042
  0
VERTEX
  8
0
 10
2093.758476
 20
1471.509349
 42
0.001695
  0
VERTEX
  8
0
 10
2076.738896
 20
1471.081895
 42
0.007346
  0
VERTEX
  8
0
 10
2066.645777
 20
1470.645690
 42
0.006020
  0
VERTEX
  8
0
 10
2059.856089
 20
1470.170159
 42
0.177694
  0
VERTEX
  8
0
 10
2058.312484
 20
1469.455341
 42
0.185097
  0
VERTEX
  8
0
 10
2057.588993
 20
1467.832403
 42
0.005449
  0
VERTEX
  8
0
 10
2057.266268
 20
1460.225387
 42
0.006584
  0
VERTEX
  8
0
 10
2057.053815
 20
1448.638306
 42
0.001291
  0
VERTEX
  8
0
 10
2057.000000
 20
1427.803723
 42
0.000000
  0
VERTEX
  8
0
 10
2057.000000
 20
1387.464589
 42
0.000000
  0
VERTEX
  8
0
 10
2069.892102
 20
1360.982295
 42
-0.001422
  0
VERTEX
  8
0
 10
2074.811820
 20
1350.802984
 42
-0.002351
  0
VERTEX
  8
0
 10
2078.901237
 20
1342.176046
 42
-0.000239
  0
VERTEX
  8
0
 10
2082.507497
 20
1334.465413
 42
-0.305549
  0
VERTEX
  8
0
 10
2082.457694
 20
1334.148925
 42
-0.259482
  0
VERTEX
  8
0
 10
2082.143916
 20
1334.047073
 42
-0.000817
  0
VERTEX
  8
0
 10
2077.911481
 20
1334.885356
 42
-0.004196
  0
VERTEX
  8
0
 10
2073.095804
 20
1335.889434
 42
-0.002578
  0
VERTEX
  8
0
 10
2067.439729
 20
1337.148925
 42
-0.004422
  0
VERTEX
  8
0
 10
2059.716208
 20
1338.982639
 42
-0.022419
  0
VERTEX
  8
0
 10
2055.472705
 20
1340.234078
 42
-0.039771
  0
VERTEX
  8
0
 10
2052.975959
 20
1341.322532
 42
-0.171289
  0
VERTEX
  8
0
 10
2051.898872
 20
1342.500000
 42
-0.038895
  0
VERTEX
  8
0
 10
2051.357715
 20
1344.112090
 42
-0.000169
  0
VERTEX
  8
0
 10
2046.900746
 20
1361.879652
 42
-0.000823
  0
VERTEX
  8
0
 10
2041.877556
 20
1382.074078
 42
-0.000519
  0
VERTEX
  8
0
 10
2036.076756
 20
1405.664774
 42
0.000000
  0
VERTEX
  8
0
 10
2021.104045
 20
1466.829549
 42
0.000000
  0
VERTEX
  8
0
 10
2033.331449
 20
1544.505745
 42
0.000000
  0
VERTEX
  8
0
 10
2045.558852
 20
1622.181942
 42
0.000000
  0
VERTEX
  8
0
 10
2090.529426
 20
1663.695521
 42
0.001453
  0
VERTEX
  8
0
 10
2111.139891
 20
1682.832873
 42
0.004579
  0
VERTEX
  8
0
 10
2124.808812
 20
1695.835406
 42
0.002036
  0
VERTEX
  8
0
 10
2134.856400
 20
1705.649597
 42
0.166824
  0
VERTEX
  8
0
 10
2135.812921
 20
1707.568266
 42
0.212535
  0
VERTEX
  8
0
 10
2135.146655
 20
1709.825931
 42
0.003721
  0
VERTEX
  8
0
 10
2126.612914
 20
1719.689342
 42
0.005382
  0
VERTEX
  8
0
 10
2113.343288
 20
1734.473794
 42
0.000953
  0
VERTEX
  8
0
 10
2088.122726
 20
1761.867209
 42
0.001002
  0
VERTEX
  8
0
 10
2069.485701
 20
1781.951764
 42
0.001535
  0
VERTEX
  8
0
 10
2053.248270
 20
1799.273269
 42
0.000507
  0
VERTEX
  8
0
 10
2039.139760
 20
1814.201058
 42
0.043224
  0
VERTEX
  8
0
 10
2036.809805
 20
1816.270279
 42
0.027965
  0
VERTEX
  8
0
 10
2034.086355
 20
1818.069779
 42
0.000082
  0
VERTEX
  8
0
 10
1997.073406
 20
1839.647625
 42
0.000483
  0
VERTEX
  8
0
 10
1955.229980
 20
1863.978285
 42
0.000302
  0
VERTEX
  8
0
 10
1906.184769
 20
1892.393639
 42
0.000000
  0
VERTEX
  8
0
 10
1778.869538
 20
1966.053705
 42
0.000000
  0
VERTEX
  8
0
 10
1688.583391
 20
2005.482848
 42
0.000000
  0
VERTEX
  8
0
 10
1598.297245
 20
2044.911992
 42
0.000000
  0
VERTEX
  8
0
 10
1476.398622
 20
2071.010930
 42
0.000000
  0
VERTEX
  8
0
 10
1354.500000
 20
2097.109869
 42
0.000000
  0
VERTEX
  8
0
 10
1215.000000
 20
2109.615025
 42
0.000000
  0
VERTEX
  8
0
 10
1075.500000
 20
2122.120180
 42
0.000000
  0
VERTEX
  8
0
 10
972.638557
 20
2116.004867
 42
-0.000383
  0
VERTEX
  8
0
 10
933.169000
 20
2113.688663
 42
-0.000635
  0
VERTEX
  8
0
 10
899.875656
 20
2111.802933
 42
-0.000022
  0
VERTEX
  8
0
 10
869.772058
 20
2110.137559
 42
-0.213304
  0
VERTEX
  8
0
 10
869.378793
 20
2110.287874
 42
-0.525093
  0
VERTEX
  8
0
 10
869.425951
 20
2110.544631
 42
-0.000051
  0
VERTEX
  8
0
 10
889.442535
 20
2119.531814
 42
-0.001089
  0
VERTEX
  8
0
 10
911.710440
 20
2129.468850
 42
-0.000650
  0
VERTEX
  8
0
 10
938.240236
 20
2141.197264
 42
0.000000
  0
VERTEX
  8
0
 10
1007.500000
 20
2171.708334
 42
0.000000
  0
VERTEX
  8
0
 10
1018.000000
 20
2171.295834
 42
0.001887
  0
VERTEX
  8
0
 10
1025.407116
 20
2171.032839
 42
0.000069
  0
VERTEX
  8
0
 10
1053.468750
 20
2170.146437
 42
0.000126
  0
VERTEX
  8
0
 10
1086.648960
 20
2169.111353
 42
0.000089
  0
SEQEND
  0
POLYLINE
  8
0
 66
1
 70
1
  0
VERTEX
  8
0
 10
1212.337853
 20
2105.548405
 42
0.000000
  0
VERTEX
  8
0
 10
1351.799652
 20
2093.096811
 42
0.000000
  0
VERTEX
  8
0
 10
1474.063115
 20
2066.966078
 42
0.000000
  0
VERTEX
  8
0
 10
1596.326577
 20
2040.835345
 42
0.000000
  0
VERTEX
  8
0
 10
1685.913289
 20
2001.747876
 42
0.000000
  0
VERTEX
  8
0
 10
1775.500000
 20
1962.660407
 42
0.000000
  0
VERTEX
  8
0
 10
1905.397724
 20
1887.580203
 42
0.000000
  0
VERTEX
  8
0
 10
2035.295448
 20
1812.500000
 42
0.000000
  0
VERTEX
  8
0
 10
2083.783012
 20
1760.142630
 42
-0.001504
  0
VERTEX
  8
0
 10
2102.306662
 20
1740.019524
 42
-0.002518
  0
VERTEX
  8
0
 10
2117.743658
 20
1722.976465
 42
-0.000259
  0
VERTEX
  8
0
 10
2131.382251
 20
1707.749788
 42
-0.456682
  0
VERTEX
  8
0
 10
2131.304802
 20
1707.142630
 42
0.040704
  0
VERTEX
  8
0
 10
2127.616602
 20
1704.229694
 42
0.000137
  0
VERTEX
  8
0
 10
2085.622636
 20
1665.098304
 42
0.000051
  0
VERTEX
  8
0
 10
2042.642799
 20
1625.017941
 42
0.113935
  0
VERTEX
  8
0
 10
2041.663710
 20
1623.566026
 42
0.051638
  0
VERTEX
  8
0
 10
2041.366658
 20
1622.463689
 42
0.000064
  0
VERTEX
  8
0
 10
2037.720917
 20
1599.859460
 42
0.000578
  0
VERTEX
  8
0
 10
2033.671018
 20
1574.542560
 42
0.000356
  0
VERTEX
  8
0
 10
2028.959788
 20
1544.734821
 42
0.000000
  0
VERTEX
  8
0
 10
2016.767421
 20
1467.236706
 42
0.000000
  0
VERTEX
  8
0
 10
2032.500202
 20
1403.451501
 42
0.001349
  0
VERTEX
  8
0
 10
2039.203433
 20
1376.586605
 42
0.003017
  0
VERTEX
  8
0
 10
2044.475798
 20
1356.215273
 42
0.000886
  0
VERTEX
  8
0
 10
2048.885244
 20
1339.710356
 42
0.127579
  0
VERTEX
  8
0
 10
2049.866491
 20
1337.983062
 42
0.121406
  0
VERTEX
  8
0
 10
2051.302402
 20
1337.085297
 42
0.007583
  0
VERTEX
  8
0
 10
2056.116808
 20
1335.585655
 42
0.009875
  0
VERTEX
  8
0
 10
2062.375107
 20
1333.873478
 42
0.005091
  0
VERTEX
  8
0
 10
2070.267772
 20
1331.966100
 42
0.000000
  0
VERTEX
  8
0
 10
2089.035543
 20
1327.632371
 42
0.000000
  0
VERTEX
  8
0
 10
2095.041546
 20
1320.874543
 42
0.006670
  0
VERTEX
  8
0
 10
2103.247323
 20
1311.885986
 42
0.037730
  0
VERTEX
  8
0
 10
2108.026901
 20
1307.503121
 42
0.041705
  0
VERTEX
  8
0
 10
2113.214079
 20
1304.079820
 42
0.009254
  0
VERTEX
  8
0
 10
2122.648757
 20
1299.150366
 42
0.011095
  0
VERTEX
  8
0
 10
2130.915974
 20
1295.250493
 42
0.014665
  0
VERTEX
  8
0
 10
2138.619641
 20
1292.090533
 42
0.012007
  0
VERTEX
  8
0
 10
2147.597074
 20
1288.956045
 42
0.004675
  0
VERTEX
  8
0
 10
2160.148757
 20
1285.038176
 42
0.000000
  0
VERTEX
  8
0
 10
2183.500000
 20
1277.988270
 42
0.000000
  0
VERTEX
  8
0
 10
2217.000000
 20
1278.596969
 42
0.000000
  0
VERTEX
  8
0
 10
2250.500000
 20
1279.205669
 42
0.000000
  0
VERTEX
  8
0
 10
2265.000000
 20
1283.620880
 42
0.009381
  0
VERTEX
  8
0
 10
2271.210591
 20
1285.640053
 42
0.007309
  0
VERTEX
  8
0
 10
2277.884375
 20
1288.058919
 42
0.007398
  0
VERTEX
  8
0
 10
2284.038302
 20
1290.496420
 42
0.017775
  0
VERTEX
  8
0
 10
2288.500000
 20
1292.529014
 42
0.000000
  0
VERTEX
  8
0
 10
2297.500000
 20
1297.021937
 42
0.000000
  0
VERTEX
  8
0
 10
2338.500000
 20
1297.846166
 42
-0.000201
  0
VERTEX
  8
0
 10
2354.231750
 20
1298.156081
 42
-0.000334
  0
VERTEX
  8
0
 10
2367.500442
 20
1298.403251
 42
-0.000009
  0
VERTEX
  8
0
 10
2379.517870
 20
1298.618862
 42
-0.134096
  0
VERTEX
  8
0
 10
2379.650441
 20
1298.585197
 42
-0.377846
  0
VERTEX
  8
0
 10
2379.705143
 20
1298.427038
 42
-0.000017
  0
VERTEX
  8
0
 10
2372.517480
 20
1280.920074
 42
-0.000761
  0
VERTEX
  8
0
 10
2365.612575
 20
1264.176094
 42
-0.001057
  0
VERTEX
  8
0
 10
2359.370770
 20
1249.194920
 42
-0.059308
  0
VERTEX
  8
0
 10
2355.969284
 20
1243.189679
 42
-0.001332
  0
VERTEX
  8
0
 10
2336.261909
 20
1216.526508
 42
-0.002046
  0
VERTEX
  8
0
 10
2307.335294
 20
1177.938297
 42
-0.000468
  0
VERTEX
  8
0
 10
2258.114072
 20
1112.960309
 42
0.000000
  0
VERTEX
  8
0
 10
2159.500000
 20
983.030776
 42
0.000000
  0
VERTEX
  8
0
 10
2111.043507
 20
891.765388
 42
0.000000
  0
VERTEX
  8
0
 10
2062.587014
 20
800.500000
 42
0.000000
  0
VERTEX
  8
0
 10
1966.263606
 20
721.500000
 42
0.000000
  0
VERTEX
  8
0
 10
1869.940198
 20
642.500000
 42
0.000000
  0
VERTEX
  8
0
 10
1757.617609
 20
615.358540
 42
0.000000
  0
VERTEX
  8
0
 10
1645.295021
 20
588.217080
 42
0.000000
  0
VERTEX
  8
0
 10
1496.394268
 20
597.056798
 42
0.000000
  0
VERTEX
  8
0
 10
1347.493516
 20
605.896516
 42
0.000000
  0
VERTEX
  8
0
 10
1206.996758
 20
640.554605
 42
0.000000
  0
VERTEX
  8
0
 10
1066.500000
 20
675.212694
 42
0.000000
  0
VERTEX
  8
0
 10
954.138911
 20
728.005400
 42
0.000000
  0
VERTEX
  8
0
 10
841.777822
 20
780.798105
 42
0.000000
  0
VERTEX
  8
0
 10
822.520970
 20
801.185513
 42
0.012196
  0
VERTEX
  8
0
 10
807.816182
 20
816.011915
 42
0.006755
  0
VERTEX
  8
0
 10
789.192301
 20
833.418095
 42
0.003338
  0
VERTEX
  8
0
 10
759.552777
 20
860.019362
 42
0.000496
  0
VERTEX
  8
0
 10
699.382059
 20
913.194937
 42
0.000000
  0
VERTEX
  8
0
 10
595.500000
 20
1004.816953
 42
0.000000
  0
VERTEX
  8
0
 10
522.500000
 20
1107.366303
 42
0.000000
  0
VERTEX
  8
0
 10
449.500000
 20
1209.915654
 42
0.000000
  0
VERTEX
  8
0
 10
443.575989
 20
1228.450483
 42
-0.004420
  0
VERTEX
  8
0
 10
441.357688
 20
1235.608639
 42
-0.007098
  0
VERTEX
  8
0
 10
439.606920
 20
1241.755469
 42
-0.002253
  0
VERTEX
  8
0
 10
438.203642
 20
1247.056666
 42
-0.265932
  0
VERTEX
  8
0
 10
438.383089
 20
1247.716422
 42
-0.192318
  0
VERTEX
  8
0
 10
439.103096
 20
1248.025431
 42
-0.000040
  0
VERTEX
  8
0
 10
478.171725
 20
1249.015082
 42
-0.000830
  0
VERTEX
  8
0
 10
521.492633
 20
1250.037004
 42
-0.000502
  0
VERTEX
  8
0
 10
572.807099
 20
1251.110727
 42
0.000171
  0
VERTEX
  8
0
 10
681.318940
 20
1253.309481
 42
0.002306
  0
VERTEX
  8
0
 10
721.049256
 20
1254.311477
 42
0.005317
  0
VERTEX
  8
0
 10
742.719870
 20
1255.188750
 42
0.035222
  0
VERTEX
  8
0
 10
753.464141
 20
1256.500731
 42
0.033630
  0
VERTEX
  8
0
 10
772.274551
 20
1261.487745
 42
0.039339
  0
VERTEX
  8
0
 10
789.244683
 20
1268.763446
 42
0.039761
  0
VERTEX
  8
0
 10
804.714958
 20
1278.530517
 42
0.035708
  0
VERTEX
  8
0
 10
819.048780
 20
1290.951220
 42
0.026230
  0
VERTEX
  8
0
 10
829.031740
 20
1302.040378
 42
0.030945
  0
VERTEX
  8
0
 10
837.219021
 20
1313.541845
 42
0.031448
  0
VERTEX
  8
0
 10
843.818008
 20
1325.798671
 42
0.028800
  0
VERTEX
  8
0
 10
849.047886
 20
1339.146537
 42
0.022951
  0
VERTEX
  8
0
 10
852.377124
 20
1351.178236
 42
0.033232
  0
VERTEX
  8
0
 10
854.107594
 20
1362.066032
 42
0.021426
  0
VERTEX
  8
0
 10
854.788135
 20
1376.134992
 42
0.004385
  0
VERTEX
  8
0
 10
854.706411
 20
1401.033485
 42
0.001855
  0
VERTEX
  8
0
 10
854.495342
 20
1414.423242
 42
0.002779
  0
VERTEX
  8
0
 10
854.202704
 20
1426.112362
 42
0.001147
  0
VERTEX
  8
0
 10
853.873593
 20
1436.117636
 42
0.060779
  0
VERTEX
  8
0
 10
853.575053
 20
1438.008600
 42
-0.137763
  0
VERTEX
  8
0
 10
853.568108
 20
1439.665395
 42
-0.108656
  0
VERTEX
  8
0
 10
854.409446
 20
1441.257764
 42
-0.043049
  0
VERTEX
  8
0
 10
856.548026
 20
1443.382762
 42
-0.005224
  0
VERTEX
  8
0
 10
861.679569
 20
1447.581204
 42
0.020783
  0
VERTEX
  8
0
 10
867.119147
 20
1452.321670
 42
0.025625
  0
VERTEX
  8
0
 10
871.759349
 20
1457.192393
 42
0.015820
  0
VERTEX
  8
0
 10
877.328688
 20
1464.103647
 42
0.003180
  0
VERTEX
  8
0
 10
886.769576
 20
1476.775994
 42
0.000000
  0
VERTEX
  8
0
 10
903.039153
 20
1498.906778
 42
0.000000
  0
VERTEX
  8
0
 10
912.901527
 20
1524.048905
 42
-0.002820
  0
VERTEX
  8
0
 10
916.722325
 20
1533.629950
 42
-0.004867
  0
VERTEX
  8
0
 10
920.023554
 20
1541.551947
 42
-0.001190
  0
VERTEX
  8
0
 10
922.932616
 20
1548.301407
 42
-0.605799
  0
VERTEX
  8
0
 10
923.297431
 20
1548.327764
 42
-0.039450
  0
VERTEX
  8
0
 10
923.632520
 20
1547.675729
 42
-0.001019
  0
VERTEX
  8
0
 10
924.894393
 20
1544.638921
 42
-0.002155
  0
VERTEX
  8
0
 10
926.354390
 20
1541.061378
 42
-0.001470
  0
VERTEX
  8
0
 10
927.984689
 20
1536.982248
 42
0.024829
  0
VERTEX
  8
0
 10
937.596675
 20
1515.852796
 42
0.020126
  0
VERTEX
  8
0
 10
949.901215
 20
1494.203335
 42
0.020001
  0
VERTEX
  8
0
 10
964.008817
 20
1473.452075
 42
0.023472
  0
VERTEX
  8
0
 10
979.039277
 20
1455.016631
 42
0.013477
  0
VERTEX
  8
0
 10
983.883193
 20
1449.898620
 42
0.028790
  0
VERTEX
  8
0
 10
987.943957
 20
1446.276337
 42
0.024898
  0
VERTEX
  8
0
 10
992.749080
 20
1442.838366
 42
0.007820
  0
VERTEX
  8
0
 10
1000.264384
 20
1438.172422
 42
0.001996
  0
VERTEX
  8
0
 10
1005.625027
 20
1434.988273
 42
0.002269
  0
VERTEX
  8
0
 10
1010.787038
 20
1431.981368
 42
0.002059
  0
VERTEX
  8
0
 10
1015.193274
 20
1429.465525
 42
0.012661
  0
VERTEX
  8
0
 10
1017.500000
 20
1428.237025
 42
0.018088
  0
VERTEX
  8
0
 10
1026.188636
 20
1424.274581
 42
0.010593
  0
VERTEX
  8
0
 10
1036.849159
 20
1420.133426
 42
0.010509
  0
VERTEX
  8
0
 10
1047.892334
 20
1416.371654
 42
0.015279
  0
VERTEX
  8
0
 10
1057.791636
 20
1413.559952
 42
0.002552
  0
VERTEX
  8
0
 10
1069.144785
 20
1410.768604
 42
0.016510
  0
VERTEX
  8
0
 10
1074.919554
 20
1409.580176
 42
0.017675
  0
VERTEX
  8
0
 10
1080.609026
 20
1408.809714
 42
0.003184
  0
VERTEX
  8
0
 10
1091.250000
 20
1407.818457
 42
0.000000
  0
VERTEX
  8
0
 10
1105.000000
 20
1406.625843
 42
0.000000
  0
VERTEX
  8
0
 10
1105.038333
 20
1399.062922
 42
0.003559
  0
VERTEX
  8
0
 10
1105.102288
 20
1393.815470
 42
0.000157
  0
VERTEX
  8
0
 10
1105.460097
 20
1375.580985
 42
0.000265
  0
VERTEX
  8
0
 10
1105.902774
 20
1353.952794
 42
0.000190
  0
VERTEX
  8
0
 10
1106.420296
 20
1329.744688
 42
0.000835
  0
VERTEX
  8
0
 10
1107.172149
 20
1297.651964
 42
0.004412
  0
VERTEX
  8
0
 10
1107.768831
 20
1280.066060
 42
0.002930
  0
VERTEX
  8
0
 10
1108.337887
 20
1268.366427
 42
0.160753
  0
VERTEX
  8
0
 10
1109.131964
 20
1266.338619
 42
0.196735
  0
VERTEX
  8
0
 10
1110.927151
 20
1265.380464
 42
0.018839
  0
VERTEX
  8
0
 10
1115.977440
 20
1265.056359
 42
0.010219
  0
VERTEX
  8
0
 10
1124.989715
 20
1265.002504
 42
0.001044
  0
VERTEX
  8
0
 10
1146.333264
 20
1265.355766
 42
0.001641
  0
VERTEX
  8
0
 10
1163.968452
 20
1265.742366
 42
0.006768
  0
VERTEX
  8
0
 10
1174.633191
 20
1266.155684
 42
0.004944
  0
VERTEX
  8
0
 10
1181.937230
 20
1266.610293
 42
0.180252
  0
VERTEX
  8
0
 10
1183.440057
 20
1267.297200
 42
0.203733
  0
VERTEX
  8
0
 10
1184.662765
 20
1270.328202
 42
0.000112
  0
VERTEX
  8
0
 10
1182.775768
 20
1370.935003
 42
0.000117
  0
VERTEX
  8
0
 10
1180.844018
 20
1471.470516
 42
0.193036
  0
VERTEX
  8
0
 10
1179.504726
 20
1474.630942
 42
0.185689
  0
VERTEX
  8
0
 10
1178.232976
 20
1475.200994
 42
0.002723
  0
VERTEX
  8
0
 10
1169.869286
 20
1475.609041
 42
0.005600
  0
VERTEX
  8
0
 10
1158.601770
 20
1475.970905
 42
0.001819
  0
VERTEX
  8
0
 10
1141.940486
 20
1476.258646
 42
-0.001486
  0
VERTEX
  8
0
 10
1120.650279
 20
1476.612187
 42
-0.009591
  0
VERTEX
  8
0
 10
1109.906969
 20
1477.028787
 42
-0.018652
  0
VERTEX
  8
0
 10
1102.672195
 20
1477.719911
 42
-0.022961
  0
VERTEX
  8
0
 10
1096.000000
 20
1478.923382
 42
-0.063788
  0
VERTEX
  8
0
 10
1061.518127
 20
1491.579428
 42
-0.069845
  0
VERTEX
  8
0
 10
1032.499131
 20
1512.236669
 42
-0.070564
  0
VERTEX
  8
0
 10
1010.517447
 20
1539.879878
 42
-0.067186
  0
VERTEX
  8
0
 10
996.641623
 20
1573.000000
 42
-0.010475
  0
VERTEX
  8
0
 10
995.365043
 20
1578.180238
 42
-0.002566
  0
VERTEX
  8
0
 10
993.486751
 20
1586.759375
 42
-0.002627
  0
VERTEX
  8
0
 10
991.436054
 20
1596.614844
 42
-0.002620
  0
VERTEX
  8
0
 10
989.487189
 20
1606.500000
 42
-0.003786
  0
VERTEX
  8
0
 10
986.926314
 20
1620.427419
 42
-0.012995
  0
VERTEX
  8
0
 10
985.567680
 20
1629.522666
 42
-0.015377
  0
VERTEX
  8
0
 10
984.802027
 20
1637.863114
 42
-0.007094
  0
VERTEX
  8
0
 10
984.294216
 20
1648.751079
 42
0.003190
  0
VERTEX
  8
0
 10
983.926545
 20
1658.222866
 42
0.015538
  0
VERTEX
  8
0
 10
983.517539
 20
1663.576434
 42
0.023134
  0
VERTEX
  8
0
 10
983.003223
 20
1666.898833
 42
0.171549
  0
VERTEX
  8
0
 10
982.193320
 20
1668.251079
 42
0.158420
  0
VERTEX
  8
0
 10
980.546902
 20
1668.903232
 42
0.006406
  0
VERTEX
  8
0
 10
974.061832
 20
1669.228430
 42
0.007489
  0
VERTEX
  8
0
 10
964.485850
 20
1669.442155
 42
0.001834
  0
VERTEX
  8
0
 10
948.719207
 20
1669.500000
 42
0.000000
  0
VERTEX
  8
0
 10
916.754100
 20
1669.500000
 42
0.000000
  0
VERTEX
  8
0
 10
908.902489
 20
1687.500000
 42
0.001195
  0
VERTEX
  8
0
 10
905.765918
 20
1694.644042
 42
0.001519
  0
VERTEX
  8
0
 10
902.835754
 20
1701.220752
 42
0.001185
  0
VERTEX
  8
0
 10
900.348922
 20
1706.722162
 42
0.012613
  0
VERTEX
  8
0
 10
899.275440
 20
1708.932346
 42
0.040837
  0
VERTEX
  8
0
 10
897.896073
 20
1711.137394
 42
0.002340
  0
VERTEX
  8
0
 10
893.082249
 20
1717.531784
 42
0.003559
  0
VERTEX
  8
0
 10
887.255587
 20
1725.084436
 42
0.002606
  0
VERTEX
  8
0
 10
880.685409
 20
1733.387138
 42
0.000000
  0
VERTEX
  8
0
 10
863.870819
 20
1754.409585
 42
0.000000
  0
VERTEX
  8
0
 10
842.632987
 20
1769.954793
 42
0.001012
  0
VERTEX
  8
0
 10
834.332969
 20
1776.004299
 42
0.001466
  0
VERTEX
  8
0
 10
826.975263
 20
1781.311369
 42
0.000740
  0
VERTEX
  8
0
 10
820.710810
 20
1785.788001
 42
0.024539
  0
VERTEX
  8
0
 10
819.153438
 20
1786.786040
 42
0.032715
  0
VERTEX
  8
0
 10
817.497062
 20
1787.597299
 42
0.001010
  0
VERTEX
  8
0
 10
810.469214
 20
1790.469798
 42
0.001979
  0
VERTEX
  8
0
 10
802.162896
 20
1793.807028
 42
0.001368
  0
VERTEX
  8
0
 10
792.738065
 20
1797.520564
 42
0.000000
  0
VERTEX
  8
0
 10
768.564409
 20
1806.969050
 42
0.000000
  0
VERTEX
  8
0
 10
740.946653
 20
1810.058915
 42
0.000000
  0
VERTEX
  8
0
 10
713.328896
 20
1813.148781
 42
0.000000
  0
VERTEX
  8
0
 10
685.931667
 20
1808.971287
 42
0.000000
  0
VERTEX
  8
0
 10
658.534439
 20
1804.793794
 42
0.000000
  0
VERTEX
  8
0
 10
633.012028
 20
1793.618781
 42
0.000000
  0
VERTEX
  8
0
 10
607.489617
 20
1782.443768
 42
0.000000
  0
VERTEX
  8
0
 10
586.994808
 20
1766.046551
 42
0.001199
  0
VERTEX
  8
0
 10
578.993819
 20
1759.613689
 42
0.001707
  0
VERTEX
  8
0
 10
571.917926
 20
1753.856583
 42
0.000944
  0
VERTEX
  8
0
 10
565.963267
 20
1748.959045
 42
0.025255
  0
VERTEX
  8
0
 10
564.449194
 20
1747.574667
 42
0.031724
  0
VERTEX
  8
0
 10
563.104989
 20
1746.030217
 42
0.001201
  0
VERTEX
  8
0
 10
558.474255
 20
1739.943315
 42
0.002159
  0
VERTEX
  8
0
 10
553.041555
 20
1732.701778
 42
0.001518
  0
VERTEX
  8
0
 10
546.988830
 20
1724.508958
 42
0.000000
  0
VERTEX
  8
0
 10
531.579273
 20
1703.517916
 42
0.000000
  0
VERTEX
  8
0
 10
521.715785
 20
1678.508958
 42
0.000000
  0
VERTEX
  8
0
 10
511.852298
 20
1653.500000
 42
0.000000
  0
VERTEX
  8
0
 10
508.946203
 20
1628.500000
 42
0.002062
  0
VERTEX
  8
0
 10
507.832348
 20
1618.560728
 42
0.002619
  0
VERTEX
  8
0
 10
506.889924
 20
1609.375000
 42
0.002054
  0
VERTEX
  8
0
 10
506.171847
 20
1601.667055
 42
0.021544
  0
VERTEX
  8
0
 10
506.027005
 20
1598.500000
 42
0.029824
  0
VERTEX
  8
0
 10
506.208526
 20
1595.319422
 42
0.002723
  0
VERTEX
  8
0
 10
507.174450
 20
1587.447044
 42
0.003517
  0
VERTEX
  8
0
 10
508.444569
 20
1578.065583
 42
0.002746
  0
VERTEX
  8
0
 10
509.951601
 20
1567.894191
 42
0.000000
  0
VERTEX
  8
0
 10
513.889300
 20
1542.288383
 42
0.000000
  0
VERTEX
  8
0
 10
525.119687
 20
1516.670375
 42
0.000000
  0
VERTEX
  8
0
 10
536.350073
 20
1491.052368
 42
0.000000
  0
VERTEX
  8
0
 10
551.326542
 20
1472.356879
 42
0.000000
  0
VERTEX
  8
0
 10
566.303011
 20
1453.661389
 42
0.000000
  0
VERTEX
  8
0
 10
564.496225
 20
1444.080695
 42
0.020624
  0
VERTEX
  8
0
 10
563.562478
 20
1437.693177
 42
0.015903
  0
VERTEX
  8
0
 10
563.055138
 20
1430.669650
 42
0.009523
  0
VERTEX
  8
0
 10
562.845979
 20
1420.832842
 42
0.002115
  0
VERTEX
  8
0
 10
562.879898
 20
1404.000000
 42
0.000000
  0
VERTEX
  8
0
 10
563.070355
 20
1373.500000
 42
0.000000
  0
VERTEX
  8
0
 10
567.521353
 20
1347.569509
 42
-0.001295
  0
VERTEX
  8
0
 10
569.205260
 20
1337.604717
 42
-0.002128
  0
VERTEX
  8
0
 10
570.572316
 20
1329.163545
 42
-0.000224
  0
VERTEX
  8
0
 10
571.756353
 20
1321.628006
 42
-0.239636
  0
VERTEX
  8
0
 10
571.657275
 20
1321.323942
 42
-0.193732
  0
VERTEX
  8
0
 10
570.726063
 20
1320.927291
 42
-0.000017
  0
VERTEX
  8
0
 10
493.545658
 20
1319.389753
 42
-0.000017
  0
VERTEX
  8
0
 10
416.344343
 20
1317.857039
 42
-0.204068
  0
VERTEX
  8
0
 10
415.449194
 20
1318.217473
 42
-0.118589
  0
VERTEX
  8
0
 10
415.182569
 20
1318.653012
 42
-0.000075
  0
VERTEX
  8
0
 10
410.740691
 20
1332.373397
 42
-0.000928
  0
VERTEX
  8
0
 10
405.820173
 20
1347.676973
 42
-0.000566
  0
VERTEX
  8
0
 10
400.064353
 20
1365.763749
 42
0.000000
  0
VERTEX
  8
0
 10
385.138191
 20
1412.851346
 42
0.000000
  0
VERTEX
  8
0
 10
389.046557
 20
1483.830368
 42
0.000000
  0
VERTEX
  8
0
 10
392.954922
 20
1554.809391
 42
0.000000
  0
VERTEX
  8
0
 10
428.549029
 20
1646.972724
 42
0.000000
  0
VERTEX
  8
0
 10
464.143136
 20
1739.136056
 42
0.000000
  0
VERTEX
  8
0
 10
518.628462
 20
1819.998864
 42
0.000000
  0
VERTEX
  8
0
 10
573.113787
 20
1900.861671
 42
0.000000
  0
VERTEX
  8
0
 10
639.806893
 20
1959.405028
 42
0.000000
  0
VERTEX
  8
0
 10
706.500000
 20
2017.948384
 42
0.000000
  0
VERTEX
  8
0
 10
763.500000
 20
2053.606016
 42
-0.001041
  0
VERTEX
  8
0
 10
797.225139
 20
2074.605999
 42
-0.006914
  0
VERTEX
  8
0
 10
814.211180
 20
2084.811517
 42
-0.013361
  0
VERTEX
  8
0
 10
826.161199
 20
2091.347168
 42
-0.014407
  0
VERTEX
  8
0
 10
838.150246
 20
2097.063868
 42
0.000000
  0
VERTEX
  8
0
 10
855.800492
 20
2104.864088
 42
0.000000
  0
VERTEX
  8
0
 10
962.150246
 20
2111.304303
 42
-0.000004
  0
VERTEX
  8
0
 10
1003.079920
 20
2113.782536
 42
-0.000007
  0
VERTEX
  8
0
 10
1037.902493
 20
2115.890229
 42
-0.000001
  0
VERTEX
  8
0
 10
1068.935346
 20
2117.768070
 42
-0.000530
  0
VERTEX
  8
0
 10
1070.688027
 20
2117.872259
 42
-0.036257
  0
VERTEX
  8
0
 10
1072.451508
 20
2117.847275
 42
-0.000034
  0
VERTEX
  8
0
 10
1113.200224
 20
2114.304820
 42
-0.000351
  0
VERTEX
  8
0
 10
1158.711409
 20
2110.313084
 42
-0.000215
  0
SEQEND
  0
POLYLINE
  8
0
 66
1
 70
1
  0
VERTEX
  8
0
 10
739.157336
 20
1805.949784
 42
0.000000
  0
VERTEX
  8
0
 10
766.500000
 20
1802.899567
 42
0.000000
  0
VERTEX
  8
0
 10
791.000000
 20
1793.350298
 42
-0.001109
  0
VERTEX
  8
0
 10
800.539216
 20
1789.607841
 42
-0.001623
  0
VERTEX
  8
0
 10
808.916828
 20
1786.268164
 42
-0.000772
  0
VERTEX
  8
0
 10
816.032943
 20
1783.391790
 42
-0.029435
  0
VERTEX
  8
0
 10
817.589203
 20
1782.650515
 42
-0.029424
  0
VERTEX
  8
0
 10
819.045431
 20
1781.733049
 42
-0.000788
  0
VERTEX
  8
0
 10
825.207249
 20
1777.309706
 42
-0.001642
  0
VERTEX
  8
0
 10
832.425301
 20
1772.074773
 42
-0.001124
  0
VERTEX
  8
0
 10
840.589203
 20
1766.084655
 42
0.000000
  0
VERTEX
  8
0
 10
861.500000
 20
1750.669310
 42
0.000000
  0
VERTEX
  8
0
 10
878.395384
 20
1729.506495
 42
0.000000
  0
VERTEX
  8
0
 10
895.290768
 20
1708.343680
 42
0.000000
  0
VERTEX
  8
0
 10
903.151363
 20
1690.421840
 42
-0.001116
  0
VERTEX
  8
0
 10
909.778364
 20
1675.220414
 42
-0.030947
  0
VERTEX
  8
0
 10
911.253347
 20
1671.141727
 42
-0.145921
  0
VERTEX
  8
0
 10
911.242908
 20
1668.907308
 42
-0.141401
  0
VERTEX
  8
0
 10
910.013212
 20
1667.011458
 42
0.107332
  0
VERTEX
  8
0
 10
908.798675
 20
1665.388696
 42
0.066781
  0
VERTEX
  8
0
 10
908.104057
 20
1663.105155
 42
0.027661
  0
VERTEX
  8
0
 10
907.682251
 20
1659.164004
 42
0.003225
  0
VERTEX
  8
0
 10
907.284714
 20
1650.308873
 42
0.020890
  0
VERTEX
  8
0
 10
907.346871
 20
1631.813586
 42
0.017490
  0
VERTEX
  8
0
 10
908.917490
 20
1612.250141
 42
0.017234
  0
VERTEX
  8
0
 10
911.891170
 20
1592.514766
 42
0.018507
  0
VERTEX
  8
0
 10
916.163757
 20
1573.500000
 42
-0.009633
  0
VERTEX
  8
0
 10
917.365110
 20
1568.564624
 42
-0.010067
  0
VERTEX
  8
0
 10
918.356441
 20
1563.658484
 42
-0.009792
  0
VERTEX
  8
0
 10
919.043577
 20
1559.391300
 42
-0.043101
  0
VERTEX
  8
0
 10
919.180855
 20
1556.848031
 42
-0.062251
  0
VERTEX
  8
0
 10
918.649552
 20
1553.482336
 42
-0.010478
  0
VERTEX
  8
0
 10
916.707082
 20
1547.244070
 42
-0.008864
  0
VERTEX
  8
0
 10
913.658496
 20
1538.640845
 42
-0.003312
  0
VERTEX
  8
0
 10
909.086251
 20
1526.671839
 42
0.000000
  0
VERTEX
  8
0
 10
899.141609
 20
1501.147616
 42
0.000000
  0
VERTEX
  8
0
 10
883.022460
 20
1479.214510
 42
-0.003794
  0
VERTEX
  8
0
 10
874.904335
 20
1468.342139
 42
-0.011012
  0
VERTEX
  8
0
 10
869.070554
 20
1460.993418
 42
-0.015677
  0
VERTEX
  8
0
 10
864.521810
 20
1455.852424
 42
-0.035465
  0
VERTEX
  8
0
 10
860.701655
 20
1452.334798
 42
-0.002080
  0
VERTEX
  8
0
 10
858.241395
 20
1450.389120
 42
-0.002736
  0
VERTEX
  8
0
 10
855.979426
 20
1448.635405
 42
-0.001991
  0
VERTEX
  8
0
 10
854.070419
 20
1447.184028
 42
-0.026167
  0
VERTEX
  8
0
 10
853.334688
 20
1446.687418
 42
-0.400744
  0
VERTEX
  8
0
 10
852.647248
 20
1446.841776
 42
-0.034035
  0
VERTEX
  8
0
 10
851.661028
 20
1448.565921
 42
-0.025023
  0
VERTEX
  8
0
 10
850.453628
 20
1451.409771
 42
-0.008026
  0
VERTEX
  8
0
 10
848.943008
 20
1455.743323
 42
0.025087
  0
VERTEX
  8
0
 10
843.627946
 20
1469.466057
 42
0.029246
  0
VERTEX
  8
0
 10
837.195000
 20
1481.878192
 42
0.029518
  0
VERTEX
  8
0
 10
829.414688
 20
1493.357291
 42
0.026474
  0
VERTEX
  8
0
 10
820.066523
 20
1504.285900
 42
0.033735
  0
VERTEX
  8
0
 10
807.000519
 20
1516.283715
 42
0.034279
  0
VERTEX
  8
0
 10
792.506494
 20
1526.345641
 42
0.034853
  0
VERTEX
  8
0
 10
777.021262
 20
1534.184795
 42
0.037756
  0
VERTEX
  8
0
 10
761.000000
 20
1539.555815
 42
0.023792
  0
VERTEX
  8
0
 10
750.238134
 20
1541.742042
 42
0.024277
  0
VERTEX
  8
0
 10
739.389503
 20
1542.877682
 42
0.015331
  0
VERTEX
  8
0
 10
724.899319
 20
1543.241427
 42
0.003547
  0
VERTEX
  8
0
 10
700.500000
 20
1542.932616
 42
0.001514
  0
VERTEX
  8
0
 10
679.724739
 20
1542.459317
 42
0.009480
  0
VERTEX
  8
0
 10
669.110928
 20
1541.983859
 42
0.018485
  0
VERTEX
  8
0
 10
662.098159
 20
1541.275337
 42
0.026936
  0
VERTEX
  8
0
 10
656.000000
 20
1540.092953
 42
0.049924
  0
VERTEX
  8
0
 10
631.223617
 20
1531.185074
 42
0.052931
  0
VERTEX
  8
0
 10
609.223605
 20
1517.676509
 42
0.053613
  0
VERTEX
  8
0
 10
590.787668
 20
1500.028891
 42
0.053778
  0
VERTEX
  8
0
 10
576.546980
 20
1478.882202
 42
0.007392
  0
VERTEX
  8
0
 10
574.642127
 20
1475.136240
 42
0.006448
  0
VERTEX
  8
0
 10
572.757768
 20
1471.162027
 42
0.006497
  0
VERTEX
  8
0
 10
571.146974
 20
1467.524390
 42
0.019055
  0
VERTEX
  8
0
 10
570.166930
 20
1464.965507
 42
-0.009105
  0
VERTEX
  8
0
 10
569.456475
 20
1462.993947
 42
-0.013666
  0
VERTEX
  8
0
 10
568.758835
 20
1461.303520
 42
-0.008489
  0
VERTEX
  8
0
 10
568.122672
 20
1459.937061
 42
-0.212723
  0
VERTEX
  8
0
 10
567.813238
 20
1459.677008
 42
-0.295078
  0
VERTEX
  8
0
 10
567.405567
 20
1459.800513
 42
-0.000718
  0
VERTEX
  8
0
 10
563.273893
 20
1464.692621
 42
-0.004060
  0
VERTEX
  8
0
 10
558.626640
 20
1470.303094
 42
-0.002476
  0
VERTEX
  8
0
 10
553.225510
 20
1477.000000
 42
0.000000
  0
VERTEX
  8
0
 10
539.254023
 20
1494.500000
 42
0.000000
  0
VERTEX
  8
0
 10
528.575742
 20
1518.930346
 42
0.000000
  0
VERTEX
  8
0
 10
517.897461
 20
1543.360693
 42
0.000000
  0
VERTEX
  8
0
 10
513.838628
 20
1569.930346
 42
0.000000
  0
VERTEX
  8
0
 10
509.779795
 20
1596.500000
 42
0.000000
  0
VERTEX
  8
0
 10
512.876173
 20
1624.000000
 42
0.000000
  0
VERTEX
  8
0
 10
515.972552
 20
1651.500000
 42
0.000000
  0
VERTEX
  8
0
 10
525.855945
 20
1676.576959
 42
0.000000
  0
VERTEX
  8
0
 10
535.739339
 20
1701.653918
 42
0.000000
  0
VERTEX
  8
0
 10
551.839367
 20
1723.499124
 42
0.000000
  0
VERTEX
  8
0
 10
567.939395
 20
1745.344330
 42
0.000000
  0
VERTEX
  8
0
 10
589.031040
 20
1762.235346
 42
0.000000
  0
VERTEX
  8
0
 10
610.122686
 20
1779.126362
 42
0.000000
  0
VERTEX
  8
0
 10
634.811343
 20
1789.949812
 42
0.000000
  0
VERTEX
  8
0
 10
659.500000
 20
1800.773261
 42
0.000000
  0
VERTEX
  8
0
 10
685.000000
 20
1804.762244
 42
0.000077
  0
VERTEX
  8
0
 10
694.823033
 20
1806.300422
 42
0.000124
  0
VERTEX
  8
0
 10
703.202467
 20
1807.616001
 42
0.000019
  0
VERTEX
  8
0
 10
710.633428
 20
1808.784852
 42
0.007741
  0
VERTEX
  8
0
 10
711.157336
 20
1808.875613
 42
-0.072752
  0
VERTEX
  8
0
 10
711.684261
 20
1808.897635
 42
-0.000159
  0
VERTEX
  8
0
 10
719.653487
 20
1808.067460
 42
-0.001077
  0
VERTEX
  8
0
 10
728.627673
 20
1807.110174
 42
-0.000668
  0
SEQEND
  0
POLYLINE
  8
0
 66
1
 70
1
  0
VERTEX
  8
0
 10
2576.541536
 20
1702.440534
 42
-0.009479
  0
VERTEX
  8
0
 10
2591.246387
 20
1700.238680
 42
-0.025991
  0
VERTEX
  8
0
 10
2601.490884
 20
1697.952543
 42
-0.030873
  0
VERTEX
  8
0
 10
2610.403493
 20
1694.867281
 42
-0.018925
  0
VERTEX
  8
0
 10
2620.500000
 20
1690.202198
 42
-0.018341
  0
VERTEX
  8
0
 10
2629.874850
 20
1684.990835
 42
-0.041326
  0
VERTEX
  8
0
 10
2636.455565
 20
1680.226565
 42
-0.039116
  0
VERTEX
  8
0
 10
2642.375772
 20
1674.282214
 42
-0.014909
  0
VERTEX
  8
0
 10
2649.689744
 20
1665.151272
 42
-0.024070
  0
VERTEX
  8
0
 10
2653.021071
 20
1660.254729
 42
-0.031507
  0
VERTEX
  8
0
 10
2655.550075
 20
1655.470648
 42
-0.018763
  0
VERTEX
  8
0
 10
2658.263027
 20
1648.790526
 42
-0.003384
  0
VERTEX
  8
0
 10
2662.755114
 20
1636.151272
 42
0.000000
  0
VERTEX
  8
0
 10
2670.285477
 20
1614.500000
 42
0.000000
  0
VERTEX
  8
0
 10
2671.060602
 20
1588.000000
 42
-0.000812
  0
VERTEX
  8
0
 10
2671.363361
 20
1577.040570
 42
-0.000799
  0
VERTEX
  8
0
 10
2671.632161
 20
1566.024777
 42
-0.000785
  0
VERTEX
  8
0
 10
2671.837109
 20
1556.371595
 42
-0.003064
  0
VERTEX
  8
0
 10
2671.917863
 20
1550.403495
 42
0.000000
  0
VERTEX
  8
0
 10
2672.000000
 20
1539.306990
 42
0.000000
  0
VERTEX
  8
0
 10
2640.893374
 20
1538.593455
 42
-0.001979
  0
VERTEX
  8
0
 10
2628.921467
 20
1538.366234
 42
-0.003201
  0
VERTEX
  8
0
 10
2618.735328
 20
1538.278439
 42
-0.000570
  0
VERTEX
  8
0
 10
2609.757391
 20
1538.268760
 42
-0.198847
  0
VERTEX
  8
0
 10
2609.143374
 20
1538.523047
 42
-0.188678
  0
VERTEX
  8
0
 10
2608.873693
 20
1539.139111
 42
-0.000454
  0
VERTEX
  8
0
 10
2608.490727
 20
1549.019816
 42
-0.002797
  0
VERTEX
  8
0
 10
2608.130163
 20
1560.200486
 42
-0.001726
  0
VERTEX
  8
0
 10
2607.825060
 20
1573.353613
 42
0.002107
  0
VERTEX
  8
0
 10
2607.422057
 20
1590.175308
 42
0.006605
  0
VERTEX
  8
0
 10
2606.954367
 20
1601.472636
 42
0.009129
  0
VERTEX
  8
0
 10
2606.378381
 20
1609.366052
 42
0.034210
  0
VERTEX
  8
0
 10
2605.589448
 20
1614.270541
 42
0.060552
  0
VERTEX
  8
0
 10
2601.083510
 20
1626.659073
 42
0.060856
  0
VERTEX
  8
0
 10
2593.746752
 20
1637.584490
 42
0.060806
  0
VERTEX
  8
0
 10
2583.989354
 20
1646.429813
 42
0.060272
  0
VERTEX
  8
0
 10
2572.362828
 20
1652.699349
 42
0.019672
  0
VERTEX
  8
0
 10
2568.127513
 20
1654.172856
 42
0.038716
  0
VERTEX
  8
0
 10
2564.648918
 20
1654.943728
 42
0.028884
  0
VERTEX
  8
0
 10
2560.488991
 20
1655.289526
 42
0.006780
  0
VERTEX
  8
0
 10
2553.500000
 20
1655.370761
 42
0.006735
  0
VERTEX
  8
0
 10
2546.435567
 20
1655.261905
 42
0.030045
  0
VERTEX
  8
0
 10
2542.308409
 20
1654.893819
 42
0.040020
  0
VERTEX
  8
0
 10
2538.838155
 20
1654.084862
 42
0.018776
  0
VERTEX
  8
0
 10
2534.500000
 20
1652.518164
 42
0.042605
  0
VERTEX
  8
0
 10
2525.162066
 20
1647.783345
 42
0.046088
  0
VERTEX
  8
0
 10
2517.022917
 20
1641.640234
 42
0.046867
  0
VERTEX
  8
0
 10
2510.262192
 20
1634.213369
 42
0.047082
  0
VERTEX
  8
0
 10
2505.014642
 20
1625.668235
 42
0.046375
  0
VERTEX
  8
0
 10
2501.866725
 20
1617.404066
 42
0.045908
  0
VERTEX
  8
0
 10
2500.282413
 20
1608.673158
 42
0.023625
  0
VERTEX
  8
0
 10
2499.760320
 20
1595.793101
 42
0.003580
  0
VERTEX
  8
0
 10
2500.118335
 20
1570.015974
 42
-0.001227
  0
VERTEX
  8
0
 10
2500.371926
 20
1556.378448
 42
-0.002008
  0
VERTEX
  8
0
 10
2500.512029
 20
1544.821544
 42
-0.000225
  0
VERTEX
  8
0
 10
2500.590906
 20
1534.518378
 42
-0.200786
  0
VERTEX
  8
0
 10
2500.409668
 20
1534.076335
 42
-0.192703
  0
VERTEX
  8
0
 10
2499.636225
 20
1533.745073
 42
-0.000072
  0
VERTEX
  8
0
 10
2468.375700
 20
1533.001761
 42
-0.000087
  0
VERTEX
  8
0
 10
2437.202371
 20
1532.270486
 42
-0.153777
  0
VERTEX
  8
0
 10
2436.206042
 20
1532.559017
 42
-0.244276
  0
VERTEX
  8
0
 10
2436.082821
 20
1532.782134
 42
-0.000077
  0
VERTEX
  8
0
 10
2435.818596
 20
1543.240395
 42
-0.001254
  0
VERTEX
  8
0
 10
2435.555749
 20
1554.870417
 42
-0.000758
  0
VERTEX
  8
0
 10
2435.299869
 20
1568.646528
 42
-0.001388
  0
VERTEX
  8
0
 10
2434.979511
 20
1591.079304
 42
-0.011384
  0
VERTEX
  8
0
 10
2435.094741
 20
1601.309253
 42
-0.021539
  0
VERTEX
  8
0
 10
2435.673071
 20
1608.795222
 42
-0.013351
  0
VERTEX
  8
0
 10
2436.963699
 20
1617.519236
 42
-0.019841
  0
VERTEX
  8
0
 10
2440.024267
 20
1631.652872
 42
-0.032861
  0
VERTEX
  8
0
 10
2443.845811
 20
1643.237999
 42
-0.032472
  0
VERTEX
  8
0
 10
2449.187476
 20
1654.317418
 42
-0.018830
  0
VERTEX
  8
0
 10
2456.938000
 20
1666.907297
 42
-0.004975
  0
VERTEX
  8
0
 10
2462.703527
 20
1675.345093
 42
-0.023084
  0
VERTEX
  8
0
 10
2466.301051
 20
1680.023403
 42
-0.036854
  0
VERTEX
  8
0
 10
2469.436446
 20
1683.222308
 42
-0.031310
  0
VERTEX
  8
0
 10
2473.176108
 20
1686.119593
 42
-0.069263
  0
VERTEX
  8
0
 10
2484.826346
 20
1691.866267
 42
-0.023975
  0
VERTEX
  8
0
 10
2502.931184
 20
1696.915954
 42
-0.022478
  0
VERTEX
  8
0
 10
2524.376351
 20
1700.798668
 42
-0.019831
  0
VERTEX
  8
0
 10
2547.000000
 20
1702.943141
 42
0.000312
  0
VERTEX
  8
0
 10
2552.319744
 20
1703.238550
 42
0.000421
  0
VERTEX
  8
0
 10
2557.134076
 20
1703.512978
 42
0.000285
  0
VERTEX
  8
0
 10
2561.174359
 20
1703.749007
 42
0.004558
  0
VERTEX
  8
0
 10
2562.541536
 20
1703.842172
 42
-0.041171
  0
VERTEX
  8
0
 10
2563.877283
 20
1703.835305
 42
-0.003087
  0
VERTEX
  8
0
 10
2567.496169
 20
1703.495545
 42
-0.004253
  0
VERTEX
  8
0
 10
2571.812453
 20
1703.026296
 42
-0.003220
  0
SEQEND
  0
POLYLINE
  8
0
 66
1
 70
1
  0
VERTEX
  8
0
 10
2358.065925
 20
1691.750000
 42
-0.058528
  0
VERTEX
  8
0
 10
2358.095601
 20
1691.540789
 42
-0.000001
  0
VERTEX
  8
0
 10
2359.101175
 20
1649.624716
 42
-0.000065
  0
VERTEX
  8
0
 10
2360.202287
 20
1603.471257
 42
-0.000039
  0
VERTEX
  8
0
 10
2361.497605
 20
1548.695840
 42
0.000000
  0
VERTEX
  8
0
 10
2364.863360
 20
1405.891681
 42
0.000000
  0
VERTEX
  8
0
 10
2360.917098
 20
1386.847840
 42
-0.004397
  0
VERTEX
  8
0
 10
2358.284461
 20
1374.682711
 42
-0.026767
  0
VERTEX
  8
0
 10
2356.533972
 20
1368.488952
 42
-0.031410
  0
VERTEX
  8
0
 10
2354.236962
 20
1362.928708
 42
-0.007444
  0
VERTEX
  8
0
 10
2349.696573
 20
1353.978074
 42
-0.009846
  0
VERTEX
  8
0
 10
2345.499818
 20
1346.368921
 42
-0.018489
  0
VERTEX
  8
0
 10
2341.766012
 20
1340.422541
 42
-0.018082
  0
VERTEX
  8
0
 10
2337.547293
 20
1334.682724
 42
-0.008971
  0
VERTEX
  8
0
 10
2331.809767
 20
1327.701583
 42
0.000000
  0
VERTEX
  8
0
 10
2321.197224
 20
1315.251017
 42
0.000000
  0
VERTEX
  8
0
 10
2300.348612
 20
1303.781045
 42
-0.004269
  0
VERTEX
  8
0
 10
2288.207336
 20
1297.235861
 42
-0.016349
  0
VERTEX
  8
0
 10
2280.485496
 20
1293.475340
 42
-0.020829
  0
VERTEX
  8
0
 10
2273.504989
 20
1290.696587
 42
-0.010511
  0
VERTEX
  8
0
 10
2264.500000
 20
1287.750663
 42
0.000000
  0
VERTEX
  8
0
 10
2249.500000
 20
1283.190255
 42
0.000000
  0
VERTEX
  8
0
 10
2217.500000
 20
1282.679719
 42
0.000000
  0
VERTEX
  8
0
 10
2185.500000
 20
1282.169183
 42
0.000000
  0
VERTEX
  8
0
 10
2162.000000
 20
1289.208749
 42
-0.004537
  0
VERTEX
  8
0
 10
2149.204566
 20
1293.168565
 42
-0.012506
  0
VERTEX
  8
0
 10
2140.287261
 20
1296.264937
 42
-0.015416
  0
VERTEX
  8
0
 10
2132.654169
 20
1299.402964
 42
-0.010893
  0
VERTEX
  8
0
 10
2124.276744
 20
1303.374157
 42
0.000000
  0
VERTEX
  8
0
 10
2110.053488
 20
1310.500000
 42
0.000000
  0
VERTEX
  8
0
 10
2098.434330
 20
1323.500000
 42
0.000000
  0
VERTEX
  8
0
 10
2086.815171
 20
1336.500000
 42
0.000000
  0
VERTEX
  8
0
 10
2074.392260
 20
1361.272942
 42
0.000000
  0
VERTEX
  8
0
 10
2061.969348
 20
1386.045884
 42
0.000000
  0
VERTEX
  8
0
 10
2061.324777
 20
1426.358116
 42
0.000000
  0
VERTEX
  8
0
 10
2060.680205
 20
1466.670349
 42
0.000000
  0
VERTEX
  8
0
 10
2093.516676
 20
1467.325267
 42
-0.001063
  0
VERTEX
  8
0
 10
2106.132839
 20
1467.550055
 42
-0.001745
  0
VERTEX
  8
0
 10
2116.814859
 20
1467.680378
 42
-0.000170
  0
VERTEX
  8
0
 10
2126.362790
 20
1467.760296
 42
-0.201000
  0
VERTEX
  8
0
 10
2126.718851
 20
1467.614482
 42
-0.190301
  0
VERTEX
  8
0
 10
2126.872845
 20
1467.259488
 42
-0.000203
  0
VERTEX
  8
0
 10
2127.152651
 20
1458.727477
 42
-0.001868
  0
VERTEX
  8
0
 10
2127.426662
 20
1449.162970
 42
-0.001142
  0
VERTEX
  8
0
 10
2127.682075
 20
1437.874389
 42
0.000000
  0
VERTEX
  8
0
 10
2128.279595
 20
1408.500000
 42
0.000000
  0
VERTEX
  8
0
 10
2132.630474
 20
1396.156393
 42
0.010776
  0
VERTEX
  8
0
 10
2135.125170
 20
1389.537387
 42
0.020644
  0
VERTEX
  8
0
 10
2137.456487
 20
1384.362404
 42
0.021688
  0
VERTEX
  8
0
 10
2140.126024
 20
1379.566504
 42
0.013368
  0
VERTEX
  8
0
 10
2143.655279
 20
1374.156393
 42
0.003613
  0
VERTEX
  8
0
 10
2146.337379
 20
1370.335036
 42
0.004559
  0
VERTEX
  8
0
 10
2148.876427
 20
1366.840370
 42
0.003645
  0
VERTEX
  8
0
 10
2151.051844
 20
1363.947235
 42
0.036222
  0
VERTEX
  8
0
 10
2152.057504
 20
1362.810823
 42
0.062038
  0
VERTEX
  8
0
 10
2153.308217
 20
1361.859958
 42
0.004581
  0
VERTEX
  8
0
 10
2157.054887
 20
1359.729876
 42
0.006314
  0
VERTEX
  8
0
 10
2161.592429
 20
1357.279402
 42
0.004746
  0
VERTEX
  8
0
 10
2166.642901
 20
1354.694529
 42
0.006116
  0
VERTEX
  8
0
 10
2174.829851
 20
1350.726367
 42
0.034333
  0
VERTEX
  8
0
 10
2179.363061
 20
1348.965711
 42
0.039336
  0
VERTEX
  8
0
 10
2183.833775
 20
1347.950994
 42
0.009576
  0
VERTEX
  8
0
 10
2191.344445
 20
1347.004154
 42
0.012109
  0
VERTEX
  8
0
 10
2197.593741
 20
1346.490333
 42
0.009539
  0
VERTEX
  8
0
 10
2204.379227
 20
1346.227320
 42
0.008753
  0
VERTEX
  8
0
 10
2211.769258
 20
1346.211373
 42
0.006706
  0
VERTEX
  8
0
 10
2219.844445
 20
1346.443668
 42
0.014960
  0
VERTEX
  8
0
 10
2232.664504
 20
1347.369425
 42
0.032220
  0
VERTEX
  8
0
 10
2242.423526
 20
1349.008699
 42
0.033791
  0
VERTEX
  8
0
 10
2251.599082
 20
1351.830922
 42
0.018160
  0
VERTEX
  8
0
 10
2262.500000
 20
1356.468968
 42
0.057811
  0
VERTEX
  8
0
 10
2273.067650
 20
1363.007542
 42
0.060145
  0
VERTEX
  8
0
 10
2281.700736
 20
1371.715572
 42
0.059628
  0
VERTEX
  8
0
 10
2288.071589
 20
1382.300117
 42
0.055155
  0
VERTEX
  8
0
 10
2291.970856
 20
1394.368818
 42
0.043853
  0
VERTEX
  8
0
 10
2293.040337
 20
1403.655840
 42
0.008478
  0
VERTEX
  8
0
 10
2293.210357
 20
1420.576786
 42
0.003225
  0
VERTEX
  8
0
 10
2292.789465
 20
1452.084084
 42
0.000210
  0
VERTEX
  8
0
 10
2290.940765
 20
1543.471795
 42
-0.000035
  0
VERTEX
  8
0
 10
2289.830544
 20
1597.421067
 42
-0.000056
  0
VERTEX
  8
0
 10
2288.891456
 20
1643.461001
 42
-0.000009
  0
VERTEX
  8
0
 10
2288.064419
 20
1684.267311
 42
-0.003406
  0
VERTEX
  8
0
 10
2288.024676
 20
1687.225229
 42
0.000000
  0
VERTEX
  8
0
 10
2288.000000
 20
1690.950457
 42
0.000000
  0
VERTEX
  8
0
 10
2304.250000
 20
1691.251794
 42
-0.000943
  0
VERTEX
  8
0
 10
2324.139163
 20
1691.583089
 42
-0.001378
  0
VERTEX
  8
0
 10
2341.655989
 20
1691.793535
 42
-0.000074
  0
VERTEX
  8
0
 10
2357.816034
 20
1691.940759
 42
-0.343064
  0
SEQEND
  0
POLYLINE
  8
0
 66
1
 70
1
  0
VERTEX
  8
0
 10
979.064592
 20
1660.750000
 42
0.005128
  0
VERTEX
  8
0
 10
979.118902
 20
1658.342920
 42
0.002899
  0
VERTEX
  8
0
 10
979.231562
 20
1655.426563
 42
0.002893
  0
VERTEX
  8
0
 10
979.379257
 20
1652.486543
 42
0.004748
  0
VERTEX
  8
0
 10
979.542296
 20
1650.000000
 42
-0.000123
  0
VERTEX
  8
0
 10
979.739698
 20
1647.363203
 42
-0.000056
  0
VERTEX
  8
0
 10
979.996793
 20
1643.912500
 42
-0.000055
  0
VERTEX
  8
0
 10
980.267106
 20
1640.273496
 42
-0.000076
  0
VERTEX
  8
0
 10
980.509407
 20
1637.000000
 42
0.024570
  0
VERTEX
  8
0
 10
981.751699
 20
1626.939729
 42
0.003282
  0
VERTEX
  8
0
 10
985.549159
 20
1605.898778
 42
0.003842
  0
VERTEX
  8
0
 10
989.665787
 20
1584.812764
 42
0.015343
  0
VERTEX
  8
0
 10
992.681658
 20
1572.000000
 42
0.050253
  0
VERTEX
  8
0
 10
1002.708376
 20
1545.544684
 42
0.052623
  0
VERTEX
  8
0
 10
1017.690236
 20
1522.059862
 42
0.052969
  0
VERTEX
  8
0
 10
1037.143341
 20
1502.349813
 42
0.052204
  0
VERTEX
  8
0
 10
1060.393731
 20
1487.056795
 42
0.018736
  0
VERTEX
  8
0
 10
1070.023809
 20
1482.522842
 42
0.020964
  0
VERTEX
  8
0
 10
1079.616327
 20
1478.905236
 42
0.019990
  0
VERTEX
  8
0
 10
1089.868914
 20
1475.971069
 42
0.014438
  0
VERTEX
  8
0
 10
1101.500000
 20
1473.493342
 42
0.035365
  0
VERTEX
  8
0
 10
1109.083769
 20
1472.653341
 42
0.002456
  0
VERTEX
  8
0
 10
1130.563341
 20
1471.907710
 42
0.003455
  0
VERTEX
  8
0
 10
1151.746411
 20
1471.423012
 42
0.017152
  0
VERTEX
  8
0
 10
1163.655321
 20
1471.641361
 42
0.000000
  0
VERTEX
  8
0
 10
1175.810642
 20
1472.281727
 42
0.000000
  0
VERTEX
  8
0
 10
1176.358458
 20
1465.890863
 42
-0.016358
  0
VERTEX
  8
0
 10
1176.825691
 20
1457.049299
 42
-0.000101
  0
VERTEX
  8
0
 10
1178.416101
 20
1377.059099
 42
-0.000263
  0
VERTEX
  8
0
 10
1179.854838
 20
1301.942818
 42
-0.005452
  0
VERTEX
  8
0
 10
1180.029036
 20
1279.379928
 42
0.000000
  0
VERTEX
  8
0
 10
1180.000000
 20
1270.259856
 42
0.000000
  0
VERTEX
  8
0
 10
1146.442314
 20
1269.520948
 42
-0.001264
  0
VERTEX
  8
0
 10
1133.544278
 20
1269.269561
 42
-0.002067
  0
VERTEX
  8
0
 10
1122.611954
 20
1269.129338
 42
-0.000238
  0
VERTEX
  8
0
 10
1112.871090
 20
1269.049320
 42
-0.200924
  0
VERTEX
  8
0
 10
1112.441243
 20
1269.225423
 42
-0.191687
  0
VERTEX
  8
0
 10
1112.253578
 20
1269.661229
 42
-0.000055
  0
VERTEX
  8
0
 10
1111.693037
 20
1289.871695
 42
-0.000969
  0
VERTEX
  8
0
 10
1111.116554
 20
1312.315619
 42
-0.000587
  0
VERTEX
  8
0
 10
1110.516783
 20
1338.887979
 42
0.000779
  0
VERTEX
  8
0
 10
1109.714721
 20
1373.826863
 42
0.003687
  0
VERTEX
  8
0
 10
1109.076167
 20
1393.847317
 42
0.001693
  0
VERTEX
  8
0
 10
1108.483936
 20
1407.726947
 42
0.186977
  0
VERTEX
  8
0
 10
1107.747378
 20
1409.395480
 42
0.147767
  0
VERTEX
  8
0
 10
1106.610755
 20
1410.004645
 42
0.009784
  0
VERTEX
  8
0
 10
1102.918301
 20
1410.672780
 42
0.012211
  0
VERTEX
  8
0
 10
1098.090633
 20
1411.328609
 42
0.006169
  0
VERTEX
  8
0
 10
1091.979524
 20
1411.931050
 42
-0.030576
  0
VERTEX
  8
0
 10
1069.523832
 20
1415.257387
 42
-0.028105
  0
VERTEX
  8
0
 10
1046.985708
 20
1421.359040
 42
-0.027673
  0
VERTEX
  8
0
 10
1024.924390
 20
1430.066315
 42
-0.027434
  0
VERTEX
  8
0
 10
1003.893313
 20
1441.178969
 42
-0.006502
  0
VERTEX
  8
0
 10
995.924113
 20
1446.108446
 42
-0.020957
  0
VERTEX
  8
0
 10
990.813212
 20
1449.671966
 42
-0.027782
  0
VERTEX
  8
0
 10
986.837510
 20
1453.063899
 42
-0.020493
  0
VERTEX
  8
0
 10
982.817488
 20
1457.226822
 42
-0.033391
  0
VERTEX
  8
0
 10
958.182556
 20
1488.955545
 42
-0.036180
  0
VERTEX
  8
0
 10
938.714074
 20
1522.870306
 42
-0.036260
  0
VERTEX
  8
0
 10
924.372214
 20
1559.167121
 42
-0.033837
  0
VERTEX
  8
0
 10
915.026924
 20
1598.000000
 42
-0.017598
  0
VERTEX
  8
0
 10
913.321198
 20
1610.718058
 42
-0.009300
  0
VERTEX
  8
0
 10
912.056194
 20
1626.590410
 42
-0.009231
  0
VERTEX
  8
0
 10
911.394660
 20
1642.157717
 42
-0.022146
  0
VERTEX
  8
0
 10
911.628767
 20
1653.701755
 42
0.000000
  0
VERTEX
  8
0
 10
912.294565
 20
1664.000000
 42
0.000000
  0
VERTEX
  8
0
 10
916.397282
 20
1664.135602
 42
-0.001829
  0
VERTEX
  8
0
 10
919.159622
 20
1664.216787
 42
-0.000108
  0
VERTEX
  8
0
 10
927.519827
 20
1664.430070
 42
-0.000163
  0
VERTEX
  8
0
 10
937.475879
 20
1664.678648
 42
-0.000121
  0
VERTEX
  8
0
 10
948.500000
 20
1664.947628
 42
0.000526
  0
VERTEX
  8
0
 10
959.322622
 20
1665.220479
 42
0.000821
  0
VERTEX
  8
0
 10
968.642187
 20
1665.480570
 42
0.000216
  0
VERTEX
  8
0
 10
976.778709
 20
1665.724536
 42
0.029722
  0
VERTEX
  8
0
 10
977.750000
 20
1665.812026
 42
-0.287944
  0
VERTEX
  8
0
 10
978.310062
 20
1665.567633
 42
-0.086346
  0
VERTEX
  8
0
 10
978.712574
 20
1664.681453
 42
-0.046119
  0
VERTEX
  8
0
 10
978.967219
 20
1663.122475
 42
-0.014360
  0
SEQEND
  0
POLYLINE
  8
0
 66
1
 70
1
  0
VERTEX
  8
0
 10
2570.513910
 20
1648.530985
 42
-0.048104
  0
VERTEX
  8
0
 10
2578.666633
 20
1644.530945
 42
-0.042035
  0
VERTEX
  8
0
 10
2586.309067
 20
1638.884823
 42
-0.042469
  0
VERTEX
  8
0
 10
2592.819250
 20
1632.111664
 42
-0.052091
  0
VERTEX
  8
0
 10
2597.601172
 20
1624.758932
 42
-0.050489
  0
VERTEX
  8
0
 10
2600.429007
 20
1617.503588
 42
-0.039305
  0
VERTEX
  8
0
 10
2602.047024
 20
1609.188379
 42
-0.020185
  0
VERTEX
  8
0
 10
2602.970803
 20
1596.599572
 42
-0.003256
  0
VERTEX
  8
0
 10
2603.619332
 20
1572.016442
 42
0.001468
  0
VERTEX
  8
0
 10
2604.044344
 20
1553.378021
 42
0.007943
  0
VERTEX
  8
0
 10
2604.465484
 20
1543.265063
 42
0.008265
  0
VERTEX
  8
0
 10
2604.943327
 20
1536.822563
 42
0.175477
  0
VERTEX
  8
0
 10
2605.743770
 20
1535.113373
 42
0.174189
  0
VERTEX
  8
0
 10
2607.365092
 20
1534.349132
 42
0.016309
  0
VERTEX
  8
0
 10
2611.838268
 20
1534.067172
 42
0.011213
  0
VERTEX
  8
0
 10
2619.219753
 20
1534.008778
 42
0.001818
  0
VERTEX
  8
0
 10
2633.564035
 20
1534.269170
 42
0.000000
  0
VERTEX
  8
0
 10
2659.964789
 20
1534.844479
 42
0.000000
  0
VERTEX
  8
0
 10
2660.934021
 20
1531.172239
 42
-0.003000
  0
VERTEX
  8
0
 10
2661.608971
 20
1528.551356
 42
-0.000097
  0
VERTEX
  8
0
 10
2664.255727
 20
1518.003720
 42
-0.000187
  0
VERTEX
  8
0
 10
2667.370832
 20
1505.559687
 42
-0.000130
  0
VERTEX
  8
0
 10
2670.880909
 20
1491.500000
 42
0.000000
  0
VERTEX
  8
0
 10
2679.858566
 20
1455.500000
 42
0.000000
  0
VERTEX
  8
0
 10
2680.552851
 20
1416.000000
 42
0.000000
  0
VERTEX
  8
0
 10
2681.247136
 20
1376.500000
 42
0.000000
  0
VERTEX
  8
0
 10
2647.373568
 20
1363.790671
 42
0.000000
  0
VERTEX
  8
0
 10
2613.500000
 20
1351.081342
 42
0.000000
  0
VERTEX
  8
0
 10
2563.000000
 20
1350.036707
 42
-0.000256
  0
VERTEX
  8
0
 10
2543.176927
 20
1349.636822
 42
-0.000356
  0
VERTEX
  8
0
 10
2525.406176
 20
1349.300098
 42
-0.000219
  0
VERTEX
  8
0
 10
2510.446727
 20
1349.033829
 42
-0.004491
  0
VERTEX
  8
0
 10
2505.935919
 20
1348.996036
 42
0.000000
  0
VERTEX
  8
0
 10
2499.371838
 20
1349.000000
 42
0.000000
  0
VERTEX
  8
0
 10
2496.632972
 20
1360.956067
 42
0.000000
  0
VERTEX
  8
0
 10
2493.894105
 20
1372.912134
 42
0.000000
  0
VERTEX
  8
0
 10
2513.853213
 20
1411.206067
 42
0.000000
  0
VERTEX
  8
0
 10
2533.812320
 20
1449.500000
 42
0.000000
  0
VERTEX
  8
0
 10
2548.406160
 20
1502.343810
 42
0.000939
  0
VERTEX
  8
0
 10
2554.002003
 20
1522.755466
 42
0.001480
  0
VERTEX
  8
0
 10
2558.720200
 20
1540.298132
 42
0.000343
  0
VERTEX
  8
0
 10
2562.800101
 20
1555.691120
 42
0.061862
  0
VERTEX
  8
0
 10
2563.024309
 20
1557.343810
 42
0.040201
  0
VERTEX
  8
0
 10
2562.910668
 20
1558.986117
 42
0.000371
  0
VERTEX
  8
0
 10
2561.083979
 20
1571.057244
 42
0.001258
  0
VERTEX
  8
0
 10
2558.937143
 20
1584.938053
 42
0.000813
  0
VERTEX
  8
0
 10
2556.384795
 20
1601.000000
 42
0.000000
  0
VERTEX
  8
0
 10
2549.720973
 20
1642.500000
 42
0.000000
  0
VERTEX
  8
0
 10
2545.259565
 20
1646.683618
 42
0.000000
  0
VERTEX
  8
0
 10
2540.798157
 20
1650.867236
 42
0.000000
  0
VERTEX
  8
0
 10
2544.649078
 20
1651.326291
 42
-0.034105
  0
VERTEX
  8
0
 10
2550.870597
 20
1651.640518
 42
-0.022488
  0
VERTEX
  8
0
 10
2558.022544
 20
1651.191592
 42
-0.022653
  0
VERTEX
  8
0
 10
2564.964885
 20
1650.121373
 42
-0.040458
  0
SEQEND
  0
POLYLINE
  8
0
 66
1
 70
1
  0
VERTEX
  8
0
 10
749.288674
 20
1537.541752
 42
-0.077314
  0
VERTEX
  8
0
 10
785.420495
 20
1525.135951
 42
-0.077757
  0
VERTEX
  8
0
 10
815.997011
 20
1502.358016
 42
-0.078036
  0
VERTEX
  8
0
 10
838.070928
 20
1471.410588
 42
-0.078716
  0
VERTEX
  8
0
 10
849.514319
 20
1435.278211
 42
-0.031027
  0
VERTEX
  8
0
 10
850.716112
 20
1421.589759
 42
-0.006257
  0
VERTEX
  8
0
 10
851.034441
 20
1397.149737
 42
-0.006030
  0
VERTEX
  8
0
 10
850.752542
 20
1372.740899
 42
-0.034740
  0
VERTEX
  8
0
 10
849.552858
 20
1359.886741
 42
-0.066461
  0
VERTEX
  8
0
 10
840.097282
 20
1328.796102
 42
-0.067308
  0
VERTEX
  8
0
 10
822.843997
 20
1301.421713
 42
-0.067360
  0
VERTEX
  8
0
 10
798.953671
 20
1279.630189
 42
-0.066740
  0
VERTEX
  8
0
 10
770.058434
 20
1264.891021
 42
-0.016435
  0
VERTEX
  8
0
 10
767.285420
 20
1264.016375
 42
-0.005808
  0
VERTEX
  8
0
 10
763.260663
 20
1262.941162
 42
-0.005758
  0
VERTEX
  8
0
 10
758.808353
 20
1261.861412
 42
-0.006734
  0
VERTEX
  8
0
 10
754.558434
 20
1260.942514
 42
-0.037397
  0
VERTEX
  8
0
 10
744.072640
 20
1259.627993
 42
-0.004753
  0
VERTEX
  8
0
 10
721.312518
 20
1258.706895
 42
-0.002390
  0
VERTEX
  8
0
 10
680.725827
 20
1257.644841
 42
-0.000217
  0
VERTEX
  8
0
 10
579.515753
 20
1255.524563
 42
-0.000319
  0
VERTEX
  8
0
 10
497.062375
 20
1253.885664
 42
-0.001484
  0
VERTEX
  8
0
 10
449.493941
 20
1253.111716
 42
-0.000220
  0
VERTEX
  8
0
 10
414.986293
 20
1252.667886
 42
-0.259813
  0
VERTEX
  8
0
 10
413.781066
 20
1253.320002
 42
-0.135504
  0
VERTEX
  8
0
 10
413.324547
 20
1254.811217
 42
-0.001273
  0
VERTEX
  8
0
 10
413.033608
 20
1266.370404
 42
-0.003038
  0
VERTEX
  8
0
 10
412.768411
 20
1282.401017
 42
-0.000785
  0
VERTEX
  8
0
 10
412.538462
 20
1308.250000
 42
0.000000
  0
VERTEX
  8
0
 10
412.500000
 20
1313.500000
 42
0.000000
  0
VERTEX
  8
0
 10
493.155305
 20
1315.122115
 42
0.000663
  0
VERTEX
  8
0
 10
533.909173
 20
1315.995840
 42
0.003162
  0
VERTEX
  8
0
 10
557.194673
 20
1316.673323
 42
0.001301
  0
VERTEX
  8
0
 10
573.420579
 20
1317.290402
 42
0.179580
  0
VERTEX
  8
0
 10
575.184909
 20
1318.028018
 42
0.216003
  0
VERTEX
  8
0
 10
575.808564
 20
1319.528274
 42
0.020622
  0
VERTEX
  8
0
 10
575.513230
 20
1323.581089
 42
0.013163
  0
VERTEX
  8
0
 10
574.555560
 20
1330.361791
 42
0.001977
  0
VERTEX
  8
0
 10
572.222463
 20
1343.905902
 42
-0.003868
  0
VERTEX
  8
0
 10
569.521178
 20
1359.949852
 42
-0.017747
  0
VERTEX
  8
0
 10
568.357813
 20
1369.315969
 42
-0.015084
  0
VERTEX
  8
0
 10
567.774297
 20
1379.379058
 42
-0.002270
  0
VERTEX
  8
0
 10
567.305086
 20
1399.586162
 42
-0.002040
  0
VERTEX
  8
0
 10
567.052677
 20
1416.878245
 42
-0.009400
  0
VERTEX
  8
0
 10
567.135660
 20
1426.894701
 42
-0.015720
  0
VERTEX
  8
0
 10
567.557776
 20
1434.099352
 42
-0.018932
  0
VERTEX
  8
0
 10
568.422340
 20
1440.826409
 42
-0.035259
  0
VERTEX
  8
0
 10
572.609040
 20
1458.223288
 42
-0.039553
  0
VERTEX
  8
0
 10
579.086768
 20
1474.175932
 42
-0.039417
  0
VERTEX
  8
0
 10
588.018357
 20
1488.955961
 42
-0.034576
  0
VERTEX
  8
0
 10
599.524899
 20
1502.855262
 42
-0.034373
  0
VERTEX
  8
0
 10
612.305122
 20
1514.558970
 42
-0.038167
  0
VERTEX
  8
0
 10
626.148463
 20
1523.957576
 42
-0.038598
  0
VERTEX
  8
0
 10
641.114083
 20
1531.057783
 42
-0.036746
  0
VERTEX
  8
0
 10
657.239030
 20
1535.911298
 42
-0.012095
  0
VERTEX
  8
0
 10
665.946660
 20
1537.628613
 42
-0.028067
  0
VERTEX
  8
0
 10
672.558090
 20
1538.388361
 42
-0.012833
  0
VERTEX
  8
0
 10
681.638203
 20
1538.684731
 42
-0.000908
  0
VERTEX
  8
0
 10
707.000000
 20
1538.815280
 42
-0.002122
  0
VERTEX
  8
0
 10
723.904328
 20
1538.799848
 42
-0.006237
  0
VERTEX
  8
0
 10
735.538614
 20
1538.594694
 42
-0.008592
  0
VERTEX
  8
0
 10
743.831459
 20
1538.202237
 42
-0.027993
  0
SEQEND
  0
POLYLINE
  8
0
 66
1
 70
1
  0
VERTEX
  8
0
 10
2214.000000
 20
807.956133
 42
-0.000095
  0
VERTEX
  8
0
 10
2202.939430
 20
806.063309
 42
-0.000111
  0
VERTEX
  8
0
 10
2192.447592
 20
804.272264
 42
-0.000098
  0
VERTEX
  8
0
 10
2183.577807
 20
802.761930
 42
-0.000684
  0
VERTEX
  8
0
 10
2179.247123
 20
802.031472
 42
0.011467
  0
VERTEX
  8
0
 10
2176.501372
 20
801.507214
 42
0.020436
  0
VERTEX
  8
0
 10
2174.274329
 20
800.932711
 42
0.017226
  0
VERTEX
  8
0
 10
2172.632386
 20
800.374379
 42
0.471436
  0
VERTEX
  8
0
 10
2172.503354
 20
799.994574
 42
-0.138002
  0
VERTEX
  8
0
 10
2172.602333
 20
799.649459
 42
-0.130626
  0
VERTEX
  8
0
 10
2172.510078
 20
799.295187
 42
-0.108818
  0
VERTEX
  8
0
 10
2172.232052
 20
798.985335
 42
-0.075379
  0
VERTEX
  8
0
 10
2171.811327
 20
798.770442
 42
0.328086
  0
VERTEX
  8
0
 10
2170.635830
 20
797.106365
 42
0.000113
  0
VERTEX
  8
0
 10
2172.216776
 20
715.040316
 42
0.000129
  0
VERTEX
  8
0
 10
2173.834268
 20
633.135944
 42
0.254601
  0
VERTEX
  8
0
 10
2175.082340
 20
630.949111
 42
-0.068140
  0
VERTEX
  8
0
 10
2175.473269
 20
630.626697
 42
-0.072983
  0
VERTEX
  8
0
 10
2175.752552
 20
630.217922
 42
-0.081342
  0
VERTEX
  8
0
 10
2175.881351
 20
629.788410
 42
-0.124716
  0
VERTEX
  8
0
 10
2175.835410
 20
629.404623
 42
0.418314
  0
VERTEX
  8
0
 10
2176.140092
 20
628.731597
 42
0.000154
  0
VERTEX
  8
0
 10
2204.260117
 20
618.371337
 42
0.000792
  0
VERTEX
  8
0
 10
2230.728243
 20
608.676510
 42
0.046226
  0
VERTEX
  8
0
 10
2235.705015
 20
607.367828
 42
0.045840
  0
VERTEX
  8
0
 10
2236.352550
 20
607.320387
 42
0.000033
  0
VERTEX
  8
0
 10
2253.511149
 20
607.638693
 42
0.000388
  0
VERTEX
  8
0
 10
2272.640350
 20
608.009671
 42
0.000237
  0
VERTEX
  8
0
 10
2295.205279
 20
608.475525
 42
0.000000
  0
VERTEX
  8
0
 10
2353.910558
 20
609.715393
 42
0.000000
  0
VERTEX
  8
0
 10
2378.705279
 20
621.621646
 42
0.002440
  0
VERTEX
  8
0
 10
2388.222925
 20
626.249236
 42
0.003952
  0
VERTEX
  8
0
 10
2396.264899
 20
630.287247
 42
0.000778
  0
VERTEX
  8
0
 10
2403.288771
 20
633.897658
 42
0.231074
  0
VERTEX
  8
0
 10
2403.664590
 20
634.402146
 42
-0.075653
  0
VERTEX
  8
0
 10
2403.797516
 20
634.781414
 42
-0.040797
  0
VERTEX
  8
0
 10
2404.065175
 20
635.199300
 42
-0.039480
  0
VERTEX
  8
0
 10
2404.414577
 20
635.589620
 42
-0.049563
  0
VERTEX
  8
0
 10
2404.797157
 20
635.888197
 42
0.330917
  0
VERTEX
  8
0
 10
2405.054521
 20
636.555695
 42
0.004728
  0
VERTEX
  8
0
 10
2403.798726
 20
640.912945
 42
0.010399
  0
VERTEX
  8
0
 10
2402.089462
 20
646.233235
 42
0.005521
  0
VERTEX
  8
0
 10
2399.763344
 20
652.753118
 42
0.000000
  0
VERTEX
  8
0
 10
2393.761555
 20
669.006237
 42
0.000000
  0
VERTEX
  8
0
 10
2318.930081
 20
740.253118
 42
0.000650
  0
VERTEX
  8
0
 10
2290.187197
 20
767.547993
 42
0.001080
  0
VERTEX
  8
0
 10
2265.878399
 20
790.472702
 42
0.000050
  0
VERTEX
  8
0
 10
2243.919395
 20
811.087810
 42
0.311430
  0
VERTEX
  8
0
 10
2243.411107
 20
811.164590
 42
-0.134379
  0
VERTEX
  8
0
 10
2243.102194
 20
811.106224
 42
-0.085680
  0
VERTEX
  8
0
 10
2242.745843
 20
811.197731
 42
-0.074848
  0
VERTEX
  8
0
 10
2242.397097
 20
811.422113
 42
-0.065701
  0
VERTEX
  8
0
 10
2242.111803
 20
811.748414
 42
0.285212
  0
VERTEX
  8
0
 10
2241.417821
 20
812.064919
 42
0.001578
  0
VERTEX
  8
0
 10
2233.884597
 20
811.072880
 42
0.005782
  0
VERTEX
  8
0
 10
2224.963256
 20
809.764189
 42
0.003116
  0
SEQEND
  0
POLYLINE
  8
0
 66
1
 70
1
  0
VERTEX
  8
0
 10
2316.361741
 20
736.715269
 42
0.000000
  0
VERTEX
  8
0
 10
2390.709573
 20
665.930539
 42
0.000000
  0
VERTEX
  8
0
 10
2395.821927
 20
651.816610
 42
-0.003795
  0
VERTEX
  8
0
 10
2397.752195
 20
646.358606
 42
-0.006027
  0
VERTEX
  8
0
 10
2399.312568
 20
641.654551
 42
-0.001842
  0
VERTEX
  8
0
 10
2400.593991
 20
637.577845
 42
-0.216919
  0
VERTEX
  8
0
 10
2400.525912
 20
637.041927
 42
-0.139288
  0
VERTEX
  8
0
 10
2400.090078
 20
636.643630
 42
-0.000437
  0
VERTEX
  8
0
 10
2393.339172
 20
633.275674
 42
-0.002424
  0
VERTEX
  8
0
 10
2385.666020
 20
629.502297
 42
-0.001509
  0
VERTEX
  8
0
 10
2376.633868
 20
625.148507
 42
0.000000
  0
VERTEX
  8
0
 10
2353.150192
 20
613.915840
 42
0.000000
  0
VERTEX
  8
0
 10
2294.712625
 20
612.774758
 42
0.000000
  0
VERTEX
  8
0
 10
2236.275059
 20
611.633676
 42
0.000000
  0
VERTEX
  8
0
 10
2207.137529
 20
622.019659
 42
0.000000
  0
VERTEX
  8
0
 10
2178.000000
 20
632.405642
 42
0.000000
  0
VERTEX
  8
0
 10
2178.006888
 20
637.952821
 42
0.005092
  0
VERTEX
  8
0
 10
2177.970052
 20
642.072330
 42
0.000090
  0
VERTEX
  8
0
 10
2177.541097
 20
664.289904
 42
0.000226
  0
VERTEX
  8
0
 10
2177.025043
 20
690.171987
 42
0.000151
  0
VERTEX
  8
0
 10
2176.411541
 20
719.821320
 42
-0.000707
  0
VERTEX
  8
0
 10
2175.837804
 20
749.125344
 42
-0.001166
  0
VERTEX
  8
0
 10
2175.445771
 20
773.889060
 42
-0.000076
  0
VERTEX
  8
0
 10
2175.148642
 20
796.153309
 42
-0.202343
  0
VERTEX
  8
0
 10
2175.373759
 20
796.707092
 42
-0.154831
  0
VERTEX
  8
0
 10
2176.893809
 20
797.494925
 42
-0.000259
  0
VERTEX
  8
0
 10
2206.475176
 20
802.586038
 42
-0.000638
  0
VERTEX
  8
0
 10
2234.982195
 20
807.439620
 42
-0.057092
  0
VERTEX
  8
0
 10
2239.256955
 20
807.667704
 42
-0.170562
  0
VERTEX
  8
0
 10
2241.881807
 20
806.562182
 42
-0.001842
  0
VERTEX
  8
0
 10
2256.519383
 20
793.191845
 42
-0.003563
  0
VERTEX
  8
0
 10
2277.887089
 20
773.246016
 42
-0.000683
  0
SEQEND
  0
POLYLINE
  8
0
 66
1
 70
1
  0
VERTEX
  8
0
 10
2318.500000
 20
1825.967082
 42
0.061310
  0
VERTEX
  8
0
 10
2309.678739
 20
1823.012710
 42
0.055893
  0
VERTEX
  8
0
 10
2301.533405
 20
1817.936471
 42
0.055608
  0
VERTEX
  8
0
 10
2294.677228
 20
1811.152806
 42
0.059361
  0
VERTEX
  8
0
 10
2289.657294
 20
1803.164167
 42
0.017421
  0
VERTEX
  8
0
 10
2287.854712
 20
1798.989488
 42
0.048457
  0
VERTEX
  8
0
 10
2286.985419
 20
1795.919454
 42
0.038228
  0
VERTEX
  8
0
 10
2286.618325
 20
1792.356730
 42
0.007755
  0
VERTEX
  8
0
 10
2286.550007
 20
1786.000000
 42
0.008074
  0
VERTEX
  8
0
 10
2286.675442
 20
1780.001943
 42
0.031743
  0
VERTEX
  8
0
 10
2287.046409
 20
1776.323950
 42
0.042643
  0
VERTEX
  8
0
 10
2287.818563
 20
1773.290079
 42
0.024189
  0
VERTEX
  8
0
 10
2289.235303
 20
1769.771877
 42
0.096005
  0
VERTEX
  8
0
 10
2299.205683
 20
1755.882891
 42
0.106378
  0
VERTEX
  8
0
 10
2313.318981
 20
1747.330622
 42
0.106253
  0
VERTEX
  8
0
 10
2329.714625
 20
1745.334874
 42
0.095580
  0
VERTEX
  8
0
 10
2346.173184
 20
1750.088352
 42
0.069904
  0
VERTEX
  8
0
 10
2352.738703
 20
1754.690085
 42
0.041679
  0
VERTEX
  8
0
 10
2359.159758
 20
1761.770809
 42
0.041978
  0
VERTEX
  8
0
 10
2364.214095
 20
1769.667351
 42
0.082363
  0
VERTEX
  8
0
 10
2366.562565
 20
1776.728061
 42
-0.000834
  0
VERTEX
  8
0
 10
2366.769286
 20
1778.022073
 42
-0.000431
  0
VERTEX
  8
0
 10
2367.031854
 20
1779.639388
 42
-0.000429
  0
VERTEX
  8
0
 10
2367.304653
 20
1781.301642
 42
-0.000650
  0
VERTEX
  8
0
 10
2367.544970
 20
1782.746451
 42
0.065991
  0
VERTEX
  8
0
 10
2367.688017
 20
1786.911490
 42
0.026092
  0
VERTEX
  8
0
 10
2366.832015
 20
1792.589453
 42
0.025695
  0
VERTEX
  8
0
 10
2365.281712
 20
1798.581315
 42
0.033523
  0
VERTEX
  8
0
 10
2363.226124
 20
1803.856321
 42
0.052446
  0
VERTEX
  8
0
 10
2359.999726
 20
1809.197514
 42
0.031462
  0
VERTEX
  8
0
 10
2355.158270
 20
1814.817693
 42
0.031589
  0
VERTEX
  8
0
 10
2349.720202
 20
1819.720037
 42
0.058764
  0
VERTEX
  8
0
 10
2344.675959
 20
1822.834135
 42
0.039199
  0
VERTEX
  8
0
 10
2338.365002
 20
1825.190391
 42
0.039984
  0
VERTEX
  8
0
 10
2331.805261
 20
1826.513611
 42
0.040097
  0
VERTEX
  8
0
 10
2325.136202
 20
1826.773633
 42
0.039902
  0
SEQEND
  0
POLYLINE
  8
0
 66
1
 70
1
  0
VERTEX
  8
0
 10
2339.000000
 20
1820.264721
 42
-0.054499
  0
VERTEX
  8
0
 10
2345.627866
 20
1817.036578
 42
-0.048076
  0
VERTEX
  8
0
 10
2351.711288
 20
1812.332660
 42
-0.047837
  0
VERTEX
  8
0
 10
2356.813026
 20
1806.526536
 42
-0.052653
  0
VERTEX
  8
0
 10
2360.532199
 20
1800.032396
 42
-0.036248
  0
VERTEX
  8
0
 10
2361.483901
 20
1797.362606
 42
-0.032592
  0
VERTEX
  8
0
 10
2362.081223
 20
1794.486929
 42
-0.024912
  0
VERTEX
  8
0
 10
2362.402119
 20
1790.924195
 42
-0.010004
  0
VERTEX
  8
0
 10
2362.500000
 20
1786.032396
 42
-0.009538
  0
VERTEX
  8
0
 10
2362.396595
 20
1780.612299
 42
-0.034045
  0
VERTEX
  8
0
 10
2362.029070
 20
1777.165112
 42
-0.043096
  0
VERTEX
  8
0
 10
2361.248263
 20
1774.234894
 42
-0.022932
  0
VERTEX
  8
0
 10
2359.811829
 20
1770.764210
 42
-0.049969
  0
VERTEX
  8
0
 10
2356.546853
 20
1765.294157
 42
-0.037463
  0
VERTEX
  8
0
 10
2351.956558
 20
1759.984579
 42
-0.037595
  0
VERTEX
  8
0
 10
2346.649634
 20
1755.442641
 42
-0.051790
  0
VERTEX
  8
0
 10
2341.236715
 20
1752.276646
 42
-0.022770
  0
VERTEX
  8
0
 10
2337.889940
 20
1750.939047
 42
-0.038517
  0
VERTEX
  8
0
 10
2334.971598
 20
1750.169912
 42
-0.032920
  0
VERTEX
  8
0
 10
2331.667802
 20
1749.788694
 42
-0.012215
  0
VERTEX
  8
0
 10
2326.986979
 20
1749.673368
 42
-0.012325
  0
VERTEX
  8
0
 10
2322.006813
 20
1749.795136
 42
-0.040340
  0
VERTEX
  8
0
 10
2318.743054
 20
1750.220941
 42
-0.043126
  0
VERTEX
  8
0
 10
2315.705519
 20
1751.149149
 42
-0.015631
  0
VERTEX
  8
0
 10
2311.574807
 20
1752.964298
 42
-0.040361
  0
VERTEX
  8
0
 10
2305.706878
 20
1756.370699
 42
-0.042105
  0
VERTEX
  8
0
 10
2300.551105
 20
1760.632944
 42
-0.043288
  0
VERTEX
  8
0
 10
2296.309668
 20
1765.574473
 42
-0.048366
  0
VERTEX
  8
0
 10
2293.158901
 20
1771.000000
 42
-0.062415
  0
VERTEX
  8
0
 10
2291.236507
 20
1777.110421
 42
-0.038398
  0
VERTEX
  8
0
 10
2290.457164
 20
1784.622405
 42
-0.038316
  0
VERTEX
  8
0
 10
2290.836002
 20
1792.196364
 42
-0.060383
  0
VERTEX
  8
0
 10
2292.426743
 20
1798.500000
 42
-0.092111
  0
VERTEX
  8
0
 10
2300.008136
 20
1810.823595
 42
-0.099933
  0
VERTEX
  8
0
 10
2311.323168
 20
1819.184477
 42
-0.100766
  0
VERTEX
  8
0
 10
2324.915027
 20
1822.457547
 42
-0.095238
  0
SEQEND
  0
POLYLINE
  8
0
 66
1
 70
1
  0
VERTEX
  8
0
 10
1354.500000
 20
1894.612084
 42
0.000000
  0
VERTEX
  8
0
 10
1321.500000
 20
1888.320242
 42
0.000000
  0
VERTEX
  8
0
 10
1290.683394
 20
1875.516878
 42
0.000000
  0
VERTEX
  8
0
 10
1259.866789
 20
1862.713513
 42
0.000000
  0
VERTEX
  8
0
 10
1235.002113
 20
1844.843478
 42
0.002648
  0
VERTEX
  8
0
 10
1225.258907
 20
1837.762572
 42
0.003614
  0
VERTEX
  8
0
 10
1216.559166
 20
1831.271979
 42
0.002383
  0
VERTEX
  8
0
 10
1209.326197
 20
1825.739430
 42
0.041278
  0
VERTEX
  8
0
 10
1207.133963
 20
1823.736722
 42
0.013396
  0
VERTEX
  8
0
 10
1205.224904
 20
1821.565550
 42
0.001005
  0
VERTEX
  8
0
 10
1200.207550
 20
1815.516586
 42
0.001389
  0
VERTEX
  8
0
 10
1194.256665
 20
1808.271828
 42
0.001056
  0
VERTEX
  8
0
 10
1187.772332
 20
1800.298465
 42
0.000000
  0
VERTEX
  8
0
 10
1171.414177
 20
1780.096931
 42
0.000000
  0
VERTEX
  8
0
 10
1161.686044
 20
1755.737337
 42
0.001596
  0
VERTEX
  8
0
 10
1157.923075
 20
1746.226714
 42
0.002325
  0
VERTEX
  8
0
 10
1154.671704
 20
1737.816956
 42
0.001145
  0
VERTEX
  8
0
 10
1151.959574
 20
1730.654580
 42
0.040406
  0
VERTEX
  8
0
 10
1151.468220
 20
1728.938872
 42
0.034447
  0
VERTEX
  8
0
 10
1151.238149
 20
1727.169226
 42
0.000990
  0
VERTEX
  8
0
 10
1150.794096
 20
1719.578919
 42
0.002000
  0
VERTEX
  8
0
 10
1150.324723
 20
1710.639106
 42
0.001375
  0
VERTEX
  8
0
 10
1149.860984
 20
1700.500000
 42
0.000000
  0
VERTEX
  8
0
 10
1148.743440
 20
1674.500000
 42
0.000000
  0
VERTEX
  8
0
 10
1156.727978
 20
1648.416104
 42
0.000000
  0
VERTEX
  8
0
 10
1164.712517
 20
1622.332207
 42
0.000000
  0
VERTEX
  8
0
 10
1181.198924
 20
1598.916104
 42
0.000000
  0
VERTEX
  8
0
 10
1197.685331
 20
1575.500000
 42
0.000000
  0
VERTEX
  8
0
 10
1222.002856
 20
1555.779936
 42
0.000670
  0
VERTEX
  8
0
 10
1231.375941
 20
1548.199715
 42
0.001079
  0
VERTEX
  8
0
 10
1239.383023
 20
1541.770410
 42
0.000158
  0
VERTEX
  8
0
 10
1246.506992
 20
1536.079142
 42
0.073584
  0
VERTEX
  8
0
 10
1247.021368
 20
1535.779936
 42
-0.299843
  0
VERTEX
  8
0
 10
1247.316122
 20
1535.356612
 42
-0.000029
  0
VERTEX
  8
0
 10
1248.311546
 20
1496.399110
 42
-0.000812
  0
VERTEX
  8
0
 10
1249.340832
 20
1453.277931
 42
-0.000488
  0
VERTEX
  8
0
 10
1250.429099
 20
1402.110649
 42
0.000338
  0
VERTEX
  8
0
 10
1251.949870
 20
1329.583240
 42
0.002243
  0
VERTEX
  8
0
 10
1252.895529
 20
1293.396796
 42
0.000844
  0
VERTEX
  8
0
 10
1253.672998
 20
1269.336215
 42
0.190093
  0
VERTEX
  8
0
 10
1254.557351
 20
1267.299792
 42
0.204007
  0
VERTEX
  8
0
 10
1258.215936
 20
1265.826159
 42
0.000095
  0
VERTEX
  8
0
 10
1390.177111
 20
1268.435876
 42
0.000099
  0
VERTEX
  8
0
 10
1522.054674
 20
1271.095153
 42
0.193626
  0
VERTEX
  8
0
 10
1525.859662
 20
1272.716805
 42
0.183121
  0
VERTEX
  8
0
 10
1526.611840
 20
1274.386903
 42
0.010639
  0
VERTEX
  8
0
 10
1526.837674
 20
1280.077537
 42
0.008775
  0
VERTEX
  8
0
 10
1526.845398
 20
1289.300015
 42
0.001419
  0
VERTEX
  8
0
 10
1526.494575
 20
1307.242257
 42
0.001906
  0
VERTEX
  8
0
 10
1526.081715
 20
1322.996387
 42
0.006785
  0
VERTEX
  8
0
 10
1525.641931
 20
1333.080863
 42
0.004457
  0
VERTEX
  8
0
 10
1525.169862
 20
1340.215957
 42
0.179496
  0
VERTEX
  8
0
 10
1524.527960
 20
1341.614897
 42
0.199957
  0
VERTEX
  8
0
 10
1522.873750
 20
1342.296204
 42
0.000953
  0
VERTEX
  8
0
 10
1504.102911
 20
1342.185032
 42
0.002713
  0
VERTEX
  8
0
 10
1477.022108
 20
1341.826057
 42
0.000524
  0
VERTEX
  8
0
 10
1428.045162
 20
1340.859600
 42
-0.000311
  0
VERTEX
  8
0
 10
1391.498585
 20
1340.122807
 42
-0.000516
  0
VERTEX
  8
0
 10
1360.684335
 20
1339.552539
 42
-0.000014
  0
VERTEX
  8
0
 10
1332.790262
 20
1339.065905
 42
-0.213117
  0
VERTEX
  8
0
 10
1332.498879
 20
1339.189972
 42
-0.183641
  0
VERTEX
  8
0
 10
1332.305574
 20
1339.666905
 42
-0.000004
  0
VERTEX
  8
0
 10
1330.635358
 20
1416.158503
 42
-0.000107
  0
VERTEX
  8
0
 10
1329.101041
 20
1487.151669
 42
-0.006280
  0
VERTEX
  8
0
 10
1328.986562
 20
1500.108473
 42
0.000000
  0
VERTEX
  8
0
 10
1329.000000
 20
1503.716946
 42
0.000000
  0
VERTEX
  8
0
 10
1349.790430
 20
1499.001240
 42
0.000000
  0
VERTEX
  8
0
 10
1370.580859
 20
1494.285533
 42
0.000000
  0
VERTEX
  8
0
 10
1405.540430
 20
1493.553053
 42
0.000000
  0
VERTEX
  8
0
 10
1440.500000
 20
1492.820573
 42
0.000000
  0
VERTEX
  8
0
 10
1474.500000
 20
1499.042553
 42
0.000000
  0
VERTEX
  8
0
 10
1508.500000
 20
1505.264534
 42
0.000000
  0
VERTEX
  8
0
 10
1540.000000
 20
1518.255770
 42
0.000000
  0
VERTEX
  8
0
 10
1571.500000
 20
1531.247005
 42
0.000000
  0
VERTEX
  8
0
 10
1597.168489
 20
1549.681805
 42
0.000000
  0
VERTEX
  8
0
 10
1622.836977
 20
1568.116605
 42
0.000000
  0
VERTEX
  8
0
 10
1639.217174
 20
1588.308302
 42
0.000786
  0
VERTEX
  8
0
 10
1645.677221
 20
1596.297174
 42
0.001039
  0
VERTEX
  8
0
 10
1651.536000
 20
1603.596814
 42
0.000743
  0
VERTEX
  8
0
 10
1656.426125
 20
1609.734261
 42
0.010211
  0
VERTEX
  8
0
 10
1658.151625
 20
1612.000000
 42
0.050352
  0
VERTEX
  8
0
 10
1659.586302
 20
1614.449617
 42
0.003583
  0
VERTEX
  8
0
 10
1662.827793
 20
1621.668750
 42
0.005020
  0
VERTEX
  8
0
 10
1666.552335
 20
1630.360878
 42
0.003766
  0
VERTEX
  8
0
 10
1670.483669
 20
1640.000000
 42
0.000000
  0
VERTEX
  8
0
 10
1680.261459
 20
1664.500000
 42
0.000000
  0
VERTEX
  8
0
 10
1681.557777
 20
1691.500000
 42
0.000000
  0
VERTEX
  8
0
 10
1682.854096
 20
1718.500000
 42
0.000000
  0
VERTEX
  8
0
 10
1675.300600
 20
1743.500000
 42
0.002103
  0
VERTEX
  8
0
 10
1672.296368
 20
1753.294185
 42
0.002930
  0
VERTEX
  8
0
 10
1669.519391
 20
1762.032767
 42
0.001790
  0
VERTEX
  8
0
 10
1667.113659
 20
1769.362655
 42
0.037637
  0
VERTEX
  8
0
 10
1666.226925
 20
1771.483886
 42
0.034819
  0
VERTEX
  8
0
 10
1662.228558
 20
1778.142106
 42
0.002159
  0
VERTEX
  8
0
 10
1648.939433
 20
1796.965840
 42
0.001477
  0
VERTEX
  8
0
 10
1635.102915
 20
1816.265563
 42
0.057714
  0
VERTEX
  8
0
 10
1631.552643
 20
1820.151805
 42
0.006811
  0
VERTEX
  8
0
 10
1629.480951
 20
1821.902523
 42
0.000417
  0
VERTEX
  8
0
 10
1623.227964
 20
1827.033618
 42
0.000621
  0
VERTEX
  8
0
 10
1615.766238
 20
1833.130707
 42
0.000460
  0
VERTEX
  8
0
 10
1607.500000
 20
1839.855441
 42
0.000000
  0
VERTEX
  8
0
 10
1586.500000
 20
1856.907273
 42
0.000000
  0
VERTEX
  8
0
 10
1557.500000
 20
1870.549568
 42
0.000828
  0
VERTEX
  8
0
 10
1546.276243
 20
1875.806816
 42
0.001287
  0
VERTEX
  8
0
 10
1536.578125
 20
1880.299536
 42
0.000360
  0
VERTEX
  8
0
 10
1528.118909
 20
1884.184535
 42
0.043604
  0
VERTEX
  8
0
 10
1527.000000
 20
1884.583681
 42
0.007502
  0
VERTEX
  8
0
 10
1525.838730
 20
1884.868477
 42
0.000058
  0
VERTEX
  8
0
 10
1516.393750
 20
1887.033966
 42
0.000214
  0
VERTEX
  8
0
 10
1505.565369
 20
1889.510438
 42
0.000137
  0
VERTEX
  8
0
 10
1493.000000
 20
1892.374867
 42
0.000000
  0
VERTEX
  8
0
 10
1460.500000
 20
1899.774235
 42
0.000000
  0
VERTEX
  8
0
 10
1424.000000
 20
1900.339080
 42
0.000000
  0
VERTEX
  8
0
 10
1387.500000
 20
1900.903925
 42
0.000000
  0
SEQEND
  0
POLYLINE
  8
0
 66
1
 70
1
  0
VERTEX
  8
0
 10
1490.871528
 20
1888.305748
 42
0.000000
  0
VERTEX
  8
0
 10
1525.243057
 20
1880.718326
 42
0.000000
  0
VERTEX
  8
0
 10
1555.090093
 20
1866.609163
 42
0.000000
  0
VERTEX
  8
0
 10
1584.937129
 20
1852.500000
 42
0.000000
  0
VERTEX
  8
0
 10
1607.819736
 20
1834.000000
 42
0.000000
  0
VERTEX
  8
0
 10
1630.702344
 20
1815.500000
 42
0.000000
  0
VERTEX
  8
0
 10
1642.601172
 20
1798.543237
 42
-0.000157
  0
VERTEX
  8
0
 10
1647.481354
 20
1791.583951
 42
-0.000162
  0
VERTEX
  8
0
 10
1652.305358
 20
1784.695434
 42
-0.000156
  0
VERTEX
  8
0
 10
1656.481052
 20
1778.724596
 42
-0.000695
  0
VERTEX
  8
0
 10
1658.927705
 20
1775.213405
 42
-0.033422
  0
VERTEX
  8
0
 10
1661.613817
 20
1770.736106
 42
-0.026860
  0
VERTEX
  8
0
 10
1663.903761
 20
1765.606194
 42
-0.014974
  0
VERTEX
  8
0
 10
1666.564250
 20
1757.993094
 42
-0.002820
  0
VERTEX
  8
0
 10
1670.928843
 20
1743.913952
 42
0.000000
  0
VERTEX
  8
0
 10
1678.502277
 20
1718.987568
 42
0.000000
  0
VERTEX
  8
0
 10
1677.314763
 20
1692.661463
 42
0.000000
  0
VERTEX
  8
0
 10
1676.127250
 20
1666.335358
 42
0.000000
  0
VERTEX
  8
0
 10
1666.021761
 20
1641.054440
 42
0.000000
  0
VERTEX
  8
0
 10
1655.916272
 20
1615.773521
 42
0.000000
  0
VERTEX
  8
0
 10
1637.621725
 20
1593.340810
 42
0.000000
  0
VERTEX
  8
0
 10
1619.327178
 20
1570.908098
 42
0.000000
  0
VERTEX
  8
0
 10
1593.913589
 20
1552.628561
 42
0.000000
  0
VERTEX
  8
0
 10
1568.500000
 20
1534.349023
 42
0.000000
  0
VERTEX
  8
0
 10
1538.000000
 20
1521.799568
 42
0.000000
  0
VERTEX
  8
0
 10
1507.500000
 20
1509.250113
 42
0.000000
  0
VERTEX
  8
0
 10
1474.000000
 20
1503.167650
 42
0.000000
  0
VERTEX
  8
0
 10
1440.500000
 20
1497.085186
 42
0.000000
  0
VERTEX
  8
0
 10
1407.000000
 20
1497.669115
 42
0.000000
  0
VERTEX
  8
0
 10
1373.500000
 20
1498.253043
 42
0.000000
  0
VERTEX
  8
0
 10
1351.582481
 20
1503.127374
 42
-0.001411
  0
VERTEX
  8
0
 10
1343.147918
 20
1505.028167
 42
-0.002271
  0
VERTEX
  8
0
 10
1335.972219
 20
1506.700884
 42
-0.000387
  0
VERTEX
  8
0
 10
1329.638594
 20
1508.212844
 42
-0.138447
  0
VERTEX
  8
0
 10
1329.218955
 20
1508.447712
 42
-0.192257
  0
VERTEX
  8
0
 10
1329.030339
 20
1508.887054
 42
-0.000038
  0
VERTEX
  8
0
 10
1328.406859
 20
1533.270373
 42
-0.000811
  0
VERTEX
  8
0
 10
1327.761620
 20
1560.302252
 42
-0.000490
  0
VERTEX
  8
0
 10
1327.080683
 20
1592.324079
 42
0.000434
  0
VERTEX
  8
0
 10
1326.021543
 20
1642.397835
 42
0.004531
  0
VERTEX
  8
0
 10
1325.382865
 20
1662.942507
 42
0.005017
  0
VERTEX
  8
0
 10
1324.777397
 20
1675.000311
 42
0.183311
  0
VERTEX
  8
0
 10
1323.660740
 20
1677.482117
 42
0.169893
  0
VERTEX
  8
0
 10
1321.574686
 20
1678.486777
 42
0.021730
  0
VERTEX
  8
0
 10
1316.536971
 20
1678.833919
 42
0.010363
  0
VERTEX
  8
0
 10
1307.386148
 20
1678.876207
 42
0.000960
  0
VERTEX
  8
0
 10
1284.758548
 20
1678.468344
 42
0.001465
  0
VERTEX
  8
0
 10
1265.718816
 20
1678.032762
 42
0.007149
  0
VERTEX
  8
0
 10
1254.944569
 20
1677.600465
 42
0.006261
  0
VERTEX
  8
0
 10
1247.864782
 20
1677.125977
 42
0.178345
  0
VERTEX
  8
0
 10
1246.227366
 20
1676.370223
 42
0.195729
  0
VERTEX
  8
0
 10
1245.444506
 20
1674.512510
 42
0.003176
  0
VERTEX
  8
0
 10
1245.376318
 20
1662.961954
 42
0.004431
  0
VERTEX
  8
0
 10
1245.544707
 20
1644.874061
 42
0.000651
  0
VERTEX
  8
0
 10
1246.257867
 20
1608.256777
 42
-0.000252
  0
VERTEX
  8
0
 10
1246.777241
 20
1582.640528
 42
-0.000418
  0
VERTEX
  8
0
 10
1247.186415
 20
1561.031006
 42
-0.000013
  0
VERTEX
  8
0
 10
1247.539906
 20
1541.472662
 42
-0.149533
  0
VERTEX
  8
0
 10
1247.470940
 20
1541.231756
 42
-0.442012
  0
VERTEX
  8
0
 10
1247.298343
 20
1541.203419
 42
-0.000110
  0
VERTEX
  8
0
 10
1240.442358
 20
1546.633694
 42
-0.001646
  0
VERTEX
  8
0
 10
1232.815286
 20
1552.718421
 42
-0.000985
  0
VERTEX
  8
0
 10
1223.788326
 20
1559.998018
 42
0.000000
  0
VERTEX
  8
0
 10
1200.279807
 20
1579.032525
 42
0.000000
  0
VERTEX
  8
0
 10
1184.190459
 20
1602.004649
 42
0.000000
  0
VERTEX
  8
0
 10
1168.101110
 20
1624.976773
 42
0.000000
  0
VERTEX
  8
0
 10
1160.465898
 20
1650.177720
 42
0.000000
  0
VERTEX
  8
0
 10
1152.830685
 20
1675.378667
 42
0.000000
  0
VERTEX
  8
0
 10
1153.944776
 20
1700.939333
 42
0.000000
  0
VERTEX
  8
0
 10
1155.058868
 20
1726.500000
 42
0.000000
  0
VERTEX
  8
0
 10
1165.200512
 20
1752.226351
 42
0.000000
  0
VERTEX
  8
0
 10
1175.342156
 20
1777.952703
 42
0.000000
  0
VERTEX
  8
0
 10
1191.767868
 20
1798.226351
 42
-0.001011
  0
VERTEX
  8
0
 10
1198.252903
 20
1806.197588
 42
-0.001368
  0
VERTEX
  8
0
 10
1204.147908
 20
1813.373560
 42
-0.000916
  0
VERTEX
  8
0
 10
1209.123718
 20
1819.374508
 42
-0.015122
  0
VERTEX
  8
0
 10
1210.846790
 20
1821.321939
 42
-0.040561
  0
VERTEX
  8
0
 10
1212.817699
 20
1823.104028
 42
-0.001935
  0
VERTEX
  8
0
 10
1219.906673
 20
1828.495139
 42
-0.003161
  0
VERTEX
  8
0
 10
1228.398692
 20
1834.817715
 42
-0.002269
  0
VERTEX
  8
0
 10
1237.963162
 20
1841.778620
 42
0.000000
  0
VERTEX
  8
0
 10
1262.426323
 20
1859.413363
 42
0.000000
  0
VERTEX
  8
0
 10
1292.463162
 20
1871.868219
 42
0.000000
  0
VERTEX
  8
0
 10
1322.500000
 20
1884.323074
 42
0.000000
  0
VERTEX
  8
0
 10
1355.500000
 20
1890.540319
 42
0.000000
  0
VERTEX
  8
0
 10
1388.500000
 20
1896.757564
 42
0.000000
  0
VERTEX
  8
0
 10
1422.500000
 20
1896.325367
 42
0.000000
  0
VERTEX
  8
0
 10
1456.500000
 20
1895.893170
 42
0.000000
  0
SEQEND
  0
POLYLINE
  8
0
 66
1
 70
1
  0
VERTEX
  8
0
 10
1321.404142
 20
1657.750000
 42
-0.003467
  0
VERTEX
  8
0
 10
1321.754556
 20
1645.645673
 42
-0.000135
  0
VERTEX
  8
0
 10
1322.722663
 20
1601.113086
 42
-0.000241
  0
VERTEX
  8
0
 10
1323.828955
 20
1548.398242
 42
-0.000170
  0
VERTEX
  8
0
 10
1325.023315
 20
1489.166890
 42
0.000257
  0
VERTEX
  8
0
 10
1326.802386
 20
1401.693821
 42
0.002268
  0
VERTEX
  8
0
 10
1327.783751
 20
1363.044326
 42
0.001115
  0
VERTEX
  8
0
 10
1328.569016
 20
1338.630019
 42
0.189991
  0
VERTEX
  8
0
 10
1329.600062
 20
1336.257081
 42
0.195002
  0
VERTEX
  8
0
 10
1331.899172
 20
1335.284415
 42
0.004045
  0
VERTEX
  8
0
 10
1344.588474
 20
1335.196003
 42
0.004171
  0
VERTEX
  8
0
 10
1365.914443
 20
1335.397838
 42
0.000409
  0
VERTEX
  8
0
 10
1417.338380
 20
1336.355600
 42
-0.000049
  0
VERTEX
  8
0
 10
1451.003528
 20
1337.006814
 42
-0.000071
  0
VERTEX
  8
0
 10
1480.833774
 20
1337.576662
 42
-0.000037
  0
VERTEX
  8
0
 10
1506.104851
 20
1338.053936
 42
-0.001115
  0
VERTEX
  8
0
 10
1512.500000
 20
1338.159973
 42
0.000000
  0
VERTEX
  8
0
 10
1521.500000
 20
1338.289127
 42
0.000000
  0
VERTEX
  8
0
 10
1522.238287
 20
1307.466184
 42
-0.001776
  0
VERTEX
  8
0
 10
1522.480186
 20
1295.607980
 42
-0.002882
  0
VERTEX
  8
0
 10
1522.591875
 20
1285.529567
 42
-0.000462
  0
VERTEX
  8
0
 10
1522.631028
 20
1276.619592
 42
-0.199748
  0
VERTEX
  8
0
 10
1522.405245
 20
1276.071620
 42
-0.193354
  0
VERTEX
  8
0
 10
1521.528708
 20
1275.697239
 42
-0.000005
  0
VERTEX
  8
0
 10
1389.837496
 20
1272.845021
 42
-0.000004
  0
VERTEX
  8
0
 10
1258.065360
 20
1269.993602
 42
-0.246432
  0
VERTEX
  8
0
 10
1257.380280
 20
1270.334397
 42
-0.152717
  0
VERTEX
  8
0
 10
1257.272507
 20
1270.656525
 42
-0.000000
  0
VERTEX
  8
0
 10
1253.637123
 20
1454.522653
 42
-0.000026
  0
VERTEX
  8
0
 10
1250.295114
 20
1624.006743
 42
-0.001350
  0
VERTEX
  8
0
 10
1249.735371
 20
1657.000000
 42
0.000000
  0
VERTEX
  8
0
 10
1249.500000
 20
1673.500000
 42
0.000000
  0
VERTEX
  8
0
 10
1274.500000
 20
1674.026377
 42
-0.000002
  0
VERTEX
  8
0
 10
1284.851870
 20
1674.244303
 42
-0.000002
  0
VERTEX
  8
0
 10
1295.282487
 20
1674.463821
 42
-0.000002
  0
VERTEX
  8
0
 10
1304.439469
 20
1674.656476
 42
-0.000006
  0
VERTEX
  8
0
 10
1310.142509
 20
1674.776377
 42
0.000000
  0
VERTEX
  8
0
 10
1320.785018
 20
1675.000000
 42
0.000000
  0
SEQEND
  0
POLYLINE
  8
0
 66
1
 70
1
  0
VERTEX
  8
0
 10
1845.000000
 20
1561.431609
 42
0.000405
  0
VERTEX
  8
0
 10
1727.897772
 20
1558.924762
 42
0.007401
  0
VERTEX
  8
0
 10
1690.643830
 20
1557.545190
 42
0.024190
  0
VERTEX
  8
0
 10
1669.964620
 20
1555.466476
 42
0.043090
  0
VERTEX
  8
0
 10
1653.339865
 20
1551.491720
 42
0.034177
  0
VERTEX
  8
0
 10
1636.218417
 20
1544.471162
 42
0.040255
  0
VERTEX
  8
0
 10
1621.175230
 20
1535.496120
 42
0.038723
  0
VERTEX
  8
0
 10
1607.306003
 20
1523.913391
 42
0.027992
  0
VERTEX
  8
0
 10
1593.694773
 20
1509.054899
 42
0.041329
  0
VERTEX
  8
0
 10
1586.164837
 20
1498.119811
 42
0.028495
  0
VERTEX
  8
0
 10
1579.438857
 20
1484.661216
 42
0.027628
  0
VERTEX
  8
0
 10
1574.051488
 20
1469.958774
 42
0.030715
  0
VERTEX
  8
0
 10
1570.538576
 20
1455.259215
 42
0.037384
  0
VERTEX
  8
0
 10
1569.212079
 20
1441.827331
 42
0.005995
  0
VERTEX
  8
0
 10
1568.903087
 20
1415.456181
 42
0.006039
  0
VERTEX
  8
0
 10
1569.228793
 20
1389.085238
 42
0.036653
  0
VERTEX
  8
0
 10
1570.560316
 20
1375.500000
 42
0.060965
  0
VERTEX
  8
0
 10
1580.013207
 20
1344.137996
 42
0.063783
  0
VERTEX
  8
0
 10
1596.652212
 20
1316.500681
 42
0.064263
  0
VERTEX
  8
0
 10
1619.591313
 20
1294.117675
 42
0.063500
  0
VERTEX
  8
0
 10
1647.550158
 20
1278.185500
 42
0.001829
  0
VERTEX
  8
0
 10
1650.249799
 20
1277.083792
 42
0.002776
  0
VERTEX
  8
0
 10
1652.605359
 20
1276.147714
 42
0.001033
  0
VERTEX
  8
0
 10
1654.637445
 20
1275.358053
 42
0.068907
  0
VERTEX
  8
0
 10
1655.000000
 20
1275.272790
 42
-0.044676
  0
VERTEX
  8
0
 10
1655.357686
 20
1275.206715
 42
-0.001096
  0
VERTEX
  8
0
 10
1656.968750
 20
1274.753625
 42
-0.002369
  0
VERTEX
  8
0
 10
1658.856250
 20
1274.208652
 42
-0.001609
  0
VERTEX
  8
0
 10
1661.000000
 20
1273.571175
 42
0.029833
  0
VERTEX
  8
0
 10
1670.492297
 20
1271.322485
 42
0.022386
  0
VERTEX
  8
0
 10
1681.144575
 20
1269.949367
 42
0.015645
  0
VERTEX
  8
0
 10
1695.084461
 20
1269.221793
 42
0.005166
  0
VERTEX
  8
0
 10
1715.590996
 20
1269.005895
 42
0.004388
  0
VERTEX
  8
0
 10
1736.063694
 20
1269.181542
 42
0.014459
  0
VERTEX
  8
0
 10
1749.550905
 20
1269.806051
 42
0.020701
  0
VERTEX
  8
0
 10
1760.086081
 20
1271.039871
 42
0.021635
  0
VERTEX
  8
0
 10
1770.327155
 20
1273.129105
 42
0.055884
  0
VERTEX
  8
0
 10
1795.124300
 20
1282.354280
 42
0.054947
  0
VERTEX
  8
0
 10
1817.416539
 20
1296.882972
 42
0.054896
  0
VERTEX
  8
0
 10
1836.026749
 20
1315.932420
 42
0.055580
  0
VERTEX
  8
0
 10
1849.956625
 20
1338.500000
 42
0.010274
  0
VERTEX
  8
0
 10
1852.452522
 20
1344.067828
 42
0.010910
  0
VERTEX
  8
0
 10
1854.665619
 20
1349.624044
 42
0.011601
  0
VERTEX
  8
0
 10
1856.415637
 20
1354.666832
 42
0.025977
  0
VERTEX
  8
0
 10
1857.453436
 20
1358.585566
 42
-0.002911
  0
VERTEX
  8
0
 10
1857.702101
 20
1359.736598
 42
-0.000396
  0
VERTEX
  8
0
 10
1858.238158
 20
1362.140760
 42
-0.000456
  0
VERTEX
  8
0
 10
1858.878134
 20
1364.988119
 42
-0.000385
  0
VERTEX
  8
0
 10
1859.560413
 20
1368.000000
 42
0.029888
  0
VERTEX
  8
0
 10
1860.445321
 20
1373.354563
 42
0.016275
  0
VERTEX
  8
0
 10
1860.921414
 20
1380.003896
 42
0.009178
  0
VERTEX
  8
0
 10
1861.125221
 20
1389.907311
 42
0.001856
  0
VERTEX
  8
0
 10
1861.099004
 20
1407.500000
 42
0.000000
  0
VERTEX
  8
0
 10
1860.932552
 20
1439.500000
 42
0.000000
  0
VERTEX
  8
0
 10
1856.480101
 20
1465.430491
 42
-0.000925
  0
VERTEX
  8
0
 10
1854.789861
 20
1475.384605
 42
-0.001532
  0
VERTEX
  8
0
 10
1853.404934
 20
1483.790806
 42
-0.000104
  0
VERTEX
  8
0
 10
1852.186325
 20
1491.341487
 42
-0.291918
  0
VERTEX
  8
0
 10
1852.263825
 20
1491.520658
 42
-0.144224
  0
VERTEX
  8
0
 10
1852.477744
 20
1491.588716
 42
-0.000007
  0
VERTEX
  8
0
 10
1875.999447
 20
1492.095408
 42
-0.000301
  0
VERTEX
  8
0
 10
1901.952294
 20
1492.638518
 42
-0.000181
  0
VERTEX
  8
0
 10
1932.734294
 20
1493.253031
 42
0.000504
  0
VERTEX
  8
0
 10
1978.823535
 20
1494.202886
 42
0.004247
  0
VERTEX
  8
0
 10
1999.587333
 20
1494.828232
 42
0.003668
  0
VERTEX
  8
0
 10
2012.312936
 20
1495.413234
 42
0.185103
  0
VERTEX
  8
0
 10
2014.555993
 20
1496.413136
 42
0.172215
  0
VERTEX
  8
0
 10
2015.451603
 20
1498.294426
 42
0.019443
  0
VERTEX
  8
0
 10
2015.760104
 20
1503.081994
 42
0.010743
  0
VERTEX
  8
0
 10
2015.793519
 20
1511.470082
 42
0.001248
  0
VERTEX
  8
0
 10
2015.417941
 20
1530.250271
 42
0.001931
  0
VERTEX
  8
0
 10
2014.792768
 20
1553.967046
 42
0.041823
  0
VERTEX
  8
0
 10
2014.001018
 20
1560.893471
 42
0.195485
  0
VERTEX
  8
0
 10
2012.089255
 20
1563.789192
 42
0.159923
  0
VERTEX
  8
0
 10
2008.500000
 20
1564.836941
 42
-0.003074
  0
VERTEX
  8
0
 10
2006.089820
 20
1564.771875
 42
-0.000004
  0
VERTEX
  8
0
 10
1959.234375
 20
1563.795600
 42
-0.000036
  0
VERTEX
  8
0
 10
1906.749121
 20
1562.706191
 42
-0.000022
  0
SEQEND
  0
POLYLINE
  8
0
 66
1
 70
1
  0
VERTEX
  8
0
 10
2011.241290
 20
1529.750000
 42
-0.000532
  0
VERTEX
  8
0
 10
2011.431825
 20
1518.136955
 42
-0.000878
  0
VERTEX
  8
0
 10
2011.565107
 20
1508.327176
 42
-0.000047
  0
VERTEX
  8
0
 10
2011.668837
 20
1499.487975
 42
-0.179637
  0
VERTEX
  8
0
 10
2011.601516
 20
1499.299961
 42
-0.215766
  0
VERTEX
  8
0
 10
2011.197410
 20
1499.106520
 42
-0.000004
  0
VERTEX
  8
0
 10
1938.826927
 20
1497.555574
 42
-0.000142
  0
VERTEX
  8
0
 10
1872.704706
 20
1496.157928
 42
-0.005212
  0
VERTEX
  8
0
 10
1857.555951
 20
1496.000000
 42
0.005043
  0
VERTEX
  8
0
 10
1852.247385
 20
1495.946452
 42
0.057763
  0
VERTEX
  8
0
 10
1850.178989
 20
1495.664306
 42
0.161191
  0
VERTEX
  8
0
 10
1849.106641
 20
1494.976056
 42
0.109094
  0
VERTEX
  8
0
 10
1848.452324
 20
1493.666068
 42
0.093322
  0
VERTEX
  8
0
 10
1848.351302
 20
1491.978755
 42
0.002829
  0
VERTEX
  8
0
 10
1849.278635
 20
1484.992384
 42
0.005505
  0
VERTEX
  8
0
 10
1850.512930
 20
1476.749199
 42
0.003767
  0
VERTEX
  8
0
 10
1852.087881
 20
1467.416068
 42
0.000000
  0
VERTEX
  8
0
 10
1856.309216
 20
1443.500000
 42
0.000000
  0
VERTEX
  8
0
 10
1856.758931
 20
1411.673572
 42
-0.001940
  0
VERTEX
  8
0
 10
1856.940792
 20
1393.932021
 42
-0.009334
  0
VERTEX
  8
0
 10
1856.816606
 20
1383.832771
 42
-0.016033
  0
VERTEX
  8
0
 10
1856.366840
 20
1376.706122
 42
-0.020767
  0
VERTEX
  8
0
 10
1855.474932
 20
1370.218301
 42
-0.057568
  0
VERTEX
  8
0
 10
1847.742772
 20
1344.602556
 42
-0.055678
  0
VERTEX
  8
0
 10
1834.311170
 20
1321.111419
 42
-0.056163
  0
VERTEX
  8
0
 10
1816.157212
 20
1301.343156
 42
-0.060728
  0
VERTEX
  8
0
 10
1794.500000
 20
1286.703192
 42
-0.036352
  0
VERTEX
  8
0
 10
1778.069809
 20
1279.747958
 42
-0.042882
  0
VERTEX
  8
0
 10
1761.681912
 20
1275.701691
 42
-0.030120
  0
VERTEX
  8
0
 10
1740.698500
 20
1273.678281
 42
-0.008613
  0
VERTEX
  8
0
 10
1708.000000
 20
1273.067293
 42
-0.018179
  0
VERTEX
  8
0
 10
1685.835435
 20
1273.841088
 42
-0.034784
  0
VERTEX
  8
0
 10
1668.213956
 20
1276.338563
 42
-0.039510
  0
VERTEX
  8
0
 10
1652.665978
 20
1280.966622
 42
-0.032805
  0
VERTEX
  8
0
 10
1637.000000
 20
1288.225014
 42
-0.054116
  0
VERTEX
  8
0
 10
1614.836091
 20
1303.636415
 42
-0.055918
  0
VERTEX
  8
0
 10
1596.766998
 20
1323.292379
 42
-0.055367
  0
VERTEX
  8
0
 10
1583.361229
 20
1346.650874
 42
-0.051198
  0
VERTEX
  8
0
 10
1574.976311
 20
1373.000000
 42
-0.044651
  0
VERTEX
  8
0
 10
1573.788007
 20
1383.150193
 42
-0.003649
  0
VERTEX
  8
0
 10
1573.253006
 20
1409.896577
 42
-0.004333
  0
VERTEX
  8
0
 10
1573.146108
 20
1436.387404
 42
-0.031926
  0
VERTEX
  8
0
 10
1574.010942
 20
1449.000000
 42
-0.076367
  0
VERTEX
  8
0
 10
1584.520550
 20
1484.907712
 42
-0.077583
  0
VERTEX
  8
0
 10
1605.287410
 20
1515.788081
 42
-0.078022
  0
VERTEX
  8
0
 10
1634.360047
 20
1538.735292
 42
-0.078550
  0
VERTEX
  8
0
 10
1669.000000
 20
1551.603325
 42
-0.019151
  0
VERTEX
  8
0
 10
1672.827707
 20
1552.223421
 42
-0.006576
  0
VERTEX
  8
0
 10
1678.409375
 20
1552.835136
 42
-0.006524
  0
VERTEX
  8
0
 10
1684.590038
 20
1553.349048
 42
-0.007505
  0
VERTEX
  8
0
 10
1690.500000
 20
1553.673822
 42
-0.004676
  0
VERTEX
  8
0
 10
1716.650357
 20
1554.472630
 42
-0.000114
  0
VERTEX
  8
0
 10
1837.414803
 20
1557.004078
 42
-0.000144
  0
VERTEX
  8
0
 10
1955.966395
 20
1559.427981
 42
-0.003480
  0
VERTEX
  8
0
 10
1989.106402
 20
1559.865283
 42
0.000000
  0
VERTEX
  8
0
 10
2010.712805
 20
1560.000000
 42
0.000000
  0
SEQEND
  0
POLYLINE
  8
0
 66
1
 70
1
  0
VERTEX
  8
0
 10
1406.000000
 20
1060.924557
 42
0.000000
  0
VERTEX
  8
0
 10
1374.500000
 20
1054.930766
 42
0.000000
  0
VERTEX
  8
0
 10
1344.999094
 20
1042.685804
 42
0.000000
  0
VERTEX
  8
0
 10
1315.498189
 20
1030.440843
 42
0.000000
  0
VERTEX
  8
0
 10
1291.999094
 20
1013.505482
 42
0.000712
  0
VERTEX
  8
0
 10
1282.915850
 20
1006.939690
 42
0.001102
  0
VERTEX
  8
0
 10
1275.091865
 20
1001.240835
 42
0.000324
  0
VERTEX
  8
0
 10
1268.304131
 20
996.267089
 42
0.035286
  0
VERTEX
  8
0
 10
1267.441296
 20
995.535061
 42
0.028572
  0
VERTEX
  8
0
 10
1265.123483
 20
992.994390
 42
0.000322
  0
VERTEX
  8
0
 10
1250.569610
 20
975.062512
 42
0.000485
  0
VERTEX
  8
0
 10
1236.435851
 20
957.590707
 42
0.018002
  0
VERTEX
  8
0
 10
1233.369728
 20
953.500000
 42
0.054018
  0
VERTEX
  8
0
 10
1231.302218
 20
949.708876
 42
0.001306
  0
VERTEX
  8
0
 10
1223.715716
 20
931.185686
 42
0.002398
  0
VERTEX
  8
0
 10
1216.605857
 20
913.452882
 42
0.022499
  0
VERTEX
  8
0
 10
1213.931439
 20
905.683809
 42
0.051541
  0
VERTEX
  8
0
 10
1213.560054
 20
903.683254
 42
0.002154
  0
VERTEX
  8
0
 10
1213.006978
 20
896.444005
 42
0.003704
  0
VERTEX
  8
0
 10
1212.451279
 20
887.845077
 42
0.002622
  0
VERTEX
  8
0
 10
1211.949579
 20
878.183809
 42
0.000000
  0
VERTEX
  8
0
 10
1210.797514
 20
853.500000
 42
0.000000
  0
VERTEX
  8
0
 10
1218.400015
 20
828.657802
 42
0.000000
  0
VERTEX
  8
0
 10
1226.002516
 20
803.815604
 42
0.000000
  0
VERTEX
  8
0
 10
1241.187971
 20
782.157802
 42
0.001068
  0
VERTEX
  8
0
 10
1247.098537
 20
773.766235
 42
0.001616
  0
VERTEX
  8
0
 10
1252.281959
 20
766.490328
 42
0.000604
  0
VERTEX
  8
0
 10
1256.770007
 20
760.249347
 42
0.039399
  0
VERTEX
  8
0
 10
1257.630481
 20
759.234804
 42
0.025006
  0
VERTEX
  8
0
 10
1258.620861
 20
758.332991
 42
0.000349
  0
VERTEX
  8
0
 10
1264.879265
 20
753.189483
 42
0.000977
  0
VERTEX
  8
0
 10
1272.152127
 20
747.244477
 42
0.000643
  0
VERTEX
  8
0
 10
1280.541968
 20
740.431645
 42
0.000000
  0
VERTEX
  8
0
 10
1302.196401
 20
722.893682
 42
0.000000
  0
VERTEX
  8
0
 10
1329.858792
 20
709.942289
 42
0.000000
  0
VERTEX
  8
0
 10
1357.521182
 20
696.990897
 42
0.000000
  0
VERTEX
  8
0
 10
1388.510591
 20
689.896404
 42
0.000000
  0
VERTEX
  8
0
 10
1419.500000
 20
682.801910
 42
0.000000
  0
VERTEX
  8
0
 10
1454.000000
 20
682.286541
 42
0.000000
  0
VERTEX
  8
0
 10
1488.500000
 20
681.771172
 42
0.000000
  0
VERTEX
  8
0
 10
1519.500000
 20
687.498399
 42
0.000000
  0
VERTEX
  8
0
 10
1550.500000
 20
693.225626
 42
0.000000
  0
VERTEX
  8
0
 10
1578.243346
 20
704.631220
 42
0.000303
  0
VERTEX
  8
0
 10
1589.046173
 20
709.080048
 42
0.000446
  0
VERTEX
  8
0
 10
1598.534533
 20
713.004200
 42
0.000205
  0
VERTEX
  8
0
 10
1606.620134
 20
716.360544
 42
0.008415
  0
VERTEX
  8
0
 10
1608.360987
 20
717.118615
 42
0.044268
  0
VERTEX
  8
0
 10
1610.001886
 20
718.049444
 42
0.001115
  0
VERTEX
  8
0
 10
1617.042846
 20
722.936103
 42
0.002382
  0
VERTEX
  8
0
 10
1625.272371
 20
728.733349
 42
0.001621
  0
VERTEX
  8
0
 10
1634.582133
 20
735.403703
 42
0.000000
  0
VERTEX
  8
0
 10
1658.428984
 20
752.606989
 42
0.000000
  0
VERTEX
  8
0
 10
1675.897213
 20
774.030450
 42
0.000000
  0
VERTEX
  8
0
 10
1693.365442
 20
795.453910
 42
0.000000
  0
VERTEX
  8
0
 10
1702.797959
 20
818.976955
 42
0.002245
  0
VERTEX
  8
0
 10
1706.436979
 20
828.171325
 42
0.003255
  0
VERTEX
  8
0
 10
1709.560609
 20
836.324481
 42
0.001666
  0
VERTEX
  8
0
 10
1712.139632
 20
843.259695
 42
0.054080
  0
VERTEX
  8
0
 10
1712.574083
 20
845.000000
 42
0.019747
  0
VERTEX
  8
0
 10
1712.747118
 20
846.776472
 42
0.000695
  0
VERTEX
  8
0
 10
1713.135006
 20
853.668750
 42
0.001289
  0
VERTEX
  8
0
 10
1713.561049
 20
861.814870
 42
0.000901
  0
VERTEX
  8
0
 10
1714.001098
 20
871.000000
 42
0.000000
  0
VERTEX
  8
0
 10
1715.084507
 20
894.500000
 42
0.000000
  0
VERTEX
  8
0
 10
1707.474477
 20
919.468210
 42
0.000000
  0
VERTEX
  8
0
 10
1699.864447
 20
944.436420
 42
0.000000
  0
VERTEX
  8
0
 10
1684.315548
 20
966.685003
 42
0.000000
  0
VERTEX
  8
0
 10
1668.766649
 20
988.933586
 42
0.000000
  0
VERTEX
  8
0
 10
1646.198219
 20
1007.155494
 42
0.000000
  0
VERTEX
  8
0
 10
1623.629788
 20
1025.377402
 42
0.000000
  0
VERTEX
  8
0
 10
1596.195895
 20
1038.268375
 42
0.004482
  0
VERTEX
  8
0
 10
1576.575521
 20
1047.274013
 42
0.028408
  0
VERTEX
  8
0
 10
1566.319126
 20
1051.187842
 42
0.020057
  0
VERTEX
  8
0
 10
1554.499171
 20
1054.429023
 42
0.001503
  0
VERTEX
  8
0
 10
1522.000000
 20
1061.850838
 42
0.005202
  0
VERTEX
  8
0
 10
1511.215022
 20
1064.162092
 42
0.021023
  0
VERTEX
  8
0
 10
1504.573852
 20
1065.224756
 42
0.021793
  0
VERTEX
  8
0
 10
1497.980067
 20
1065.707277
 42
0.005885
  0
VERTEX
  8
0
 10
1487.500000
 20
1065.892787
 42
-0.001700
  0
VERTEX
  8
0
 10
1479.795618
 20
1065.964667
 42
-0.001020
  0
VERTEX
  8
0
 10
1470.646875
 20
1066.099801
 42
-0.001021
  0
VERTEX
  8
0
 10
1461.545657
 20
1066.271400
 42
-0.001780
  0
VERTEX
  8
0
 10
1454.000000
 20
1066.455967
 42
0.000000
  0
VERTEX
  8
0
 10
1437.500000
 20
1066.918348
 42
0.000000
  0
SEQEND
  0
POLYLINE
  8
0
 66
1
 70
1
  0
VERTEX
  8
0
 10
1485.000000
 20
1061.603429
 42
0.000000
  0
VERTEX
  8
0
 10
1505.500000
 20
1061.187649
 42
0.000000
  0
VERTEX
  8
0
 10
1536.000000
 20
1054.207341
 42
0.000000
  0
VERTEX
  8
0
 10
1566.500000
 20
1047.227034
 42
0.000000
  0
VERTEX
  8
0
 10
1594.111826
 20
1034.271756
 42
0.000000
  0
VERTEX
  8
0
 10
1621.723653
 20
1021.316478
 42
0.000000
  0
VERTEX
  8
0
 10
1643.834553
 20
1003.402223
 42
0.000000
  0
VERTEX
  8
0
 10
1665.945453
 20
985.487968
 42
0.000000
  0
VERTEX
  8
0
 10
1681.292546
 20
963.493984
 42
0.000000
  0
VERTEX
  8
0
 10
1696.639639
 20
941.500000
 42
0.000000
  0
VERTEX
  8
0
 10
1703.721067
 20
918.000000
 42
0.000000
  0
VERTEX
  8
0
 10
1710.802495
 20
894.500000
 42
0.000000
  0
VERTEX
  8
0
 10
1709.562487
 20
869.500000
 42
0.000000
  0
VERTEX
  8
0
 10
1708.322479
 20
844.500000
 42
0.000000
  0
VERTEX
  8
0
 10
1698.956054
 20
821.197186
 42
0.000000
  0
VERTEX
  8
0
 10
1689.589628
 20
797.894372
 42
0.000000
  0
VERTEX
  8
0
 10
1672.044814
 20
776.384115
 42
0.000000
  0
VERTEX
  8
0
 10
1654.500000
 20
754.873858
 42
0.000000
  0
VERTEX
  8
0
 10
1631.000000
 20
737.985189
 42
0.000000
  0
VERTEX
  8
0
 10
1607.500000
 20
721.096519
 42
0.000000
  0
VERTEX
  8
0
 10
1578.500000
 20
709.143112
 42
0.000000
  0
VERTEX
  8
0
 10
1549.500000
 20
697.189704
 42
0.000000
  0
VERTEX
  8
0
 10
1518.500000
 20
691.468554
 42
0.000000
  0
VERTEX
  8
0
 10
1487.500000
 20
685.747405
 42
0.000000
  0
VERTEX
  8
0
 10
1454.500000
 20
686.415244
 42
0.000000
  0
VERTEX
  8
0
 10
1421.500000
 20
687.083083
 42
0.000000
  0
VERTEX
  8
0
 10
1390.679291
 20
694.026432
 42
0.000000
  0
VERTEX
  8
0
 10
1359.858581
 20
700.969782
 42
0.000000
  0
VERTEX
  8
0
 10
1332.395063
 20
713.734891
 42
0.000000
  0
VERTEX
  8
0
 10
1304.931546
 20
726.500000
 42
0.000000
  0
VERTEX
  8
0
 10
1282.370717
 20
744.726963
 42
0.000000
  0
VERTEX
  8
0
 10
1259.809887
 20
762.953926
 42
0.000000
  0
VERTEX
  8
0
 10
1244.557189
 20
784.726963
 42
0.000000
  0
VERTEX
  8
0
 10
1229.304491
 20
806.500000
 42
0.000000
  0
VERTEX
  8
0
 10
1222.162492
 20
830.134389
 42
0.000000
  0
VERTEX
  8
0
 10
1215.020494
 20
853.768778
 42
0.000000
  0
VERTEX
  8
0
 10
1216.143030
 20
878.134389
 42
0.000000
  0
VERTEX
  8
0
 10
1217.265566
 20
902.500000
 42
0.000000
  0
VERTEX
  8
0
 10
1226.810896
 20
926.500000
 42
0.000000
  0
VERTEX
  8
0
 10
1236.356226
 20
950.500000
 42
0.000000
  0
VERTEX
  8
0
 10
1253.641635
 20
971.815579
 42
0.000000
  0
VERTEX
  8
0
 10
1270.927044
 20
993.131159
 42
0.000000
  0
VERTEX
  8
0
 10
1294.671214
 20
1010.206991
 42
0.000000
  0
VERTEX
  8
0
 10
1318.415384
 20
1027.282824
 42
0.000000
  0
VERTEX
  8
0
 10
1346.957692
 20
1039.107122
 42
0.000000
  0
VERTEX
  8
0
 10
1375.500000
 20
1050.931420
 42
0.000000
  0
VERTEX
  8
0
 10
1407.000000
 20
1056.763547
 42
-0.001845
  0
VERTEX
  8
0
 10
1426.312710
 20
1060.265595
 42
-0.012939
  0
VERTEX
  8
0
 10
1435.773720
 20
1061.693739
 42
-0.022692
  0
VERTEX
  8
0
 10
1442.971943
 20
1062.260445
 42
-0.013840
  0
VERTEX
  8
0
 10
1451.500000
 20
1062.307442
 42
0.000207
  0
VERTEX
  8
0
 10
1457.906002
 20
1062.168062
 42
0.000082
  0
VERTEX
  8
0
 10
1466.703125
 20
1061.981742
 42
0.000081
  0
VERTEX
  8
0
 10
1476.199147
 20
1061.783724
 42
0.000102
  0
SEQEND
  0
POLYLINE
  8
0
 66
1
 70
1
  0
VERTEX
  8
0
 10
697.000000
 20
1685.971431
 42
0.070690
  0
VERTEX
  8
0
 10
686.702026
 20
1682.608448
 42
0.059420
  0
VERTEX
  8
0
 10
677.063569
 20
1676.355513
 42
0.059022
  0
VERTEX
  8
0
 10
669.105864
 20
1667.961051
 42
0.067608
  0
VERTEX
  8
0
 10
663.753364
 20
1658.296504
 42
0.025617
  0
VERTEX
  8
0
 10
662.612904
 20
1654.849779
 42
0.033011
  0
VERTEX
  8
0
 10
661.942801
 20
1651.583020
 42
0.025628
  0
VERTEX
  8
0
 10
661.608979
 20
1647.668753
 42
0.008885
  0
VERTEX
  8
0
 10
661.517913
 20
1642.000000
 42
0.008071
  0
VERTEX
  8
0
 10
661.633570
 20
1635.520312
 42
0.040751
  0
VERTEX
  8
0
 10
662.050073
 20
1631.928582
 42
0.047884
  0
VERTEX
  8
0
 10
663.018036
 20
1628.715367
 42
0.013832
  0
VERTEX
  8
0
 10
665.115063
 20
1623.968068
 42
0.115787
  0
VERTEX
  8
0
 10
678.506828
 20
1607.208633
 42
0.122095
  0
VERTEX
  8
0
 10
697.708386
 20
1598.562360
 42
0.122865
  0
VERTEX
  8
0
 10
718.629118
 20
1599.911439
 42
0.118181
  0
VERTEX
  8
0
 10
736.810968
 20
1610.913534
 42
0.161584
  0
VERTEX
  8
0
 10
749.336574
 20
1635.513669
 42
0.160925
  0
VERTEX
  8
0
 10
744.698543
 20
1662.768385
 42
0.159090
  0
VERTEX
  8
0
 10
724.656959
 20
1682.108501
 42
0.157933
  0
SEQEND
  0
POLYLINE
  8
0
 66
1
 70
1
  0
VERTEX
  8
0
 10
720.918909
 20
1679.193365
 42
-0.057389
  0
VERTEX
  8
0
 10
727.075345
 20
1675.896745
 42
-0.038710
  0
VERTEX
  8
0
 10
733.259563
 20
1670.858300
 42
-0.038701
  0
VERTEX
  8
0
 10
738.595265
 20
1664.924739
 42
-0.057227
  0
VERTEX
  8
0
 10
742.194452
 20
1658.929947
 42
-0.078722
  0
VERTEX
  8
0
 10
745.380051
 20
1647.386056
 42
-0.074606
  0
VERTEX
  8
0
 10
744.931330
 20
1635.198286
 42
-0.074124
  0
VERTEX
  8
0
 10
740.913882
 20
1623.609924
 42
-0.076073
  0
VERTEX
  8
0
 10
733.716680
 20
1613.811918
 42
-0.122182
  0
VERTEX
  8
0
 10
717.380357
 20
1603.969627
 42
-0.121628
  0
VERTEX
  8
0
 10
698.308889
 20
1602.881084
 42
-0.120117
  0
VERTEX
  8
0
 10
680.741694
 20
1610.813500
 42
-0.117242
  0
VERTEX
  8
0
 10
668.607196
 20
1626.000000
 42
-0.017887
  0
VERTEX
  8
0
 10
666.903868
 20
1629.973668
 42
-0.045589
  0
VERTEX
  8
0
 10
666.044014
 20
1632.985700
 42
-0.038192
  0
VERTEX
  8
0
 10
665.664884
 20
1636.399201
 42
-0.009597
  0
VERTEX
  8
0
 10
665.580457
 20
1642.000000
 42
-0.009923
  0
VERTEX
  8
0
 10
665.719304
 20
1647.792248
 42
-0.042925
  0
VERTEX
  8
0
 10
666.163627
 20
1651.201196
 42
-0.046878
  0
VERTEX
  8
0
 10
667.166329
 20
1654.341229
 42
-0.013357
  0
VERTEX
  8
0
 10
669.300078
 20
1659.000000
 42
-0.011244
  0
VERTEX
  8
0
 10
672.167834
 20
1664.526088
 42
-0.039780
  0
VERTEX
  8
0
 10
674.358980
 20
1667.865403
 42
-0.044228
  0
VERTEX
  8
0
 10
676.929749
 20
1670.632610
 42
-0.016355
  0
VERTEX
  8
0
 10
681.000000
 20
1674.068435
 42
-0.064408
  0
VERTEX
  8
0
 10
690.023158
 20
1679.473892
 42
-0.070971
  0
VERTEX
  8
0
 10
699.834462
 20
1682.182801
 42
-0.069229
  0
VERTEX
  8
0
 10
710.217461
 20
1682.073225
 42
-0.057107
  0
SEQEND
  0
POLYLINE
  8
0
 66
1
 70
1
  0
VERTEX
  8
0
 10
695.500000
 20
1476.975908
 42
0.073661
  0
VERTEX
  8
0
 10
678.718477
 20
1472.304645
 42
0.055703
  0
VERTEX
  8
0
 10
662.193927
 20
1462.626351
 42
0.055306
  0
VERTEX
  8
0
 10
648.090584
 20
1449.444924
 42
0.069700
  0
VERTEX
  8
0
 10
638.465131
 20
1434.411333
 42
0.005581
  0
VERTEX
  8
0
 10
635.841211
 20
1428.522420
 42
0.028106
  0
VERTEX
  8
0
 10
634.599855
 20
1425.140678
 42
0.024800
  0
VERTEX
  8
0
 10
633.677904
 20
1421.469109
 42
0.003718
  0
VERTEX
  8
0
 10
632.249242
 20
1414.000000
 42
0.037048
  0
VERTEX
  8
0
 10
631.421096
 20
1406.325623
 42
0.019257
  0
VERTEX
  8
0
 10
631.470027
 20
1396.688009
 42
0.012204
  0
VERTEX
  8
0
 10
632.397281
 20
1383.071654
 42
0.003278
  0
VERTEX
  8
0
 10
634.538960
 20
1361.500000
 42
0.016262
  0
VERTEX
  8
0
 10
636.180344
 20
1349.684593
 42
0.009731
  0
VERTEX
  8
0
 10
638.858674
 20
1335.759522
 42
0.004634
  0
VERTEX
  8
0
 10
641.840822
 20
1322.344871
 42
0.140254
  0
VERTEX
  8
0
 10
643.498071
 20
1319.359071
 42
0.204363
  0
VERTEX
  8
0
 10
646.835324
 20
1318.017520
 42
0.000834
  0
VERTEX
  8
0
 10
687.628261
 20
1318.940386
 42
0.002208
  0
VERTEX
  8
0
 10
726.082079
 20
1320.044455
 42
0.061886
  0
VERTEX
  8
0
 10
735.957289
 20
1321.605052
 42
0.063614
  0
VERTEX
  8
0
 10
750.402158
 20
1327.838757
 42
0.065307
  0
VERTEX
  8
0
 10
762.673975
 20
1337.459523
 42
0.065282
  0
VERTEX
  8
0
 10
772.053036
 20
1349.923445
 42
0.063484
  0
VERTEX
  8
0
 10
778.009391
 20
1364.500000
 42
0.023238
  0
VERTEX
  8
0
 10
779.122287
 20
1369.604723
 42
0.019349
  0
VERTEX
  8
0
 10
779.839537
 20
1375.112668
 42
0.012786
  0
VERTEX
  8
0
 10
780.319149
 20
1382.455170
 42
0.003542
  0
VERTEX
  8
0
 10
780.695333
 20
1394.000000
 42
0.002711
  0
VERTEX
  8
0
 10
780.967839
 20
1407.577044
 42
0.019921
  0
VERTEX
  8
0
 10
780.804381
 20
1414.064849
 42
0.031013
  0
VERTEX
  8
0
 10
780.131350
 20
1419.334455
 42
0.012153
  0
VERTEX
  8
0
 10
778.579011
 20
1426.500000
 42
0.010172
  0
VERTEX
  8
0
 10
776.856168
 20
1433.029074
 42
0.035919
  0
VERTEX
  8
0
 10
775.368882
 20
1437.101699
 42
0.037790
  0
VERTEX
  8
0
 10
773.352810
 20
1440.814160
 42
0.012152
  0
VERTEX
  8
0
 10
769.825180
 20
1446.000000
 42
0.066980
  0
VERTEX
  8
0
 10
755.420529
 20
1461.295732
 42
0.071813
  0
VERTEX
  8
0
 10
737.801382
 20
1471.815347
 42
0.070179
  0
VERTEX
  8
0
 10
717.567750
 20
1477.084194
 42
0.059832
  0
SEQEND
  0
POLYLINE
  8
0
 66
1
 70
1
  0
VERTEX
  8
0
 10
720.253521
 20
1472.462418
 42
-0.052280
  0
VERTEX
  8
0
 10
733.724331
 20
1468.623282
 42
-0.047331
  0
VERTEX
  8
0
 10
746.593131
 20
1461.977640
 42
-0.047185
  0
VERTEX
  8
0
 10
758.020546
 20
1453.006038
 42
-0.051196
  0
VERTEX
  8
0
 10
767.219560
 20
1442.273425
 42
-0.014427
  0
VERTEX
  8
0
 10
770.159449
 20
1437.761151
 42
-0.033521
  0
VERTEX
  8
0
 10
772.028746
 20
1434.184388
 42
-0.032960
  0
VERTEX
  8
0
 10
773.421382
 20
1430.353421
 42
-0.013524
  0
VERTEX
  8
0
 10
774.821044
 20
1425.000000
 42
-0.027250
  0
VERTEX
  8
0
 10
776.474562
 20
1415.603830
 42
-0.026285
  0
VERTEX
  8
0
 10
777.122484
 20
1405.969349
 42
-0.019897
  0
VERTEX
  8
0
 10
776.914107
 20
1397.701626
 42
-0.312483
  0
VERTEX
  8
0
 10
775.250000
 20
1395.604289
 42
-0.004507
  0
VERTEX
  8
0
 10
773.953500
 20
1395.224001
 42
-0.000087
  0
VERTEX
  8
0
 10
767.235028
 20
1393.320195
 42
-0.000210
  0
VERTEX
  8
0
 10
759.392695
 20
1391.102945
 42
-0.000141
  0
VERTEX
  8
0
 10
750.422437
 20
1388.573585
 42
0.000000
  0
VERTEX
  8
0
 10
727.344874
 20
1382.073367
 42
0.000000
  0
VERTEX
  8
0
 10
701.422437
 20
1384.388760
 42
0.000000
  0
VERTEX
  8
0
 10
675.500000
 20
1386.704154
 42
0.000000
  0
VERTEX
  8
0
 10
655.500000
 20
1396.041028
 42
-0.000125
  0
VERTEX
  8
0
 10
647.813331
 20
1399.631837
 42
-0.000204
  0
VERTEX
  8
0
 10
641.298930
 20
1402.680240
 42
-0.000017
  0
VERTEX
  8
0
 10
635.456066
 20
1405.417547
 42
-0.024122
  0
VERTEX
  8
0
 10
635.241039
 20
1405.531245
 42
-0.304019
  0
VERTEX
  8
0
 10
635.156595
 20
1405.707907
 42
-0.001096
  0
VERTEX
  8
0
 10
635.511135
 20
1408.109307
 42
-0.005063
  0
VERTEX
  8
0
 10
635.951563
 20
1410.857720
 42
-0.003094
  0
VERTEX
  8
0
 10
636.524163
 20
1414.092294
 42
-0.050809
  0
VERTEX
  8
0
 10
640.402572
 20
1427.432647
 42
-0.046139
  0
VERTEX
  8
0
 10
646.986836
 20
1440.183248
 42
-0.046170
  0
VERTEX
  8
0
 10
655.792291
 20
1451.501825
 42
-0.051048
  0
VERTEX
  8
0
 10
666.257980
 20
1460.595263
 42
-0.047508
  0
VERTEX
  8
0
 10
678.693014
 20
1467.688715
 42
-0.051825
  0
VERTEX
  8
0
 10
691.891084
 20
1472.060931
 42
-0.051511
  0
VERTEX
  8
0
 10
705.777574
 20
1473.642583
 42
-0.045945
  0
SEQEND
  0
POLYLINE
  8
0
 66
1
 70
1
  0
VERTEX
  8
0
 10
655.061600
 20
1391.319663
 42
0.000000
  0
VERTEX
  8
0
 10
673.500000
 20
1382.639325
 42
0.000000
  0
VERTEX
  8
0
 10
700.267251
 20
1380.184022
 42
0.000000
  0
VERTEX
  8
0
 10
727.034503
 20
1377.728719
 42
0.000000
  0
VERTEX
  8
0
 10
750.767251
 20
1384.497262
 42
0.000440
  0
VERTEX
  8
0
 10
759.955991
 20
1387.126618
 42
0.000676
  0
VERTEX
  8
0
 10
767.905501
 20
1389.420572
 42
0.000214
  0
VERTEX
  8
0
 10
774.793364
 20
1391.421458
 42
0.019870
  0
VERTEX
  8
0
 10
775.783390
 20
1391.752704
 42
-0.528599
  0
VERTEX
  8
0
 10
776.732660
 20
1391.089356
 42
-0.011756
  0
VERTEX
  8
0
 10
776.500642
 20
1384.493493
 42
-0.018097
  0
VERTEX
  8
0
 10
775.753750
 20
1376.643686
 42
-0.015790
  0
VERTEX
  8
0
 10
774.417539
 20
1368.500000
 42
-0.076457
  0
VERTEX
  8
0
 10
769.107976
 20
1353.809709
 42
-0.066319
  0
VERTEX
  8
0
 10
759.425296
 20
1340.582072
 42
-0.067240
  0
VERTEX
  8
0
 10
746.770688
 20
1330.511187
 42
-0.083406
  0
VERTEX
  8
0
 10
732.766276
 20
1325.055416
 42
-0.043786
  0
VERTEX
  8
0
 10
726.976019
 20
1324.371651
 42
-0.000509
  0
VERTEX
  8
0
 10
688.391746
 20
1323.252009
 42
-0.000180
  0
VERTEX
  8
0
 10
648.173086
 20
1322.140390
 42
-0.135006
  0
VERTEX
  8
0
 10
646.177818
 20
1322.631025
 42
-0.210575
  0
VERTEX
  8
0
 10
646.015651
 20
1322.846034
 42
-0.000389
  0
VERTEX
  8
0
 10
644.979240
 20
1327.265597
 42
-0.002692
  0
VERTEX
  8
0
 10
643.840544
 20
1332.259580
 42
-0.001653
  0
VERTEX
  8
0
 10
642.549980
 20
1338.155515
 42
-0.009841
  0
VERTEX
  8
0
 10
641.015110
 20
1346.029898
 42
-0.007905
  0
VERTEX
  8
0
 10
639.665393
 20
1354.555259
 42
-0.007513
  0
VERTEX
  8
0
 10
638.519242
 20
1363.590520
 42
-0.006716
  0
VERTEX
  8
0
 10
637.596802
 20
1373.000000
 42
0.001151
  0
VERTEX
  8
0
 10
636.924761
 20
1380.741737
 42
0.001470
  0
VERTEX
  8
0
 10
636.267994
 20
1387.873437
 42
0.001138
  0
VERTEX
  8
0
 10
635.686167
 20
1393.849862
 42
0.012395
  0
VERTEX
  8
0
 10
635.386742
 20
1396.250000
 42
-0.022176
  0
VERTEX
  8
0
 10
635.235875
 20
1397.687668
 42
-0.037474
  0
VERTEX
  8
0
 10
635.253677
 20
1398.898438
 42
-0.045426
  0
VERTEX
  8
0
 10
635.411291
 20
1399.762602
 42
-0.336837
  0
VERTEX
  8
0
 10
635.723702
 20
1400.000000
 42
-0.105150
  0
VERTEX
  8
0
 10
636.389602
 20
1399.858396
 42
-0.000715
  0
VERTEX
  8
0
 10
641.775252
 20
1397.450151
 42
-0.002762
  0
VERTEX
  8
0
 10
647.929001
 20
1394.646936
 42
-0.001757
  0
SEQEND
  0
POLYLINE
  8
0
 66
1
 70
1
  0
VERTEX
  8
0
 10
1715.500000
 20
1493.007938
 42
0.002121
  0
VERTEX
  8
0
 10
1700.756098
 20
1492.573587
 42
0.017342
  0
VERTEX
  8
0
 10
1694.036416
 20
1492.113414
 42
0.035554
  0
VERTEX
  8
0
 10
1689.457825
 20
1491.307972
 42
0.029896
  0
VERTEX
  8
0
 10
1684.758449
 20
1489.828584
 42
0.023788
  0
VERTEX
  8
0
 10
1677.688511
 20
1486.736217
 42
0.030408
  0
VERTEX
  8
0
 10
1671.522863
 20
1483.200379
 42
0.031128
  0
VERTEX
  8
0
 10
1665.947807
 20
1479.017196
 42
0.027042
  0
VERTEX
  8
0
 10
1660.652408
 20
1473.983923
 42
0.029258
  0
VERTEX
  8
0
 10
1655.616569
 20
1467.983285
 42
0.033400
  0
VERTEX
  8
0
 10
1651.554019
 20
1461.685787
 42
0.033196
  0
VERTEX
  8
0
 10
1648.346559
 20
1454.868895
 42
0.028260
  0
VERTEX
  8
0
 10
1645.868796
 20
1447.313952
 42
0.024015
  0
VERTEX
  8
0
 10
1644.789174
 20
1442.307364
 42
0.019301
  0
VERTEX
  8
0
 10
1644.098019
 20
1436.840973
 42
0.012700
  0
VERTEX
  8
0
 10
1643.644982
 20
1429.516502
 42
0.003516
  0
VERTEX
  8
0
 10
1643.306956
 20
1418.000000
 42
0.002738
  0
VERTEX
  8
0
 10
1643.081271
 20
1404.594778
 42
0.019187
  0
VERTEX
  8
0
 10
1643.257845
 20
1398.059413
 42
0.030496
  0
VERTEX
  8
0
 10
1643.920744
 20
1392.841036
 42
0.013492
  0
VERTEX
  8
0
 10
1645.398885
 20
1386.049783
 42
0.011730
  0
VERTEX
  8
0
 10
1647.013751
 20
1380.093450
 42
0.031730
  0
VERTEX
  8
0
 10
1648.521631
 20
1375.983678
 42
0.033007
  0
VERTEX
  8
0
 10
1650.502189
 20
1372.189392
 42
0.013597
  0
VERTEX
  8
0
 10
1653.653828
 20
1367.318215
 42
0.083881
  0
VERTEX
  8
0
 10
1671.024101
 20
1349.362413
 42
0.083720
  0
VERTEX
  8
0
 10
1693.340225
 20
1338.095283
 42
0.083152
  0
VERTEX
  8
0
 10
1718.252327
 20
1334.722299
 42
0.081208
  0
VERTEX
  8
0
 10
1743.122807
 20
1339.593278
 42
0.021891
  0
VERTEX
  8
0
 10
1749.407941
 20
1342.244968
 42
0.020853
  0
VERTEX
  8
0
 10
1755.542442
 20
1345.475511
 42
0.020483
  0
VERTEX
  8
0
 10
1761.492984
 20
1349.267622
 42
0.019383
  0
VERTEX
  8
0
 10
1767.227312
 20
1353.600674
 42
0.036593
  0
VERTEX
  8
0
 10
1770.504469
 20
1356.709291
 42
0.008831
  0
VERTEX
  8
0
 10
1775.444337
 20
1362.330536
 42
0.003842
  0
VERTEX
  8
0
 10
1780.461976
 20
1368.340871
 42
0.173701
  0
VERTEX
  8
0
 10
1781.000000
 20
1369.842849
 42
-0.069401
  0
VERTEX
  8
0
 10
1781.056288
 20
1370.246423
 42
-0.060346
  0
VERTEX
  8
0
 10
1781.221751
 20
1370.640295
 42
-0.063091
  0
VERTEX
  8
0
 10
1781.466154
 20
1370.965647
 42
-0.096473
  0
VERTEX
  8
0
 10
1781.754896
 20
1371.166667
 42
0.189988
  0
VERTEX
  8
0
 10
1783.692716
 20
1373.127555
 42
0.010304
  0
VERTEX
  8
0
 10
1787.007236
 20
1381.345443
 42
0.017030
  0
VERTEX
  8
0
 10
1790.008649
 20
1390.145090
 42
0.030229
  0
VERTEX
  8
0
 10
1791.786084
 20
1397.594801
 42
0.017176
  0
VERTEX
  8
0
 10
1792.732709
 20
1404.340259
 42
0.031946
  0
VERTEX
  8
0
 10
1792.960126
 20
1409.856308
 42
0.015897
  0
VERTEX
  8
0
 10
1792.548799
 20
1417.402048
 42
0.001569
  0
VERTEX
  8
0
 10
1790.926764
 20
1435.500000
 42
0.003638
  0
VERTEX
  8
0
 10
1789.512956
 20
1449.619116
 42
0.007664
  0
VERTEX
  8
0
 10
1788.167998
 20
1460.551810
 42
0.009510
  0
VERTEX
  8
0
 10
1786.721237
 20
1469.705574
 42
0.011582
  0
VERTEX
  8
0
 10
1785.006424
 20
1478.211429
 42
0.005824
  0
VERTEX
  8
0
 10
1783.671918
 20
1483.816236
 42
0.010010
  0
VERTEX
  8
0
 10
1782.412736
 20
1488.448495
 42
0.004215
  0
VERTEX
  8
0
 10
1781.263844
 20
1492.244887
 42
0.489880
  0
VERTEX
  8
0
 10
1780.842100
 20
1492.402412
 42
-0.103645
  0
VERTEX
  8
0
 10
1780.521182
 20
1492.286350
 42
-0.179251
  0
VERTEX
  8
0
 10
1780.247367
 20
1492.345933
 42
-0.165508
  0
VERTEX
  8
0
 10
1780.063738
 20
1492.575934
 42
-0.086645
  0
VERTEX
  8
0
 10
1780.000000
 20
1492.940983
 42
0.412253
  0
VERTEX
  8
0
 10
1779.194151
 20
1493.752249
 42
0.001415
  0
VERTEX
  8
0
 10
1764.004457
 20
1493.811012
 42
0.004906
  0
VERTEX
  8
0
 10
1744.260645
 20
1493.637793
 42
0.001656
  0
SEQEND
  0
POLYLINE
  8
0
 66
1
 70
1
  0
VERTEX
  8
0
 10
1778.886752
 20
1486.250000
 42
-0.013098
  0
VERTEX
  8
0
 10
1781.526898
 20
1474.735020
 42
-0.011312
  0
VERTEX
  8
0
 10
1783.706015
 20
1462.521821
 42
-0.010126
  0
VERTEX
  8
0
 10
1785.530430
 20
1448.956649
 42
-0.006719
  0
VERTEX
  8
0
 10
1787.098492
 20
1433.328696
 42
-0.001900
  0
VERTEX
  8
0
 10
1788.414133
 20
1417.468922
 42
-0.016247
  0
VERTEX
  8
0
 10
1788.745264
 20
1410.349090
 42
-0.030813
  0
VERTEX
  8
0
 10
1788.494799
 20
1405.093597
 42
-0.017809
  0
VERTEX
  8
0
 10
1787.580982
 20
1398.828696
 42
-0.080765
  0
VERTEX
  8
0
 10
1779.673615
 20
1376.590632
 42
-0.080783
  0
VERTEX
  8
0
 10
1765.128829
 20
1358.005058
 42
-0.081286
  0
VERTEX
  8
0
 10
1745.533359
 20
1345.073136
 42
-0.083265
  0
VERTEX
  8
0
 10
1723.000000
 20
1339.199932
 42
-0.065760
  0
VERTEX
  8
0
 10
1704.254333
 20
1339.997208
 42
-0.064716
  0
VERTEX
  8
0
 10
1686.249790
 20
1345.627640
 42
-0.064431
  0
VERTEX
  8
0
 10
1670.214410
 20
1355.703877
 42
-0.064163
  0
VERTEX
  8
0
 10
1657.246355
 20
1369.542336
 42
-0.014447
  0
VERTEX
  8
0
 10
1654.151336
 20
1374.106380
 42
-0.036549
  0
VERTEX
  8
0
 10
1652.251402
 20
1377.634839
 42
-0.034461
  0
VERTEX
  8
0
 10
1650.823922
 20
1381.521544
 42
-0.011645
  0
VERTEX
  8
0
 10
1649.273883
 20
1387.353090
 42
-0.013629
  0
VERTEX
  8
0
 10
1647.898338
 20
1393.830513
 42
-0.029298
  0
VERTEX
  8
0
 10
1647.270276
 20
1398.893626
 42
-0.019574
  0
VERTEX
  8
0
 10
1647.110389
 20
1405.115065
 42
-0.003312
  0
VERTEX
  8
0
 10
1647.348980
 20
1417.000000
 42
-0.005289
  0
VERTEX
  8
0
 10
1647.668165
 20
1425.559500
 42
-0.007553
  0
VERTEX
  8
0
 10
1648.146427
 20
1433.146143
 42
-0.008274
  0
VERTEX
  8
0
 10
1648.739077
 20
1439.391538
 42
-0.026770
  0
VERTEX
  8
0
 10
1649.421864
 20
1443.500000
 42
-0.063000
  0
VERTEX
  8
0
 10
1654.448052
 20
1457.528040
 42
-0.062167
  0
VERTEX
  8
0
 10
1662.826259
 20
1469.932048
 42
-0.062789
  0
VERTEX
  8
0
 10
1673.907937
 20
1479.792608
 42
-0.066733
  0
VERTEX
  8
0
 10
1686.873458
 20
1486.353793
 42
-0.064664
  0
VERTEX
  8
0
 10
1693.294983
 20
1487.696049
 42
-0.008020
  0
VERTEX
  8
0
 10
1707.579000
 20
1488.566592
 42
-0.006377
  0
VERTEX
  8
0
 10
1729.131416
 20
1489.258194
 42
-0.001609
  0
VERTEX
  8
0
 10
1764.211456
 20
1489.823273
 42
0.000000
  0
VERTEX
  8
0
 10
1777.922912
 20
1490.000000
 42
0.000000
  0
SEQEND
  0
ENDSEC
  0
EOF
