  0
SECTION
  2
HEADER
  9
$ACADVER
  1
AC1006
  9
$EXTMIN
 10
0.000000
 20
0.000000
 30
0.000000
  9
$EXTMAX
 10
1146.000000
 20
982.000000
 30
0.000000
  0
ENDSEC
  0
SECTION
  2
ENTITIES
  0
POLYLINE
  8
0
 66
1
 70
1
  0
VERTEX
  8
0
 10
114.092217
 20
900.292015
 42
0.076513
  0
VERTEX
  8
0
 10
110.585160
 20
899.025764
 42
0.050485
  0
VERTEX
  8
0
 10
107.040902
 20
896.600468
 42
0.048364
  0
VERTEX
  8
0
 10
103.886750
 20
893.368124
 42
0.053601
  0
VERTEX
  8
0
 10
101.534656
 20
889.693704
 42
0.000000
  0
VERTEX
  8
0
 10
99.000000
 20
884.607311
 42
0.000000
  0
VERTEX
  8
0
 10
99.000000
 20
739.852877
 42
-0.000446
  0
VERTEX
  8
0
 10
98.941037
 20
673.703668
 42
-0.001356
  0
VERTEX
  8
0
 10
98.738980
 20
628.754347
 42
-0.000559
  0
VERTEX
  8
0
 10
98.457005
 20
594.890498
 42
-0.048008
  0
VERTEX
  8
0
 10
97.918448
 20
589.799221
 42
-0.022935
  0
VERTEX
  8
0
 10
96.441711
 20
583.947372
 42
-0.020419
  0
VERTEX
  8
0
 10
94.385557
 20
578.019690
 42
-0.014107
  0
VERTEX
  8
0
 10
91.217217
 20
570.586674
 42
-0.004279
  0
VERTEX
  8
0
 10
86.000980
 20
559.498115
 42
0.002411
  0
VERTEX
  8
0
 10
77.338656
 20
541.261186
 42
0.005426
  0
VERTEX
  8
0
 10
70.987583
 20
527.330957
 42
0.006533
  0
VERTEX
  8
0
 10
65.719014
 20
515.002144
 42
0.005742
  0
VERTEX
  8
0
 10
60.536361
 20
502.000000
 42
0.002615
  0
VERTEX
  8
0
 10
55.356959
 20
488.346843
 42
0.009355
  0
VERTEX
  8
0
 10
52.255659
 20
479.541629
 42
0.012946
  0
VERTEX
  8
0
 10
50.037893
 20
472.217951
 42
0.009763
  0
VERTEX
  8
0
 10
47.968544
 20
464.067039
 42
-0.000227
  0
VERTEX
  8
0
 10
47.133556
 20
460.493734
 42
-0.000213
  0
VERTEX
  8
0
 10
46.276752
 20
456.841568
 42
-0.000211
  0
VERTEX
  8
0
 10
45.513486
 20
453.600474
 42
-0.000729
  0
VERTEX
  8
0
 10
45.014659
 20
451.500000
 42
0.015336
  0
VERTEX
  8
0
 10
44.027386
 20
446.726603
 42
0.003386
  0
VERTEX
  8
0
 10
42.641953
 20
438.483291
 42
0.003496
  0
VERTEX
  8
0
 10
41.162409
 20
428.872567
 42
0.003244
  0
VERTEX
  8
0
 10
39.778515
 20
419.000000
 42
0.020445
  0
VERTEX
  8
0
 10
39.233133
 20
413.081898
 42
0.005242
  0
VERTEX
  8
0
 10
38.843654
 20
403.476996
 42
0.004733
  0
VERTEX
  8
0
 10
38.594724
 20
391.382751
 42
0.002830
  0
VERTEX
  8
0
 10
38.516260
 20
377.000000
 42
0.005782
  0
VERTEX
  8
0
 10
38.807190
 20
352.276481
 42
0.019450
  0
VERTEX
  8
0
 10
39.813192
 20
336.130065
 42
0.022571
  0
VERTEX
  8
0
 10
41.984361
 20
321.390837
 42
0.010040
  0
VERTEX
  8
0
 10
46.107379
 20
302.185068
 42
0.003463
  0
VERTEX
  8
0
 10
46.955866
 20
298.694728
 42
0.003095
  0
VERTEX
  8
0
 10
47.884123
 20
295.083283
 42
0.003105
  0
VERTEX
  8
0
 10
48.758259
 20
291.849267
 42
0.009653
  0
VERTEX
  8
0
 10
49.402908
 20
289.685068
 42
-0.002202
  0
VERTEX
  8
0
 10
50.039186
 20
287.659784
 42
-0.000961
  0
VERTEX
  8
0
 10
50.866534
 20
284.966864
 42
-0.000951
  0
VERTEX
  8
0
 10
51.734330
 20
282.103322
 42
-0.001270
  0
VERTEX
  8
0
 10
52.510658
 20
279.500000
 42
0.035838
  0
VERTEX
  8
0
 10
65.118665
 20
245.893539
 42
0.028274
  0
VERTEX
  8
0
 10
83.308411
 20
211.551286
 42
0.027884
  0
VERTEX
  8
0
 10
105.597873
 20
178.927444
 42
0.031769
  0
VERTEX
  8
0
 10
130.500000
 20
150.457528
 42
0.014830
  0
VERTEX
  8
0
 10
148.323668
 20
133.551836
 42
0.023844
  0
VERTEX
  8
0
 10
164.583031
 20
120.359443
 42
0.024785
  0
VERTEX
  8
0
 10
181.553444
 20
109.133969
 42
0.017837
  0
VERTEX
  8
0
 10
201.500000
 20
98.258670
 42
0.015703
  0
VERTEX
  8
0
 10
219.106220
 20
90.139460
 42
0.022268
  0
VERTEX
  8
0
 10
235.269741
 20
84.126246
 42
0.021596
  0
VERTEX
  8
0
 10
252.278416
 20
79.447441
 42
0.013568
  0
VERTEX
  8
0
 10
272.500000
 20
75.387798
 42
0.008900
  0
VERTEX
  8
0
 10
282.828026
 20
73.793152
 42
0.019421
  0
VERTEX
  8
0
 10
290.801580
 20
73.020882
 42
0.012455
  0
VERTEX
  8
0
 10
300.706180
 20
72.695830
 42
0.001892
  0
VERTEX
  8
0
 10
320.500000
 20
72.614392
 42
0.002153
  0
VERTEX
  8
0
 10
338.844927
 20
72.687301
 42
0.009823
  0
VERTEX
  8
0
 10
349.507149
 20
72.985128
 42
0.015004
  0
VERTEX
  8
0
 10
357.837186
 20
73.632656
 42
0.011212
  0
VERTEX
  8
0
 10
366.970013
 20
74.826728
 42
0.015341
  0
VERTEX
  8
0
 10
392.132281
 20
79.486380
 42
0.020088
  0
VERTEX
  8
0
 10
414.765079
 20
85.361027
 42
0.021128
  0
VERTEX
  8
0
 10
435.888425
 20
92.747171
 42
0.020588
  0
VERTEX
  8
0
 10
456.500000
 20
101.946752
 42
0.008795
  0
VERTEX
  8
0
 10
469.965642
 20
108.932458
 42
0.016453
  0
VERTEX
  8
0
 10
480.561513
 20
115.127261
 42
0.015410
  0
VERTEX
  8
0
 10
491.170059
 20
122.272933
 42
0.006730
  0
VERTEX
  8
0
 10
504.813297
 20
132.368472
 42
-0.004350
  0
VERTEX
  8
0
 10
524.040638
 20
146.738192
 42
-0.023781
  0
VERTEX
  8
0
 10
534.854228
 20
153.909067
 42
-0.039749
  0
VERTEX
  8
0
 10
543.606651
 20
158.229584
 42
-0.030023
  0
VERTEX
  8
0
 10
553.790187
 20
161.593688
 42
-0.045966
  0
VERTEX
  8
0
 10
570.381811
 20
164.393362
 42
-0.046646
  0
VERTEX
  8
0
 10
587.122642
 20
164.093233
 42
-0.046996
  0
VERTEX
  8
0
 10
603.400789
 20
160.707431
 42
-0.048150
  0
VERTEX
  8
0
 10
618.621086
 20
154.357940
 42
-0.010678
  0
VERTEX
  8
0
 10
624.812861
 20
150.871687
 42
-0.014279
  0
VERTEX
  8
0
 10
630.266309
 20
147.431990
 42
-0.010589
  0
VERTEX
  8
0
 10
636.616004
 20
142.970898
 42
-0.003146
  0
VERTEX
  8
0
 10
646.129902
 20
135.888608
 42
0.008746
  0
VERTEX
  8
0
 10
660.554339
 20
125.399838
 42
0.014597
  0
VERTEX
  8
0
 10
673.092816
 20
117.148538
 42
0.014562
  0
VERTEX
  8
0
 10
686.112776
 20
109.629384
 42
0.008652
  0
VERTEX
  8
0
 10
702.027117
 20
101.398882
 42
0.009319
  0
VERTEX
  8
0
 10
708.779950
 20
98.208610
 42
0.012646
  0
VERTEX
  8
0
 10
714.997615
 20
95.598675
 42
0.008892
  0
VERTEX
  8
0
 10
722.802655
 20
92.711062
 42
0.002292
  0
VERTEX
  8
0
 10
735.500000
 20
88.333723
 42
0.039244
  0
VERTEX
  8
0
 10
782.064378
 20
76.495795
 42
0.037684
  0
VERTEX
  8
0
 10
830.547201
 20
71.867566
 42
0.038225
  0
VERTEX
  8
0
 10
878.464083
 20
74.581164
 42
0.043427
  0
VERTEX
  8
0
 10
923.340845
 20
84.606266
 42
0.017998
  0
VERTEX
  8
0
 10
936.811692
 20
89.410484
 42
0.009973
  0
VERTEX
  8
0
 10
952.901471
 20
96.184972
 42
0.009064
  0
VERTEX
  8
0
 10
967.838740
 20
103.154958
 42
0.041039
  0
VERTEX
  8
0
 10
976.094123
 20
108.067021
 42
-0.010364
  0
VERTEX
  8
0
 10
977.180785
 20
108.807340
 42
-0.013763
  0
VERTEX
  8
0
 10
978.200399
 20
109.432188
 42
-0.011055
  0
VERTEX
  8
0
 10
979.067928
 20
109.906307
 42
-0.120087
  0
VERTEX
  8
0
 10
979.452407
 20
110.000000
 42
0.155382
  0
VERTEX
  8
0
 10
982.339843
 20
110.919511
 42
0.003141
  0
VERTEX
  8
0
 10
994.917180
 20
119.953361
 42
0.008212
  0
VERTEX
  8
0
 10
1007.208269
 20
129.211752
 42
0.016668
  0
VERTEX
  8
0
 10
1016.500000
 20
136.964354
 42
0.023294
  0
VERTEX
  8
0
 10
1031.930371
 20
152.084782
 42
0.015055
  0
VERTEX
  8
0
 10
1048.404710
 20
170.911600
 42
0.015106
  0
VERTEX
  8
0
 10
1063.575718
 20
190.518311
 42
0.025173
  0
VERTEX
  8
0
 10
1074.979063
 20
208.000000
 42
0.008838
  0
VERTEX
  8
0
 10
1079.181662
 20
215.513589
 42
0.004412
  0
VERTEX
  8
0
 10
1084.246854
 20
225.160765
 42
0.003893
  0
VERTEX
  8
0
 10
1088.922075
 20
234.436330
 42
0.019894
  0
VERTEX
  8
0
 10
1091.271608
 20
239.707472
 42
-0.003992
  0
VERTEX
  8
0
 10
1092.055619
 20
241.628422
 42
-0.002270
  0
VERTEX
  8
0
 10
1093.032977
 20
243.939930
 42
-0.002267
  0
VERTEX
  8
0
 10
1094.038436
 20
246.259004
 42
-0.003744
  0
VERTEX
  8
0
 10
1094.911186
 20
248.207472
 42
0.019123
  0
VERTEX
  8
0
 10
1101.799850
 20
264.948527
 42
0.017459
  0
VERTEX
  8
0
 10
1107.620622
 20
282.678769
 42
0.015717
  0
VERTEX
  8
0
 10
1112.693741
 20
302.475307
 42
0.010383
  0
VERTEX
  8
0
 10
1117.329169
 20
325.500000
 42
0.015565
  0
VERTEX
  8
0
 10
1121.092819
 20
350.957626
 42
0.023359
  0
VERTEX
  8
0
 10
1122.639627
 20
373.359157
 42
0.022890
  0
VERTEX
  8
0
 10
1122.103224
 20
396.140217
 42
0.014159
  0
VERTEX
  8
0
 10
1119.492397
 20
422.797557
 42
0.004827
  0
VERTEX
  8
0
 10
1118.003622
 20
433.709453
 42
0.009935
  0
VERTEX
  8
0
 10
1116.586901
 20
442.211194
 42
0.009055
  0
VERTEX
  8
0
 10
1114.750013
 20
451.130759
 42
0.003360
  0
VERTEX
  8
0
 10
1111.854358
 20
463.614209
 42
0.014623
  0
VERTEX
  8
0
 10
1106.393987
 20
483.823330
 42
0.016004
  0
VERTEX
  8
0
 10
1099.905292
 20
503.071613
 42
0.015105
  0
VERTEX
  8
0
 10
1091.855438
 20
522.803250
 42
0.010636
  0
VERTEX
  8
0
 10
1081.671875
 20
544.500000
 42
-0.001221
  0
VERTEX
  8
0
 10
1078.329678
 20
551.285574
 42
-0.001047
  0
VERTEX
  8
0
 10
1074.844225
 20
558.443750
 42
-0.001055
  0
VERTEX
  8
0
 10
1071.705716
 20
564.958840
 42
-0.003028
  0
VERTEX
  8
0
 10
1069.563614
 20
569.500000
 42
-0.055545
  0
VERTEX
  8
0
 10
1064.890039
 20
583.428847
 42
-0.041661
  0
VERTEX
  8
0
 10
1062.799970
 20
599.480610
 42
-0.010582
  0
VERTEX
  8
0
 10
1062.067120
 20
628.738142
 42
-0.000393
  0
VERTEX
  8
0
 10
1061.726053
 20
739.000000
 42
0.000000
  0
VERTEX
  8
0
 10
1061.390409
 20
884.500000
 42
0.000000
  0
VERTEX
  8
0
 10
1058.775458
 20
889.558383
 42
0.030709
  0
VERTEX
  8
0
 10
1057.409500
 20
891.844831
 42
0.027197
  0
VERTEX
  8
0
 10
1055.721369
 20
894.045769
 42
0.027713
  0
VERTEX
  8
0
 10
1053.845527
 20
896.003311
 42
0.036286
  0
VERTEX
  8
0
 10
1051.917611
 20
897.558383
 42
0.000000
  0
VERTEX
  8
0
 10
1047.674714
 20
900.500000
 42
0.000000
  0
VERTEX
  8
0
 10
1014.336560
 20
900.788329
 42
0.002345
  0
VERTEX
  8
0
 10
999.828587
 20
900.845773
 42
0.005021
  0
VERTEX
  8
0
 10
988.632359
 20
900.725166
 42
0.004164
  0
VERTEX
  8
0
 10
980.115345
 20
900.476902
 42
0.056451
  0
VERTEX
  8
0
 10
977.044672
 20
900.012029
 42
0.060093
  0
VERTEX
  8
0
 10
973.240841
 20
898.479155
 42
0.054981
  0
VERTEX
  8
0
 10
969.784335
 20
896.048040
 42
0.053384
  0
VERTEX
  8
0
 10
966.852115
 20
892.845167
 42
0.050346
  0
VERTEX
  8
0
 10
964.597796
 20
889.033035
 42
0.097309
  0
VERTEX
  8
0
 10
963.215101
 20
883.368679
 42
0.006942
  0
VERTEX
  8
0
 10
962.701457
 20
867.083514
 42
0.003348
  0
VERTEX
  8
0
 10
962.367641
 20
836.599902
 42
0.000187
  0
VERTEX
  8
0
 10
962.000000
 20
741.833090
 42
-0.000377
  0
VERTEX
  8
0
 10
961.766816
 20
687.088040
 42
-0.000626
  0
VERTEX
  8
0
 10
961.477454
 20
640.905235
 42
-0.000022
  0
VERTEX
  8
0
 10
961.161780
 20
599.159231
 42
-0.196991
  0
VERTEX
  8
0
 10
960.923248
 20
598.589672
 42
-0.171970
  0
VERTEX
  8
0
 10
960.393477
 20
598.337296
 42
-0.001576
  0
VERTEX
  8
0
 10
955.985338
 20
597.891368
 42
-0.005117
  0
VERTEX
  8
0
 10
950.876777
 20
597.443571
 42
-0.003256
  0
VERTEX
  8
0
 10
944.923248
 20
597.022033
 42
0.006850
  0
VERTEX
  8
0
 10
929.885521
 20
595.848620
 42
0.006713
  0
VERTEX
  8
0
 10
914.784108
 20
594.257122
 42
0.006220
  0
VERTEX
  8
0
 10
901.665871
 20
592.530521
 42
0.032066
  0
VERTEX
  8
0
 10
894.500000
 20
591.022520
 42
-0.008891
  0
VERTEX
  8
0
 10
892.683980
 20
590.551563
 42
-0.001203
  0
VERTEX
  8
0
 10
888.856250
 20
589.640949
 42
-0.001387
  0
VERTEX
  8
0
 10
884.314393
 20
588.585266
 42
-0.001168
  0
VERTEX
  8
0
 10
879.500000
 20
587.492137
 42
0.001649
  0
VERTEX
  8
0
 10
874.502358
 20
586.352343
 42
0.001552
  0
VERTEX
  8
0
 10
869.409375
 20
585.156454
 42
0.001542
  0
VERTEX
  8
0
 10
864.901127
 20
584.068391
 42
0.005374
  0
VERTEX
  8
0
 10
862.000000
 20
583.325597
 42
0.010119
  0
VERTEX
  8
0
 10
855.384222
 20
581.411472
 42
0.001763
  0
VERTEX
  8
0
 10
842.989462
 20
577.503868
 42
0.001127
  0
VERTEX
  8
0
 10
830.279822
 20
573.416096
 42
0.022977
  0
VERTEX
  8
0
 10
826.500000
 20
571.996037
 42
-0.011323
  0
VERTEX
  8
0
 10
825.226782
 20
571.483535
 42
-0.001129
  0
VERTEX
  8
0
 10
822.150000
 20
570.333222
 42
-0.001421
  0
VERTEX
  8
0
 10
818.475661
 20
568.980820
 42
-0.001128
  0
VERTEX
  8
0
 10
814.500000
 20
567.540482
 42
0.001465
  0
VERTEX
  8
0
 10
810.524350
 20
566.097122
 42
0.001841
  0
VERTEX
  8
0
 10
806.850000
 20
564.735589
 42
0.001469
  0
VERTEX
  8
0
 10
803.774944
 20
563.572914
 42
0.014562
  0
VERTEX
  8
0
 10
802.500000
 20
563.043553
 42
-0.004801
  0
VERTEX
  8
0
 10
801.152941
 20
562.453167
 42
-0.000295
  0
VERTEX
  8
0
 10
797.121875
 20
560.735198
 42
-0.000438
  0
VERTEX
  8
0
 10
792.316746
 20
558.695652
 42
-0.000324
  0
VERTEX
  8
0
 10
787.000000
 20
556.448513
 42
0.009496
  0
VERTEX
  8
0
 10
771.840034
 20
549.710781
 42
0.012145
  0
VERTEX
  8
0
 10
758.158730
 20
542.906773
 42
0.012358
  0
VERTEX
  8
0
 10
745.020043
 20
535.548786
 42
0.010463
  0
VERTEX
  8
0
 10
731.500000
 20
527.144788
 42
0.017128
  0
VERTEX
  8
0
 10
705.168541
 20
508.689234
 42
0.024143
  0
VERTEX
  8
0
 10
683.135437
 20
490.361270
 42
0.024290
  0
VERTEX
  8
0
 10
663.071672
 20
470.083541
 42
0.017654
  0
VERTEX
  8
0
 10
642.713031
 20
445.726592
 42
0.035125
  0
VERTEX
  8
0
 10
622.396848
 20
415.429200
 42
0.027781
  0
VERTEX
  8
0
 10
604.704060
 20
380.156225
 42
0.026901
  0
VERTEX
  8
0
 10
590.467007
 20
341.820007
 42
0.027236
  0
VERTEX
  8
0
 10
580.496231
 20
302.333540
 42
-0.047526
  0
VERTEX
  8
0
 10
579.634120
 20
299.421861
 42
-0.304502
  0
VERTEX
  8
0
 10
578.426006
 20
298.601028
 42
-0.317076
  0
VERTEX
  8
0
 10
577.254831
 20
299.416922
 42
-0.049277
  0
VERTEX
  8
0
 10
576.516575
 20
302.311150
 42
0.008658
  0
VERTEX
  8
0
 10
576.212422
 20
304.098084
 42
0.007016
  0
VERTEX
  8
0
 10
575.826211
 20
306.003900
 42
0.007099
  0
VERTEX
  8
0
 10
575.420372
 20
307.751602
 42
0.018187
  0
VERTEX
  8
0
 10
575.063097
 20
309.000000
 42
-0.013131
  0
VERTEX
  8
0
 10
574.670157
 20
310.322330
 42
-0.003809
  0
VERTEX
  8
0
 10
574.133519
 20
312.381250
 42
-0.003827
  0
VERTEX
  8
0
 10
573.564155
 20
314.710943
 42
-0.004079
  0
VERTEX
  8
0
 10
573.042933
 20
317.000000
 42
0.004396
  0
VERTEX
  8
0
 10
572.487143
 20
319.433748
 42
0.002950
  0
VERTEX
  8
0
 10
571.810986
 20
322.206250
 42
0.002970
  0
VERTEX
  8
0
 10
571.124357
 20
324.883567
 42
0.005863
  0
VERTEX
  8
0
 10
570.541539
 20
327.000000
 42
-0.000641
  0
VERTEX
  8
0
 10
569.964293
 20
329.013798
 42
-0.000411
  0
VERTEX
  8
0
 10
569.299057
 20
331.353125
 42
-0.000413
  0
VERTEX
  8
0
 10
568.651371
 20
333.645085
 42
-0.000774
  0
VERTEX
  8
0
 10
568.131940
 20
335.500000
 42
0.012542
  0
VERTEX
  8
0
 10
561.781806
 20
356.280388
 42
0.015134
  0
VERTEX
  8
0
 10
554.747431
 20
375.436964
 42
0.014257
  0
VERTEX
  8
0
 10
546.210206
 20
395.042069
 42
0.009233
  0
VERTEX
  8
0
 10
535.277669
 20
417.237669
 42
0.026746
  0
VERTEX
  8
0
 10
532.449573
 20
422.068692
 42
0.003384
  0
VERTEX
  8
0
 10
525.727506
 20
432.111213
 42
0.004324
  0
VERTEX
  8
0
 10
518.370638
 20
442.743790
 42
0.007154
  0
VERTEX
  8
0
 10
511.955946
 20
451.574392
 42
0.025818
  0
VERTEX
  8
0
 10
503.150989
 20
462.152610
 42
0.008447
  0
VERTEX
  8
0
 10
489.130305
 20
476.825140
 42
0.008638
  0
VERTEX
  8
0
 10
474.384848
 20
491.236584
 42
0.020785
  0
VERTEX
  8
0
 10
462.860532
 20
501.244748
 42
0.013168
  0
VERTEX
  8
0
 10
450.590264
 20
510.518615
 42
0.007617
  0
VERTEX
  8
0
 10
435.382726
 20
521.048951
 42
0.007616
  0
VERTEX
  8
0
 10
419.857322
 20
531.113875
 42
0.013136
  0
VERTEX
  8
0
 10
406.601071
 20
538.946387
 42
0.009317
  0
VERTEX
  8
0
 10
398.531738
 20
543.237667
 42
0.002940
  0
VERTEX
  8
0
 10
386.321776
 20
549.351848
 42
0.002997
  0
VERTEX
  8
0
 10
373.920234
 20
555.378869
 42
0.008039
  0
VERTEX
  8
0
 10
365.000000
 20
559.473188
 42
-0.000378
  0
VERTEX
  8
0
 10
361.342920
 20
561.084390
 42
-0.000297
  0
VERTEX
  8
0
 10
357.381250
 20
562.836168
 42
-0.000300
  0
VERTEX
  8
0
 10
353.699797
 20
564.469292
 42
-0.000739
  0
VERTEX
  8
0
 10
351.000000
 20
565.673662
 42
0.014801
  0
VERTEX
  8
0
 10
341.089885
 20
569.764432
 42
0.005607
  0
VERTEX
  8
0
 10
327.026570
 20
574.908582
 42
0.005688
  0
VERTEX
  8
0
 10
312.313767
 20
579.916514
 42
0.009936
  0
VERTEX
  8
0
 10
300.000000
 20
583.682894
 42
0.013327
  0
VERTEX
  8
0
 10
276.504837
 20
589.689846
 42
0.018949
  0
VERTEX
  8
0
 10
255.322599
 20
593.670547
 42
0.016848
  0
VERTEX
  8
0
 10
232.118166
 20
596.331458
 42
0.007930
  0
VERTEX
  8
0
 10
202.000000
 20
598.280408
 42
0.000000
  0
VERTEX
  8
0
 10
197.500000
 20
598.500000
 42
0.000000
  0
VERTEX
  8
0
 10
197.000000
 20
742.500000
 42
0.000000
  0
VERTEX
  8
0
 10
196.500000
 20
886.500000
 42
0.000000
  0
VERTEX
  8
0
 10
193.746142
 20
891.184653
 42
0.025286
  0
VERTEX
  8
0
 10
192.454289
 20
893.147882
 42
0.019020
  0
VERTEX
  8
0
 10
190.847676
 20
895.173322
 42
0.019349
  0
VERTEX
  8
0
 10
189.186504
 20
896.966080
 42
0.041327
  0
VERTEX
  8
0
 10
187.746142
 20
898.184653
 42
0.093260
  0
VERTEX
  8
0
 10
184.761407
 20
899.566500
 42
0.045528
  0
VERTEX
  8
0
 10
180.602006
 20
900.223295
 42
0.014511
  0
VERTEX
  8
0
 10
172.949235
 20
900.503508
 42
0.000922
  0
VERTEX
  8
0
 10
150.500000
 20
900.632242
 42
0.001322
  0
VERTEX
  8
0
 10
137.296130
 20
900.648699
 42
0.001987
  0
VERTEX
  8
0
 10
125.780214
 20
900.586850
 42
0.000787
  0
VERTEX
  8
0
 10
115.898446
 20
900.478951
 42
0.045349
  0
SEQEND
  0
POLYLINE
  8
0
 66
1
 70
1
  0
VERTEX
  8
0
 10
158.428571
 20
862.428571
 42
-0.194748
  0
VERTEX
  8
0
 10
159.442415
 20
860.035395
 42
-0.001347
  0
VERTEX
  8
0
 10
159.744618
 20
837.388716
 42
-0.002413
  0
VERTEX
  8
0
 10
159.957131
 20
800.895225
 42
-0.000249
  0
VERTEX
  8
0
 10
160.000000
 20
714.878912
 42
0.000291
  0
VERTEX
  8
0
 10
160.063189
 20
606.295740
 42
0.009113
  0
VERTEX
  8
0
 10
160.583037
 20
579.486991
 42
0.036217
  0
VERTEX
  8
0
 10
161.995182
 20
566.702889
 42
0.232503
  0
VERTEX
  8
0
 10
165.766927
 20
561.629678
 42
0.094157
  0
VERTEX
  8
0
 10
168.268499
 20
560.891770
 42
0.010206
  0
VERTEX
  8
0
 10
174.295731
 20
560.416622
 42
0.008314
  0
VERTEX
  8
0
 10
183.446558
 20
560.035427
 42
0.002043
  0
VERTEX
  8
0
 10
198.500000
 20
559.720478
 42
-0.005225
  0
VERTEX
  8
0
 10
219.035130
 20
559.160093
 42
-0.013687
  0
VERTEX
  8
0
 10
233.753108
 20
558.200533
 42
-0.016496
  0
VERTEX
  8
0
 10
246.719986
 20
556.565044
 42
-0.011469
  0
VERTEX
  8
0
 10
261.240648
 20
553.901844
 42
-0.015959
  0
VERTEX
  8
0
 10
280.512100
 20
549.262458
 42
-0.014975
  0
VERTEX
  8
0
 10
299.866295
 20
543.315627
 42
-0.008128
  0
VERTEX
  8
0
 10
317.010365
 20
537.167868
 42
-0.225847
  0
VERTEX
  8
0
 10
320.224504
 20
533.826487
 42
-0.120873
  0
VERTEX
  8
0
 10
320.367672
 20
532.066597
 42
-0.004687
  0
VERTEX
  8
0
 10
319.264388
 20
525.591977
 42
-0.009051
  0
VERTEX
  8
0
 10
317.884148
 20
518.649587
 42
-0.011293
  0
VERTEX
  8
0
 10
316.341105
 20
512.259564
 42
-0.044585
  0
VERTEX
  8
0
 10
315.170114
 20
509.038002
 42
-0.051663
  0
VERTEX
  8
0
 10
313.490190
 20
506.241699
 42
-0.030719
  0
VERTEX
  8
0
 10
310.631837
 20
502.886689
 42
-0.006061
  0
VERTEX
  8
0
 10
305.074332
 20
497.259564
 42
0.013981
  0
VERTEX
  8
0
 10
295.820957
 20
487.588581
 42
0.078630
  0
VERTEX
  8
0
 10
291.922352
 20
481.617696
 42
0.161449
  0
VERTEX
  8
0
 10
291.438438
 20
476.860066
 42
0.119782
  0
VERTEX
  8
0
 10
293.787159
 20
472.085885
 42
0.033503
  0
VERTEX
  8
0
 10
295.479676
 20
470.314402
 42
0.073871
  0
VERTEX
  8
0
 10
297.027184
 20
469.269869
 42
0.065646
  0
VERTEX
  8
0
 10
298.926098
 20
468.650779
 42
0.022069
  0
VERTEX
  8
0
 10
301.818155
 20
468.243451
 42
0.023199
  0
VERTEX
  8
0
 10
304.882017
 20
468.091965
 42
0.063496
  0
VERTEX
  8
0
 10
307.029015
 20
468.359149
 42
0.058740
  0
VERTEX
  8
0
 10
309.133497
 20
469.170502
 42
0.017716
  0
VERTEX
  8
0
 10
312.111922
 20
470.878794
 42
-0.011044
  0
VERTEX
  8
0
 10
314.095593
 20
472.051980
 42
-0.016735
  0
VERTEX
  8
0
 10
315.874976
 20
472.975033
 42
-0.011508
  0
VERTEX
  8
0
 10
317.361361
 20
473.642473
 42
-0.242134
  0
VERTEX
  8
0
 10
317.830926
 20
473.606676
 42
-0.235387
  0
VERTEX
  8
0
 10
318.082735
 20
473.202551
 42
-0.010856
  0
VERTEX
  8
0
 10
318.204646
 20
471.539167
 42
-0.016096
  0
VERTEX
  8
0
 10
318.244040
 20
469.493938
 42
-0.010655
  0
VERTEX
  8
0
 10
318.163613
 20
467.145956
 42
-0.045434
  0
VERTEX
  8
0
 10
317.508396
 20
462.701070
 42
-0.095857
  0
VERTEX
  8
0
 10
316.066368
 20
459.542564
 42
-0.049436
  0
VERTEX
  8
0
 10
312.975781
 20
456.006057
 42
-0.005362
  0
VERTEX
  8
0
 10
304.987393
 20
448.666864
 42
0.012984
  0
VERTEX
  8
0
 10
298.416025
 20
442.442188
 42
0.035145
  0
VERTEX
  8
0
 10
294.201940
 20
437.601016
 42
0.051124
  0
VERTEX
  8
0
 10
291.782697
 20
433.600006
 42
0.110871
  0
VERTEX
  8
0
 10
291.000000
 20
430.113623
 42
0.104499
  0
VERTEX
  8
0
 10
291.944287
 20
425.644781
 42
0.112491
  0
VERTEX
  8
0
 10
294.605000
 20
422.075065
 42
0.102587
  0
VERTEX
  8
0
 10
298.776332
 20
419.786635
 42
0.074466
  0
VERTEX
  8
0
 10
304.028868
 20
419.000000
 42
0.038574
  0
VERTEX
  8
0
 10
306.366018
 20
419.180574
 42
0.074941
  0
VERTEX
  8
0
 10
308.148262
 20
419.739356
 42
0.061517
  0
VERTEX
  8
0
 10
309.902929
 20
420.879703
 42
0.019063
  0
VERTEX
  8
0
 10
312.237665
 20
423.000000
 42
-0.011150
  0
VERTEX
  8
0
 10
313.872128
 20
424.532227
 42
-0.015484
  0
VERTEX
  8
0
 10
315.407397
 20
425.825000
 42
-0.011922
  0
VERTEX
  8
0
 10
316.724213
 20
426.815809
 42
-0.156563
  0
VERTEX
  8
0
 10
317.298025
 20
427.000000
 42
-0.357522
  0
VERTEX
  8
0
 10
317.679882
 20
426.686940
 42
-0.031329
  0
VERTEX
  8
0
 10
317.860503
 20
425.354345
 42
-0.027753
  0
VERTEX
  8
0
 10
317.892076
 20
423.451546
 42
-0.012883
  0
VERTEX
  8
0
 10
317.732356
 20
420.984997
 42
0.000000
  0
VERTEX
  8
0
 10
317.186935
 20
414.969994
 42
0.000000
  0
VERTEX
  8
0
 10
306.673709
 20
404.734997
 42
0.014978
  0
VERTEX
  8
0
 10
299.446712
 20
397.264818
 42
0.060723
  0
VERTEX
  8
0
 10
295.786976
 20
392.112409
 42
0.099222
  0
VERTEX
  8
0
 10
294.407523
 20
387.629359
 42
0.088697
  0
VERTEX
  8
0
 10
294.778702
 20
382.768835
 42
0.119013
  0
VERTEX
  8
0
 10
296.180619
 20
380.140896
 42
0.057014
  0
VERTEX
  8
0
 10
299.048277
 20
377.574993
 42
0.056201
  0
VERTEX
  8
0
 10
302.509659
 20
375.667227
 42
0.096313
  0
VERTEX
  8
0
 10
305.729764
 20
375.016450
 42
0.072529
  0
VERTEX
  8
0
 10
308.317613
 20
375.374345
 42
0.024239
  0
VERTEX
  8
0
 10
311.940458
 20
376.618086
 42
0.016581
  0
VERTEX
  8
0
 10
315.377439
 20
378.121414
 42
0.288993
  0
VERTEX
  8
0
 10
316.000000
 20
379.108580
 42
-0.164718
  0
VERTEX
  8
0
 10
316.115148
 20
379.448627
 42
-0.095686
  0
VERTEX
  8
0
 10
316.440625
 20
379.738145
 42
-0.076763
  0
VERTEX
  8
0
 10
316.926281
 20
379.933802
 42
-0.057502
  0
VERTEX
  8
0
 10
317.500000
 20
380.000000
 42
-0.331617
  0
VERTEX
  8
0
 10
318.302317
 20
379.402128
 42
-0.047474
  0
VERTEX
  8
0
 10
318.724860
 20
377.263889
 42
-0.021956
  0
VERTEX
  8
0
 10
318.949090
 20
373.286521
 42
-0.003103
  0
VERTEX
  8
0
 10
319.000000
 20
365.083333
 42
-0.004209
  0
VERTEX
  8
0
 10
318.939788
 20
357.931000
 42
-0.015776
  0
VERTEX
  8
0
 10
318.722566
 20
353.445087
 42
-0.017040
  0
VERTEX
  8
0
 10
318.383654
 20
350.485358
 42
-0.282407
  0
VERTEX
  8
0
 10
317.772317
 20
349.757439
 42
-0.153308
  0
VERTEX
  8
0
 10
314.404614
 20
349.698488
 42
-0.002947
  0
VERTEX
  8
0
 10
297.522392
 20
354.784908
 42
-0.004763
  0
VERTEX
  8
0
 10
281.334145
 20
359.935828
 42
-0.078562
  0
VERTEX
  8
0
 10
276.305645
 20
362.517953
 42
-0.220220
  0
VERTEX
  8
0
 10
275.153084
 20
364.597513
 42
-0.009432
  0
VERTEX
  8
0
 10
274.691964
 20
373.175589
 42
-0.006274
  0
VERTEX
  8
0
 10
274.350811
 20
388.476801
 42
-0.000508
  0
VERTEX
  8
0
 10
274.000000
 20
428.668884
 42
0.000887
  0
VERTEX
  8
0
 10
273.544281
 20
476.709063
 42
0.020727
  0
VERTEX
  8
0
 10
272.826249
 20
490.319359
 42
0.084831
  0
VERTEX
  8
0
 10
270.982294
 20
497.156954
 42
0.137262
  0
VERTEX
  8
0
 10
267.102117
 20
501.712670
 42
0.111750
  0
VERTEX
  8
0
 10
261.754475
 20
503.786270
 42
0.124300
  0
VERTEX
  8
0
 10
256.255939
 20
503.234591
 42
0.125647
  0
VERTEX
  8
0
 10
251.721191
 20
500.150063
 42
0.115646
  0
VERTEX
  8
0
 10
249.047944
 20
495.176999
 42
0.060184
  0
VERTEX
  8
0
 10
248.616003
 20
492.171489
 42
0.001202
  0
VERTEX
  8
0
 10
248.305456
 20
476.732986
 42
0.002647
  0
VERTEX
  8
0
 10
248.070036
 20
457.769647
 42
0.001384
  0
VERTEX
  8
0
 10
247.967243
 20
434.152516
 42
-0.001409
  0
VERTEX
  8
0
 10
247.866419
 20
411.249609
 42
-0.002499
  0
VERTEX
  8
0
 10
247.635784
 20
392.372836
 42
-0.000753
  0
VERTEX
  8
0
 10
247.336556
 20
376.391132
 42
-0.085984
  0
VERTEX
  8
0
 10
246.937409
 20
374.335374
 42
-0.170876
  0
VERTEX
  8
0
 10
245.723177
 20
372.899056
 42
-0.191218
  0
VERTEX
  8
0
 10
243.940720
 20
372.624859
 42
-0.033612
  0
VERTEX
  8
0
 10
240.289406
 20
373.724164
 42
-0.001099
  0
VERTEX
  8
0
 10
226.000000
 20
379.132710
 42
-0.007016
  0
VERTEX
  8
0
 10
219.781838
 20
381.602385
 42
-0.010505
  0
VERTEX
  8
0
 10
214.429837
 20
383.948324
 42
-0.008200
  0
VERTEX
  8
0
 10
210.154108
 20
386.016455
 42
-0.102144
  0
VERTEX
  8
0
 10
208.750000
 20
387.130001
 42
-0.097436
  0
VERTEX
  8
0
 10
207.842634
 20
388.781256
 42
-0.047018
  0
VERTEX
  8
0
 10
207.327518
 20
391.148807
 42
-0.025157
  0
VERTEX
  8
0
 10
207.066192
 20
394.877869
 42
-0.004915
  0
VERTEX
  8
0
 10
207.000000
 20
401.610784
 42
-0.006795
  0
VERTEX
  8
0
 10
207.064566
 20
406.361206
 42
-0.011293
  0
VERTEX
  8
0
 10
207.263766
 20
410.360668
 42
-0.005025
  0
VERTEX
  8
0
 10
207.537167
 20
413.671141
 42
-0.387388
  0
VERTEX
  8
0
 10
207.897926
 20
414.000000
 42
-0.102615
  0
VERTEX
  8
0
 10
208.452875
 20
413.884896
 42
-0.008380
  0
VERTEX
  8
0
 10
209.810509
 20
413.269163
 42
-0.010973
  0
VERTEX
  8
0
 10
211.415543
 20
412.464949
 42
-0.008223
  0
VERTEX
  8
0
 10
213.147926
 20
411.512045
 42
0.055554
  0
VERTEX
  8
0
 10
217.521622
 20
409.619748
 42
0.073534
  0
VERTEX
  8
0
 10
221.806057
 20
408.969859
 42
0.084959
  0
VERTEX
  8
0
 10
225.595953
 20
409.603951
 42
0.113005
  0
VERTEX
  8
0
 10
228.545455
 20
411.454545
 42
0.046490
  0
VERTEX
  8
0
 10
229.760448
 20
412.919235
 42
0.069427
  0
VERTEX
  8
0
 10
230.499302
 20
414.407000
 42
0.057825
  0
VERTEX
  8
0
 10
230.882629
 20
416.234228
 42
0.022820
  0
VERTEX
  8
0
 10
231.000000
 20
418.804507
 42
0.075265
  0
VERTEX
  8
0
 10
230.352374
 20
423.082447
 42
0.072917
  0
VERTEX
  8
0
 10
228.465549
 20
427.027999
 42
0.041795
  0
VERTEX
  8
0
 10
224.636764
 20
431.809622
 42
0.008737
  0
VERTEX
  8
0
 10
217.109627
 20
439.476540
 42
-0.009492
  0
VERTEX
  8
0
 10
213.586455
 20
443.075993
 42
-0.020891
  0
VERTEX
  8
0
 10
211.066051
 20
445.985098
 42
-0.023818
  0
VERTEX
  8
0
 10
209.411540
 20
448.280589
 42
-0.145234
  0
VERTEX
  8
0
 10
209.000000
 20
449.667523
 42
-0.073978
  0
VERTEX
  8
0
 10
209.282179
 20
451.564275
 42
-0.243520
  0
VERTEX
  8
0
 10
210.138727
 20
452.442133
 42
-0.212136
  0
VERTEX
  8
0
 10
211.456920
 20
452.312360
 42
-0.058521
  0
VERTEX
  8
0
 10
213.175616
 20
451.051016
 42
0.060071
  0
VERTEX
  8
0
 10
214.497101
 20
450.087449
 42
0.059479
  0
VERTEX
  8
0
 10
216.014074
 20
449.461745
 42
0.047518
  0
VERTEX
  8
0
 10
217.915697
 20
449.120763
 42
0.021717
  0
VERTEX
  8
0
 10
220.438561
 20
449.022236
 42
0.048821
  0
VERTEX
  8
0
 10
224.877758
 20
449.476422
 42
0.114331
  0
VERTEX
  8
0
 10
227.896207
 20
450.850514
 42
0.138642
  0
VERTEX
  8
0
 10
229.653749
 20
453.209099
 42
0.087886
  0
VERTEX
  8
0
 10
230.303923
 20
456.597984
 42
0.077465
  0
VERTEX
  8
0
 10
229.613570
 20
461.482956
 42
0.063576
  0
VERTEX
  8
0
 10
227.452744
 20
466.295847
 42
0.053108
  0
VERTEX
  8
0
 10
223.735085
 20
471.134861
 42
0.031133
  0
VERTEX
  8
0
 10
218.371651
 20
476.104877
 42
-0.010036
  0
VERTEX
  8
0
 10
213.430326
 20
480.310760
 42
-0.043920
  0
VERTEX
  8
0
 10
210.796306
 20
483.094491
 42
-0.076325
  0
VERTEX
  8
0
 10
209.460665
 20
485.440095
 42
-0.091574
  0
VERTEX
  8
0
 10
209.000000
 20
487.934259
 42
-0.134559
  0
VERTEX
  8
0
 10
209.374411
 20
489.300319
 42
-0.242753
  0
VERTEX
  8
0
 10
210.333923
 20
489.901190
 42
-0.113059
  0
VERTEX
  8
0
 10
212.057370
 20
489.654846
 42
-0.023905
  0
VERTEX
  8
0
 10
214.855010
 20
488.422444
 42
0.113477
  0
VERTEX
  8
0
 10
219.043326
 20
487.411895
 42
0.119693
  0
VERTEX
  8
0
 10
223.163411
 20
488.365667
 42
0.116286
  0
VERTEX
  8
0
 10
226.473338
 20
491.138171
 42
0.102845
  0
VERTEX
  8
0
 10
228.380419
 20
495.220538
 42
0.083813
  0
VERTEX
  8
0
 10
228.662156
 20
499.560917
 42
0.083126
  0
VERTEX
  8
0
 10
227.505946
 20
503.766626
 42
0.061171
  0
VERTEX
  8
0
 10
224.662288
 20
508.339352
 42
0.023925
  0
VERTEX
  8
0
 10
219.716536
 20
513.906271
 42
-0.012287
  0
VERTEX
  8
0
 10
216.092892
 20
517.798742
 42
-0.024338
  0
VERTEX
  8
0
 10
213.452693
 20
521.087739
 42
-0.029534
  0
VERTEX
  8
0
 10
211.504451
 20
524.136045
 42
-0.033736
  0
VERTEX
  8
0
 10
210.023761
 20
527.263416
 42
0.057654
  0
VERTEX
  8
0
 10
206.816282
 20
533.277907
 42
0.119515
  0
VERTEX
  8
0
 10
202.867414
 20
536.796133
 42
0.136345
  0
VERTEX
  8
0
 10
198.117432
 20
537.852689
 42
0.086120
  0
VERTEX
  8
0
 10
192.545662
 20
536.583526
 42
0.069157
  0
VERTEX
  8
0
 10
189.903749
 20
535.021807
 42
0.062754
  0
VERTEX
  8
0
 10
187.687997
 20
532.752627
 42
0.047002
  0
VERTEX
  8
0
 10
185.634274
 20
529.434331
 42
0.018967
  0
VERTEX
  8
0
 10
183.448676
 20
524.570790
 42
-0.029113
  0
VERTEX
  8
0
 10
182.199164
 20
521.934621
 42
-0.048379
  0
VERTEX
  8
0
 10
180.816856
 20
519.903298
 42
-0.047261
  0
VERTEX
  8
0
 10
179.045893
 20
518.143820
 42
-0.026370
  0
VERTEX
  8
0
 10
176.596640
 20
516.339334
 42
0.018526
  0
VERTEX
  8
0
 10
172.115870
 20
513.145293
 42
0.034825
  0
VERTEX
  8
0
 10
168.793012
 20
510.195726
 42
0.041647
  0
VERTEX
  8
0
 10
166.332004
 20
507.225866
 42
0.046307
  0
VERTEX
  8
0
 10
164.494907
 20
503.988706
 42
0.062270
  0
VERTEX
  8
0
 10
163.420917
 20
500.507595
 42
0.103173
  0
VERTEX
  8
0
 10
163.515041
 20
497.446832
 42
0.093482
  0
VERTEX
  8
0
 10
164.853070
 20
494.472867
 42
0.044077
  0
VERTEX
  8
0
 10
167.567367
 20
491.232633
 42
0.025270
  0
VERTEX
  8
0
 10
169.973110
 20
489.058501
 42
0.128975
  0
VERTEX
  8
0
 10
171.599351
 20
488.316987
 42
0.078130
  0
VERTEX
  8
0
 10
173.740549
 20
488.284161
 42
0.005888
  0
VERTEX
  8
0
 10
179.500000
 20
489.168691
 42
-0.053905
  0
VERTEX
  8
0
 10
180.511085
 20
489.225836
 42
-0.220589
  0
VERTEX
  8
0
 10
181.040909
 20
488.946310
 42
-0.168884
  0
VERTEX
  8
0
 10
181.253890
 20
488.295989
 42
-0.030015
  0
VERTEX
  8
0
 10
181.152426
 20
487.000000
 42
-0.026586
  0
VERTEX
  8
0
 10
180.950894
 20
485.959421
 42
-0.023422
  0
VERTEX
  8
0
 10
180.633318
 20
484.900229
 42
-0.024114
  0
VERTEX
  8
0
 10
180.255595
 20
483.971702
 42
-0.062981
  0
VERTEX
  8
0
 10
179.873333
 20
483.362482
 42
-0.089216
  0
VERTEX
  8
0
 10
177.275496
 20
481.144552
 42
-0.012700
  0
VERTEX
  8
0
 10
171.108572
 20
477.748960
 42
-0.011708
  0
VERTEX
  8
0
 10
164.766056
 20
474.649880
 42
-0.108191
  0
VERTEX
  8
0
 10
161.797825
 20
474.000000
 42
-0.107653
  0
VERTEX
  8
0
 10
158.885326
 20
474.634431
 42
-0.033837
  0
VERTEX
  8
0
 10
154.941402
 20
476.771666
 42
-0.033559
  0
VERTEX
  8
0
 10
150.951613
 20
479.688934
 42
-0.043239
  0
VERTEX
  8
0
 10
147.740063
 20
482.897070
 42
-0.032119
  0
VERTEX
  8
0
 10
146.629112
 20
484.403956
 42
-0.057680
  0
VERTEX
  8
0
 10
145.953568
 20
485.781823
 42
-0.067353
  0
VERTEX
  8
0
 10
145.673947
 20
487.119225
 42
-0.065215
  0
VERTEX
  8
0
 10
145.754898
 20
488.498163
 42
-0.057299
  0
VERTEX
  8
0
 10
146.286269
 20
490.195744
 42
-0.003708
  0
VERTEX
  8
0
 10
148.423378
 20
494.914715
 42
-0.005368
  0
VERTEX
  8
0
 10
151.078648
 20
500.505516
 42
-0.003974
  0
VERTEX
  8
0
 10
154.129946
 20
506.632112
 42
0.005699
  0
VERTEX
  8
0
 10
157.657758
 20
513.777168
 42
0.013539
  0
VERTEX
  8
0
 10
160.075275
 20
519.188433
 42
0.016042
  0
VERTEX
  8
0
 10
161.607541
 20
523.246992
 42
0.082414
  0
VERTEX
  8
0
 10
162.000000
 20
525.611837
 42
0.090383
  0
VERTEX
  8
0
 10
161.092083
 20
530.593428
 42
0.109099
  0
VERTEX
  8
0
 10
158.499961
 20
534.568114
 42
0.107854
  0
VERTEX
  8
0
 10
154.447981
 20
537.112398
 42
0.086669
  0
VERTEX
  8
0
 10
149.365822
 20
538.000000
 42
0.152215
  0
VERTEX
  8
0
 10
144.850018
 20
536.592643
 42
0.070041
  0
VERTEX
  8
0
 10
140.270416
 20
532.376694
 42
0.042099
  0
VERTEX
  8
0
 10
135.074795
 20
524.826402
 42
0.012446
  0
VERTEX
  8
0
 10
128.418592
 20
512.457145
 42
0.015471
  0
VERTEX
  8
0
 10
116.864619
 20
487.777426
 42
0.025419
  0
VERTEX
  8
0
 10
108.827796
 20
466.169367
 42
0.025639
  0
VERTEX
  8
0
 10
103.070320
 20
443.990498
 42
0.016089
  0
VERTEX
  8
0
 10
98.521278
 20
417.575931
 42
0.025479
  0
VERTEX
  8
0
 10
97.350722
 20
404.220274
 42
0.009144
  0
VERTEX
  8
0
 10
97.003343
 20
385.120178
 42
0.009219
  0
VERTEX
  8
0
 10
97.359737
 20
365.900649
 42
0.023439
  0
VERTEX
  8
0
 10
98.528040
 20
352.000000
 42
0.013543
  0
VERTEX
  8
0
 10
102.151275
 20
329.230585
 42
0.016749
  0
VERTEX
  8
0
 10
106.804046
 20
308.264798
 42
0.018134
  0
VERTEX
  8
0
 10
112.429830
 20
289.283836
 42
0.024020
  0
VERTEX
  8
0
 10
118.986784
 20
272.500000
 42
-0.001863
  0
VERTEX
  8
0
 10
119.837086
 20
270.579161
 42
-0.000846
  0
VERTEX
  8
0
 10
120.936242
 20
268.059375
 42
-0.000837
  0
VERTEX
  8
0
 10
122.086455
 20
265.398138
 42
-0.001149
  0
VERTEX
  8
0
 10
123.111670
 20
263.000000
 42
0.018340
  0
VERTEX
  8
0
 10
126.520667
 20
255.728086
 42
0.008367
  0
VERTEX
  8
0
 10
131.475784
 20
246.477832
 42
0.008380
  0
VERTEX
  8
0
 10
136.872213
 20
237.166908
 42
0.014326
  0
VERTEX
  8
0
 10
141.724822
 20
229.607459
 42
0.034508
  0
VERTEX
  8
0
 10
163.571044
 20
201.937064
 42
0.035701
  0
VERTEX
  8
0
 10
188.784961
 20
177.870408
 42
0.036615
  0
VERTEX
  8
0
 10
216.499130
 20
158.187163
 42
0.040966
  0
VERTEX
  8
0
 10
245.797446
 20
143.581040
 42
0.012464
  0
VERTEX
  8
0
 10
252.575157
 20
141.063416
 42
0.060056
  0
VERTEX
  8
0
 10
256.590661
 20
140.204325
 42
0.104308
  0
VERTEX
  8
0
 10
259.554977
 20
140.552944
 42
0.085604
  0
VERTEX
  8
0
 10
262.365141
 20
142.072580
 42
0.053106
  0
VERTEX
  8
0
 10
263.821743
 20
143.492448
 42
0.102540
  0
VERTEX
  8
0
 10
264.581325
 20
144.924478
 42
0.061117
  0
VERTEX
  8
0
 10
264.919326
 20
147.002527
 42
0.009790
  0
VERTEX
  8
0
 10
265.000000
 20
151.122240
 42
-0.028063
  0
VERTEX
  8
0
 10
265.277543
 20
156.063343
 42
-0.055688
  0
VERTEX
  8
0
 10
266.145920
 20
159.884063
 42
-0.053986
  0
VERTEX
  8
0
 10
267.856937
 20
163.493987
 42
-0.024881
  0
VERTEX
  8
0
 10
270.797855
 20
167.790581
 42
-0.060230
  0
VERTEX
  8
0
 10
274.924868
 20
172.044158
 42
-0.019892
  0
VERTEX
  8
0
 10
281.917747
 20
177.255081
 42
-0.019113
  0
VERTEX
  8
0
 10
290.360658
 20
182.576714
 42
-0.018296
  0
VERTEX
  8
0
 10
299.307036
 20
187.321038
 42
-0.003856
  0
VERTEX
  8
0
 10
310.940516
 20
192.844778
 42
-0.016486
  0
VERTEX
  8
0
 10
318.008957
 20
195.855078
 42
-0.015756
  0
VERTEX
  8
0
 10
325.404010
 20
198.455477
 42
-0.003312
  0
VERTEX
  8
0
 10
338.500000
 20
202.506561
 42
0.000750
  0
VERTEX
  8
0
 10
342.348724
 20
203.675544
 42
0.000609
  0
VERTEX
  8
0
 10
346.471875
 20
204.940129
 42
0.000615
  0
VERTEX
  8
0
 10
350.269612
 20
206.115085
 42
0.001599
  0
VERTEX
  8
0
 10
353.000000
 20
206.973087
 42
-0.009719
  0
VERTEX
  8
0
 10
356.202583
 20
207.922614
 42
-0.001670
  0
VERTEX
  8
0
 10
362.318750
 20
209.585416
 42
-0.001819
  0
VERTEX
  8
0
 10
369.513908
 20
211.487742
 42
-0.001624
  0
VERTEX
  8
0
 10
377.000000
 20
213.411941
 42
0.008584
  0
VERTEX
  8
0
 10
403.016988
 20
220.486776
 42
0.039998
  0
VERTEX
  8
0
 10
417.542178
 20
225.997805
 42
0.073665
  0
VERTEX
  8
0
 10
426.213005
 20
231.799022
 42
0.110176
  0
VERTEX
  8
0
 10
431.449319
 20
239.217881
 42
0.111495
  0
VERTEX
  8
0
 10
432.997502
 20
248.073489
 42
0.123915
  0
VERTEX
  8
0
 10
430.473749
 20
256.361949
 42
0.096390
  0
VERTEX
  8
0
 10
423.598320
 20
263.978062
 42
0.046996
  0
VERTEX
  8
0
 10
412.393966
 20
270.852982
 42
0.023962
  0
VERTEX
  8
0
 10
403.987718
 20
274.491785
 42
0.020844
  0
VERTEX
  8
0
 10
394.874863
 20
277.500777
 42
0.011847
  0
VERTEX
  8
0
 10
381.755586
 20
280.900295
 42
0.002263
  0
VERTEX
  8
0
 10
357.750000
 20
286.402888
 42
-0.000204
  0
VERTEX
  8
0
 10
354.723337
 20
287.083557
 42
-0.000088
  0
VERTEX
  8
0
 10
350.692187
 20
287.992603
 42
-0.000087
  0
VERTEX
  8
0
 10
346.403032
 20
288.961411
 42
-0.000116
  0
VERTEX
  8
0
 10
342.500000
 20
289.844669
 42
0.000234
  0
VERTEX
  8
0
 10
338.096566
 20
290.840077
 42
0.000096
  0
VERTEX
  8
0
 10
332.125339
 20
292.185753
 42
0.000095
  0
VERTEX
  8
0
 10
325.716680
 20
293.627437
 42
0.000122
  0
VERTEX
  8
0
 10
319.820302
 20
294.951191
 42
-0.010722
  0
VERTEX
  8
0
 10
304.693375
 20
298.685735
 42
-0.002979
  0
VERTEX
  8
0
 10
281.144765
 20
305.188846
 42
-0.002721
  0
VERTEX
  8
0
 10
257.885872
 20
311.898255
 42
-0.015031
  0
VERTEX
  8
0
 10
245.500000
 20
315.952609
 42
-0.000905
  0
VERTEX
  8
0
 10
230.549625
 20
321.379683
 42
-0.003156
  0
VERTEX
  8
0
 10
220.925617
 20
324.961983
 42
-0.003917
  0
VERTEX
  8
0
 10
212.462261
 20
328.249297
 42
-0.002064
  0
VERTEX
  8
0
 10
202.000000
 20
332.457730
 42
-0.013367
  0
VERTEX
  8
0
 10
176.988900
 20
343.426706
 42
-0.012102
  0
VERTEX
  8
0
 10
151.745190
 20
356.067211
 42
-0.007232
  0
VERTEX
  8
0
 10
129.483535
 20
368.312929
 42
-0.141439
  0
VERTEX
  8
0
 10
124.070327
 20
373.868592
 42
-0.113451
  0
VERTEX
  8
0
 10
123.178386
 20
377.149267
 42
-0.009682
  0
VERTEX
  8
0
 10
123.001425
 20
385.925423
 42
-0.005409
  0
VERTEX
  8
0
 10
123.092970
 20
395.060082
 42
-0.408123
  0
VERTEX
  8
0
 10
124.052683
 20
396.000000
 42
-0.117710
  0
VERTEX
  8
0
 10
124.773768
 20
395.827857
 42
-0.002956
  0
VERTEX
  8
0
 10
127.791603
 20
394.277413
 42
-0.006186
  0
VERTEX
  8
0
 10
131.318804
 20
392.382983
 42
-0.004158
  0
VERTEX
  8
0
 10
135.302683
 20
390.135873
 42
0.013528
  0
VERTEX
  8
0
 10
154.861847
 20
379.581582
 42
0.007965
  0
VERTEX
  8
0
 10
178.761773
 20
367.982120
 42
0.007911
  0
VERTEX
  8
0
 10
203.449169
 20
356.954586
 42
0.011641
  0
VERTEX
  8
0
 10
225.500000
 20
348.121800
 42
0.002474
  0
VERTEX
  8
0
 10
253.462688
 20
337.826907
 42
0.007078
  0
VERTEX
  8
0
 10
273.034869
 20
331.042763
 42
0.009715
  0
VERTEX
  8
0
 10
288.799297
 20
326.164926
 42
0.011232
  0
VERTEX
  8
0
 10
304.000000
 20
322.150748
 42
-0.000347
  0
VERTEX
  8
0
 10
308.369818
 20
321.097965
 42
-0.000112
  0
VERTEX
  8
0
 10
314.850000
 20
319.530455
 42
-0.000111
  0
VERTEX
  8
0
 10
322.059520
 20
317.783116
 42
-0.000125
  0
VERTEX
  8
0
 10
329.000000
 20
316.097510
 42
0.001202
  0
VERTEX
  8
0
 10
337.005985
 20
314.171392
 42
0.000516
  0
VERTEX
  8
0
 10
347.703125
 20
311.636689
 42
0.000511
  0
VERTEX
  8
0
 10
359.103974
 20
308.959957
 42
0.000674
  0
VERTEX
  8
0
 10
369.500000
 20
306.545119
 42
-0.002631
  0
VERTEX
  8
0
 10
403.087766
 20
298.604553
 42
-0.010189
  0
VERTEX
  8
0
 10
423.779873
 20
293.148962
 42
-0.015040
  0
VERTEX
  8
0
 10
439.797586
 20
288.049010
 42
-0.013127
  0
VERTEX
  8
0
 10
456.232689
 20
281.776774
 42
-0.050054
  0
VERTEX
  8
0
 10
467.781467
 20
275.604135
 42
-0.065791
  0
VERTEX
  8
0
 10
476.739482
 20
267.711282
 42
-0.075527
  0
VERTEX
  8
0
 10
482.420504
 20
258.776750
 42
-0.104877
  0
VERTEX
  8
0
 10
484.360649
 20
249.520172
 42
-0.130468
  0
VERTEX
  8
0
 10
481.441090
 20
238.626645
 42
-0.089836
  0
VERTEX
  8
0
 10
473.160711
 20
228.806149
 42
-0.056669
  0
VERTEX
  8
0
 10
458.275455
 20
219.099024
 42
-0.018757
  0
VERTEX
  8
0
 10
434.500000
 20
208.277139
 42
0.001161
  0
VERTEX
  8
0
 10
429.995309
 20
206.415142
 42
0.001206
  0
VERTEX
  8
0
 10
425.556250
 20
204.555612
 42
0.001160
  0
VERTEX
  8
0
 10
421.723361
 20
202.928636
 42
0.005254
  0
VERTEX
  8
0
 10
419.500000
 20
201.951021
 42
-0.004452
  0
VERTEX
  8
0
 10
417.170392
 20
200.922226
 42
-0.000756
  0
VERTEX
  8
0
 10
412.709375
 20
199.007441
 42
-0.000826
  0
VERTEX
  8
0
 10
407.461839
 20
196.774702
 42
-0.000735
  0
VERTEX
  8
0
 10
402.000000
 20
194.470898
 42
0.008130
  0
VERTEX
  8
0
 10
387.244062
 20
187.988180
 42
0.019105
  0
VERTEX
  8
0
 10
376.507236
 20
182.555710
 42
0.025373
  0
VERTEX
  8
0
 10
368.487612
 20
177.557374
 42
0.042628
  0
VERTEX
  8
0
 10
362.387925
 20
172.489271
 42
0.014442
  0
VERTEX
  8
0
 10
359.898132
 20
169.887564
 42
0.013002
  0
VERTEX
  8
0
 10
357.471235
 20
167.055659
 42
0.013155
  0
VERTEX
  8
0
 10
355.428327
 20
164.402776
 42
0.039563
  0
VERTEX
  8
0
 10
354.233169
 20
162.457048
 42
0.070646
  0
VERTEX
  8
0
 10
351.635673
 20
154.890630
 42
0.101759
  0
VERTEX
  8
0
 10
351.728769
 20
147.833304
 42
0.115378
  0
VERTEX
  8
0
 10
354.509479
 20
142.013787
 42
0.111576
  0
VERTEX
  8
0
 10
359.611766
 20
137.945895
 42
0.025671
  0
VERTEX
  8
0
 10
362.478451
 20
136.735540
 42
0.068100
  0
VERTEX
  8
0
 10
364.647947
 20
136.268166
 42
0.047708
  0
VERTEX
  8
0
 10
367.273281
 20
136.318442
 42
0.007877
  0
VERTEX
  8
0
 10
372.301658
 20
136.977092
 42
0.017146
  0
VERTEX
  8
0
 10
382.126438
 20
138.767811
 42
0.007833
  0
VERTEX
  8
0
 10
394.823954
 20
141.744080
 42
0.007855
  0
VERTEX
  8
0
 10
407.641016
 20
145.175902
 42
0.014409
  0
VERTEX
  8
0
 10
417.947723
 20
148.433658
 42
0.027288
  0
VERTEX
  8
0
 10
430.071276
 20
153.410339
 42
0.018663
  0
VERTEX
  8
0
 10
443.266884
 20
160.303712
 42
0.017463
  0
VERTEX
  8
0
 10
456.935759
 20
168.752973
 42
0.015660
  0
VERTEX
  8
0
 10
470.500000
 20
178.434352
 42
-0.000133
  0
VERTEX
  8
0
 10
475.220535
 20
182.029935
 42
-0.000065
  0
VERTEX
  8
0
 10
481.234375
 20
186.606847
 42
-0.000065
  0
VERTEX
  8
0
 10
487.484673
 20
191.361152
 42
-0.000094
  0
VERTEX
  8
0
 10
493.000000
 20
195.553635
 42
-0.014923
  0
VERTEX
  8
0
 10
503.180413
 20
202.820515
 42
-0.021776
  0
VERTEX
  8
0
 10
512.593934
 20
208.547339
 42
-0.023930
  0
VERTEX
  8
0
 10
521.714626
 20
213.011194
 42
-0.025775
  0
VERTEX
  8
0
 10
531.000000
 20
216.461356
 42
-0.019006
  0
VERTEX
  8
0
 10
546.807498
 20
220.771853
 42
-0.024195
  0
VERTEX
  8
0
 10
561.677282
 20
223.475034
 42
-0.026253
  0
VERTEX
  8
0
 10
575.596935
 20
224.576320
 42
-0.032796
  0
VERTEX
  8
0
 10
588.547262
 20
224.069581
 42
-0.017732
  0
VERTEX
  8
0
 10
603.716827
 20
221.929704
 42
-0.024718
  0
VERTEX
  8
0
 10
617.077032
 20
218.871536
 42
-0.025774
  0
VERTEX
  8
0
 10
629.626790
 20
214.629143
 42
-0.022162
  0
VERTEX
  8
0
 10
642.338523
 20
208.924392
 42
-0.011320
  0
VERTEX
  8
0
 10
650.571487
 20
204.545780
 42
-0.021141
  0
VERTEX
  8
0
 10
656.992336
 20
200.576282
 42
-0.013689
  0
VERTEX
  8
0
 10
664.642633
 20
195.075750
 42
-0.002377
  0
VERTEX
  8
0
 10
678.755724
 20
184.224092
 42
0.009809
  0
VERTEX
  8
0
 10
697.780256
 20
170.040892
 42
0.023259
  0
VERTEX
  8
0
 10
712.604013
 20
160.444915
 42
0.027709
  0
VERTEX
  8
0
 10
726.570736
 20
153.304769
 42
0.021043
  0
VERTEX
  8
0
 10
742.575408
 20
147.002977
 42
0.019168
  0
VERTEX
  8
0
 10
762.949966
 20
140.818648
 42
0.031971
  0
VERTEX
  8
0
 10
780.537861
 20
137.391585
 42
0.037000
  0
VERTEX
  8
0
 10
794.373802
 20
136.636000
 42
0.159747
  0
VERTEX
  8
0
 10
802.045891
 20
139.317367
 42
0.060786
  0
VERTEX
  8
0
 10
804.285322
 20
141.508362
 42
0.068807
  0
VERTEX
  8
0
 10
805.823539
 20
144.089056
 42
0.062045
  0
VERTEX
  8
0
 10
806.708706
 20
147.212188
 42
0.038081
  0
VERTEX
  8
0
 10
807.000000
 20
151.031335
 42
0.026083
  0
VERTEX
  8
0
 10
806.835902
 20
154.174849
 42
0.047868
  0
VERTEX
  8
0
 10
806.327002
 20
156.685679
 42
0.042751
  0
VERTEX
  8
0
 10
805.305598
 20
159.234900
 42
0.016799
  0
VERTEX
  8
0
 10
803.489162
 20
162.558828
 42
0.062739
  0
VERTEX
  8
0
 10
796.173850
 20
172.003219
 42
0.061201
  0
VERTEX
  8
0
 10
786.688157
 20
179.429071
 42
0.036444
  0
VERTEX
  8
0
 10
771.923592
 20
186.912062
 42
0.008007
  0
VERTEX
  8
0
 10
745.500000
 20
197.472715
 42
-0.013100
  0
VERTEX
  8
0
 10
709.269264
 20
212.382598
 42
-0.051095
  0
VERTEX
  8
0
 10
688.256052
 20
224.377743
 42
-0.092120
  0
VERTEX
  8
0
 10
676.986972
 20
236.086309
 42
-0.146248
  0
VERTEX
  8
0
 10
673.009769
 20
249.311925
 42
-0.104388
  0
VERTEX
  8
0
 10
675.143960
 20
259.507747
 42
-0.082747
  0
VERTEX
  8
0
 10
681.322530
 20
268.948939
 42
-0.067650
  0
VERTEX
  8
0
 10
691.514129
 20
277.379356
 42
-0.040647
  0
VERTEX
  8
0
 10
705.500000
 20
284.567655
 42
-0.023448
  0
VERTEX
  8
0
 10
720.103287
 20
289.842449
 42
-0.010301
  0
VERTEX
  8
0
 10
739.870607
 20
295.508118
 42
-0.008649
  0
VERTEX
  8
0
 10
764.387814
 20
301.540044
 42
-0.005032
  0
VERTEX
  8
0
 10
794.000000
 20
307.971738
 42
0.001602
  0
VERTEX
  8
0
 10
809.508065
 20
311.228809
 42
0.003826
  0
VERTEX
  8
0
 10
820.994393
 20
313.771712
 42
0.004263
  0
VERTEX
  8
0
 10
831.675806
 20
316.318354
 42
0.002509
  0
VERTEX
  8
0
 10
844.401888
 20
319.535238
 42
0.006050
  0
VERTEX
  8
0
 10
875.379261
 20
327.932351
 42
0.011035
  0
VERTEX
  8
0
 10
900.417328
 20
335.646850
 42
0.010948
  0
VERTEX
  8
0
 10
925.222200
 20
344.500758
 42
0.005848
  0
VERTEX
  8
0
 10
955.500000
 20
356.469214
 42
0.010559
  0
VERTEX
  8
0
 10
973.503210
 20
364.277939
 42
0.004354
  0
VERTEX
  8
0
 10
997.560655
 20
375.576566
 42
0.002967
  0
VERTEX
  8
0
 10
1020.936714
 20
386.975876
 42
0.035762
  0
VERTEX
  8
0
 10
1029.563990
 20
392.044026
 42
-0.025707
  0
VERTEX
  8
0
 10
1034.185826
 20
394.885564
 42
-0.356545
  0
VERTEX
  8
0
 10
1035.980842
 20
394.549358
 42
-0.169605
  0
VERTEX
  8
0
 10
1036.871312
 20
392.216528
 42
-0.007158
  0
VERTEX
  8
0
 10
1037.000000
 20
383.227404
 42
0.000000
  0
VERTEX
  8
0
 10
1037.000000
 20
371.454808
 42
0.000000
  0
VERTEX
  8
0
 10
1033.250000
 20
369.483003
 42
0.002857
  0
VERTEX
  8
0
 10
1031.397463
 20
368.495358
 42
0.001103
  0
VERTEX
  8
0
 10
1028.839062
 20
367.105259
 42
0.001092
  0
VERTEX
  8
0
 10
1026.071906
 20
365.585958
 42
0.001349
  0
VERTEX
  8
0
 10
1023.500000
 20
364.157474
 42
-0.009328
  0
VERTEX
  8
0
 10
1012.233224
 20
358.132894
 42
-0.004191
  0
VERTEX
  8
0
 10
997.224869
 20
350.622083
 42
-0.004188
  0
VERTEX
  8
0
 10
982.107481
 20
343.370880
 42
-0.009430
  0
VERTEX
  8
0
 10
970.500000
 20
338.187183
 42
-0.009244
  0
VERTEX
  8
0
 10
935.771894
 20
324.209044
 42
-0.010907
  0
VERTEX
  8
0
 10
902.402434
 20
312.316312
 42
-0.011484
  0
VERTEX
  8
0
 10
870.205036
 20
302.441723
 42
-0.013145
  0
VERTEX
  8
0
 10
839.000000
 20
294.529377
 42
0.001371
  0
VERTEX
  8
0
 10
834.193783
 20
293.430466
 42
0.001265
  0
VERTEX
  8
0
 10
829.262500
 20
292.275565
 42
0.001262
  0
VERTEX
  8
0
 10
824.873985
 20
291.224356
 42
0.004208
  0
VERTEX
  8
0
 10
822.000000
 20
290.502601
 42
-0.007557
  0
VERTEX
  8
0
 10
819.072109
 20
289.788125
 42
-0.002080
  0
VERTEX
  8
0
 10
814.443750
 20
288.752780
 42
-0.002101
  0
VERTEX
  8
0
 10
809.189058
 20
287.623373
 42
-0.002193
  0
VERTEX
  8
0
 10
804.000000
 20
286.554612
 42
0.001401
  0
VERTEX
  8
0
 10
774.036711
 20
280.432726
 42
0.013183
  0
VERTEX
  8
0
 10
761.246186
 20
277.428388
 42
0.026598
  0
VERTEX
  8
0
 10
752.251756
 20
274.544712
 42
0.016419
  0
VERTEX
  8
0
 10
742.001969
 20
270.256141
 42
0.034014
  0
VERTEX
  8
0
 10
737.515617
 20
267.822045
 42
0.027958
  0
VERTEX
  8
0
 10
733.082774
 20
264.650611
 42
0.028755
  0
VERTEX
  8
0
 10
729.217092
 20
261.160334
 42
0.048593
  0
VERTEX
  8
0
 10
726.468735
 20
257.774073
 42
0.074590
  0
VERTEX
  8
0
 10
724.226771
 20
252.959138
 42
0.068045
  0
VERTEX
  8
0
 10
723.402588
 20
247.542122
 42
0.067283
  0
VERTEX
  8
0
 10
724.061172
 20
242.045805
 42
0.069961
  0
VERTEX
  8
0
 10
726.154838
 20
237.000000
 42
0.079593
  0
VERTEX
  8
0
 10
731.978945
 20
229.969999
 42
0.070543
  0
VERTEX
  8
0
 10
739.938884
 20
224.763587
 42
0.039291
  0
VERTEX
  8
0
 10
752.670081
 20
219.973830
 42
0.007944
  0
VERTEX
  8
0
 10
776.000000
 20
213.632199
 42
-0.010126
  0
VERTEX
  8
0
 10
819.809014
 20
201.518387
 42
-0.023274
  0
VERTEX
  8
0
 10
852.092253
 20
190.223279
 42
-0.029917
  0
VERTEX
  8
0
 10
874.913560
 20
179.397928
 42
-0.104708
  0
VERTEX
  8
0
 10
887.179838
 20
168.824977
 42
-0.024812
  0
VERTEX
  8
0
 10
890.612996
 20
163.818943
 42
-0.052142
  0
VERTEX
  8
0
 10
892.650676
 20
159.571721
 42
-0.062068
  0
VERTEX
  8
0
 10
893.556649
 20
155.504351
 42
-0.052732
  0
VERTEX
  8
0
 10
893.511833
 20
151.101956
 42
0.014631
  0
VERTEX
  8
0
 10
893.236759
 20
147.921876
 42
0.058301
  0
VERTEX
  8
0
 10
893.352864
 20
145.971097
 42
0.079471
  0
VERTEX
  8
0
 10
893.892687
 20
144.418057
 42
0.043372
  0
VERTEX
  8
0
 10
895.000657
 20
142.726294
 42
0.044460
  0
VERTEX
  8
0
 10
895.982176
 20
141.684000
 42
0.041421
  0
VERTEX
  8
0
 10
897.154830
 20
140.804028
 42
0.044117
  0
VERTEX
  8
0
 10
898.334424
 20
140.200684
 42
0.097706
  0
VERTEX
  8
0
 10
899.322580
 20
140.010824
 42
0.100044
  0
VERTEX
  8
0
 10
909.263230
 20
142.071429
 42
0.013385
  0
VERTEX
  8
0
 10
928.803440
 20
151.046943
 42
0.016559
  0
VERTEX
  8
0
 10
949.077866
 20
161.873425
 42
0.028868
  0
VERTEX
  8
0
 10
965.000000
 20
172.334921
 42
0.026790
  0
VERTEX
  8
0
 10
975.530219
 20
181.071965
 42
0.009936
  0
VERTEX
  8
0
 10
989.412853
 20
194.427148
 42
0.009960
  0
VERTEX
  8
0
 10
1002.777456
 20
208.349260
 42
0.026149
  0
VERTEX
  8
0
 10
1011.617519
 20
219.000000
 42
0.031685
  0
VERTEX
  8
0
 10
1027.263944
 20
243.031640
 42
0.028566
  0
VERTEX
  8
0
 10
1040.354891
 20
269.676963
 42
0.027696
  0
VERTEX
  8
0
 10
1050.682352
 20
298.489419
 42
0.025677
  0
VERTEX
  8
0
 10
1058.066384
 20
329.000000
 42
0.026041
  0
VERTEX
  8
0
 10
1062.291589
 20
360.333898
 42
0.026115
  0
VERTEX
  8
0
 10
1063.231144
 20
391.907602
 42
0.026819
  0
VERTEX
  8
0
 10
1060.896739
 20
422.526713
 42
0.031777
  0
VERTEX
  8
0
 10
1055.324766
 20
451.000000
 42
0.010719
  0
VERTEX
  8
0
 10
1052.532263
 20
460.776785
 42
0.005400
  0
VERTEX
  8
0
 10
1048.613469
 20
472.991339
 42
0.005382
  0
VERTEX
  8
0
 10
1044.476947
 20
484.988806
 42
0.012005
  0
VERTEX
  8
0
 10
1041.015049
 20
494.000000
 42
0.019206
  0
VERTEX
  8
0
 10
1037.142503
 20
502.461567
 42
0.007731
  0
VERTEX
  8
0
 10
1031.236072
 20
513.722073
 42
0.007228
  0
VERTEX
  8
0
 10
1025.151835
 20
524.523236
 42
0.029676
  0
VERTEX
  8
0
 10
1020.992833
 20
530.778239
 42
0.050863
  0
VERTEX
  8
0
 10
1017.403962
 20
534.647991
 42
0.088020
  0
VERTEX
  8
0
 10
1013.664943
 20
536.918918
 42
0.102196
  0
VERTEX
  8
0
 10
1009.782603
 20
537.571526
 42
0.090346
  0
VERTEX
  8
0
 10
1005.771897
 20
536.685816
 42
0.075573
  0
VERTEX
  8
0
 10
1002.444024
 20
534.652756
 42
0.080557
  0
VERTEX
  8
0
 10
999.954474
 20
531.760805
 42
0.082679
  0
VERTEX
  8
0
 10
998.551768
 20
528.299356
 42
0.085662
  0
VERTEX
  8
0
 10
998.370582
 20
524.613857
 42
0.047794
  0
VERTEX
  8
0
 10
999.041376
 20
521.575661
 42
0.028514
  0
VERTEX
  8
0
 10
1000.380613
 20
518.121042
 42
0.012467
  0
VERTEX
  8
0
 10
1003.001796
 20
512.719259
 42
0.001450
  0
VERTEX
  8
0
 10
1009.201481
 20
500.799337
 42
-0.009925
  0
VERTEX
  8
0
 10
1010.996365
 20
497.200663
 42
-0.010347
  0
VERTEX
  8
0
 10
1012.621233
 20
493.582697
 42
-0.010082
  0
VERTEX
  8
0
 10
1013.896305
 20
490.401954
 42
-0.043941
  0
VERTEX
  8
0
 10
1014.443402
 20
488.450003
 42
-0.037631
  0
VERTEX
  8
0
 10
1014.688468
 20
486.235578
 42
-0.122276
  0
VERTEX
  8
0
 10
1014.385176
 20
484.801029
 42
-0.087903
  0
VERTEX
  8
0
 10
1013.382987
 20
483.417955
 42
-0.013970
  0
VERTEX
  8
0
 10
1010.902135
 20
481.150665
 42
-0.011987
  0
VERTEX
  8
0
 10
1006.335300
 20
477.392694
 42
-0.044577
  0
VERTEX
  8
0
 10
1003.213123
 20
475.367288
 42
-0.066065
  0
VERTEX
  8
0
 10
1000.473622
 20
474.353488
 42
-0.055281
  0
VERTEX
  8
0
 10
997.390731
 20
474.006589
 42
-0.040621
  0
VERTEX
  8
0
 10
995.150735
 20
474.185256
 42
-0.057106
  0
VERTEX
  8
0
 10
993.222787
 20
474.728971
 42
-0.049043
  0
VERTEX
  8
0
 10
991.263398
 20
475.766483
 42
-0.021667
  0
VERTEX
  8
0
 10
988.890731
 20
477.490294
 42
0.008588
  0
VERTEX
  8
0
 10
987.147193
 20
478.828055
 42
0.012021
  0
VERTEX
  8
0
 10
985.541373
 20
479.958165
 42
0.008439
  0
VERTEX
  8
0
 10
984.174511
 20
480.838773
 42
0.136837
  0
VERTEX
  8
0
 10
983.654370
 20
480.990294
 42
-0.145193
  0
VERTEX
  8
0
 10
981.721439
 20
481.587900
 42
-0.050086
  0
VERTEX
  8
0
 10
979.439464
 20
483.464822
 42
-0.050079
  0
VERTEX
  8
0
 10
977.577956
 20
485.755878
 42
-0.146599
  0
VERTEX
  8
0
 10
977.000000
 20
487.684726
 42
-0.028259
  0
VERTEX
  8
0
 10
977.078363
 20
489.070130
 42
-0.197576
  0
VERTEX
  8
0
 10
977.398301
 20
489.651436
 42
-0.217419
  0
VERTEX
  8
0
 10
978.013398
 20
489.808078
 42
-0.034566
  0
VERTEX
  8
0
 10
979.250000
 20
489.495063
 42
0.024813
  0
VERTEX
  8
0
 10
980.407215
 20
489.178021
 42
0.008494
  0
VERTEX
  8
0
 10
982.111960
 20
488.831021
 42
0.008419
  0
VERTEX
  8
0
 10
984.009247
 20
488.511231
 42
0.009629
  0
VERTEX
  8
0
 10
985.833267
 20
488.271116
 42
0.025293
  0
VERTEX
  8
0
 10
988.289989
 20
488.120931
 42
0.079860
  0
VERTEX
  8
0
 10
989.916267
 20
488.364891
 42
0.084088
  0
VERTEX
  8
0
 10
991.337782
 20
489.097853
 42
0.030043
  0
VERTEX
  8
0
 10
993.083267
 20
490.579775
 42
0.034586
  0
VERTEX
  8
0
 10
994.578163
 20
492.224640
 42
0.073012
  0
VERTEX
  8
0
 10
995.437014
 20
493.715100
 42
0.067929
  0
VERTEX
  8
0
 10
995.866178
 20
495.458659
 42
0.026635
  0
VERTEX
  8
0
 10
995.996262
 20
497.937091
 42
0.068461
  0
VERTEX
  8
0
 10
995.381392
 20
502.379723
 42
0.085435
  0
VERTEX
  8
0
 10
993.592226
 20
506.134315
 42
0.068145
  0
VERTEX
  8
0
 10
990.293280
 20
509.666776
 42
0.028377
  0
VERTEX
  8
0
 10
984.998756
 20
513.500797
 42
-0.014207
  0
VERTEX
  8
0
 10
981.542302
 20
515.857491
 42
-0.034076
  0
VERTEX
  8
0
 10
979.161699
 20
517.842221
 42
-0.045089
  0
VERTEX
  8
0
 10
977.513413
 20
519.730681
 42
-0.056248
  0
VERTEX
  8
0
 10
976.367221
 20
521.755493
 42
0.004854
  0
VERTEX
  8
0
 10
973.296737
 20
528.773355
 42
0.030335
  0
VERTEX
  8
0
 10
971.477848
 20
532.243442
 42
0.058667
  0
VERTEX
  8
0
 10
969.830153
 20
534.363667
 42
0.061434
  0
VERTEX
  8
0
 10
967.758311
 20
536.005906
 42
0.071936
  0
VERTEX
  8
0
 10
964.352811
 20
537.461421
 42
0.067544
  0
VERTEX
  8
0
 10
960.599111
 20
537.934597
 42
0.069249
  0
VERTEX
  8
0
 10
956.943298
 20
537.390426
 42
0.083376
  0
VERTEX
  8
0
 10
953.822575
 20
535.873662
 42
0.062407
  0
VERTEX
  8
0
 10
952.429918
 20
534.593260
 42
0.022699
  0
VERTEX
  8
0
 10
950.788438
 20
532.466520
 42
0.021510
  0
VERTEX
  8
0
 10
949.137503
 20
529.884703
 42
0.020360
  0
VERTEX
  8
0
 10
947.681802
 20
527.123662
 42
-0.025679
  0
VERTEX
  8
0
 10
945.979721
 20
523.976872
 42
-0.018836
  0
VERTEX
  8
0
 10
943.788536
 20
520.667468
 42
-0.018379
  0
VERTEX
  8
0
 10
941.280382
 20
517.430824
 42
-0.020362
  0
VERTEX
  8
0
 10
938.621767
 20
514.500000
 42
0.024993
  0
VERTEX
  8
0
 10
934.560263
 20
509.938503
 42
0.037703
  0
VERTEX
  8
0
 10
931.547810
 20
505.555320
 42
0.044630
  0
VERTEX
  8
0
 10
929.657266
 20
501.514050
 42
0.085476
  0
VERTEX
  8
0
 10
929.025700
 20
498.000000
 42
0.123443
  0
VERTEX
  8
0
 10
929.994722
 20
494.011796
 42
0.072078
  0
VERTEX
  8
0
 10
932.901264
 20
490.007792
 42
0.072449
  0
VERTEX
  8
0
 10
936.803287
 20
487.014647
 42
0.128646
  0
VERTEX
  8
0
 10
940.700340
 20
486.003738
 42
0.071717
  0
VERTEX
  8
0
 10
941.610775
 20
486.136931
 42
0.021760
  0
VERTEX
  8
0
 10
942.933137
 20
486.592780
 42
0.021303
  0
VERTEX
  8
0
 10
944.388550
 20
487.239377
 42
0.021714
  0
VERTEX
  8
0
 10
945.774170
 20
488.003738
 42
-0.007007
  0
VERTEX
  8
0
 10
948.581751
 20
489.662003
 42
-0.176116
  0
VERTEX
  8
0
 10
949.448744
 20
489.811575
 42
-0.341045
  0
VERTEX
  8
0
 10
949.899331
 20
489.313746
 42
-0.022464
  0
VERTEX
  8
0
 10
949.968197
 20
487.250000
 42
-0.074755
  0
VERTEX
  8
0
 10
949.558289
 20
484.722786
 42
-0.101365
  0
VERTEX
  8
0
 10
948.428294
 20
482.712401
 42
-0.076847
  0
VERTEX
  8
0
 10
946.333545
 20
480.936189
 42
-0.027631
  0
VERTEX
  8
0
 10
942.882926
 20
479.074993
 42
0.089672
  0
VERTEX
  8
0
 10
934.874419
 20
473.378524
 42
0.096583
  0
VERTEX
  8
0
 10
929.615319
 20
465.370527
 42
0.119388
  0
VERTEX
  8
0
 10
928.389670
 20
457.308543
 42
0.195862
  0
VERTEX
  8
0
 10
931.493930
 20
451.251563
 42
0.107822
  0
VERTEX
  8
0
 10
934.633375
 20
449.554567
 42
0.065871
  0
VERTEX
  8
0
 10
938.815687
 20
448.925953
 42
0.065729
  0
VERTEX
  8
0
 10
943.029070
 20
449.406807
 42
0.105796
  0
VERTEX
  8
0
 10
946.261565
 20
450.991107
 42
-0.013142
  0
VERTEX
  8
0
 10
947.728878
 20
452.084119
 42
-0.120916
  0
VERTEX
  8
0
 10
948.462490
 20
452.371438
 42
-0.264724
  0
VERTEX
  8
0
 10
948.964742
 20
452.167943
 42
-0.075609
  0
VERTEX
  8
0
 10
949.396424
 20
451.409320
 42
-0.075398
  0
VERTEX
  8
0
 10
950.036215
 20
448.492078
 42
-0.138608
  0
VERTEX
  8
0
 10
949.533067
 20
446.132346
 42
-0.093689
  0
VERTEX
  8
0
 10
947.663715
 20
443.784263
 42
-0.022770
  0
VERTEX
  8
0
 10
943.750000
 20
440.708613
 42
0.025102
  0
VERTEX
  8
0
 10
937.857677
 20
436.033442
 42
0.023588
  0
VERTEX
  8
0
 10
932.334135
 20
430.697916
 42
0.020254
  0
VERTEX
  8
0
 10
927.971062
 20
425.673256
 42
0.157958
  0
VERTEX
  8
0
 10
926.889309
 20
422.809861
 42
0.044343
  0
VERTEX
  8
0
 10
927.088082
 20
417.934009
 42
0.083641
  0
VERTEX
  8
0
 10
928.234427
 20
414.178569
 42
0.097737
  0
VERTEX
  8
0
 10
930.390446
 20
411.389149
 42
0.080712
  0
VERTEX
  8
0
 10
933.586290
 20
409.399499
 42
0.077601
  0
VERTEX
  8
0
 10
936.388279
 20
408.711169
 42
0.070089
  0
VERTEX
  8
0
 10
939.370746
 20
408.872235
 42
0.056370
  0
VERTEX
  8
0
 10
942.725625
 20
409.934038
 42
0.028484
  0
VERTEX
  8
0
 10
946.672313
 20
411.969166
 42
-0.025582
  0
VERTEX
  8
0
 10
948.083479
 20
412.707232
 42
-0.033377
  0
VERTEX
  8
0
 10
949.444725
 20
413.225850
 42
-0.035312
  0
VERTEX
  8
0
 10
950.590388
 20
413.490096
 42
-0.179301
  0
VERTEX
  8
0
 10
951.221778
 20
413.362934
 42
-0.264333
  0
VERTEX
  8
0
 10
951.957099
 20
412.018146
 42
-0.003408
  0
VERTEX
  8
0
 10
951.724432
 20
402.026515
 42
-0.007393
  0
VERTEX
  8
0
 10
951.300954
 20
392.598018
 42
-0.076835
  0
VERTEX
  8
0
 10
950.482734
 20
388.815601
 42
-0.181404
  0
VERTEX
  8
0
 10
949.090315
 20
387.244931
 42
-0.009766
  0
VERTEX
  8
0
 10
943.055868
 20
384.202039
 42
-0.014307
  0
VERTEX
  8
0
 10
935.580368
 20
380.873535
 42
-0.010073
  0
VERTEX
  8
0
 10
927.000000
 20
377.544105
 42
0.002785
  0
VERTEX
  8
0
 10
923.887331
 20
376.388210
 42
0.002653
  0
VERTEX
  8
0
 10
920.736810
 20
375.179112
 42
0.002630
  0
VERTEX
  8
0
 10
917.964282
 20
374.081334
 42
0.009424
  0
VERTEX
  8
0
 10
916.210416
 20
373.337500
 42
-0.079576
  0
VERTEX
  8
0
 10
912.255493
 20
372.280541
 42
-0.339235
  0
VERTEX
  8
0
 10
910.304981
 20
373.481178
 42
-0.080268
  0
VERTEX
  8
0
 10
909.446253
 20
377.616966
 42
-0.003449
  0
VERTEX
  8
0
 10
908.885448
 20
392.511484
 42
-0.002342
  0
VERTEX
  8
0
 10
908.639907
 20
401.934869
 42
-0.001155
  0
VERTEX
  8
0
 10
908.411633
 20
413.913273
 42
-0.001146
  0
VERTEX
  8
0
 10
908.231944
 20
426.346798
 42
-0.001674
  0
VERTEX
  8
0
 10
908.135448
 20
437.299660
 42
0.005438
  0
VERTEX
  8
0
 10
907.813585
 20
456.999131
 42
0.067757
  0
VERTEX
  8
0
 10
906.607303
 20
464.356068
 42
0.171631
  0
VERTEX
  8
0
 10
903.674100
 20
468.314025
 42
0.078605
  0
VERTEX
  8
0
 10
897.770779
 20
471.065740
 42
0.103400
  0
VERTEX
  8
0
 10
894.595370
 20
471.298699
 42
0.061495
  0
VERTEX
  8
0
 10
890.911849
 20
470.335858
 42
0.060062
  0
VERTEX
  8
0
 10
887.466292
 20
468.460307
 42
0.083583
  0
VERTEX
  8
0
 10
884.987105
 20
465.981890
 42
0.123409
  0
VERTEX
  8
0
 10
883.784666
 20
462.910911
 42
0.022391
  0
VERTEX
  8
0
 10
883.274192
 20
456.763542
 42
0.008868
  0
VERTEX
  8
0
 10
883.040978
 20
445.298933
 42
0.000651
  0
VERTEX
  8
0
 10
883.000000
 20
413.818136
 42
-0.000877
  0
VERTEX
  8
0
 10
882.951083
 20
385.940502
 42
-0.006559
  0
VERTEX
  8
0
 10
882.731141
 20
372.713650
 42
-0.008770
  0
VERTEX
  8
0
 10
882.356116
 20
364.788249
 42
-0.137402
  0
VERTEX
  8
0
 10
881.465827
 20
362.254674
 42
-0.091271
  0
VERTEX
  8
0
 10
880.405961
 20
361.210905
 42
-0.031675
  0
VERTEX
  8
0
 10
878.550143
 20
360.117613
 42
-0.027359
  0
VERTEX
  8
0
 10
876.119790
 20
359.048726
 42
-0.017877
  0
VERTEX
  8
0
 10
873.215827
 20
358.073822
 42
-0.006702
  0
VERTEX
  8
0
 10
862.983265
 20
355.189594
 42
-0.005116
  0
VERTEX
  8
0
 10
851.712745
 20
352.298490
 42
-0.000904
  0
VERTEX
  8
0
 10
840.428659
 20
349.548270
 42
-0.261384
  0
VERTEX
  8
0
 10
839.533352
 20
349.799982
 42
-0.200956
  0
VERTEX
  8
0
 10
838.843826
 20
351.483324
 42
-0.001715
  0
VERTEX
  8
0
 10
839.005331
 20
365.788080
 42
-0.001470
  0
VERTEX
  8
0
 10
839.259942
 20
380.204190
 42
-0.254443
  0
VERTEX
  8
0
 10
840.000000
 20
381.500000
 42
-0.078409
  0
VERTEX
  8
0
 10
840.382303
 20
381.660320
 42
-0.156273
  0
VERTEX
  8
0
 10
840.706250
 20
381.637783
 42
-0.185219
  0
VERTEX
  8
0
 10
840.921041
 20
381.439369
 42
-0.115186
  0
VERTEX
  8
0
 10
841.000000
 20
381.101171
 42
0.257414
  0
VERTEX
  8
0
 10
841.841258
 20
379.575391
 42
0.023964
  0
VERTEX
  8
0
 10
845.718141
 20
377.380787
 42
0.029942
  0
VERTEX
  8
0
 10
849.959098
 20
375.551051
 42
0.087358
  0
VERTEX
  8
0
 10
853.087858
 20
375.003738
 42
0.075488
  0
VERTEX
  8
0
 10
856.186525
 20
375.477714
 42
0.052104
  0
VERTEX
  8
0
 10
859.451870
 20
376.883707
 42
0.052919
  0
VERTEX
  8
0
 10
862.287353
 20
378.892786
 42
0.089543
  0
VERTEX
  8
0
 10
864.089883
 20
381.167947
 42
0.080966
  0
VERTEX
  8
0
 10
864.912522
 20
383.571066
 42
0.046945
  0
VERTEX
  8
0
 10
865.139987
 20
386.622042
 42
0.046462
  0
VERTEX
  8
0
 10
864.791134
 20
389.716470
 42
0.070511
  0
VERTEX
  8
0
 10
863.874628
 20
392.259511
 42
0.044477
  0
VERTEX
  8
0
 10
861.360548
 20
396.133964
 42
0.025555
  0
VERTEX
  8
0
 10
857.705538
 20
400.338559
 42
0.024090
  0
VERTEX
  8
0
 10
853.306507
 20
404.485766
 42
0.023885
  0
VERTEX
  8
0
 10
848.516790
 20
408.203164
 42
-0.011590
  0
VERTEX
  8
0
 10
845.741509
 20
410.249830
 42
-0.013498
  0
VERTEX
  8
0
 10
843.204701
 20
412.324859
 42
-0.012531
  0
VERTEX
  8
0
 10
841.161177
 20
414.182016
 42
-0.075293
  0
VERTEX
  8
0
 10
840.285701
 20
415.315245
 42
-0.090487
  0
VERTEX
  8
0
 10
839.500804
 20
417.629424
 42
-0.021302
  0
VERTEX
  8
0
 10
839.075268
 20
421.709736
 42
-0.016517
  0
VERTEX
  8
0
 10
838.959695
 20
425.794442
 42
-0.197680
  0
VERTEX
  8
0
 10
839.554729
 20
427.221396
 42
-0.358551
  0
VERTEX
  8
0
 10
839.957022
 20
427.260482
 42
-0.014736
  0
VERTEX
  8
0
 10
841.224038
 20
426.353728
 42
-0.019853
  0
VERTEX
  8
0
 10
842.751179
 20
425.092474
 42
-0.012060
  0
VERTEX
  8
0
 10
844.458500
 20
423.488653
 42
0.066583
  0
VERTEX
  8
0
 10
849.629418
 20
419.595923
 42
0.117295
  0
VERTEX
  8
0
 10
854.743367
 20
418.131996
 42
0.130845
  0
VERTEX
  8
0
 10
859.579361
 20
419.187697
 42
0.094056
  0
VERTEX
  8
0
 10
863.958088
 20
422.605046
 42
0.067030
  0
VERTEX
  8
0
 10
865.909501
 20
425.540612
 42
0.074632
  0
VERTEX
  8
0
 10
866.926348
 20
428.783814
 42
0.076427
  0
VERTEX
  8
0
 10
866.933945
 20
432.116737
 42
0.075336
  0
VERTEX
  8
0
 10
865.942043
 20
435.315741
 42
0.073489
  0
VERTEX
  8
0
 10
865.027110
 20
436.659522
 42
0.004054
  0
VERTEX
  8
0
 10
861.539927
 20
440.383374
 42
0.006206
  0
VERTEX
  8
0
 10
857.285017
 20
444.744174
 42
0.004493
  0
VERTEX
  8
0
 10
852.441759
 20
449.500000
 42
0.000000
  0
VERTEX
  8
0
 10
839.999434
 20
461.500000
 42
0.000000
  0
VERTEX
  8
0
 10
839.356117
 20
468.750000
 42
-0.010342
  0
VERTEX
  8
0
 10
839.153546
 20
471.732394
 42
-0.022581
  0
VERTEX
  8
0
 10
839.149006
 20
474.023229
 42
-0.021964
  0
VERTEX
  8
0
 10
839.292778
 20
475.669830
 42
-0.376340
  0
VERTEX
  8
0
 10
839.669309
 20
476.000000
 42
-0.151134
  0
VERTEX
  8
0
 10
840.199188
 20
475.836090
 42
-0.017682
  0
VERTEX
  8
0
 10
841.207614
 20
475.092525
 42
-0.019923
  0
VERTEX
  8
0
 10
842.368221
 20
474.093820
 42
-0.015062
  0
VERTEX
  8
0
 10
843.562909
 20
472.910724
 42
0.055224
  0
VERTEX
  8
0
 10
847.820854
 20
469.322041
 42
0.085649
  0
VERTEX
  8
0
 10
852.200180
 20
467.371110
 42
0.095640
  0
VERTEX
  8
0
 10
856.616874
 20
467.116810
 42
0.086229
  0
VERTEX
  8
0
 10
860.988956
 20
468.494289
 42
0.098501
  0
VERTEX
  8
0
 10
864.701263
 20
471.457307
 42
0.116714
  0
VERTEX
  8
0
 10
866.723167
 20
475.453197
 42
0.115879
  0
VERTEX
  8
0
 10
866.747150
 20
479.954320
 42
0.096097
  0
VERTEX
  8
0
 10
864.801858
 20
484.345630
 42
0.027917
  0
VERTEX
  8
0
 10
863.386551
 20
486.152642
 42
0.003949
  0
VERTEX
  8
0
 10
860.241740
 20
489.679843
 42
0.004491
  0
VERTEX
  8
0
 10
856.446124
 20
493.795000
 42
0.003810
  0
VERTEX
  8
0
 10
852.364804
 20
498.075114
 42
-0.008164
  0
VERTEX
  8
0
 10
848.403497
 20
502.302467
 42
-0.011061
  0
VERTEX
  8
0
 10
844.974373
 20
506.256099
 42
-0.008201
  0
VERTEX
  8
0
 10
842.256984
 20
509.644424
 42
-0.110362
  0
VERTEX
  8
0
 10
841.583938
 20
511.075114
 42
-0.006629
  0
VERTEX
  8
0
 10
841.286746
 20
512.492901
 42
-0.001094
  0
VERTEX
  8
0
 10
840.755596
 20
515.237230
 42
-0.001202
  0
VERTEX
  8
0
 10
840.145584
 20
518.468474
 42
-0.001062
  0
VERTEX
  8
0
 10
839.525092
 20
521.838859
 42
0.004626
  0
VERTEX
  8
0
 10
838.899689
 20
525.104975
 42
0.006428
  0
VERTEX
  8
0
 10
838.274931
 20
528.017571
 42
0.004132
  0
VERTEX
  8
0
 10
837.700288
 20
530.445318
 42
0.078382
  0
VERTEX
  8
0
 10
837.399331
 20
531.162887
 42
-0.430920
  0
VERTEX
  8
0
 10
838.282616
 20
534.480911
 42
-0.026563
  0
VERTEX
  8
0
 10
848.548348
 20
539.361061
 42
-0.024466
  0
VERTEX
  8
0
 10
863.823430
 20
544.794099
 42
-0.011094
  0
VERTEX
  8
0
 10
884.282154
 20
550.469812
 42
-0.011537
  0
VERTEX
  8
0
 10
903.472758
 20
554.869293
 42
-0.020647
  0
VERTEX
  8
0
 10
919.438997
 20
557.462237
 42
-0.018271
  0
VERTEX
  8
0
 10
936.822869
 20
558.911378
 42
-0.007061
  0
VERTEX
  8
0
 10
961.000000
 20
559.697621
 42
0.002034
  0
VERTEX
  8
0
 10
976.203839
 20
560.039069
 42
0.008058
  0
VERTEX
  8
0
 10
985.542346
 20
560.437471
 42
0.009600
  0
VERTEX
  8
0
 10
991.733919
 20
560.921086
 42
0.093447
  0
VERTEX
  8
0
 10
994.246568
 20
561.653147
 42
0.237044
  0
VERTEX
  8
0
 10
998.002235
 20
566.745670
 42
0.033184
  0
VERTEX
  8
0
 10
999.396402
 20
580.154285
 42
0.009001
  0
VERTEX
  8
0
 10
999.932174
 20
607.972646
 42
0.000314
  0
VERTEX
  8
0
 10
1000.000000
 20
715.999679
 42
-0.000265
  0
VERTEX
  8
0
 10
1000.044404
 20
799.738714
 42
-0.002280
  0
VERTEX
  8
0
 10
1000.254697
 20
837.157617
 42
-0.000992
  0
VERTEX
  8
0
 10
1000.544811
 20
861.007377
 42
-0.219403
  0
VERTEX
  8
0
 10
1001.496377
 20
862.996993
 42
-0.172847
  0
VERTEX
  8
0
 10
1004.404977
 20
864.060077
 42
-0.014150
  0
VERTEX
  8
0
 10
1012.622952
 20
863.894082
 42
-0.012447
  0
VERTEX
  8
0
 10
1020.884996
 20
863.286662
 42
-0.231101
  0
VERTEX
  8
0
 10
1023.051533
 20
861.950858
 42
-0.140053
  0
VERTEX
  8
0
 10
1023.457185
 20
860.570172
 42
-0.000113
  0
VERTEX
  8
0
 10
1023.719045
 20
824.404888
 42
-0.001152
  0
VERTEX
  8
0
 10
1023.917369
 20
782.297202
 42
-0.000572
  0
VERTEX
  8
0
 10
1023.984687
 20
728.912871
 42
0.000480
  0
VERTEX
  8
0
 10
1024.082462
 20
638.060753
 42
0.006473
  0
VERTEX
  8
0
 10
1024.580533
 20
604.817282
 42
0.017809
  0
VERTEX
  8
0
 10
1025.750586
 20
586.428182
 42
0.052095
  0
VERTEX
  8
0
 10
1028.312033
 20
574.000000
 42
0.019571
  0
VERTEX
  8
0
 10
1031.114263
 20
566.238741
 42
0.009350
  0
VERTEX
  8
0
 10
1035.287184
 20
556.486673
 42
0.006995
  0
VERTEX
  8
0
 10
1041.161341
 20
543.911952
 42
0.002865
  0
VERTEX
  8
0
 10
1049.471728
 20
527.000000
 42
-0.007690
  0
VERTEX
  8
0
 10
1058.107498
 20
508.988836
 42
-0.013131
  0
VERTEX
  8
0
 10
1064.686534
 20
493.661236
 42
-0.014008
  0
VERTEX
  8
0
 10
1070.157265
 20
478.728470
 42
-0.010483
  0
VERTEX
  8
0
 10
1075.372210
 20
462.000000
 42
-0.020189
  0
VERTEX
  8
0
 10
1079.971257
 20
443.275961
 42
-0.017502
  0
VERTEX
  8
0
 10
1083.302423
 20
423.329785
 42
-0.016904
  0
VERTEX
  8
0
 10
1085.325185
 20
402.471406
 42
-0.015718
  0
VERTEX
  8
0
 10
1086.000000
 20
381.010836
 42
-0.020667
  0
VERTEX
  8
0
 10
1084.788895
 20
351.722562
 42
-0.025799
  0
VERTEX
  8
0
 10
1081.146208
 20
324.750583
 42
-0.026146
  0
VERTEX
  8
0
 10
1074.798326
 20
298.596807
 42
-0.022256
  0
VERTEX
  8
0
 10
1065.463361
 20
271.772318
 42
-0.029768
  0
VERTEX
  8
0
 10
1049.278590
 20
237.296678
 42
-0.032763
  0
VERTEX
  8
0
 10
1029.563819
 20
206.124333
 42
-0.034079
  0
VERTEX
  8
0
 10
1006.766626
 20
178.924666
 42
-0.038732
  0
VERTEX
  8
0
 10
981.377463
 20
156.309819
 42
-0.022052
  0
VERTEX
  8
0
 10
958.573814
 20
140.502341
 42
-0.030208
  0
VERTEX
  8
0
 10
936.682007
 20
128.495747
 42
-0.031130
  0
VERTEX
  8
0
 10
914.040686
 20
119.478343
 42
-0.025813
  0
VERTEX
  8
0
 10
889.000000
 20
112.678420
 42
-0.009510
  0
VERTEX
  8
0
 10
875.459590
 20
110.010714
 42
-0.020214
  0
VERTEX
  8
0
 10
864.879232
 20
108.572708
 42
-0.018363
  0
VERTEX
  8
0
 10
853.604212
 20
107.918678
 42
-0.006574
  0
VERTEX
  8
0
 10
837.500000
 20
107.788662
 42
-0.008113
  0
VERTEX
  8
0
 10
820.746421
 20
108.145580
 42
-0.013218
  0
VERTEX
  8
0
 10
806.555253
 20
109.054508
 42
-0.014503
  0
VERTEX
  8
0
 10
793.435934
 20
110.628453
 42
-0.013158
  0
VERTEX
  8
0
 10
779.994144
 20
113.001193
 42
-0.005113
  0
VERTEX
  8
0
 10
770.837586
 20
114.964918
 42
-0.011413
  0
VERTEX
  8
0
 10
763.926978
 20
116.687680
 42
-0.007758
  0
VERTEX
  8
0
 10
755.668078
 20
119.086299
 42
-0.001316
  0
VERTEX
  8
0
 10
740.000000
 20
123.946743
 42
-0.021003
  0
VERTEX
  8
0
 10
734.125200
 20
126.060851
 42
-0.005040
  0
VERTEX
  8
0
 10
724.571151
 20
130.072246
 42
-0.005445
  0
VERTEX
  8
0
 10
714.767086
 20
134.432651
 42
-0.012057
  0
VERTEX
  8
0
 10
707.410648
 20
138.017912
 42
-0.014698
  0
VERTEX
  8
0
 10
698.853429
 20
142.770762
 42
-0.013130
  0
VERTEX
  8
0
 10
690.256137
 20
148.192585
 42
-0.009730
  0
VERTEX
  8
0
 10
679.910797
 20
155.397976
 42
-0.003524
  0
VERTEX
  8
0
 10
665.500000
 20
166.013016
 42
0.006060
  0
VERTEX
  8
0
 10
648.597684
 20
178.331578
 42
0.025326
  0
VERTEX
  8
0
 10
637.980966
 20
185.092277
 42
0.034722
  0
VERTEX
  8
0
 10
628.452667
 20
189.659521
 42
0.019549
  0
VERTEX
  8
0
 10
616.349301
 20
193.920091
 42
0.035916
  0
VERTEX
  8
0
 10
597.561150
 20
198.271181
 42
0.036704
  0
VERTEX
  8
0
 10
578.480428
 20
199.846977
 42
0.036734
  0
VERTEX
  8
0
 10
559.388814
 20
198.615562
 42
0.036098
  0
VERTEX
  8
0
 10
540.568190
 20
194.603893
 42
0.030089
  0
VERTEX
  8
0
 10
528.368118
 20
190.256208
 42
0.030666
  0
VERTEX
  8
0
 10
516.858066
 20
184.498896
 42
0.024863
  0
VERTEX
  8
0
 10
504.264074
 20
176.340391
 42
0.011110
  0
VERTEX
  8
0
 10
488.500000
 20
164.436695
 42
-0.021123
  0
VERTEX
  8
0
 10
469.584256
 20
150.739006
 42
-0.022399
  0
VERTEX
  8
0
 10
449.938044
 20
138.970086
 42
-0.022584
  0
VERTEX
  8
0
 10
429.474506
 20
129.090994
 42
-0.022283
  0
VERTEX
  8
0
 10
408.112737
 20
121.049214
 42
-0.004747
  0
VERTEX
  8
0
 10
393.049159
 20
116.290384
 42
-0.015976
  0
VERTEX
  8
0
 10
383.073282
 20
113.587915
 42
-0.016975
  0
VERTEX
  8
0
 10
373.258675
 20
111.612142
 42
-0.005906
  0
VERTEX
  8
0
 10
359.000000
 20
109.414917
 42
-0.027145
  0
VERTEX
  8
0
 10
346.246636
 20
108.305048
 42
-0.006731
  0
VERTEX
  8
0
 10
325.270784
 20
107.904999
 42
-0.006624
  0
VERTEX
  8
0
 10
304.336111
 20
108.064926
 42
-0.028969
  0
VERTEX
  8
0
 10
292.000000
 20
109.039143
 42
-0.023774
  0
VERTEX
  8
0
 10
260.999949
 20
114.817102
 42
-0.035173
  0
VERTEX
  8
0
 10
234.608222
 20
123.042563
 42
-0.036103
  0
VERTEX
  8
0
 10
210.142381
 20
134.698948
 42
-0.026991
  0
VERTEX
  8
0
 10
185.000000
 20
150.841527
 42
-0.028902
  0
VERTEX
  8
0
 10
171.874364
 20
161.510552
 42
-0.012559
  0
VERTEX
  8
0
 10
155.656277
 20
177.093398
 42
-0.012472
  0
VERTEX
  8
0
 10
140.369873
 20
193.328459
 42
-0.032029
  0
VERTEX
  8
0
 10
130.406307
 20
205.999873
 42
-0.016506
  0
VERTEX
  8
0
 10
115.458129
 20
229.357704
 42
-0.022057
  0
VERTEX
  8
0
 10
103.565927
 20
251.537061
 42
-0.022639
  0
VERTEX
  8
0
 10
93.909301
 20
274.200190
 42
-0.018996
  0
VERTEX
  8
0
 10
85.703604
 20
299.000000
 42
-0.002774
  0
VERTEX
  8
0
 10
84.153905
 20
304.471493
 42
-0.005051
  0
VERTEX
  8
0
 10
82.958204
 20
308.959851
 42
-0.004267
  0
VERTEX
  8
0
 10
81.728944
 20
313.945940
 42
-0.001430
  0
VERTEX
  8
0
 10
80.016264
 20
321.250000
 42
-0.026836
  0
VERTEX
  8
0
 10
76.710169
 20
340.080270
 42
-0.014886
  0
VERTEX
  8
0
 10
74.604473
 20
363.316956
 42
-0.014886
  0
VERTEX
  8
0
 10
73.893930
 20
386.354136
 42
-0.030188
  0
VERTEX
  8
0
 10
74.968041
 20
404.448101
 42
0.000076
  0
VERTEX
  8
0
 10
75.450277
 20
408.464339
 42
0.000028
  0
VERTEX
  8
0
 10
76.125817
 20
414.100380
 42
0.000028
  0
VERTEX
  8
0
 10
76.861172
 20
420.241308
 42
0.000034
  0
VERTEX
  8
0
 10
77.550031
 20
426.000000
 42
-0.002945
  0
VERTEX
  8
0
 10
78.670089
 20
434.922659
 42
-0.010788
  0
VERTEX
  8
0
 10
79.534560
 20
440.553275
 42
-0.011081
  0
VERTEX
  8
0
 10
80.629774
 20
446.067158
 42
-0.003234
  0
VERTEX
  8
0
 10
82.557225
 20
454.500000
 42
-0.023796
  0
VERTEX
  8
0
 10
87.118758
 20
470.437773
 42
-0.014572
  0
VERTEX
  8
0
 10
93.924292
 20
488.769040
 42
-0.011400
  0
VERTEX
  8
0
 10
103.543344
 20
511.057642
 42
-0.005326
  0
VERTEX
  8
0
 10
116.963731
 20
539.500000
 42
0.001027
  0
VERTEX
  8
0
 10
119.682085
 20
545.135063
 42
0.001205
  0
VERTEX
  8
0
 10
122.235453
 20
550.489063
 42
0.001059
  0
VERTEX
  8
0
 10
124.372894
 20
555.023663
 42
0.007442
  0
VERTEX
  8
0
 10
125.376409
 20
557.250000
 42
-0.000106
  0
VERTEX
  8
0
 10
126.100861
 20
558.922287
 42
-0.000069
  0
VERTEX
  8
0
 10
126.938126
 20
560.853125
 42
-0.000070
  0
VERTEX
  8
0
 10
127.755452
 20
562.736547
 42
-0.000133
  0
VERTEX
  8
0
 10
128.412956
 20
564.250000
 42
0.023781
  0
VERTEX
  8
0
 10
129.993838
 20
568.417695
 42
0.011373
  0
VERTEX
  8
0
 10
131.644272
 20
573.903282
 42
0.011282
  0
VERTEX
  8
0
 10
133.102604
 20
579.688267
 42
0.016459
  0
VERTEX
  8
0
 10
134.102898
 20
584.848691
 42
0.036732
  0
VERTEX
  8
0
 10
134.479516
 20
589.262594
 42
0.000235
  0
VERTEX
  8
0
 10
134.921314
 20
628.643053
 42
0.000949
  0
VERTEX
  8
0
 10
135.319654
 20
673.653816
 42
0.000606
  0
VERTEX
  8
0
 10
135.620108
 20
726.000000
 42
-0.000499
  0
VERTEX
  8
0
 10
135.946533
 20
785.054873
 42
-0.001328
  0
VERTEX
  8
0
 10
136.333794
 20
827.224270
 42
-0.000156
  0
VERTEX
  8
0
 10
136.748923
 20
861.385288
 42
-0.167798
  0
VERTEX
  8
0
 10
137.239303
 20
862.750000
 42
-0.216036
  0
VERTEX
  8
0
 10
139.666356
 20
863.976164
 42
-0.014361
  0
VERTEX
  8
0
 10
147.669252
 20
864.084626
 42
-0.015537
  0
VERTEX
  8
0
 10
155.630906
 20
863.716227
 42
-0.178895
  0
SEQEND
  0
POLYLINE
  8
0
 66
1
 70
1
  0
VERTEX
  8
0
 10
366.081430
 20
515.691157
 42
-0.020430
  0
VERTEX
  8
0
 10
384.272167
 20
505.917670
 42
-0.014307
  0
VERTEX
  8
0
 10
403.956664
 20
493.508082
 42
-0.014035
  0
VERTEX
  8
0
 10
423.427635
 20
479.631960
 42
-0.016598
  0
VERTEX
  8
0
 10
441.000000
 20
465.409315
 42
-0.021867
  0
VERTEX
  8
0
 10
460.068517
 20
447.381498
 42
-0.021328
  0
VERTEX
  8
0
 10
477.656615
 20
427.611907
 42
-0.022271
  0
VERTEX
  8
0
 10
492.621957
 20
407.507115
 42
-0.032700
  0
VERTEX
  8
0
 10
503.757928
 20
388.500000
 42
-0.015909
  0
VERTEX
  8
0
 10
510.887010
 20
373.068922
 42
-0.020079
  0
VERTEX
  8
0
 10
516.438689
 20
358.356056
 42
-0.014308
  0
VERTEX
  8
0
 10
520.129852
 20
346.078665
 42
-0.493655
  0
VERTEX
  8
0
 10
518.537540
 20
344.000000
 42
-0.157888
  0
VERTEX
  8
0
 10
516.322697
 20
344.717277
 42
-0.010934
  0
VERTEX
  8
0
 10
511.023416
 20
348.731197
 42
-0.013263
  0
VERTEX
  8
0
 10
504.362857
 20
354.303176
 42
-0.006598
  0
VERTEX
  8
0
 10
496.209463
 20
361.693751
 42
0.000980
  0
VERTEX
  8
0
 10
491.834339
 20
365.750018
 42
0.001052
  0
VERTEX
  8
0
 10
487.544342
 20
369.695059
 42
0.000995
  0
VERTEX
  8
0
 10
483.845143
 20
373.068969
 42
0.004980
  0
VERTEX
  8
0
 10
481.750000
 20
374.934510
 42
0.000000
  0
VERTEX
  8
0
 10
478.000000
 20
378.207184
 42
0.000000
  0
VERTEX
  8
0
 10
478.000000
 20
387.153252
 42
0.021019
  0
VERTEX
  8
0
 10
477.716656
 20
393.890325
 42
0.069605
  0
VERTEX
  8
0
 10
476.737039
 20
398.209150
 42
0.096600
  0
VERTEX
  8
0
 10
474.824699
 20
401.296028
 42
0.067598
  0
VERTEX
  8
0
 10
471.656210
 20
403.903457
 42
0.092223
  0
VERTEX
  8
0
 10
467.024552
 20
405.698032
 42
0.099890
  0
VERTEX
  8
0
 10
462.192379
 20
405.633292
 42
0.098445
  0
VERTEX
  8
0
 10
457.708796
 20
403.691121
 42
0.086966
  0
VERTEX
  8
0
 10
454.078838
 20
400.110718
 42
0.058828
  0
VERTEX
  8
0
 10
452.991186
 20
398.125711
 42
0.056177
  0
VERTEX
  8
0
 10
452.374673
 20
395.911006
 42
0.032899
  0
VERTEX
  8
0
 10
452.077194
 20
392.738341
 42
0.006929
  0
VERTEX
  8
0
 10
452.000000
 20
387.168433
 42
0.000000
  0
VERTEX
  8
0
 10
452.000000
 20
377.145608
 42
0.000000
  0
VERTEX
  8
0
 10
448.541862
 20
374.295119
 42
0.088743
  0
VERTEX
  8
0
 10
444.093412
 20
369.060651
 42
0.116677
  0
VERTEX
  8
0
 10
442.276314
 20
363.082317
 42
0.122452
  0
VERTEX
  8
0
 10
443.363293
 20
357.139984
 42
0.104259
  0
VERTEX
  8
0
 10
447.139691
 20
351.986359
 42
0.000000
  0
VERTEX
  8
0
 10
451.195031
 20
348.352412
 42
0.000000
  0
VERTEX
  8
0
 10
450.847515
 20
333.757972
 42
-0.004078
  0
VERTEX
  8
0
 10
450.667157
 20
328.117040
 42
-0.006348
  0
VERTEX
  8
0
 10
450.410369
 20
323.259395
 42
-0.002301
  0
VERTEX
  8
0
 10
450.118449
 20
319.102537
 42
-0.179875
  0
VERTEX
  8
0
 10
449.847356
 20
318.512455
 42
-0.202790
  0
VERTEX
  8
0
 10
449.365051
 20
318.317552
 42
-0.020764
  0
VERTEX
  8
0
 10
448.109391
 20
318.390000
 42
-0.023282
  0
VERTEX
  8
0
 10
446.560174
 20
318.617349
 42
-0.016505
  0
VERTEX
  8
0
 10
444.847356
 20
319.009862
 42
0.000277
  0
VERTEX
  8
0
 10
442.892385
 20
319.525168
 42
0.000173
  0
VERTEX
  8
0
 10
440.602036
 20
320.126674
 42
0.000173
  0
VERTEX
  8
0
 10
438.344635
 20
320.717856
 42
0.000316
  0
VERTEX
  8
0
 10
436.500000
 20
321.199013
 42
-0.013148
  0
VERTEX
  8
0
 10
432.353208
 20
322.395121
 42
-0.013639
  0
VERTEX
  8
0
 10
428.325910
 20
323.794356
 42
-0.012649
  0
VERTEX
  8
0
 10
424.929102
 20
325.178585
 42
-0.069744
  0
VERTEX
  8
0
 10
423.250000
 20
326.211570
 42
-0.172707
  0
VERTEX
  8
0
 10
422.670553
 20
327.182697
 42
-0.022559
  0
VERTEX
  8
0
 10
422.303113
 20
329.600484
 42
-0.019331
  0
VERTEX
  8
0
 10
422.069834
 20
333.074299
 42
-0.007099
  0
VERTEX
  8
0
 10
422.000000
 20
337.992392
 42
0.000000
  0
VERTEX
  8
0
 10
422.000000
 20
348.739895
 42
0.000000
  0
VERTEX
  8
0
 10
426.717559
 20
349.271632
 42
0.076393
  0
VERTEX
  8
0
 10
430.980797
 20
350.427370
 42
0.100923
  0
VERTEX
  8
0
 10
434.251946
 20
352.754713
 42
0.103917
  0
VERTEX
  8
0
 10
436.286928
 20
356.117817
 42
0.085343
  0
VERTEX
  8
0
 10
436.985258
 20
360.265777
 42
0.047080
  0
VERTEX
  8
0
 10
436.609766
 20
364.101893
 42
0.081807
  0
VERTEX
  8
0
 10
435.500647
 20
367.094605
 42
0.075406
  0
VERTEX
  8
0
 10
433.416674
 20
369.732131
 42
0.034749
  0
VERTEX
  8
0
 10
430.011576
 20
372.497600
 42
-0.037117
  0
VERTEX
  8
0
 10
426.848396
 20
375.091520
 42
-0.045686
  0
VERTEX
  8
0
 10
424.337180
 20
377.963690
 42
-0.046454
  0
VERTEX
  8
0
 10
422.421052
 20
381.201996
 42
-0.040562
  0
VERTEX
  8
0
 10
421.032397
 20
384.887039
 42
0.000000
  0
VERTEX
  8
0
 10
420.161476
 20
387.923763
 42
0.000000
  0
VERTEX
  8
0
 10
424.427072
 20
387.838143
 42
0.057669
  0
VERTEX
  8
0
 10
427.854975
 20
388.165265
 42
0.073116
  0
VERTEX
  8
0
 10
430.832821
 20
389.273656
 42
0.078669
  0
VERTEX
  8
0
 10
433.200011
 20
391.108234
 42
0.081919
  0
VERTEX
  8
0
 10
434.845874
 20
393.561076
 42
0.098323
  0
VERTEX
  8
0
 10
435.886767
 20
397.976539
 42
0.116807
  0
VERTEX
  8
0
 10
435.050091
 20
402.167142
 42
0.077654
  0
VERTEX
  8
0
 10
432.008140
 20
406.763676
 42
0.023914
  0
VERTEX
  8
0
 10
426.101827
 20
412.645970
 42
-0.019682
  0
VERTEX
  8
0
 10
423.551977
 20
415.142840
 42
-0.015960
  0
VERTEX
  8
0
 10
421.014729
 20
418.008894
 42
-0.016252
  0
VERTEX
  8
0
 10
418.843795
 20
420.804940
 42
-0.039690
  0
VERTEX
  8
0
 10
417.485731
 20
423.028159
 42
0.023057
  0
VERTEX
  8
0
 10
416.363776
 20
425.010014
 42
0.018991
  0
VERTEX
  8
0
 10
414.993274
 20
427.016655
 42
0.019403
  0
VERTEX
  8
0
 10
413.591472
 20
428.764419
 42
0.047407
  0
VERTEX
  8
0
 10
412.398286
 20
429.901348
 42
0.088412
  0
VERTEX
  8
0
 10
409.790133
 20
431.293014
 42
0.061844
  0
VERTEX
  8
0
 10
406.510817
 20
431.924563
 42
0.060346
  0
VERTEX
  8
0
 10
403.085079
 20
431.740015
 42
0.073660
  0
VERTEX
  8
0
 10
400.042696
 20
430.727011
 42
0.089348
  0
VERTEX
  8
0
 10
397.671037
 20
428.936403
 42
0.030824
  0
VERTEX
  8
0
 10
394.945631
 20
425.595275
 42
0.029590
  0
VERTEX
  8
0
 10
392.687125
 20
422.020443
 42
0.122378
  0
VERTEX
  8
0
 10
392.033221
 20
419.569796
 42
-0.156552
  0
VERTEX
  8
0
 10
391.651982
 20
418.448705
 42
-0.012397
  0
VERTEX
  8
0
 10
389.693494
 20
415.941667
 42
-0.015845
  0
VERTEX
  8
0
 10
387.134420
 20
413.021837
 42
-0.011371
  0
VERTEX
  8
0
 10
384.101298
 20
409.919245
 42
0.017216
  0
VERTEX
  8
0
 10
378.656678
 20
404.218114
 42
0.076139
  0
VERTEX
  8
0
 10
376.136305
 20
400.337218
 42
0.116476
  0
VERTEX
  8
0
 10
375.438902
 20
396.751266
 42
0.069052
  0
VERTEX
  8
0
 10
376.212794
 20
392.442358
 42
0.037537
  0
VERTEX
  8
0
 10
377.032364
 20
390.452118
 42
0.063257
  0
VERTEX
  8
0
 10
378.038509
 20
388.955948
 42
0.062904
  0
VERTEX
  8
0
 10
379.391037
 20
387.753341
 42
0.036687
  0
VERTEX
  8
0
 10
381.268718
 20
386.658700
 42
0.035576
  0
VERTEX
  8
0
 10
383.818239
 20
385.630490
 42
0.097586
  0
VERTEX
  8
0
 10
385.737089
 20
385.403658
 42
0.066588
  0
VERTEX
  8
0
 10
387.999402
 20
385.885541
 42
0.010555
  0
VERTEX
  8
0
 10
392.250000
 20
387.504706
 42
-0.048699
  0
VERTEX
  8
0
 10
393.062327
 20
387.745120
 42
-0.172237
  0
VERTEX
  8
0
 10
393.592010
 20
387.664684
 42
-0.202781
  0
VERTEX
  8
0
 10
393.899531
 20
387.283485
 42
-0.069786
  0
VERTEX
  8
0
 10
394.000000
 20
386.567151
 42
-0.109792
  0
VERTEX
  8
0
 10
393.363100
 20
383.701641
 42
-0.038261
  0
VERTEX
  8
0
 10
391.273064
 20
379.999141
 42
-0.033285
  0
VERTEX
  8
0
 10
388.102305
 20
375.887677
 42
-0.023365
  0
VERTEX
  8
0
 10
384.031097
 20
371.690768
 42
0.024896
  0
VERTEX
  8
0
 10
379.638275
 20
367.134498
 42
0.056053
  0
VERTEX
  8
0
 10
376.911280
 20
363.194001
 42
0.075568
  0
VERTEX
  8
0
 10
375.624687
 20
359.585877
 42
0.097576
  0
VERTEX
  8
0
 10
375.634722
 20
356.076390
 42
0.107600
  0
VERTEX
  8
0
 10
377.400294
 20
352.033767
 42
0.105577
  0
VERTEX
  8
0
 10
380.696523
 20
349.058441
 42
0.091474
  0
VERTEX
  8
0
 10
385.345662
 20
347.406231
 42
0.061274
  0
VERTEX
  8
0
 10
391.000000
 20
347.199059
 42
0.000000
  0
VERTEX
  8
0
 10
394.500000
 20
347.500000
 42
0.000000
  0
VERTEX
  8
0
 10
394.792337
 20
339.734861
 42
-0.008705
  0
VERTEX
  8
0
 10
394.868336
 20
335.976576
 42
-0.031613
  0
VERTEX
  8
0
 10
394.724182
 20
333.592671
 42
-0.051603
  0
VERTEX
  8
0
 10
394.380236
 20
332.101665
 42
-0.222192
  0
VERTEX
  8
0
 10
393.764715
 20
331.463207
 42
-0.152491
  0
VERTEX
  8
0
 10
391.766612
 20
331.335639
 42
-0.000690
  0
VERTEX
  8
0
 10
371.011380
 20
336.420773
 42
-0.001518
  0
VERTEX
  8
0
 10
351.200743
 20
341.367294
 42
-0.060994
  0
VERTEX
  8
0
 10
347.037345
 20
342.980014
 42
-0.212108
  0
VERTEX
  8
0
 10
346.056853
 20
344.239774
 42
-0.034391
  0
VERTEX
  8
0
 10
345.504777
 20
347.369496
 42
-0.016848
  0
VERTEX
  8
0
 10
345.099574
 20
352.975694
 42
-0.002116
  0
VERTEX
  8
0
 10
344.683102
 20
365.139029
 42
-0.001529
  0
VERTEX
  8
0
 10
344.463039
 20
373.306636
 42
-0.002491
  0
VERTEX
  8
0
 10
344.332029
 20
380.238874
 42
-0.000344
  0
VERTEX
  8
0
 10
344.250649
 20
386.391253
 42
-0.202173
  0
VERTEX
  8
0
 10
344.382864
 20
386.716198
 42
-0.332648
  0
VERTEX
  8
0
 10
344.659982
 20
386.756135
 42
-0.005084
  0
VERTEX
  8
0
 10
346.160308
 20
385.918289
 42
-0.011280
  0
VERTEX
  8
0
 10
347.927050
 20
384.854375
 42
-0.006938
  0
VERTEX
  8
0
 10
349.960443
 20
383.526620
 42
0.049142
  0
VERTEX
  8
0
 10
354.979416
 20
380.822840
 42
0.093181
  0
VERTEX
  8
0
 10
359.454328
 20
379.868557
 42
0.106652
  0
VERTEX
  8
0
 10
363.558508
 20
380.650307
 42
0.080124
  0
VERTEX
  8
0
 10
367.462940
 20
383.101605
 42
0.121123
  0
VERTEX
  8
0
 10
371.444515
 20
388.808181
 42
0.185519
  0
VERTEX
  8
0
 10
371.451992
 20
394.768964
 42
0.111332
  0
VERTEX
  8
0
 10
366.994139
 20
401.465032
 42
0.031239
  0
VERTEX
  8
0
 10
357.317734
 20
409.602579
 42
-0.021978
  0
VERTEX
  8
0
 10
351.838153
 20
414.040213
 42
-0.057581
  0
VERTEX
  8
0
 10
348.463129
 20
417.803239
 42
-0.077911
  0
VERTEX
  8
0
 10
346.635260
 20
421.487449
 42
-0.076179
  0
VERTEX
  8
0
 10
346.003738
 20
425.583333
 42
-0.017539
  0
VERTEX
  8
0
 10
346.119388
 20
428.967678
 42
-0.199594
  0
VERTEX
  8
0
 10
346.704693
 20
430.139475
 42
-0.379810
  0
VERTEX
  8
0
 10
347.649477
 20
430.127743
 42
-0.041499
  0
VERTEX
  8
0
 10
349.257323
 20
428.399997
 42
0.079416
  0
VERTEX
  8
0
 10
354.072595
 20
423.951907
 42
0.090898
  0
VERTEX
  8
0
 10
359.823436
 20
421.479822
 42
0.100038
  0
VERTEX
  8
0
 10
365.623889
 20
421.333196
 42
0.119936
  0
VERTEX
  8
0
 10
370.613871
 20
423.519056
 42
0.140430
  0
VERTEX
  8
0
 10
374.092285
 20
428.189398
 42
0.165678
  0
VERTEX
  8
0
 10
374.271894
 20
433.672041
 42
0.104364
  0
VERTEX
  8
0
 10
370.737473
 20
440.086746
 42
0.037398
  0
VERTEX
  8
0
 10
363.310586
 20
447.499691
 42
-0.003683
  0
VERTEX
  8
0
 10
360.320064
 20
450.107093
 42
-0.002515
  0
VERTEX
  8
0
 10
356.958422
 20
453.112223
 42
-0.002534
  0
VERTEX
  8
0
 10
353.746187
 20
456.042682
 42
-0.005112
  0
VERTEX
  8
0
 10
351.250000
 20
458.390844
 42
-0.011158
  0
VERTEX
  8
0
 10
347.923259
 20
461.730865
 42
-0.081934
  0
VERTEX
  8
0
 10
346.659396
 20
463.587840
 42
-0.092627
  0
VERTEX
  8
0
 10
346.131027
 20
465.662646
 42
-0.016159
  0
VERTEX
  8
0
 10
346.000000
 20
469.715840
 42
-0.007597
  0
VERTEX
  8
0
 10
346.036613
 20
472.125358
 42
-0.012613
  0
VERTEX
  8
0
 10
346.149549
 20
474.154028
 42
-0.006230
  0
VERTEX
  8
0
 10
346.305106
 20
475.816514
 42
-0.383566
  0
VERTEX
  8
0
 10
346.509102
 20
476.000000
 42
-0.166090
  0
VERTEX
  8
0
 10
346.824108
 20
475.892393
 42
-0.006958
  0
VERTEX
  8
0
 10
347.764466
 20
475.143914
 42
-0.011367
  0
VERTEX
  8
0
 10
348.862357
 20
474.202313
 42
-0.007769
  0
VERTEX
  8
0
 10
350.067775
 20
473.085665
 42
0.074099
  0
VERTEX
  8
0
 10
353.554167
 20
470.623971
 42
0.054595
  0
VERTEX
  8
0
 10
357.988042
 20
468.966218
 42
0.056398
  0
VERTEX
  8
0
 10
362.466061
 20
468.353268
 42
0.104391
  0
VERTEX
  8
0
 10
366.058937
 20
469.024413
 42
0.076587
  0
VERTEX
  8
0
 10
368.726884
 20
470.643946
 42
0.064113
  0
VERTEX
  8
0
 10
370.972701
 20
473.082411
 42
0.065522
  0
VERTEX
  8
0
 10
372.484885
 20
475.949232
 42
0.088865
  0
VERTEX
  8
0
 10
373.000000
 20
478.824641
 42
0.116517
  0
VERTEX
  8
0
 10
372.512058
 20
480.890080
 42
0.042686
  0
VERTEX
  8
0
 10
370.935360
 20
483.465811
 42
0.023879
  0
VERTEX
  8
0
 10
367.970779
 20
487.114162
 42
0.005050
  0
VERTEX
  8
0
 10
362.438630
 20
493.170271
 42
-0.004277
  0
VERTEX
  8
0
 10
358.195201
 20
497.801218
 42
-0.004748
  0
VERTEX
  8
0
 10
354.178417
 20
502.346892
 42
-0.004409
  0
VERTEX
  8
0
 10
350.824354
 20
506.285656
 42
-0.024529
  0
VERTEX
  8
0
 10
349.149614
 20
508.500000
 42
-0.043648
  0
VERTEX
  8
0
 10
347.386365
 20
511.643101
 42
-0.021473
  0
VERTEX
  8
0
 10
345.679972
 20
515.902228
 42
-0.020953
  0
VERTEX
  8
0
 10
344.382494
 20
520.153457
 42
-0.063666
  0
VERTEX
  8
0
 10
344.000000
 20
523.145194
 42
-0.464954
  0
VERTEX
  8
0
 10
345.128164
 20
524.096120
 42
-0.038888
  0
VERTEX
  8
0
 10
349.343658
 20
523.029505
 42
-0.024589
  0
VERTEX
  8
0
 10
356.021403
 20
520.403065
 42
-0.007068
  0
SEQEND
  0
POLYLINE
  8
0
 66
1
 70
1
  0
VERTEX
  8
0
 10
813.225924
 20
519.000000
 42
-0.075547
  0
VERTEX
  8
0
 10
812.073875
 20
514.056455
 42
-0.042481
  0
VERTEX
  8
0
 10
809.305621
 20
508.534090
 42
-0.035566
  0
VERTEX
  8
0
 10
805.021653
 20
502.542052
 42
-0.022376
  0
VERTEX
  8
0
 10
799.237848
 20
496.163441
 42
0.004058
  0
VERTEX
  8
0
 10
795.890213
 20
492.732853
 42
0.004320
  0
VERTEX
  8
0
 10
792.668565
 20
489.318758
 42
0.004115
  0
VERTEX
  8
0
 10
789.946881
 20
486.335227
 42
0.019928
  0
VERTEX
  8
0
 10
788.484869
 20
484.569050
 42
0.073527
  0
VERTEX
  8
0
 10
786.631064
 20
481.214167
 42
0.091158
  0
VERTEX
  8
0
 10
786.006701
 20
477.707633
 42
0.093228
  0
VERTEX
  8
0
 10
786.673337
 20
474.269558
 42
0.080691
  0
VERTEX
  8
0
 10
788.560281
 20
471.110730
 42
0.121016
  0
VERTEX
  8
0
 10
792.691880
 20
468.095598
 42
0.122879
  0
VERTEX
  8
0
 10
797.725934
 20
467.360305
 42
0.100547
  0
VERTEX
  8
0
 10
803.317941
 20
469.089595
 42
0.060025
  0
VERTEX
  8
0
 10
809.004814
 20
473.151578
 42
-0.008784
  0
VERTEX
  8
0
 10
810.262650
 20
474.260537
 42
-0.014544
  0
VERTEX
  8
0
 10
811.366656
 20
475.145886
 42
-0.008198
  0
VERTEX
  8
0
 10
812.294271
 20
475.822850
 42
-0.375425
  0
VERTEX
  8
0
 10
812.511739
 20
475.800098
 42
-0.195804
  0
VERTEX
  8
0
 10
812.613556
 20
475.530868
 42
-0.002000
  0
VERTEX
  8
0
 10
812.553215
 20
473.462168
 42
-0.006076
  0
VERTEX
  8
0
 10
812.444222
 20
471.058451
 42
-0.003862
  0
VERTEX
  8
0
 10
812.261705
 20
468.262602
 42
0.000000
  0
VERTEX
  8
0
 10
811.733068
 20
461.025203
 42
0.000000
  0
VERTEX
  8
0
 10
806.420365
 20
456.651495
 42
0.006738
  0
VERTEX
  8
0
 10
798.729764
 20
450.144336
 42
0.010357
  0
VERTEX
  8
0
 10
792.269093
 20
444.287379
 42
0.009470
  0
VERTEX
  8
0
 10
787.279296
 20
439.389735
 42
0.074670
  0
VERTEX
  8
0
 10
785.382702
 20
436.770476
 42
0.099955
  0
VERTEX
  8
0
 10
784.481716
 20
433.618281
 42
0.062252
  0
VERTEX
  8
0
 10
784.655945
 20
429.765035
 42
0.062355
  0
VERTEX
  8
0
 10
785.771532
 20
426.081510
 42
0.101537
  0
VERTEX
  8
0
 10
787.665490
 20
423.434209
 42
0.103164
  0
VERTEX
  8
0
 10
790.519613
 20
421.716341
 42
0.051861
  0
VERTEX
  8
0
 10
794.630378
 20
420.742647
 42
0.051785
  0
VERTEX
  8
0
 10
798.868597
 20
420.634673
 42
0.100143
  0
VERTEX
  8
0
 10
802.116688
 20
421.560342
 42
0.038201
  0
VERTEX
  8
0
 10
803.312342
 20
422.299362
 42
0.018185
  0
VERTEX
  8
0
 10
804.735177
 20
423.418168
 42
0.017907
  0
VERTEX
  8
0
 10
806.144852
 20
424.701507
 42
0.024245
  0
VERTEX
  8
0
 10
807.316324
 20
425.964083
 42
-0.024887
  0
VERTEX
  8
0
 10
810.043746
 20
428.896058
 42
-0.366472
  0
VERTEX
  8
0
 10
811.346693
 20
428.986387
 42
-0.234425
  0
VERTEX
  8
0
 10
812.093421
 20
427.541249
 42
-0.014062
  0
VERTEX
  8
0
 10
812.034315
 20
422.500000
 42
-0.071614
  0
VERTEX
  8
0
 10
811.555536
 20
419.910524
 42
-0.080907
  0
VERTEX
  8
0
 10
810.372659
 20
417.678224
 42
-0.037399
  0
VERTEX
  8
0
 10
807.864464
 20
414.838579
 42
-0.004628
  0
VERTEX
  8
0
 10
801.895514
 20
409.128014
 42
0.017845
  0
VERTEX
  8
0
 10
793.793134
 20
400.955467
 42
0.065381
  0
VERTEX
  8
0
 10
789.596945
 20
395.012909
 42
0.106722
  0
VERTEX
  8
0
 10
788.162684
 20
389.862835
 42
0.105967
  0
VERTEX
  8
0
 10
788.975074
 20
384.565559
 42
0.106368
  0
VERTEX
  8
0
 10
790.449676
 20
382.291396
 42
0.052735
  0
VERTEX
  8
0
 10
793.140085
 20
380.123656
 42
0.052250
  0
VERTEX
  8
0
 10
796.283180
 20
378.533207
 42
0.090907
  0
VERTEX
  8
0
 10
799.148454
 20
378.003738
 42
0.068151
  0
VERTEX
  8
0
 10
800.531282
 20
378.191111
 42
0.017969
  0
VERTEX
  8
0
 10
802.664379
 20
378.866657
 42
0.017898
  0
VERTEX
  8
0
 10
805.059582
 20
379.818976
 42
0.017510
  0
VERTEX
  8
0
 10
807.398454
 20
380.946584
 42
0.000000
  0
VERTEX
  8
0
 10
813.000000
 20
383.893168
 42
0.000000
  0
VERTEX
  8
0
 10
813.000000
 20
363.969637
 42
-0.004523
  0
VERTEX
  8
0
 10
812.860770
 20
348.578717
 42
-0.101943
  0
VERTEX
  8
0
 10
811.890907
 20
344.267454
 42
-0.201663
  0
VERTEX
  8
0
 10
809.303991
 20
341.865469
 42
-0.026671
  0
VERTEX
  8
0
 10
802.000000
 20
339.629832
 42
-0.007423
  0
VERTEX
  8
0
 10
791.296422
 20
337.136589
 42
-0.002120
  0
VERTEX
  8
0
 10
774.619618
 20
333.586069
 42
-0.001284
  0
VERTEX
  8
0
 10
757.710996
 20
330.106353
 42
-0.023168
  0
VERTEX
  8
0
 10
752.250000
 20
329.258278
 42
0.000000
  0
VERTEX
  8
0
 10
748.000000
 20
328.798613
 42
0.000000
  0
VERTEX
  8
0
 10
748.000000
 20
338.399306
 42
-0.009113
  0
VERTEX
  8
0
 10
748.067169
 20
342.084132
 42
-0.015156
  0
VERTEX
  8
0
 10
748.274345
 20
345.182696
 42
-0.008892
  0
VERTEX
  8
0
 10
748.561663
 20
347.673254
 42
-0.375877
  0
VERTEX
  8
0
 10
748.934900
 20
348.000000
 42
-0.057774
  0
VERTEX
  8
0
 10
749.457503
 20
347.939412
 42
-0.011030
  0
VERTEX
  8
0
 10
750.384919
 20
347.699739
 42
-0.011628
  0
VERTEX
  8
0
 10
751.460445
 20
347.369147
 42
-0.010464
  0
VERTEX
  8
0
 10
752.558296
 20
346.977836
 42
0.084467
  0
VERTEX
  8
0
 10
755.590696
 20
346.379579
 42
0.066453
  0
VERTEX
  8
0
 10
758.925550
 20
346.735947
 42
0.063608
  0
VERTEX
  8
0
 10
762.190503
 20
347.988097
 42
0.064615
  0
VERTEX
  8
0
 10
765.016745
 20
350.015642
 42
0.033876
  0
VERTEX
  8
0
 10
766.585038
 20
351.693325
 42
0.078144
  0
VERTEX
  8
0
 10
767.452403
 20
353.180443
 42
0.070103
  0
VERTEX
  8
0
 10
767.873379
 20
354.961793
 42
0.023219
  0
VERTEX
  8
0
 10
767.996262
 20
357.651210
 42
0.065987
  0
VERTEX
  8
0
 10
767.307547
 20
362.816475
 42
0.104626
  0
VERTEX
  8
0
 10
765.282375
 20
366.775515
 42
0.070793
  0
VERTEX
  8
0
 10
761.207715
 20
370.557190
 42
0.017500
  0
VERTEX
  8
0
 10
753.520541
 20
375.503704
 42
-0.173718
  0
VERTEX
  8
0
 10
752.340953
 20
376.932882
 42
-0.018698
  0
VERTEX
  8
0
 10
751.017336
 20
381.084661
 42
-0.016339
  0
VERTEX
  8
0
 10
749.982890
 20
385.338411
 42
-0.253020
  0
VERTEX
  8
0
 10
750.398272
 20
386.731605
 42
-0.228153
  0
VERTEX
  8
0
 10
750.722911
 20
386.845264
 42
-0.010976
  0
VERTEX
  8
0
 10
751.891459
 20
386.687962
 42
-0.016096
  0
VERTEX
  8
0
 10
753.311515
 20
386.417873
 42
-0.010723
  0
VERTEX
  8
0
 10
754.919979
 20
386.021547
 42
0.021762
  0
VERTEX
  8
0
 10
757.229452
 20
385.506276
 42
0.066633
  0
VERTEX
  8
0
 10
758.828733
 20
385.437575
 42
0.076177
  0
VERTEX
  8
0
 10
760.268828
 20
385.793346
 42
0.034841
  0
VERTEX
  8
0
 10
762.004763
 20
386.661885
 42
0.076312
  0
VERTEX
  8
0
 10
764.144268
 20
388.412972
 42
0.045682
  0
VERTEX
  8
0
 10
766.114007
 20
391.051514
 42
0.046103
  0
VERTEX
  8
0
 10
767.537683
 20
393.940754
 42
0.091678
  0
VERTEX
  8
0
 10
768.000000
 20
396.440967
 42
0.108508
  0
VERTEX
  8
0
 10
767.391617
 20
399.211354
 42
0.036464
  0
VERTEX
  8
0
 10
765.376440
 20
402.854641
 42
0.032685
  0
VERTEX
  8
0
 10
762.379131
 20
406.851246
 42
0.025294
  0
VERTEX
  8
0
 10
758.631188
 20
410.799296
 42
-0.022713
  0
VERTEX
  8
0
 10
756.266332
 20
413.264810
 42
-0.014859
  0
VERTEX
  8
0
 10
753.760344
 20
416.304673
 42
-0.014955
  0
VERTEX
  8
0
 10
751.490488
 20
419.419131
 42
-0.027557
  0
VERTEX
  8
0
 10
749.866314
 20
422.099442
 42
0.032112
  0
VERTEX
  8
0
 10
746.733015
 20
427.165594
 42
0.085179
  0
VERTEX
  8
0
 10
743.724696
 20
430.158032
 42
0.108137
  0
VERTEX
  8
0
 10
740.354960
 20
431.572281
 42
0.073675
  0
VERTEX
  8
0
 10
736.186701
 20
431.717576
 42
0.078557
  0
VERTEX
  8
0
 10
732.484380
 20
430.696786
 42
0.086617
  0
VERTEX
  8
0
 10
729.415720
 20
428.603583
 42
0.064618
  0
VERTEX
  8
0
 10
726.608684
 20
425.062733
 42
0.024767
  0
VERTEX
  8
0
 10
723.636028
 20
419.512705
 42
-0.025581
  0
VERTEX
  8
0
 10
722.506178
 20
417.411468
 42
-0.023066
  0
VERTEX
  8
0
 10
721.130855
 20
415.360185
 42
-0.023742
  0
VERTEX
  8
0
 10
719.725468
 20
413.637228
 42
-0.064853
  0
VERTEX
  8
0
 10
718.535014
 20
412.614899
 42
0.075378
  0
VERTEX
  8
0
 10
715.449345
 20
409.850636
 42
0.044726
  0
VERTEX
  8
0
 10
712.653387
 20
405.767487
 42
0.044962
  0
VERTEX
  8
0
 10
710.653818
 20
401.303885
 42
0.083016
  0
VERTEX
  8
0
 10
710.000000
 20
397.393113
 42
0.097114
  0
VERTEX
  8
0
 10
710.734309
 20
393.648097
 42
0.108739
  0
VERTEX
  8
0
 10
712.818288
 20
390.627093
 42
0.104482
  0
VERTEX
  8
0
 10
716.054967
 20
388.677711
 42
0.083666
  0
VERTEX
  8
0
 10
720.076725
 20
388.000000
 42
-0.019514
  0
VERTEX
  8
0
 10
721.580520
 20
387.941289
 42
-0.031573
  0
VERTEX
  8
0
 10
722.847538
 20
387.761226
 42
-0.033231
  0
VERTEX
  8
0
 10
723.775566
 20
387.503655
 42
-0.318571
  0
VERTEX
  8
0
 10
724.000000
 20
387.187153
 42
-0.119159
  0
VERTEX
  8
0
 10
723.315066
 20
384.353934
 42
-0.028611
  0
VERTEX
  8
0
 10
720.845983
 20
380.155371
 42
-0.030316
  0
VERTEX
  8
0
 10
717.753693
 20
376.082831
 42
-0.062468
  0
VERTEX
  8
0
 10
714.793493
 20
373.401642
 42
0.054873
  0
VERTEX
  8
0
 10
711.442954
 20
370.457987
 42
0.058271
  0
VERTEX
  8
0
 10
708.889623
 20
366.910816
 42
0.059383
  0
VERTEX
  8
0
 10
707.260197
 20
362.934027
 42
0.061083
  0
VERTEX
  8
0
 10
706.631505
 20
358.723793
 42
0.111033
  0
VERTEX
  8
0
 10
707.365008
 20
355.008975
 42
0.099120
  0
VERTEX
  8
0
 10
709.633039
 20
351.789359
 42
0.097671
  0
VERTEX
  8
0
 10
712.999042
 20
349.656576
 42
0.104272
  0
VERTEX
  8
0
 10
716.843782
 20
349.027195
 42
-0.026906
  0
VERTEX
  8
0
 10
721.189862
 20
348.991264
 42
-0.277985
  0
VERTEX
  8
0
 10
722.603986
 20
348.014762
 42
-0.116776
  0
VERTEX
  8
0
 10
723.042453
 20
345.755275
 42
-0.003670
  0
VERTEX
  8
0
 10
722.587128
 20
336.309051
 42
-0.002838
  0
VERTEX
  8
0
 10
722.286133
 20
331.395354
 42
-0.004356
  0
VERTEX
  8
0
 10
721.964250
 20
327.143998
 42
-0.001566
  0
VERTEX
  8
0
 10
721.644158
 20
323.491511
 42
-0.116277
  0
VERTEX
  8
0
 10
721.456862
 20
322.930202
 42
-0.197976
  0
VERTEX
  8
0
 10
720.086943
 20
321.939065
 42
-0.004247
  0
VERTEX
  8
0
 10
711.842590
 20
320.035367
 42
-0.004348
  0
VERTEX
  8
0
 10
703.580787
 20
318.276665
 42
-0.190925
  0
VERTEX
  8
0
 10
701.867647
 20
318.581799
 42
-0.245770
  0
VERTEX
  8
0
 10
701.299157
 20
319.540514
 42
-0.006679
  0
VERTEX
  8
0
 10
701.098470
 20
324.569093
 42
-0.009243
  0
VERTEX
  8
0
 10
701.040503
 20
331.775411
 42
-0.002543
  0
VERTEX
  8
0
 10
701.216615
 20
343.115827
 42
0.001479
  0
VERTEX
  8
0
 10
701.491836
 20
358.701107
 42
0.020239
  0
VERTEX
  8
0
 10
701.345847
 20
364.364330
 42
0.057108
  0
VERTEX
  8
0
 10
700.732768
 20
367.727025
 42
0.064288
  0
VERTEX
  8
0
 10
699.385152
 20
370.721938
 42
-0.035022
  0
VERTEX
  8
0
 10
698.410585
 20
372.588382
 42
-0.031774
  0
VERTEX
  8
0
 10
697.669447
 20
374.633525
 42
-0.032024
  0
VERTEX
  8
0
 10
697.198551
 20
376.738161
 42
-0.037218
  0
VERTEX
  8
0
 10
697.031210
 20
378.782119
 42
0.059020
  0
VERTEX
  8
0
 10
696.351883
 20
384.180070
 42
0.092116
  0
VERTEX
  8
0
 10
694.417805
 20
388.433011
 42
0.099838
  0
VERTEX
  8
0
 10
691.222685
 20
391.477482
 42
0.080408
  0
VERTEX
  8
0
 10
686.847680
 20
393.336348
 42
0.070793
  0
VERTEX
  8
0
 10
683.609084
 20
393.661128
 42
0.067718
  0
VERTEX
  8
0
 10
680.356325
 20
393.080540
 42
0.064342
  0
VERTEX
  8
0
 10
677.235142
 20
391.609746
 42
0.054184
  0
VERTEX
  8
0
 10
674.385417
 20
389.318750
 42
0.029298
  0
VERTEX
  8
0
 10
672.366449
 20
387.048223
 42
0.096756
  0
VERTEX
  8
0
 10
671.454396
 20
385.276173
 42
0.062996
  0
VERTEX
  8
0
 10
671.080893
 20
382.910467
 42
0.007691
  0
VERTEX
  8
0
 10
671.000000
 20
377.651838
 42
0.000000
  0
VERTEX
  8
0
 10
671.000000
 20
369.370343
 42
0.000000
  0
VERTEX
  8
0
 10
657.304840
 20
358.935172
 42
-0.002026
  0
VERTEX
  8
0
 10
651.891160
 20
354.844735
 42
-0.002729
  0
VERTEX
  8
0
 10
646.955586
 20
351.188763
 42
-0.001864
  0
VERTEX
  8
0
 10
642.788454
 20
348.160891
 42
-0.029270
  0
VERTEX
  8
0
 10
641.304840
 20
347.218063
 42
-0.014931
  0
VERTEX
  8
0
 10
639.957453
 20
346.520487
 42
-0.179302
  0
VERTEX
  8
0
 10
639.384627
 20
346.467039
 42
-0.297323
  0
VERTEX
  8
0
 10
639.078759
 20
346.808136
 42
-0.038269
  0
VERTEX
  8
0
 10
639.000000
 20
347.835638
 42
-0.077204
  0
VERTEX
  8
0
 10
639.551557
 20
351.386419
 42
-0.007122
  0
VERTEX
  8
0
 10
642.381208
 20
359.855683
 42
-0.009987
  0
VERTEX
  8
0
 10
645.745210
 20
368.884147
 42
-0.014932
  0
VERTEX
  8
0
 10
649.073909
 20
376.616742
 42
0.000455
  0
VERTEX
  8
0
 10
650.843672
 20
380.420749
 42
0.000368
  0
VERTEX
  8
0
 10
652.736178
 20
384.506168
 42
0.000372
  0
VERTEX
  8
0
 10
654.476295
 20
388.277250
 42
0.000963
  0
VERTEX
  8
0
 10
655.723863
 20
391.000000
 42
-0.051417
  0
VERTEX
  8
0
 10
670.816764
 20
416.731647
 42
-0.028562
  0
VERTEX
  8
0
 10
694.005343
 20
444.809032
 42
-0.027889
  0
VERTEX
  8
0
 10
721.410069
 20
471.255186
 42
-0.035795
  0
VERTEX
  8
0
 10
749.500000
 20
492.181399
 42
-0.005565
  0
VERTEX
  8
0
 10
760.711520
 20
499.172809
 42
-0.007201
  0
VERTEX
  8
0
 10
771.158392
 20
505.322688
 42
-0.007776
  0
VERTEX
  8
0
 10
781.028566
 20
510.741777
 42
-0.009285
  0
VERTEX
  8
0
 10
790.500000
 20
515.528923
 42
-0.002921
  0
VERTEX
  8
0
 10
799.833536
 20
519.963734
 42
-0.023851
  0
VERTEX
  8
0
 10
804.199741
 20
521.758654
 42
-0.050689
  0
VERTEX
  8
0
 10
807.276278
 20
522.514954
 42
-0.047995
  0
VERTEX
  8
0
 10
810.500000
 20
522.656372
 42
-0.030501
  0
VERTEX
  8
0
 10
812.252136
 20
522.457427
 42
-0.191314
  0
VERTEX
  8
0
 10
813.004496
 20
521.993970
 42
-0.160941
  0
VERTEX
  8
0
 10
813.305218
 20
521.091010
 42
-0.020125
  0
SEQEND
  0
POLYLINE
  8
0
 66
1
 70
1
  0
VERTEX
  8
0
 10
138.595012
 20
458.845285
 42
0.065094
  0
VERTEX
  8
0
 10
139.816444
 20
457.780837
 42
0.012177
  0
VERTEX
  8
0
 10
142.333695
 20
456.193965
 42
0.012851
  0
VERTEX
  8
0
 10
145.388491
 20
454.475521
 42
0.011438
  0
VERTEX
  8
0
 10
148.647352
 20
452.845285
 42
0.012255
  0
VERTEX
  8
0
 10
152.858234
 20
450.982660
 42
0.027670
  0
VERTEX
  8
0
 10
156.149029
 20
449.831058
 42
0.034602
  0
VERTEX
  8
0
 10
159.038470
 20
449.208777
 42
0.035752
  0
VERTEX
  8
0
 10
161.954532
 20
449.000000
 42
0.029291
  0
VERTEX
  8
0
 10
166.318728
 20
449.255884
 42
0.020641
  0
VERTEX
  8
0
 10
171.173622
 20
450.031429
 42
0.017564
  0
VERTEX
  8
0
 10
175.518688
 20
451.070853
 42
0.117566
  0
VERTEX
  8
0
 10
177.450000
 20
452.135960
 42
-0.073003
  0
VERTEX
  8
0
 10
177.942711
 20
452.467502
 42
-0.035546
  0
VERTEX
  8
0
 10
178.649687
 20
452.746188
 42
-0.034305
  0
VERTEX
  8
0
 10
179.441131
 20
452.936387
 42
-0.041840
  0
VERTEX
  8
0
 10
180.200000
 20
453.000000
 42
-0.276825
  0
VERTEX
  8
0
 10
181.579274
 20
452.172991
 42
-0.138131
  0
VERTEX
  8
0
 10
182.031519
 20
450.112171
 42
-0.096288
  0
VERTEX
  8
0
 10
181.357760
 20
447.478839
 42
-0.098764
  0
VERTEX
  8
0
 10
179.750000
 20
445.316549
 42
-0.030388
  0
VERTEX
  8
0
 10
178.539553
 20
444.350070
 42
-0.009934
  0
VERTEX
  8
0
 10
176.644941
 20
443.072806
 42
-0.009858
  0
VERTEX
  8
0
 10
174.480023
 20
441.734773
 42
-0.010972
  0
VERTEX
  8
0
 10
172.339162
 20
440.531834
 42
0.020731
  0
VERTEX
  8
0
 10
170.119253
 20
439.226846
 42
0.014282
  0
VERTEX
  8
0
 10
167.713441
 20
437.575775
 42
0.014423
  0
VERTEX
  8
0
 10
165.486570
 20
435.851527
 42
0.028334
  0
VERTEX
  8
0
 10
163.839162
 20
434.334057
 42
0.026253
  0
VERTEX
  8
0
 10
162.009332
 20
432.236291
 42
0.075901
  0
VERTEX
  8
0
 10
161.065326
 20
430.561545
 42
0.070283
  0
VERTEX
  8
0
 10
160.625710
 20
428.608756
 42
0.020276
  0
VERTEX
  8
0
 10
160.500000
 20
425.510121
 42
0.019756
  0
VERTEX
  8
0
 10
160.618828
 20
422.503899
 42
0.063813
  0
VERTEX
  8
0
 10
161.027868
 20
420.550995
 42
0.074176
  0
VERTEX
  8
0
 10
161.877889
 20
418.926204
 42
0.033488
  0
VERTEX
  8
0
 10
163.425161
 20
417.078115
 42
0.040300
  0
VERTEX
  8
0
 10
164.818152
 20
415.840860
 42
0.030708
  0
VERTEX
  8
0
 10
166.520617
 20
414.714956
 42
0.031328
  0
VERTEX
  8
0
 10
168.286894
 20
413.839259
 42
0.053098
  0
VERTEX
  8
0
 10
169.866197
 20
413.365323
 42
0.038538
  0
VERTEX
  8
0
 10
172.106737
 20
413.121473
 42
0.058227
  0
VERTEX
  8
0
 10
174.060010
 20
413.287805
 42
0.039413
  0
VERTEX
  8
0
 10
176.411945
 20
413.964259
 42
0.009089
  0
VERTEX
  8
0
 10
180.250000
 20
415.483978
 42
-0.204185
  0
VERTEX
  8
0
 10
181.162219
 20
415.477012
 42
-0.234730
  0
VERTEX
  8
0
 10
181.717885
 20
414.816250
 42
-0.054809
  0
VERTEX
  8
0
 10
181.955064
 20
412.982049
 42
-0.004772
  0
VERTEX
  8
0
 10
182.000000
 20
408.273655
 42
-0.007364
  0
VERTEX
  8
0
 10
181.954516
 20
405.185595
 42
-0.010904
  0
VERTEX
  8
0
 10
181.815779
 20
402.481582
 42
-0.006323
  0
VERTEX
  8
0
 10
181.622674
 20
400.234248
 42
-0.173468
  0
VERTEX
  8
0
 10
181.372865
 20
399.706198
 42
-0.336883
  0
VERTEX
  8
0
 10
178.659789
 20
399.336270
 42
-0.001807
  0
VERTEX
  8
0
 10
154.160717
 20
413.297974
 42
-0.002692
  0
VERTEX
  8
0
 10
130.331649
 20
427.163370
 42
-0.169605
  0
VERTEX
  8
0
 10
127.240715
 20
430.815089
 42
-0.153921
  0
VERTEX
  8
0
 10
127.038057
 20
434.135235
 42
-0.005301
  0
VERTEX
  8
0
 10
130.356461
 20
446.860976
 42
-0.003445
  0
VERTEX
  8
0
 10
134.003098
 20
459.906484
 42
-0.334536
  0
VERTEX
  8
0
 10
135.454563
 20
461.000000
 42
-0.117009
  0
VERTEX
  8
0
 10
136.057509
 20
460.856942
 42
-0.033871
  0
VERTEX
  8
0
 10
136.886698
 20
460.367052
 42
-0.032052
  0
VERTEX
  8
0
 10
137.774923
 20
459.669937
 42
-0.029339
  0
SEQEND
  0
POLYLINE
  8
0
 66
1
 70
1
  0
VERTEX
  8
0
 10
1027.336449
 20
452.933670
 42
-0.012093
  0
VERTEX
  8
0
 10
1028.177284
 20
450.232115
 42
-0.004761
  0
VERTEX
  8
0
 10
1029.209320
 20
446.474324
 42
-0.004709
  0
VERTEX
  8
0
 10
1030.248291
 20
442.389909
 42
-0.005865
  0
VERTEX
  8
0
 10
1031.133338
 20
438.574667
 42
-0.014427
  0
VERTEX
  8
0
 10
1032.398410
 20
431.901934
 42
-0.138540
  0
VERTEX
  8
0
 10
1032.064695
 20
429.058113
 42
-0.151408
  0
VERTEX
  8
0
 10
1030.295670
 20
426.926344
 42
-0.018247
  0
VERTEX
  8
0
 10
1025.000000
 20
423.744034
 42
0.003286
  0
VERTEX
  8
0
 10
1022.615460
 20
422.406521
 42
0.000892
  0
VERTEX
  8
0
 10
1018.860939
 20
420.259142
 42
0.000902
  0
VERTEX
  8
0
 10
1014.609350
 20
417.807180
 42
0.000937
  0
VERTEX
  8
0
 10
1010.420218
 20
415.370658
 42
-0.013047
  0
VERTEX
  8
0
 10
1000.933415
 20
410.156119
 42
-0.009862
  0
VERTEX
  8
0
 10
990.264267
 20
404.912973
 42
-0.003010
  0
VERTEX
  8
0
 10
979.786837
 20
400.094784
 42
-0.312189
  0
VERTEX
  8
0
 10
978.301250
 20
400.365417
 42
-0.138683
  0
VERTEX
  8
0
 10
978.007623
 20
400.890611
 42
-0.008239
  0
VERTEX
  8
0
 10
977.610702
 20
402.684946
 42
-0.011893
  0
VERTEX
  8
0
 10
977.219113
 20
404.868634
 42
-0.008460
  0
VERTEX
  8
0
 10
976.880182
 20
407.331953
 42
0.001979
  0
VERTEX
  8
0
 10
976.566825
 20
409.850792
 42
0.002415
  0
VERTEX
  8
0
 10
976.252911
 20
412.205063
 42
0.002023
  0
VERTEX
  8
0
 10
975.971382
 20
414.182356
 42
0.017038
  0
VERTEX
  8
0
 10
975.810599
 20
415.068203
 42
-0.220386
  0
VERTEX
  8
0
 10
975.979358
 20
415.822103
 42
-0.265700
  0
VERTEX
  8
0
 10
976.638917
 20
416.098897
 42
-0.048980
  0
VERTEX
  8
0
 10
978.321032
 20
415.722849
 42
-0.003590
  0
VERTEX
  8
0
 10
982.813212
 20
414.209210
 42
0.022391
  0
VERTEX
  8
0
 10
985.200051
 20
413.503680
 42
0.051403
  0
VERTEX
  8
0
 10
987.053679
 20
413.242619
 42
0.054355
  0
VERTEX
  8
0
 10
988.857390
 20
413.371625
 42
0.027780
  0
VERTEX
  8
0
 10
991.067255
 20
413.902004
 42
0.074725
  0
VERTEX
  8
0
 10
994.465860
 20
415.503115
 42
0.109337
  0
VERTEX
  8
0
 10
996.744357
 20
417.883431
 42
0.092953
  0
VERTEX
  8
0
 10
998.034724
 20
421.307806
 42
0.042371
  0
VERTEX
  8
0
 10
998.467602
 20
426.088558
 42
0.016958
  0
VERTEX
  8
0
 10
998.373972
 20
429.395861
 42
0.064689
  0
VERTEX
  8
0
 10
997.982191
 20
431.417595
 42
0.077918
  0
VERTEX
  8
0
 10
997.127279
 20
433.075357
 42
0.031901
  0
VERTEX
  8
0
 10
995.500000
 20
435.025339
 42
0.041930
  0
VERTEX
  8
0
 10
993.871654
 20
436.476058
 42
0.014960
  0
VERTEX
  8
0
 10
991.325000
 20
438.271340
 42
0.014723
  0
VERTEX
  8
0
 10
988.399994
 20
440.083584
 42
0.016848
  0
VERTEX
  8
0
 10
985.500000
 20
441.636180
 42
-0.015543
  0
VERTEX
  8
0
 10
980.348804
 20
444.376756
 42
-0.073379
  0
VERTEX
  8
0
 10
977.725163
 20
446.440523
 42
-0.117558
  0
VERTEX
  8
0
 10
976.438786
 20
448.667869
 42
-0.072551
  0
VERTEX
  8
0
 10
976.000000
 20
451.675931
 42
0.000000
  0
VERTEX
  8
0
 10
976.000000
 20
454.969603
 42
0.000000
  0
VERTEX
  8
0
 10
981.873705
 20
451.984802
 42
0.080414
  0
VERTEX
  8
0
 10
990.459312
 20
449.237670
 42
0.064315
  0
VERTEX
  8
0
 10
1000.182551
 20
449.035982
 42
0.061418
  0
VERTEX
  8
0
 10
1010.074515
 20
451.356253
 42
0.060657
  0
VERTEX
  8
0
 10
1019.151785
 20
456.015760
 42
-0.014273
  0
VERTEX
  8
0
 10
1020.890178
 20
457.122339
 42
-0.019627
  0
VERTEX
  8
0
 10
1022.516462
 20
458.008818
 42
-0.016667
  0
VERTEX
  8
0
 10
1023.888781
 20
458.632372
 42
-0.172133
  0
VERTEX
  8
0
 10
1024.500000
 20
458.664328
 42
-0.191840
  0
VERTEX
  8
0
 10
1024.981917
 20
458.284276
 42
-0.016088
  0
VERTEX
  8
0
 10
1025.745707
 20
456.858440
 42
-0.019587
  0
VERTEX
  8
0
 10
1026.560164
 20
455.036795
 42
-0.013838
  0
SEQEND
  0
POLYLINE
  8
0
 66
1
 70
1
  0
VERTEX
  8
0
 10
483.852593
 20
336.679239
 42
0.016996
  0
VERTEX
  8
0
 10
490.507511
 20
331.166399
 42
0.007836
  0
VERTEX
  8
0
 10
499.515665
 20
324.429266
 42
0.006073
  0
VERTEX
  8
0
 10
508.349579
 20
318.197932
 42
0.050024
  0
VERTEX
  8
0
 10
512.657600
 20
315.832013
 42
-0.047505
  0
VERTEX
  8
0
 10
516.259538
 20
313.877366
 42
-0.073255
  0
VERTEX
  8
0
 10
518.875772
 20
311.496261
 42
-0.084056
  0
VERTEX
  8
0
 10
520.453094
 20
308.731467
 42
-0.087908
  0
VERTEX
  8
0
 10
521.000000
 20
305.644822
 42
-0.029359
  0
VERTEX
  8
0
 10
520.736014
 20
301.152923
 42
-0.012304
  0
VERTEX
  8
0
 10
519.878140
 20
295.152660
 42
-0.007115
  0
VERTEX
  8
0
 10
518.801525
 20
289.264506
 42
-0.138950
  0
VERTEX
  8
0
 10
517.971104
 20
287.634589
 42
-0.258072
  0
VERTEX
  8
0
 10
517.445674
 20
287.461439
 42
-0.047077
  0
VERTEX
  8
0
 10
516.425209
 20
287.755845
 42
-0.040227
  0
VERTEX
  8
0
 10
515.170393
 20
288.370321
 42
-0.026577
  0
VERTEX
  8
0
 10
513.834589
 20
289.262631
 42
0.025243
  0
VERTEX
  8
0
 10
510.737546
 20
291.343398
 42
0.008488
  0
VERTEX
  8
0
 10
506.022762
 20
294.068860
 42
0.005195
  0
VERTEX
  8
0
 10
498.801046
 20
297.983880
 42
0.001187
  0
VERTEX
  8
0
 10
486.500000
 20
304.450744
 42
-0.007725
  0
VERTEX
  8
0
 10
482.962004
 20
306.370188
 42
-0.009961
  0
VERTEX
  8
0
 10
479.776563
 20
308.247109
 42
-0.007995
  0
VERTEX
  8
0
 10
477.180688
 20
309.905001
 42
-0.082022
  0
VERTEX
  8
0
 10
476.250000
 20
310.768612
 42
-0.131536
  0
VERTEX
  8
0
 10
475.658705
 20
312.176895
 42
-0.015372
  0
VERTEX
  8
0
 10
475.297279
 20
315.599666
 42
-0.013790
  0
VERTEX
  8
0
 10
475.067919
 20
320.488178
 42
-0.004826
  0
VERTEX
  8
0
 10
475.000000
 20
327.524463
 42
-0.004501
  0
VERTEX
  8
0
 10
475.082011
 20
336.634618
 42
-0.026210
  0
VERTEX
  8
0
 10
475.419598
 20
341.421182
 42
-0.114401
  0
VERTEX
  8
0
 10
476.059252
 20
343.170093
 42
-0.539021
  0
VERTEX
  8
0
 10
476.931695
 20
343.173236
 42
0.055552
  0
VERTEX
  8
0
 10
477.387125
 20
342.628826
 42
0.002396
  0
VERTEX
  8
0
 10
479.199134
 20
340.912185
 42
0.004064
  0
VERTEX
  8
0
 10
481.377579
 20
338.901158
 42
0.002883
  0
SEQEND
  0
POLYLINE
  8
0
 66
1
 70
1
  0
VERTEX
  8
0
 10
675.000000
 20
322.622445
 42
-0.005211
  0
VERTEX
  8
0
 10
674.934510
 20
316.338941
 42
-0.016488
  0
VERTEX
  8
0
 10
674.708167
 20
312.137319
 42
-0.018763
  0
VERTEX
  8
0
 10
674.350840
 20
309.277730
 42
-0.187103
  0
VERTEX
  8
0
 10
673.750000
 20
308.256393
 42
-0.037885
  0
VERTEX
  8
0
 10
672.857289
 20
307.654306
 42
-0.002105
  0
VERTEX
  8
0
 10
669.929688
 20
306.003531
 42
-0.003241
  0
VERTEX
  8
0
 10
666.421601
 20
304.074581
 42
-0.002366
  0
VERTEX
  8
0
 10
662.500000
 20
301.975177
 42
0.003796
  0
VERTEX
  8
0
 10
654.563162
 20
297.696992
 42
0.012658
  0
VERTEX
  8
0
 10
649.447651
 20
294.718339
 42
0.018332
  0
VERTEX
  8
0
 10
646.046951
 20
292.445013
 42
0.063121
  0
VERTEX
  8
0
 10
644.112875
 20
290.636006
 42
-0.054943
  0
VERTEX
  8
0
 10
643.465035
 20
290.009955
 42
-0.043125
  0
VERTEX
  8
0
 10
642.643339
 20
289.480577
 42
-0.044427
  0
VERTEX
  8
0
 10
641.781490
 20
289.118903
 42
-0.077287
  0
VERTEX
  8
0
 10
641.016846
 20
289.000000
 42
-0.312265
  0
VERTEX
  8
0
 10
639.702432
 20
289.909585
 42
-0.045224
  0
VERTEX
  8
0
 10
638.786092
 20
293.224081
 42
-0.032339
  0
VERTEX
  8
0
 10
638.194934
 20
298.356025
 42
-0.012152
  0
VERTEX
  8
0
 10
638.008692
 20
305.593118
 42
0.000000
  0
VERTEX
  8
0
 10
638.000000
 20
311.686236
 42
0.000000
  0
VERTEX
  8
0
 10
650.250000
 20
319.798859
 42
0.005159
  0
VERTEX
  8
0
 10
655.269918
 20
323.198347
 42
0.005144
  0
VERTEX
  8
0
 10
660.223437
 20
326.703875
 42
0.005045
  0
VERTEX
  8
0
 10
664.487438
 20
329.853771
 42
0.020131
  0
VERTEX
  8
0
 10
667.000000
 20
331.913103
 42
-0.024511
  0
VERTEX
  8
0
 10
671.900531
 20
335.858435
 42
-0.390375
  0
VERTEX
  8
0
 10
673.845383
 20
335.632718
 42
-0.172549
  0
VERTEX
  8
0
 10
674.857466
 20
333.016802
 42
-0.006856
  0
SEQEND
  0
POLYLINE
  8
0
 66
1
 70
1
  0
VERTEX
  8
0
 10
144.368569
 20
326.180176
 42
0.002089
  0
VERTEX
  8
0
 10
149.982348
 20
322.868845
 42
0.001726
  0
VERTEX
  8
0
 10
155.992642
 20
319.385168
 42
0.001742
  0
VERTEX
  8
0
 10
161.528909
 20
316.227341
 42
0.004668
  0
VERTEX
  8
0
 10
165.500000
 20
314.029262
 42
-0.031681
  0
VERTEX
  8
0
 10
173.315671
 20
309.134170
 42
-0.176570
  0
VERTEX
  8
0
 10
176.056977
 20
305.113186
 42
-0.060692
  0
VERTEX
  8
0
 10
176.905382
 20
298.500376
 42
-0.001591
  0
VERTEX
  8
0
 10
177.000000
 20
268.771688
 42
-0.001131
  0
VERTEX
  8
0
 10
176.952791
 20
247.894395
 42
-0.008197
  0
VERTEX
  8
0
 10
176.742879
 20
237.860065
 42
-0.008394
  0
VERTEX
  8
0
 10
176.413680
 20
231.780833
 42
-0.460546
  0
VERTEX
  8
0
 10
175.596672
 20
231.176676
 42
-0.156674
  0
VERTEX
  8
0
 10
174.764797
 20
231.672241
 42
-0.005222
  0
VERTEX
  8
0
 10
172.222205
 20
234.616843
 42
-0.009460
  0
VERTEX
  8
0
 10
169.290505
 20
238.220762
 42
-0.006396
  0
VERTEX
  8
0
 10
166.079756
 20
242.433854
 42
-0.032794
  0
VERTEX
  8
0
 10
155.931232
 20
258.168534
 42
-0.020923
  0
VERTEX
  8
0
 10
146.155644
 20
277.632719
 42
-0.020135
  0
VERTEX
  8
0
 10
137.562079
 20
298.941887
 42
-0.021827
  0
VERTEX
  8
0
 10
130.964883
 20
320.312683
 42
-0.006415
  0
VERTEX
  8
0
 10
129.142396
 20
327.666178
 42
-0.043191
  0
VERTEX
  8
0
 10
128.604463
 20
331.381571
 42
-0.129490
  0
VERTEX
  8
0
 10
128.985007
 20
333.257984
 42
-0.285703
  0
VERTEX
  8
0
 10
130.177586
 20
334.000000
 42
-0.124590
  0
VERTEX
  8
0
 10
130.919844
 20
333.812128
 42
-0.001960
  0
VERTEX
  8
0
 10
134.783253
 20
331.702927
 42
-0.005055
  0
VERTEX
  8
0
 10
139.259297
 20
329.177114
 42
-0.003311
  0
SEQEND
  0
POLYLINE
  8
0
 66
1
 70
1
  0
VERTEX
  8
0
 10
1032.000000
 20
332.565376
 42
-0.066230
  0
VERTEX
  8
0
 10
1031.093552
 20
325.752167
 42
-0.008628
  0
VERTEX
  8
0
 10
1027.011000
 20
311.649667
 42
-0.010831
  0
VERTEX
  8
0
 10
1022.020720
 20
296.626490
 42
-0.017100
  0
VERTEX
  8
0
 10
1017.027798
 20
284.000000
 42
-0.022368
  0
VERTEX
  8
0
 10
1008.842796
 20
267.290548
 42
-0.014748
  0
VERTEX
  8
0
 10
998.029751
 20
248.823452
 42
-0.006996
  0
VERTEX
  8
0
 10
986.950695
 20
231.659659
 42
-0.250981
  0
VERTEX
  8
0
 10
982.919274
 20
229.500000
 42
-0.413489
  0
VERTEX
  8
0
 10
981.340738
 20
231.074634
 42
-0.000872
  0
VERTEX
  8
0
 10
981.313129
 20
268.847067
 42
-0.001015
  0
VERTEX
  8
0
 10
981.427464
 20
306.417001
 42
-0.260914
  0
VERTEX
  8
0
 10
983.000000
 20
309.192238
 42
-0.015258
  0
VERTEX
  8
0
 10
989.985252
 20
313.139140
 42
-0.001233
  0
VERTEX
  8
0
 10
1008.682051
 20
322.904616
 42
-0.000218
  0
VERTEX
  8
0
 10
1029.379801
 20
333.638914
 42
-0.116581
  0
VERTEX
  8
0
 10
1030.750000
 20
333.982784
 42
-0.114478
  0
VERTEX
  8
0
 10
1031.226781
 20
333.879071
 42
-0.101830
  0
VERTEX
  8
0
 10
1031.632812
 20
333.573522
 42
-0.095101
  0
VERTEX
  8
0
 10
1031.905217
 20
333.111877
 42
-0.086076
  0
SEQEND
  0
POLYLINE
  8
0
 66
1
 70
1
  0
VERTEX
  8
0
 10
956.000000
 20
270.377555
 42
-0.001152
  0
VERTEX
  8
0
 10
955.961190
 20
253.526850
 42
-0.017213
  0
VERTEX
  8
0
 10
955.731604
 20
247.647448
 42
-0.056783
  0
VERTEX
  8
0
 10
955.201058
 20
244.841858
 42
-0.328743
  0
VERTEX
  8
0
 10
954.059017
 20
244.000000
 42
-0.043870
  0
VERTEX
  8
0
 10
953.273775
 20
244.069030
 42
-0.044889
  0
VERTEX
  8
0
 10
952.518877
 20
244.273967
 42
-0.049000
  0
VERTEX
  8
0
 10
951.900629
 20
244.574696
 42
-0.117176
  0
VERTEX
  8
0
 10
951.541623
 20
244.932652
 42
0.145733
  0
VERTEX
  8
0
 10
950.978935
 20
245.433980
 42
0.004061
  0
VERTEX
  8
0
 10
947.985950
 20
246.807505
 42
0.008005
  0
VERTEX
  8
0
 10
944.395737
 20
248.351354
 42
0.005374
  0
VERTEX
  8
0
 10
940.246633
 20
250.005448
 42
-0.006709
  0
VERTEX
  8
0
 10
936.085578
 20
251.677194
 42
-0.009686
  0
VERTEX
  8
0
 10
932.456702
 20
253.275228
 42
-0.005873
  0
VERTEX
  8
0
 10
929.471082
 20
254.702498
 42
-0.137517
  0
VERTEX
  8
0
 10
928.779340
 20
255.322796
 42
-0.127929
  0
VERTEX
  8
0
 10
928.478866
 20
256.254388
 42
-0.003129
  0
VERTEX
  8
0
 10
928.246062
 20
260.791198
 42
-0.006595
  0
VERTEX
  8
0
 10
928.075440
 20
266.151154
 42
-0.004416
  0
VERTEX
  8
0
 10
928.015313
 20
272.285537
 42
0.000000
  0
VERTEX
  8
0
 10
928.000000
 20
288.071075
 42
0.000000
  0
VERTEX
  8
0
 10
932.750000
 20
290.171478
 42
-0.005523
  0
VERTEX
  8
0
 10
941.951858
 20
294.119514
 42
-0.015750
  0
VERTEX
  8
0
 10
948.467242
 20
296.592397
 42
-0.014877
  0
VERTEX
  8
0
 10
953.167431
 20
298.054061
 42
-0.238891
  0
VERTEX
  8
0
 10
954.750000
 20
297.737795
 42
-0.209731
  0
VERTEX
  8
0
 10
955.403638
 20
296.515559
 42
-0.007992
  0
VERTEX
  8
0
 10
955.728839
 20
291.246235
 42
-0.009208
  0
VERTEX
  8
0
 10
955.942523
 20
283.403679
 42
-0.002206
  0
SEQEND
  0
POLYLINE
  8
0
 66
1
 70
1
  0
VERTEX
  8
0
 10
209.223249
 20
296.072147
 42
0.006761
  0
VERTEX
  8
0
 10
211.421567
 20
295.116752
 42
0.002243
  0
VERTEX
  8
0
 10
214.670135
 20
293.773933
 42
0.002232
  0
VERTEX
  8
0
 10
218.284104
 20
292.317808
 42
0.002537
  0
VERTEX
  8
0
 10
221.760190
 20
290.955637
 42
-0.010248
  0
VERTEX
  8
0
 10
225.771616
 20
289.311883
 42
-0.033805
  0
VERTEX
  8
0
 10
228.309318
 20
288.000458
 42
-0.053578
  0
VERTEX
  8
0
 10
229.856928
 20
286.820009
 42
-0.143427
  0
VERTEX
  8
0
 10
230.547703
 20
285.633490
 42
-0.053357
  0
VERTEX
  8
0
 10
230.743931
 20
284.196279
 42
-0.003546
  0
VERTEX
  8
0
 10
230.835668
 20
280.025001
 42
-0.005089
  0
VERTEX
  8
0
 10
230.859193
 20
275.040582
 42
-0.003783
  0
VERTEX
  8
0
 10
230.787513
 20
269.536727
 42
-0.002580
  0
VERTEX
  8
0
 10
230.552903
 20
260.426902
 42
-0.037653
  0
VERTEX
  8
0
 10
230.212172
 20
257.229917
 42
-0.119420
  0
VERTEX
  8
0
 10
229.456929
 20
255.534909
 42
-0.114645
  0
VERTEX
  8
0
 10
228.000000
 20
254.343129
 42
-0.001541
  0
VERTEX
  8
0
 10
216.164458
 20
248.563753
 42
-0.007617
  0
VERTEX
  8
0
 10
209.439800
 20
245.431265
 42
-0.005956
  0
VERTEX
  8
0
 10
204.935141
 20
243.479890
 42
-0.242188
  0
VERTEX
  8
0
 10
203.901195
 20
243.561065
 42
-0.258233
  0
VERTEX
  8
0
 10
203.151758
 20
244.895242
 42
-0.000503
  0
VERTEX
  8
0
 10
203.015367
 20
270.302608
 42
-0.000600
  0
VERTEX
  8
0
 10
202.935487
 20
295.563197
 42
-0.199423
  0
VERTEX
  8
0
 10
203.666667
 20
297.333333
 42
-0.087405
  0
VERTEX
  8
0
 10
204.320693
 20
297.791449
 42
-0.166477
  0
VERTEX
  8
0
 10
204.951833
 20
297.859073
 42
-0.047880
  0
VERTEX
  8
0
 10
205.954776
 20
297.527958
 42
-0.002234
  0
SEQEND
  0
POLYLINE
  8
0
 66
1
 70
1
  0
VERTEX
  8
0
 10
268.419434
 20
276.417982
 42
-0.001305
  0
VERTEX
  8
0
 10
278.207987
 20
272.910919
 42
-0.023186
  0
VERTEX
  8
0
 10
281.305438
 20
271.626795
 42
-0.124851
  0
VERTEX
  8
0
 10
282.361126
 20
270.759418
 42
-0.370703
  0
VERTEX
  8
0
 10
282.295890
 20
269.895890
 42
-0.134770
  0
VERTEX
  8
0
 10
279.593934
 20
268.357908
 42
-0.006734
  0
VERTEX
  8
0
 10
269.595557
 20
265.952654
 42
-0.004881
  0
VERTEX
  8
0
 10
259.292636
 20
263.725970
 42
-0.225392
  0
VERTEX
  8
0
 10
257.250000
 20
264.226463
 42
-0.210587
  0
VERTEX
  8
0
 10
256.066442
 20
266.544830
 42
-0.022573
  0
VERTEX
  8
0
 10
255.993669
 20
272.723945
 42
-0.020503
  0
VERTEX
  8
0
 10
256.447532
 20
278.816203
 42
-0.380815
  0
VERTEX
  8
0
 10
257.776423
 20
280.000000
 42
-0.080566
  0
VERTEX
  8
0
 10
258.195307
 20
279.932063
 42
-0.000771
  0
VERTEX
  8
0
 10
261.134816
 20
278.947782
 42
-0.002548
  0
VERTEX
  8
0
 10
264.515085
 20
277.790904
 42
-0.001644
  0
SEQEND
  0
POLYLINE
  8
0
 66
1
 70
1
  0
VERTEX
  8
0
 10
902.000000
 20
271.666667
 42
-0.007036
  0
VERTEX
  8
0
 10
901.959889
 20
268.816485
 42
-0.010473
  0
VERTEX
  8
0
 10
901.837482
 20
266.324982
 42
-0.005868
  0
VERTEX
  8
0
 10
901.667379
 20
264.249399
 42
-0.174719
  0
VERTEX
  8
0
 10
901.446747
 20
263.780080
 42
-0.235163
  0
VERTEX
  8
0
 10
900.979770
 20
263.623531
 42
-0.007440
  0
VERTEX
  8
0
 10
898.941967
 20
263.938495
 42
-0.013002
  0
VERTEX
  8
0
 10
896.494909
 20
264.419852
 42
-0.008479
  0
VERTEX
  8
0
 10
893.696747
 20
265.096276
 42
0.006136
  0
VERTEX
  8
0
 10
890.790437
 20
265.813275
 42
0.007132
  0
VERTEX
  8
0
 10
888.009251
 20
266.421608
 42
0.006418
  0
VERTEX
  8
0
 10
885.645340
 20
266.871926
 42
0.041795
  0
VERTEX
  8
0
 10
884.441130
 20
266.982862
 42
-0.057180
  0
VERTEX
  8
0
 10
883.512151
 20
267.097291
 42
-0.031478
  0
VERTEX
  8
0
 10
882.416846
 20
267.435787
 42
-0.030953
  0
VERTEX
  8
0
 10
881.335096
 20
267.924786
 42
-0.042945
  0
VERTEX
  8
0
 10
880.441130
 20
268.500666
 42
-0.023449
  0
VERTEX
  8
0
 10
879.278366
 20
269.490039
 42
-0.238957
  0
VERTEX
  8
0
 10
879.067843
 20
270.067156
 42
-0.176785
  0
VERTEX
  8
0
 10
879.380345
 20
270.683449
 42
-0.012218
  0
VERTEX
  8
0
 10
880.860784
 20
272.000666
 42
-0.045883
  0
VERTEX
  8
0
 10
881.957998
 20
272.769141
 42
-0.033009
  0
VERTEX
  8
0
 10
883.303357
 20
273.424493
 42
-0.033558
  0
VERTEX
  8
0
 10
884.678827
 20
273.880624
 42
-0.059545
  0
VERTEX
  8
0
 10
885.860784
 20
274.040160
 42
0.054553
  0
VERTEX
  8
0
 10
887.235494
 20
274.211802
 42
0.015071
  0
VERTEX
  8
0
 10
889.340355
 20
274.779304
 42
0.015035
  0
VERTEX
  8
0
 10
891.700686
 20
275.570829
 42
0.015209
  0
VERTEX
  8
0
 10
894.000000
 20
276.500000
 42
-0.011267
  0
VERTEX
  8
0
 10
899.333025
 20
278.704177
 42
-0.232264
  0
VERTEX
  8
0
 10
901.014783
 20
278.557422
 42
-0.248935
  0
VERTEX
  8
0
 10
901.859086
 20
277.146886
 42
-0.012854
  0
SEQEND
  0
POLYLINE
  8
0
 66
1
 70
1
  0
VERTEX
  8
0
 10
371.493301
 20
247.955863
 42
-0.008766
  0
VERTEX
  8
0
 10
378.158485
 20
247.205706
 42
-0.038487
  0
VERTEX
  8
0
 10
382.031644
 20
246.394149
 42
-0.113736
  0
VERTEX
  8
0
 10
383.699442
 20
245.461293
 42
-0.428615
  0
VERTEX
  8
0
 10
383.725595
 20
244.392261
 42
-0.134433
  0
VERTEX
  8
0
 10
383.157263
 20
244.068263
 42
-0.001961
  0
VERTEX
  8
0
 10
379.368236
 20
243.113075
 42
-0.005214
  0
VERTEX
  8
0
 10
374.933015
 20
242.062436
 42
-0.003398
  0
VERTEX
  8
0
 10
369.792261
 20
240.937812
 42
0.006564
  0
VERTEX
  8
0
 10
351.002754
 20
236.702458
 42
0.006552
  0
VERTEX
  8
0
 10
332.319607
 20
231.972881
 42
0.006402
  0
VERTEX
  8
0
 10
316.128473
 20
227.424741
 42
0.026163
  0
VERTEX
  8
0
 10
306.500000
 20
224.030023
 42
-0.004966
  0
VERTEX
  8
0
 10
305.135372
 20
223.482843
 42
-0.000270
  0
VERTEX
  8
0
 10
300.816698
 20
221.803441
 42
-0.000420
  0
VERTEX
  8
0
 10
295.675985
 20
219.812537
 42
-0.000307
  0
VERTEX
  8
0
 10
289.961098
 20
217.608817
 42
0.006457
  0
VERTEX
  8
0
 10
283.666133
 20
215.092039
 42
0.004775
  0
VERTEX
  8
0
 10
276.766926
 20
212.152261
 42
0.004827
  0
VERTEX
  8
0
 10
270.301941
 20
209.249586
 42
0.010802
  0
VERTEX
  8
0
 10
265.461098
 20
206.891672
 42
0.017122
  0
VERTEX
  8
0
 10
256.875715
 20
202.099413
 42
0.012238
  0
VERTEX
  8
0
 10
247.599417
 20
196.182036
 42
0.011708
  0
VERTEX
  8
0
 10
239.335247
 20
190.335479
 42
0.043363
  0
VERTEX
  8
0
 10
234.562909
 20
186.100589
 42
-0.028764
  0
VERTEX
  8
0
 10
233.301720
 20
184.913932
 42
-0.030949
  0
VERTEX
  8
0
 10
231.941872
 20
183.910798
 42
-0.032551
  0
VERTEX
  8
0
 10
230.677395
 20
183.205801
 42
-0.111340
  0
VERTEX
  8
0
 10
229.764657
 20
183.000000
 42
-0.152827
  0
VERTEX
  8
0
 10
227.776626
 20
183.622183
 42
-0.004031
  0
VERTEX
  8
0
 10
220.132556
 20
189.018160
 42
-0.009154
  0
VERTEX
  8
0
 10
212.185893
 20
194.947729
 42
-0.011783
  0
VERTEX
  8
0
 10
205.116861
 20
200.698386
 42
-0.121214
  0
VERTEX
  8
0
 10
202.659412
 20
204.118442
 42
-0.275664
  0
VERTEX
  8
0
 10
203.136035
 20
207.145799
 42
-0.094874
  0
VERTEX
  8
0
 10
207.224954
 20
210.503317
 42
-0.010941
  0
VERTEX
  8
0
 10
217.834524
 20
215.978683
 42
-0.011664
  0
VERTEX
  8
0
 10
227.559226
 20
220.453007
 42
-0.005533
  0
VERTEX
  8
0
 10
240.281388
 20
225.784363
 42
-0.005391
  0
VERTEX
  8
0
 10
252.793550
 20
230.709220
 42
-0.016055
  0
VERTEX
  8
0
 10
261.500000
 20
233.711756
 42
-0.018667
  0
VERTEX
  8
0
 10
291.505161
 20
241.779081
 42
-0.024140
  0
VERTEX
  8
0
 10
319.568899
 20
246.800429
 42
-0.026001
  0
VERTEX
  8
0
 10
346.099173
 20
248.841759
 42
-0.029845
  0
SEQEND
  0
POLYLINE
  8
0
 66
1
 70
1
  0
VERTEX
  8
0
 10
838.500000
 20
246.489241
 42
-0.011113
  0
VERTEX
  8
0
 10
860.220430
 20
243.334956
 42
-0.018820
  0
VERTEX
  8
0
 10
878.218033
 20
239.610230
 42
-0.018849
  0
VERTEX
  8
0
 10
895.865155
 20
234.547069
 42
-0.011191
  0
VERTEX
  8
0
 10
916.500000
 20
227.259783
 42
-0.014194
  0
VERTEX
  8
0
 10
927.338161
 20
222.801536
 42
-0.010413
  0
VERTEX
  8
0
 10
939.102329
 20
217.270927
 42
-0.009207
  0
VERTEX
  8
0
 10
949.594576
 20
211.825850
 42
-0.050112
  0
VERTEX
  8
0
 10
954.882375
 20
208.229532
 42
-0.057110
  0
VERTEX
  8
0
 10
957.044635
 20
205.951380
 42
-0.234718
  0
VERTEX
  8
0
 10
957.382995
 20
204.134487
 42
-0.144000
  0
VERTEX
  8
0
 10
956.139470
 20
202.164200
 42
-0.018869
  0
VERTEX
  8
0
 10
952.258657
 20
199.000000
 42
0.000094
  0
VERTEX
  8
0
 10
949.988226
 20
197.286575
 42
0.000039
  0
VERTEX
  8
0
 10
946.908196
 20
194.960884
 42
0.000038
  0
VERTEX
  8
0
 10
943.602045
 20
192.463654
 42
0.000049
  0
VERTEX
  8
0
 10
940.559522
 20
190.164713
 42
-0.002794
  0
VERTEX
  8
0
 10
937.739933
 20
188.058439
 42
-0.003527
  0
VERTEX
  8
0
 10
935.106931
 20
186.142926
 42
-0.002807
  0
VERTEX
  8
0
 10
932.879393
 20
184.565147
 42
-0.028201
  0
VERTEX
  8
0
 10
931.910880
 20
183.965630
 42
-0.234303
  0
VERTEX
  8
0
 10
930.584321
 20
183.915742
 42
-0.023958
  0
VERTEX
  8
0
 10
927.700084
 20
185.383090
 42
-0.018622
  0
VERTEX
  8
0
 10
923.479500
 20
188.004368
 42
-0.004871
  0
VERTEX
  8
0
 10
916.910880
 20
192.524767
 42
0.018669
  0
VERTEX
  8
0
 10
902.714567
 20
201.727816
 42
0.025148
  0
VERTEX
  8
0
 10
889.187005
 20
208.900570
 42
0.020718
  0
VERTEX
  8
0
 10
873.126939
 20
215.611737
 42
0.008149
  0
VERTEX
  8
0
 10
850.500000
 20
223.567282
 42
0.008505
  0
VERTEX
  8
0
 10
840.663258
 20
226.661835
 42
0.005458
  0
VERTEX
  8
0
 10
829.150629
 20
229.933273
 42
0.005481
  0
VERTEX
  8
0
 10
817.889504
 20
232.868579
 42
0.011005
  0
VERTEX
  8
0
 10
808.927601
 20
234.891591
 42
-0.001255
  0
VERTEX
  8
0
 10
785.308039
 20
239.741378
 42
-0.008730
  0
VERTEX
  8
0
 10
773.803690
 20
242.343998
 42
-0.010680
  0
VERTEX
  8
0
 10
767.069371
 20
244.144866
 42
-0.570417
  0
VERTEX
  8
0
 10
766.798737
 20
245.198737
 42
-0.190140
  0
VERTEX
  8
0
 10
771.319938
 20
247.161664
 42
-0.003953
  0
VERTEX
  8
0
 10
796.313529
 20
247.809220
 42
-0.009910
  0
VERTEX
  8
0
 10
820.771254
 20
247.764629
 42
-0.025092
  0
SEQEND
  0
ENDSEC
  0
EOF
