  0
SECTION
  2
HEADER
  9
$ACADVER
  1
AC1006
  9
$EXTMIN
 10
0.000000
 20
0.000000
 30
0.000000
  9
$EXTMAX
 10
1296.000000
 20
2046.000000
 30
0.000000
  0
ENDSEC
  0
SECTION
  2
ENTITIES
  0
POLYLINE
  8
0
 66
1
 70
1
  0
VERTEX
  8
0
 10
0.000000
 20
1023.000000
 42
0.000000
  0
VERTEX
  8
0
 10
0.000000
 20
0.000000
 42
0.000000
  0
VERTEX
  8
0
 10
648.000000
 20
0.000000
 42
0.000000
  0
VERTEX
  8
0
 10
1296.000000
 20
0.000000
 42
0.000000
  0
VERTEX
  8
0
 10
1296.000000
 20
1023.000000
 42
0.000000
  0
VERTEX
  8
0
 10
1296.000000
 20
2046.000000
 42
0.000000
  0
VERTEX
  8
0
 10
648.000000
 20
2046.000000
 42
0.000000
  0
VERTEX
  8
0
 10
0.000000
 20
2046.000000
 42
0.000000
  0
SEQEND
  0
POLYLINE
  8
0
 66
1
 70
1
  0
VERTEX
  8
0
 10
1047.353083
 20
1908.000000
 42
-0.018275
  0
VERTEX
  8
0
 10
1051.590014
 20
1887.448002
 42
-0.015462
  0
VERTEX
  8
0
 10
1054.594936
 20
1865.463415
 42
-0.014468
  0
VERTEX
  8
0
 10
1056.391608
 20
1841.864322
 42
-0.011686
  0
VERTEX
  8
0
 10
1056.993473
 20
1816.454199
 42
-0.015148
  0
VERTEX
  8
0
 10
1056.121195
 20
1787.370084
 42
-0.018120
  0
VERTEX
  8
0
 10
1053.480237
 20
1760.091050
 42
-0.019313
  0
VERTEX
  8
0
 10
1049.094855
 20
1734.752045
 42
-0.023617
  0
VERTEX
  8
0
 10
1042.978519
 20
1711.500000
 42
-0.017310
  0
VERTEX
  8
0
 10
1032.206251
 20
1680.955874
 42
-0.029215
  0
VERTEX
  8
0
 10
1020.837812
 20
1656.303643
 42
-0.033397
  0
VERTEX
  8
0
 10
1007.956396
 20
1635.632422
 42
-0.035214
  0
VERTEX
  8
0
 10
992.643340
 20
1617.245624
 42
-0.020296
  0
VERTEX
  8
0
 10
980.352864
 20
1605.437825
 42
-0.023934
  0
VERTEX
  8
0
 10
967.779724
 20
1595.334159
 42
-0.023911
  0
VERTEX
  8
0
 10
954.288009
 20
1586.470588
 42
-0.020187
  0
VERTEX
  8
0
 10
939.240269
 20
1578.384797
 42
-0.000649
  0
VERTEX
  8
0
 10
927.278536
 20
1572.585839
 42
-0.011786
  0
VERTEX
  8
0
 10
923.415975
 20
1570.830539
 42
-0.038054
  0
VERTEX
  8
0
 10
921.336708
 20
1570.125540
 42
-0.144130
  0
VERTEX
  8
0
 10
919.978857
 20
1570.173714
 42
-0.564301
  0
VERTEX
  8
0
 10
919.886502
 20
1570.583767
 42
-0.018158
  0
VERTEX
  8
0
 10
921.430126
 20
1571.961028
 42
-0.019054
  0
VERTEX
  8
0
 10
923.696628
 20
1573.698697
 42
-0.010065
  0
VERTEX
  8
0
 10
926.630245
 20
1575.687887
 42
0.016619
  0
VERTEX
  8
0
 10
935.012389
 20
1581.533350
 42
0.019965
  0
VERTEX
  8
0
 10
942.473253
 20
1587.592870
 42
0.019209
  0
VERTEX
  8
0
 10
949.656519
 20
1594.426490
 42
0.013555
  0
VERTEX
  8
0
 10
957.209777
 20
1602.619091
 42
0.020303
  0
VERTEX
  8
0
 10
970.420005
 20
1619.051990
 42
0.024899
  0
VERTEX
  8
0
 10
981.322954
 20
1635.451981
 42
0.024152
  0
VERTEX
  8
0
 10
990.795698
 20
1653.269991
 42
0.017313
  0
VERTEX
  8
0
 10
999.700354
 20
1674.000000
 42
0.002638
  0
VERTEX
  8
0
 10
1003.223053
 20
1683.196079
 42
0.011156
  0
VERTEX
  8
0
 10
1005.181052
 20
1688.762506
 42
0.010037
  0
VERTEX
  8
0
 10
1006.311260
 20
1692.470613
 42
0.497497
  0
VERTEX
  8
0
 10
1005.910893
 20
1693.000000
 42
0.161540
  0
VERTEX
  8
0
 10
1005.563445
 20
1692.884739
 42
0.096405
  0
VERTEX
  8
0
 10
1005.267575
 20
1692.559375
 42
0.077844
  0
VERTEX
  8
0
 10
1005.067716
 20
1692.073671
 42
0.058815
  0
VERTEX
  8
0
 10
1005.000000
 20
1691.500000
 42
-0.049118
  0
VERTEX
  8
0
 10
1004.943474
 20
1690.925976
 42
-0.069116
  0
VERTEX
  8
0
 10
1004.774879
 20
1690.440625
 42
-0.089295
  0
VERTEX
  8
0
 10
1004.526241
 20
1690.113867
 42
-0.187715
  0
VERTEX
  8
0
 10
1004.233631
 20
1690.000000
 42
0.228937
  0
VERTEX
  8
0
 10
1003.805237
 20
1689.793000
 42
0.009006
  0
VERTEX
  8
0
 10
1002.716386
 20
1688.368241
 42
0.014383
  0
VERTEX
  8
0
 10
1001.473489
 20
1686.573827
 42
0.009493
  0
VERTEX
  8
0
 10
1000.144718
 20
1684.445076
 42
-0.029825
  0
VERTEX
  8
0
 10
994.648108
 20
1676.387782
 42
-0.019953
  0
VERTEX
  8
0
 10
987.471374
 20
1667.836170
 42
-0.019171
  0
VERTEX
  8
0
 10
979.228846
 20
1659.444669
 42
-0.020158
  0
VERTEX
  8
0
 10
970.500000
 20
1651.854923
 42
-0.012618
  0
VERTEX
  8
0
 10
961.734343
 20
1645.188987
 42
-0.008951
  0
VERTEX
  8
0
 10
951.586865
 20
1638.141546
 42
-0.003133
  0
VERTEX
  8
0
 10
941.571432
 20
1631.538751
 42
-0.202094
  0
VERTEX
  8
0
 10
939.558621
 20
1631.177107
 42
-0.494846
  0
VERTEX
  8
0
 10
939.271343
 20
1631.802310
 42
-0.020068
  0
VERTEX
  8
0
 10
940.721980
 20
1634.287025
 42
-0.017961
  0
VERTEX
  8
0
 10
943.196636
 20
1637.869593
 42
-0.005791
  0
VERTEX
  8
0
 10
947.112931
 20
1643.000000
 42
0.016129
  0
VERTEX
  8
0
 10
954.926492
 20
1653.686891
 42
0.019926
  0
VERTEX
  8
0
 10
961.470668
 20
1664.143209
 42
0.018326
  0
VERTEX
  8
0
 10
967.568954
 20
1675.779463
 42
0.010709
  0
VERTEX
  8
0
 10
974.056080
 20
1690.126052
 42
-0.001145
  0
VERTEX
  8
0
 10
976.803494
 20
1696.525391
 42
-0.001627
  0
VERTEX
  8
0
 10
979.277202
 20
1702.200230
 42
-0.000904
  0
VERTEX
  8
0
 10
981.391805
 20
1706.984982
 42
-0.023888
  0
VERTEX
  8
0
 10
982.020763
 20
1708.236431
 42
0.036087
  0
VERTEX
  8
0
 10
982.395636
 20
1709.029955
 42
0.024337
  0
VERTEX
  8
0
 10
982.711308
 20
1709.980834
 42
0.024562
  0
VERTEX
  8
0
 10
982.927556
 20
1710.935525
 42
0.043941
  0
VERTEX
  8
0
 10
982.996454
 20
1711.736431
 42
0.363160
  0
VERTEX
  8
0
 10
982.685989
 20
1712.105993
 42
0.204522
  0
VERTEX
  8
0
 10
982.077810
 20
1711.964814
 42
0.050410
  0
VERTEX
  8
0
 10
980.954335
 20
1710.954714
 42
0.011176
  0
VERTEX
  8
0
 10
979.255757
 20
1709.000000
 42
-0.015231
  0
VERTEX
  8
0
 10
972.560581
 20
1701.420246
 42
-0.012910
  0
VERTEX
  8
0
 10
965.046030
 20
1693.820892
 42
-0.012763
  0
VERTEX
  8
0
 10
957.047765
 20
1686.522649
 42
-0.013857
  0
VERTEX
  8
0
 10
948.899062
 20
1679.845991
 42
-0.010613
  0
VERTEX
  8
0
 10
937.979931
 20
1671.758680
 42
-0.019244
  0
VERTEX
  8
0
 10
928.670640
 20
1665.688948
 42
-0.014378
  0
VERTEX
  8
0
 10
917.268084
 20
1659.302604
 42
-0.003557
  0
VERTEX
  8
0
 10
898.206897
 20
1649.507645
 42
0.006854
  0
VERTEX
  8
0
 10
886.602625
 20
1643.447524
 42
0.010481
  0
VERTEX
  8
0
 10
876.728217
 20
1637.846877
 42
0.012122
  0
VERTEX
  8
0
 10
868.475872
 20
1632.659862
 42
0.020464
  0
VERTEX
  8
0
 10
861.856096
 20
1627.870550
 42
-0.007838
  0
VERTEX
  8
0
 10
860.414151
 20
1626.770817
 42
-0.011160
  0
VERTEX
  8
0
 10
859.097004
 20
1625.843224
 42
-0.007345
  0
VERTEX
  8
0
 10
857.975656
 20
1625.114053
 42
-0.141399
  0
VERTEX
  8
0
 10
857.580416
 20
1625.000000
 42
-0.654702
  0
VERTEX
  8
0
 10
856.844483
 20
1626.686547
 42
-0.007424
  0
VERTEX
  8
0
 10
868.161569
 20
1638.528274
 42
-0.011855
  0
VERTEX
  8
0
 10
882.764932
 20
1652.674276
 42
-0.008081
  0
VERTEX
  8
0
 10
899.998451
 20
1668.085106
 42
0.003583
  0
VERTEX
  8
0
 10
913.674101
 20
1680.094745
 42
0.009540
  0
VERTEX
  8
0
 10
923.206892
 20
1688.919931
 42
0.012647
  0
VERTEX
  8
0
 10
930.660943
 20
1696.461654
 42
0.013722
  0
VERTEX
  8
0
 10
937.517851
 20
1704.172968
 42
0.022893
  0
VERTEX
  8
0
 10
947.434206
 20
1717.120382
 42
0.011040
  0
VERTEX
  8
0
 10
958.986127
 20
1734.533549
 42
0.004122
  0
VERTEX
  8
0
 10
969.987892
 20
1752.261724
 42
0.585235
  0
VERTEX
  8
0
 10
969.011432
 20
1754.000000
 42
0.145533
  0
VERTEX
  8
0
 10
968.303124
 20
1753.789374
 42
0.009566
  0
VERTEX
  8
0
 10
966.519715
 20
1752.576579
 42
0.013226
  0
VERTEX
  8
0
 10
964.428590
 20
1751.010566
 42
0.009460
  0
VERTEX
  8
0
 10
962.171045
 20
1749.154312
 42
-0.021036
  0
VERTEX
  8
0
 10
953.296041
 20
1742.194825
 42
-0.014084
  0
VERTEX
  8
0
 10
942.608005
 20
1734.964372
 42
-0.013780
  0
VERTEX
  8
0
 10
931.169327
 20
1728.122383
 42
-0.016368
  0
VERTEX
  8
0
 10
920.000000
 20
1722.325077
 42
0.000022
  0
VERTEX
  8
0
 10
917.542674
 20
1721.149939
 42
0.000005
  0
VERTEX
  8
0
 10
913.443750
 20
1719.189491
 42
0.000005
  0
VERTEX
  8
0
 10
908.732813
 20
1716.936207
 42
0.000005
  0
VERTEX
  8
0
 10
904.000000
 20
1714.672338
 42
0.024707
  0
VERTEX
  8
0
 10
885.431020
 20
1704.634395
 42
0.030027
  0
VERTEX
  8
0
 10
869.166397
 20
1693.386926
 42
0.028459
  0
VERTEX
  8
0
 10
853.691146
 20
1679.760381
 42
0.018843
  0
VERTEX
  8
0
 10
837.473725
 20
1662.500000
 42
-0.007274
  0
VERTEX
  8
0
 10
812.168065
 20
1634.286643
 42
-0.020687
  0
VERTEX
  8
0
 10
793.468925
 20
1615.648734
 42
-0.023041
  0
VERTEX
  8
0
 10
774.448009
 20
1599.747050
 42
-0.010996
  0
VERTEX
  8
0
 10
748.652049
 20
1581.007843
 42
0.012450
  0
VERTEX
  8
0
 10
744.615772
 20
1578.057774
 42
0.516771
  0
VERTEX
  8
0
 10
744.651819
 20
1577.138830
 42
0.231347
  0
VERTEX
  8
0
 10
746.120360
 20
1576.957362
 42
0.007868
  0
VERTEX
  8
0
 10
751.742405
 20
1578.993542
 42
-0.016805
  0
VERTEX
  8
0
 10
757.068039
 20
1580.815380
 42
-0.008771
  0
VERTEX
  8
0
 10
763.812457
 20
1582.743520
 42
-0.008378
  0
VERTEX
  8
0
 10
771.188071
 20
1584.581017
 42
-0.008806
  0
VERTEX
  8
0
 10
778.500000
 20
1586.137920
 42
-0.026868
  0
VERTEX
  8
0
 10
782.740604
 20
1586.728851
 42
-0.009116
  0
VERTEX
  8
0
 10
788.955424
 20
1587.142776
 42
-0.007850
  0
VERTEX
  8
0
 10
796.719091
 20
1587.395745
 42
-0.004627
  0
VERTEX
  8
0
 10
806.000000
 20
1587.466443
 42
-0.003978
  0
VERTEX
  8
0
 10
817.409704
 20
1587.356997
 42
-0.013891
  0
VERTEX
  8
0
 10
824.763418
 20
1587.023450
 42
-0.018904
  0
VERTEX
  8
0
 10
830.824424
 20
1586.348457
 42
-0.013773
  0
VERTEX
  8
0
 10
837.500000
 20
1585.159498
 42
-0.032217
  0
VERTEX
  8
0
 10
859.094924
 20
1579.224426
 42
-0.032885
  0
VERTEX
  8
0
 10
879.595672
 20
1570.596161
 42
-0.030978
  0
VERTEX
  8
0
 10
899.837309
 20
1558.843288
 42
-0.023016
  0
VERTEX
  8
0
 10
920.669333
 20
1543.525900
 42
-0.021079
  0
VERTEX
  8
0
 10
932.558150
 20
1533.052457
 42
-0.010423
  0
VERTEX
  8
0
 10
946.790386
 20
1518.826252
 42
-0.008654
  0
VERTEX
  8
0
 10
963.490930
 20
1500.807819
 42
-0.004910
  0
VERTEX
  8
0
 10
983.110179
 20
1478.453633
 42
0.006339
  0
VERTEX
  8
0
 10
999.335103
 20
1460.073218
 42
0.012608
  0
VERTEX
  8
0
 10
1012.728631
 20
1446.012009
 42
0.015719
  0
VERTEX
  8
0
 10
1024.360729
 20
1435.108833
 42
0.024781
  0
VERTEX
  8
0
 10
1035.065737
 20
1426.591503
 42
0.022343
  0
VERTEX
  8
0
 10
1043.608150
 20
1421.021047
 42
0.014351
  0
VERTEX
  8
0
 10
1053.968025
 20
1415.301187
 42
0.014430
  0
VERTEX
  8
0
 10
1064.376281
 20
1410.313064
 42
0.027973
  0
VERTEX
  8
0
 10
1073.000000
 20
1407.046207
 42
0.047253
  0
VERTEX
  8
0
 10
1092.581938
 20
1402.836624
 42
0.046216
  0
VERTEX
  8
0
 10
1112.754729
 20
1402.333252
 42
0.047570
  0
VERTEX
  8
0
 10
1132.090042
 20
1405.502938
 42
0.057727
  0
VERTEX
  8
0
 10
1149.185369
 20
1412.190324
 42
-0.012302
  0
VERTEX
  8
0
 10
1151.444490
 20
1413.319762
 42
-0.016971
  0
VERTEX
  8
0
 10
1153.528746
 20
1414.213434
 42
-0.013620
  0
VERTEX
  8
0
 10
1155.276344
 20
1414.839273
 42
-0.160968
  0
VERTEX
  8
0
 10
1155.987627
 20
1414.837458
 42
-0.514226
  0
VERTEX
  8
0
 10
1156.126383
 20
1414.387491
 42
-0.010573
  0
VERTEX
  8
0
 10
1154.409941
 20
1412.229640
 42
-0.015517
  0
VERTEX
  8
0
 10
1152.058942
 20
1409.571361
 42
-0.008705
  0
VERTEX
  8
0
 10
1149.048382
 20
1406.482581
 42
-0.042565
  0
VERTEX
  8
0
 10
1134.532297
 20
1394.361359
 42
-0.056476
  0
VERTEX
  8
0
 10
1119.426778
 20
1386.151873
 42
-0.055774
  0
VERTEX
  8
0
 10
1102.715990
 20
1381.463018
 42
-0.040142
  0
VERTEX
  8
0
 10
1083.389208
 20
1379.876993
 42
-0.005679
  0
VERTEX
  8
0
 10
1075.343335
 20
1379.955200
 42
-0.019447
  0
VERTEX
  8
0
 10
1070.123203
 20
1380.268614
 42
-0.018716
  0
VERTEX
  8
0
 10
1064.843441
 20
1380.992647
 42
-0.004969
  0
VERTEX
  8
0
 10
1056.482880
 20
1382.545555
 42
-0.025554
  0
VERTEX
  8
0
 10
1045.337259
 20
1385.328482
 42
-0.012100
  0
VERTEX
  8
0
 10
1031.273575
 20
1389.988745
 42
-0.010869
  0
VERTEX
  8
0
 10
1015.258514
 20
1396.125285
 42
-0.008296
  0
VERTEX
  8
0
 10
998.000000
 20
1403.508578
 42
0.008735
  0
VERTEX
  8
0
 10
980.755718
 20
1410.867865
 42
0.011663
  0
VERTEX
  8
0
 10
964.841111
 20
1416.904935
 42
0.012968
  0
VERTEX
  8
0
 10
950.366639
 20
1421.594433
 42
0.019474
  0
VERTEX
  8
0
 10
937.500000
 20
1424.858395
 42
0.022500
  0
VERTEX
  8
0
 10
924.333996
 20
1427.043957
 42
0.016023
  0
VERTEX
  8
0
 10
909.436794
 20
1428.350255
 42
0.015799
  0
VERTEX
  8
0
 10
894.182574
 20
1428.713755
 42
0.019281
  0
VERTEX
  8
0
 10
879.921932
 20
1428.052628
 42
0.011239
  0
VERTEX
  8
0
 10
869.910773
 20
1426.973667
 42
0.010304
  0
VERTEX
  8
0
 10
859.662654
 20
1425.420149
 42
0.005274
  0
VERTEX
  8
0
 10
850.381501
 20
1423.715921
 42
0.149410
  0
VERTEX
  8
0
 10
848.247926
 20
1422.581259
 42
0.451928
  0
VERTEX
  8
0
 10
848.313034
 20
1421.557545
 42
0.107570
  0
VERTEX
  8
0
 10
850.066969
 20
1420.723125
 42
0.042535
  0
VERTEX
  8
0
 10
853.775375
 20
1420.182665
 42
0.014487
  0
VERTEX
  8
0
 10
859.219726
 20
1420.015313
 42
-0.029716
  0
VERTEX
  8
0
 10
875.086024
 20
1419.043558
 42
-0.015163
  0
VERTEX
  8
0
 10
894.830844
 20
1416.041078
 42
-0.014882
  0
VERTEX
  8
0
 10
915.344370
 20
1411.647460
 42
-0.019523
  0
VERTEX
  8
0
 10
933.757038
 20
1406.356895
 42
-0.011597
  0
VERTEX
  8
0
 10
945.790542
 20
1402.072720
 42
-0.005749
  0
VERTEX
  8
0
 10
960.860264
 20
1396.110921
 42
-0.005735
  0
VERTEX
  8
0
 10
976.153696
 20
1389.650580
 42
-0.009262
  0
VERTEX
  8
0
 10
989.000000
 20
1383.763943
 42
0.000039
  0
VERTEX
  8
0
 10
994.674811
 20
1381.035793
 42
0.000023
  0
VERTEX
  8
0
 10
1001.433690
 20
1377.787521
 42
0.000023
  0
VERTEX
  8
0
 10
1008.171146
 20
1374.550320
 42
0.000040
  0
VERTEX
  8
0
 10
1013.774265
 20
1371.859023
 42
0.015434
  0
VERTEX
  8
0
 10
1037.856310
 20
1361.195960
 42
0.020651
  0
VERTEX
  8
0
 10
1060.342661
 20
1353.123300
 42
0.022326
  0
VERTEX
  8
0
 10
1081.855575
 20
1347.429612
 42
0.024986
  0
VERTEX
  8
0
 10
1103.000000
 20
1343.927782
 42
0.024243
  0
VERTEX
  8
0
 10
1112.968204
 20
1343.272047
 42
0.009603
  0
VERTEX
  8
0
 10
1126.699226
 20
1343.299416
 42
0.008667
  0
VERTEX
  8
0
 10
1140.038640
 20
1343.813666
 42
0.042495
  0
VERTEX
  8
0
 10
1147.500000
 20
1344.871258
 42
-0.004941
  0
VERTEX
  8
0
 10
1153.499008
 20
1346.186708
 42
-0.028691
  0
VERTEX
  8
0
 10
1156.701580
 20
1346.666184
 42
-0.148956
  0
VERTEX
  8
0
 10
1157.813878
 20
1346.435504
 42
-0.508677
  0
VERTEX
  8
0
 10
1157.893700
 20
1345.822271
 42
-0.080435
  0
VERTEX
  8
0
 10
1153.992401
 20
1343.161377
 42
-0.016851
  0
VERTEX
  8
0
 10
1146.365732
 20
1339.897650
 42
-0.017299
  0
VERTEX
  8
0
 10
1137.173725
 20
1336.686773
 42
-0.015772
  0
VERTEX
  8
0
 10
1127.495763
 20
1334.009093
 42
-0.014776
  0
VERTEX
  8
0
 10
1115.595488
 20
1331.487147
 42
-0.019562
  0
VERTEX
  8
0
 10
1104.629594
 20
1329.939969
 42
-0.019336
  0
VERTEX
  8
0
 10
1093.475491
 20
1329.243281
 42
-0.013922
  0
VERTEX
  8
0
 10
1081.000000
 20
1329.294816
 42
-0.024140
  0
VERTEX
  8
0
 10
1059.619457
 20
1331.014174
 42
-0.028427
  0
VERTEX
  8
0
 10
1039.658841
 20
1334.756882
 42
-0.021546
  0
VERTEX
  8
0
 10
1016.266486
 20
1341.617286
 42
-0.007364
  0
VERTEX
  8
0
 10
982.963177
 20
1353.513769
 42
0.007389
  0
VERTEX
  8
0
 10
967.447621
 20
1359.055274
 42
0.008609
  0
VERTEX
  8
0
 10
952.541984
 20
1363.847089
 42
0.009314
  0
VERTEX
  8
0
 10
938.839407
 20
1367.716167
 42
0.014928
  0
VERTEX
  8
0
 10
927.000000
 20
1370.447290
 42
-0.000764
  0
VERTEX
  8
0
 10
923.452361
 20
1371.160484
 42
-0.000712
  0
VERTEX
  8
0
 10
919.821875
 20
1371.901488
 42
-0.000709
  0
VERTEX
  8
0
 10
916.597137
 20
1372.569224
 42
-0.002415
  0
VERTEX
  8
0
 10
914.500000
 20
1373.017155
 42
0.038841
  0
VERTEX
  8
0
 10
900.408703
 20
1374.968715
 42
0.011228
  0
VERTEX
  8
0
 10
878.438327
 20
1375.793482
 42
0.011616
  0
VERTEX
  8
0
 10
856.078226
 20
1375.610939
 42
0.029933
  0
VERTEX
  8
0
 10
840.000000
 20
1374.139810
 42
0.027479
  0
VERTEX
  8
0
 10
822.696579
 20
1370.523338
 42
0.023657
  0
VERTEX
  8
0
 10
804.987707
 20
1364.884147
 42
0.023376
  0
VERTEX
  8
0
 10
787.660974
 20
1357.510790
 42
0.025025
  0
VERTEX
  8
0
 10
771.500000
 20
1348.700491
 42
0.012305
  0
VERTEX
  8
0
 10
764.677091
 20
1344.290861
 42
0.021233
  0
VERTEX
  8
0
 10
759.259329
 20
1340.250041
 42
0.019719
  0
VERTEX
  8
0
 10
753.941191
 20
1335.559920
 42
0.009031
  0
VERTEX
  8
0
 10
747.365119
 20
1329.051545
 42
0.026591
  0
VERTEX
  8
0
 10
737.442714
 20
1317.723339
 42
0.027804
  0
VERTEX
  8
0
 10
728.936329
 20
1305.567548
 42
0.029632
  0
VERTEX
  8
0
 10
722.414835
 20
1293.508199
 42
0.047597
  0
VERTEX
  8
0
 10
718.503826
 20
1282.500000
 42
0.022199
  0
VERTEX
  8
0
 10
717.610542
 20
1278.135018
 42
0.029042
  0
VERTEX
  8
0
 10
717.206439
 20
1274.083130
 42
0.019687
  0
VERTEX
  8
0
 10
717.196350
 20
1268.954339
 42
0.004793
  0
VERTEX
  8
0
 10
717.593904
 20
1260.500000
 42
-0.009713
  0
VERTEX
  8
0
 10
718.345807
 20
1240.269339
 42
-0.032358
  0
VERTEX
  8
0
 10
717.721759
 20
1226.993157
 42
-0.047835
  0
VERTEX
  8
0
 10
715.621656
 20
1217.005986
 42
-0.053638
  0
VERTEX
  8
0
 10
711.707051
 20
1208.000000
 42
-0.052096
  0
VERTEX
  8
0
 10
706.042118
 20
1200.086711
 42
-0.060168
  0
VERTEX
  8
0
 10
699.104272
 20
1193.937566
 42
-0.057616
  0
VERTEX
  8
0
 10
690.640326
 20
1189.423991
 42
-0.042199
  0
VERTEX
  8
0
 10
680.432079
 20
1186.372652
 42
-0.055038
  0
VERTEX
  8
0
 10
670.189875
 20
1185.384885
 42
-0.067263
  0
VERTEX
  8
0
 10
660.680011
 20
1186.804125
 42
-0.067226
  0
VERTEX
  8
0
 10
651.883882
 20
1190.697679
 42
-0.054894
  0
VERTEX
  8
0
 10
643.750000
 20
1197.018884
 42
-0.023336
  0
VERTEX
  8
0
 10
639.470746
 20
1201.577434
 42
-0.135012
  0
VERTEX
  8
0
 10
638.080891
 20
1204.539333
 42
-0.252582
  0
VERTEX
  8
0
 10
638.831648
 20
1206.771319
 42
-0.090463
  0
VERTEX
  8
0
 10
641.750000
 20
1208.646309
 42
0.010657
  0
VERTEX
  8
0
 10
647.081380
 20
1210.975873
 42
0.032848
  0
VERTEX
  8
0
 10
650.534570
 20
1212.857596
 42
0.037162
  0
VERTEX
  8
0
 10
653.478159
 20
1215.044199
 42
0.016864
  0
VERTEX
  8
0
 10
657.002069
 20
1218.306811
 42
0.041537
  0
VERTEX
  8
0
 10
661.892376
 20
1224.029464
 42
0.048669
  0
VERTEX
  8
0
 10
665.481091
 20
1230.198979
 42
0.051515
  0
VERTEX
  8
0
 10
667.655602
 20
1236.617640
 42
0.058281
  0
VERTEX
  8
0
 10
668.351658
 20
1243.081285
 42
0.083769
  0
VERTEX
  8
0
 10
666.579183
 20
1253.030425
 42
0.066044
  0
VERTEX
  8
0
 10
661.564546
 20
1262.773007
 42
0.066238
  0
VERTEX
  8
0
 10
654.202197
 20
1270.843743
 42
0.085447
  0
VERTEX
  8
0
 10
645.552015
 20
1275.894654
 42
0.035897
  0
VERTEX
  8
0
 10
638.543406
 20
1277.957594
 42
0.027116
  0
VERTEX
  8
0
 10
630.619583
 20
1279.238585
 42
0.027138
  0
VERTEX
  8
0
 10
622.612534
 20
1279.653685
 42
0.036201
  0
VERTEX
  8
0
 10
615.353867
 20
1279.109456
 42
0.057671
  0
VERTEX
  8
0
 10
598.714408
 20
1274.639844
 42
0.092189
  0
VERTEX
  8
0
 10
586.293213
 20
1266.826526
 42
0.106593
  0
VERTEX
  8
0
 10
578.685324
 20
1256.011963
 42
0.100506
  0
VERTEX
  8
0
 10
576.000000
 20
1242.787834
 42
0.085748
  0
VERTEX
  8
0
 10
577.748756
 20
1232.665789
 42
0.075087
  0
VERTEX
  8
0
 10
582.826246
 20
1223.193266
 42
0.071704
  0
VERTEX
  8
0
 10
590.734664
 20
1215.280186
 42
0.067162
  0
VERTEX
  8
0
 10
600.726250
 20
1209.712156
 42
-0.014213
  0
VERTEX
  8
0
 10
602.596007
 20
1208.915654
 42
-0.017643
  0
VERTEX
  8
0
 10
604.284747
 20
1208.065433
 42
-0.016103
  0
VERTEX
  8
0
 10
605.635470
 20
1207.266929
 42
-0.113260
  0
VERTEX
  8
0
 10
606.168801
 20
1206.726874
 42
-0.292155
  0
VERTEX
  8
0
 10
606.126757
 20
1203.907903
 42
-0.038696
  0
VERTEX
  8
0
 10
602.289031
 20
1198.970753
 42
-0.040288
  0
VERTEX
  8
0
 10
596.936171
 20
1193.962455
 42
-0.050207
  0
VERTEX
  8
0
 10
591.209573
 20
1190.281427
 42
-0.023765
  0
VERTEX
  8
0
 10
585.164074
 20
1187.556670
 42
-0.040014
  0
VERTEX
  8
0
 10
579.844564
 20
1185.934814
 42
-0.040346
  0
VERTEX
  8
0
 10
574.365630
 20
1185.188952
 42
-0.024639
  0
VERTEX
  8
0
 10
567.835173
 20
1185.153789
 42
-0.043067
  0
VERTEX
  8
0
 10
560.423127
 20
1186.122557
 42
-0.046517
  0
VERTEX
  8
0
 10
553.483910
 20
1188.337828
 42
-0.046189
  0
VERTEX
  8
0
 10
547.031921
 20
1191.814902
 42
-0.041378
  0
VERTEX
  8
0
 10
541.067781
 20
1196.533368
 42
-0.067238
  0
VERTEX
  8
0
 10
532.167983
 20
1207.438235
 42
-0.073972
  0
VERTEX
  8
0
 10
526.829243
 20
1219.976271
 42
-0.065462
  0
VERTEX
  8
0
 10
524.981419
 20
1234.784938
 42
-0.039088
  0
VERTEX
  8
0
 10
526.486125
 20
1252.500000
 42
0.039489
  0
VERTEX
  8
0
 10
527.872237
 20
1268.975080
 42
0.061247
  0
VERTEX
  8
0
 10
526.203832
 20
1283.128104
 42
0.058939
  0
VERTEX
  8
0
 10
521.084265
 20
1296.836340
 42
0.033621
  0
VERTEX
  8
0
 10
511.945475
 20
1312.000000
 42
0.056084
  0
VERTEX
  8
0
 10
495.985937
 20
1330.135911
 42
0.039316
  0
VERTEX
  8
0
 10
474.446219
 20
1346.801380
 42
0.038207
  0
VERTEX
  8
0
 10
449.739316
 20
1360.412431
 42
0.043451
  0
VERTEX
  8
0
 10
424.271493
 20
1369.430222
 42
0.032856
  0
VERTEX
  8
0
 10
400.177066
 20
1374.008494
 42
0.025612
  0
VERTEX
  8
0
 10
373.584136
 20
1375.896405
 42
0.024522
  0
VERTEX
  8
0
 10
345.643954
 20
1375.075496
 42
0.023465
  0
VERTEX
  8
0
 10
317.500000
 20
1371.529704
 42
0.019653
  0
VERTEX
  8
0
 10
302.936306
 20
1368.401972
 42
0.008800
  0
VERTEX
  8
0
 10
284.045587
 20
1363.205355
 42
0.008180
  0
VERTEX
  8
0
 10
262.862653
 20
1356.596807
 42
0.007218
  0
VERTEX
  8
0
 10
241.000000
 20
1349.030013
 42
-0.002528
  0
VERTEX
  8
0
 10
236.047828
 20
1347.263852
 42
-0.002000
  0
VERTEX
  8
0
 10
230.675000
 20
1345.402332
 42
-0.002021
  0
VERTEX
  8
0
 10
225.674480
 20
1343.714719
 42
-0.005031
  0
VERTEX
  8
0
 10
222.000000
 20
1342.532085
 42
0.000604
  0
VERTEX
  8
0
 10
218.798789
 20
1341.532968
 42
0.000495
  0
VERTEX
  8
0
 10
215.381250
 20
1340.458086
 42
0.000500
  0
VERTEX
  8
0
 10
212.242114
 20
1339.463896
 42
0.001325
  0
VERTEX
  8
0
 10
210.000000
 20
1338.744788
 42
-0.003888
  0
VERTEX
  8
0
 10
207.951263
 20
1338.099264
 42
-0.002308
  0
VERTEX
  8
0
 10
205.500000
 20
1337.360174
 42
-0.002309
  0
VERTEX
  8
0
 10
203.048355
 20
1336.645597
 42
-0.003979
  0
VERTEX
  8
0
 10
201.000000
 20
1336.076415
 42
0.001083
  0
VERTEX
  8
0
 10
199.057519
 20
1335.548751
 42
0.000835
  0
VERTEX
  8
0
 10
196.940625
 20
1334.964977
 42
0.000844
  0
VERTEX
  8
0
 10
194.964245
 20
1334.412804
 42
0.002018
  0
VERTEX
  8
0
 10
193.500000
 20
1333.994665
 42
-0.023710
  0
VERTEX
  8
0
 10
184.617348
 20
1331.869921
 42
-0.021124
  0
VERTEX
  8
0
 10
175.224735
 20
1330.497042
 42
-0.017312
  0
VERTEX
  8
0
 10
164.155384
 20
1329.740101
 42
-0.008446
  0
VERTEX
  8
0
 10
150.000000
 20
1329.502808
 42
-0.008656
  0
VERTEX
  8
0
 10
134.382335
 20
1329.775233
 42
-0.026195
  0
VERTEX
  8
0
 10
123.790271
 20
1330.700466
 42
-0.030470
  0
VERTEX
  8
0
 10
114.249394
 20
1332.638759
 42
-0.015414
  0
VERTEX
  8
0
 10
102.500000
 20
1336.172778
 42
-0.013884
  0
VERTEX
  8
0
 10
94.397076
 20
1339.137624
 42
-0.014653
  0
VERTEX
  8
0
 10
86.617587
 20
1342.498861
 42
-0.007297
  0
VERTEX
  8
0
 10
79.843202
 20
1345.785781
 42
-0.283355
  0
VERTEX
  8
0
 10
79.000000
 20
1347.154211
 42
-0.214985
  0
VERTEX
  8
0
 10
79.172348
 20
1347.536522
 42
-0.134794
  0
VERTEX
  8
0
 10
79.620359
 20
1347.756136
 42
-0.080745
  0
VERTEX
  8
0
 10
80.334459
 20
1347.775181
 42
-0.036855
  0
VERTEX
  8
0
 10
81.250000
 20
1347.581808
 42
0.043178
  0
VERTEX
  8
0
 10
93.943229
 20
1345.067815
 42
0.016490
  0
VERTEX
  8
0
 10
111.924708
 20
1343.694089
 42
0.016679
  0
VERTEX
  8
0
 10
130.292002
 20
1343.511951
 42
0.035006
  0
VERTEX
  8
0
 10
144.500000
 20
1344.843169
 42
0.017600
  0
VERTEX
  8
0
 10
161.018024
 20
1348.167486
 42
0.018588
  0
VERTEX
  8
0
 10
176.959121
 20
1352.595937
 42
0.017917
  0
VERTEX
  8
0
 10
193.043828
 20
1358.357646
 42
0.014183
  0
VERTEX
  8
0
 10
210.000000
 20
1365.690372
 42
-0.003235
  0
VERTEX
  8
0
 10
213.237586
 20
1367.175432
 42
-0.002541
  0
VERTEX
  8
0
 10
216.765625
 20
1368.744648
 42
-0.002568
  0
VERTEX
  8
0
 10
220.061107
 20
1370.170272
 42
-0.006319
  0
VERTEX
  8
0
 10
222.500000
 20
1371.174262
 42
0.005886
  0
VERTEX
  8
0
 10
224.875713
 20
1372.149839
 42
0.002726
  0
VERTEX
  8
0
 10
227.940625
 20
1373.470569
 42
0.002700
  0
VERTEX
  8
0
 10
231.146093
 20
1374.893301
 42
0.003754
  0
VERTEX
  8
0
 10
234.000000
 20
1376.204343
 42
-0.001113
  0
VERTEX
  8
0
 10
236.889311
 20
1377.550173
 42
-0.000741
  0
VERTEX
  8
0
 10
240.206250
 20
1379.080247
 42
-0.000746
  0
VERTEX
  8
0
 10
243.428727
 20
1380.555135
 42
-0.001462
  0
VERTEX
  8
0
 10
246.000000
 20
1381.718269
 42
-0.009474
  0
VERTEX
  8
0
 10
290.207212
 20
1400.562281
 42
-0.027280
  0
VERTEX
  8
0
 10
321.733894
 20
1411.341516
 42
-0.033691
  0
VERTEX
  8
0
 10
350.313127
 20
1417.359615
 42
-0.022186
  0
VERTEX
  8
0
 10
383.771014
 20
1420.575477
 42
0.007217
  0
VERTEX
  8
0
 10
392.161591
 20
1421.129159
 42
0.042650
  0
VERTEX
  8
0
 10
396.500987
 20
1421.854298
 42
0.560998
  0
VERTEX
  8
0
 10
396.753341
 20
1422.677441
 42
0.161099
  0
VERTEX
  8
0
 10
395.290898
 20
1423.527108
 42
-0.001609
  0
VERTEX
  8
0
 10
393.940624
 20
1423.815039
 42
-0.000696
  0
VERTEX
  8
0
 10
392.144826
 20
1424.206637
 42
-0.000689
  0
VERTEX
  8
0
 10
390.235634
 20
1424.628507
 42
-0.000914
  0
VERTEX
  8
0
 10
388.500000
 20
1425.017867
 42
0.017127
  0
VERTEX
  8
0
 10
379.814280
 20
1426.672607
 42
0.018733
  0
VERTEX
  8
0
 10
371.291169
 20
1427.670443
 42
0.014952
  0
VERTEX
  8
0
 10
361.247500
 20
1428.164787
 42
0.006084
  0
VERTEX
  8
0
 10
347.561722
 20
1428.262095
 42
0.010512
  0
VERTEX
  8
0
 10
325.855848
 20
1427.695841
 42
0.030865
  0
VERTEX
  8
0
 10
310.999215
 20
1426.072800
 42
0.029178
  0
VERTEX
  8
0
 10
296.010563
 20
1422.581254
 42
0.008607
  0
VERTEX
  8
0
 10
273.500000
 20
1415.508829
 42
0.002999
  0
VERTEX
  8
0
 10
259.763924
 20
1410.840253
 42
0.005929
  0
VERTEX
  8
0
 10
248.928407
 20
1406.940348
 42
0.006580
  0
VERTEX
  8
0
 10
238.954835
 20
1403.066231
 42
0.004836
  0
VERTEX
  8
0
 10
228.000000
 20
1398.520491
 42
-0.011662
  0
VERTEX
  8
0
 10
205.271907
 20
1389.451085
 42
-0.026478
  0
VERTEX
  8
0
 10
187.623473
 20
1383.925767
 42
-0.032547
  0
VERTEX
  8
0
 10
171.954495
 20
1380.987085
 42
-0.030419
  0
VERTEX
  8
0
 10
155.676493
 20
1380.017364
 42
-0.033649
  0
VERTEX
  8
0
 10
137.760198
 20
1381.248174
 42
-0.053931
  0
VERTEX
  8
0
 10
122.901414
 20
1384.941417
 42
-0.057315
  0
VERTEX
  8
0
 10
109.822231
 20
1391.517568
 42
-0.044364
  0
VERTEX
  8
0
 10
97.303721
 20
1401.416185
 42
-0.014208
  0
VERTEX
  8
0
 10
92.453383
 20
1406.273730
 42
-0.022432
  0
VERTEX
  8
0
 10
88.609534
 20
1410.733264
 42
-0.024595
  0
VERTEX
  8
0
 10
86.166263
 20
1414.174910
 42
-0.592303
  0
VERTEX
  8
0
 10
86.618421
 20
1415.000000
 42
-0.102005
  0
VERTEX
  8
0
 10
87.132412
 20
1414.894038
 42
-0.002183
  0
VERTEX
  8
0
 10
89.507082
 20
1413.859161
 42
-0.004938
  0
VERTEX
  8
0
 10
92.277526
 20
1412.604565
 42
-0.003299
  0
VERTEX
  8
0
 10
95.424957
 20
1411.116293
 42
0.042639
  0
VERTEX
  8
0
 10
107.260457
 20
1406.619899
 42
0.030857
  0
VERTEX
  8
0
 10
121.046730
 20
1403.592776
 42
0.030710
  0
VERTEX
  8
0
 10
135.195543
 20
1402.272396
 42
0.040512
  0
VERTEX
  8
0
 10
148.128225
 20
1402.910860
 42
0.022570
  0
VERTEX
  8
0
 10
162.186638
 20
1405.402888
 42
0.029645
  0
VERTEX
  8
0
 10
174.710895
 20
1409.002174
 42
0.030031
  0
VERTEX
  8
0
 10
186.592585
 20
1414.013914
 42
0.024164
  0
VERTEX
  8
0
 10
198.713231
 20
1420.754331
 42
0.027719
  0
VERTEX
  8
0
 10
213.172080
 20
1430.887104
 42
0.023809
  0
VERTEX
  8
0
 10
227.207868
 20
1443.056467
 42
0.017820
  0
VERTEX
  8
0
 10
243.261893
 20
1459.505125
 42
0.006794
  0
VERTEX
  8
0
 10
264.478861
 20
1483.500000
 42
-0.004813
  0
VERTEX
  8
0
 10
282.022463
 20
1503.499669
 42
-0.009705
  0
VERTEX
  8
0
 10
296.303855
 20
1518.857187
 42
-0.012132
  0
VERTEX
  8
0
 10
308.556172
 20
1530.930002
 42
-0.018937
  0
VERTEX
  8
0
 10
319.730934
 20
1540.649984
 42
-0.022442
  0
VERTEX
  8
0
 10
339.400528
 20
1555.086173
 42
-0.026058
  0
VERTEX
  8
0
 10
359.353782
 20
1566.942777
 42
-0.027264
  0
VERTEX
  8
0
 10
379.563229
 20
1576.199974
 42
-0.030153
  0
VERTEX
  8
0
 10
400.000000
 20
1582.853319
 42
-0.013228
  0
VERTEX
  8
0
 10
410.173228
 20
1585.213789
 42
-0.022246
  0
VERTEX
  8
0
 10
418.830847
 20
1586.584788
 42
-0.020199
  0
VERTEX
  8
0
 10
428.135431
 20
1587.257520
 42
-0.008850
  0
VERTEX
  8
0
 10
440.500000
 20
1587.431672
 42
-0.011766
  0
VERTEX
  8
0
 10
454.503829
 20
1587.051426
 42
-0.024705
  0
VERTEX
  8
0
 10
465.333996
 20
1585.963932
 42
-0.027182
  0
VERTEX
  8
0
 10
475.329788
 20
1583.897794
 42
-0.017769
  0
VERTEX
  8
0
 10
486.600252
 20
1580.488878
 42
0.003264
  0
VERTEX
  8
0
 10
490.597403
 20
1579.152171
 42
0.004691
  0
VERTEX
  8
0
 10
494.155619
 20
1578.024858
 42
0.002568
  0
VERTEX
  8
0
 10
497.172247
 20
1577.117101
 42
0.071914
  0
VERTEX
  8
0
 10
497.982207
 20
1577.000000
 42
0.664897
  0
VERTEX
  8
0
 10
498.211643
 20
1577.546866
 42
0.024510
  0
VERTEX
  8
0
 10
495.967822
 20
1579.618327
 42
0.012419
  0
VERTEX
  8
0
 10
491.514134
 20
1583.158615
 42
0.002214
  0
VERTEX
  8
0
 10
483.000000
 20
1589.529122
 42
-0.014310
  0
VERTEX
  8
0
 10
468.003505
 20
1601.326268
 42
-0.015845
  0
VERTEX
  8
0
 10
454.222126
 20
1613.581713
 42
-0.013403
  0
VERTEX
  8
0
 10
439.476576
 20
1628.325833
 42
-0.006416
  0
VERTEX
  8
0
 10
421.301526
 20
1648.000000
 42
0.006344
  0
VERTEX
  8
0
 10
410.270552
 20
1659.944273
 42
0.010459
  0
VERTEX
  8
0
 10
400.613429
 20
1669.720421
 42
0.011766
  0
VERTEX
  8
0
 10
391.461251
 20
1678.196662
 42
0.012085
  0
VERTEX
  8
0
 10
382.000000
 20
1686.155622
 42
0.011249
  0
VERTEX
  8
0
 10
373.291421
 20
1692.813181
 42
0.015426
  0
VERTEX
  8
0
 10
365.148023
 20
1698.376726
 42
0.011790
  0
VERTEX
  8
0
 10
355.169732
 20
1704.425098
 42
0.003729
  0
VERTEX
  8
0
 10
340.000000
 20
1712.988148
 42
-0.003625
  0
VERTEX
  8
0
 10
318.305061
 20
1725.228599
 42
-0.010338
  0
VERTEX
  8
0
 10
303.449300
 20
1734.166133
 42
-0.014492
  0
VERTEX
  8
0
 10
292.311672
 20
1741.643848
 42
-0.020486
  0
VERTEX
  8
0
 10
282.883620
 20
1748.979362
 42
0.008165
  0
VERTEX
  8
0
 10
279.651968
 20
1751.624090
 42
0.014291
  0
VERTEX
  8
0
 10
276.880633
 20
1753.691520
 42
0.008636
  0
VERTEX
  8
0
 10
274.610597
 20
1755.228219
 42
0.491365
  0
VERTEX
  8
0
 10
274.194342
 20
1755.083025
 42
0.194489
  0
VERTEX
  8
0
 10
274.237130
 20
1754.398556
 42
0.004779
  0
VERTEX
  8
0
 10
275.651817
 20
1751.515507
 42
0.009662
  0
VERTEX
  8
0
 10
277.434592
 20
1748.132979
 42
0.006342
  0
VERTEX
  8
0
 10
279.611502
 20
1744.304911
 42
0.018225
  0
VERTEX
  8
0
 10
293.738053
 20
1722.079819
 42
0.023861
  0
VERTEX
  8
0
 10
308.307560
 20
1702.928637
 42
0.022474
  0
VERTEX
  8
0
 10
325.331534
 20
1684.396531
 42
0.013644
  0
VERTEX
  8
0
 10
347.000000
 20
1663.983985
 42
-0.005474
  0
VERTEX
  8
0
 10
362.475404
 20
1649.875560
 42
-0.008041
  0
VERTEX
  8
0
 10
375.739268
 20
1637.110040
 42
-0.003457
  0
VERTEX
  8
0
 10
386.679653
 20
1626.085014
 42
-0.664292
  0
VERTEX
  8
0
 10
386.223366
 20
1625.000000
 42
-0.124373
  0
VERTEX
  8
0
 10
385.627686
 20
1625.150501
 42
-0.005199
  0
VERTEX
  8
0
 10
383.696873
 20
1626.218760
 42
-0.008711
  0
VERTEX
  8
0
 10
381.425357
 20
1627.559368
 42
-0.006053
  0
VERTEX
  8
0
 10
378.905036
 20
1629.148969
 42
0.002450
  0
VERTEX
  8
0
 10
376.214467
 20
1630.873174
 42
0.002243
  0
VERTEX
  8
0
 10
373.426792
 20
1632.622919
 42
0.002241
  0
VERTEX
  8
0
 10
370.923972
 20
1634.162759
 42
0.007336
  0
VERTEX
  8
0
 10
369.250000
 20
1635.148969
 42
0.000045
  0
VERTEX
  8
0
 10
367.736552
 20
1636.010769
 42
0.000024
  0
VERTEX
  8
0
 10
365.853125
 20
1637.082902
 42
0.000024
  0
VERTEX
  8
0
 10
363.922289
 20
1638.181781
 42
0.000036
  0
VERTEX
  8
0
 10
362.250000
 20
1639.133251
 42
0.004750
  0
VERTEX
  8
0
 10
360.203842
 20
1640.271653
 42
0.001161
  0
VERTEX
  8
0
 10
356.810938
 20
1642.107153
 42
0.001189
  0
VERTEX
  8
0
 10
352.912109
 20
1644.192720
 42
0.001186
  0
VERTEX
  8
0
 10
349.000000
 20
1646.261546
 42
-0.003003
  0
VERTEX
  8
0
 10
332.206914
 20
1655.220387
 42
-0.012701
  0
VERTEX
  8
0
 10
322.319901
 20
1660.900774
 42
-0.015541
  0
VERTEX
  8
0
 10
313.708435
 20
1666.517680
 42
-0.006170
  0
VERTEX
  8
0
 10
302.229170
 20
1674.736762
 42
-0.013857
  0
VERTEX
  8
0
 10
292.866611
 20
1682.024572
 42
-0.014512
  0
VERTEX
  8
0
 10
284.069085
 20
1689.712078
 42
-0.015135
  0
VERTEX
  8
0
 10
276.120317
 20
1697.535556
 42
-0.019346
  0
VERTEX
  8
0
 10
269.311998
 20
1705.229795
 42
0.010488
  0
VERTEX
  8
0
 10
267.085388
 20
1707.837795
 42
0.019357
  0
VERTEX
  8
0
 10
265.152203
 20
1709.846038
 42
0.017184
  0
VERTEX
  8
0
 10
263.618252
 20
1711.222579
 42
0.528916
  0
VERTEX
  8
0
 10
263.201512
 20
1711.104536
 42
0.175958
  0
VERTEX
  8
0
 10
263.271289
 20
1708.481973
 42
0.002534
  0
VERTEX
  8
0
 10
269.158704
 20
1693.742616
 42
0.007697
  0
VERTEX
  8
0
 10
275.258355
 20
1679.334973
 42
0.015258
  0
VERTEX
  8
0
 10
280.614423
 20
1668.144110
 42
0.013847
  0
VERTEX
  8
0
 10
285.213435
 20
1659.816863
 42
0.010380
  0
VERTEX
  8
0
 10
290.716047
 20
1650.902953
 42
0.010409
  0
VERTEX
  8
0
 10
296.559298
 20
1642.262583
 42
0.014320
  0
VERTEX
  8
0
 10
302.188223
 20
1634.766366
 42
-0.022096
  0
VERTEX
  8
0
 10
302.980382
 20
1633.676537
 42
-0.034130
  0
VERTEX
  8
0
 10
303.554792
 20
1632.664204
 42
-0.036945
  0
VERTEX
  8
0
 10
303.878693
 20
1631.838977
 42
-0.278257
  0
VERTEX
  8
0
 10
303.782126
 20
1631.448793
 42
-0.353595
  0
VERTEX
  8
0
 10
302.697653
 20
1631.333789
 42
-0.001642
  0
VERTEX
  8
0
 10
292.522952
 20
1637.961887
 42
-0.007510
  0
VERTEX
  8
0
 10
282.856947
 20
1644.513683
 42
-0.015257
  0
VERTEX
  8
0
 10
275.500000
 20
1650.005158
 42
-0.024475
  0
VERTEX
  8
0
 10
267.821425
 20
1656.748858
 42
-0.015877
  0
VERTEX
  8
0
 10
259.598392
 20
1665.238685
 42
-0.015828
  0
VERTEX
  8
0
 10
251.881500
 20
1674.289169
 42
-0.023244
  0
VERTEX
  8
0
 10
245.739794
 20
1682.750000
 42
0.002344
  0
VERTEX
  8
0
 10
243.130723
 20
1686.679739
 42
0.003813
  0
VERTEX
  8
0
 10
240.874361
 20
1689.989063
 42
0.000699
  0
VERTEX
  8
0
 10
238.864135
 20
1692.880969
 42
0.245234
  0
VERTEX
  8
0
 10
238.636042
 20
1693.000000
 42
0.529606
  0
VERTEX
  8
0
 10
237.657618
 20
1691.559649
 42
0.002739
  0
VERTEX
  8
0
 10
245.234650
 20
1672.746886
 42
0.009422
  0
VERTEX
  8
0
 10
253.124957
 20
1654.453134
 42
0.018937
  0
VERTEX
  8
0
 10
260.159300
 20
1640.393956
 42
0.031402
  0
VERTEX
  8
0
 10
271.392309
 20
1622.657710
 42
0.025133
  0
VERTEX
  8
0
 10
285.573107
 20
1605.035619
 42
0.025666
  0
VERTEX
  8
0
 10
300.947036
 20
1589.469504
 42
0.040748
  0
VERTEX
  8
0
 10
315.750000
 20
1578.008382
 42
-0.004903
  0
VERTEX
  8
0
 10
320.062379
 20
1575.138509
 42
-0.007757
  0
VERTEX
  8
0
 10
323.695312
 20
1572.585783
 42
-0.002836
  0
VERTEX
  8
0
 10
326.746841
 20
1570.343551
 42
-0.237160
  0
VERTEX
  8
0
 10
327.000000
 20
1569.839840
 42
0.189870
  0
VERTEX
  8
0
 10
327.126337
 20
1569.519141
 42
0.088602
  0
VERTEX
  8
0
 10
327.489583
 20
1569.246703
 42
0.068418
  0
VERTEX
  8
0
 10
328.028834
 20
1569.061910
 42
0.048418
  0
VERTEX
  8
0
 10
328.666667
 20
1569.000000
 42
-0.033835
  0
VERTEX
  8
0
 10
329.267162
 20
1568.959317
 42
-0.092240
  0
VERTEX
  8
0
 10
329.669930
 20
1568.826180
 42
-0.225443
  0
VERTEX
  8
0
 10
329.810903
 20
1568.630422
 42
-0.246318
  0
VERTEX
  8
0
 10
329.741605
 20
1568.408272
 42
-0.300381
  0
VERTEX
  8
0
 10
327.558717
 20
1567.961719
 42
-0.004262
  0
VERTEX
  8
0
 10
314.594466
 20
1573.296046
 42
-0.011844
  0
VERTEX
  8
0
 10
301.509059
 20
1579.179863
 42
-0.018163
  0
VERTEX
  8
0
 10
290.500000
 20
1584.947301
 42
-0.037016
  0
VERTEX
  8
0
 10
276.257797
 20
1594.542971
 42
-0.023913
  0
VERTEX
  8
0
 10
261.231666
 20
1607.581752
 42
-0.023686
  0
VERTEX
  8
0
 10
247.283026
 20
1622.230720
 42
-0.032427
  0
VERTEX
  8
0
 10
236.284179
 20
1636.737464
 42
-0.021440
  0
VERTEX
  8
0
 10
225.716387
 20
1654.326599
 42
-0.018203
  0
VERTEX
  8
0
 10
216.060920
 20
1673.729863
 42
-0.018355
  0
VERTEX
  8
0
 10
207.933810
 20
1693.578250
 42
-0.023167
  0
VERTEX
  8
0
 10
201.964253
 20
1712.500000
 42
-0.004435
  0
VERTEX
  8
0
 10
197.649048
 20
1729.370894
 42
-0.009955
  0
VERTEX
  8
0
 10
194.743767
 20
1742.264239
 42
-0.010811
  0
VERTEX
  8
0
 10
192.498872
 20
1754.594012
 42
-0.006260
  0
VERTEX
  8
0
 10
190.307671
 20
1769.500000
 42
-0.026144
  0
VERTEX
  8
0
 10
188.983978
 20
1785.773805
 42
-0.005832
  0
VERTEX
  8
0
 10
188.503707
 20
1813.660876
 42
-0.005578
  0
VERTEX
  8
0
 10
188.659497
 20
1841.476671
 42
-0.030320
  0
VERTEX
  8
0
 10
189.824309
 20
1856.500000
 42
-0.006020
  0
VERTEX
  8
0
 10
192.023567
 20
1871.047627
 42
-0.005891
  0
VERTEX
  8
0
 10
194.587235
 20
1885.644237
 42
-0.006181
  0
VERTEX
  8
0
 10
197.305430
 20
1899.192374
 42
-0.010351
  0
VERTEX
  8
0
 10
199.965752
 20
1910.500000
 42
0.000855
  0
VERTEX
  8
0
 10
200.701733
 20
1913.381641
 42
0.000867
  0
VERTEX
  8
0
 10
201.424200
 20
1916.251562
 42
0.000843
  0
VERTEX
  8
0
 10
202.044122
 20
1918.750203
 42
0.003567
  0
VERTEX
  8
0
 10
202.402215
 20
1920.250000
 42
-0.102569
  0
VERTEX
  8
0
 10
203.137907
 20
1921.847129
 42
-0.118168
  0
VERTEX
  8
0
 10
204.418830
 20
1922.924868
 42
-0.242640
  0
VERTEX
  8
0
 10
205.482348
 20
1922.912256
 42
-0.277528
  0
VERTEX
  8
0
 10
206.000000
 20
1922.051474
 42
0.195452
  0
VERTEX
  8
0
 10
206.853704
 20
1919.950975
 42
0.003327
  0
VERTEX
  8
0
 10
215.766890
 20
1910.918068
 42
0.009133
  0
VERTEX
  8
0
 10
224.645456
 20
1902.357784
 42
0.023068
  0
VERTEX
  8
0
 10
231.491317
 20
1896.559280
 42
0.008883
  0
VERTEX
  8
0
 10
238.710151
 20
1891.197299
 42
0.016288
  0
VERTEX
  8
0
 10
244.804009
 20
1887.130145
 42
0.015950
  0
VERTEX
  8
0
 10
251.235116
 20
1883.413262
 42
0.008128
  0
VERTEX
  8
0
 10
259.532413
 20
1879.136767
 42
0.004592
  0
VERTEX
  8
0
 10
271.598558
 20
1873.301329
 42
0.006264
  0
VERTEX
  8
0
 10
282.585957
 20
1868.278928
 42
0.005285
  0
VERTEX
  8
0
 10
295.024237
 20
1862.937079
 42
0.002189
  0
VERTEX
  8
0
 10
311.949927
 20
1855.965817
 42
-0.004397
  0
VERTEX
  8
0
 10
328.238908
 20
1849.172523
 42
-0.007922
  0
VERTEX
  8
0
 10
341.450644
 20
1843.276417
 42
-0.009109
  0
VERTEX
  8
0
 10
353.091691
 20
1837.598246
 42
-0.009152
  0
VERTEX
  8
0
 10
364.500000
 20
1831.508230
 42
-0.019907
  0
VERTEX
  8
0
 10
383.612898
 20
1819.830714
 42
-0.015376
  0
VERTEX
  8
0
 10
403.501032
 20
1805.662100
 42
-0.015281
  0
VERTEX
  8
0
 10
422.641532
 20
1790.173828
 42
-0.018702
  0
VERTEX
  8
0
 10
439.507991
 20
1774.515268
 42
-0.029127
  0
VERTEX
  8
0
 10
470.228022
 20
1739.971796
 42
-0.029832
  0
VERTEX
  8
0
 10
496.461554
 20
1702.356936
 42
-0.030700
  0
VERTEX
  8
0
 10
517.334804
 20
1663.031319
 42
-0.035796
  0
VERTEX
  8
0
 10
532.035434
 20
1623.378362
 42
-0.004264
  0
VERTEX
  8
0
 10
534.940707
 20
1613.078789
 42
-0.004831
  0
VERTEX
  8
0
 10
537.547265
 20
1603.150445
 42
-0.003192
  0
VERTEX
  8
0
 10
539.663552
 20
1594.528550
 42
-0.049915
  0
VERTEX
  8
0
 10
540.070462
 20
1591.522933
 42
0.175340
  0
VERTEX
  8
0
 10
540.240401
 20
1591.099878
 42
0.464531
  0
VERTEX
  8
0
 10
540.524016
 20
1591.107840
 42
0.066320
  0
VERTEX
  8
0
 10
541.000777
 20
1591.902222
 42
0.012029
  0
VERTEX
  8
0
 10
541.646441
 20
1593.500000
 42
0.063716
  0
VERTEX
  8
0
 10
543.027742
 20
1599.327933
 42
0.009636
  0
VERTEX
  8
0
 10
544.061471
 20
1611.292176
 42
0.011560
  0
VERTEX
  8
0
 10
544.630523
 20
1624.276994
 42
0.017889
  0
VERTEX
  8
0
 10
544.461083
 20
1635.500000
 42
0.009333
  0
VERTEX
  8
0
 10
543.783735
 20
1645.225237
 42
0.015074
  0
VERTEX
  8
0
 10
542.804062
 20
1653.464432
 42
0.016080
  0
VERTEX
  8
0
 10
541.385016
 20
1661.233969
 42
0.012875
  0
VERTEX
  8
0
 10
539.374821
 20
1669.500000
 42
0.003494
  0
VERTEX
  8
0
 10
537.646637
 20
1675.713095
 42
0.017979
  0
VERTEX
  8
0
 10
536.542199
 20
1679.111319
 42
0.017974
  0
VERTEX
  8
0
 10
535.196349
 20
1682.421792
 42
0.003491
  0
VERTEX
  8
0
 10
532.512510
 20
1688.288305
 42
-0.014543
  0
VERTEX
  8
0
 10
531.516060
 20
1690.600148
 42
-0.019327
  0
VERTEX
  8
0
 10
530.754405
 20
1692.758626
 42
-0.016920
  0
VERTEX
  8
0
 10
530.260570
 20
1694.565873
 42
-0.150959
  0
VERTEX
  8
0
 10
530.314873
 20
1695.378162
 42
-0.219089
  0
VERTEX
  8
0
 10
531.696740
 20
1696.726251
 42
-0.002032
  0
VERTEX
  8
0
 10
545.501275
 20
1701.572160
 42
-0.007276
  0
VERTEX
  8
0
 10
558.661298
 20
1705.918415
 42
-0.020591
  0
VERTEX
  8
0
 10
568.000000
 20
1708.435291
 42
-0.012352
  0
VERTEX
  8
0
 10
580.294266
 20
1710.893888
 42
-0.018531
  0
VERTEX
  8
0
 10
591.135885
 20
1712.373263
 42
-0.016459
  0
VERTEX
  8
0
 10
602.953616
 20
1713.150137
 42
-0.007407
  0
VERTEX
  8
0
 10
618.500000
 20
1713.428677
 42
-0.009114
  0
VERTEX
  8
0
 10
635.506919
 20
1713.171405
 42
-0.017034
  0
VERTEX
  8
0
 10
649.241855
 20
1712.243999
 42
-0.017957
  0
VERTEX
  8
0
 10
662.390592
 20
1710.425980
 42
-0.011527
  0
VERTEX
  8
0
 10
677.500000
 20
1707.420421
 42
-0.013364
  0
VERTEX
  8
0
 10
688.652268
 20
1704.618633
 42
-0.008594
  0
VERTEX
  8
0
 10
701.431806
 20
1700.804338
 42
-0.002216
  0
VERTEX
  8
0
 10
714.138254
 20
1696.710690
 42
-0.324383
  0
VERTEX
  8
0
 10
715.000000
 20
1695.522172
 42
-0.102691
  0
VERTEX
  8
0
 10
714.961679
 20
1695.337557
 42
-0.000449
  0
VERTEX
  8
0
 10
714.150433
 20
1693.472191
 42
-0.002148
  0
VERTEX
  8
0
 10
713.216526
 20
1691.354913
 42
-0.001351
  0
VERTEX
  8
0
 10
712.107858
 20
1688.888315
 42
0.025134
  0
VERTEX
  8
0
 10
708.858090
 20
1680.628918
 42
0.014857
  0
VERTEX
  8
0
 10
705.778310
 20
1670.489522
 42
0.014490
  0
VERTEX
  8
0
 10
703.186485
 20
1659.721276
 42
0.017624
  0
VERTEX
  8
0
 10
701.411122
 20
1649.500000
 42
0.027710
  0
VERTEX
  8
0
 10
700.343433
 20
1636.400643
 42
0.009520
  0
VERTEX
  8
0
 10
700.212443
 20
1617.369093
 42
0.005310
  0
VERTEX
  8
0
 10
700.648733
 20
1598.216944
 42
0.115003
  0
VERTEX
  8
0
 10
702.100270
 20
1592.812644
 42
0.155761
  0
VERTEX
  8
0
 10
702.846416
 20
1592.088607
 42
0.408532
  0
VERTEX
  8
0
 10
703.489394
 20
1592.297663
 42
0.054928
  0
VERTEX
  8
0
 10
704.182222
 20
1594.078571
 42
0.003486
  0
VERTEX
  8
0
 10
705.594505
 20
1599.512016
 42
-0.014067
  0
VERTEX
  8
0
 10
708.597174
 20
1610.135634
 42
-0.003445
  0
VERTEX
  8
0
 10
714.149773
 20
1627.441272
 42
-0.003283
  0
VERTEX
  8
0
 10
719.909882
 20
1644.596585
 42
-0.016746
  0
VERTEX
  8
0
 10
723.492258
 20
1654.000000
 42
-0.021992
  0
VERTEX
  8
0
 10
737.822491
 20
1684.324706
 42
-0.022884
  0
VERTEX
  8
0
 10
754.588564
 20
1712.861861
 42
-0.022580
  0
VERTEX
  8
0
 10
774.114301
 20
1740.091055
 42
-0.020236
  0
VERTEX
  8
0
 10
796.709204
 20
1766.500000
 42
-0.027737
  0
VERTEX
  8
0
 10
827.196934
 20
1795.894606
 42
-0.033198
  0
VERTEX
  8
0
 10
859.055506
 20
1819.878885
 42
-0.030971
  0
VERTEX
  8
0
 10
895.629751
 20
1840.675457
 42
-0.019632
  0
VERTEX
  8
0
 10
940.500000
 20
1860.489882
 42
0.012527
  0
VERTEX
  8
0
 10
972.955785
 20
1874.274611
 42
0.026315
  0
VERTEX
  8
0
 10
997.261618
 20
1886.907060
 42
0.032201
  0
VERTEX
  8
0
 10
1016.703755
 20
1900.102856
 42
0.034020
  0
VERTEX
  8
0
 10
1033.914321
 20
1915.464497
 42
-0.008400
  0
VERTEX
  8
0
 10
1037.193814
 20
1918.708189
 42
-0.014010
  0
VERTEX
  8
0
 10
1040.074059
 20
1921.312299
 42
-0.007650
  0
VERTEX
  8
0
 10
1042.503977
 20
1923.325050
 42
-0.391428
  0
VERTEX
  8
0
 10
1043.067788
 20
1923.285679
 42
-0.118922
  0
VERTEX
  8
0
 10
1043.453310
 20
1922.609466
 42
-0.002024
  0
VERTEX
  8
0
 10
1044.631491
 20
1918.471418
 42
-0.005047
  0
VERTEX
  8
0
 10
1045.940559
 20
1913.613837
 42
-0.003322
  0
SEQEND
  0
POLYLINE
  8
0
 66
1
 70
1
  0
VERTEX
  8
0
 10
378.653421
 20
1337.009280
 42
-0.038148
  0
VERTEX
  8
0
 10
405.609701
 20
1332.828008
 42
-0.040617
  0
VERTEX
  8
0
 10
431.036915
 20
1324.645519
 42
-0.042025
  0
VERTEX
  8
0
 10
453.999281
 20
1312.792301
 42
-0.047711
  0
VERTEX
  8
0
 10
473.624445
 20
1297.690393
 42
-0.026836
  0
VERTEX
  8
0
 10
481.537142
 20
1289.463127
 42
-0.019885
  0
VERTEX
  8
0
 10
489.399154
 20
1279.590073
 42
-0.011094
  0
VERTEX
  8
0
 10
496.051934
 20
1270.082263
 42
-0.357609
  0
VERTEX
  8
0
 10
495.792673
 20
1267.459340
 42
-0.318407
  0
VERTEX
  8
0
 10
495.337695
 20
1267.381762
 42
-0.008163
  0
VERTEX
  8
0
 10
493.376956
 20
1268.362892
 42
-0.014413
  0
VERTEX
  8
0
 10
491.035328
 20
1269.669961
 42
-0.008969
  0
VERTEX
  8
0
 10
488.363449
 20
1271.329757
 42
0.035480
  0
VERTEX
  8
0
 10
461.622992
 20
1286.038105
 42
0.039871
  0
VERTEX
  8
0
 10
434.076473
 20
1296.163479
 42
0.038526
  0
VERTEX
  8
0
 10
404.457831
 20
1302.029753
 42
0.029518
  0
VERTEX
  8
0
 10
371.500000
 20
1303.992970
 42
0.009168
  0
VERTEX
  8
0
 10
353.856423
 20
1303.677879
 42
0.020818
  0
VERTEX
  8
0
 10
340.559932
 20
1302.641011
 42
0.021579
  0
VERTEX
  8
0
 10
327.687723
 20
1300.529286
 42
0.010586
  0
VERTEX
  8
0
 10
311.500000
 20
1296.791478
 42
-0.000554
  0
VERTEX
  8
0
 10
306.740836
 20
1295.591516
 42
-0.000715
  0
VERTEX
  8
0
 10
302.367486
 20
1294.500629
 42
-0.000541
  0
VERTEX
  8
0
 10
298.699043
 20
1293.595357
 42
-0.006316
  0
VERTEX
  8
0
 10
297.261655
 20
1293.261492
 42
0.041542
  0
VERTEX
  8
0
 10
296.443333
 20
1293.009583
 42
0.075476
  0
VERTEX
  8
0
 10
295.841611
 20
1292.655135
 42
0.120258
  0
VERTEX
  8
0
 10
295.543456
 20
1292.261651
 42
0.245416
  0
VERTEX
  8
0
 10
295.570672
 20
1291.885651
 42
0.246998
  0
VERTEX
  8
0
 10
296.178857
 20
1291.526915
 42
0.001875
  0
VERTEX
  8
0
 10
302.120238
 20
1291.260160
 42
0.006329
  0
VERTEX
  8
0
 10
309.016083
 20
1291.063858
 42
0.003950
  0
VERTEX
  8
0
 10
317.098431
 20
1291.000000
 42
-0.006876
  0
VERTEX
  8
0
 10
334.656525
 20
1290.758546
 42
-0.016316
  0
VERTEX
  8
0
 10
347.697715
 20
1289.973410
 42
-0.017232
  0
VERTEX
  8
0
 10
360.229863
 20
1288.370375
 42
-0.008551
  0
VERTEX
  8
0
 10
376.000000
 20
1285.520462
 42
-0.012917
  0
VERTEX
  8
0
 10
385.329243
 20
1283.417401
 42
-0.013866
  0
VERTEX
  8
0
 10
394.317301
 20
1280.878677
 42
-0.012130
  0
VERTEX
  8
0
 10
404.118403
 20
1277.551384
 42
-0.006578
  0
VERTEX
  8
0
 10
416.009613
 20
1273.011744
 42
-0.019858
  0
VERTEX
  8
0
 10
433.551196
 20
1265.229558
 42
-0.021939
  0
VERTEX
  8
0
 10
449.830925
 20
1256.311867
 42
-0.021854
  0
VERTEX
  8
0
 10
465.321932
 20
1245.968708
 42
-0.019400
  0
VERTEX
  8
0
 10
480.500000
 20
1233.913996
 42
-0.006952
  0
VERTEX
  8
0
 10
489.708358
 20
1225.773815
 42
-0.033114
  0
VERTEX
  8
0
 10
494.580040
 20
1220.717310
 42
-0.057306
  0
VERTEX
  8
0
 10
497.348967
 20
1216.546683
 42
-0.063709
  0
VERTEX
  8
0
 10
498.979629
 20
1212.000000
 42
0.042368
  0
VERTEX
  8
0
 10
501.031226
 20
1205.409736
 42
0.018611
  0
VERTEX
  8
0
 10
504.791672
 20
1197.072070
 42
0.018591
  0
VERTEX
  8
0
 10
509.152797
 20
1189.052832
 42
0.043314
  0
VERTEX
  8
0
 10
513.132521
 20
1183.500000
 42
0.033952
  0
VERTEX
  8
0
 10
521.205005
 20
1175.279263
 42
0.038302
  0
VERTEX
  8
0
 10
530.013804
 20
1168.582047
 42
0.040925
  0
VERTEX
  8
0
 10
539.132957
 20
1163.698282
 42
0.053957
  0
VERTEX
  8
0
 10
548.131205
 20
1160.894405
 42
-0.019569
  0
VERTEX
  8
0
 10
551.754406
 20
1160.033091
 42
-0.076906
  0
VERTEX
  8
0
 10
553.839167
 20
1159.086971
 42
-0.072607
  0
VERTEX
  8
0
 10
555.600319
 20
1157.528239
 42
-0.016271
  0
VERTEX
  8
0
 10
558.092764
 20
1154.374430
 42
0.061461
  0
VERTEX
  8
0
 10
564.976616
 20
1147.117567
 42
0.045628
  0
VERTEX
  8
0
 10
574.119078
 20
1140.892218
 42
0.041807
  0
VERTEX
  8
0
 10
585.106784
 20
1135.945118
 42
0.034424
  0
VERTEX
  8
0
 10
597.500000
 20
1132.506297
 42
0.057412
  0
VERTEX
  8
0
 10
623.837586
 20
1130.205237
 42
0.055536
  0
VERTEX
  8
0
 10
650.317068
 20
1133.896541
 42
0.060787
  0
VERTEX
  8
0
 10
672.636615
 20
1142.576396
 42
0.125259
  0
VERTEX
  8
0
 10
686.359702
 20
1155.145534
 42
-0.073887
  0
VERTEX
  8
0
 10
687.484463
 20
1156.408590
 42
-0.036753
  0
VERTEX
  8
0
 10
689.229889
 20
1157.660657
 42
-0.031024
  0
VERTEX
  8
0
 10
691.510128
 20
1158.867461
 42
-0.019916
  0
VERTEX
  8
0
 10
694.285759
 20
1159.991928
 42
0.022173
  0
VERTEX
  8
0
 10
702.103152
 20
1163.200051
 42
0.026159
  0
VERTEX
  8
0
 10
709.172738
 20
1166.935271
 42
0.026909
  0
VERTEX
  8
0
 10
715.640026
 20
1171.285941
 42
0.026316
  0
VERTEX
  8
0
 10
721.653162
 20
1176.336426
 42
0.026668
  0
VERTEX
  8
0
 10
729.130513
 20
1184.105813
 42
0.036285
  0
VERTEX
  8
0
 10
734.940871
 20
1191.903461
 42
0.036062
  0
VERTEX
  8
0
 10
739.588693
 20
1200.497762
 42
0.025871
  0
VERTEX
  8
0
 10
743.558322
 20
1210.674021
 42
-0.019604
  0
VERTEX
  8
0
 10
745.338480
 20
1215.411969
 42
-0.049148
  0
VERTEX
  8
0
 10
747.096520
 20
1218.654474
 42
-0.037668
  0
VERTEX
  8
0
 10
749.714452
 20
1221.956570
 42
-0.007819
  0
VERTEX
  8
0
 10
754.826760
 20
1227.321631
 42
-0.010879
  0
VERTEX
  8
0
 10
762.196141
 20
1234.497908
 42
-0.016599
  0
VERTEX
  8
0
 10
768.923353
 20
1240.364550
 42
-0.015477
  0
VERTEX
  8
0
 10
776.362578
 20
1246.055491
 42
-0.007972
  0
VERTEX
  8
0
 10
786.000000
 20
1252.735944
 42
-0.029876
  0
VERTEX
  8
0
 10
809.731508
 20
1266.655147
 42
-0.031830
  0
VERTEX
  8
0
 10
834.465953
 20
1277.319781
 42
-0.030798
  0
VERTEX
  8
0
 10
861.086978
 20
1285.028558
 42
-0.024740
  0
VERTEX
  8
0
 10
890.476217
 20
1290.098164
 42
-0.015181
  0
VERTEX
  8
0
 10
895.657891
 20
1290.570943
 42
-0.004701
  0
VERTEX
  8
0
 10
903.477343
 20
1290.971859
 42
-0.004697
  0
VERTEX
  8
0
 10
912.232611
 20
1291.255898
 42
-0.005151
  0
VERTEX
  8
0
 10
920.726217
 20
1291.364076
 42
0.002867
  0
VERTEX
  8
0
 10
928.500143
 20
1291.427571
 42
0.004778
  0
VERTEX
  8
0
 10
935.044576
 20
1291.581113
 42
0.000918
  0
VERTEX
  8
0
 10
940.755720
 20
1291.780221
 42
0.403509
  0
VERTEX
  8
0
 10
941.000000
 20
1292.033631
 42
0.317023
  0
VERTEX
  8
0
 10
940.584060
 20
1292.623708
 42
0.001889
  0
VERTEX
  8
0
 10
933.976808
 20
1294.953631
 42
0.007880
  0
VERTEX
  8
0
 10
927.340527
 20
1297.148998
 42
0.011959
  0
VERTEX
  8
0
 10
921.500000
 20
1298.827230
 42
0.018503
  0
VERTEX
  8
0
 10
908.820096
 20
1301.647867
 42
0.024396
  0
VERTEX
  8
0
 10
897.083394
 20
1303.219312
 42
0.019236
  0
VERTEX
  8
0
 10
883.285358
 20
1303.852382
 42
0.006803
  0
VERTEX
  8
0
 10
863.500000
 20
1303.729233
 42
0.003436
  0
VERTEX
  8
0
 10
851.245175
 20
1303.401937
 42
0.007168
  0
VERTEX
  8
0
 10
841.706880
 20
1302.944627
 42
0.008990
  0
VERTEX
  8
0
 10
834.316693
 20
1302.350499
 42
0.022949
  0
VERTEX
  8
0
 10
829.000000
 20
1301.579075
 42
0.017196
  0
VERTEX
  8
0
 10
820.340739
 20
1299.602945
 42
0.005895
  0
VERTEX
  8
0
 10
807.939948
 20
1296.163608
 42
0.004585
  0
VERTEX
  8
0
 10
795.818433
 20
1292.526471
 42
0.039853
  0
VERTEX
  8
0
 10
790.596362
 20
1290.438632
 42
-0.010071
  0
VERTEX
  8
0
 10
789.425876
 20
1289.887781
 42
-0.012341
  0
VERTEX
  8
0
 10
788.310238
 20
1289.422598
 42
-0.010853
  0
VERTEX
  8
0
 10
787.360719
 20
1289.077437
 42
-0.081921
  0
VERTEX
  8
0
 10
786.891262
 20
1289.000000
 42
0.121021
  0
VERTEX
  8
0
 10
783.313147
 20
1288.121073
 42
0.005311
  0
VERTEX
  8
0
 10
771.920560
 20
1282.009784
 42
0.009739
  0
VERTEX
  8
0
 10
760.787820
 20
1275.599183
 42
0.027553
  0
VERTEX
  8
0
 10
753.373862
 20
1270.559295
 42
-0.010262
  0
VERTEX
  8
0
 10
749.799689
 20
1267.944553
 42
-0.097534
  0
VERTEX
  8
0
 10
748.075861
 20
1267.181712
 42
-0.451771
  0
VERTEX
  8
0
 10
747.409868
 20
1267.663719
 42
-0.100945
  0
VERTEX
  8
0
 10
747.577920
 20
1269.250000
 42
-0.066531
  0
VERTEX
  8
0
 10
749.794378
 20
1273.962689
 42
-0.017949
  0
VERTEX
  8
0
 10
754.524506
 20
1280.753878
 42
-0.017913
  0
VERTEX
  8
0
 10
760.481842
 20
1288.119345
 42
-0.018101
  0
VERTEX
  8
0
 10
766.931307
 20
1295.013063
 42
-0.037236
  0
VERTEX
  8
0
 10
782.805562
 20
1308.603569
 42
-0.035330
  0
VERTEX
  8
0
 10
800.791424
 20
1319.954519
 42
-0.035221
  0
VERTEX
  8
0
 10
820.254101
 20
1328.691178
 42
-0.036459
  0
VERTEX
  8
0
 10
840.529118
 20
1334.491357
 42
-0.031559
  0
VERTEX
  8
0
 10
855.670529
 20
1336.666039
 42
-0.016642
  0
VERTEX
  8
0
 10
874.651182
 20
1337.544931
 42
-0.016602
  0
VERTEX
  8
0
 10
893.911737
 20
1337.155640
 42
-0.027836
  0
VERTEX
  8
0
 10
910.000000
 20
1335.393947
 42
-0.029365
  0
VERTEX
  8
0
 10
935.501381
 20
1329.599223
 42
-0.023135
  0
VERTEX
  8
0
 10
962.312563
 20
1320.463289
 42
-0.022033
  0
VERTEX
  8
0
 10
989.570339
 20
1308.332158
 42
-0.020325
  0
VERTEX
  8
0
 10
1016.417682
 20
1293.545383
 42
0.010858
  0
VERTEX
  8
0
 10
1037.819447
 20
1281.224231
 42
0.019152
  0
VERTEX
  8
0
 10
1056.069690
 20
1272.128682
 42
0.022827
  0
VERTEX
  8
0
 10
1072.306175
 20
1265.673647
 42
0.031002
  0
VERTEX
  8
0
 10
1087.500000
 20
1261.455977
 42
-0.007532
  0
VERTEX
  8
0
 10
1090.633591
 20
1260.742556
 42
-0.010320
  0
VERTEX
  8
0
 10
1093.429062
 20
1260.000230
 42
-0.007367
  0
VERTEX
  8
0
 10
1095.728940
 20
1259.301557
 42
-0.109883
  0
VERTEX
  8
0
 10
1096.450000
 20
1258.880480
 42
0.102352
  0
VERTEX
  8
0
 10
1097.012318
 20
1258.540772
 42
0.029589
  0
VERTEX
  8
0
 10
1097.992396
 20
1258.258641
 42
0.028419
  0
VERTEX
  8
0
 10
1099.161275
 20
1258.064841
 42
0.026877
  0
VERTEX
  8
0
 10
1100.366667
 20
1258.000000
 42
-0.019663
  0
VERTEX
  8
0
 10
1101.463622
 20
1257.956845
 42
-0.044793
  0
VERTEX
  8
0
 10
1102.280106
 20
1257.818231
 42
-0.097362
  0
VERTEX
  8
0
 10
1102.698191
 20
1257.615342
 42
-0.455682
  0
VERTEX
  8
0
 10
1102.714546
 20
1257.381213
 42
-0.236111
  0
VERTEX
  8
0
 10
1100.219319
 20
1256.549698
 42
-0.001953
  0
VERTEX
  8
0
 10
1079.268614
 20
1259.629733
 42
-0.006622
  0
VERTEX
  8
0
 10
1055.675591
 20
1263.512679
 42
-0.004797
  0
VERTEX
  8
0
 10
1029.500000
 20
1268.437071
 42
0.004996
  0
VERTEX
  8
0
 10
1006.641868
 20
1272.727936
 42
0.016423
  0
VERTEX
  8
0
 10
991.446787
 20
1274.911459
 42
0.018679
  0
VERTEX
  8
0
 10
977.187021
 20
1275.947465
 42
0.008052
  0
VERTEX
  8
0
 10
958.129213
 20
1276.310894
 42
0.013689
  0
VERTEX
  8
0
 10
938.276313
 20
1275.826122
 42
0.028327
  0
VERTEX
  8
0
 10
922.859343
 20
1274.147880
 42
0.030926
  0
VERTEX
  8
0
 10
908.614495
 20
1270.859077
 42
0.019958
  0
VERTEX
  8
0
 10
892.581151
 20
1265.391556
 42
0.024092
  0
VERTEX
  8
0
 10
877.589901
 20
1258.755616
 42
0.025907
  0
VERTEX
  8
0
 10
863.677640
 20
1250.850726
 42
0.026498
  0
VERTEX
  8
0
 10
850.949707
 20
1241.735438
 42
0.027990
  0
VERTEX
  8
0
 10
839.500000
 20
1231.479779
 42
0.016314
  0
VERTEX
  8
0
 10
831.402173
 20
1222.818021
 42
0.021186
  0
VERTEX
  8
0
 10
824.597748
 20
1214.347788
 42
0.021168
  0
VERTEX
  8
0
 10
818.530079
 20
1205.326076
 42
0.016241
  0
VERTEX
  8
0
 10
812.655206
 20
1195.000000
 42
0.021862
  0
VERTEX
  8
0
 10
807.363815
 20
1183.791498
 42
0.025280
  0
VERTEX
  8
0
 10
803.350572
 20
1172.687075
 42
0.024000
  0
VERTEX
  8
0
 10
800.325212
 20
1160.752365
 42
0.016620
  0
VERTEX
  8
0
 10
798.009665
 20
1147.018968
 42
-0.000908
  0
VERTEX
  8
0
 10
797.305164
 20
1141.856001
 42
-0.000501
  0
VERTEX
  8
0
 10
796.426110
 20
1135.546578
 42
-0.000412
  0
VERTEX
  8
0
 10
795.344326
 20
1127.884410
 42
-0.000226
  0
VERTEX
  8
0
 10
794.007175
 20
1118.500000
 42
-0.010922
  0
VERTEX
  8
0
 10
791.752113
 20
1104.858562
 42
-0.009349
  0
VERTEX
  8
0
 10
788.796586
 20
1090.598683
 42
-0.008764
  0
VERTEX
  8
0
 10
785.102409
 20
1075.541711
 42
-0.007072
  0
VERTEX
  8
0
 10
780.623570
 20
1059.500000
 42
-0.014680
  0
VERTEX
  8
0
 10
773.470928
 20
1037.606367
 42
-0.022764
  0
VERTEX
  8
0
 10
765.902647
 20
1019.228321
 42
-0.022689
  0
VERTEX
  8
0
 10
756.675573
 20
1001.571078
 42
-0.014457
  0
VERTEX
  8
0
 10
744.443748
 20
981.878543
 42
-0.008614
  0
VERTEX
  8
0
 10
735.524568
 20
968.896025
 42
-0.013770
  0
VERTEX
  8
0
 10
727.418010
 20
958.159532
 42
-0.014353
  0
VERTEX
  8
0
 10
718.986209
 20
948.209000
 42
-0.010538
  0
VERTEX
  8
0
 10
709.098348
 20
937.653380
 42
-0.012706
  0
VERTEX
  8
0
 10
699.874293
 20
928.681088
 42
-0.007069
  0
VERTEX
  8
0
 10
688.207506
 20
918.197889
 42
-0.002124
  0
VERTEX
  8
0
 10
676.228820
 20
907.826044
 42
-0.179228
  0
VERTEX
  8
0
 10
673.998400
 20
907.000000
 42
-0.584489
  0
VERTEX
  8
0
 10
673.827353
 20
907.303704
 42
-0.007733
  0
VERTEX
  8
0
 10
675.249711
 20
909.570312
 42
-0.012431
  0
VERTEX
  8
0
 10
677.183863
 20
912.392971
 42
-0.006856
  0
VERTEX
  8
0
 10
679.679734
 20
915.750000
 42
0.012249
  0
VERTEX
  8
0
 10
685.555126
 20
923.833216
 42
0.003111
  0
VERTEX
  8
0
 10
694.683783
 20
937.239473
 42
0.003221
  0
VERTEX
  8
0
 10
703.720898
 20
950.879480
 42
0.010205
  0
VERTEX
  8
0
 10
709.522644
 20
960.168638
 42
0.019963
  0
VERTEX
  8
0
 10
714.631570
 20
969.565959
 42
0.005212
  0
VERTEX
  8
0
 10
722.067095
 20
985.052816
 42
0.005534
  0
VERTEX
  8
0
 10
729.380956
 20
1001.164802
 42
0.012670
  0
VERTEX
  8
0
 10
734.447331
 20
1013.500000
 42
-0.000518
  0
VERTEX
  8
0
 10
736.701428
 20
1019.391583
 42
-0.000712
  0
VERTEX
  8
0
 10
738.740168
 20
1024.681250
 42
-0.000450
  0
VERTEX
  8
0
 10
740.464963
 20
1029.125536
 42
-0.008625
  0
VERTEX
  8
0
 10
741.027294
 20
1030.500000
 42
0.021321
  0
VERTEX
  8
0
 10
743.394589
 20
1036.733174
 42
0.004456
  0
VERTEX
  8
0
 10
746.975836
 20
1047.858911
 42
0.004961
  0
VERTEX
  8
0
 10
750.481325
 20
1059.496298
 42
0.010819
  0
VERTEX
  8
0
 10
752.886364
 20
1068.500000
 42
-0.001039
  0
VERTEX
  8
0
 10
754.256779
 20
1074.064721
 42
-0.000555
  0
VERTEX
  8
0
 10
755.973366
 20
1080.940625
 42
-0.000552
  0
VERTEX
  8
0
 10
757.741930
 20
1087.958593
 42
-0.000861
  0
VERTEX
  8
0
 10
759.282562
 20
1094.000000
 42
0.001470
  0
VERTEX
  8
0
 10
760.806439
 20
1100.006266
 42
0.000973
  0
VERTEX
  8
0
 10
762.522776
 20
1106.912500
 42
0.000979
  0
VERTEX
  8
0
 10
764.164294
 20
1113.629616
 42
0.001904
  0
VERTEX
  8
0
 10
765.443930
 20
1119.000000
 42
-0.004424
  0
VERTEX
  8
0
 10
767.736459
 20
1128.410712
 42
-0.006424
  0
VERTEX
  8
0
 10
769.939269
 20
1136.669676
 42
-0.005632
  0
VERTEX
  8
0
 10
771.891635
 20
1143.339471
 42
-0.047326
  0
VERTEX
  8
0
 10
773.084507
 20
1146.236431
 42
0.025343
  0
VERTEX
  8
0
 10
773.998272
 20
1148.205342
 42
0.228443
  0
VERTEX
  8
0
 10
773.937933
 20
1149.127495
 42
0.487188
  0
VERTEX
  8
0
 10
773.358256
 20
1149.214860
 42
0.038674
  0
VERTEX
  8
0
 10
772.152639
 20
1147.884859
 42
0.046150
  0
VERTEX
  8
0
 10
769.722581
 20
1144.067111
 42
0.003137
  0
VERTEX
  8
0
 10
763.908766
 20
1132.574322
 42
0.004988
  0
VERTEX
  8
0
 10
758.145331
 20
1120.706201
 42
0.010981
  0
VERTEX
  8
0
 10
754.032524
 20
1111.500000
 42
-0.000185
  0
VERTEX
  8
0
 10
752.428639
 20
1107.691066
 42
-0.000087
  0
VERTEX
  8
0
 10
750.351461
 20
1102.765625
 42
-0.000086
  0
VERTEX
  8
0
 10
748.172741
 20
1097.604383
 42
-0.000121
  0
VERTEX
  8
0
 10
746.226846
 20
1093.000000
 42
0.002026
  0
VERTEX
  8
0
 10
744.116854
 20
1087.953779
 42
0.000917
  0
VERTEX
  8
0
 10
741.390868
 20
1081.325000
 42
0.000907
  0
VERTEX
  8
0
 10
738.539631
 20
1074.319100
 42
0.001242
  0
VERTEX
  8
0
 10
735.999508
 20
1068.000000
 42
-0.001527
  0
VERTEX
  8
0
 10
733.528127
 20
1061.862039
 42
-0.001306
  0
VERTEX
  8
0
 10
730.887455
 20
1055.409375
 42
-0.001315
  0
VERTEX
  8
0
 10
728.456147
 20
1049.556009
 42
-0.003752
  0
VERTEX
  8
0
 10
726.723004
 20
1045.500000
 42
0.001035
  0
VERTEX
  8
0
 10
725.099111
 20
1041.756104
 42
0.000531
  0
VERTEX
  8
0
 10
723.078746
 20
1037.057874
 42
0.000528
  0
VERTEX
  8
0
 10
721.009098
 20
1032.216800
 42
0.000797
  0
VERTEX
  8
0
 10
719.217372
 20
1027.994890
 42
-0.015601
  0
VERTEX
  8
0
 10
705.301366
 20
997.728333
 42
-0.015185
  0
VERTEX
  8
0
 10
689.406556
 20
968.109028
 42
-0.014948
  0
VERTEX
  8
0
 10
671.484466
 20
939.059343
 42
-0.014032
  0
VERTEX
  8
0
 10
651.492231
 20
910.500000
 42
-0.000041
  0
VERTEX
  8
0
 10
646.172196
 20
903.338000
 42
-0.000019
  0
VERTEX
  8
0
 10
639.257265
 20
894.031250
 42
-0.000019
  0
VERTEX
  8
0
 10
631.991013
 20
884.253215
 42
-0.000026
  0
VERTEX
  8
0
 10
625.485094
 20
875.500000
 42
0.003905
  0
VERTEX
  8
0
 10
615.966120
 20
862.483247
 42
0.005376
  0
VERTEX
  8
0
 10
607.631574
 20
850.630504
 42
0.006001
  0
VERTEX
  8
0
 10
600.813696
 20
840.449996
 42
0.014760
  0
VERTEX
  8
0
 10
596.120550
 20
832.770830
 42
0.003068
  0
VERTEX
  8
0
 10
585.846321
 20
814.528432
 42
0.013541
  0
VERTEX
  8
0
 10
580.153324
 20
803.585446
 42
0.019528
  0
VERTEX
  8
0
 10
576.115498
 20
794.385427
 42
0.012282
  0
VERTEX
  8
0
 10
572.089455
 20
783.354891
 42
0.011226
  0
VERTEX
  8
0
 10
567.951510
 20
770.116689
 42
0.014968
  0
VERTEX
  8
0
 10
564.827984
 20
757.912982
 42
0.014861
  0
VERTEX
  8
0
 10
562.424007
 20
745.474568
 42
0.010817
  0
VERTEX
  8
0
 10
560.463957
 20
731.521806
 42
0.023308
  0
VERTEX
  8
0
 10
559.146893
 20
713.087143
 42
0.029213
  0
VERTEX
  8
0
 10
559.724152
 20
695.960660
 42
0.029529
  0
VERTEX
  8
0
 10
562.281326
 20
679.170733
 42
0.024718
  0
VERTEX
  8
0
 10
566.908309
 20
661.750000
 42
-0.006066
  0
VERTEX
  8
0
 10
568.495228
 20
656.563044
 42
-0.017940
  0
VERTEX
  8
0
 10
569.412713
 20
652.953213
 42
-0.018400
  0
VERTEX
  8
0
 10
569.855500
 20
650.466598
 42
-0.455666
  0
VERTEX
  8
0
 10
569.449810
 20
650.000000
 42
-0.207689
  0
VERTEX
  8
0
 10
566.383761
 20
651.330984
 42
-0.004223
  0
VERTEX
  8
0
 10
554.742915
 20
663.997224
 42
-0.010568
  0
VERTEX
  8
0
 10
543.736694
 20
676.707846
 42
-0.027236
  0
VERTEX
  8
0
 10
536.505310
 20
686.459723
 42
-0.023589
  0
VERTEX
  8
0
 10
525.723693
 20
704.592406
 42
-0.019915
  0
VERTEX
  8
0
 10
516.024744
 20
724.699382
 42
-0.019655
  0
VERTEX
  8
0
 10
507.824783
 20
745.821146
 42
-0.021199
  0
VERTEX
  8
0
 10
501.536627
 20
767.000000
 42
-0.004178
  0
VERTEX
  8
0
 10
497.601526
 20
783.229918
 42
-0.008940
  0
VERTEX
  8
0
 10
494.893442
 20
795.834438
 42
-0.009469
  0
VERTEX
  8
0
 10
492.732986
 20
808.066803
 42
-0.005317
  0
VERTEX
  8
0
 10
490.548641
 20
823.000000
 42
0.000052
  0
VERTEX
  8
0
 10
489.912147
 20
827.696109
 42
0.000056
  0
VERTEX
  8
0
 10
489.287562
 20
832.296875
 42
0.000053
  0
VERTEX
  8
0
 10
488.749130
 20
836.256583
 42
0.000258
  0
VERTEX
  8
0
 10
488.442655
 20
838.500000
 42
-0.015300
  0
VERTEX
  8
0
 10
486.661404
 20
855.291061
 42
-0.010866
  0
VERTEX
  8
0
 10
485.651493
 20
874.199904
 42
-0.006447
  0
VERTEX
  8
0
 10
485.149799
 20
900.976634
 42
-0.001420
  0
VERTEX
  8
0
 10
485.011847
 20
946.941402
 42
0.002118
  0
VERTEX
  8
0
 10
484.775116
 20
1000.772769
 42
0.011734
  0
VERTEX
  8
0
 10
483.846038
 20
1029.705396
 42
0.017675
  0
VERTEX
  8
0
 10
481.715201
 20
1053.078538
 42
0.009246
  0
VERTEX
  8
0
 10
477.499243
 20
1082.000000
 42
0.021017
  0
VERTEX
  8
0
 10
472.567815
 20
1105.685549
 42
0.016269
  0
VERTEX
  8
0
 10
465.288086
 20
1131.017380
 42
0.016408
  0
VERTEX
  8
0
 10
456.484088
 20
1155.501619
 42
0.023237
  0
VERTEX
  8
0
 10
446.948618
 20
1176.600921
 42
0.048019
  0
VERTEX
  8
0
 10
425.126908
 20
1210.879977
 42
0.057425
  0
VERTEX
  8
0
 10
398.285785
 20
1238.144137
 42
0.057882
  0
VERTEX
  8
0
 10
366.137475
 20
1258.427693
 42
0.050002
  0
VERTEX
  8
0
 10
328.588542
 20
1272.019390
 42
0.018545
  0
VERTEX
  8
0
 10
317.973001
 20
1274.285280
 42
0.011155
  0
VERTEX
  8
0
 10
305.238336
 20
1276.221668
 42
0.011180
  0
VERTEX
  8
0
 10
292.637254
 20
1277.565379
 42
0.021555
  0
VERTEX
  8
0
 10
282.500000
 20
1277.978908
 42
0.017596
  0
VERTEX
  8
0
 10
275.041402
 20
1277.698922
 42
0.005623
  0
VERTEX
  8
0
 10
263.980024
 20
1276.768070
 42
0.005748
  0
VERTEX
  8
0
 10
252.087096
 20
1275.494279
 42
0.008055
  0
VERTEX
  8
0
 10
241.500000
 20
1274.063784
 42
0.002348
  0
VERTEX
  8
0
 10
223.491510
 20
1271.247875
 42
0.002249
  0
VERTEX
  8
0
 10
205.248313
 20
1268.223184
 42
0.000866
  0
VERTEX
  8
0
 10
188.365776
 20
1265.315917
 42
0.043260
  0
VERTEX
  8
0
 10
185.103574
 20
1264.452536
 42
-0.034898
  0
VERTEX
  8
0
 10
184.236240
 20
1264.207419
 42
-0.004399
  0
VERTEX
  8
0
 10
182.324423
 20
1263.826113
 42
-0.005150
  0
VERTEX
  8
0
 10
180.042879
 20
1263.416206
 42
-0.004256
  0
VERTEX
  8
0
 10
177.603574
 20
1263.025172
 42
0.002432
  0
VERTEX
  8
0
 10
174.300242
 20
1262.507982
 42
0.000601
  0
VERTEX
  8
0
 10
168.886675
 20
1261.626725
 42
0.000615
  0
VERTEX
  8
0
 10
162.690419
 20
1260.602583
 42
0.000616
  0
VERTEX
  8
0
 10
156.500000
 20
1259.563745
 42
-0.007121
  0
VERTEX
  8
0
 10
146.396085
 20
1258.003035
 42
-0.015722
  0
VERTEX
  8
0
 10
138.636178
 20
1257.165057
 42
-0.075605
  0
VERTEX
  8
0
 10
136.030144
 20
1257.360334
 42
-0.758624
  0
VERTEX
  8
0
 10
136.000000
 20
1258.000064
 42
-0.007599
  0
VERTEX
  8
0
 10
137.574795
 20
1258.495305
 42
-0.000792
  0
VERTEX
  8
0
 10
141.290625
 20
1259.595685
 42
-0.000983
  0
VERTEX
  8
0
 10
145.721946
 20
1260.890851
 42
-0.000787
  0
VERTEX
  8
0
 10
150.500000
 20
1262.269019
 42
0.019906
  0
VERTEX
  8
0
 10
165.874786
 20
1267.347833
 42
0.017767
  0
VERTEX
  8
0
 10
181.402207
 20
1273.810201
 42
0.014009
  0
VERTEX
  8
0
 10
199.458548
 20
1282.709693
 42
0.006063
  0
VERTEX
  8
0
 10
223.000000
 20
1295.511577
 42
-0.008095
  0
VERTEX
  8
0
 10
240.757630
 20
1305.074923
 42
-0.011180
  0
VERTEX
  8
0
 10
257.015503
 20
1313.038157
 42
-0.012440
  0
VERTEX
  8
0
 10
271.965731
 20
1319.504459
 42
-0.016968
  0
VERTEX
  8
0
 10
285.759470
 20
1324.530392
 42
-0.011702
  0
VERTEX
  8
0
 10
305.796487
 20
1330.555016
 42
-0.024883
  0
VERTEX
  8
0
 10
321.594975
 20
1334.069899
 42
-0.022334
  0
VERTEX
  8
0
 10
338.693195
 20
1336.209700
 42
-0.007750
  0
VERTEX
  8
0
 10
363.500000
 20
1337.807980
 42
-0.022452
  0
VERTEX
  8
0
 10
365.318142
 20
1337.815152
 42
-0.002927
  0
VERTEX
  8
0
 10
369.188818
 20
1337.633851
 42
-0.003403
  0
VERTEX
  8
0
 10
373.780250
 20
1337.360503
 42
-0.002840
  0
SEQEND
  0
POLYLINE
  8
0
 66
1
 70
1
  0
VERTEX
  8
0
 10
636.763167
 20
1264.696544
 42
-0.019945
  0
VERTEX
  8
0
 10
638.924464
 20
1264.023928
 42
-0.018871
  0
VERTEX
  8
0
 10
641.066290
 20
1263.170116
 42
-0.019219
  0
VERTEX
  8
0
 10
642.902426
 20
1262.270669
 42
-0.060481
  0
VERTEX
  8
0
 10
644.021263
 20
1261.480757
 42
-0.021969
  0
VERTEX
  8
0
 10
645.155541
 20
1260.359792
 42
-0.162607
  0
VERTEX
  8
0
 10
645.464551
 20
1259.676982
 42
-0.182451
  0
VERTEX
  8
0
 10
645.282364
 20
1258.987535
 42
-0.029079
  0
VERTEX
  8
0
 10
644.391898
 20
1257.880549
 42
-0.109392
  0
VERTEX
  8
0
 10
641.912764
 20
1256.120699
 42
-0.020349
  0
VERTEX
  8
0
 10
636.651158
 20
1254.147980
 42
-0.022428
  0
VERTEX
  8
0
 10
630.630699
 20
1252.461233
 42
-0.029365
  0
VERTEX
  8
0
 10
625.000000
 20
1251.496979
 42
-0.038369
  0
VERTEX
  8
0
 10
619.410615
 20
1251.305789
 42
-0.024073
  0
VERTEX
  8
0
 10
612.893380
 20
1251.898152
 42
-0.024148
  0
VERTEX
  8
0
 10
606.703993
 20
1253.069670
 42
-0.054856
  0
VERTEX
  8
0
 10
602.229356
 20
1254.677505
 42
-0.062286
  0
VERTEX
  8
0
 10
599.410907
 20
1256.519914
 42
-0.225454
  0
VERTEX
  8
0
 10
598.552621
 20
1258.421780
 42
-0.214523
  0
VERTEX
  8
0
 10
599.470102
 20
1260.359505
 42
-0.056874
  0
VERTEX
  8
0
 10
602.378872
 20
1262.316879
 42
-0.060423
  0
VERTEX
  8
0
 10
609.715635
 20
1265.061686
 42
-0.042075
  0
VERTEX
  8
0
 10
618.464151
 20
1266.412521
 42
-0.040316
  0
VERTEX
  8
0
 10
627.764866
 20
1266.305642
 42
-0.042462
  0
SEQEND
  0
POLYLINE
  8
0
 66
1
 70
1
  0
VERTEX
  8
0
 10
628.760639
 20
1175.932077
 42
0.034077
  0
VERTEX
  8
0
 10
630.400631
 20
1174.309554
 42
0.017026
  0
VERTEX
  8
0
 10
632.675267
 20
1172.478155
 42
0.016819
  0
VERTEX
  8
0
 10
635.168955
 20
1170.734590
 42
0.023767
  0
VERTEX
  8
0
 10
637.508263
 20
1169.367023
 42
-0.008384
  0
VERTEX
  8
0
 10
639.611404
 20
1168.222810
 42
-0.012969
  0
VERTEX
  8
0
 10
641.384144
 20
1167.157844
 42
-0.007249
  0
VERTEX
  8
0
 10
642.813241
 20
1166.218678
 42
-0.247662
  0
VERTEX
  8
0
 10
642.997624
 20
1165.872445
 42
-0.361407
  0
VERTEX
  8
0
 10
640.302755
 20
1162.606035
 42
-0.025657
  0
VERTEX
  8
0
 10
627.724318
 20
1160.883751
 42
-0.032100
  0
VERTEX
  8
0
 10
614.191692
 20
1160.604986
 42
-0.081150
  0
VERTEX
  8
0
 10
604.583195
 20
1162.608071
 42
-0.014426
  0
VERTEX
  8
0
 10
602.676566
 20
1163.405925
 42
-0.019858
  0
VERTEX
  8
0
 10
601.016617
 20
1164.238461
 42
-0.016918
  0
VERTEX
  8
0
 10
599.720053
 20
1165.012888
 42
-0.173834
  0
VERTEX
  8
0
 10
599.346105
 20
1165.500416
 42
-0.293340
  0
VERTEX
  8
0
 10
599.491780
 20
1166.046721
 42
-0.019051
  0
VERTEX
  8
0
 10
600.805175
 20
1167.156209
 42
-0.022893
  0
VERTEX
  8
0
 10
602.587279
 20
1168.421920
 42
-0.014639
  0
VERTEX
  8
0
 10
604.762911
 20
1169.733486
 42
0.012619
  0
VERTEX
  8
0
 10
609.257434
 20
1172.418298
 42
0.034740
  0
VERTEX
  8
0
 10
612.231809
 20
1174.601384
 42
0.036140
  0
VERTEX
  8
0
 10
614.809683
 20
1177.125483
 42
0.014613
  0
VERTEX
  8
0
 10
617.960908
 20
1180.909040
 42
0.000000
  0
VERTEX
  8
0
 10
621.419982
 20
1185.318079
 42
0.000000
  0
VERTEX
  8
0
 10
623.459991
 20
1182.474094
 42
0.010182
  0
VERTEX
  8
0
 10
624.470826
 20
1181.123806
 42
0.004497
  0
VERTEX
  8
0
 10
625.858560
 20
1179.379232
 42
0.004448
  0
VERTEX
  8
0
 10
627.362987
 20
1177.555885
 42
0.005969
  0
SEQEND
  0
POLYLINE
  8
0
 66
1
 70
1
  0
VERTEX
  8
0
 10
874.397212
 20
1093.763225
 42
-0.027065
  0
VERTEX
  8
0
 10
889.067266
 20
1066.555011
 42
-0.023326
  0
VERTEX
  8
0
 10
901.530218
 20
1036.554781
 42
-0.023806
  0
VERTEX
  8
0
 10
910.861281
 20
1006.335193
 42
-0.033078
  0
VERTEX
  8
0
 10
916.092039
 20
978.500000
 42
-0.006441
  0
VERTEX
  8
0
 10
917.503294
 20
965.328690
 42
-0.004510
  0
VERTEX
  8
0
 10
918.768000
 20
950.456900
 42
-0.004375
  0
VERTEX
  8
0
 10
919.696398
 20
936.634750
 42
-0.014404
  0
VERTEX
  8
0
 10
919.966063
 20
927.500000
 42
-0.016017
  0
VERTEX
  8
0
 10
919.507597
 20
912.869089
 42
-0.008914
  0
VERTEX
  8
0
 10
918.060774
 20
895.086714
 42
-0.003434
  0
VERTEX
  8
0
 10
916.188528
 20
877.469743
 42
-0.169767
  0
VERTEX
  8
0
 10
914.686725
 20
874.353392
 42
-0.602391
  0
VERTEX
  8
0
 10
914.209871
 20
874.500354
 42
-0.010672
  0
VERTEX
  8
0
 10
913.650517
 20
877.835910
 42
-0.012398
  0
VERTEX
  8
0
 10
913.070283
 20
882.647494
 42
-0.004495
  0
VERTEX
  8
0
 10
912.477948
 20
889.500000
 42
0.011541
  0
VERTEX
  8
0
 10
911.738755
 20
896.843801
 42
0.002895
  0
VERTEX
  8
0
 10
910.187906
 20
908.781377
 42
0.003086
  0
VERTEX
  8
0
 10
908.450077
 20
921.011219
 42
0.007511
  0
VERTEX
  8
0
 10
906.977813
 20
930.000000
 42
-0.001168
  0
VERTEX
  8
0
 10
906.597835
 20
932.148679
 42
-0.000542
  0
VERTEX
  8
0
 10
906.113944
 20
934.940625
 42
-0.000537
  0
VERTEX
  8
0
 10
905.612052
 20
937.874048
 42
-0.000749
  0
VERTEX
  8
0
 10
905.169713
 20
940.500000
 42
0.007376
  0
VERTEX
  8
0
 10
903.685459
 20
948.650227
 42
0.002592
  0
VERTEX
  8
0
 10
901.321805
 20
960.306060
 42
0.002600
  0
VERTEX
  8
0
 10
898.626540
 20
972.923101
 42
0.003337
  0
VERTEX
  8
0
 10
896.009357
 20
984.500000
 42
-0.001840
  0
VERTEX
  8
0
 10
894.668690
 20
990.348831
 42
-0.001151
  0
VERTEX
  8
0
 10
893.139946
 20
997.206250
 42
-0.001154
  0
VERTEX
  8
0
 10
891.664969
 20
1003.969141
 42
-0.002103
  0
VERTEX
  8
0
 10
890.496391
 20
1009.500000
 42
0.006070
  0
VERTEX
  8
0
 10
888.358389
 20
1019.236561
 42
0.003190
  0
VERTEX
  8
0
 10
885.477044
 20
1031.288379
 42
0.002498
  0
VERTEX
  8
0
 10
881.672990
 20
1046.435505
 42
0.001171
  0
VERTEX
  8
0
 10
876.606667
 20
1066.000000
 42
0.003585
  0
VERTEX
  8
0
 10
873.973327
 20
1075.784631
 42
0.007304
  0
VERTEX
  8
0
 10
871.738003
 20
1083.423455
 42
0.008033
  0
VERTEX
  8
0
 10
869.425672
 20
1090.511344
 42
0.005478
  0
VERTEX
  8
0
 10
866.580012
 20
1098.495668
 42
-0.008021
  0
VERTEX
  8
0
 10
865.592155
 20
1101.312611
 42
-0.009658
  0
VERTEX
  8
0
 10
864.757879
 20
1103.991308
 42
-0.008491
  0
VERTEX
  8
0
 10
864.139495
 20
1106.264289
 42
-0.062242
  0
VERTEX
  8
0
 10
864.000000
 20
1107.380526
 42
-0.044835
  0
VERTEX
  8
0
 10
864.082081
 20
1108.294058
 42
-0.462517
  0
VERTEX
  8
0
 10
864.369817
 20
1108.460776
 42
-0.133682
  0
VERTEX
  8
0
 10
864.874255
 20
1108.110410
 42
-0.007855
  0
VERTEX
  8
0
 10
866.062177
 20
1106.648084
 42
-0.020017
  0
VERTEX
  8
0
 10
867.215411
 20
1105.054671
 42
-0.003069
  0
VERTEX
  8
0
 10
869.361242
 20
1101.781733
 42
-0.003426
  0
VERTEX
  8
0
 10
871.844384
 20
1097.884831
 42
-0.002967
  0
SEQEND
  0
POLYLINE
  8
0
 66
1
 70
1
  0
VERTEX
  8
0
 10
397.518775
 20
1104.030378
 42
0.099854
  0
VERTEX
  8
0
 10
397.229349
 20
1103.248497
 42
0.001127
  0
VERTEX
  8
0
 10
396.371062
 20
1097.690832
 42
0.003427
  0
VERTEX
  8
0
 10
395.436351
 20
1091.249920
 42
0.002221
  0
VERTEX
  8
0
 10
394.439434
 20
1083.788298
 42
-0.004938
  0
VERTEX
  8
0
 10
390.559897
 20
1055.906360
 42
-0.010919
  0
VERTEX
  8
0
 10
386.926388
 20
1034.735027
 42
-0.009578
  0
VERTEX
  8
0
 10
382.084009
 20
1012.122604
 42
-0.003015
  0
VERTEX
  8
0
 10
373.993200
 20
978.500000
 42
0.005577
  0
VERTEX
  8
0
 10
364.695562
 20
938.973153
 42
0.016377
  0
VERTEX
  8
0
 10
359.494982
 20
911.505449
 42
0.020145
  0
VERTEX
  8
0
 10
356.694823
 20
887.067285
 42
0.012863
  0
VERTEX
  8
0
 10
355.320426
 20
858.500000
 42
0.008735
  0
VERTEX
  8
0
 10
355.204313
 20
834.703028
 42
0.015081
  0
VERTEX
  8
0
 10
356.050329
 20
814.925166
 42
0.017573
  0
VERTEX
  8
0
 10
357.925613
 20
797.637273
 42
0.020874
  0
VERTEX
  8
0
 10
360.944457
 20
781.500000
 42
0.026062
  0
VERTEX
  8
0
 10
367.548832
 20
758.427474
 42
0.020653
  0
VERTEX
  8
0
 10
376.983011
 20
734.261881
 42
0.020334
  0
VERTEX
  8
0
 10
388.578363
 20
710.510638
 42
0.022732
  0
VERTEX
  8
0
 10
401.676855
 20
688.672968
 42
0.027056
  0
VERTEX
  8
0
 10
417.602401
 20
667.275905
 42
0.028279
  0
VERTEX
  8
0
 10
435.526282
 20
648.054258
 42
0.028510
  0
VERTEX
  8
0
 10
455.357958
 20
631.119276
 42
0.028527
  0
VERTEX
  8
0
 10
476.983521
 20
616.554048
 42
0.001671
  0
VERTEX
  8
0
 10
481.248576
 20
614.041595
 42
0.002664
  0
VERTEX
  8
0
 10
484.913505
 20
611.925252
 42
0.000558
  0
VERTEX
  8
0
 10
488.144832
 20
610.086960
 42
0.129751
  0
VERTEX
  8
0
 10
488.474294
 20
610.000000
 42
-0.102588
  0
VERTEX
  8
0
 10
488.801965
 20
609.932055
 42
-0.001092
  0
VERTEX
  8
0
 10
490.932573
 20
609.003223
 42
-0.003409
  0
VERTEX
  8
0
 10
493.385971
 20
607.907285
 42
-0.002204
  0
VERTEX
  8
0
 10
496.211843
 20
606.606716
 42
0.001769
  0
VERTEX
  8
0
 10
499.112502
 20
605.268671
 42
0.002249
  0
VERTEX
  8
0
 10
501.799729
 20
604.055177
 42
0.001760
  0
VERTEX
  8
0
 10
504.060832
 20
603.055858
 42
0.018580
  0
VERTEX
  8
0
 10
505.000000
 20
602.685663
 42
-0.666544
  0
VERTEX
  8
0
 10
505.021836
 20
602.300567
 42
-0.123685
  0
VERTEX
  8
0
 10
504.002495
 20
602.088110
 42
-0.027448
  0
VERTEX
  8
0
 10
501.120000
 20
602.364282
 42
-0.037201
  0
VERTEX
  8
0
 10
498.570998
 20
602.947062
 42
-0.007710
  0
VERTEX
  8
0
 10
476.541146
 20
610.114627
 42
-0.019282
  0
VERTEX
  8
0
 10
460.763641
 20
616.207551
 42
-0.023674
  0
VERTEX
  8
0
 10
447.537246
 20
622.669114
 42
-0.018957
  0
VERTEX
  8
0
 10
433.934848
 20
630.816942
 42
-0.019686
  0
VERTEX
  8
0
 10
420.305655
 20
640.484551
 42
-0.022740
  0
VERTEX
  8
0
 10
408.144834
 20
650.764954
 42
-0.021848
  0
VERTEX
  8
0
 10
396.574278
 20
662.464954
 42
-0.015862
  0
VERTEX
  8
0
 10
384.711571
 20
676.422997
 42
-0.035416
  0
VERTEX
  8
0
 10
366.862370
 20
702.406854
 42
-0.037369
  0
VERTEX
  8
0
 10
353.216723
 20
730.200085
 42
-0.034738
  0
VERTEX
  8
0
 10
343.118308
 20
761.483211
 42
-0.024000
  0
VERTEX
  8
0
 10
335.913112
 20
798.000000
 42
-0.031299
  0
VERTEX
  8
0
 10
335.022598
 20
808.545864
 42
-0.003738
  0
VERTEX
  8
0
 10
334.690245
 20
831.968087
 42
-0.002068
  0
VERTEX
  8
0
 10
334.627159
 20
856.459687
 42
-0.076717
  0
VERTEX
  8
0
 10
335.483850
 20
861.953360
 42
0.005550
  0
VERTEX
  8
0
 10
335.926589
 20
863.401368
 42
0.217413
  0
VERTEX
  8
0
 10
335.880040
 20
863.725745
 42
0.467800
  0
VERTEX
  8
0
 10
335.661468
 20
863.753207
 42
0.011548
  0
VERTEX
  8
0
 10
334.841903
 20
862.953360
 42
0.111538
  0
VERTEX
  8
0
 10
332.900984
 20
859.804057
 42
0.003528
  0
VERTEX
  8
0
 10
328.092930
 20
845.444722
 42
0.007645
  0
VERTEX
  8
0
 10
323.485520
 20
830.590145
 42
0.012939
  0
VERTEX
  8
0
 10
320.141763
 20
818.000000
 42
0.009259
  0
VERTEX
  8
0
 10
317.020640
 20
803.721022
 42
0.024039
  0
VERTEX
  8
0
 10
315.462059
 20
793.310634
 42
0.020251
  0
VERTEX
  8
0
 10
314.771999
 20
781.832058
 42
0.005028
  0
VERTEX
  8
0
 10
314.593239
 20
763.000000
 42
0.004208
  0
VERTEX
  8
0
 10
314.751998
 20
745.319342
 42
0.015203
  0
VERTEX
  8
0
 10
315.289988
 20
734.072673
 42
0.019049
  0
VERTEX
  8
0
 10
316.440868
 20
724.221225
 42
0.009833
  0
VERTEX
  8
0
 10
318.589772
 20
712.000000
 42
0.042917
  0
VERTEX
  8
0
 10
327.372302
 20
681.400486
 42
0.034065
  0
VERTEX
  8
0
 10
341.819070
 20
650.179620
 42
0.033975
  0
VERTEX
  8
0
 10
360.426319
 20
621.112390
 42
0.041917
  0
VERTEX
  8
0
 10
381.662195
 20
596.954980
 42
0.021460
  0
VERTEX
  8
0
 10
398.110916
 20
582.441654
 42
0.027045
  0
VERTEX
  8
0
 10
414.563596
 20
570.546774
 42
0.026433
  0
VERTEX
  8
0
 10
432.514818
 20
560.291269
 42
0.019067
  0
VERTEX
  8
0
 10
453.500000
 20
550.716169
 42
0.024156
  0
VERTEX
  8
0
 10
472.816924
 20
543.847599
 42
0.023345
  0
VERTEX
  8
0
 10
492.926308
 20
538.784580
 42
0.021944
  0
VERTEX
  8
0
 10
514.568029
 20
535.378907
 42
0.016696
  0
VERTEX
  8
0
 10
538.500000
 20
533.488756
 42
0.031229
  0
VERTEX
  8
0
 10
565.526126
 20
533.948523
 42
0.025705
  0
VERTEX
  8
0
 10
594.129232
 20
537.712672
 42
0.026148
  0
VERTEX
  8
0
 10
621.532752
 20
544.260102
 42
0.037365
  0
VERTEX
  8
0
 10
644.907655
 20
553.098774
 42
-0.007938
  0
VERTEX
  8
0
 10
648.173196
 20
554.558366
 42
-0.012581
  0
VERTEX
  8
0
 10
651.019444
 20
555.692861
 42
-0.006507
  0
VERTEX
  8
0
 10
653.410518
 20
556.541681
 42
-0.285796
  0
VERTEX
  8
0
 10
653.907250
 20
556.426083
 42
-0.441436
  0
VERTEX
  8
0
 10
653.822285
 20
554.581143
 42
-0.005246
  0
VERTEX
  8
0
 10
643.362262
 20
546.072844
 42
-0.013395
  0
VERTEX
  8
0
 10
632.007368
 20
537.519661
 42
-0.017808
  0
VERTEX
  8
0
 10
621.219543
 20
530.402631
 42
-0.028628
  0
VERTEX
  8
0
 10
595.658650
 20
516.757867
 42
-0.036932
  0
VERTEX
  8
0
 10
570.754132
 20
507.404746
 42
-0.036625
  0
VERTEX
  8
0
 10
544.575692
 20
501.764393
 42
-0.027438
  0
VERTEX
  8
0
 10
515.176372
 20
499.285008
 42
-0.005814
  0
VERTEX
  8
0
 10
506.251575
 20
499.127511
 42
-0.006700
  0
VERTEX
  8
0
 10
497.737953
 20
499.190372
 42
-0.007250
  0
VERTEX
  8
0
 10
490.052785
 20
499.461633
 42
-0.012533
  0
VERTEX
  8
0
 10
483.676372
 20
499.939773
 42
-0.012311
  0
VERTEX
  8
0
 10
473.864489
 20
501.168011
 42
-0.006347
  0
VERTEX
  8
0
 10
461.650652
 20
503.162206
 42
-0.005724
  0
VERTEX
  8
0
 10
450.079823
 20
505.339401
 42
-0.026624
  0
VERTEX
  8
0
 10
443.500000
 20
507.024216
 42
-0.010199
  0
VERTEX
  8
0
 10
428.422657
 20
512.092839
 42
-0.016853
  0
VERTEX
  8
0
 10
415.940228
 20
517.055437
 42
-0.018082
  0
VERTEX
  8
0
 10
404.463014
 20
522.575091
 42
-0.014431
  0
VERTEX
  8
0
 10
392.500000
 20
529.318464
 42
-0.026773
  0
VERTEX
  8
0
 10
369.054839
 20
545.209991
 42
-0.029891
  0
VERTEX
  8
0
 10
348.334192
 20
562.983280
 42
-0.027745
  0
VERTEX
  8
0
 10
328.659371
 20
584.248342
 42
-0.018178
  0
VERTEX
  8
0
 10
308.323120
 20
610.737444
 42
0.101303
  0
VERTEX
  8
0
 10
305.656609
 20
613.223963
 42
0.662389
  0
VERTEX
  8
0
 10
304.617464
 20
612.479743
 42
0.046723
  0
VERTEX
  8
0
 10
306.797227
 20
605.771072
 42
0.009267
  0
VERTEX
  8
0
 10
312.020809
 20
594.262117
 42
0.028902
  0
VERTEX
  8
0
 10
326.661746
 20
567.613700
 42
0.034137
  0
VERTEX
  8
0
 10
343.567512
 20
544.350227
 42
0.035621
  0
VERTEX
  8
0
 10
362.779098
 20
524.453699
 42
0.037525
  0
VERTEX
  8
0
 10
384.305983
 20
507.860646
 42
0.015175
  0
VERTEX
  8
0
 10
391.817422
 20
503.241673
 42
0.012039
  0
VERTEX
  8
0
 10
400.192590
 20
498.699985
 42
0.012297
  0
VERTEX
  8
0
 10
408.434690
 20
494.736589
 42
0.021193
  0
VERTEX
  8
0
 10
415.500000
 20
491.904309
 42
-0.008901
  0
VERTEX
  8
0
 10
416.616360
 20
491.488336
 42
-0.517334
  0
VERTEX
  8
0
 10
416.660896
 20
491.307505
 42
-0.203673
  0
VERTEX
  8
0
 10
416.383002
 20
491.171346
 42
-0.004197
  0
VERTEX
  8
0
 10
414.803688
 20
491.099680
 42
-0.070067
  0
VERTEX
  8
0
 10
409.843983
 20
491.612112
 42
-0.005681
  0
VERTEX
  8
0
 10
397.146744
 20
494.911407
 42
-0.008407
  0
VERTEX
  8
0
 10
384.152557
 20
498.681696
 42
-0.018371
  0
VERTEX
  8
0
 10
374.365229
 20
502.099294
 42
-0.033516
  0
VERTEX
  8
0
 10
360.735239
 20
508.510922
 42
-0.026236
  0
VERTEX
  8
0
 10
346.874766
 20
517.184540
 42
-0.024252
  0
VERTEX
  8
0
 10
332.911873
 20
528.023799
 42
-0.019520
  0
VERTEX
  8
0
 10
318.974078
 20
540.947038
 42
-0.023267
  0
VERTEX
  8
0
 10
305.902406
 20
555.332393
 42
-0.024631
  0
VERTEX
  8
0
 10
294.485709
 20
570.608375
 42
-0.023971
  0
VERTEX
  8
0
 10
284.364853
 20
587.316740
 42
-0.019809
  0
VERTEX
  8
0
 10
275.176051
 20
606.000000
 42
-0.043403
  0
VERTEX
  8
0
 10
266.237970
 20
632.033588
 42
-0.025373
  0
VERTEX
  8
0
 10
259.900269
 20
664.422442
 42
-0.024641
  0
VERTEX
  8
0
 10
256.675178
 20
698.915872
 42
-0.029585
  0
VERTEX
  8
0
 10
257.170377
 20
731.500000
 42
0.003895
  0
VERTEX
  8
0
 10
257.392034
 20
734.825264
 42
0.009608
  0
VERTEX
  8
0
 10
257.488736
 20
737.268750
 42
0.023995
  0
VERTEX
  8
0
 10
257.455052
 20
738.486982
 42
0.845655
  0
VERTEX
  8
0
 10
257.312769
 20
738.500000
 42
-0.022142
  0
VERTEX
  8
0
 10
257.050799
 20
737.660209
 42
-0.018305
  0
VERTEX
  8
0
 10
256.700234
 20
736.790756
 42
-0.018691
  0
VERTEX
  8
0
 10
256.319157
 20
736.016248
 42
-0.046214
  0
VERTEX
  8
0
 10
255.968969
 20
735.489807
 42
0.100737
  0
VERTEX
  8
0
 10
255.081683
 20
733.779443
 42
0.003739
  0
VERTEX
  8
0
 10
253.132472
 20
726.743989
 42
0.007312
  0
VERTEX
  8
0
 10
251.172448
 20
719.009057
 42
0.008169
  0
VERTEX
  8
0
 10
249.515227
 20
711.500000
 42
0.029793
  0
VERTEX
  8
0
 10
246.493612
 20
690.259336
 42
0.023406
  0
VERTEX
  8
0
 10
245.681189
 20
667.013789
 42
0.022872
  0
VERTEX
  8
0
 10
247.056853
 20
643.158558
 42
0.024504
  0
VERTEX
  8
0
 10
250.600306
 20
620.077944
 42
0.027306
  0
VERTEX
  8
0
 10
255.704092
 20
600.573316
 42
0.020588
  0
VERTEX
  8
0
 10
263.338613
 20
579.768472
 42
0.020628
  0
VERTEX
  8
0
 10
272.633820
 20
559.719334
 42
0.027905
  0
VERTEX
  8
0
 10
282.749980
 20
542.500000
 42
0.021347
  0
VERTEX
  8
0
 10
291.417874
 20
530.603076
 42
0.015166
  0
VERTEX
  8
0
 10
302.085414
 20
518.006531
 42
0.015348
  0
VERTEX
  8
0
 10
313.160902
 20
506.439496
 42
0.027606
  0
VERTEX
  8
0
 10
323.023470
 20
497.768199
 42
-0.584879
  0
VERTEX
  8
0
 10
322.839626
 20
496.581271
 42
-0.197166
  0
VERTEX
  8
0
 10
320.520159
 20
496.652419
 42
-0.023800
  0
VERTEX
  8
0
 10
311.046114
 20
501.436253
 42
-0.016418
  0
VERTEX
  8
0
 10
300.785408
 20
507.699169
 42
-0.031395
  0
VERTEX
  8
0
 10
289.659216
 20
516.045849
 42
-0.020653
  0
VERTEX
  8
0
 10
277.918290
 20
526.933044
 42
-0.019965
  0
VERTEX
  8
0
 10
266.582715
 20
539.300693
 42
-0.022027
  0
VERTEX
  8
0
 10
256.655563
 20
552.146942
 42
-0.034942
  0
VERTEX
  8
0
 10
244.031103
 20
573.017386
 42
-0.026629
  0
VERTEX
  8
0
 10
233.114342
 20
597.403267
 42
-0.026481
  0
VERTEX
  8
0
 10
224.783145
 20
622.995463
 42
-0.033082
  0
VERTEX
  8
0
 10
219.927272
 20
647.500000
 42
0.007680
  0
VERTEX
  8
0
 10
219.388126
 20
651.196052
 42
0.007772
  0
VERTEX
  8
0
 10
218.737604
 20
654.859222
 42
0.007613
  0
VERTEX
  8
0
 10
218.073569
 20
658.028722
 42
0.031162
  0
VERTEX
  8
0
 10
217.523065
 20
659.914371
 42
0.015103
  0
VERTEX
  8
0
 10
216.715548
 20
661.956518
 42
0.636638
  0
VERTEX
  8
0
 10
216.356364
 20
661.967364
 42
0.090719
  0
VERTEX
  8
0
 10
216.082766
 20
661.037616
 42
0.001758
  0
VERTEX
  8
0
 10
215.573483
 20
656.048962
 42
0.041240
  0
VERTEX
  8
0
 10
215.359559
 20
642.498857
 42
0.014425
  0
VERTEX
  8
0
 10
217.219213
 20
623.084193
 42
0.014412
  0
VERTEX
  8
0
 10
220.456703
 20
602.112317
 42
0.018337
  0
VERTEX
  8
0
 10
224.703621
 20
583.000000
 42
0.042787
  0
VERTEX
  8
0
 10
236.543396
 20
549.619343
 42
0.034379
  0
VERTEX
  8
0
 10
254.653205
 20
516.079797
 42
0.035061
  0
VERTEX
  8
0
 10
276.614271
 20
486.206310
 42
0.052727
  0
VERTEX
  8
0
 10
300.000000
 20
463.915638
 42
-0.000213
  0
VERTEX
  8
0
 10
302.137807
 20
462.268435
 42
-0.000317
  0
VERTEX
  8
0
 10
304.006771
 20
460.825219
 42
-0.000133
  0
VERTEX
  8
0
 10
305.606036
 20
459.587962
 42
-0.006705
  0
VERTEX
  8
0
 10
305.916667
 20
459.340782
 42
-0.181217
  0
VERTEX
  8
0
 10
306.022786
 20
459.158290
 42
-0.104903
  0
VERTEX
  8
0
 10
306.012281
 20
458.901448
 42
-0.079585
  0
VERTEX
  8
0
 10
305.885029
 20
458.607667
 42
-0.054506
  0
VERTEX
  8
0
 10
305.657056
 20
458.323723
 42
-0.321288
  0
VERTEX
  8
0
 10
304.431474
 20
458.121338
 42
-0.005287
  0
VERTEX
  8
0
 10
297.898395
 20
461.428915
 42
-0.012988
  0
VERTEX
  8
0
 10
290.974275
 20
465.258543
 42
-0.014418
  0
VERTEX
  8
0
 10
284.500000
 20
469.317740
 42
-0.038985
  0
VERTEX
  8
0
 10
261.096708
 20
487.736791
 42
-0.038254
  0
VERTEX
  8
0
 10
240.675384
 20
509.674516
 42
-0.037775
  0
VERTEX
  8
0
 10
223.609438
 20
534.747045
 42
-0.035995
  0
VERTEX
  8
0
 10
210.197891
 20
562.500000
 42
-0.014924
  0
VERTEX
  8
0
 10
203.719584
 20
580.338729
 42
-0.015797
  0
VERTEX
  8
0
 10
198.449721
 20
598.199525
 42
-0.016321
  0
VERTEX
  8
0
 10
194.474147
 20
615.756767
 42
-0.018953
  0
VERTEX
  8
0
 10
191.878779
 20
632.684031
 42
0.007080
  0
VERTEX
  8
0
 10
191.329475
 20
636.938604
 42
0.012423
  0
VERTEX
  8
0
 10
190.738145
 20
640.437920
 42
0.006746
  0
VERTEX
  8
0
 10
190.156789
 20
643.223648
 42
0.515898
  0
VERTEX
  8
0
 10
189.797769
 20
643.375014
 42
0.260091
  0
VERTEX
  8
0
 10
188.972386
 20
641.893574
 42
0.000871
  0
VERTEX
  8
0
 10
189.022598
 20
620.378492
 42
0.003899
  0
VERTEX
  8
0
 10
189.254671
 20
600.833810
 42
0.033043
  0
VERTEX
  8
0
 10
190.006833
 20
592.081913
 42
0.006890
  0
VERTEX
  8
0
 10
192.195092
 20
578.986634
 42
0.007826
  0
VERTEX
  8
0
 10
194.660751
 20
566.503213
 42
0.008444
  0
VERTEX
  8
0
 10
197.211592
 20
555.487073
 42
0.017489
  0
VERTEX
  8
0
 10
199.646639
 20
547.000000
 42
0.026450
  0
VERTEX
  8
0
 10
204.347553
 20
534.781111
 42
0.012268
  0
VERTEX
  8
0
 10
211.664440
 20
519.426429
 42
0.012261
  0
VERTEX
  8
0
 10
219.953672
 20
504.024972
 42
0.020252
  0
VERTEX
  8
0
 10
227.784712
 20
491.500000
 42
0.013416
  0
VERTEX
  8
0
 10
239.518099
 20
475.274701
 42
0.018178
  0
VERTEX
  8
0
 10
251.021231
 20
461.316715
 42
0.019191
  0
VERTEX
  8
0
 10
262.968047
 20
448.847606
 42
0.018272
  0
VERTEX
  8
0
 10
276.026760
 20
437.117138
 42
0.004600
  0
VERTEX
  8
0
 10
288.827014
 20
426.635711
 42
0.016912
  0
VERTEX
  8
0
 10
297.201675
 20
420.359886
 42
0.020747
  0
VERTEX
  8
0
 10
305.087081
 20
415.330061
 42
0.009805
  0
VERTEX
  8
0
 10
315.639947
 20
409.472869
 42
-0.002067
  0
VERTEX
  8
0
 10
319.106865
 20
407.618205
 42
-0.002885
  0
VERTEX
  8
0
 10
322.191109
 20
405.928757
 42
-0.001749
  0
VERTEX
  8
0
 10
324.773631
 20
404.482862
 42
-0.037530
  0
VERTEX
  8
0
 10
325.500000
 20
403.997657
 42
0.046958
  0
VERTEX
  8
0
 10
326.022247
 20
403.662844
 42
0.018663
  0
VERTEX
  8
0
 10
326.793750
 20
403.300649
 42
0.018275
  0
VERTEX
  8
0
 10
327.660953
 20
402.969217
 42
0.021874
  0
VERTEX
  8
0
 10
328.500000
 20
402.723610
 42
-0.025209
  0
VERTEX
  8
0
 10
329.279809
 20
402.489688
 42
-0.638301
  0
VERTEX
  8
0
 10
329.295433
 20
402.321712
 42
-0.116071
  0
VERTEX
  8
0
 10
328.858683
 20
402.188418
 42
-0.006753
  0
VERTEX
  8
0
 10
327.456590
 20
402.116001
 42
-0.094134
  0
VERTEX
  8
0
 10
323.521764
 20
402.709151
 42
-0.007643
  0
VERTEX
  8
0
 10
313.682496
 20
406.329978
 42
-0.011049
  0
VERTEX
  8
0
 10
303.040037
 20
410.704618
 42
-0.014331
  0
VERTEX
  8
0
 10
293.500000
 20
415.204698
 42
-0.028109
  0
VERTEX
  8
0
 10
279.673107
 20
423.224943
 42
-0.015121
  0
VERTEX
  8
0
 10
263.535923
 20
434.553123
 42
-0.015022
  0
VERTEX
  8
0
 10
247.749714
 20
447.120126
 42
-0.022934
  0
VERTEX
  8
0
 10
234.921166
 20
459.029151
 42
-0.017421
  0
VERTEX
  8
0
 10
221.512541
 20
473.659513
 42
-0.025231
  0
VERTEX
  8
0
 10
210.814414
 20
487.542130
 42
-0.024290
  0
VERTEX
  8
0
 10
201.282469
 20
502.829162
 42
-0.014596
  0
VERTEX
  8
0
 10
191.410355
 20
521.801817
 42
-0.019909
  0
VERTEX
  8
0
 10
181.673161
 20
544.157449
 42
-0.021165
  0
VERTEX
  8
0
 10
173.962003
 20
566.770041
 42
-0.020791
  0
VERTEX
  8
0
 10
168.079619
 20
590.322914
 42
-0.017873
  0
VERTEX
  8
0
 10
163.824493
 20
615.500000
 42
-0.028243
  0
VERTEX
  8
0
 10
162.727406
 20
630.059001
 42
-0.004744
  0
VERTEX
  8
0
 10
162.468498
 20
658.034511
 42
-0.004372
  0
VERTEX
  8
0
 10
162.720039
 20
686.056478
 42
-0.034461
  0
VERTEX
  8
0
 10
163.843940
 20
699.000000
 42
-0.017244
  0
VERTEX
  8
0
 10
170.677925
 20
734.536021
 42
-0.021994
  0
VERTEX
  8
0
 10
179.526088
 20
766.699863
 42
-0.021315
  0
VERTEX
  8
0
 10
191.410728
 20
798.753436
 42
-0.014698
  0
VERTEX
  8
0
 10
207.451096
 20
834.000000
 42
-0.016785
  0
VERTEX
  8
0
 10
223.652845
 20
864.372302
 42
-0.016225
  0
VERTEX
  8
0
 10
242.029683
 20
893.942549
 42
-0.013380
  0
VERTEX
  8
0
 10
265.300882
 20
926.868486
 42
-0.006382
  0
VERTEX
  8
0
 10
296.880595
 20
968.000000
 42
0.003576
  0
VERTEX
  8
0
 10
330.535404
 20
1011.328645
 42
0.006768
  0
VERTEX
  8
0
 10
356.929174
 20
1046.800042
 42
0.008280
  0
VERTEX
  8
0
 10
377.118335
 20
1075.710318
 42
0.019293
  0
VERTEX
  8
0
 10
391.021246
 20
1098.160766
 42
-0.006787
  0
VERTEX
  8
0
 10
393.628861
 20
1102.616759
 42
-0.027079
  0
VERTEX
  8
0
 10
395.407752
 20
1105.232768
 42
-0.053537
  0
VERTEX
  8
0
 10
396.628995
 20
1106.522078
 42
-0.470986
  0
VERTEX
  8
0
 10
397.304122
 20
1106.402846
 42
-0.054825
  0
VERTEX
  8
0
 10
397.567916
 20
1105.789402
 42
-0.051632
  0
VERTEX
  8
0
 10
397.698877
 20
1105.120726
 42
-0.055548
  0
VERTEX
  8
0
 10
397.685976
 20
1104.499091
 42
-0.105853
  0
SEQEND
  0
POLYLINE
  8
0
 66
1
 70
1
  0
VERTEX
  8
0
 10
796.000000
 20
810.669922
 42
-0.008256
  0
VERTEX
  8
0
 10
810.468324
 20
807.673341
 42
-0.012831
  0
VERTEX
  8
0
 10
822.825655
 20
804.565364
 42
-0.013704
  0
VERTEX
  8
0
 10
834.386415
 20
800.995989
 42
-0.011601
  0
VERTEX
  8
0
 10
846.401774
 20
796.609074
 42
-0.029401
  0
VERTEX
  8
0
 10
877.726859
 20
782.164648
 42
-0.026281
  0
VERTEX
  8
0
 10
908.381631
 20
763.647578
 42
-0.026496
  0
VERTEX
  8
0
 10
936.652898
 20
742.203622
 42
-0.031419
  0
VERTEX
  8
0
 10
960.837927
 20
718.998637
 42
-0.021292
  0
VERTEX
  8
0
 10
985.328941
 20
689.961940
 42
-0.030204
  0
VERTEX
  8
0
 10
1004.339388
 20
662.037541
 42
-0.030923
  0
VERTEX
  8
0
 10
1019.522473
 20
632.550095
 42
-0.023975
  0
VERTEX
  8
0
 10
1032.439422
 20
598.820737
 42
-0.010118
  0
VERTEX
  8
0
 10
1036.642752
 20
585.113832
 42
-0.014251
  0
VERTEX
  8
0
 10
1039.790704
 20
572.724371
 42
-0.013895
  0
VERTEX
  8
0
 10
1042.283265
 20
559.938317
 42
-0.008950
  0
VERTEX
  8
0
 10
1044.492739
 20
545.000000
 42
-0.025770
  0
VERTEX
  8
0
 10
1045.569422
 20
531.119751
 42
-0.004656
  0
VERTEX
  8
0
 10
1045.998470
 20
505.235326
 42
-0.004247
  0
VERTEX
  8
0
 10
1045.966567
 20
479.320245
 42
-0.032545
  0
VERTEX
  8
0
 10
1045.057827
 20
467.192629
 42
0.000118
  0
VERTEX
  8
0
 10
1044.612599
 20
464.024596
 42
0.000057
  0
VERTEX
  8
0
 10
1044.044091
 20
459.969085
 42
0.000056
  0
VERTEX
  8
0
 10
1043.452618
 20
455.742791
 42
0.000081
  0
VERTEX
  8
0
 10
1042.929860
 20
452.000000
 42
-0.018177
  0
VERTEX
  8
0
 10
1039.289991
 20
431.408824
 42
-0.015872
  0
VERTEX
  8
0
 10
1034.024493
 20
410.173163
 42
-0.016244
  0
VERTEX
  8
0
 10
1027.611580
 20
389.964292
 42
-0.023066
  0
VERTEX
  8
0
 10
1020.516580
 20
372.500000
 42
-0.003505
  0
VERTEX
  8
0
 10
1015.899971
 20
362.668778
 42
-0.003288
  0
VERTEX
  8
0
 10
1011.048037
 20
352.691019
 42
-0.002699
  0
VERTEX
  8
0
 10
1006.680304
 20
343.975899
 42
-0.020856
  0
VERTEX
  8
0
 10
1004.447544
 20
340.000000
 42
0.003501
  0
VERTEX
  8
0
 10
1003.263407
 20
338.052888
 42
0.000768
  0
VERTEX
  8
0
 10
1001.256801
 20
334.689005
 42
0.000800
  0
VERTEX
  8
0
 10
998.948634
 20
330.791862
 42
0.000768
  0
VERTEX
  8
0
 10
996.621772
 20
326.834910
 42
-0.020469
  0
VERTEX
  8
0
 10
986.275030
 20
310.727272
 42
-0.017021
  0
VERTEX
  8
0
 10
974.018157
 20
294.467884
 42
-0.015823
  0
VERTEX
  8
0
 10
959.746161
 20
277.918128
 42
-0.012543
  0
VERTEX
  8
0
 10
943.332918
 20
260.935786
 42
-0.007025
  0
VERTEX
  8
0
 10
929.413041
 20
247.617813
 42
-0.016499
  0
VERTEX
  8
0
 10
918.561891
 20
238.172194
 42
-0.017182
  0
VERTEX
  8
0
 10
907.380112
 20
229.691098
 42
-0.008255
  0
VERTEX
  8
0
 10
892.500000
 20
219.553997
 42
-0.007048
  0
VERTEX
  8
0
 10
874.803985
 20
208.275551
 42
-0.016669
  0
VERTEX
  8
0
 10
861.238268
 20
200.508439
 42
-0.018481
  0
VERTEX
  8
0
 10
848.056412
 20
194.145746
 42
-0.010790
  0
VERTEX
  8
0
 10
831.834068
 20
187.455422
 42
0.000399
  0
VERTEX
  8
0
 10
825.906183
 20
185.153619
 42
0.000392
  0
VERTEX
  8
0
 10
819.948132
 20
182.829241
 42
0.000385
  0
VERTEX
  8
0
 10
814.728119
 20
180.783427
 42
0.001498
  0
VERTEX
  8
0
 10
811.500000
 20
179.504224
 42
-0.018936
  0
VERTEX
  8
0
 10
800.682965
 20
175.648433
 42
-0.006937
  0
VERTEX
  8
0
 10
785.125885
 20
170.994568
 42
-0.004465
  0
VERTEX
  8
0
 10
769.602610
 20
166.733915
 42
-0.064826
  0
VERTEX
  8
0
 10
763.965773
 20
166.000000
 42
-0.436168
  0
VERTEX
  8
0
 10
763.431165
 20
166.575923
 42
-0.212129
  0
VERTEX
  8
0
 10
763.961879
 20
167.565105
 42
-0.036527
  0
VERTEX
  8
0
 10
766.846162
 20
169.484956
 42
-0.007390
  0
VERTEX
  8
0
 10
772.250000
 20
172.433436
 42
0.005446
  0
VERTEX
  8
0
 10
776.286800
 20
174.615691
 42
0.003848
  0
VERTEX
  8
0
 10
780.774785
 20
177.150760
 42
0.003884
  0
VERTEX
  8
0
 10
785.027322
 20
179.640356
 42
0.008180
  0
VERTEX
  8
0
 10
788.281182
 20
181.652235
 42
-0.002918
  0
VERTEX
  8
0
 10
790.913979
 20
183.318656
 42
-0.004525
  0
VERTEX
  8
0
 10
793.207320
 20
184.722844
 42
-0.001502
  0
VERTEX
  8
0
 10
795.199786
 20
185.910025
 42
-0.134387
  0
VERTEX
  8
0
 10
795.528501
 20
186.000000
 42
0.153341
  0
VERTEX
  8
0
 10
797.667464
 20
186.671776
 42
0.001820
  0
VERTEX
  8
0
 10
809.824476
 20
195.209547
 42
0.006008
  0
VERTEX
  8
0
 10
822.252295
 20
204.231289
 42
0.007620
  0
VERTEX
  8
0
 10
833.500000
 20
212.874020
 42
0.014861
  0
VERTEX
  8
0
 10
847.308982
 20
224.508293
 42
0.007819
  0
VERTEX
  8
0
 10
863.796374
 20
239.729598
 42
0.007691
  0
VERTEX
  8
0
 10
879.338806
 20
254.998201
 42
0.020690
  0
VERTEX
  8
0
 10
889.755570
 20
266.463217
 42
0.013594
  0
VERTEX
  8
0
 10
897.920931
 20
276.791539
 42
0.004394
  0
VERTEX
  8
0
 10
909.454341
 20
292.510746
 42
0.004081
  0
VERTEX
  8
0
 10
920.560096
 20
308.197805
 42
0.019183
  0
VERTEX
  8
0
 10
926.514969
 20
317.498005
 42
0.013558
  0
VERTEX
  8
0
 10
933.433983
 20
330.042236
 42
0.009094
  0
VERTEX
  8
0
 10
940.687092
 20
344.727994
 42
0.008321
  0
VERTEX
  8
0
 10
948.117067
 20
361.192258
 42
0.006685
  0
VERTEX
  8
0
 10
955.575246
 20
379.136632
 42
0.003937
  0
VERTEX
  8
0
 10
962.659115
 20
397.257289
 42
0.048534
  0
VERTEX
  8
0
 10
964.618808
 20
404.399362
 42
0.816153
  0
VERTEX
  8
0
 10
963.541115
 20
404.820556
 42
0.019151
  0
VERTEX
  8
0
 10
958.558755
 20
396.433746
 42
-0.006656
  0
VERTEX
  8
0
 10
953.218034
 20
386.909565
 42
-0.003858
  0
VERTEX
  8
0
 10
946.560975
 20
375.602013
 42
-0.003548
  0
VERTEX
  8
0
 10
940.135905
 20
365.049213
 42
-0.015059
  0
VERTEX
  8
0
 10
936.059728
 20
358.883121
 42
-0.004810
  0
VERTEX
  8
0
 10
925.736137
 20
344.539572
 42
-0.009393
  0
VERTEX
  8
0
 10
917.184855
 20
333.343448
 42
-0.010266
  0
VERTEX
  8
0
 10
908.741629
 20
323.146152
 42
-0.007198
  0
VERTEX
  8
0
 10
898.836742
 20
312.000000
 42
-0.016494
  0
VERTEX
  8
0
 10
877.391823
 20
290.055376
 42
-0.014863
  0
VERTEX
  8
0
 10
853.808620
 20
268.771085
 42
-0.014738
  0
VERTEX
  8
0
 10
828.779934
 20
248.737189
 42
-0.015455
  0
VERTEX
  8
0
 10
803.000000
 20
230.540981
 42
-0.004735
  0
VERTEX
  8
0
 10
781.965530
 20
216.932092
 42
-0.013832
  0
VERTEX
  8
0
 10
767.116913
 20
208.089487
 42
-0.014281
  0
VERTEX
  8
0
 10
752.061459
 20
200.234354
 42
-0.005328
  0
VERTEX
  8
0
 10
730.500000
 20
190.039457
 42
-0.011517
  0
VERTEX
  8
0
 10
712.714747
 20
182.351976
 42
-0.010319
  0
VERTEX
  8
0
 10
693.935026
 20
175.190550
 42
-0.010349
  0
VERTEX
  8
0
 10
674.937794
 20
168.832129
 42
-0.011794
  0
VERTEX
  8
0
 10
656.500000
 20
163.556234
 42
-0.017413
  0
VERTEX
  8
0
 10
637.763317
 20
159.360680
 42
-0.010689
  0
VERTEX
  8
0
 10
615.440603
 20
155.664564
 42
-0.003962
  0
VERTEX
  8
0
 10
593.386133
 20
152.673766
 42
-0.232104
  0
VERTEX
  8
0
 10
589.649355
 20
153.950645
 42
-0.081533
  0
VERTEX
  8
0
 10
589.310006
 20
154.423288
 42
-0.332532
  0
VERTEX
  8
0
 10
589.370158
 20
154.750000
 42
-0.162514
  0
VERTEX
  8
0
 10
589.813555
 20
154.950381
 42
-0.025566
  0
VERTEX
  8
0
 10
590.783322
 20
155.000000
 42
0.077960
  0
VERTEX
  8
0
 10
600.593993
 20
156.539042
 42
0.005458
  0
VERTEX
  8
0
 10
627.096460
 20
165.384327
 42
0.008537
  0
VERTEX
  8
0
 10
654.792103
 20
175.497723
 42
0.014339
  0
VERTEX
  8
0
 10
677.637147
 20
185.045370
 42
0.021622
  0
VERTEX
  8
0
 10
708.223774
 20
200.497077
 42
0.016149
  0
VERTEX
  8
0
 10
740.568036
 20
220.031165
 42
0.016386
  0
VERTEX
  8
0
 10
770.687977
 20
241.009920
 42
0.027417
  0
VERTEX
  8
0
 10
794.370788
 20
260.794957
 42
0.016234
  0
VERTEX
  8
0
 10
815.593806
 20
281.927032
 42
0.018975
  0
VERTEX
  8
0
 10
834.278041
 20
303.353594
 42
0.019299
  0
VERTEX
  8
0
 10
851.013301
 20
325.802836
 42
0.017983
  0
VERTEX
  8
0
 10
866.388058
 20
350.000000
 42
0.014659
  0
VERTEX
  8
0
 10
870.668259
 20
357.820726
 42
0.003198
  0
VERTEX
  8
0
 10
877.556913
 20
371.549998
 42
0.002728
  0
VERTEX
  8
0
 10
884.280725
 20
385.356574
 42
0.022433
  0
VERTEX
  8
0
 10
887.022673
 20
391.790145
 42
-0.005534
  0
VERTEX
  8
0
 10
887.998378
 20
394.312532
 42
-0.003281
  0
VERTEX
  8
0
 10
889.214620
 20
397.299167
 42
-0.003283
  0
VERTEX
  8
0
 10
890.467178
 20
400.262975
 42
-0.005645
  0
VERTEX
  8
0
 10
891.554601
 20
402.713083
 42
0.006353
  0
VERTEX
  8
0
 10
892.491247
 20
404.831554
 42
0.008554
  0
VERTEX
  8
0
 10
893.281664
 20
406.773873
 42
0.006192
  0
VERTEX
  8
0
 10
893.892411
 20
408.411406
 42
0.086365
  0
VERTEX
  8
0
 10
894.000000
 20
409.029635
 42
0.507106
  0
VERTEX
  8
0
 10
893.359210
 20
409.498973
 42
0.141579
  0
VERTEX
  8
0
 10
892.125462
 20
408.676915
 42
0.027746
  0
VERTEX
  8
0
 10
889.635552
 20
405.376158
 42
0.004330
  0
VERTEX
  8
0
 10
885.144841
 20
398.553750
 42
-0.021508
  0
VERTEX
  8
0
 10
873.587555
 20
382.244173
 42
-0.011450
  0
VERTEX
  8
0
 10
857.983478
 20
363.042231
 42
-0.011174
  0
VERTEX
  8
0
 10
840.631249
 20
343.560190
 42
-0.013831
  0
VERTEX
  8
0
 10
823.585575
 20
326.248249
 42
-0.020660
  0
VERTEX
  8
0
 10
796.974795
 20
302.711526
 42
-0.022720
  0
VERTEX
  8
0
 10
769.316876
 20
282.229307
 42
-0.023590
  0
VERTEX
  8
0
 10
740.966811
 20
265.048922
 42
-0.026802
  0
VERTEX
  8
0
 10
712.282761
 20
251.402400
 42
0.001804
  0
VERTEX
  8
0
 10
708.540492
 20
249.846247
 42
0.001485
  0
VERTEX
  8
0
 10
704.557961
 20
248.159368
 42
0.001499
  0
VERTEX
  8
0
 10
700.909979
 20
246.588447
 42
0.003993
  0
VERTEX
  8
0
 10
698.318808
 20
245.438714
 42
-0.025666
  0
VERTEX
  8
0
 10
683.664351
 20
239.682556
 42
-0.014953
  0
VERTEX
  8
0
 10
665.578384
 20
234.225298
 42
-0.013569
  0
VERTEX
  8
0
 10
644.948495
 20
229.263956
 42
-0.010874
  0
VERTEX
  8
0
 10
622.500000
 20
225.013507
 42
-0.000819
  0
VERTEX
  8
0
 10
613.037241
 20
223.450055
 42
-0.021796
  0
VERTEX
  8
0
 10
610.496623
 20
223.147525
 42
-0.126868
  0
VERTEX
  8
0
 10
609.423498
 20
223.339979
 42
-0.293235
  0
VERTEX
  8
0
 10
609.000000
 20
224.000000
 42
-0.192146
  0
VERTEX
  8
0
 10
609.152390
 20
224.381905
 42
-0.087854
  0
VERTEX
  8
0
 10
609.591486
 20
224.706250
 42
-0.067684
  0
VERTEX
  8
0
 10
610.242941
 20
224.926327
 42
-0.047692
  0
VERTEX
  8
0
 10
611.013569
 20
225.000000
 42
0.038061
  0
VERTEX
  8
0
 10
611.910913
 20
225.068408
 42
0.023700
  0
VERTEX
  8
0
 10
612.945728
 20
225.277705
 42
0.023732
  0
VERTEX
  8
0
 10
613.952583
 20
225.583006
 42
0.039194
  0
VERTEX
  8
0
 10
614.763569
 20
225.945379
 42
-0.036698
  0
VERTEX
  8
0
 10
615.915474
 20
226.466988
 42
-0.003230
  0
VERTEX
  8
0
 10
618.927423
 20
227.550677
 42
-0.004217
  0
VERTEX
  8
0
 10
622.543456
 20
228.791205
 42
-0.003270
  0
VERTEX
  8
0
 10
626.500000
 20
230.082669
 42
0.015318
  0
VERTEX
  8
0
 10
642.337124
 20
235.677766
 42
0.013041
  0
VERTEX
  8
0
 10
658.686901
 20
242.519474
 42
0.013403
  0
VERTEX
  8
0
 10
673.966740
 20
249.885467
 42
0.021646
  0
VERTEX
  8
0
 10
686.500000
 20
257.049774
 42
0.008799
  0
VERTEX
  8
0
 10
696.781807
 20
263.788677
 42
0.003878
  0
VERTEX
  8
0
 10
710.150355
 20
273.043527
 42
0.003630
  0
VERTEX
  8
0
 10
722.972631
 20
282.208007
 42
0.014325
  0
VERTEX
  8
0
 10
730.657442
 20
288.128650
 42
0.016510
  0
VERTEX
  8
0
 10
738.995822
 20
295.414238
 42
0.007024
  0
VERTEX
  8
0
 10
749.693477
 20
305.687874
 42
0.007001
  0
VERTEX
  8
0
 10
760.655561
 20
316.823029
 42
0.010091
  0
VERTEX
  8
0
 10
770.011381
 20
327.000000
 42
0.012051
  0
VERTEX
  8
0
 10
783.319750
 20
342.829105
 42
0.015457
  0
VERTEX
  8
0
 10
794.746087
 20
358.045570
 42
0.013910
  0
VERTEX
  8
0
 10
806.094182
 20
375.165584
 42
0.007339
  0
VERTEX
  8
0
 10
819.267532
 20
397.000000
 42
0.016534
  0
VERTEX
  8
0
 10
826.519667
 20
410.430220
 42
0.004637
  0
VERTEX
  8
0
 10
836.952319
 20
431.874806
 42
0.002686
  0
VERTEX
  8
0
 10
847.240630
 20
453.834537
 42
0.054798
  0
VERTEX
  8
0
 10
849.566963
 20
460.778118
 42
0.000000
  0
VERTEX
  8
0
 10
850.157916
 20
463.500000
 42
0.000000
  0
VERTEX
  8
0
 10
848.055535
 20
461.000000
 42
0.014610
  0
VERTEX
  8
0
 10
846.862499
 20
459.494125
 42
0.002283
  0
VERTEX
  8
0
 10
844.609247
 20
456.443750
 42
0.002538
  0
VERTEX
  8
0
 10
841.986420
 20
452.820467
 42
0.002210
  0
VERTEX
  8
0
 10
839.275772
 20
449.000000
 42
-0.005811
  0
VERTEX
  8
0
 10
832.281301
 20
439.290713
 42
-0.002331
  0
VERTEX
  8
0
 10
822.498550
 20
426.166906
 42
-0.001799
  0
VERTEX
  8
0
 10
812.872398
 20
413.473339
 42
-0.015218
  0
VERTEX
  8
0
 10
808.349491
 20
407.912784
 42
-0.003516
  0
VERTEX
  8
0
 10
798.748754
 20
396.973396
 42
-0.003856
  0
VERTEX
  8
0
 10
789.283573
 20
386.503909
 42
-0.003792
  0
VERTEX
  8
0
 10
781.025825
 20
377.646138
 42
-0.016239
  0
VERTEX
  8
0
 10
775.895443
 20
372.566952
 42
0.001448
  0
VERTEX
  8
0
 10
772.812292
 20
369.690054
 42
0.000631
  0
VERTEX
  8
0
 10
768.734911
 20
365.853588
 42
0.000625
  0
VERTEX
  8
0
 10
764.413584
 20
361.767071
 42
0.000833
  0
VERTEX
  8
0
 10
760.500000
 20
358.044462
 42
-0.017215
  0
VERTEX
  8
0
 10
745.416006
 20
344.609656
 42
-0.012359
  0
VERTEX
  8
0
 10
727.703341
 20
330.620167
 42
-0.012377
  0
VERTEX
  8
0
 10
709.365559
 20
317.555684
 42
-0.017554
  0
VERTEX
  8
0
 10
692.388164
 20
306.931410
 42
-0.023236
  0
VERTEX
  8
0
 10
668.205360
 20
294.415325
 42
-0.019262
  0
VERTEX
  8
0
 10
641.419228
 20
283.322790
 42
-0.019020
  0
VERTEX
  8
0
 10
613.458021
 20
274.178808
 42
-0.020902
  0
VERTEX
  8
0
 10
585.743737
 20
267.507345
 42
-0.022682
  0
VERTEX
  8
0
 10
567.944329
 20
264.834070
 42
-0.010236
  0
VERTEX
  8
0
 10
544.416311
 20
262.870884
 42
-0.009147
  0
VERTEX
  8
0
 10
521.730724
 20
261.861091
 42
-0.045375
  0
VERTEX
  8
0
 10
509.000000
 20
262.683343
 42
0.000000
  0
VERTEX
  8
0
 10
503.500000
 20
263.543791
 42
0.000000
  0
VERTEX
  8
0
 10
509.000000
 20
264.688066
 42
-0.006938
  0
VERTEX
  8
0
 10
511.846840
 20
265.239253
 42
-0.002188
  0
VERTEX
  8
0
 10
516.115625
 20
265.985183
 42
-0.002185
  0
VERTEX
  8
0
 10
520.885223
 20
266.775701
 42
-0.002423
  0
VERTEX
  8
0
 10
525.500000
 20
267.496928
 42
0.038840
  0
VERTEX
  8
0
 10
556.394723
 20
274.659954
 42
0.026524
  0
VERTEX
  8
0
 10
590.156889
 20
287.310448
 42
0.024839
  0
VERTEX
  8
0
 10
624.953991
 20
304.602871
 42
0.022627
  0
VERTEX
  8
0
 10
659.000000
 20
325.764354
 42
0.030687
  0
VERTEX
  8
0
 10
682.264728
 20
343.921825
 42
0.020091
  0
VERTEX
  8
0
 10
706.829904
 20
367.469414
 42
0.019685
  0
VERTEX
  8
0
 10
730.165296
 20
393.702631
 42
0.024054
  0
VERTEX
  8
0
 10
749.761437
 20
420.047597
 42
0.015075
  0
VERTEX
  8
0
 10
758.503641
 20
433.951643
 42
0.008087
  0
VERTEX
  8
0
 10
768.488457
 20
451.595629
 42
0.007892
  0
VERTEX
  8
0
 10
777.567809
 20
468.907844
 42
0.022945
  0
VERTEX
  8
0
 10
783.092044
 20
481.233517
 42
0.073621
  0
VERTEX
  8
0
 10
783.741460
 20
484.026114
 42
0.694314
  0
VERTEX
  8
0
 10
782.988575
 20
484.379188
 42
0.030963
  0
VERTEX
  8
0
 10
779.617881
 20
480.639878
 42
0.001693
  0
VERTEX
  8
0
 10
769.810905
 20
468.218180
 42
-0.028547
  0
VERTEX
  8
0
 10
741.433829
 20
435.993980
 42
-0.026623
  0
VERTEX
  8
0
 10
708.932400
 20
406.407565
 42
-0.027342
  0
VERTEX
  8
0
 10
674.527575
 20
381.291951
 42
-0.035822
  0
VERTEX
  8
0
 10
640.463573
 20
362.492251
 42
-0.016312
  0
VERTEX
  8
0
 10
618.210123
 20
353.082048
 42
-0.015036
  0
VERTEX
  8
0
 10
594.782572
 20
344.864097
 42
-0.015449
  0
VERTEX
  8
0
 10
571.698259
 20
338.315833
 42
-0.021018
  0
VERTEX
  8
0
 10
550.500000
 20
333.941871
 42
-0.021350
  0
VERTEX
  8
0
 10
530.271142
 20
331.528217
 42
-0.010720
  0
VERTEX
  8
0
 10
504.573245
 20
330.123136
 42
-0.010482
  0
VERTEX
  8
0
 10
479.580291
 20
329.817700
 42
-0.030171
  0
VERTEX
  8
0
 10
462.290848
 20
331.013722
 42
-0.007954
  0
VERTEX
  8
0
 10
447.826951
 20
333.130218
 42
-0.009285
  0
VERTEX
  8
0
 10
434.168148
 20
335.612540
 42
-0.009871
  0
VERTEX
  8
0
 10
422.477525
 20
338.203307
 42
-0.028116
  0
VERTEX
  8
0
 10
414.500000
 20
340.619087
 42
0.000000
  0
VERTEX
  8
0
 10
410.500000
 20
342.080390
 42
0.000000
  0
VERTEX
  8
0
 10
417.500000
 20
341.528406
 42
0.010988
  0
VERTEX
  8
0
 10
436.220772
 20
340.465492
 42
0.017527
  0
VERTEX
  8
0
 10
452.247566
 20
340.470470
 42
0.017286
  0
VERTEX
  8
0
 10
468.392628
 20
341.601339
 42
0.010315
  0
VERTEX
  8
0
 10
487.500000
 20
344.004759
 42
0.014099
  0
VERTEX
  8
0
 10
513.650867
 20
348.600245
 42
0.023452
  0
VERTEX
  8
0
 10
535.330069
 20
354.113809
 42
0.024302
  0
VERTEX
  8
0
 10
555.849962
 20
361.477295
 42
0.016638
  0
VERTEX
  8
0
 10
578.389439
 20
371.716357
 42
0.023554
  0
VERTEX
  8
0
 10
607.915454
 20
388.107162
 42
0.026835
  0
VERTEX
  8
0
 10
634.460387
 20
406.562491
 42
0.025691
  0
VERTEX
  8
0
 10
659.815022
 20
428.468492
 42
0.018625
  0
VERTEX
  8
0
 10
685.784939
 20
455.270963
 42
0.009424
  0
VERTEX
  8
0
 10
693.697403
 20
464.411099
 42
0.006780
  0
VERTEX
  8
0
 10
702.196388
 20
474.896987
 42
0.002144
  0
VERTEX
  8
0
 10
710.311982
 20
485.283459
 42
0.164095
  0
VERTEX
  8
0
 10
710.993698
 20
487.250000
 42
0.249466
  0
VERTEX
  8
0
 10
710.710576
 20
487.793099
 42
0.172431
  0
VERTEX
  8
0
 10
710.026831
 20
487.974837
 42
0.119260
  0
VERTEX
  8
0
 10
709.172140
 20
487.692446
 42
0.115691
  0
VERTEX
  8
0
 10
708.529802
 20
487.048221
 42
-0.093853
  0
VERTEX
  8
0
 10
706.898553
 20
485.264330
 42
-0.002132
  0
VERTEX
  8
0
 10
697.599602
 20
478.360463
 42
-0.005351
  0
VERTEX
  8
0
 10
687.845713
 20
471.342796
 42
-0.007562
  0
VERTEX
  8
0
 10
679.000000
 20
465.318976
 42
-0.025610
  0
VERTEX
  8
0
 10
648.963563
 20
447.658744
 42
-0.026139
  0
VERTEX
  8
0
 10
617.479408
 20
433.293863
 42
-0.026518
  0
VERTEX
  8
0
 10
585.128259
 20
422.473990
 42
-0.028288
  0
VERTEX
  8
0
 10
552.500000
 20
415.411252
 42
-0.026517
  0
VERTEX
  8
0
 10
539.483234
 20
414.058009
 42
-0.007202
  0
VERTEX
  8
0
 10
518.792371
 20
413.309446
 42
-0.007477
  0
VERTEX
  8
0
 10
497.802310
 20
413.166606
 42
-0.020891
  0
VERTEX
  8
0
 10
483.102902
 20
413.901065
 42
-0.016666
  0
VERTEX
  8
0
 10
464.579447
 20
416.229144
 42
-0.015367
  0
VERTEX
  8
0
 10
445.739964
 20
419.834521
 42
-0.016012
  0
VERTEX
  8
0
 10
428.709180
 20
424.216596
 42
-0.034286
  0
VERTEX
  8
0
 10
415.976795
 20
428.899027
 42
-0.048653
  0
VERTEX
  8
0
 10
413.324824
 20
430.411039
 42
-0.591740
  0
VERTEX
  8
0
 10
413.429206
 20
431.328715
 42
-0.128593
  0
VERTEX
  8
0
 10
415.714820
 20
431.634758
 42
-0.015744
  0
VERTEX
  8
0
 10
420.745486
 20
430.853036
 42
0.040006
  0
VERTEX
  8
0
 10
429.184082
 20
429.957970
 42
0.006584
  0
VERTEX
  8
0
 10
445.588129
 20
429.752326
 42
0.007723
  0
VERTEX
  8
0
 10
462.531305
 20
430.024749
 42
0.018775
  0
VERTEX
  8
0
 10
475.000000
 20
430.887310
 42
0.013363
  0
VERTEX
  8
0
 10
490.334666
 20
432.944203
 42
0.010361
  0
VERTEX
  8
0
 10
506.905654
 20
435.973034
 42
0.010544
  0
VERTEX
  8
0
 10
522.797776
 20
439.570092
 42
0.017525
  0
VERTEX
  8
0
 10
536.000000
 20
443.348227
 42
0.011401
  0
VERTEX
  8
0
 10
545.632617
 20
446.718543
 42
0.004723
  0
VERTEX
  8
0
 10
558.504010
 20
451.693438
 42
0.004748
  0
VERTEX
  8
0
 10
571.385694
 20
456.954894
 42
0.010365
  0
VERTEX
  8
0
 10
581.133822
 20
461.284681
 42
0.019845
  0
VERTEX
  8
0
 10
597.869144
 20
469.963393
 42
0.010906
  0
VERTEX
  8
0
 10
617.664119
 20
481.826468
 42
0.010858
  0
VERTEX
  8
0
 10
636.504552
 20
494.262707
 42
0.024841
  0
VERTEX
  8
0
 10
650.000000
 20
504.624983
 42
0.009803
  0
VERTEX
  8
0
 10
665.826690
 20
518.621184
 42
0.012158
  0
VERTEX
  8
0
 10
679.969096
 20
532.280354
 42
0.013320
  0
VERTEX
  8
0
 10
692.085701
 20
545.239166
 42
0.020690
  0
VERTEX
  8
0
 10
701.752023
 20
557.099916
 42
0.027099
  0
VERTEX
  8
0
 10
722.504999
 20
588.212563
 42
0.040478
  0
VERTEX
  8
0
 10
736.810202
 20
617.589482
 42
0.044973
  0
VERTEX
  8
0
 10
745.148415
 20
646.330955
 42
0.047868
  0
VERTEX
  8
0
 10
747.981174
 20
675.500000
 42
0.025436
  0
VERTEX
  8
0
 10
747.130504
 20
692.597788
 42
0.040083
  0
VERTEX
  8
0
 10
744.491139
 20
707.045036
 42
0.040756
  0
VERTEX
  8
0
 10
739.620832
 20
720.713674
 42
0.027448
  0
VERTEX
  8
0
 10
731.986932
 20
735.425945
 42
0.043193
  0
VERTEX
  8
0
 10
722.880691
 20
748.185380
 42
0.049519
  0
VERTEX
  8
0
 10
712.086772
 20
758.561269
 42
0.050254
  0
VERTEX
  8
0
 10
699.610863
 20
766.492527
 42
0.046862
  0
VERTEX
  8
0
 10
685.512392
 20
771.996456
 42
0.023721
  0
VERTEX
  8
0
 10
677.311393
 20
773.926249
 42
0.020338
  0
VERTEX
  8
0
 10
668.532397
 20
775.190321
 42
0.021016
  0
VERTEX
  8
0
 10
660.161392
 20
775.695791
 42
0.037067
  0
VERTEX
  8
0
 10
653.250000
 20
775.309625
 42
-0.006820
  0
VERTEX
  8
0
 10
649.496390
 20
774.871189
 42
-0.037722
  0
VERTEX
  8
0
 10
647.465056
 20
774.815865
 42
-0.091861
  0
VERTEX
  8
0
 10
646.384070
 20
775.070554
 42
-0.297379
  0
VERTEX
  8
0
 10
646.000000
 20
775.659205
 42
-0.223383
  0
VERTEX
  8
0
 10
647.079711
 20
777.955340
 42
-0.011771
  0
VERTEX
  8
0
 10
653.616017
 20
783.114177
 42
-0.018663
  0
VERTEX
  8
0
 10
661.218072
 20
788.396824
 42
-0.022036
  0
VERTEX
  8
0
 10
668.792168
 20
792.793059
 42
-0.021032
  0
VERTEX
  8
0
 10
684.011423
 20
799.953968
 42
-0.025850
  0
VERTEX
  8
0
 10
698.779241
 20
805.278426
 42
-0.024382
  0
VERTEX
  8
0
 10
714.710423
 20
809.271643
 42
-0.015684
  0
VERTEX
  8
0
 10
733.500000
 20
812.409545
 42
-0.037567
  0
VERTEX
  8
0
 10
742.001454
 20
812.911814
 42
-0.002935
  0
VERTEX
  8
0
 10
764.739440
 20
812.412479
 42
-0.002961
  0
VERTEX
  8
0
 10
787.455387
 20
811.645575
 42
-0.037028
  0
SEQEND
  0
POLYLINE
  8
0
 66
1
 70
1
  0
VERTEX
  8
0
 10
333.250000
 20
400.337719
 42
-0.057986
  0
VERTEX
  8
0
 10
332.679992
 20
400.181385
 42
-0.037979
  0
VERTEX
  8
0
 10
332.000000
 20
400.129660
 42
-0.037979
  0
VERTEX
  8
0
 10
331.320008
 20
400.181385
 42
-0.057986
  0
VERTEX
  8
0
 10
330.750000
 20
400.337719
 42
-0.174857
  0
VERTEX
  8
0
 10
330.540618
 20
400.525001
 42
-0.447206
  0
VERTEX
  8
0
 10
330.601562
 20
400.693942
 42
-0.078554
  0
VERTEX
  8
0
 10
331.108560
 20
400.810911
 42
-0.017491
  0
VERTEX
  8
0
 10
332.000000
 20
400.842105
 42
-0.017491
  0
VERTEX
  8
0
 10
332.891440
 20
400.810911
 42
-0.078554
  0
VERTEX
  8
0
 10
333.398438
 20
400.693942
 42
-0.447206
  0
VERTEX
  8
0
 10
333.459382
 20
400.525001
 42
-0.174857
  0
SEQEND
  0
POLYLINE
  8
0
 66
1
 70
1
  0
VERTEX
  8
0
 10
229.000000
 20
1856.501442
 42
0.116638
  0
VERTEX
  8
0
 10
229.416708
 20
1854.739408
 42
0.001165
  0
VERTEX
  8
0
 10
235.264498
 20
1843.134899
 42
0.004150
  0
VERTEX
  8
0
 10
240.861100
 20
1832.316559
 42
0.013865
  0
VERTEX
  8
0
 10
244.786075
 20
1825.355937
 42
0.025984
  0
VERTEX
  8
0
 10
255.745229
 20
1809.098191
 42
0.018220
  0
VERTEX
  8
0
 10
269.658287
 20
1791.946361
 42
0.018439
  0
VERTEX
  8
0
 10
284.285649
 20
1776.396085
 42
0.034796
  0
VERTEX
  8
0
 10
297.345896
 20
1765.181024
 42
0.007833
  0
VERTEX
  8
0
 10
306.755240
 20
1758.402290
 42
0.010986
  0
VERTEX
  8
0
 10
315.378569
 20
1752.670030
 42
0.008611
  0
VERTEX
  8
0
 10
325.686638
 20
1746.385880
 42
0.002862
  0
VERTEX
  8
0
 10
341.000000
 20
1737.525741
 42
-0.004301
  0
VERTEX
  8
0
 10
357.171256
 20
1728.107027
 42
-0.009030
  0
VERTEX
  8
0
 10
369.539284
 20
1720.454762
 42
-0.011322
  0
VERTEX
  8
0
 10
379.522687
 20
1713.701143
 42
-0.015360
  0
VERTEX
  8
0
 10
388.199187
 20
1707.130798
 42
-0.023583
  0
VERTEX
  8
0
 10
397.790658
 20
1698.615997
 42
-0.013631
  0
VERTEX
  8
0
 10
408.536721
 20
1687.542120
 42
-0.013627
  0
VERTEX
  8
0
 10
418.675992
 20
1675.884784
 42
-0.023323
  0
VERTEX
  8
0
 10
426.393781
 20
1665.561577
 42
0.001761
  0
VERTEX
  8
0
 10
434.726139
 20
1653.352263
 42
0.419042
  0
VERTEX
  8
0
 10
435.933491
 20
1653.139051
 42
0.351171
  0
VERTEX
  8
0
 10
436.306621
 20
1654.453823
 42
0.001642
  0
VERTEX
  8
0
 10
430.375447
 20
1668.397119
 42
0.015642
  0
VERTEX
  8
0
 10
417.926161
 20
1695.065218
 42
0.025611
  0
VERTEX
  8
0
 10
405.555948
 20
1716.707966
 42
0.027687
  0
VERTEX
  8
0
 10
391.799089
 20
1735.742541
 42
0.023017
  0
VERTEX
  8
0
 10
375.191182
 20
1754.405339
 42
0.025688
  0
VERTEX
  8
0
 10
359.575441
 20
1768.842575
 42
0.023215
  0
VERTEX
  8
0
 10
342.041872
 20
1782.127938
 42
0.019238
  0
VERTEX
  8
0
 10
320.479978
 20
1795.752212
 42
0.009673
  0
VERTEX
  8
0
 10
292.306569
 20
1811.352802
 42
-0.007747
  0
VERTEX
  8
0
 10
272.093000
 20
1822.444238
 42
-0.020460
  0
VERTEX
  8
0
 10
258.095398
 20
1831.186166
 42
-0.026101
  0
VERTEX
  8
0
 10
246.975657
 20
1839.663430
 42
-0.022725
  0
VERTEX
  8
0
 10
236.250000
 20
1849.635359
 42
0.003281
  0
VERTEX
  8
0
 10
233.468983
 20
1852.430209
 42
0.005778
  0
VERTEX
  8
0
 10
231.129687
 20
1854.697473
 42
0.001914
  0
VERTEX
  8
0
 10
229.143705
 20
1856.563922
 42
0.655650
  0
SEQEND
  0
POLYLINE
  8
0
 66
1
 70
1
  0
VERTEX
  8
0
 10
1011.980178
 20
1853.452318
 42
-0.025713
  0
VERTEX
  8
0
 10
1007.237620
 20
1848.851848
 42
-0.006463
  0
VERTEX
  8
0
 10
999.040481
 20
1841.865090
 42
-0.006921
  0
VERTEX
  8
0
 10
990.365754
 20
1834.863295
 42
-0.015196
  0
VERTEX
  8
0
 10
983.500000
 20
1829.806161
 42
-0.011163
  0
VERTEX
  8
0
 10
977.205587
 20
1825.663001
 42
-0.012050
  0
VERTEX
  8
0
 10
970.888950
 20
1821.913329
 42
-0.006114
  0
VERTEX
  8
0
 10
961.592400
 20
1816.841994
 42
-0.000832
  0
VERTEX
  8
0
 10
942.000000
 20
1806.504724
 42
0.005113
  0
VERTEX
  8
0
 10
922.736662
 20
1796.129282
 42
0.016984
  0
VERTEX
  8
0
 10
910.385366
 20
1788.754956
 42
0.021424
  0
VERTEX
  8
0
 10
900.140765
 20
1781.517492
 42
0.012625
  0
VERTEX
  8
0
 10
888.514367
 20
1772.055069
 42
0.022653
  0
VERTEX
  8
0
 10
869.699906
 20
1754.397444
 42
0.026998
  0
VERTEX
  8
0
 10
853.695624
 20
1736.069683
 42
0.027513
  0
VERTEX
  8
0
 10
840.008264
 20
1716.437169
 42
0.025293
  0
VERTEX
  8
0
 10
828.137093
 20
1694.873677
 42
0.004627
  0
VERTEX
  8
0
 10
822.174204
 20
1682.319177
 42
0.004905
  0
VERTEX
  8
0
 10
816.561944
 20
1669.897311
 42
0.000838
  0
VERTEX
  8
0
 10
811.362104
 20
1658.026797
 42
0.308403
  0
VERTEX
  8
0
 10
811.530765
 20
1657.135902
 42
0.415168
  0
VERTEX
  8
0
 10
812.192773
 20
1657.136980
 42
0.026748
  0
VERTEX
  8
0
 10
813.610592
 20
1658.725569
 42
0.012005
  0
VERTEX
  8
0
 10
816.090997
 20
1661.980500
 42
0.000995
  0
VERTEX
  8
0
 10
822.315929
 20
1670.605399
 42
-0.004066
  0
VERTEX
  8
0
 10
828.662941
 20
1679.286559
 42
-0.014976
  0
VERTEX
  8
0
 10
832.881322
 20
1684.617735
 42
-0.015044
  0
VERTEX
  8
0
 10
837.401846
 20
1689.674879
 42
-0.004132
  0
VERTEX
  8
0
 10
844.821798
 20
1697.361026
 42
-0.021604
  0
VERTEX
  8
0
 10
856.292168
 20
1708.080113
 42
-0.021072
  0
VERTEX
  8
0
 10
868.737655
 20
1717.863655
 42
-0.019884
  0
VERTEX
  8
0
 10
882.641170
 20
1727.058791
 42
-0.015260
  0
VERTEX
  8
0
 10
898.500000
 20
1736.013783
 42
0.007359
  0
VERTEX
  8
0
 10
922.790829
 20
1749.228340
 42
0.021899
  0
VERTEX
  8
0
 10
938.872792
 20
1759.238106
 42
0.026910
  0
VERTEX
  8
0
 10
952.121802
 20
1769.401109
 42
0.016733
  0
VERTEX
  8
0
 10
966.569691
 20
1782.636087
 42
0.019621
  0
VERTEX
  8
0
 10
978.993378
 20
1795.799813
 42
0.023874
  0
VERTEX
  8
0
 10
989.513456
 20
1809.091887
 42
0.022192
  0
VERTEX
  8
0
 10
999.298485
 20
1824.112286
 42
0.013643
  0
VERTEX
  8
0
 10
1009.527927
 20
1842.584671
 42
0.008636
  0
VERTEX
  8
0
 10
1013.264557
 20
1850.104338
 42
0.055550
  0
VERTEX
  8
0
 10
1014.649763
 20
1854.110285
 42
0.598133
  0
VERTEX
  8
0
 10
1013.910383
 20
1854.751785
 42
0.115041
  0
SEQEND
  0
POLYLINE
  8
0
 66
1
 70
1
  0
VERTEX
  8
0
 10
425.000000
 20
1511.906954
 42
0.010228
  0
VERTEX
  8
0
 10
411.998161
 20
1509.943109
 42
0.013362
  0
VERTEX
  8
0
 10
400.205799
 20
1507.588410
 42
0.013409
  0
VERTEX
  8
0
 10
388.589526
 20
1504.614534
 42
0.010422
  0
VERTEX
  8
0
 10
376.120899
 20
1500.780924
 42
0.022694
  0
VERTEX
  8
0
 10
367.265544
 20
1497.402064
 42
0.008135
  0
VERTEX
  8
0
 10
354.963498
 20
1491.817177
 42
0.006443
  0
VERTEX
  8
0
 10
343.080102
 20
1485.998763
 42
0.052441
  0
VERTEX
  8
0
 10
338.000000
 20
1482.721144
 42
0.000000
  0
VERTEX
  8
0
 10
335.500000
 20
1480.708695
 42
0.000000
  0
VERTEX
  8
0
 10
338.000000
 20
1481.421858
 42
-0.007104
  0
VERTEX
  8
0
 10
345.616938
 20
1483.478143
 42
-0.013205
  0
VERTEX
  8
0
 10
351.856401
 20
1484.893462
 42
-0.011513
  0
VERTEX
  8
0
 10
358.700925
 20
1486.093929
 42
-0.004132
  0
VERTEX
  8
0
 10
368.500000
 20
1487.498195
 42
-0.022005
  0
VERTEX
  8
0
 10
379.559668
 20
1488.497048
 42
-0.008560
  0
VERTEX
  8
0
 10
394.916789
 20
1488.941745
 42
-0.007431
  0
VERTEX
  8
0
 10
409.852304
 20
1488.896455
 42
-0.042889
  0
VERTEX
  8
0
 10
417.700779
 20
1488.080274
 42
0.001316
  0
VERTEX
  8
0
 10
419.998852
 20
1487.646136
 42
0.000602
  0
VERTEX
  8
0
 10
422.999604
 20
1487.091166
 42
0.000596
  0
VERTEX
  8
0
 10
426.160648
 20
1486.514384
 42
0.000823
  0
VERTEX
  8
0
 10
429.000000
 20
1486.004626
 42
-0.003601
  0
VERTEX
  8
0
 10
437.021236
 20
1484.518497
 42
-0.012914
  0
VERTEX
  8
0
 10
442.110034
 20
1483.400687
 42
-0.019561
  0
VERTEX
  8
0
 10
445.538532
 20
1482.410464
 42
-0.059928
  0
VERTEX
  8
0
 10
447.723169
 20
1481.381981
 42
-0.040141
  0
VERTEX
  8
0
 10
448.857659
 20
1480.537388
 42
-0.136923
  0
VERTEX
  8
0
 10
449.356320
 20
1479.773692
 42
-0.131982
  0
VERTEX
  8
0
 10
449.397072
 20
1478.845005
 42
-0.036198
  0
VERTEX
  8
0
 10
448.973169
 20
1477.429428
 42
0.074023
  0
VERTEX
  8
0
 10
448.168779
 20
1473.755518
 42
0.024149
  0
VERTEX
  8
0
 10
448.060381
 20
1468.191992
 42
0.024171
  0
VERTEX
  8
0
 10
448.529170
 20
1462.126881
 42
0.031263
  0
VERTEX
  8
0
 10
449.572082
 20
1456.644345
 42
0.059062
  0
VERTEX
  8
0
 10
454.304461
 20
1444.387694
 42
0.062915
  0
VERTEX
  8
0
 10
461.694637
 20
1433.861669
 42
0.063748
  0
VERTEX
  8
0
 10
471.373009
 20
1425.615203
 42
0.063441
  0
VERTEX
  8
0
 10
482.831885
 20
1420.056634
 42
0.049065
  0
VERTEX
  8
0
 10
489.313409
 20
1418.560314
 42
0.029271
  0
VERTEX
  8
0
 10
497.215658
 20
1418.003809
 42
0.028831
  0
VERTEX
  8
0
 10
505.352193
 20
1418.377248
 42
0.039245
  0
VERTEX
  8
0
 10
512.574853
 20
1419.706190
 42
-0.033885
  0
VERTEX
  8
0
 10
517.407878
 20
1420.649053
 42
-0.206340
  0
VERTEX
  8
0
 10
519.799356
 20
1419.956076
 42
-0.071999
  0
VERTEX
  8
0
 10
522.114146
 20
1417.410929
 42
-0.001998
  0
VERTEX
  8
0
 10
530.429149
 20
1405.000000
 42
-0.021425
  0
VERTEX
  8
0
 10
541.207664
 20
1387.158547
 42
-0.020735
  0
VERTEX
  8
0
 10
550.546968
 20
1368.267565
 42
-0.020550
  0
VERTEX
  8
0
 10
558.365743
 20
1348.495893
 42
-0.020145
  0
VERTEX
  8
0
 10
564.592726
 20
1328.018224
 42
0.006734
  0
VERTEX
  8
0
 10
566.523128
 20
1320.999106
 42
0.065224
  0
VERTEX
  8
0
 10
567.757456
 20
1318.175527
 42
0.562396
  0
VERTEX
  8
0
 10
568.647901
 20
1318.172147
 42
0.101678
  0
VERTEX
  8
0
 10
569.352904
 20
1320.119748
 42
-0.002109
  0
VERTEX
  8
0
 10
569.613965
 20
1321.860400
 42
-0.000671
  0
VERTEX
  8
0
 10
570.017132
 20
1324.450295
 42
-0.000670
  0
VERTEX
  8
0
 10
570.474073
 20
1327.334692
 42
-0.000747
  0
VERTEX
  8
0
 10
570.922652
 20
1330.115297
 42
0.036927
  0
VERTEX
  8
0
 10
571.864536
 20
1340.837493
 42
0.004790
  0
VERTEX
  8
0
 10
571.961550
 20
1363.834599
 42
0.005231
  0
VERTEX
  8
0
 10
571.598074
 20
1386.801528
 42
0.029585
  0
VERTEX
  8
0
 10
570.553286
 20
1399.000000
 42
0.017800
  0
VERTEX
  8
0
 10
567.034818
 20
1418.314551
 42
0.028946
  0
VERTEX
  8
0
 10
562.530361
 20
1434.361439
 42
0.032518
  0
VERTEX
  8
0
 10
556.673069
 20
1448.349553
 42
0.033023
  0
VERTEX
  8
0
 10
549.077578
 20
1461.385035
 42
0.048157
  0
VERTEX
  8
0
 10
535.356094
 20
1478.015554
 42
0.047759
  0
VERTEX
  8
0
 10
518.671141
 20
1491.765656
 42
0.047307
  0
VERTEX
  8
0
 10
499.523148
 20
1502.208273
 42
0.045467
  0
VERTEX
  8
0
 10
478.500000
 20
1509.032183
 42
0.024823
  0
VERTEX
  8
0
 10
465.817077
 20
1511.253110
 42
0.017511
  0
VERTEX
  8
0
 10
451.399755
 20
1512.535295
 42
0.017646
  0
VERTEX
  8
0
 10
437.148260
 20
1512.797479
 42
0.028148
  0
SEQEND
  0
POLYLINE
  8
0
 66
1
 70
1
  0
VERTEX
  8
0
 10
784.500000
 20
1511.536361
 42
0.012997
  0
VERTEX
  8
0
 10
771.567357
 20
1509.792388
 42
0.023131
  0
VERTEX
  8
0
 10
761.053731
 20
1507.592262
 42
0.025517
  0
VERTEX
  8
0
 10
751.525660
 20
1504.607639
 42
0.020849
  0
VERTEX
  8
0
 10
741.670995
 20
1500.484318
 42
0.052306
  0
VERTEX
  8
0
 10
721.664482
 20
1488.424104
 42
0.053707
  0
VERTEX
  8
0
 10
704.791559
 20
1472.568849
 42
0.052435
  0
VERTEX
  8
0
 10
691.357805
 20
1453.116920
 42
0.045787
  0
VERTEX
  8
0
 10
681.538071
 20
1430.406604
 42
0.016707
  0
VERTEX
  8
0
 10
677.204890
 20
1415.516646
 42
0.032229
  0
VERTEX
  8
0
 10
674.917849
 20
1403.318903
 42
0.024322
  0
VERTEX
  8
0
 10
673.872425
 20
1388.879630
 42
0.005929
  0
VERTEX
  8
0
 10
673.591036
 20
1365.000000
 42
0.004298
  0
VERTEX
  8
0
 10
673.769228
 20
1344.449058
 42
0.013286
  0
VERTEX
  8
0
 10
674.377585
 20
1330.580093
 42
0.017335
  0
VERTEX
  8
0
 10
675.386314
 20
1321.015293
 42
0.090226
  0
VERTEX
  8
0
 10
677.046690
 20
1316.000000
 42
0.269554
  0
VERTEX
  8
0
 10
677.749372
 20
1315.574449
 42
0.318918
  0
VERTEX
  8
0
 10
678.377116
 20
1316.003453
 42
0.037992
  0
VERTEX
  8
0
 10
679.052465
 20
1318.370702
 42
0.002792
  0
VERTEX
  8
0
 10
680.371297
 20
1325.000000
 42
-0.030282
  0
VERTEX
  8
0
 10
685.365777
 20
1344.451304
 42
-0.026629
  0
VERTEX
  8
0
 10
692.851614
 20
1364.033842
 42
-0.024130
  0
VERTEX
  8
0
 10
703.144588
 20
1384.467384
 42
-0.016825
  0
VERTEX
  8
0
 10
716.608250
 20
1406.500000
 42
-0.002117
  0
VERTEX
  8
0
 10
719.524209
 20
1410.889094
 42
-0.002566
  0
VERTEX
  8
0
 10
722.297331
 20
1414.979557
 42
-0.002170
  0
VERTEX
  8
0
 10
724.663353
 20
1418.399339
 42
-0.017663
  0
VERTEX
  8
0
 10
725.807019
 20
1419.919767
 42
0.000000
  0
VERTEX
  8
0
 10
727.764714
 20
1422.339534
 42
0.000000
  0
VERTEX
  8
0
 10
731.632357
 20
1420.419767
 42
0.047559
  0
VERTEX
  8
0
 10
734.183806
 20
1419.442786
 42
0.037719
  0
VERTEX
  8
0
 10
737.081117
 20
1418.869818
 42
0.023815
  0
VERTEX
  8
0
 10
741.090792
 20
1418.579750
 42
0.006149
  0
VERTEX
  8
0
 10
747.575391
 20
1418.500000
 42
0.000000
  0
VERTEX
  8
0
 10
759.650782
 20
1418.500000
 42
0.000000
  0
VERTEX
  8
0
 10
768.209234
 20
1422.740880
 42
0.054272
  0
VERTEX
  8
0
 10
777.685688
 20
1428.794882
 42
0.057089
  0
VERTEX
  8
0
 10
785.459075
 20
1436.655626
 42
0.056797
  0
VERTEX
  8
0
 10
791.284865
 20
1446.109179
 42
0.052759
  0
VERTEX
  8
0
 10
795.010211
 20
1456.866094
 42
0.040352
  0
VERTEX
  8
0
 10
795.631495
 20
1461.052941
 42
0.024133
  0
VERTEX
  8
0
 10
795.724126
 20
1466.087067
 42
0.021817
  0
VERTEX
  8
0
 10
795.309099
 20
1471.724683
 42
0.017384
  0
VERTEX
  8
0
 10
794.386374
 20
1477.753395
 42
-0.030685
  0
VERTEX
  8
0
 10
794.145182
 20
1479.668362
 42
-0.150471
  0
VERTEX
  8
0
 10
794.395874
 20
1480.716534
 42
-0.137397
  0
VERTEX
  8
0
 10
795.206551
 20
1481.493629
 42
-0.024048
  0
VERTEX
  8
0
 10
797.136002
 20
1482.409243
 42
-0.054497
  0
VERTEX
  8
0
 10
805.281254
 20
1484.805372
 42
-0.012927
  0
VERTEX
  8
0
 10
819.292552
 20
1486.942546
 42
-0.013698
  0
VERTEX
  8
0
 10
834.888397
 20
1488.477726
 42
-0.017539
  0
VERTEX
  8
0
 10
849.307371
 20
1488.992011
 42
-0.015655
  0
VERTEX
  8
0
 10
861.782506
 20
1488.608544
 42
-0.015981
  0
VERTEX
  8
0
 10
874.123245
 20
1487.445136
 42
-0.016063
  0
VERTEX
  8
0
 10
886.302787
 20
1485.503613
 42
-0.016211
  0
VERTEX
  8
0
 10
898.294980
 20
1482.788909
 42
0.007502
  0
VERTEX
  8
0
 10
901.320879
 20
1482.048309
 42
0.011621
  0
VERTEX
  8
0
 10
903.955842
 20
1481.509267
 42
0.006019
  0
VERTEX
  8
0
 10
906.164813
 20
1481.138015
 42
0.239389
  0
VERTEX
  8
0
 10
906.619858
 20
1481.286524
 42
0.486889
  0
VERTEX
  8
0
 10
906.518684
 20
1482.119906
 42
0.004906
  0
VERTEX
  8
0
 10
900.639515
 20
1485.596007
 42
0.011482
  0
VERTEX
  8
0
 10
893.650477
 20
1489.424950
 42
0.008339
  0
VERTEX
  8
0
 10
885.708939
 20
1493.374927
 42
0.028675
  0
VERTEX
  8
0
 10
870.197898
 20
1499.706247
 42
0.018673
  0
VERTEX
  8
0
 10
851.669782
 20
1505.293080
 42
0.018710
  0
VERTEX
  8
0
 10
832.859713
 20
1509.461953
 42
0.029757
  0
VERTEX
  8
0
 10
816.500000
 20
1511.454377
 42
-0.000646
  0
VERTEX
  8
0
 10
812.304745
 20
1511.718966
 42
-0.000584
  0
VERTEX
  8
0
 10
807.968750
 20
1512.003141
 42
-0.000585
  0
VERTEX
  8
0
 10
804.087036
 20
1512.266661
 42
-0.001873
  0
VERTEX
  8
0
 10
801.500000
 20
1512.455066
 42
0.025987
  0
VERTEX
  8
0
 10
798.806963
 20
1512.521006
 42
0.006627
  0
VERTEX
  8
0
 10
794.443750
 20
1512.343169
 42
0.006735
  0
VERTEX
  8
0
 10
789.460939
 20
1512.006520
 42
0.006780
  0
SEQEND
  0
POLYLINE
  8
0
 66
1
 70
1
  0
VERTEX
  8
0
 10
487.559298
 20
1141.750000
 42
0.014957
  0
VERTEX
  8
0
 10
487.914771
 20
1140.709231
 42
0.007684
  0
VERTEX
  8
0
 10
488.418784
 20
1139.426563
 42
0.007630
  0
VERTEX
  8
0
 10
488.978495
 20
1138.121079
 42
0.011413
  0
VERTEX
  8
0
 10
489.510554
 20
1137.000000
 42
-0.053507
  0
VERTEX
  8
0
 10
495.299611
 20
1121.574740
 42
-0.008119
  0
VERTEX
  8
0
 10
503.004167
 20
1089.519813
 42
-0.009805
  0
VERTEX
  8
0
 10
509.931517
 20
1055.351845
 42
-0.018467
  0
VERTEX
  8
0
 10
513.955722
 20
1027.500000
 42
-0.016985
  0
VERTEX
  8
0
 10
515.863996
 20
1001.260087
 42
-0.007644
  0
VERTEX
  8
0
 10
516.670217
 20
966.727898
 42
-0.007498
  0
VERTEX
  8
0
 10
516.413796
 20
929.776702
 42
-0.009366
  0
VERTEX
  8
0
 10
515.019108
 20
895.500000
 42
0.002885
  0
VERTEX
  8
0
 10
513.966441
 20
875.889951
 42
0.004635
  0
VERTEX
  8
0
 10
513.320380
 20
859.156087
 42
0.001997
  0
VERTEX
  8
0
 10
512.962989
 20
845.047189
 42
0.102764
  0
VERTEX
  8
0
 10
513.460771
 20
842.364651
 42
0.549369
  0
VERTEX
  8
0
 10
513.992576
 20
842.269090
 42
0.089573
  0
VERTEX
  8
0
 10
514.683337
 20
843.358237
 42
0.026876
  0
VERTEX
  8
0
 10
515.633310
 20
846.106587
 42
0.005684
  0
VERTEX
  8
0
 10
516.975444
 20
851.000000
 42
0.011435
  0
VERTEX
  8
0
 10
525.284823
 20
885.944070
 42
0.016933
  0
VERTEX
  8
0
 10
530.820273
 20
916.940004
 42
0.018289
  0
VERTEX
  8
0
 10
533.953912
 20
946.311857
 42
0.017467
  0
VERTEX
  8
0
 10
534.997040
 20
976.289219
 42
0.026721
  0
VERTEX
  8
0
 10
532.676037
 20
1019.570105
 42
0.034300
  0
VERTEX
  8
0
 10
525.712817
 20
1058.820988
 42
0.035936
  0
VERTEX
  8
0
 10
513.812074
 20
1095.220854
 42
0.034795
  0
VERTEX
  8
0
 10
496.716483
 20
1129.953506
 42
0.003943
  0
VERTEX
  8
0
 10
494.307553
 20
1134.019639
 42
0.006047
  0
VERTEX
  8
0
 10
492.150639
 20
1137.499884
 42
0.002386
  0
VERTEX
  8
0
 10
490.257893
 20
1140.441880
 42
0.149883
  0
VERTEX
  8
0
 10
489.790098
 20
1140.833333
 42
-0.126842
  0
VERTEX
  8
0
 10
489.487438
 20
1141.064168
 42
-0.060775
  0
VERTEX
  8
0
 10
489.232091
 20
1141.484896
 42
-0.054490
  0
VERTEX
  8
0
 10
489.058666
 20
1142.016731
 42
-0.051632
  0
VERTEX
  8
0
 10
489.000000
 20
1142.583333
 42
0.073729
  0
VERTEX
  8
0
 10
488.919742
 20
1143.124647
 42
0.088057
  0
VERTEX
  8
0
 10
488.686455
 20
1143.583854
 42
0.100597
  0
VERTEX
  8
0
 10
488.339659
 20
1143.890833
 42
0.131768
  0
VERTEX
  8
0
 10
487.932612
 20
1144.000000
 42
0.216724
  0
VERTEX
  8
0
 10
487.555074
 20
1143.828292
 42
0.139057
  0
VERTEX
  8
0
 10
487.346240
 20
1143.385576
 42
0.080901
  0
VERTEX
  8
0
 10
487.344126
 20
1142.673768
 42
0.035198
  0
SEQEND
  0
ENDSEC
  0
EOF
